<svg enable-background="new 0 0 63 63" height="63" viewBox="0 0 63 63" width="63" xmlns="http://www.w3.org/2000/svg"><g fill="none" stroke="#fd7cfc" stroke-miterlimit="10"><circle cx="31.5" cy="31.5" r="30" stroke-width="3"/><path d="m35.5 21c0 2.2-1.8 4-4 4s-4-1.8-4-4 1.8-4 4-4 4 1.8 4 4z"/><path d="m44.8 24.5c0 1.8-1.5 3.3-3.3 3.3s-3.3-1.5-3.3-3.3 1.5-3.3 3.3-3.3 3.3 1.4 3.3 3.3z"/><path d="m24.8 24.5c0 1.8-1.5 3.3-3.3 3.3s-3.3-1.5-3.3-3.3 1.5-3.3 3.3-3.3 3.3 1.4 3.3 3.3z"/><path d="m31.5 46c2.5 0 5-.1 7.3-.3v-12.5c0-4-3.2-7.2-7.2-7.2s-7.2 3.2-7.2 7.2v12.5c2.2.2 4.6.3 7.1.3z"/><path d="m41.5 28.6c-.6 0-1.1.1-1.6.2.8 1.3 1.2 2.8 1.2 4.4v12.4c2.3-.2 4.4-.5 6.4-.9v-10.1c0-3.3-2.7-6-6-6z"/><path d="m22 33.2c0-1.6.4-3.1 1.2-4.4-.5-.2-1.1-.2-1.7-.2-3.3 0-6 2.7-6 6v10.1c2 .4 4.2.7 6.5.9z"/></g></svg>