<?xml version="1.0" encoding="utf-8"?>
<!-- Generator: Adobe Illustrator 22.0.1, SVG Export Plug-In . SVG Version: 6.00 Build 0)  -->
<!DOCTYPE svg PUBLIC "-//W3C//DTD SVG 1.1//EN" "http://www.w3.org/Graphics/SVG/1.1/DTD/svg11.dtd" [
	<!ENTITY ns_extend "http://ns.adobe.com/Extensibility/1.0/">
	<!ENTITY ns_ai "http://ns.adobe.com/AdobeIllustrator/10.0/">
	<!ENTITY ns_graphs "http://ns.adobe.com/Graphs/1.0/">
	<!ENTITY ns_vars "http://ns.adobe.com/Variables/1.0/">
	<!ENTITY ns_imrep "http://ns.adobe.com/ImageReplacement/1.0/">
	<!ENTITY ns_sfw "http://ns.adobe.com/SaveForWeb/1.0/">
	<!ENTITY ns_custom "http://ns.adobe.com/GenericCustomNamespace/1.0/">
	<!ENTITY ns_adobe_xpath "http://ns.adobe.com/XPath/1.0/">
]>
<svg version="1.1" id="Layer_1" xmlns:x="&ns_extend;" xmlns:i="&ns_ai;" xmlns:graph="&ns_graphs;"
	 xmlns="http://www.w3.org/2000/svg" xmlns:xlink="http://www.w3.org/1999/xlink" x="0px" y="0px" width="220px" height="64px"
	 viewBox="0 0 220 64" style="enable-background:new 0 0 220 64;" xml:space="preserve">
<style type="text/css">
	.st0{opacity:0.7;fill:url(#Shape_8_);enable-background:new    ;}
	.st1{fill:url(#Shape_9_);}
	.st2{opacity:0.7;fill:url(#Shape_10_);enable-background:new    ;}
	.st3{opacity:0.7;fill:url(#Shape_11_);enable-background:new    ;}
	.st4{fill:url(#Oval_3_);}
	.st5{fill:url(#Oval_4_);}
	.st6{fill:url(#Shape_12_);}
	.st7{fill:url(#Oval_5_);}
	.st8{opacity:0.7;fill:url(#Shape_13_);enable-background:new    ;}
	.st9{fill:url(#Shape_14_);}
	.st10{fill:url(#Shape_15_);}
</style>
<metadata>
	<sfw  xmlns="&ns_sfw;">
		<slices></slices>
		<sliceSourceBounds  bottomLeftOrigin="true" height="60" width="184" x="18" y="2"></sliceSourceBounds>
	</sfw>
</metadata>
<g id="Page-1">
	<g id="Mux_Logo_Pixels_Medium_1_">
		<g id="Symbols">
			<g id="UI_x2F_Nav_x2F_Variations_x2F_Base">
				<g id="Mux_Logo_Pixels_Medium">
					<g id="Layer_1_1_">
						
							<linearGradient id="Shape_8_" gradientUnits="userSpaceOnUse" x1="-2017.8361" y1="318.9122" x2="-2003.2699" y2="318.9122" gradientTransform="matrix(12.7248 0 0 -12.8014 25692.7695 4114.2407)">
							<stop  offset="0" style="stop-color:#FF4E00"/>
							<stop  offset="1" style="stop-color:#FF1791"/>
						</linearGradient>
						<path id="Shape" class="st0" d="M190.8,59.6c2.5,2.5,6.5,2.5,8.8,0c2.5-2.5,2.5-6.5,0-8.9L153.1,3.9c-2.5-2.5-6.5-2.5-8.8,0
							c-2.3,2.5-2.5,6.5,0,8.9L190.8,59.6L190.8,59.6z"/>
						
							<linearGradient id="Shape_9_" gradientUnits="userSpaceOnUse" x1="-2017.4644" y1="318.8788" x2="-2003.059" y2="318.8788" gradientTransform="matrix(12.7104 0 0 -12.8014 25661.1797 4114.3579)">
							<stop  offset="0" style="stop-color:#FF4E00"/>
							<stop  offset="1" style="stop-color:#FF1791"/>
						</linearGradient>
						<path id="Shape_1_" class="st1" d="M153.1,60.1c-2.5,2.5-6.5,2.5-8.8,0c-2.3-2.5-2.5-6.5,0-8.9l46.5-46.8
							c2.5-2.5,6.5-2.5,8.8,0c2.3,2.5,2.5,6.5,0,8.9L153.1,60.1L153.1,60.1z"/>
						
							<linearGradient id="Shape_10_" gradientUnits="userSpaceOnUse" x1="-1858.3176" y1="318.84" x2="-1884.4386" y2="318.84" gradientTransform="matrix(7.1852 0 0 -12.7623 13558.3184 4100.8735)">
							<stop  offset="0" style="stop-color:#FF4E00"/>
							<stop  offset="1" style="stop-color:#FF1791"/>
						</linearGradient>
						<path id="Shape_2_" class="st2" d="M110,48.9c7.9,0,14.4-6.5,14.4-14.5V8.6c0-3.6,2.7-6.5,6.3-6.5c3.6,0,6.3,2.9,6.3,6.5v25.6
							c0,15-12.1,27.2-27.1,27.2c-3.4,0-6.3-2.9-6.3-6.3C103.9,51.6,106.6,48.9,110,48.9L110,48.9z"/>
						
							<linearGradient id="Shape_11_" gradientUnits="userSpaceOnUse" x1="-1381.6055" y1="318.8066" x2="-1312.5718" y2="318.8066" gradientTransform="matrix(2.7187 0 0 -12.7623 3772.8052 4100.9907)">
							<stop  offset="0" style="stop-color:#FF4E00"/>
							<stop  offset="1" style="stop-color:#FF1791"/>
						</linearGradient>
						<path id="Shape_3_" class="st3" d="M71.2,2.6c-3.6,0-6.3,2.9-6.3,6.5v46.2c0,3.6,2.7,6.5,6.3,6.5c3.6,0,6.3-2.9,6.3-6.5V9.2
							C77.5,5.5,74.8,2.6,71.2,2.6L71.2,2.6z"/>
						
							<linearGradient id="Oval_3_" gradientUnits="userSpaceOnUse" x1="-1385.8481" y1="238.6644" x2="-1318.2251" y2="238.6644" gradientTransform="matrix(2.7187 0 0 -2.732 3785.6206 660.4662)">
							<stop  offset="0" style="stop-color:#FF4E00"/>
							<stop  offset="1" style="stop-color:#FF1791"/>
						</linearGradient>
						<ellipse id="Oval" class="st4" cx="130.8" cy="8.4" rx="6.3" ry="6.3"/>
						
							<linearGradient id="Oval_4_" gradientUnits="userSpaceOnUse" x1="-1392.3187" y1="225.1277" x2="-1323.2849" y2="225.1277" gradientTransform="matrix(2.7187 0 0 -2.732 3799.6028 670.6136)">
							<stop  offset="0" style="stop-color:#FF4E00"/>
							<stop  offset="1" style="stop-color:#FF1791"/>
						</linearGradient>
						<ellipse id="Oval_1_" class="st5" cx="195.7" cy="55.6" rx="6.3" ry="6.3"/>
						
							<linearGradient id="Shape_12_" gradientUnits="userSpaceOnUse" x1="-1378.0569" y1="318.8066" x2="-1309.0231" y2="318.8066" gradientTransform="matrix(2.7187 0 0 -12.7623 3762.7056 4100.9907)">
							<stop  offset="0" style="stop-color:#FF4E00"/>
							<stop  offset="1" style="stop-color:#FF1791"/>
						</linearGradient>
						<path id="Shape_4_" class="st6" d="M24.3,2.6c-3.6,0-6.3,2.9-6.3,6.5v46.2c0,3.6,2.7,6.5,6.3,6.5s6.3-2.9,6.3-6.5V9.2
							C30.6,5.5,27.9,2.6,24.3,2.6L24.3,2.6z"/>
						
							<linearGradient id="Oval_5_" gradientUnits="userSpaceOnUse" x1="-1381.7089" y1="225.1277" x2="-1312.2729" y2="225.1277" gradientTransform="matrix(2.7187 0 0 -2.732 3772.8037 670.6136)">
							<stop  offset="0" style="stop-color:#FF4E00"/>
							<stop  offset="1" style="stop-color:#FF1791"/>
						</linearGradient>
						<ellipse id="Oval_2_" class="st7" cx="71.2" cy="55.6" rx="6.3" ry="6.3"/>
						
							<linearGradient id="Shape_13_" gradientUnits="userSpaceOnUse" x1="-1902.3121" y1="304.7845" x2="-1878.3462" y2="304.7845" gradientTransform="matrix(7.7001 0 0 -7.7667 14666.9512 2387.3828)">
							<stop  offset="0" style="stop-color:#FF4E00"/>
							<stop  offset="1" style="stop-color:#FF1791"/>
						</linearGradient>
						<path id="Shape_5_" class="st8" d="M43.1,36.4c2.5,2.5,6.5,2.5,8.8,0c2.3-2.5,2.5-6.5,0-8.9L28.7,4.1c-2.3-2.5-6.3-2.5-8.8,0
							s-2.3,6.5,0,8.9L43.1,36.4L43.1,36.4z"/>
						
							<linearGradient id="Shape_14_" gradientUnits="userSpaceOnUse" x1="-1903.5664" y1="304.7845" x2="-1880.1238" y2="304.7845" gradientTransform="matrix(7.7146 0 0 -7.7667 14703.6279 2387.3828)">
							<stop  offset="0" style="stop-color:#FF4E00"/>
							<stop  offset="1" style="stop-color:#FF1791"/>
						</linearGradient>
						<path id="Shape_6_" class="st9" d="M52.3,36.4c-2.5,2.5-6.5,2.5-8.8,0c-2.3-2.5-2.5-6.5,0-8.9L66.7,4.1c2.5-2.5,6.5-2.5,8.8,0
							c2.5,2.5,2.5,6.5,0,8.9L52.3,36.4L52.3,36.4z"/>
						
							<linearGradient id="Shape_15_" gradientUnits="userSpaceOnUse" x1="-1884.2375" y1="318.84" x2="-1858.1166" y2="318.84" gradientTransform="matrix(7.1852 0 0 -12.7623 13553.8545 4100.8735)">
							<stop  offset="0" style="stop-color:#FF4E00"/>
							<stop  offset="1" style="stop-color:#FF1791"/>
						</linearGradient>
						<path id="Shape_7_" class="st10" d="M110,48.9c-7.9,0-14.4-6.5-14.4-14.5V8.6c0-3.6-2.7-6.5-6.3-6.5C85.7,2.1,83,5,83,8.6
							v25.6c0,15,12.1,27.2,27.1,27.2c3.4,0,6.3-2.9,6.3-6.3C116.1,51.6,113.4,48.9,110,48.9L110,48.9z"/>
					</g>
				</g>
			</g>
		</g>
	</g>
</g>
</svg>
