<svg enable-background="new 0 0 18 18" height="18" viewBox="0 0 18 18" width="18" xmlns="http://www.w3.org/2000/svg"><path d="m17 4.1c-.6.3-1.2.4-1.9.5.7-.4 1.2-1 1.4-1.8-.6.4-1.3.6-2.1.8-.6-.6-1.5-1-2.4-1-1.8 0-3.3 1.5-3.3 3.3 0 .3 0 .5.1.7-2.6-.2-5.1-1.5-6.7-3.5-.3.5-.4 1-.4 1.6 0 1.1.6 2.1 1.5 2.7-.5 0-1-.2-1.5-.4 0 1.6 1.1 2.9 2.6 3.2-.3.1-.6.1-.9.1-.2 0-.4 0-.6-.1.4 1.3 1.6 2.2 3.1 2.3-1.2 1-2.6 1.5-4.1 1.5-.3 0-.5 0-.8 0 1.5.9 3.2 1.5 5 1.5 6 0 9.3-5 9.3-9.3 0-.1 0-.3 0-.4.7-.5 1.3-1.1 1.7-1.7z" fill="#fff"/></svg>