<?xml version="1.0" encoding="utf-8"?>
<!-- Generator: Adobe Illustrator 22.0.1, SVG Export Plug-In . SVG Version: 6.00 Build 0)  -->
<!DOCTYPE svg PUBLIC "-//W3C//DTD SVG 1.1//EN" "http://www.w3.org/Graphics/SVG/1.1/DTD/svg11.dtd" [
	<!ENTITY ns_extend "http://ns.adobe.com/Extensibility/1.0/">
	<!ENTITY ns_ai "http://ns.adobe.com/AdobeIllustrator/10.0/">
	<!ENTITY ns_graphs "http://ns.adobe.com/Graphs/1.0/">
	<!ENTITY ns_vars "http://ns.adobe.com/Variables/1.0/">
	<!ENTITY ns_imrep "http://ns.adobe.com/ImageReplacement/1.0/">
	<!ENTITY ns_sfw "http://ns.adobe.com/SaveForWeb/1.0/">
	<!ENTITY ns_custom "http://ns.adobe.com/GenericCustomNamespace/1.0/">
	<!ENTITY ns_adobe_xpath "http://ns.adobe.com/XPath/1.0/">
]>
<svg version="1.1" id="Layer_1" xmlns:x="&ns_extend;" xmlns:i="&ns_ai;" xmlns:graph="&ns_graphs;"
	 xmlns="http://www.w3.org/2000/svg" xmlns:xlink="http://www.w3.org/1999/xlink" x="0px" y="0px" width="220px" height="64px"
	 viewBox="0 0 220 64" style="enable-background:new 0 0 220 64;" xml:space="preserve">
<style type="text/css">
	.st0{filter:url(#Adobe_OpacityMaskFilter);}
	.st1{fill:#FFFFFF;}
	.st2{mask:url(#mask-2_2_);fill:#1AB7EA;}
	.st3{fill:#1AB7EA;}
	.st4{filter:url(#Adobe_OpacityMaskFilter_1_);}
	.st5{mask:url(#mask-4_4_);fill:#1AB7EA;}
	.st6{filter:url(#Adobe_OpacityMaskFilter_2_);}
	.st7{mask:url(#mask-4_3_);fill:#1AB7EA;}
</style>
<metadata>
	<sfw  xmlns="&ns_sfw;">
		<slices></slices>
		<sliceSourceBounds  bottomLeftOrigin="true" height="61.1" width="216" x="2.4" y="2.2"></sliceSourceBounds>
	</sfw>
</metadata>
<g id="Page-1">
	<g id="_x30_5.-vimeo_x5F_logo_x5F_blue">
		<g id="Group-3" transform="translate(0.000000, 39.000000)">
			<g id="Clip-2">
			</g>
			<defs>
				<filter id="Adobe_OpacityMaskFilter" filterUnits="userSpaceOnUse" x="2.4" y="-19.3" width="48.3" height="41.8">
					<feColorMatrix  type="matrix" values="1 0 0 0 0  0 1 0 0 0  0 0 1 0 0  0 0 0 1 0"/>
				</filter>
			</defs>
			<mask maskUnits="userSpaceOnUse" x="2.4" y="-19.3" width="48.3" height="41.8" id="mask-2_2_">
				<g class="st0">
					<polygon id="path-1_2_" class="st1" points="2.5,-19.3 50.7,-19.3 50.7,22.6 2.5,22.6 					"/>
				</g>
			</mask>
			<path id="Fill-1" class="st2" d="M50.7-9.6c-0.2,4.7-3.5,11.1-9.9,19.3c-6.6,8.5-12.1,12.8-16.7,12.8c-2.8,0-5.2-2.6-7.1-7.8
				c-1.3-4.8-2.6-9.5-3.9-14.3c-1.4-5.2-3-7.8-4.7-7.8c-0.4,0-1.6,0.8-3.8,2.3L2.4-8c2.4-2.1,4.7-4.2,7.1-6.3
				c3.2-2.7,5.6-4.2,7.2-4.3c3.8-0.4,6.1,2.2,6.9,7.7c0.9,5.9,1.6,9.6,2,11.1c1.1,4.9,2.3,7.4,3.6,7.4c1,0,2.5-1.6,4.6-4.8
				c2-3.2,3.1-5.6,3.3-7.3c0.3-2.8-0.8-4.1-3.3-4.1c-1.2,0-2.3,0.3-3.6,0.8c2.4-7.8,6.9-11.6,13.6-11.3C48.7-19.1,51-15.9,50.7-9.6"
				/>
		</g>
		<path id="Fill-4" class="st3" d="M71.1,6.1c-0.1,1.8-1,3.5-2.7,5.2c-2,1.9-4.3,2.8-6.9,2.8c-4.1,0-6.1-1.8-6-5.4
			c0.1-1.9,1.2-3.7,3.3-5.4c2.1-1.7,4.5-2.6,7.1-2.6c1.5,0,2.8,0.6,3.8,1.8C70.7,3.7,71.2,4.9,71.1,6.1z M80.5,44.7
			c-2,3.8-4.8,7.3-8.4,10.4c-4.8,4.2-9.7,6.3-14.5,6.3c-2.2,0-4-0.7-5.2-2.2c-1.2-1.4-1.8-3.3-1.7-5.6c0.1-2.4,0.8-6.1,2.2-11.1
			c1.4-5,2.1-7.7,2.1-8c0-1.9-0.7-2.8-2-2.8c-0.4,0-1.7,0.8-3.7,2.3L47,31c2.3-2.1,4.6-4.2,6.9-6.3c3.1-2.7,5.4-4.2,6.9-4.3
			c2.4-0.2,4.1,0.5,5.3,2.1c1.1,1.6,1.5,3.7,1.2,6.3c-0.9,4.4-2,10-3,16.8c-0.1,3.1,1,4.6,3.4,4.6c1,0,2.8-1.1,5.4-3.2
			c2.2-1.8,3.9-3.5,5.3-5L80.5,44.7z"/>
		<path id="Fill-5" class="st3" d="M148.3,44.7c-2,3.8-4.8,7.3-8.4,10.4c-4.8,4.2-9.7,6.3-14.5,6.3c-4.7,0-7-2.6-6.8-7.8
			c0.1-2.3,0.5-5.1,1.4-8.3c0.8-3.3,1.3-5.8,1.4-7.6c0.1-2.7-0.8-4.1-2.5-4.1c-1.9,0-4.1,2.2-6.7,6.7c-2.8,4.7-4.2,9.3-4.5,13.7
			c-0.1,3.1,0.2,5.5,0.9,7.2c-5,0.1-8.6-0.7-10.6-2.5c-1.8-1.6-2.6-4.2-2.5-7.9c0.1-2.3,0.4-4.6,1.1-6.9c0.6-2.3,1-4.4,1.1-6.2
			c0.1-2.7-0.8-4-2.9-4c-1.8,0-3.8,2.1-5.9,6.2c-2.1,4.1-3.3,8.4-3.5,12.9c-0.1,4.1,0.1,6.9,0.8,8.5c-5,0.1-8.5-0.9-10.6-3.1
			c-1.7-1.9-2.5-4.7-2.4-8.5c0.1-1.9,0.4-4.5,1-7.8c0.6-3.4,0.9-6,1-7.8c0.1-1.3-0.2-1.9-1-1.9c-0.4,0-1.7,0.7-3.7,2.2L67.8,31
			c0.4-0.3,2.6-2.4,6.8-6.3c3-2.8,5.1-4.3,6.2-4.3c1.9-0.1,3.4,0.6,4.6,2.3s1.7,3.7,1.7,5.9c0,0.7-0.1,1.4-0.2,2.1
			c1.1-1.7,2.3-3.1,3.8-4.3c3.3-2.9,7.1-4.5,11.2-4.9c3.5-0.3,6.1,0.5,7.6,2.5c1.2,1.6,1.8,3.9,1.7,6.8c0.5-0.4,1-0.9,1.6-1.4
			c1.7-2,3.3-3.5,4.9-4.7c2.7-2,5.5-3,8.4-3.3c3.5-0.3,6,0.5,7.5,2.5c1.3,1.6,1.9,3.9,1.7,6.8c-0.1,2-0.6,5-1.5,8.8
			c-0.9,3.9-1.4,6.1-1.4,6.6c-0.1,1.5,0.1,2.6,0.4,3.1c0.4,0.6,1.2,0.9,2.6,0.9c1,0,2.8-1.1,5.4-3.2c2.2-1.8,3.9-3.5,5.3-5
			L148.3,44.7"/>
		<g id="Group-9" transform="translate(276.000000, 40.000000)">
			<g id="Clip-7">
			</g>
			<defs>
				<filter id="Adobe_OpacityMaskFilter_1_" filterUnits="userSpaceOnUse" x="-137.9" y="-19.2" width="50.9" height="40.8">
					<feColorMatrix  type="matrix" values="1 0 0 0 0  0 1 0 0 0  0 0 1 0 0  0 0 0 1 0"/>
				</filter>
			</defs>
			<mask maskUnits="userSpaceOnUse" x="-137.9" y="-19.2" width="50.9" height="40.8" id="mask-4_4_">
				<g class="st4">
					<polygon id="path-3_4_" class="st1" points="-137.9,-19.8 -57.6,-19.8 -57.6,21.7 -137.9,21.7 					"/>
				</g>
			</mask>
			<path id="Fill-6" class="st5" d="M-111.7-6.8c0.1-1.9-0.7-2.9-2.4-2.9c-2.2,0-4.4,1.5-6.6,4.5c-2.2,3-3.4,5.8-3.5,8.6
				c0,0,0,0.5,0,1.4c3.5-1.3,6.6-3.3,9.2-5.9C-112.8-3.5-111.7-5.3-111.7-6.8z M-87,4.5c-2.1,3.5-6.2,6.9-12.4,10.4
				c-7.7,4.4-15.4,6.6-23.3,6.6c-5.9,0-10.1-2-12.6-5.9c-1.8-2.7-2.7-5.9-2.6-9.5c0.1-5.9,2.7-11.4,7.8-16.7
				c5.6-5.8,12.3-8.7,20-8.7c7.1,0,10.8,2.9,11.3,8.7c0.3,3.7-1.7,7.5-6.1,11.4c-4.6,4.3-10.5,7-17.5,8.1c1.3,1.8,3.3,2.7,5.9,2.7
				c5.2,0,10.9-1.3,17-4c4.4-1.9,7.9-3.8,10.4-5.8L-87,4.5z"/>
			<defs>
				<filter id="Adobe_OpacityMaskFilter_2_" filterUnits="userSpaceOnUse" x="-98.8" y="-19.8" width="41.3" height="41.6">
					<feColorMatrix  type="matrix" values="1 0 0 0 0  0 1 0 0 0  0 0 1 0 0  0 0 0 1 0"/>
				</filter>
			</defs>
			<mask maskUnits="userSpaceOnUse" x="-98.8" y="-19.8" width="41.3" height="41.6" id="mask-4_3_">
				<g class="st6">
					<polygon id="path-3_3_" class="st1" points="-137.9,-19.8 -57.6,-19.8 -57.6,21.7 -137.9,21.7 					"/>
				</g>
			</mask>
			<path id="Fill-8" class="st7" d="M-69.8-3.1c0.1-2-0.2-3.8-0.8-5.4c-0.6-1.6-1.5-2.4-2.7-2.4c-3.7,0-6.7,2-9.1,6
				c-2,3.3-3.1,6.7-3.3,10.4c-0.1,1.8,0.3,3.4,1,4.8c0.8,1.6,1.9,2.4,3.4,2.4c3.3,0,6-1.9,8.4-5.8C-71,3.7-70,0.3-69.8-3.1z
				 M-57.6-2.7c-0.3,6.6-2.7,12.4-7.4,17.2c-4.6,4.8-10.4,7.3-17.2,7.3c-5.7,0-10.1-1.8-13-5.5c-2.2-2.7-3.4-6.2-3.6-10.3
				c-0.4-6.2,1.9-11.9,6.7-17.1c5.2-5.8,11.7-8.7,19.6-8.7c5.1,0,8.9,1.7,11.5,5.1C-58.5-11.6-57.4-7.6-57.6-2.7z"/>
		</g>
	</g>
</g>
</svg>
