<svg enable-background="new 0 0 65 65" height="65" viewBox="0 0 65 65" width="65" xmlns="http://www.w3.org/2000/svg"><g fill="#fff"><path d="m32.5 54.5c-12.1 0-22-9.9-22-22s9.9-22 22-22 22 9.9 22 22-9.9 22-22 22zm0-41c-10.5 0-19 8.5-19 19s8.5 19 19 19 19-8.5 19-19-8.5-19-19-19z"/><path d="m26.1 40c-.4 0-.8-.1-1.1-.4-.6-.6-.6-1.5 0-2.1l12.1-12.1c.6-.6 1.5-.6 2.1 0s.6 1.5 0 2.1l-12.1 12.1c-.3.3-.7.4-1 .4z"/><path d="m38.1 40c-.4 0-.8-.1-1.1-.4l-12-12.1c-.6-.6-.6-1.5 0-2.1s1.5-.6 2.1 0l12.1 12.1c.6.6.6 1.5 0 2.1-.3.3-.7.4-1.1.4z"/></g></svg>