<svg enable-background="new 0 0 18 18" height="18" viewBox="0 0 18 18" width="18" xmlns="http://www.w3.org/2000/svg"><g fill="#fff"><path d="m14.1 12.4v.4h-.8v-.4c0-.4.1-.6.4-.6s.4.2.4.6zm-3.6-.6c-.1 0-.3.1-.4.2v2.8c.1.1.3.2.4.2.2 0 .4-.2.4-.6v-2c0-.4-.1-.6-.4-.6zm5.5.9c0 1.1 0 2.2-.2 3.3-.2.7-.8 1.3-1.5 1.4-1.7.2-3.5.2-5.2.2s-3.5 0-5.2-.2c-.9-.1-1.5-.6-1.7-1.4-.2-1-.2-2.2-.2-3.3s0-2.2.2-3.3c.2-.7.8-1.3 1.6-1.4 1.7-.2 3.5-.2 5.2-.2s3.5 0 5.2.2c.7.1 1.3.6 1.5 1.4.3 1.1.3 2.2.3 3.3zm-10-3.2h-3v.9h1v5.4h1v-5.4h1zm2.5 1.6h-.8v3.6c-.2.2-.4.3-.5.3s-.2 0-.2-.2c0 0 0-.1 0-.3v-3.4h-.9v3.7c0 .3 0 .6.1.7.1.2.3.3.5.3.3 0 .6-.2 1-.6v.5h.8zm3.3 1.4c0-.4 0-.8-.1-.9-.1-.4-.4-.6-.7-.6s-.6.2-.9.5v-2h-.8v6.3h.8v-.5c.3.3.6.5.9.5s.6-.2.7-.5c.1-.2.1-.5.1-.9zm3.2.1c0-.5-.1-.9-.3-1.1-.2-.3-.6-.5-1-.5s-.8.2-1 .5c-.2.2-.3.6-.3 1.1v1.6c0 .5.1.9.3 1.1.2.3.6.5 1 .5s.8-.2 1-.5c.1-.1.2-.3.2-.5 0-.1 0-.3 0-.5v-.1h-.9v.6c0 .2-.2.3-.4.3-.3 0-.4-.2-.4-.6v-.8h1.8z"/><path d="m6.6 4.2v2.6h-.9v-2.6c-.1-.5-.3-1.1-.6-2-.2-.6-.4-1.2-.6-1.8h1l.7 2.5.6-2.5h1zm3.5 2.1c-.2.3-.6.5-1 .5s-.8-.2-1-.5c-.2-.2-.3-.6-.3-1.1v-1.6c0-.5.1-.9.3-1.1.2-.4.5-.5 1-.5.4 0 .8.2 1 .5.2.2.3.6.3 1.1v1.7c-.1.4-.2.8-.3 1zm-.6-2.9c0-.4-.1-.7-.4-.7s-.4.3-.4.7v2c0 .4.1.6.4.6s.4-.2.4-.7zm3.1 3.3v-.5c-.3.4-.7.6-1 .6s-.5-.1-.6-.4c0-.1-.1-.4-.1-.7v-3.7h.9v3.5.3c.1.2.2.2.3.2.2 0 .4-.1.5-.4v-3.6h.9v4.7z"/></g></svg>