<?xml version="1.0" encoding="UTF-8"?>
<svg width="720px" height="384px" viewBox="0 0 720 384" version="1.1" xmlns="http://www.w3.org/2000/svg" xmlns:xlink="http://www.w3.org/1999/xlink">
    <!-- Generator: Sketch 49 (51002) - http://www.bohemiancoding.com/sketch -->
    <title>Bitmovin Logo 2018 Demuxed</title>
    <desc>Created with Sketch.</desc>
    <defs>
        <polygon id="path-1" points="0.784 0.421 232.933 0.421 232.933 111.94 0.784 111.94"></polygon>
    </defs>
    <g id="Page-1" stroke="none" stroke-width="1" fill="none" fill-rule="evenodd">
        <g id="Bitmovin-Logo-2018-Demuxed" transform="translate(0.000000, -1.000000)">
            <path d="M328.984,0.983 L328.984,52.624 L409.059,108.529 C412.262,110.765 412.262,115.508 409.059,117.744 L328.984,173.643 L328.984,225.29 L481.594,118.75 C485.497,116.025 485.497,110.248 481.594,107.523 L328.984,0.983" id="Fill-1" fill="#30A2CF"></path>
            <path d="M282.145,38.524 L282.145,78.178 L325.636,108.541 C328.832,110.771 328.832,115.502 325.636,117.733 L282.145,148.096 L282.145,187.74 L380.972,118.747 C384.874,116.024 384.874,110.249 380.972,107.525 L282.145,38.524" id="Fill-2" fill="#30A2CF"></path>
            <path d="M247.579,71.335 L247.579,96.301 L265.097,108.529 C268.3,110.765 268.3,115.508 265.097,117.744 L247.579,129.972 L247.579,154.938 L299.448,118.721 C303.331,116.011 303.331,110.263 299.448,107.552 L247.579,71.335" id="Fill-3" fill="#30A2CF"></path>
            <path d="M67.104,351.836 C67.104,349.874 66.767,347.989 66.097,346.18 C65.423,344.375 64.521,342.799 63.385,341.455 C62.246,340.111 60.904,339.052 59.356,338.278 C57.806,337.5 56.101,337.114 54.242,337.114 L21.386,337.114 L21.386,366.096 L53.157,366.096 C55.118,366.096 56.953,365.734 58.658,365.009 C60.363,364.287 61.835,363.28 63.074,361.988 C64.314,360.696 65.295,359.172 66.019,357.415 C66.741,355.658 67.104,353.802 67.104,351.836 Z M21.386,292.481 L21.386,320.223 L49.901,320.223 C53.518,320.223 56.59,318.984 59.123,316.501 C61.652,314.022 62.92,310.612 62.92,306.272 C62.92,302.041 61.756,298.679 59.432,296.2 C57.107,293.722 54.242,292.481 50.832,292.481 L21.386,292.481 Z M88.646,355.867 C88.646,360.515 87.715,364.599 85.856,368.109 C83.997,371.623 81.44,374.567 78.185,376.942 C74.929,379.32 71.157,381.126 66.871,382.365 C62.583,383.604 58.012,384.226 53.157,384.226 L0,384.226 L0,274.194 L58.891,274.194 C62.711,274.194 66.175,275.021 69.274,276.674 C72.372,278.326 75.008,280.473 77.178,283.103 C79.348,285.739 81.024,288.739 82.214,292.093 C83.401,295.454 83.997,298.836 83.997,302.245 C83.997,307.616 82.653,312.654 79.967,317.355 C77.28,322.056 73.353,325.542 68.189,327.816 C74.49,329.674 79.476,333.007 83.145,337.812 C86.811,342.614 88.646,348.635 88.646,355.867 Z" id="Fill-4" fill="#30A2CF"></path>
            <polygon id="Fill-5" fill="#30A2CF" points="102.377 384.226 123.763 384.226 123.763 274.351 102.377 274.351"></polygon>
            <polyline id="Fill-6" fill="#30A2CF" points="228.989 292.947 193.967 292.947 193.967 384.226 172.579 384.226 172.579 292.947 137.401 292.947 137.401 274.194 228.989 274.194 228.989 292.947"></polyline>
            <g id="Group-10" transform="translate(242.000000, 273.000000)">
                <mask id="mask-2" fill="white">
                    <use xlink:href="#path-1"></use>
                </mask>
                <g id="Clip-8"></g>
                <polyline id="Fill-7" fill="#30A2CF" mask="url(#mask-2)" points="90.515 111.226 90.515 38.387 62.155 92.631 50.531 92.631 22.172 38.387 22.172 111.226 0.784 111.226 0.784 1.194 23.72 1.194 56.263 63.806 89.119 1.194 111.902 1.194 111.902 111.226 90.515 111.226"></polyline>
                <path d="M150.021,56.209 C150.021,60.962 150.719,65.562 152.115,70.003 C153.51,74.447 155.524,78.37 158.16,81.78 C160.791,85.189 164.02,87.93 167.842,89.995 C171.666,92.064 176.005,93.096 180.863,93.096 C185.821,93.096 190.185,92.037 193.956,89.919 C197.726,87.801 200.903,84.985 203.487,81.471 C206.07,77.961 208.035,74.006 209.379,69.614 C210.718,65.225 211.392,60.757 211.392,56.209 C211.392,51.459 210.667,46.862 209.222,42.418 C207.774,37.977 205.737,34.051 203.101,30.64 C200.466,27.231 197.261,24.519 193.491,22.502 C189.72,20.488 185.456,19.481 180.707,19.481 C175.749,19.481 171.38,20.541 167.61,22.659 C163.839,24.776 160.638,27.568 158.004,31.026 C155.368,34.488 153.379,38.415 152.039,42.806 C150.691,47.199 150.021,51.664 150.021,56.209 Z M180.55,112.001 C172.804,112.001 165.725,110.428 159.319,107.275 C152.913,104.122 147.414,99.938 142.817,94.721 C138.216,89.506 134.678,83.541 132.199,76.822 C129.72,70.107 128.481,63.236 128.481,56.209 C128.481,48.876 129.797,41.852 132.432,35.134 C135.067,28.419 138.733,22.478 143.434,17.311 C148.135,12.145 153.687,8.042 160.097,4.989 C166.499,1.944 173.474,0.421 181.015,0.421 C188.765,0.421 195.841,2.045 202.247,5.302 C208.653,8.556 214.129,12.819 218.677,18.086 C223.221,23.356 226.736,29.349 229.214,36.064 C231.693,42.779 232.933,49.598 232.933,56.521 C232.933,63.858 231.617,70.857 228.982,77.52 C226.346,84.182 222.704,90.071 218.055,95.185 C213.406,100.3 207.879,104.383 201.473,107.428 C195.067,110.476 188.091,112.001 180.55,112.001 Z" id="Fill-9" fill="#30A2CF" mask="url(#mask-2)"></path>
            </g>
            <polygon id="Fill-11" fill="#30A2CF" points="579.92 384.226 601.307 384.226 601.307 274.351 579.92 274.351"></polygon>
            <g id="Group-15" transform="translate(475.000000, 274.000000)" fill="#30A2CF">
                <polyline id="Fill-12" points="170.631 39.713 170.631 110.226 149.244 110.226 149.244 0.194 165.826 0.194 223.167 72.413 223.167 0.351 244.554 0.351 244.554 110.226 227.198 110.226 170.631 39.713"></polyline>
                <path d="M72.444,0.351 L47.389,71.161 L22.073,0.351 L0.042,0.351 L41.35,105.481 C43.623,111.263 51.813,111.235 54.047,105.439 L94.526,0.351 L72.444,0.351" id="Fill-14"></path>
            </g>
        </g>
    </g>
</svg>