<?xml version="1.0" encoding="UTF-8"?>
<svg width="942px" height="210px" viewBox="0 0 942 210" version="1.1" xmlns="http://www.w3.org/2000/svg" xmlns:xlink="http://www.w3.org/1999/xlink">
    <!-- Generator: Sketch 49 (51002) - http://www.bohemiancoding.com/sketch -->
    <title>03. Brightcove Logo 2018 Demuxed</title>
    <desc>Created with Sketch.</desc>
    <defs>
        <polygon id="path-1" points="4.28921214e-05 0.273 212.444 0.273 212.444 209.94 4.28921214e-05 209.94"></polygon>
    </defs>
    <g id="Page-1" stroke="none" stroke-width="1" fill="none" fill-rule="evenodd">
        <g id="03.-Brightcove-Logo-2018-Demuxed">
            <g id="Group-5">
                <mask id="mask-2" fill="white">
                    <use xlink:href="#path-1"></use>
                </mask>
                <g id="Clip-2"></g>
                <path d="M147.761,93.568 C147.761,92.741 147.525,91.971 147.145,91.303 L137.376,74.31 L125.992,54.529 C123.721,50.666 119.51,48.068 114.705,48.068 L72.114,48.068 C69.559,48.068 67.494,50.139 67.494,52.69 C67.494,53.517 67.725,54.282 68.11,54.951 L79.233,74.31 L89.262,91.731 C91.533,95.592 95.743,98.19 100.55,98.19 L143.145,98.19 C145.691,98.19 147.761,96.119 147.761,93.568 Z M147.761,108.593 C147.761,109.421 147.525,110.19 147.145,110.86 L137.376,127.854 L125.992,147.636 C123.721,151.493 119.51,154.091 114.705,154.091 L72.114,154.091 C69.559,154.091 67.494,152.027 67.494,149.474 C67.494,148.648 67.725,147.874 68.11,147.205 L79.233,127.854 L89.262,110.433 C91.533,106.57 95.743,103.971 100.55,103.971 L143.145,103.971 C145.691,103.971 147.761,106.041 147.761,108.593 Z" id="Fill-1" fill="#8DB93F" mask="url(#mask-2)"></path>
                <path d="M132.179,164.494 C132.179,165.325 132.412,166.094 132.791,166.765 L153.939,203.537 C156.22,207.4 160.421,210 165.232,210 L207.823,210 C210.378,210 212.444,207.928 212.444,205.372 C212.444,204.541 212.211,203.78 211.827,203.106 L200.702,183.755 L190.675,166.335 C188.398,162.477 184.193,159.878 179.385,159.878 L136.796,159.878 C134.245,159.878 132.179,161.944 132.179,164.494 Z M212.444,108.593 C212.444,109.421 212.211,110.19 211.832,110.86 L190.68,147.636 C188.398,151.493 184.198,154.091 179.391,154.091 L136.796,154.091 C134.245,154.091 132.179,152.027 132.179,149.474 C132.179,148.648 132.412,147.874 132.791,147.205 L153.944,110.433 C156.22,106.57 160.421,103.971 165.232,103.971 L207.828,103.971 C210.383,103.971 212.444,106.041 212.444,108.593 Z" id="Fill-3" fill="#C2276E" mask="url(#mask-2)"></path>
                <path d="M24.777,0.883 C24.06,1.302 23.512,1.885 23.116,2.551 L1.726,39.184 C-0.497,43.078 -0.655,48.016 1.734,52.184 L22.912,89.147 C24.181,91.361 27.003,92.122 29.213,90.855 C29.933,90.445 30.484,89.861 30.874,89.189 L42.135,69.922 L52.263,52.559 C54.485,48.665 54.65,43.729 52.259,39.557 L31.083,2.595 C29.815,0.383 26.992,-0.382 24.777,0.883 Z M62.961,58.237 L84.139,95.196 C86.522,99.366 86.364,104.309 84.145,108.2 L74.016,125.56 L62.754,144.831 C62.362,145.503 61.818,146.086 61.096,146.498 C58.883,147.771 56.056,147 54.788,144.782 L33.615,107.829 C31.222,103.658 31.385,98.717 33.604,94.826 L54.994,58.192 C55.389,57.52 55.937,56.938 56.656,56.522 C58.872,55.257 61.691,56.026 62.961,58.237 Z" id="Fill-4" fill="#2091A3" mask="url(#mask-2)"></path>
            </g>
            <path d="M450.219,147.271 C435.115,147.271 423.138,134.46 423.138,118.426 C423.138,101.637 435.115,89.594 450.219,89.594 C465.324,89.594 477.301,101.637 477.301,118.426 C477.301,134.46 465.324,147.271 450.219,147.271 Z M450.219,81.468 C430.144,81.468 415.007,97.357 415.007,118.426 C415.007,138.812 430.802,155.396 450.219,155.396 C461.097,155.396 470.838,149.741 477.301,141.577 L477.301,151.348 C477.301,167.382 465.324,180.189 450.219,180.189 L450.219,188.319 C469.635,188.319 485.429,171.734 485.429,151.348 L485.429,118.426 C485.429,97.357 470.293,81.468 450.219,81.468 Z" id="Fill-6" fill="#525655"></path>
            <path d="M286.888,147.271 C271.784,147.271 259.807,134.46 259.807,118.426 C259.807,101.637 271.784,89.594 286.888,89.594 C301.991,89.594 313.969,101.637 313.969,118.426 C313.969,134.46 301.991,147.271 286.888,147.271 Z M286.888,81.468 C275.357,81.468 265.464,87.165 259.126,95.621 L259.126,61.313 L250.996,61.313 L250.996,103.429 C250.996,118.013 251.875,122.844 252.173,124.685 L252.191,124.677 C255.027,142.094 269.502,155.396 286.888,155.396 C306.301,155.396 322.096,138.812 322.096,118.426 C322.096,97.357 306.959,81.468 286.888,81.468 Z" id="Fill-7" fill="#525655"></path>
            <polygon id="Fill-8" fill="#525655" points="390.596 153.598 398.961 153.598 398.961 83.285 390.596 83.285"></polygon>
            <path d="M682.552,135.476 L681.965,136.134 C675.341,143.51 667.827,147.254 659.623,147.254 C644.286,147.254 632.28,134.589 632.28,118.426 C632.28,102.142 644.048,89.594 659.069,89.594 C669.143,89.594 675.707,94.89 681.305,100.623 L681.937,101.268 L687.861,95.165 L687.273,94.555 C681.511,88.543 673.107,81.643 659.209,81.643 C639.443,81.643 623.363,98.142 623.363,118.426 C623.363,138.824 639.443,155.209 659.209,155.209 C670.56,155.209 679.391,150.927 687.861,141.323 L688.439,140.662 L682.552,135.476" id="Fill-9" fill="#525655"></path>
            <path d="M733.912,147.254 C718.58,147.254 706.568,134.589 706.568,118.426 C706.568,101.875 718.213,89.594 733.648,89.594 C748.987,89.594 760.993,102.258 760.993,118.426 L760.993,118.696 C760.993,134.71 749.098,147.254 733.912,147.254 M733.912,81.643 C713.598,81.643 697.687,97.798 697.687,118.426 C697.687,139.166 713.481,155.209 733.648,155.209 C753.968,155.209 769.884,139.054 769.884,118.426 C769.884,97.683 754.076,81.643 733.912,81.643" id="Fill-10" fill="#525655"></path>
            <path d="M833.865,83.244 C833.865,83.244 809.772,139.486 808.238,143.06 C806.719,139.486 782.858,83.244 782.858,83.244 L773.245,83.244 L804.825,154.134 L811.626,154.134 L843.205,83.244 L833.865,83.244" id="Fill-11" fill="#525655"></path>
            <path d="M879.278,89.461 C895.075,89.461 901.736,102.632 902.818,114.319 L855.124,114.319 C856.686,99.9 866.628,89.461 879.278,89.461 M911.906,118.696 C911.906,96.767 898.607,81.643 879.555,81.643 C860.822,81.643 846.143,97.741 846.143,118.288 C846.143,139.449 860.972,155.209 880.631,155.209 C892.384,155.209 901.061,151.265 909.649,142.019 L910.262,141.352 L904.368,136.138 L903.783,136.767 C897.126,143.923 889.856,147.254 880.896,147.254 C866.99,147.254 856.596,136.88 855.116,121.999 L911.715,121.999 L911.906,118.696" id="Fill-12" fill="#525655"></path>
            <path d="M535.876,81.643 C525.527,81.643 517.6,86.011 512.013,94.234 L512.013,61.351 L503.664,61.351 L503.664,153.598 L512.013,153.598 L512.013,113.053 C512.013,99.383 521.659,89.461 534.938,89.461 C548.023,89.461 555.832,97.88 555.832,111.97 L555.832,153.598 L564.182,153.598 L564.182,110.767 C564.182,93.071 553.073,81.643 535.876,81.643" id="Fill-13" fill="#525655"></path>
            <path d="M373.215,83.309 C361.271,83.309 350.526,88.886 343.717,98.617 C339.291,104.945 336.957,112.366 336.957,120.092 L336.957,153.598 L345.32,153.598 L345.32,119.824 C345.32,103.808 357.449,91.262 372.937,91.262 L374.357,91.262 L374.357,83.314 L373.215,83.309" id="Fill-14" fill="#525655"></path>
            <path d="M615.051,154.704 L615.051,146.904 C607.947,146.904 601.308,145.543 596.554,140.678 C593.402,137.454 590.991,132.199 590.991,126.913 C590.991,121.632 590.991,91.064 590.991,91.064 L615.051,91.064 L615.051,83.244 L590.991,83.244 L590.991,61.351 L582.667,61.351 C582.667,61.351 582.623,120.258 582.623,126.867 C582.623,133.482 585.017,140.12 589.441,145.063 C595.334,151.651 603.701,154.704 615.051,154.704" id="Fill-15" fill="#525655"></path>
            <path d="M932.343,90.367 C933.539,90.367 934.253,89.78 934.253,88.859 L934.253,88.81 C934.253,87.842 933.539,87.305 932.343,87.305 L929.943,87.305 L929.943,90.367 L932.343,90.367 Z M928.103,85.646 L932.416,85.646 C933.694,85.646 934.69,86.029 935.349,86.692 C935.86,87.177 936.142,87.865 936.142,88.708 L936.142,88.758 C936.142,90.315 935.223,91.285 933.893,91.666 L936.501,95.313 L934.305,95.313 L931.957,91.971 L929.943,91.971 L929.943,95.313 L928.103,95.313 L928.103,85.646 Z M940.096,90.748 L940.096,90.698 C940.096,86.131 936.549,82.432 931.854,82.432 C927.137,82.432 923.566,86.181 923.566,90.748 L923.566,90.798 C923.566,95.365 927.113,99.064 931.806,99.064 C936.522,99.064 940.096,95.313 940.096,90.748 Z M922.596,90.798 L922.596,90.748 C922.596,85.724 926.678,81.514 931.854,81.514 C937.034,81.514 941.066,85.672 941.066,90.698 L941.066,90.748 C941.066,95.772 936.982,99.982 931.806,99.982 C926.626,99.982 922.596,95.824 922.596,90.798 Z" id="Fill-16" fill="#4F5A62"></path>
        </g>
    </g>
</svg>