<?xml version="1.0" encoding="UTF-8"?>
<svg width="783px" height="151px" viewBox="0 0 783 151" version="1.1" xmlns="http://www.w3.org/2000/svg" xmlns:xlink="http://www.w3.org/1999/xlink">
    <!-- Generator: Sketch 49 (51002) - http://www.bohemiancoding.com/sketch -->
    <title>04. CBSi Logo 2018 Demuxed</title>
    <desc>Created with Sketch.</desc>
    <defs>
        <polygon id="path-1" points="0.06 0.122 148.87 0.122 148.87 150.94 0.06 150.94"></polygon>
    </defs>
    <g id="Page-1" stroke="none" stroke-width="1" fill="none" fill-rule="evenodd">
        <g id="04.-CBSi-Logo-2018-Demuxed">
            <g id="Group-3">
                <mask id="mask-2" fill="white">
                    <use xlink:href="#path-1"></use>
                </mask>
                <g id="Clip-2"></g>
                <path d="M74.52,35.479 C52.388,35.479 34.446,53.437 34.446,75.384 C34.446,97.686 52.388,115.449 74.52,115.449 C96.655,115.449 114.411,97.686 114.411,75.384 C114.411,53.437 96.655,35.479 74.52,35.479 Z M5.231,75.384 C15.76,97.503 40.432,119.088 74.52,119.088 C108.444,119.088 133.278,97.503 143.784,75.384 C133.278,53.611 108.445,32.041 74.52,32.041 C40.432,32.041 15.76,53.611 5.231,75.384 Z M148.87,75.377 C148.87,117.099 116.23,151 74.52,151 C32.998,151 0,117.099 0,75.377 C0,34.039 32.998,0.122 74.52,0.122 C116.23,0.122 148.87,34.039 148.87,75.377 Z" id="Fill-1" fill="#CC2B2B" mask="url(#mask-2)"></path>
            </g>
            <path d="M186.305,76.305 C186.305,57.146 200.999,44.219 220.437,44.219 C236.712,44.219 244.897,53.705 248.617,62.261 L232.435,69.794 C230.854,64.958 226.018,60.773 220.437,60.773 C211.416,60.773 205.371,67.655 205.371,76.304 C205.371,84.953 211.416,91.835 220.437,91.835 C226.018,91.835 230.854,87.65 232.435,82.814 L248.617,90.254 C244.99,98.531 236.713,108.39 220.437,108.39 C200.999,108.391 186.305,95.371 186.305,76.305" id="Fill-4" fill="#2D2E2C"></path>
            <path d="M291.404,87.745 C291.404,85.513 289.73,83.745 287.033,83.745 L271.967,83.745 L271.967,91.6500005 L287.033,91.65 C289.731,91.651 291.404,90.069 291.404,87.745 Z M290.195,64.401 C290.195,62.262 288.428,60.867 286.475,60.867 L271.967,60.867 L271.967,68.121 L286.475,68.121 C288.428,68.121 290.195,66.633 290.195,64.401 Z M253.18,107.275 L253.18,45.242 L290.846,45.242 C303.68,45.242 309.261,53.798 309.261,61.053 C309.261,68.772 304.704,73.98 298.659,75.282 C305.355,76.305 310.47,82.443 310.47,90.441 C310.47,99.09 304.611,107.274 292.149,107.274 L253.18,107.274 L253.18,107.275 Z" id="Fill-5" fill="#2D2E2C"></path>
            <path d="M312.355,98.533 L322.121,84.583 C326.771,89.047 333.746,92.581 342.116,92.581 C345.65,92.581 348.998,91.651 348.998,89.233 C348.998,83.281 314.401,89.326 314.401,64.866 C314.401,54.357 323.143,44.313 340.163,44.313 C350.3,44.313 359.414,47.196 366.482,52.962 L356.438,66.261 C351.043,62.169 344.068,60.123 338.209,60.123 C334.489,60.123 333.466,61.332 333.466,62.913 C333.466,68.772 367.97,63.75 367.97,86.815 C367.97,100.486 357.833,108.392 341.185,108.392 C327.98,108.391 318.959,104.485 312.355,98.533" id="Fill-6" fill="#2D2E2C"></path>
            <polygon id="Fill-7" fill="#2D2E2C" points="400.337 107.265 405.717 107.265 405.717 44.307 400.337 44.307"></polygon>
            <path d="M449.325,107.265 L449.325,76.399 C449.325,67.621 444.889,64.978 438.281,64.978 C432.429,64.978 426.388,68.659 423.462,72.813 L423.462,107.265 L418.554,107.265 L418.554,61.674 L423.462,61.674 L423.462,68.565 C426.766,64.601 433.278,60.542 439.886,60.542 C449.137,60.542 454.234,65.072 454.234,75.361 L454.234,107.265 L449.325,107.265" id="Fill-8" fill="#2D2E2C"></path>
            <path d="M467.457,98.487 L467.457,66.016 L459.905,66.016 L459.905,61.674 L467.457,61.674 L467.457,49.215 L472.46,49.215 L472.46,61.674 L481.71,61.674 L481.71,66.016 L472.46,66.016 L472.46,97.732 C472.46,101.413 473.97,103.962 477.18,103.962 C479.351,103.962 481.238,102.924 482.276,101.791 L484.164,105.566 C482.371,107.265 480.2,108.398 476.424,108.398 C470.383,108.398 467.457,104.717 467.457,98.487" id="Fill-9" fill="#2D2E2C"></path>
            <path d="M507.318,64.789 C496.558,64.789 491.178,74.229 490.8,82.157 L523.931,82.157 C523.837,74.417 518.739,64.789 507.318,64.789 Z M485.42,84.423 C485.42,71.208 494.765,60.542 507.412,60.542 C521.288,60.542 528.934,71.586 528.934,84.706 L528.934,86.027 L490.8,86.027 C491.272,95.938 497.879,104.15 508.64,104.15 C514.398,104.15 519.684,101.979 523.554,97.826 L526.102,101.036 C521.571,105.756 515.814,108.398 508.262,108.398 C494.953,108.398 485.42,98.487 485.42,84.423 Z" id="Fill-10" fill="#2D2E2C"></path>
            <path d="M538.334,107.265 L538.334,61.674 L543.242,61.674 L543.242,69.509 C547.112,64.412 552.304,60.731 558.628,60.731 L558.628,66.111 C557.778,65.922 557.118,65.922 556.174,65.922 C551.549,65.922 545.318,70.075 543.242,74.04 L543.242,107.265 L538.334,107.265" id="Fill-11" fill="#2D2E2C"></path>
            <path d="M594.59,98.298 L594.59,88.293 C591.381,84.139 586.284,81.968 580.81,81.968 C573.258,81.968 568.35,86.783 568.35,93.296 C568.35,99.715 573.258,104.528 580.81,104.528 C586.284,104.528 591.381,102.452 594.59,98.298 Z M594.59,107.265 L594.59,101.885 C590.531,106.321 585.435,108.398 579.11,108.398 C571.276,108.398 563.158,103.017 563.158,93.201 C563.158,83.29 571.182,78.098 579.11,78.098 C585.435,78.098 590.626,80.175 594.59,84.611 L594.59,75.361 C594.59,68.565 589.115,64.884 582.319,64.884 C576.656,64.884 572.22,66.866 568.067,71.586 L565.329,68.188 C570.049,63.09 575.335,60.542 582.886,60.542 C592.136,60.542 599.499,64.978 599.499,75.173 L599.499,107.265 L594.59,107.265 Z" id="Fill-12" fill="#2D2E2C"></path>
            <path d="M608.901,84.423 C608.901,71.114 617.679,60.542 631.082,60.542 C639.011,60.542 643.542,63.657 647.223,68.282 L643.825,71.302 C640.522,66.772 636.368,64.978 631.365,64.978 C620.699,64.978 614.187,73.473 614.187,84.423 C614.187,95.372 620.699,103.962 631.365,103.962 C636.368,103.962 640.522,102.074 643.825,97.543 L647.223,100.563 C643.542,105.283 639.011,108.398 631.082,108.398 C617.679,108.398 608.901,97.732 608.901,84.423" id="Fill-13" fill="#2D2E2C"></path>
            <path d="M658.804,98.487 L658.804,66.016 L651.252,66.016 L651.252,61.674 L658.804,61.674 L658.804,49.215 L663.806,49.215 L663.806,61.674 L673.057,61.674 L673.057,66.016 L663.806,66.016 L663.806,97.732 C663.806,101.413 665.317,103.962 668.526,103.962 C670.696,103.962 672.585,102.924 673.623,101.791 L675.511,105.566 C673.717,107.265 671.546,108.398 667.771,108.398 C661.73,108.398 658.804,104.717 658.804,98.487" id="Fill-14" fill="#2D2E2C"></path>
            <path d="M681.844,107.264 L686.752,107.264 L686.752,61.674 L681.844,61.674 L681.844,107.264 Z M680.523,50.725 C680.523,48.649 682.316,47.044 684.298,47.044 C686.375,47.044 688.073,48.649 688.073,50.725 C688.073,52.802 686.375,54.501 684.298,54.501 C682.316,54.501 680.523,52.802 680.523,50.725 Z" id="Fill-15" fill="#2D2E2C"></path>
            <polyline id="Fill-16" fill="#2D2E2C" points="712.294 107.265 693.039 61.674 698.514 61.674 715.126 101.508 731.55 61.674 737.119 61.674 717.863 107.265 712.294 107.265"></polyline>
            <path d="M760.688,64.789 C749.927,64.789 744.547,74.229 744.169,82.157 L777.301,82.157 C777.206,74.417 772.109,64.789 760.688,64.789 Z M738.789,84.423 C738.789,71.208 748.134,60.542 760.782,60.542 C774.657,60.542 782.303,71.586 782.303,84.706 L782.303,86.027 L744.169,86.027 C744.641,95.938 751.248,104.15 762.009,104.15 C767.767,104.15 773.053,101.979 776.923,97.826 L779.472,101.036 C774.941,105.756 769.183,108.398 761.632,108.398 C748.322,108.398 738.789,98.487 738.789,84.423 Z" id="Fill-17" fill="#2D2E2C"></path>
        </g>
    </g>
</svg>