<?xml version="1.0" encoding="UTF-8"?>
<svg width="1555px" height="602px" viewBox="0 0 1555 602" version="1.1" xmlns="http://www.w3.org/2000/svg" xmlns:xlink="http://www.w3.org/1999/xlink">
    <!-- Generator: Sketch 49 (51002) - http://www.bohemiancoding.com/sketch -->
    <title>04. Fastly Logo 2018 Demuxed</title>
    <desc>Created with Sketch.</desc>
    <defs></defs>
    <g id="Page-1" stroke="none" stroke-width="1" fill="none" fill-rule="evenodd">
        <g id="04.-Fastly-Logo-2018-Demuxed" fill="#D42F30">
            <polyline id="Fill-1" points="1057.67 61.925 1057.67 467.418 1179.47 467.418 1179.47 405.463 1139.22 405.463 1139.22 0.16 1057.66 0.17 1057.67 61.925"></polyline>
            <path d="M0,405.463 L41.405,405.463 L41.405,209.831 L0,209.831 L0,156.03 L41.405,149.221 L41.405,94.759 C41.405,28.79 55.763,0.161 139.891,0.161 C158.062,0.161 179.598,2.844 198.454,6.241 L187.278,72.555 C174.507,70.532 168.174,70.173 160.102,70.173 C130.462,70.173 122.968,73.13 122.968,102.09 L122.968,149.221 L184.509,149.221 L184.509,209.831 L122.968,209.831 L122.968,405.463 L163.941,405.463 L163.941,467.409 L0,467.426 L0,405.463" id="Fill-2"></path>
            <path d="M1016.18,385.884 C1003.42,388.576 992.266,388.252 984.193,388.451 C950.636,389.276 953.535,378.246 953.535,346.606 L953.535,209.831 L1017.41,209.831 L1017.41,149.221 L953.535,149.221 L953.535,0.16 L871.972,0.16 L871.972,363.518 C871.972,434.859 889.578,467.418 966.311,467.418 C984.484,467.418 1009.46,462.742 1028.31,458.705 L1016.18,385.884" id="Fill-3"></path>
            <path d="M1518.03,436.47 L1523.56,436.47 C1526.73,436.47 1528.84,435.242 1528.84,431.907 C1528.84,428.742 1526.73,427.505 1523.74,427.505 L1518.03,427.505 L1518.03,436.47 Z M1528.57,451.677 L1522.33,442.537 L1518.03,442.537 L1518.03,451.677 L1511.08,451.677 L1511.08,421.438 L1523.74,421.438 C1531.21,421.438 1535.87,425.22 1535.87,431.907 C1535.87,436.821 1533.41,440.164 1529.54,441.305 L1537.1,451.677 L1528.57,451.677 Z M1522.86,462.488 C1537.1,462.488 1548.7,450.8 1548.7,436.564 C1548.7,422.319 1537.1,410.984 1522.86,410.984 C1508.62,410.984 1497.1,422.319 1497.1,436.564 C1497.1,450.8 1508.62,462.488 1522.86,462.488 Z M1522.86,405.795 C1540,405.795 1553.88,419.42 1553.88,436.564 C1553.88,453.701 1540,467.323 1522.86,467.323 C1505.72,467.323 1491.92,453.701 1491.92,436.564 C1491.92,419.42 1505.72,405.795 1522.86,405.795 Z" id="Fill-4"></path>
            <path d="M770.156,209.721 L770.156,198.87 C745.481,194.369 720.978,194.303 707.686,194.303 C669.729,194.303 665.101,214.433 665.101,225.344 C665.101,240.779 670.368,249.126 711.489,258.117 C771.596,271.61 831.962,285.689 831.962,360.22 C831.962,430.902 795.585,467.418 719.014,467.418 C667.776,467.418 618.06,456.419 580.127,446.793 L580.127,385.884 L641.891,385.884 L641.855,396.705 C668.434,401.839 696.303,401.325 710.852,401.325 C751.339,401.325 757.89,379.558 757.89,367.985 C757.89,351.924 746.279,344.21 708.328,336.515 C636.828,324.298 580.083,299.887 580.083,227.258 C580.083,158.513 626.063,131.544 702.634,131.544 C754.508,131.544 793.952,139.589 831.906,149.221 L831.906,209.721 L770.156,209.721" id="Fill-5"></path>
            <path d="M394.897,263.258 L388.69,257.05 L357.168,284.52 C355.578,283.949 353.876,283.623 352.097,283.623 C343.591,283.623 336.705,290.712 336.705,299.447 C336.705,308.192 343.591,315.279 352.097,315.279 C360.6,315.279 367.502,308.192 367.502,299.447 C367.502,297.788 367.25,296.19 366.789,294.687 L394.897,263.258" id="Fill-6"></path>
            <path d="M356.974,385.7 L356.974,376.112 L347.202,376.112 L347.202,385.672 C303.427,383.121 268.413,347.951 266.129,304.105 L275.842,304.105 L275.842,294.333 L266.179,294.333 C268.775,250.791 303.645,215.955 347.202,213.416 L347.202,223.026 L356.974,223.026 L356.974,213.389 C399.909,215.683 434.493,249.361 438.231,291.899 L438.231,294.702 L428.44,294.702 L428.44,304.473 L438.233,304.473 L438.235,307.149 C434.516,349.706 399.923,383.404 356.974,385.7 Z M519.824,385.884 L519.771,132.074 L438.209,132.074 L438.209,155.876 C421.41,145.797 402.698,138.59 382.754,134.897 L383.215,134.897 L383.215,106.731 L393.166,106.731 L393.166,86.017 L311.041,86.017 L311.041,106.731 L320.991,106.731 L320.991,134.897 L321.557,134.897 C243.547,149.258 184.431,217.568 184.431,299.73 C184.431,392.325 259.493,467.388 352.088,467.388 C383.69,467.388 413.243,458.632 438.473,443.433 L453.167,467.419 L539.319,467.419 L539.319,385.884 L519.824,385.884 Z" id="Fill-7"></path>
            <path d="M1385.9,149.221 L1554.13,149.221 L1554.13,209.772 L1513.92,209.772 L1410.75,463.592 C1381.18,534.892 1332.61,602 1258.65,602 C1240.46,602 1216.25,599.984 1199.46,595.951 L1206.84,521.923 C1217.61,523.938 1231.72,525.263 1239.13,525.263 C1273.43,525.263 1312.12,504.01 1324.22,467.006 L1219.68,209.772 L1179.47,209.772 L1179.47,149.221 L1347.78,149.221 L1347.78,209.772 L1307.58,209.772 L1366.8,355.474 L1426.02,209.772 L1385.9,209.772 L1385.9,149.221" id="Fill-8"></path>
        </g>
    </g>
</svg>