<?xml version="1.0" encoding="UTF-8"?>
<svg width="74px" height="23px" viewBox="0 0 74 23" version="1.1" xmlns="http://www.w3.org/2000/svg" xmlns:xlink="http://www.w3.org/1999/xlink">
    <!-- Generator: Sketch 49 (51002) - http://www.bohemiancoding.com/sketch -->
    <title>02. Google</title>
    <desc>Created with Sketch.</desc>
    <defs></defs>
    <g id="Page-1" stroke="none" stroke-width="1" fill="none" fill-rule="evenodd">
        <g id="02.-Google" fill-rule="nonzero">
            <path d="M9.24,8.19 L9.24,10.65 L15.12,10.65 C14.94,12.03 14.48,13.04 13.78,13.75 C12.92,14.61 11.58,15.55 9.24,15.55 C5.62,15.55 2.79,12.63 2.79,9.01 C2.79,5.39 5.62,2.47 9.24,2.47 C11.19,2.47 12.62,3.24 13.67,4.23 L15.4,2.5 C13.94,1.08 11.98,0 9.24,0 C4.28,0 0.11,4.04 0.11,9 C0.11,13.96 4.28,18 9.24,18 C11.92,18 13.94,17.12 15.52,15.48 C17.14,13.86 17.65,11.57 17.65,9.73 C17.65,9.16 17.61,8.63 17.52,8.19 L9.24,8.19 Z" id="Shape" fill="#4285F4"></path>
            <path d="M25,6.19 C21.79,6.19 19.17,8.63 19.17,12 C19.17,15.34 21.79,17.81 25,17.81 C28.21,17.81 30.83,15.35 30.83,12 C30.83,8.63 28.21,6.19 25,6.19 Z M25,15.52 C23.24,15.52 21.72,14.07 21.72,12 C21.72,9.91 23.24,8.48 25,8.48 C26.76,8.48 28.28,9.91 28.28,12 C28.28,14.07 26.76,15.52 25,15.52 Z" id="Shape" fill="#EA4335"></path>
            <path d="M53.58,7.49 L53.49,7.49 C52.92,6.81 51.82,6.19 50.43,6.19 C47.53,6.19 45,8.72 45,12 C45,15.26 47.53,17.81 50.43,17.81 C51.82,17.81 52.92,17.19 53.49,16.49 L53.58,16.49 L53.58,17.3 C53.58,19.52 52.39,20.71 50.48,20.71 C48.92,20.71 47.95,19.59 47.55,18.64 L45.33,19.56 C45.97,21.1 47.66,22.99 50.48,22.99 C53.47,22.99 56,21.23 56,16.94 L56,6.49 L53.58,6.49 L53.58,7.49 Z M50.65,15.52 C48.89,15.52 47.55,14.02 47.55,12 C47.55,9.95 48.89,8.48 50.65,8.48 C52.39,8.48 53.75,9.98 53.75,12.02 C53.76,14.05 52.39,15.52 50.65,15.52 Z" id="Shape" fill="#4285F4"></path>
            <path d="M38,6.19 C34.79,6.19 32.17,8.63 32.17,12 C32.17,15.34 34.79,17.81 38,17.81 C41.21,17.81 43.83,15.35 43.83,12 C43.83,8.63 41.21,6.19 38,6.19 Z M38,15.52 C36.24,15.52 34.72,14.07 34.72,12 C34.72,9.91 36.24,8.48 38,8.48 C39.76,8.48 41.28,9.91 41.28,12 C41.28,14.07 39.76,15.52 38,15.52 Z" id="Shape" fill="#FBBC05"></path>
            <polygon id="Shape" fill="#34A853" points="58 0.24 60.51 0.24 60.51 17.81 58 17.81"></polygon>
            <path d="M68.26,15.52 C66.96,15.52 66.04,14.93 65.44,13.76 L73.21,10.55 L72.95,9.89 C72.47,8.59 70.99,6.19 67.98,6.19 C64.99,6.19 62.5,8.54 62.5,12 C62.5,15.26 64.96,17.81 68.26,17.81 C70.92,17.81 72.46,16.18 73.1,15.24 L71.12,13.92 C70.46,14.88 69.56,15.52 68.26,15.52 Z M68.08,8.37 C69.11,8.37 69.99,8.9 70.28,9.65 L65.03,11.82 C65.03,9.38 66.76,8.37 68.08,8.37 Z" id="Shape" fill="#EA4335"></path>
        </g>
    </g>
</svg>