<?xml version="1.0" encoding="UTF-8"?>
<svg width="216px" height="72px" viewBox="0 0 216 72" version="1.1" xmlns="http://www.w3.org/2000/svg" xmlns:xlink="http://www.w3.org/1999/xlink">
    <!-- Generator: Sketch 49 (51002) - http://www.bohemiancoding.com/sketch -->
    <title>05. hulu-rgb-web-flat</title>
    <desc>Created with Sketch.</desc>
    <defs>
        <polygon id="path-1" points="0 0.854 216 0.854 216 71.941 0 71.941"></polygon>
    </defs>
    <g id="Page-1" stroke="none" stroke-width="1" fill="none" fill-rule="evenodd">
        <g id="05.-hulu-rgb-web-flat">
            <mask id="mask-2" fill="white">
                <use xlink:href="#path-1"></use>
            </mask>
            <g id="Clip-2"></g>
            <path d="M33.952,23.055 C33.952,23.055 25.013,23.055 22.949,23.055 C19.091,23.055 17.151,24.096 17.151,24.096 L17.151,0.854 L0,0.854 L0,72 L17.151,72 L17.151,43.291 C17.151,40.752 19.21,38.695 21.748,38.695 L31.73,38.695 C34.272,38.695 36.325,40.752 36.325,43.291 L36.325,72 L53.481,72 L53.481,41.068 C53.481,28.061 44.81,23.055 33.952,23.055 Z M198.844,23.055 C198.844,23.055 198.844,50.804 198.844,51.76 C198.844,54.302 196.789,56.358 194.25,56.358 L184.27,56.358 C181.729,56.358 179.673,54.302 179.673,51.76 C179.673,50.804 179.673,23.055 179.673,23.055 L162.515,23.055 L162.515,53.191 C162.515,65.51 170.398,72 182.049,72 L198.846,72 L198.846,71.912 C209.576,71.912 216,64.275 216,53.191 L216,23.055 L198.844,23.055 Z M102.073,51.76 C102.073,54.302 100.018,56.358 97.479,56.358 L87.496,56.358 C84.955,56.358 82.9,54.302 82.9,51.76 C82.9,50.804 82.9,23.055 82.9,23.055 L65.744,23.055 L65.744,53.191 C65.744,65.51 73.627,72 85.276,72 L102.073,72 L102.073,71.912 C112.804,71.912 119.229,64.275 119.229,53.191 L119.229,23.055 L102.073,23.055 C102.073,23.055 102.073,50.804 102.073,51.76 Z M132.305,72 L149.463,72 L149.463,0.854 L132.305,0.854 L132.305,72 Z" id="Fill-1" fill="#45AD47" mask="url(#mask-2)"></path>
        </g>
    </g>
</svg>