<?xml version="1.0" encoding="UTF-8"?>
<svg width="455px" height="162px" viewBox="0 0 455 162" version="1.1" xmlns="http://www.w3.org/2000/svg" xmlns:xlink="http://www.w3.org/1999/xlink">
    <!-- Generator: Sketch 49 (51002) - http://www.bohemiancoding.com/sketch -->
    <title>04. JW Player Logo 2018 Demuxed</title>
    <desc>Created with Sketch.</desc>
    <defs>
        <polygon id="path-1" points="0.00033457361 0.409 454.659 0.409 454.659 161.94 0.00033457361 161.94"></polygon>
    </defs>
    <g id="Page-1" stroke="none" stroke-width="1" fill="none" fill-rule="evenodd">
        <g id="04.-JW-Player-Logo-2018-Demuxed">
            <mask id="mask-2" fill="white">
                <use xlink:href="#path-1"></use>
            </mask>
            <g id="Clip-2"></g>
            <path d="M428.481,84.639 L428.481,69.421 L438.534,69.421 C444.188,69.421 447.469,72.283 447.469,77.03 C447.469,81.777 444.188,84.639 438.534,84.639 L428.481,84.639 Z M441.954,89.107 C448.725,88.13 452.915,84.15 452.915,77.03 C452.915,68.932 447.329,64.604 438.672,64.604 L422.965,64.604 L422.965,107.467 L428.481,107.467 L428.481,89.316 L436.09,89.316 L448.375,107.467 L454.659,107.467 L441.954,89.107 Z M265.588,85.407 L255.327,85.407 L255.327,69.421 L265.588,69.421 C271.383,69.421 274.524,72.562 274.524,77.449 C274.524,82.265 271.383,85.407 265.588,85.407 Z M265.659,64.604 L249.811,64.604 L249.811,107.467 L255.327,107.467 L255.327,90.294 L265.659,90.294 C274.315,90.294 279.969,85.826 279.969,77.449 C279.969,69.002 274.315,64.604 265.659,64.604 Z M324.038,89.735 L331.018,71.445 L337.999,89.735 L324.038,89.735 Z M328.506,64.604 L313.688,102.511 L293.319,102.511 L293.319,64.604 L287.805,64.604 L287.805,107.467 L317.336,107.467 L322.223,94.552 L339.883,94.552 L344.84,107.467 L350.426,107.467 L333.67,64.604 L328.506,64.604 Z M365.227,84.848 L352.872,64.604 L346.868,64.604 L362.366,89.804 L362.366,107.467 L367.811,107.467 L367.811,89.804 L383.448,64.604 L377.584,64.604 L365.227,84.848 Z M152.399,0.888 C149.56,-0.313 146.454,0.812 145.129,3.502 C143.776,6.243 110.052,87.986 110.052,87.986 C109.018,90.497 108.174,90.329 108.181,87.613 C108.181,87.613 108.244,59.209 108.381,35.676 C108.455,22.911 102.163,15.777 93.372,14.353 C89.277,13.688 85.16,14.69 81.706,16.948 C78.072,19.321 75.419,22.948 73.423,26.747 C70.71,31.913 54.261,80.139 54.261,80.139 C53.383,82.71 52.615,82.592 52.552,79.876 C52.552,79.876 52.074,59.141 51.601,54.241 C50.878,46.755 49.169,34.383 39.446,33.8 C30.296,33.252 26.244,44.432 23.894,51.394 C22.353,55.957 14.733,80.968 14.733,80.968 L14.034,83.253 C13.638,84.553 13.036,84.54 12.693,83.225 L12.049,80.912 C12.049,80.912 11.178,77.565 9.692,73.633 C9.233,72.417 8.817,70.996 7.928,70.008 C6.706,68.651 4.737,68.153 3.017,68.77 C1.415,69.345 0.241,70.822 0.044,72.512 C-0.123,73.935 0.229,75.496 0.427,76.902 C1.04,81.277 4.195,98.539 6.137,102.283 C8.045,105.956 12.227,107.999 16.124,105.943 C19.733,104.035 21.419,99.563 22.895,96.019 C24.754,91.558 34.08,65.808 34.08,65.808 C35.004,63.254 35.721,63.387 35.671,66.103 C35.671,66.103 35.213,91.318 35.128,102.818 C35.097,107.088 35.434,114.822 36.654,118.943 C37.463,121.68 38.884,124.23 41.19,125.983 C43.397,127.657 46.239,128.445 48.997,128.125 C50.029,128.006 51.748,127.472 52.903,126.833 C54.659,125.863 56.099,124.455 57.335,122.892 C60.118,119.373 62.184,115.251 64.209,111.27 C68.729,102.383 80.356,74.959 80.356,74.959 C81.416,72.459 82.216,72.634 82.131,75.348 C82.131,75.348 80.702,121.489 80.646,139.143 C80.633,143.472 81.469,147.91 83.063,151.97 C84.564,155.797 87.254,159.093 91.047,160.807 C95.11,162.642 99.867,162.32 103.717,160.115 C106.699,158.408 108.956,155.743 110.732,152.842 C113.179,148.854 114.981,144.48 116.669,140.13 C120.189,131.056 123.088,121.746 125.964,112.455 C128.833,103.185 153.518,15.052 155.071,7.533 C155.247,6.676 155.413,5.845 155.295,4.96 C155.063,3.221 153.941,1.542 152.399,0.888 Z M174.334,91.48 C174.334,97.484 172.799,99.997 168.331,99.997 C165.051,99.997 162.676,98.81 159.954,96.995 L159.954,105.722 C161.838,106.908 165.399,108.165 169.1,108.165 C178.245,108.165 183.34,103.418 183.34,92.527 L183.34,64.604 L174.334,64.604 L174.334,91.48 Z M227.155,93.435 L219.754,64.604 L212.774,64.604 L205.235,93.435 L198.252,64.604 L189.249,64.604 L200.417,107.467 L208.584,107.467 L216.124,79.194 L223.665,107.467 L231.831,107.467 L243,64.604 L234.206,64.604 L227.155,93.435 Z M387.918,107.467 L415.213,107.467 L415.213,102.511 L393.364,102.511 L393.364,87.92 L413.19,87.92 L413.19,83.033 L393.364,83.033 L393.364,69.49 L415.213,69.49 L415.213,64.604 L387.918,64.604 L387.918,107.467 Z" id="Fill-1" fill="#C53551" mask="url(#mask-2)"></path>
        </g>
    </g>
</svg>