<?xml version="1.0" encoding="UTF-8"?>
<svg width="339px" height="99px" viewBox="0 0 339 99" version="1.1" xmlns="http://www.w3.org/2000/svg" xmlns:xlink="http://www.w3.org/1999/xlink">
    <!-- Generator: Sketch 49.1 (51147) - http://www.bohemiancoding.com/sketch -->
    <title>M2A_Media_logo_cmyk</title>
    <desc>Created with Sketch.</desc>
    <defs>
        <polygon id="path-1" points="0.06 0.017 166.098234 0.017 166.098234 99 0.06 99"></polygon>
        <polygon id="path-3" points="0.493 0.154 39.225 0.154 39.225 43.814 0.493 43.814"></polygon>
    </defs>
    <g id="Page-1" stroke="none" stroke-width="1" fill="none" fill-rule="evenodd">
        <g id="M2A_Media_logo_cmyk">
            <g id="Group-3">
                <mask id="mask-2" fill="white">
                    <use xlink:href="#path-1"></use>
                </mask>
                <g id="Clip-2"></g>
                <path d="M143.733,92.516 C146.347,92.516 159.403,91.593 159.613,73.369 C159.849,52.715 144.837,45.648 144.2,45.358 L142.18,44.44 L142.291,42.219 C142.35,41.106 143.438,14.725 118.074,7.919 C114.562,6.977 111.101,6.499 107.789,6.499 C89.433,6.499 80.057,21.09 79.964,21.238 L78.152,24.12 L75.363,22.17 C75.288,22.119 67.167,16.574 57.381,16.574 C52.547,16.574 48.071,17.932 44.075,20.612 C28.594,30.99 32.187,50.517 32.226,50.713 L33.032,54.866 L28.815,54.565 C28.773,54.56 28.443,54.541 27.9,54.541 C8.568,54.541 6.481,68.631 6.481,74.691 C6.481,81.992 9.239,87.161 14.68,90.047 C19.102,92.399 23.79,92.516 24.685,92.516 L24.877,92.512 M143.733,99 C143.475,99 143.338,98.992 143.338,98.992 L24.685,99 C23.049,99 17.275,98.768 11.638,95.774 C6.331,92.953 0,87.005 0,74.691 C0,61.472 6.588,55.011 12.114,51.92 C16.898,49.245 22.071,48.401 25.423,48.157 C24.961,40.911 25.836,25.034 40.466,15.224 C45.548,11.82 51.239,10.092 57.381,10.092 C65.626,10.092 72.685,13.216 76.365,15.222 C80.387,10.285 90.792,0.017 107.789,0.017 C111.67,0.017 115.693,0.57 119.753,1.658 C145.675,8.614 148.504,33.062 148.758,40.453 C153.694,43.368 166.33,52.849 166.095,73.444 C165.808,98.285 145.992,99 143.733,99" id="Fill-1" fill="#CB262C" mask="url(#mask-2)"></path>
            </g>
            <polygon id="Fill-4" fill="#ffe6ce" points="93.762 86.663 233.876 86.663 233.876 29.652 93.762 29.652"></polygon>
            <path d="M56.069,38.477 C56.909,39.929 57.845,41.705 58.876,43.806 C59.908,45.907 60.958,48.113 62.027,50.423 C63.097,52.735 64.156,55.084 65.207,57.471 C66.258,59.859 67.222,62.065 68.101,64.089 C68.979,62.065 69.934,59.859 70.966,57.471 C71.997,55.084 73.047,52.735 74.118,50.423 C75.186,48.113 76.237,45.907 77.268,43.806 C78.3,41.705 79.235,39.929 80.076,38.477 L86.581,38.477 C86.931,41.381 87.262,44.465 87.573,47.73 C87.884,50.996 88.166,54.339 88.418,57.758 C88.671,61.177 88.905,64.615 89.119,68.072 C89.332,71.529 89.518,74.9 89.673,78.184 L82.569,78.184 C82.412,73.563 82.227,68.807 82.014,63.917 C81.8,59.028 81.478,54.29 81.05,49.707 C80.63,50.586 80.133,51.636 79.56,52.859 C78.987,54.081 78.376,55.409 77.727,56.841 C77.077,58.274 76.418,59.754 75.75,61.282 C75.081,62.81 74.433,64.289 73.802,65.722 C73.172,67.155 72.589,68.492 72.055,69.733 C71.519,70.974 71.061,72.035 70.68,72.912 L65.293,72.912 C64.911,72.035 64.453,70.965 63.918,69.704 C63.383,68.444 62.801,67.097 62.171,65.664 C61.54,64.232 60.891,62.752 60.223,61.224 C59.554,59.697 58.895,58.226 58.246,56.812 C57.596,55.4 56.985,54.072 56.412,52.829 C55.839,51.589 55.343,50.548 54.923,49.707 C54.494,54.29 54.172,59.028 53.958,63.917 C53.744,68.807 53.56,73.563 53.405,78.184 L46.299,78.184 C46.455,74.9 46.64,71.499 46.853,67.985 C47.068,64.471 47.301,60.986 47.554,57.528 C47.806,54.072 48.088,50.72 48.4,47.473 C48.71,44.226 49.04,41.227 49.391,38.477 L56.069,38.477" id="Fill-5" fill="#CB262C"></path>
            <path d="M120.843,48.791 C120.843,50.165 120.556,51.512 119.983,52.829 C119.41,54.148 118.674,55.428 117.777,56.668 C116.879,57.911 115.858,59.114 114.712,60.279 C113.566,61.445 112.42,62.58 111.274,63.688 C110.663,64.261 109.975,64.949 109.211,65.75 C108.446,66.552 107.722,67.355 107.034,68.158 C106.347,68.959 105.753,69.733 105.258,70.478 C104.761,71.222 104.493,71.844 104.455,72.34 L122.103,72.34 L122.103,78.184 L96.835,78.184 C96.796,77.878 96.778,77.506 96.778,77.067 C96.778,76.628 96.778,76.293 96.778,76.064 C96.778,74.231 97.073,72.54 97.665,70.994 C98.258,69.447 99.031,68.005 99.986,66.667 C100.94,65.33 102.011,64.071 103.195,62.886 C104.378,61.703 105.563,60.537 106.747,59.39 C107.664,58.512 108.542,57.653 109.383,56.812 C110.223,55.972 110.959,55.142 111.589,54.32 C112.219,53.498 112.725,52.659 113.107,51.798 C113.489,50.939 113.68,50.051 113.68,49.134 C113.68,47.148 113.107,45.735 111.961,44.894 C110.815,44.055 109.421,43.634 107.779,43.634 C106.709,43.634 105.716,43.787 104.799,44.092 C103.882,44.398 103.071,44.761 102.364,45.181 C101.657,45.601 101.036,46.032 100.502,46.47 C99.967,46.91 99.565,47.263 99.299,47.53 L95.861,42.66 C97.465,41.132 99.346,39.901 101.505,38.964 C103.662,38.028 105.982,37.56 108.466,37.56 C112.706,37.56 115.829,38.563 117.834,40.569 C119.84,42.574 120.843,45.315 120.843,48.791" id="Fill-6" fill="#CB262C"></path>
            <path d="M145.279,46.155 C144.4,48.18 143.397,50.644 142.271,53.546 C141.144,56.45 139.97,59.601 138.747,63 L151.811,63 C150.588,59.601 149.405,56.431 148.259,53.489 C147.113,50.548 146.119,48.103 145.279,46.155 Z M156.997,78.184 C156.46,76.619 155.906,75.071 155.331,73.542 C154.756,72.016 154.201,70.449 153.665,68.844 L136.893,68.844 C136.357,70.449 135.811,72.025 135.256,73.572 C134.701,75.119 134.155,76.657 133.62,78.184 L126.112,78.184 C127.6,73.944 129.013,70.029 130.348,66.438 C131.684,62.848 132.991,59.448 134.269,56.239 C135.548,53.031 136.817,49.975 138.076,47.072 C139.335,44.169 140.634,41.304 141.97,38.477 L148.861,38.477 C150.198,41.304 151.497,44.169 152.758,47.072 C154.018,49.975 155.288,53.031 156.568,56.239 C157.848,59.448 159.166,62.848 160.522,66.438 C161.878,70.029 163.301,73.944 164.791,78.184 L156.997,78.184 Z" id="Fill-7" fill="#CB262C"></path>
            <path d="M191.804,38.477 C192.643,39.929 193.58,41.705 194.611,43.806 C195.643,45.907 196.692,48.113 197.763,50.423 C198.831,52.735 199.892,55.084 200.942,57.471 C201.993,59.859 202.957,62.065 203.836,64.089 C204.714,62.065 205.669,59.859 206.701,57.471 C207.732,55.084 208.782,52.735 209.852,50.423 C210.921,48.113 211.973,45.907 213.004,43.806 C214.035,41.705 214.971,39.929 215.811,38.477 L222.316,38.477 C222.666,41.381 222.997,44.465 223.308,47.73 C223.619,50.996 223.901,54.339 224.153,57.758 C224.405,61.177 224.64,64.615 224.853,68.072 C225.067,71.529 225.253,74.9 225.408,78.184 L218.304,78.184 C218.147,73.563 217.963,68.807 217.748,63.917 C217.535,59.028 217.213,54.29 216.785,49.707 C216.364,50.586 215.868,51.636 215.296,52.859 C214.723,54.081 214.111,55.409 213.462,56.841 C212.811,58.274 212.153,59.754 211.485,61.282 C210.816,62.81 210.168,64.289 209.537,65.722 C208.906,67.155 208.324,68.492 207.79,69.733 C207.254,70.974 206.796,72.035 206.415,72.912 L201.028,72.912 C200.646,72.035 200.187,70.965 199.653,69.704 C199.118,68.444 198.536,67.097 197.906,65.664 C197.275,64.232 196.626,62.752 195.958,61.224 C195.289,59.697 194.63,58.226 193.98,56.812 C193.331,55.4 192.721,54.072 192.147,52.829 C191.574,51.589 191.077,50.548 190.657,49.707 C190.228,54.29 189.907,59.028 189.693,63.917 C189.479,68.807 189.295,73.563 189.14,78.184 L182.034,78.184 C182.19,74.9 182.374,71.499 182.589,67.985 C182.803,64.471 183.036,60.986 183.288,57.528 C183.541,54.072 183.823,50.72 184.135,47.473 C184.445,44.226 184.775,41.227 185.126,38.477 L191.804,38.477" id="Fill-8" fill="#CB262C"></path>
            <path d="M251.88,60.25 C251.88,59.295 251.745,58.388 251.478,57.528 C251.211,56.668 250.819,55.924 250.304,55.293 C249.788,54.663 249.158,54.167 248.413,53.804 C247.668,53.441 246.78,53.259 245.749,53.259 C244.679,53.259 243.743,53.46 242.941,53.862 C242.139,54.262 241.46,54.787 240.907,55.437 C240.352,56.087 239.924,56.831 239.618,57.671 C239.311,58.512 239.102,59.371 238.987,60.25 L251.88,60.25 Z M231.768,63.344 C231.768,60.708 232.159,58.398 232.942,56.412 C233.726,54.425 234.767,52.773 236.065,51.454 C237.363,50.137 238.853,49.144 240.535,48.475 C242.215,47.807 243.934,47.473 245.691,47.473 C249.816,47.473 253.034,48.753 255.346,51.312 C257.656,53.871 258.812,57.692 258.812,62.771 C258.812,63.154 258.803,63.583 258.784,64.06 C258.764,64.538 258.735,64.968 258.697,65.35 L238.93,65.35 C239.121,67.756 239.971,69.619 241.48,70.936 C242.988,72.254 245.176,72.912 248.041,72.912 C249.721,72.912 251.258,72.76 252.653,72.454 C254.047,72.149 255.145,71.825 255.947,71.481 L256.864,77.153 C256.482,77.344 255.956,77.544 255.288,77.754 C254.62,77.964 253.856,78.156 252.996,78.328 C252.138,78.499 251.211,78.642 250.218,78.757 C249.225,78.871 248.212,78.929 247.182,78.929 C244.545,78.929 242.253,78.536 240.305,77.754 C238.357,76.972 236.753,75.883 235.492,74.488 C234.231,73.094 233.296,71.452 232.685,69.561 C232.073,67.67 231.768,65.599 231.768,63.344 Z" id="Fill-9" fill="#CB262C"></path>
            <path d="M271.59,63.115 C271.59,66.171 272.314,68.568 273.767,70.305 C275.218,72.044 277.224,72.912 279.783,72.912 C280.891,72.912 281.836,72.866 282.619,72.77 C283.402,72.675 284.042,72.569 284.539,72.454 L284.539,55.265 C283.928,54.845 283.115,54.454 282.103,54.09 C281.091,53.728 280.013,53.546 278.866,53.546 C276.345,53.546 274.502,54.406 273.337,56.124 C272.172,57.844 271.59,60.174 271.59,63.115 Z M291.472,77.267 C290.097,77.688 288.368,78.07 286.286,78.413 C284.204,78.757 282.018,78.929 279.726,78.929 C277.357,78.929 275.236,78.566 273.366,77.84 C271.494,77.115 269.899,76.074 268.581,74.718 C267.264,73.362 266.251,71.719 265.545,69.789 C264.837,67.862 264.484,65.694 264.484,63.287 C264.484,60.918 264.78,58.77 265.373,56.841 C265.965,54.912 266.834,53.259 267.979,51.884 C269.126,50.509 270.519,49.45 272.162,48.705 C273.805,47.96 275.695,47.587 277.835,47.587 C279.286,47.587 280.565,47.759 281.674,48.103 C282.781,48.447 283.736,48.829 284.539,49.249 L284.539,34.868 L291.472,33.722 L291.472,77.267 Z" id="Fill-10" fill="#CB262C"></path>
            <g id="Group-14" transform="translate(299.000000, 35.000000)">
                <mask id="mask-4" fill="white">
                    <use xlink:href="#path-3"></use>
                </mask>
                <g id="Clip-12"></g>
                <path d="M1.352,43.184 L8.285,43.184 L8.285,13.218 L1.352,13.218 L1.352,43.184 Z M9.03,4.451 C9.03,5.75 8.609,6.781 7.769,7.545 C6.929,8.309 5.936,8.691 4.79,8.691 C3.605,8.691 2.593,8.309 1.754,7.545 C0.912,6.781 0.493,5.75 0.493,4.451 C0.493,3.114 0.912,2.064 1.754,1.3 C2.593,0.536 3.605,0.154 4.79,0.154 C5.936,0.154 6.929,0.536 7.769,1.3 C8.609,2.064 9.03,3.114 9.03,4.451 Z" id="Fill-11" fill="#CB262C" mask="url(#mask-4)"></path>
                <path d="M27.651,38.314 C29.79,38.314 31.413,38.2 32.521,37.97 L32.521,30.292 C32.14,30.177 31.585,30.063 30.86,29.949 C30.134,29.834 29.332,29.777 28.453,29.777 C27.689,29.777 26.915,29.834 26.133,29.949 C25.35,30.063 24.643,30.273 24.013,30.578 C23.383,30.885 22.876,31.314 22.494,31.868 C22.112,32.422 21.922,33.12 21.922,33.959 C21.922,35.602 22.437,36.738 23.469,37.369 C24.5,37.998 25.894,38.314 27.651,38.314 Z M27.078,12.473 C29.37,12.473 31.299,12.759 32.865,13.332 C34.432,13.905 35.682,14.707 36.618,15.739 C37.554,16.77 38.223,18.022 38.624,19.492 C39.024,20.962 39.226,22.577 39.226,24.333 L39.226,42.496 C38.155,42.726 36.542,43.003 34.384,43.328 C32.225,43.652 29.79,43.814 27.078,43.814 C25.282,43.814 23.641,43.642 22.15,43.298 C20.661,42.955 19.391,42.402 18.341,41.637 C17.29,40.873 16.469,39.88 15.877,38.658 C15.284,37.436 14.988,35.927 14.988,34.131 C14.988,32.411 15.322,30.961 15.991,29.777 C16.659,28.593 17.567,27.627 18.713,26.883 C19.859,26.138 21.185,25.604 22.695,25.279 C24.203,24.954 25.779,24.791 27.422,24.791 C28.185,24.791 28.988,24.84 29.829,24.935 C30.668,25.031 31.566,25.193 32.521,25.421 L32.521,24.276 C32.521,23.474 32.426,22.71 32.235,21.984 C32.043,21.259 31.709,20.619 31.232,20.065 C30.754,19.511 30.124,19.081 29.342,18.775 C28.559,18.47 27.574,18.317 26.391,18.317 C24.786,18.317 23.315,18.432 21.978,18.661 C20.642,18.89 19.553,19.158 18.713,19.463 L17.853,13.848 C18.731,13.542 20.011,13.237 21.692,12.931 C23.373,12.626 25.168,12.473 27.078,12.473 Z" id="Fill-13" fill="#CB262C" mask="url(#mask-4)"></path>
            </g>
        </g>
    </g>
</svg>
