<?xml version="1.0" encoding="UTF-8"?>
<svg width="40px" height="14px" viewBox="0 0 40 14" version="1.1" xmlns="http://www.w3.org/2000/svg" xmlns:xlink="http://www.w3.org/1999/xlink">
    <!-- Generator: Sketch 42 (36781) - http://www.bohemiancoding.com/sketch -->
    <title>Mux_Logo_Pixels_Medium</title>
    <desc>Created with Sketch.</desc>
    <defs>
        <linearGradient x1="-213.617434%" y1="50.0143293%" x2="100.003663%" y2="50.0143293%" id="linearGradient-1">
            <stop stop-color="#FF4E00" offset="0%"></stop>
            <stop stop-color="#FF1791" offset="100%"></stop>
        </linearGradient>
        <linearGradient x1="-210.040322%" y1="49.9856707%" x2="100.117195%" y2="49.9856707%" id="linearGradient-2">
            <stop stop-color="#FF4E00" offset="0%"></stop>
            <stop stop-color="#FF1791" offset="100%"></stop>
        </linearGradient>
        <linearGradient x1="306.154054%" y1="50.0143731%" x2="-256.248649%" y2="50.0143731%" id="linearGradient-3">
            <stop stop-color="#FF4E00" offset="0%"></stop>
            <stop stop-color="#FF1791" offset="100%"></stop>
        </linearGradient>
        <linearGradient x1="-382.77%" y1="49.9856269%" x2="1103.58%" y2="49.9856269%" id="linearGradient-4">
            <stop stop-color="#FF4E00" offset="0%"></stop>
            <stop stop-color="#FF1791" offset="100%"></stop>
        </linearGradient>
        <linearGradient x1="-844.047619%" y1="49.71%" x2="611.928571%" y2="49.71%" id="linearGradient-5">
            <stop stop-color="#FF4E00" offset="0%"></stop>
            <stop stop-color="#FF1791" offset="100%"></stop>
        </linearGradient>
        <linearGradient x1="-1386.92143%" y1="50.29%" x2="99.4285714%" y2="50.29%" id="linearGradient-6">
            <stop stop-color="#FF4E00" offset="0%"></stop>
            <stop stop-color="#FF1791" offset="100%"></stop>
        </linearGradient>
        <linearGradient x1="-14.9128571%" y1="49.9856269%" x2="1471.43714%" y2="49.9856269%" id="linearGradient-7">
            <stop stop-color="#FF4E00" offset="0%"></stop>
            <stop stop-color="#FF1791" offset="100%"></stop>
        </linearGradient>
        <linearGradient x1="-385%" y1="50%" x2="1110.00857%" y2="50%" id="linearGradient-8">
            <stop stop-color="#FF4E00" offset="0%"></stop>
            <stop stop-color="#FF1791" offset="100%"></stop>
        </linearGradient>
        <linearGradient x1="2.58677949%" y1="50%" x2="518.59192%" y2="50%" id="linearGradient-9">
            <stop stop-color="#FF4E00" offset="0%"></stop>
            <stop stop-color="#FF1791" offset="100%"></stop>
        </linearGradient>
        <linearGradient x1="-64.628968%" y1="50%" x2="440.107337%" y2="50%" id="linearGradient-10">
            <stop stop-color="#FF4E00" offset="0%"></stop>
            <stop stop-color="#FF1791" offset="100%"></stop>
        </linearGradient>
        <linearGradient x1="-203.141081%" y1="50.0143731%" x2="359.261622%" y2="50.0143731%" id="linearGradient-11">
            <stop stop-color="#FF4E00" offset="0%"></stop>
            <stop stop-color="#FF1791" offset="100%"></stop>
        </linearGradient>
    </defs>
    <g id="Page-1" stroke="none" stroke-width="1" fill="none" fill-rule="evenodd">
        <g id="Mux_Logo_Pixels_Medium" fill-rule="nonzero">
            <g id="Symbols">
                <g id="UI/Nav/Variations/Base">
                    <g id="Mux_Logo_Pixels_Medium">
                        <g id="Layer_1">
                            <path d="M37.5962603,12.7623427 C38.1400079,13.3087427 38.9944684,13.3087427 39.4993768,12.7623427 C40.0431244,12.2159427 40.0431244,11.3573142 39.4993768,10.8499427 L29.4788859,0.78057142 C28.9351384,0.234171426 28.0806779,0.234171426 27.5757695,0.78057142 C27.070861,1.32697141 27.0320219,2.18559998 27.5757695,2.6929714 L37.5962603,12.7623427 L37.5962603,12.7623427 Z" id="Shape" fill="url(#linearGradient-1)" opacity="0.7"></path>
                            <path d="M29.4788859,12.8794284 C28.9351384,13.4258284 28.0806779,13.4258284 27.5757695,12.8794284 C27.070861,12.3330284 27.0320219,11.4743999 27.5757695,10.9670284 L37.5962603,0.897657133 C38.1400079,0.351257139 38.9944684,0.351257139 39.4993768,0.897657133 C40.0042853,1.44405713 40.0431244,2.30268569 39.4993768,2.81005711 L29.4788859,12.8794284 L29.4788859,12.8794284 Z" id="Shape" fill="url(#linearGradient-2)"></path>
                            <path d="M20.1963382,10.459657 C21.9052591,10.459657 23.3034671,9.05462847 23.3034671,7.33737135 L23.3034671,1.79531427 C23.3034671,1.01474285 23.8860538,0.39028571 24.6628361,0.39028571 C25.4396183,0.39028571 26.022205,1.01474285 26.022205,1.79531427 L26.022205,7.29834278 C26.022205,10.5377142 23.4199845,13.1526284 20.1963382,13.1526284 C19.4583951,13.1526284 18.8369693,12.5281713 18.8369693,11.7866284 C18.8758084,11.0450856 19.4583951,10.459657 20.1963382,10.459657 L20.1963382,10.459657 Z" id="Shape" fill="url(#linearGradient-3)" opacity="0.7"></path>
                            <path d="M11.8459291,0.507371423 C11.0691469,0.507371423 10.4865602,1.13182856 10.4865602,1.91239998 L10.4865602,11.8646856 C10.4865602,12.645257 11.0691469,13.2697141 11.8459291,13.2697141 C12.6227114,13.2697141 13.205298,12.645257 13.205298,11.8646856 L13.205298,1.91239998 C13.205298,1.13182856 12.6227114,0.507371423 11.8459291,0.507371423 L11.8459291,0.507371423 Z" id="Shape" fill="url(#linearGradient-4)" opacity="0.7"></path>
                            <ellipse id="Oval" fill="url(#linearGradient-5)" cx="24.6628361" cy="1.75628569" rx="1.35936892" ry="1.36599998"></ellipse>
                            <ellipse id="Oval" fill="url(#linearGradient-6)" cx="38.6449164" cy="11.9037142" rx="1.35936892" ry="1.36599998"></ellipse>
                            <path d="M1.74776004,0.507371423 C0.970977798,0.507371423 0.388391119,1.13182856 0.388391119,1.91239998 L0.388391119,11.8646856 C0.388391119,12.645257 0.970977798,13.2697141 1.74776004,13.2697141 C2.52454227,13.2697141 3.10712895,12.645257 3.10712895,11.8646856 L3.10712895,1.91239998 C3.10712895,1.13182856 2.52454227,0.507371423 1.74776004,0.507371423 L1.74776004,0.507371423 Z" id="Shape" fill="url(#linearGradient-7)"></path>
                            <ellipse id="Oval" fill="url(#linearGradient-8)" cx="11.8459291" cy="11.9037142" rx="1.35936892" ry="1.36599998"></ellipse>
                            <path d="M5.78702767,7.76668563 C6.33077524,8.31308562 7.1852357,8.31308562 7.69014416,7.76668563 C8.19505261,7.22028563 8.23389172,6.36165707 7.69014416,5.85428565 L2.67989872,0.819599991 C2.17499027,0.273199997 1.3205298,0.273199997 0.776782238,0.819599991 C0.233034671,1.36599998 0.271873783,2.22462855 0.776782238,2.73199997 L5.78702767,7.76668563 L5.78702767,7.76668563 Z" id="Shape" fill="url(#linearGradient-9)" opacity="0.7"></path>
                            <path d="M7.76782238,7.76668563 C7.22407482,8.31308562 6.36961435,8.31308562 5.8647059,7.76668563 C5.35979744,7.22028563 5.32095833,6.36165707 5.8647059,5.85428565 L10.8749513,0.819599991 C11.4186989,0.273199997 12.2731594,0.273199997 12.7780678,0.819599991 C13.3218154,1.36599998 13.3218154,2.22462855 12.7780678,2.73199997 L7.76782238,7.76668563 L7.76782238,7.76668563 Z" id="Shape" fill="url(#linearGradient-10)"></path>
                            <path d="M20.1963382,10.459657 C18.4874173,10.459657 17.0892092,9.05462847 17.0892092,7.33737135 L17.0892092,1.79531427 C17.0892092,1.01474285 16.5066226,0.39028571 15.7298403,0.39028571 C14.9530581,0.39028571 14.3704714,1.01474285 14.3704714,1.79531427 L14.3704714,7.29834278 C14.3704714,10.5377142 16.9726919,13.1526284 20.1963382,13.1526284 C20.9342813,13.1526284 21.5557071,12.5281713 21.5557071,11.7866284 C21.516868,11.0450856 20.9342813,10.459657 20.1963382,10.459657 L20.1963382,10.459657 Z" id="Shape" fill="url(#linearGradient-11)"></path>
                        </g>
                    </g>
                </g>
            </g>
        </g>
    </g>
</svg>