<?xml version="1.0" encoding="UTF-8"?>
<svg width="2085px" height="560px" viewBox="0 0 2085 560" version="1.1" xmlns="http://www.w3.org/2000/svg" xmlns:xlink="http://www.w3.org/1999/xlink">
    <!-- Generator: Sketch 49 (51002) - http://www.bohemiancoding.com/sketch -->
    <title>02. Netflix_Logo_PMS copy</title>
    <desc>Created with Sketch.</desc>
    <defs>
        <polygon id="path-1" points="0.06 0 2084.32 0 2084.32 560 0.06 560"></polygon>
    </defs>
    <g id="Page-1" stroke="none" stroke-width="1" fill="none" fill-rule="evenodd">
        <g id="02.-Netflix_Logo_PMS-copy">
            <mask id="mask-2" fill="white">
                <use xlink:href="#path-1"></use>
            </mask>
            <g id="Clip-2"></g>
            <path d="M1386.8,0 L1299.03,0 L1299.03,490.874 C1378.8,493.619 1458.23,497.644 1537.34,502.917 L1537.34,416.435 C1487.3,413.097 1437.12,410.267 1386.8,407.926 L1386.8,0 Z M2084.32,0.049 L1987.92,0.049 L1924.36,147.355 L1867.26,0.049 L1772.3,0.049 L1874.34,263.266 L1762.94,521.489 C1793.76,524.495 1824.5,527.702 1855.2,531.092 L1919.98,380.952 L1984.15,546.459 C2017.57,550.757 2050.91,555.24 2084.19,559.989 L2084.32,559.933 L1969.98,265.043 L2084.32,0.049 Z M997.745,486.585 L1085.52,486.565 L1085.52,286.891 L1204.5,286.891 L1204.5,200.408 L1085.52,200.408 L1085.52,87.315 L1242.77,87.315 L1242.77,0.054 L997.745,0.054 L997.745,486.585 Z M669.979,87.309 L761.842,87.309 L761.842,491.726 C791.049,490.624 820.316,489.715 849.614,488.948 L849.614,87.309 L941.473,87.309 L941.473,0.049 L669.979,0.049 L669.979,87.309 Z M369.907,516.862 C450.804,509.511 532.074,503.453 613.713,498.75 L613.713,412.257 C561.552,415.272 509.54,418.841 457.679,422.92 L457.679,291.987 C491.707,291.647 536.514,290.61 576.209,291.103 L576.209,204.613 C544.497,204.537 493.527,205.057 457.679,205.516 L457.679,87.315 L613.713,87.315 L613.713,0.054 L369.907,0.054 L369.907,516.862 Z M197.733,316.927 L83.417,0.049 L0,0.049 L0,560 C29.201,555.844 58.457,551.863 87.771,548.045 L87.771,243.545 L189.418,535.543 C221.389,531.835 253.416,528.323 285.505,525.022 L285.505,0.049 L197.733,0.049 L197.733,316.927 Z M1609.7,508.124 C1639,510.366 1668.25,512.772 1697.47,515.373 L1697.47,0.049 L1609.7,0.049 L1609.7,508.124 Z" id="Fill-1" fill="#C62A31" mask="url(#mask-2)"></path>
        </g>
    </g>
</svg>