<?xml version="1.0" encoding="UTF-8"?>
<svg width="310px" height="98px" viewBox="0 0 310 98" version="1.1" xmlns="http://www.w3.org/2000/svg" xmlns:xlink="http://www.w3.org/1999/xlink">
    <!-- Generator: Sketch 49 (51002) - http://www.bohemiancoding.com/sketch -->
    <title>04. Peer5 Logo 2018 Demuxed</title>
    <desc>Created with Sketch.</desc>
    <defs>
        <polygon id="path-1" points="0.06 0.288 218.43 0.288 218.43 61.424 0.06 61.424"></polygon>
    </defs>
    <g id="Page-1" stroke="none" stroke-width="1" fill="none" fill-rule="evenodd">
        <g id="04.-Peer5-Logo-2018-Demuxed">
            <polyline id="Fill-1" fill="#D4492B" points="266.469 98 231.276 88.23 223.434 0.265 309.612 0.265 301.76 88.217 266.469 98"></polyline>
            <polyline id="Fill-2" fill="#E15E30" points="295.042 82.616 301.75 7.457 266.522 7.457 266.522 90.521 295.042 82.616"></polyline>
            <polyline id="Fill-3" fill="#E9E9E8" points="266.522 50.871 266.522 40.082 252.249 40.082 251.264 29.034 266.522 29.034 266.522 18.246 239.469 18.246 239.729 21.141 242.379 50.871 266.522 50.871"></polyline>
            <polyline id="Fill-4" fill="#E9E9E8" points="266.522 68.102 266.473 68.114 254.461 64.869 253.694 56.266 242.864 56.266 244.375 73.203 266.473 79.342 266.522 79.326 266.522 68.102"></polyline>
            <polyline id="Fill-5" fill="#FFFFFE" points="291.563 40.082 266.487 40.082 266.487 50.871 279.768 50.871 278.518 64.862 266.487 68.11 266.487 79.335 288.6 73.203 291.299 42.978 291.563 40.082"></polyline>
            <polyline id="Fill-6" fill="#FFFFFE" points="293.51 18.246 266.487 18.246 266.487 29.034 292.545 29.034 293.51 18.246"></polyline>
            <polyline id="Fill-7" fill="#1A1919" points="103.146 64.822 103.146 79.424 57.15 79.424 57.15 18.288 103.146 18.288 103.146 32.395 75.559 32.395 75.559 41.263 97.862 41.263 97.862 54.834 75.559 54.834 75.559 64.822 103.146 64.822"></polyline>
            <polyline id="Fill-8" fill="#1A1919" points="156.577 64.822 156.577 79.424 110.581 79.424 110.581 18.288 156.577 18.288 156.577 32.395 128.99 32.395 128.99 41.263 151.292 41.263 151.292 54.834 128.99 54.834 128.99 64.822 156.577 64.822"></polyline>
            <g id="Group-12" transform="translate(0.000000, 18.000000)">
                <mask id="mask-2" fill="white">
                    <use xlink:href="#path-1"></use>
                </mask>
                <g id="Clip-10"></g>
                <path d="M182.78,24.966 L190.795,24.966 C193.155,24.966 195.051,24.473 196.485,23.487 C197.918,22.502 198.635,21.055 198.635,19.143 C198.635,15.232 196.229,13.276 191.422,13.276 L182.78,13.276 L182.78,24.966 Z M218.43,61.424 L197.627,61.424 L188.698,38.044 L182.78,38.044 L182.78,61.424 L164.012,61.424 L164.012,0.288 L195.948,0.288 C202.995,0.288 208.463,1.938 212.362,5.237 C216.258,8.536 218.208,12.889 218.208,18.293 C218.208,21.816 217.491,24.929 216.057,27.631 C214.624,30.334 211.725,32.715 207.37,34.774 L218.43,61.424 Z" id="Fill-9" fill="#1A1919" mask="url(#mask-2)"></path>
                <path d="M18.766,26.085 L25.036,26.085 C30.56,26.085 33.323,24.055 33.323,19.995 C33.323,16.173 30.768,14.262 25.663,14.262 L18.766,14.262 L18.766,26.085 Z M19.035,39.208 L19.035,61.424 L0,61.424 L0,0.288 L26.113,0.288 C32.621,0.288 37.569,1.035 40.959,2.527 C44.348,4.021 47.035,6.304 49.02,9.379 C51.004,12.456 51.999,15.904 51.999,19.726 C51.999,25.548 49.967,30.251 45.907,33.834 C41.844,37.417 36.426,39.208 29.65,39.208 L19.035,39.208 Z" id="Fill-11" fill="#1A1919" mask="url(#mask-2)"></path>
            </g>
        </g>
    </g>
</svg>