<?xml version="1.0" encoding="UTF-8"?>
<svg width="800px" height="800px" viewBox="0 0 800 800" version="1.1" xmlns="http://www.w3.org/2000/svg" xmlns:xlink="http://www.w3.org/1999/xlink">
    <!-- Generator: Sketch 49.2 (51160) - http://www.bohemiancoding.com/sketch -->
    <title>logo</title>
    <desc>Created with Sketch.</desc>
    <defs></defs>
    <g id="logo" stroke="none" stroke-width="1" fill="none" fill-rule="evenodd">
        <g id="Group" transform="translate(98.000000, 257.000000)">
            <path d="M529.363498,83.3478704 C497.873701,83.3478704 472.34438,108.257462 472.34438,138.98284 C472.34438,169.709617 497.873701,194.617809 529.363498,194.617809 C560.853294,194.617809 586.382615,169.709617 586.382615,138.98284 C586.382615,108.257462 560.853294,83.3478704 529.363498,83.3478704 M605.388987,138.98284 C605.388987,179.950942 571.352285,213.162798 529.363498,213.162798 C487.37471,213.162798 453.338008,179.950942 453.338008,138.98284 C453.338008,98.0147368 487.37471,64.8028807 529.363498,64.8028807 C571.352285,64.8028807 605.388987,98.0147368 605.388987,138.98284" id="Fill-1" fill="#0C93F2"></path>
            <path d="M370.679372,13.804299 C370.679372,20.2053025 365.391853,25.3952675 358.87034,25.3952675 C352.348827,25.3952675 347.061307,20.2053025 347.061307,13.804299 C347.061307,7.40329542 352.348827,2.21333038 358.87034,2.21333038 C365.391853,2.21333038 370.679372,7.40329542 370.679372,13.804299" id="Fill-3" fill="#0C93F2"></path>
            <path d="M179.879987,0.0760224174 C178.973145,0.0760224174 178.238489,0.792845212 178.238489,1.67767335 L178.238489,2.2138904 L178.238489,203.359687 C178.238489,208.460049 182.477113,212.310171 187.702933,212.310171 C192.930188,212.310171 197.246296,208.616854 197.246296,203.890303 C197.246296,203.877703 197.246296,203.890303 197.246296,203.890303 L197.095634,132.597236 C197.246296,104.779752 221.003544,83.6320794 249.513103,83.6320794 C278.021226,83.6320794 292.151889,104.211334 292.276723,132.028818 L292.276723,202.354455 C292.269549,202.501459 292.275288,202.641464 292.275288,202.791269 C292.275288,207.891631 296.469432,212.566379 301.695251,212.566379 C306.918201,212.566379 311.274486,208.527251 311.283095,203.890303 L311.283095,129.022923 C311.283095,78.712323 278.021226,64.8028807 249.513103,64.8028807 C228.130575,64.8028807 209.124203,73.1569463 197.246296,89.3848623 L197.246296,23.0773538 C197.246296,12.0618036 190.808006,1.14845652 179.973254,0.080222551 L179.879987,0.0760224174 Z" id="Fill-5" fill="#0C92F2"></path>
            <path d="M349.296271,203.890443 L349.296271,203.936645 C349.296271,208.573592 353.639641,213.148938 358.866896,213.148938 C364.094151,213.148938 368.302643,208.538591 368.302643,203.901644 L368.302643,203.890443 L368.302643,88.9621889 C368.302643,77.9466386 361.867222,67.0346916 351.031036,65.9664577 L350.937769,65.9608575 C350.030927,65.9608575 349.296271,66.6790803 349.296271,67.5625084 L349.296271,203.890443 Z" id="Fill-7" fill="#0C93F2"></path>
            <path d="M406.315818,203.890443 L406.315818,203.890443 C406.315818,208.527391 410.630491,213.125137 415.857746,213.125137 C421.085001,213.125137 425.32219,208.527391 425.32219,203.890443 L425.32219,23.0004914 C425.32219,11.9863412 418.885335,1.07299412 408.050584,0.00616019589 L407.957317,0.000560017808 C407.050475,0.000560017808 406.315818,0.717382812 406.315818,1.6008109 L406.315818,203.890443 Z" id="Fill-9" fill="#0C93F2"></path>
            <path d="M19.0624876,264.233902 C19.0624876,275.248053 12.6256322,286.1628 1.79088078,287.229634 L1.69617894,287.235234 C0.790771947,287.235234 0.0561152466,286.518411 0.0561152466,285.633583 C0.0561152466,285.633583 0.0532454939,139.00132 0.0532454939,138.98312 C0.0532454939,97.2561926 33.3151146,64.8031607 76.078735,64.8031607 C118.965755,64.8031607 152.105659,97.2561926 152.105659,138.98312 C152.105659,180.708646 118.84379,213.163078 76.078735,213.163078 C45.6120051,213.163078 41.0605772,197.602984 44.1613451,187.895075 L44.1957821,187.806872 C44.4669737,187.020047 45.2274582,186.453029 46.1242559,186.453029 C46.5705025,186.453029 46.982312,186.591633 47.3166382,186.829641 L47.5906996,187.001846 C54.9917919,191.903402 61.3396849,195.011501 76.078735,195.011501 C109.340604,195.011501 133.099287,166.800604 133.099287,138.98312 C133.099287,111.165635 109.340604,83.3481504 76.2580945,83.3481504 C42.8183008,83.3481504 19.0610527,111.165635 19.0610527,138.98312 L19.0624876,264.233902 Z" id="Fill-11" fill="#0C93F2"></path>
        </g>
    </g>
</svg>