<?xml version="1.0" encoding="UTF-8"?>
<svg width="482px" height="147px" viewBox="0 0 482 147" version="1.1" xmlns="http://www.w3.org/2000/svg" xmlns:xlink="http://www.w3.org/1999/xlink">
    <!-- Generator: Sketch 49 (51002) - http://www.bohemiancoding.com/sketch -->
    <title>05. Unified Streaming Logo 2018 Demuxed</title>
    <desc>Created with Sketch.</desc>
    <defs>
        <polygon id="path-1" points="0.06 0.604 211.874 0.604 211.874 146.999598 0.06 146.999598"></polygon>
    </defs>
    <g id="Page-1" stroke="none" stroke-width="1" fill="none" fill-rule="evenodd">
        <g id="05.-Unified-Streaming-Logo-2018-Demuxed">
            <path d="M238.001,67.463 C238.375,66.462 238.875,65.579 239.505,64.816 C240.13,64.054 240.892,63.439 241.787,62.978 C242.687,62.513 243.718,62.28 244.884,62.28 C246.021,62.28 247.037,62.513 247.935,62.978 C248.833,63.439 249.593,64.054 250.222,64.816 C250.849,65.579 251.335,66.452 251.679,67.439 C252.023,68.425 252.21,69.459 252.238,70.536 L237.259,70.536 C237.38,69.489 237.625,68.466 238.001,67.463 Z M236.901,80.74 C237.738,81.863 238.824,82.744 240.154,83.386 C241.484,84.03 243.06,84.353 244.884,84.353 C247.816,84.353 250.08,83.631 251.679,82.2 C253.281,80.761 254.378,78.73 254.978,76.097 L252.152,76.097 C251.701,77.893 250.894,79.325 249.728,80.404 C248.56,81.477 246.949,82.017 244.884,82.017 C243.539,82.017 242.388,81.735 241.429,81.163 C240.474,80.596 239.685,79.882 239.054,79.009 C238.425,78.143 237.968,77.164 237.687,76.076 C237.402,74.981 237.259,73.93 237.259,72.91 L255.066,72.91 C255.128,71.298 254.978,69.705 254.621,68.136 C254.259,66.564 253.669,65.175 252.845,63.963 C252.023,62.752 250.957,61.773 249.64,61.025 C248.326,60.278 246.738,59.906 244.884,59.906 C243.06,59.906 241.484,60.257 240.154,60.957 C238.824,61.662 237.738,62.588 236.901,63.74 C236.063,64.892 235.442,66.198 235.04,67.664 C234.635,69.13 234.433,70.625 234.433,72.149 C234.433,73.794 234.635,75.353 235.04,76.834 C235.442,78.315 236.063,79.617 236.901,80.74 Z" id="Fill-1" fill="#1A1919"></path>
            <path d="M180.387,51.697 L177.336,51.697 L177.336,71.523 C177.336,73.377 177.127,74.954 176.709,76.254 C176.29,77.557 175.676,78.616 174.87,79.437 C174.063,80.261 173.075,80.855 171.909,81.234 C170.742,81.606 169.412,81.792 167.917,81.792 C166.451,81.792 165.136,81.606 163.97,81.234 C162.804,80.855 161.816,80.261 161.011,79.437 C160.202,78.616 159.589,77.557 159.171,76.254 C158.751,74.954 158.542,73.377 158.542,71.523 L158.542,51.697 L155.493,51.697 L155.493,72.195 C155.493,73.837 155.724,75.403 156.188,76.884 C156.651,78.358 157.383,79.654 158.386,80.761 C159.387,81.871 160.673,82.744 162.243,83.386 C163.813,84.03 165.704,84.353 167.917,84.353 C170.16,84.353 172.067,84.03 173.636,83.386 C175.207,82.744 176.491,81.871 177.493,80.761 C178.496,79.654 179.227,78.358 179.692,76.884 C180.154,75.403 180.387,73.837 180.387,72.195 L180.387,51.697" id="Fill-2" fill="#1A1919"></path>
            <path d="M200.671,102.002 L198.624,102.002 L198.624,107.038 L195.699,107.038 L195.699,108.764 L198.624,108.764 L198.624,120.237 C198.602,121.663 198.862,122.644 199.402,123.174 C199.946,123.71 200.898,123.971 202.265,123.971 C202.566,123.971 202.87,123.959 203.174,123.942 C203.477,123.919 203.78,123.909 204.084,123.909 L204.084,122.183 C203.499,122.251 202.914,122.283 202.328,122.283 C201.592,122.242 201.131,122.03 200.948,121.649 C200.763,121.271 200.671,120.747 200.671,120.074 L200.671,108.764 L204.084,108.764 L204.084,107.038 L200.671,107.038 L200.671,102.002" id="Fill-3" fill="#1A1919"></path>
            <path d="M191.668,117.31 C191.668,118.134 191.51,118.871 191.196,119.517 C190.882,120.169 190.459,120.725 189.929,121.174 C189.398,121.633 188.774,121.979 188.06,122.22 C187.345,122.455 186.597,122.577 185.818,122.577 C185.341,122.577 184.875,122.498 184.421,122.347 C183.964,122.198 183.563,121.973 183.216,121.678 C182.87,121.392 182.595,121.046 182.388,120.639 C182.183,120.243 182.08,119.78 182.08,119.261 C182.08,118.438 182.323,117.803 182.811,117.357 C183.298,116.917 183.922,116.576 184.68,116.333 C185.438,116.098 186.277,115.92 187.198,115.798 C188.12,115.678 189.014,115.541 189.88,115.393 C190.161,115.348 190.487,115.276 190.855,115.165 C191.223,115.057 191.473,114.882 191.603,114.645 L191.668,114.645 L191.668,117.31 Z M193.715,120.851 L193.715,111.95 C193.715,110.821 193.531,109.902 193.162,109.198 C192.794,108.497 192.318,107.952 191.733,107.557 C191.148,107.169 190.487,106.902 189.75,106.767 C189.014,106.625 188.276,106.55 187.54,106.55 C186.564,106.55 185.677,106.66 184.875,106.875 C184.073,107.096 183.374,107.433 182.779,107.882 C182.183,108.338 181.71,108.927 181.364,109.64 C181.018,110.352 180.811,111.198 180.746,112.172 L182.794,112.172 C182.838,110.81 183.271,109.819 184.096,109.198 C184.918,108.587 185.98,108.276 187.279,108.276 C187.885,108.276 188.455,108.323 188.987,108.424 C189.517,108.516 189.984,108.696 190.384,108.959 C190.784,109.213 191.099,109.565 191.327,110.013 C191.554,110.459 191.668,111.025 191.668,111.718 C191.668,112.172 191.607,112.54 191.489,112.825 C191.369,113.109 191.201,113.328 190.986,113.491 C190.768,113.654 190.498,113.769 190.173,113.832 C189.848,113.9 189.468,113.955 189.035,113.994 C187.93,114.125 186.842,114.262 185.768,114.405 C184.695,114.541 183.731,114.788 182.876,115.133 C182.02,115.479 181.332,115.982 180.811,116.643 C180.292,117.304 180.032,118.222 180.032,119.394 C180.032,120.237 180.178,120.965 180.471,121.586 C180.763,122.205 181.164,122.714 181.673,123.112 C182.183,123.511 182.779,123.804 183.461,123.987 C184.143,124.17 184.875,124.266 185.655,124.266 C186.478,124.266 187.188,124.19 187.783,124.042 C188.379,123.888 188.911,123.668 189.376,123.389 C189.842,123.107 190.265,122.755 190.644,122.33 C191.022,121.91 191.397,121.429 191.765,120.887 L191.83,120.887 C191.83,121.317 191.856,121.716 191.912,122.074 C191.966,122.43 192.078,122.74 192.253,122.996 C192.426,123.259 192.67,123.458 192.984,123.599 C193.299,123.743 193.715,123.809 194.236,123.809 C194.518,123.809 194.749,123.797 194.934,123.778 C195.118,123.756 195.33,123.725 195.568,123.677 L195.568,121.958 C195.374,122.046 195.155,122.087 194.917,122.087 C194.117,122.087 193.715,121.674 193.715,120.851 Z" id="Fill-4" fill="#1A1919"></path>
            <polygon id="Fill-5" fill="#1A1919" points="175.351 123.809 177.399 123.809 177.399 100.601 175.351 100.601"></polygon>
            <polygon id="Fill-6" fill="#1A1919" points="209.048 56.225 211.874 56.225 211.874 51.697 209.048 51.697"></polygon>
            <path d="M202.409,62.303 C201.751,61.54 200.877,60.95 199.786,60.531 C198.694,60.114 197.341,59.906 195.728,59.906 C194.082,59.906 192.572,60.331 191.196,61.182 C189.821,62.034 188.863,63.165 188.326,64.57 L188.236,64.57 L188.236,60.579 L185.41,60.579 L185.41,83.723 L188.236,83.723 L188.236,70.221 C188.266,69.084 188.452,68.029 188.797,67.059 C189.14,66.086 189.618,65.249 190.232,64.545 C190.844,63.844 191.592,63.29 192.475,62.885 C193.356,62.484 194.365,62.28 195.502,62.28 C196.639,62.28 197.588,62.459 198.351,62.821 C199.114,63.178 199.719,63.672 200.166,64.302 C200.616,64.927 200.929,65.668 201.109,66.519 C201.289,67.372 201.378,68.293 201.378,69.28 L201.378,83.723 L204.205,83.723 L204.205,68.829 C204.205,67.457 204.069,66.215 203.8,65.107 C203.531,64.002 203.066,63.067 202.409,62.303" id="Fill-7" fill="#1A1919"></path>
            <g id="Group-11">
                <mask id="mask-2" fill="white">
                    <use xlink:href="#path-1"></use>
                </mask>
                <g id="Clip-9"></g>
                <polygon id="Fill-8" fill="#1A1919" mask="url(#mask-2)" points="209.048 83.724 211.874 83.724 211.874 60.579 209.048 60.579"></polygon>
                <path d="M118.098,101.169 C118.096,101.17 118.093,101.17 118.091,101.171 L118.091,101.156 L116.303,102.211 L70.586,128.912 C70.566,128.9 70.552,128.883 70.532,128.872 L69.757,128.419 L67.776,127.229 L67.742,127.248 L23.031,101.234 C23.031,101.224 23.034,101.214 23.034,101.205 L23.043,101.208 L23.044,97.884 L23.04,97.881 L23.04,45.878 C23.079,45.854 23.124,45.844 23.163,45.821 L70.539,18.21 C70.552,18.217 70.561,18.23 70.573,18.238 L70.567,18.242 L71.209,18.606 L118.094,45.901 L118.093,49.151 L118.098,49.154 L118.098,101.169 Z M138.542,47.249 L82.953,14.352 L80.129,12.653 L80.108,12.668 L80.081,12.649 L86.599,8.852 C88.62,7.668 89.175,4.993 87.85,2.87 C86.525,0.758 83.819,-0.019 81.792,1.145 L23.04,34.809 L23.04,27.374 C23.04,24.877 21.029,22.848 18.555,22.848 C16.077,22.848 14.067,24.877 14.067,27.374 L14.067,95.811 L14.062,96.019 L7.127,91.986 C4.848,90.642 1.932,91.447 0.63,93.782 C-0.681,96.117 0.121,99.087 2.418,100.405 L61.511,134.211 L54.945,138.046 C52.677,139.37 51.914,142.306 53.259,144.605 C54.602,146.904 57.542,147.688 59.813,146.338 L118.098,111.722 L118.098,119.972 C118.098,122.466 120.105,124.494 122.583,124.494 C125.059,124.494 127.067,122.466 127.067,119.972 L127.067,51.316 L127.071,51.136 L127.067,51.134 L127.067,51.126 L134.217,55.288 C136.254,56.465 138.857,55.623 140.042,53.409 C141.225,51.199 140.559,48.446 138.542,47.249 Z" id="Fill-10" fill="#1A1919" mask="url(#mask-2)"></path>
            </g>
            <path d="M169.176,110.81 C168.223,111.592 166.977,111.981 165.438,111.981 L157.833,111.981 L157.833,102.491 L165.438,102.491 C166.977,102.491 168.223,102.877 169.176,103.66 C170.129,104.442 170.606,105.632 170.606,107.233 C170.606,108.838 170.129,110.027 169.176,110.81 Z M170.931,102.342 C170.325,101.767 169.599,101.336 168.753,101.042 C167.909,100.749 166.966,100.601 165.926,100.601 L155.623,100.601 L155.623,123.809 L157.833,123.809 L157.833,113.863 L165.926,113.863 C166.966,113.863 167.909,113.714 168.753,113.428 C169.599,113.133 170.325,112.699 170.931,112.127 C171.539,111.549 172.004,110.853 172.328,110.027 C172.654,109.204 172.817,108.276 172.817,107.233 C172.817,106.194 172.654,105.261 172.328,104.442 C172.004,103.619 171.539,102.914 170.931,102.342 Z" id="Fill-12" fill="#1A1919"></path>
            <path d="M218.288,83.723 L221.113,83.723 L221.113,62.953 L225.688,62.953 L225.688,60.579 L221.113,60.579 L221.113,58.557 C221.113,57.932 221.128,57.348 221.158,56.808 C221.188,56.272 221.3,55.8 221.493,55.396 C221.688,54.991 221.994,54.673 222.414,54.434 C222.832,54.193 223.43,54.072 224.208,54.072 C224.537,54.072 224.865,54.097 225.194,54.14 C225.524,54.186 225.882,54.237 226.271,54.297 L226.271,51.876 C225.823,51.815 225.419,51.772 225.059,51.74 C224.701,51.712 224.312,51.697 223.894,51.697 C222.758,51.697 221.822,51.861 221.09,52.19 C220.357,52.52 219.782,52.98 219.363,53.578 C218.945,54.179 218.66,54.895 218.512,55.731 C218.361,56.569 218.288,57.48 218.288,58.468 L218.288,60.579 L214.34,60.579 L214.34,62.953 L218.288,62.953 L218.288,83.723" id="Fill-13" fill="#1A1919"></path>
            <polyline id="Fill-14" fill="#1A1919" points="59.175 86.429 88.167 71.811 59.175 57.191 59.175 86.429"></polyline>
            <path d="M227.273,118.042 C227.025,118.9 226.657,119.66 226.167,120.332 C225.683,121.002 225.068,121.548 224.333,121.958 C223.595,122.372 222.739,122.577 221.764,122.577 C220.79,122.577 219.934,122.372 219.198,121.958 C218.461,121.548 217.849,121.002 217.361,120.332 C216.874,119.66 216.504,118.9 216.255,118.042 C216.006,117.183 215.882,116.314 215.882,115.427 C215.882,114.535 216.006,113.664 216.255,112.808 C216.504,111.954 216.874,111.187 217.361,110.516 C217.849,109.846 218.461,109.305 219.198,108.889 C219.934,108.481 220.79,108.276 221.764,108.276 C222.739,108.276 223.595,108.481 224.333,108.889 C225.068,109.305 225.683,109.846 226.167,110.516 C226.657,111.187 227.025,111.954 227.273,112.808 C227.524,113.664 227.647,114.535 227.647,115.427 C227.647,116.314 227.524,117.183 227.273,118.042 Z M227.647,109.184 C226.974,108.381 226.148,107.74 225.161,107.27 C224.175,106.792 223.042,106.55 221.764,106.55 C220.485,106.55 219.353,106.792 218.368,107.27 C217.382,107.74 216.554,108.381 215.882,109.184 C215.21,109.987 214.7,110.926 214.354,111.995 C214.007,113.069 213.834,114.208 213.834,115.427 C213.834,116.638 214.007,117.782 214.354,118.852 C214.7,119.929 215.21,120.863 215.882,121.663 C216.554,122.466 217.382,123.103 218.368,123.568 C219.353,124.036 220.485,124.266 221.764,124.266 C223.042,124.266 224.175,124.036 225.161,123.568 C226.148,123.103 226.974,122.466 227.647,121.663 C228.319,120.863 228.829,119.929 229.176,118.852 C229.522,117.782 229.696,116.638 229.696,115.427 C229.696,114.208 229.522,113.069 229.176,111.995 C228.829,110.926 228.319,109.987 227.647,109.184 Z" id="Fill-15" fill="#1A1919"></path>
            <path d="M338.63,66.003 L338.537,66.003 L338.537,60.579 L335.937,60.579 L335.937,83.723 L338.763,83.723 L338.763,71.388 C338.763,70.16 338.974,69.032 339.39,68 C339.81,66.97 340.4,66.079 341.162,65.331 C341.927,64.585 342.83,64.008 343.875,63.604 C344.925,63.199 346.087,63.028 347.373,63.089 L347.373,60.263 C345.283,60.174 343.48,60.635 341.97,61.654 C340.46,62.67 339.345,64.119 338.63,66.003" id="Fill-16" fill="#1A1919"></path>
            <path d="M418.513,59.906 C416.99,59.906 415.552,60.278 414.205,61.025 C412.861,61.773 411.843,62.91 411.158,64.433 C410.738,62.91 409.908,61.773 408.667,61.025 C407.425,60.278 406.044,59.906 404.517,59.906 C402.634,59.906 401.085,60.306 399.876,61.115 C398.664,61.922 397.683,63.043 396.937,64.48 L396.802,64.48 L396.802,60.579 L394.203,60.579 L394.203,83.723 L397.029,83.723 L397.029,70.804 C397.029,69.577 397.162,68.451 397.431,67.417 C397.701,66.387 398.111,65.489 398.664,64.726 C399.22,63.963 399.935,63.364 400.818,62.931 C401.699,62.5 402.74,62.28 403.935,62.28 C404.832,62.28 405.593,62.432 406.224,62.731 C406.849,63.028 407.351,63.439 407.726,63.963 C408.099,64.488 408.369,65.099 408.533,65.803 C408.697,66.504 408.779,67.245 408.779,68.021 L408.779,83.723 L411.605,83.723 L411.605,70.625 C411.605,69.549 411.701,68.509 411.896,67.505 C412.089,66.504 412.427,65.614 412.906,64.838 C413.384,64.062 414.027,63.439 414.835,62.978 C415.642,62.513 416.658,62.28 417.884,62.28 C419.916,62.28 421.337,62.782 422.146,63.783 C422.953,64.785 423.357,66.244 423.357,68.157 L423.357,83.723 L426.183,83.723 L426.183,68.021 C426.183,62.61 423.626,59.906 418.513,59.906" id="Fill-17" fill="#1A1919"></path>
            <path d="M386.263,74.752 C386.263,75.89 386.046,76.906 385.615,77.799 C385.179,78.697 384.595,79.46 383.863,80.089 C383.132,80.718 382.271,81.199 381.285,81.524 C380.3,81.849 379.265,82.017 378.189,82.017 C377.531,82.017 376.888,81.915 376.259,81.705 C375.632,81.491 375.078,81.185 374.599,80.782 C374.125,80.381 373.74,79.904 373.457,79.346 C373.173,78.795 373.031,78.157 373.031,77.443 C373.031,76.304 373.367,75.432 374.039,74.817 C374.714,74.206 375.57,73.734 376.621,73.404 C377.666,73.074 378.826,72.829 380.097,72.664 C381.363,72.501 382.599,72.314 383.796,72.106 C384.185,72.044 384.634,71.942 385.142,71.792 C385.648,71.642 385.992,71.401 386.173,71.072 L386.263,71.072 L386.263,74.752 Z M389.089,79.638 L389.089,67.35 C389.089,65.797 388.833,64.531 388.326,63.561 C387.818,62.588 387.162,61.834 386.353,61.294 C385.544,60.757 384.634,60.389 383.619,60.195 C382.599,60.002 381.582,59.906 380.566,59.906 C379.22,59.906 377.994,60.053 376.888,60.353 C375.781,60.654 374.818,61.115 373.996,61.744 C373.173,62.37 372.523,63.178 372.044,64.166 C371.566,65.151 371.281,66.319 371.193,67.664 L374.019,67.664 C374.078,65.779 374.675,64.412 375.812,63.561 C376.949,62.707 378.414,62.28 380.207,62.28 C381.044,62.28 381.83,62.348 382.562,62.484 C383.296,62.617 383.939,62.864 384.49,63.225 C385.042,63.582 385.478,64.07 385.792,64.681 C386.107,65.296 386.263,66.079 386.263,67.034 C386.263,67.664 386.179,68.172 386.015,68.562 C385.851,68.952 385.621,69.254 385.32,69.481 C385.021,69.705 384.648,69.862 384.199,69.953 C383.751,70.042 383.224,70.117 382.63,70.175 C381.105,70.354 379.603,70.543 378.123,70.736 C376.644,70.929 375.312,71.265 374.132,71.745 C372.947,72.223 372.001,72.918 371.281,73.83 C370.564,74.747 370.205,76.004 370.205,77.622 C370.205,78.788 370.406,79.796 370.812,80.648 C371.214,81.499 371.767,82.207 372.472,82.757 C373.173,83.309 373.996,83.716 374.937,83.967 C375.88,84.223 376.888,84.353 377.964,84.353 C379.101,84.353 380.078,84.245 380.902,84.038 C381.724,83.824 382.458,83.53 383.101,83.136 C383.744,82.751 384.326,82.263 384.849,81.676 C385.373,81.098 385.888,80.433 386.396,79.682 L386.488,79.682 C386.488,80.283 386.523,80.826 386.599,81.32 C386.673,81.813 386.83,82.242 387.07,82.6 C387.308,82.958 387.646,83.238 388.08,83.431 C388.511,83.624 389.089,83.723 389.804,83.723 C390.195,83.723 390.517,83.709 390.773,83.673 C391.023,83.645 391.316,83.602 391.646,83.544 L391.646,81.163 C391.376,81.284 391.078,81.34 390.75,81.34 C389.64,81.34 389.089,80.776 389.089,79.638 Z" id="Fill-18" fill="#1A1919"></path>
            <path d="M350.38,70.536 C350.498,69.489 350.746,68.466 351.119,67.463 C351.494,66.462 351.994,65.579 352.623,64.816 C353.251,64.054 354.013,63.439 354.91,62.978 C355.804,62.513 356.839,62.28 358.003,62.28 C359.14,62.28 360.156,62.513 361.056,62.978 C361.951,63.439 362.716,64.054 363.341,64.816 C363.968,65.579 364.455,66.452 364.8,67.439 C365.142,68.425 365.33,69.459 365.361,70.536 L350.38,70.536 Z M365.966,63.963 C365.142,62.752 364.074,61.773 362.759,61.025 C361.443,60.278 359.859,59.906 358.003,59.906 C356.177,59.906 354.603,60.257 353.273,60.957 C351.941,61.662 350.857,62.588 350.019,63.74 C349.183,64.892 348.564,66.198 348.16,67.664 C347.757,69.13 347.554,70.625 347.554,72.149 C347.554,73.794 347.757,75.353 348.16,76.834 C348.564,78.315 349.183,79.617 350.019,80.74 C350.857,81.863 351.941,82.744 353.273,83.386 C354.603,84.03 356.177,84.353 358.003,84.353 C360.935,84.353 363.203,83.631 364.8,82.2 C366.398,80.761 367.5,78.73 368.097,76.097 L365.271,76.097 C364.822,77.893 364.013,79.325 362.851,80.404 C361.683,81.477 360.068,82.017 358.003,82.017 C356.658,82.017 355.507,81.735 354.55,81.163 C353.593,80.596 352.8,79.882 352.173,79.009 C351.546,78.143 351.091,77.164 350.804,76.076 C350.521,74.981 350.38,73.93 350.38,72.91 L368.187,72.91 C368.246,71.298 368.097,69.705 367.738,68.136 C367.378,66.564 366.789,65.175 365.966,63.963 Z" id="Fill-19" fill="#1A1919"></path>
            <path d="M211.819,100.601 C210.995,100.601 210.319,100.723 209.787,100.964 C209.257,101.199 208.839,101.535 208.536,101.971 C208.233,102.401 208.027,102.918 207.919,103.529 C207.809,104.138 207.757,104.798 207.757,105.512 L207.757,107.038 L204.895,107.038 L204.895,108.764 L207.757,108.764 L207.757,123.809 L209.803,123.809 L209.803,108.764 L213.119,108.764 L213.119,107.038 L209.803,107.038 L209.803,105.574 C209.803,105.124 209.814,104.699 209.836,104.311 C209.857,103.917 209.938,103.576 210.081,103.287 C210.221,102.994 210.442,102.756 210.747,102.583 C211.049,102.412 211.483,102.327 212.047,102.327 C212.284,102.327 212.523,102.342 212.762,102.374 C213,102.406 213.26,102.45 213.542,102.491 L213.542,100.732 C213.217,100.691 212.924,100.66 212.664,100.638 C212.405,100.613 212.122,100.601 211.819,100.601" id="Fill-20" fill="#1A1919"></path>
            <path d="M478.593,75.29 C478.281,76.398 477.808,77.377 477.181,78.229 C476.552,79.08 475.775,79.767 474.849,80.29 C473.921,80.812 472.845,81.077 471.619,81.077 C470.302,81.077 469.166,80.812 468.208,80.29 C467.253,79.767 466.462,79.08 465.832,78.229 C465.205,77.377 464.74,76.398 464.443,75.29 C464.142,74.185 463.996,73.047 463.996,71.88 C463.996,70.681 464.136,69.51 464.417,68.357 C464.705,67.21 465.16,66.183 465.789,65.285 C466.416,64.39 467.207,63.665 468.166,63.111 C469.123,62.56 470.273,62.28 471.619,62.28 C472.962,62.28 474.109,62.566 475.048,63.131 C475.992,63.701 476.761,64.449 477.359,65.376 C477.957,66.305 478.392,67.334 478.66,68.472 C478.929,69.606 479.066,70.744 479.066,71.88 C479.066,73.047 478.906,74.185 478.593,75.29 Z M479.066,60.579 L479.066,64.57 L478.974,64.57 C478.707,63.94 478.324,63.344 477.83,62.774 C477.339,62.206 476.777,61.705 476.148,61.272 C475.523,60.839 474.826,60.503 474.064,60.263 C473.3,60.023 472.486,59.906 471.619,59.906 C469.943,59.906 468.457,60.21 467.156,60.825 C465.855,61.436 464.763,62.273 463.88,63.335 C463,64.398 462.326,65.639 461.863,67.059 C461.396,68.48 461.167,69.981 461.167,71.565 C461.167,73.211 461.363,74.76 461.75,76.205 C462.138,77.658 462.757,78.924 463.613,79.997 C464.466,81.077 465.546,81.922 466.863,82.537 C468.181,83.144 469.765,83.451 471.619,83.451 C473.322,83.451 474.81,83.021 476.082,82.15 C477.351,81.284 478.316,80.132 478.974,78.697 L479.066,78.697 L479.066,81.835 C479.066,84.645 478.482,86.798 477.316,88.294 C476.148,89.791 474.25,90.542 471.619,90.542 C470.841,90.542 470.078,90.454 469.332,90.291 C468.583,90.127 467.904,89.868 467.292,89.51 C466.675,89.145 466.154,88.679 465.72,88.094 C465.287,87.514 464.994,86.786 464.847,85.919 L462.019,85.919 C462.111,87.142 462.449,88.201 463.029,89.081 C463.613,89.961 464.345,90.69 465.228,91.256 C466.109,91.828 467.103,92.243 468.208,92.514 C469.316,92.78 470.453,92.916 471.619,92.916 C473.501,92.916 475.095,92.665 476.396,92.158 C477.695,91.646 478.751,90.913 479.558,89.954 C480.365,89.002 480.955,87.833 481.328,86.457 C481.705,85.083 481.89,83.544 481.89,81.835 L481.89,60.579 L479.066,60.579 Z" id="Fill-21" fill="#1A1919"></path>
            <path d="M455.742,62.303 C455.083,61.54 454.208,60.95 453.117,60.531 C452.027,60.114 450.673,59.906 449.058,59.906 C447.414,59.906 445.902,60.331 444.527,61.182 C443.152,62.034 442.197,63.165 441.658,64.57 L441.568,64.57 L441.568,60.579 L438.742,60.579 L438.742,83.723 L441.568,83.723 L441.568,70.221 C441.595,69.084 441.785,68.029 442.128,67.059 C442.468,66.086 442.949,65.249 443.564,64.545 C444.177,63.844 444.925,63.29 445.806,62.885 C446.687,62.484 447.699,62.28 448.833,62.28 C449.968,62.28 450.919,62.459 451.683,62.821 C452.443,63.178 453.048,63.672 453.5,64.302 C453.945,64.927 454.261,65.668 454.439,66.519 C454.621,67.372 454.708,68.293 454.708,69.28 L454.708,83.723 L457.535,83.723 L457.535,68.829 C457.535,67.457 457.4,66.215 457.132,65.107 C456.863,64.002 456.398,63.067 455.742,62.303" id="Fill-22" fill="#1A1919"></path>
            <polygon id="Fill-23" fill="#1A1919" points="431.072 56.225 433.898 56.225 433.898 51.697 431.072 51.697"></polygon>
            <polygon id="Fill-24" fill="#1A1919" points="431.072 83.724 433.898 83.724 433.898 60.579 431.072 60.579"></polygon>
            <polygon id="Fill-25" fill="#1A1919" points="227.885 56.225 230.712 56.225 230.712 51.697 227.885 51.697"></polygon>
            <polygon id="Fill-26" fill="#1A1919" points="227.885 83.724 230.712 83.724 230.712 60.579 227.885 60.579"></polygon>
            <path d="M234.311,110.972 L234.246,110.972 L234.246,107.038 L232.361,107.038 L232.361,123.809 L234.409,123.809 L234.409,114.87 C234.409,113.984 234.561,113.166 234.863,112.42 C235.165,111.67 235.595,111.025 236.146,110.485 C236.701,109.945 237.355,109.525 238.113,109.231 C238.873,108.944 239.716,108.817 240.65,108.858 L240.65,106.812 C239.13,106.744 237.826,107.08 236.732,107.82 C235.638,108.554 234.831,109.609 234.311,110.972" id="Fill-27" fill="#1A1919"></path>
            <path d="M259.826,106.55 C258.718,106.55 257.677,106.824 256.705,107.363 C255.728,107.904 254.994,108.726 254.494,109.833 C254.191,108.726 253.589,107.904 252.691,107.363 C251.794,106.824 250.791,106.55 249.683,106.55 C248.32,106.55 247.197,106.844 246.322,107.433 C245.441,108.013 244.732,108.827 244.191,109.865 L244.091,109.865 L244.091,107.038 L242.208,107.038 L242.208,123.809 L244.255,123.809 L244.255,114.451 C244.255,113.56 244.353,112.746 244.548,111.995 C244.742,111.251 245.041,110.601 245.441,110.043 C245.843,109.494 246.363,109.057 247.003,108.748 C247.642,108.434 248.394,108.276 249.259,108.276 C249.91,108.276 250.466,108.381 250.917,108.602 C251.373,108.817 251.736,109.117 252.007,109.494 C252.281,109.871 252.474,110.318 252.593,110.827 C252.71,111.335 252.773,111.87 252.773,112.437 L252.773,123.809 L254.82,123.809 L254.82,114.32 C254.82,113.538 254.888,112.789 255.029,112.058 C255.169,111.335 255.414,110.689 255.763,110.128 C256.111,109.561 256.572,109.117 257.16,108.78 C257.746,108.444 258.482,108.276 259.367,108.276 C260.841,108.276 261.873,108.639 262.458,109.362 C263.041,110.093 263.333,111.146 263.333,112.53 L263.333,123.809 L265.382,123.809 L265.382,112.437 C265.382,108.512 263.529,106.55 259.826,106.55" id="Fill-28" fill="#1A1919"></path>
            <path d="M316.986,69.523 C316.224,68.883 315.341,68.343 314.339,67.91 C313.337,67.478 312.271,67.109 311.132,66.813 L303.328,64.884 C302.669,64.734 302.05,64.538 301.466,64.302 C300.884,64.062 300.369,63.747 299.919,63.357 C299.472,62.971 299.123,62.5 298.867,61.945 C298.615,61.39 298.486,60.743 298.486,59.995 C298.486,58.797 298.708,57.796 299.158,56.987 C299.607,56.182 300.195,55.531 300.931,55.038 C301.662,54.544 302.513,54.186 303.486,53.961 C304.457,53.736 305.466,53.624 306.513,53.624 C307.648,53.624 308.736,53.782 309.767,54.097 C310.796,54.408 311.71,54.874 312.501,55.484 C313.292,56.1 313.935,56.862 314.429,57.774 C314.925,58.686 315.201,59.755 315.261,60.982 L318.31,60.982 C318.31,59.337 317.988,57.891 317.347,56.651 C316.705,55.411 315.845,54.372 314.767,53.536 C313.691,52.698 312.435,52.069 310.998,51.65 C309.562,51.232 308.054,51.025 306.466,51.025 C304.226,51.025 302.386,51.344 300.953,51.987 C299.515,52.63 298.386,53.414 297.562,54.343 C296.742,55.27 296.181,56.258 295.882,57.301 C295.583,58.35 295.435,59.262 295.435,60.038 C295.435,61.294 295.638,62.356 296.041,63.225 C296.445,64.091 296.974,64.824 297.634,65.42 C298.291,66.018 299.058,66.497 299.945,66.855 C300.822,67.216 301.728,67.513 302.656,67.752 L309.789,69.502 C310.535,69.681 311.296,69.914 312.076,70.199 C312.851,70.482 313.564,70.847 314.207,71.298 C314.849,71.745 315.373,72.299 315.775,72.957 C316.179,73.615 316.384,74.392 316.384,75.29 C316.384,76.455 316.097,77.45 315.531,78.272 C314.96,79.095 314.251,79.767 313.398,80.29 C312.546,80.812 311.626,81.199 310.64,81.434 C309.652,81.67 308.742,81.792 307.904,81.792 C306.439,81.792 305.064,81.649 303.779,81.37 C302.492,81.083 301.378,80.613 300.437,79.953 C299.494,79.295 298.755,78.415 298.214,77.306 C297.677,76.198 297.425,74.826 297.455,73.179 L294.402,73.179 C294.314,75.153 294.572,76.841 295.187,78.251 C295.802,79.654 296.675,80.804 297.812,81.705 C298.951,82.6 300.322,83.265 301.941,83.702 C303.552,84.13 305.302,84.353 307.187,84.353 C309.072,84.353 310.683,84.173 312.031,83.831 C313.378,83.488 314.503,83.044 315.417,82.487 C316.328,81.935 317.048,81.313 317.572,80.627 C318.093,79.939 318.496,79.259 318.781,78.587 C319.064,77.915 319.244,77.279 319.318,76.677 C319.394,76.084 319.431,75.604 319.431,75.247 C319.431,73.93 319.216,72.807 318.781,71.88 C318.349,70.954 317.75,70.168 316.986,69.523" id="Fill-29" fill="#1A1919"></path>
            <path d="M327.685,53.624 L324.859,53.624 L324.859,60.579 L320.82,60.579 L320.82,62.953 L324.859,62.953 L324.859,78.788 C324.828,80.761 325.187,82.115 325.933,82.845 C326.685,83.581 328.001,83.945 329.882,83.945 C330.3,83.945 330.716,83.93 331.138,83.903 C331.556,83.874 331.976,83.859 332.394,83.859 L332.394,81.477 C331.587,81.571 330.779,81.613 329.972,81.613 C328.955,81.555 328.32,81.262 328.066,80.74 C327.812,80.218 327.685,79.489 327.685,78.566 L327.685,62.953 L332.394,62.953 L332.394,60.579 L327.685,60.579 L327.685,53.624" id="Fill-30" fill="#1A1919"></path>
            <path d="M275.453,75.718 C275.166,76.899 274.707,77.951 274.062,78.879 C273.419,79.803 272.582,80.561 271.552,81.141 C270.517,81.727 269.257,82.017 267.761,82.017 C266.416,82.017 265.263,81.727 264.306,81.141 C263.347,80.561 262.566,79.803 261.953,78.879 C261.337,77.951 260.89,76.899 260.607,75.718 C260.322,74.535 260.179,73.344 260.179,72.149 C260.179,70.954 260.322,69.764 260.607,68.583 C260.89,67.402 261.337,66.348 261.953,65.42 C262.566,64.495 263.347,63.74 264.306,63.157 C265.263,62.574 266.416,62.28 267.761,62.28 C269.257,62.28 270.517,62.574 271.552,63.157 C272.582,63.74 273.419,64.495 274.062,65.42 C274.707,66.348 275.166,67.402 275.453,68.583 C275.736,69.764 275.88,70.954 275.88,72.149 C275.88,73.344 275.736,74.535 275.453,75.718 Z M275.88,64.974 L275.791,64.974 C275.49,64.138 275.064,63.403 274.513,62.774 C273.957,62.148 273.32,61.616 272.603,61.182 C271.888,60.75 271.117,60.427 270.294,60.217 C269.47,60.01 268.628,59.906 267.761,59.906 C265.996,59.906 264.462,60.235 263.164,60.889 C261.859,61.547 260.779,62.438 259.912,63.561 C259.042,64.681 258.4,65.983 257.982,67.463 C257.562,68.94 257.353,70.504 257.353,72.149 C257.353,73.794 257.562,75.353 257.982,76.834 C258.4,78.315 259.042,79.617 259.912,80.74 C260.779,81.863 261.859,82.744 263.164,83.386 C264.462,84.03 265.996,84.353 267.761,84.353 C268.599,84.353 269.443,84.231 270.294,83.988 C271.146,83.751 271.945,83.417 272.697,82.978 C273.441,82.55 274.107,82.017 274.691,81.391 C275.271,80.761 275.714,80.076 276.013,79.325 L276.101,79.325 L276.101,83.723 L278.705,83.723 L278.705,51.697 L275.88,51.697 L275.88,64.974 Z" id="Fill-31" fill="#1A1919"></path>
        </g>
    </g>
</svg>