<?xml version="1.0" encoding="UTF-8"?>
<svg width="441px" height="125px" viewBox="0 0 441 125" version="1.1" xmlns="http://www.w3.org/2000/svg" xmlns:xlink="http://www.w3.org/1999/xlink">
    <!-- Generator: Sketch 49.3 (51167) - http://www.bohemiancoding.com/sketch -->
    <title>05. vimeo_logo_blue</title>
    <desc>Created with Sketch.</desc>
    <defs>
        <polygon id="path-1" points="0.06 0.237195228 98.6325594 0.237195228 98.6325594 85.586 0.06 85.586"></polygon>
        <polygon id="path-3" points="0.942336467 0.084 164.999501 0.084 164.999501 84.94 0.942336467 84.94"></polygon>
    </defs>
    <g id="Page-1" stroke="none" stroke-width="1" fill="none" fill-rule="evenodd">
        <g id="05.-vimeo_logo_blue">
            <g id="Group-3" transform="translate(0.000000, 39.000000)">
                <mask id="mask-2" fill="white">
                    <use xlink:href="#path-1"></use>
                </mask>
                <g id="Clip-2"></g>
                <path d="M98.585,19.983 C98.145,29.588 91.44,42.739 78.47,59.431 C65.059,76.867 53.713,85.586 44.432,85.586 C38.685,85.586 33.817,80.278 29.844,69.657 C27.19,59.923 24.536,50.188 21.883,40.455 C18.931,29.84 15.767,24.526 12.381,24.526 C11.644,24.526 9.061,26.08 4.641,29.174 L0,23.193 C4.867,18.915 9.669,14.636 14.395,10.352 C20.886,4.74 25.76,1.789 29.009,1.491 C36.685,0.754 41.41,6.003 43.183,17.238 C45.099,29.361 46.425,36.901 47.17,39.852 C49.383,49.91 51.817,54.933 54.477,54.933 C56.542,54.933 59.642,51.671 63.778,45.147 C67.907,38.623 70.121,33.659 70.418,30.248 C71.007,24.617 68.794,21.795 63.778,21.795 C61.415,21.795 58.981,22.339 56.477,23.413 C61.325,7.53 70.586,-0.185 84.256,0.255 C94.391,0.553 99.168,7.129 98.585,19.983" id="Fill-1" fill="#1AB7EA" mask="url(#mask-2)"></path>
            </g>
            <path d="M140.195,11.334 C140.047,15.01 138.202,18.537 134.655,21.916 C130.668,25.734 125.943,27.644 120.481,27.644 C112.067,27.644 108.002,23.974 108.3,16.628 C108.442,12.81 110.695,9.133 115.051,5.606 C119.407,2.085 124.241,0.318 129.562,0.318 C132.662,0.318 135.244,1.535 137.315,3.956 C139.38,6.382 140.338,8.842 140.195,11.334 Z M159.463,90.094 C155.328,97.913 149.645,104.994 142.409,111.337 C132.513,119.893 122.624,124.172 112.734,124.172 C108.151,124.172 104.644,122.696 102.21,119.744 C99.776,116.793 98.631,112.962 98.78,108.236 C98.922,103.37 100.437,95.842 103.316,85.661 C106.197,75.48 107.64,70.018 107.64,69.28 C107.64,65.448 106.307,63.526 103.653,63.526 C102.767,63.526 100.255,65.08 96.12,68.174 L91.026,62.193 C95.751,57.915 100.475,53.636 105.2,49.352 C111.549,43.74 116.274,40.789 119.381,40.491 C124.248,40.051 127.827,41.482 130.118,44.796 C132.403,48.109 133.251,52.407 132.668,57.701 C130.746,66.678 128.675,78.076 126.461,91.9 C126.313,98.23 128.604,101.388 133.329,101.388 C135.393,101.388 139.082,99.208 144.402,94.833 C148.83,91.195 152.447,87.771 155.256,84.561 L159.463,90.094 Z" id="Fill-4" fill="#1AB7EA"></path>
            <path d="M297.772,90.094 C293.637,97.913 287.954,104.994 280.718,111.337 C270.822,119.893 260.932,124.172 251.043,124.172 C241.438,124.172 236.791,118.864 237.088,108.236 C237.23,103.511 238.156,97.836 239.852,91.195 C241.548,84.554 242.474,79.389 242.622,75.701 C242.771,70.095 241.068,67.287 237.509,67.287 C233.658,67.287 229.069,71.869 223.736,81.02 C218.105,90.619 215.063,99.92 214.623,108.922 C214.326,115.278 214.947,120.152 216.487,123.544 C206.184,123.841 198.966,122.139 194.85,118.45 C191.161,115.201 189.471,109.816 189.769,102.282 C189.911,97.557 190.636,92.833 191.943,88.108 C193.245,83.383 193.969,79.176 194.118,75.48 C194.416,70.018 192.416,67.287 188.131,67.287 C184.429,67.287 180.436,71.5 176.151,79.914 C171.867,88.328 169.498,97.117 169.058,106.269 C168.76,114.541 169.291,120.295 170.644,123.544 C160.508,123.841 153.311,121.705 149.052,117.135 C145.518,113.311 143.907,107.499 144.204,99.693 C144.347,95.868 145.02,90.528 146.236,83.68 C147.453,76.833 148.133,71.5 148.275,67.669 C148.566,65.021 147.9,63.694 146.282,63.694 C145.395,63.694 142.884,65.189 138.748,68.174 L133.435,62.193 C134.172,61.611 138.819,57.326 147.389,49.352 C153.589,43.598 157.796,40.647 160.009,40.498 C163.848,40.2 166.948,41.786 169.31,45.255 C171.672,48.724 172.857,52.75 172.857,57.326 C172.857,58.801 172.708,60.206 172.417,61.533 C174.63,58.141 177.213,55.183 180.17,52.672 C186.96,46.77 194.565,43.443 202.979,42.705 C210.215,42.116 215.38,43.812 218.487,47.799 C220.992,51.048 222.17,55.701 222.027,61.753 C223.063,60.873 224.17,59.908 225.354,58.873 C228.746,54.886 232.066,51.715 235.315,49.352 C240.777,45.365 246.467,43.152 252.369,42.705 C259.456,42.116 264.55,43.805 267.65,47.779 C270.304,51.015 271.488,55.65 271.197,61.675 C271.048,65.798 270.052,71.792 268.207,79.662 C266.355,87.532 265.437,92.049 265.437,93.227 C265.288,96.321 265.586,98.451 266.323,99.629 C267.062,100.806 268.828,101.388 271.638,101.388 C273.702,101.388 277.391,99.208 282.711,94.833 C287.139,91.195 290.756,87.771 293.565,84.561 L297.772,90.094" id="Fill-5" fill="#1AB7EA"></path>
            <g id="Group-9" transform="translate(276.000000, 40.000000)">
                <mask id="mask-4" fill="white">
                    <use xlink:href="#path-3"></use>
                </mask>
                <g id="Clip-7"></g>
                <path d="M54.548,26.743 C54.69,22.782 53.072,20.795 49.681,20.795 C45.254,20.795 40.762,23.843 36.192,29.94 C31.623,36.037 29.261,41.875 29.118,47.454 C29.034,47.454 29.034,48.412 29.118,50.321 C36.341,47.68 42.606,43.642 47.914,38.205 C52.186,33.507 54.398,29.681 54.548,26.743 Z M104.824,49.868 C100.539,56.949 92.126,64.023 79.576,71.097 C63.926,80.093 48.05,84.586 31.96,84.586 C19.999,84.586 11.43,80.598 6.265,72.631 C2.575,67.169 0.802,60.676 0.951,53.143 C1.094,41.189 6.414,29.824 16.898,19.041 C28.413,7.236 41.998,1.326 57.648,1.326 C72.12,1.326 79.796,7.222 80.683,19.002 C81.271,26.509 77.136,34.244 68.282,42.199 C58.826,50.891 46.937,56.412 32.62,58.767 C35.273,62.45 39.26,64.289 44.58,64.289 C55.208,64.289 66.8,61.589 79.355,56.178 C88.358,52.38 95.446,48.431 100.617,44.34 L104.824,49.868 Z" id="Fill-6" fill="#1AB7EA" mask="url(#mask-4)"></path>
                <path d="M139.918,34.186 C140.067,30.193 139.511,26.529 138.255,23.202 C136.999,19.876 135.188,18.206 132.831,18.206 C125.298,18.206 119.097,22.277 114.23,30.413 C110.088,37.073 107.874,44.173 107.583,51.713 C107.435,55.415 108.101,58.671 109.576,61.479 C111.194,64.735 113.485,66.359 116.443,66.359 C123.084,66.359 128.773,62.444 133.498,54.599 C137.484,48.089 139.621,41.286 139.918,34.186 Z M164.946,35.021 C164.352,48.587 159.335,60.308 149.886,70.184 C140.437,80.061 128.695,85 114.67,85 C103.007,85 94.146,81.239 88.095,73.718 C83.668,68.12 81.228,61.117 80.788,52.716 C80.044,40.037 84.619,28.386 94.521,17.772 C105.149,5.98 118.508,0.084 134.604,0.084 C144.935,0.084 152.76,3.553 158.079,10.478 C163.102,16.821 165.387,25.002 164.946,35.021 Z" id="Fill-8" fill="#1AB7EA" mask="url(#mask-4)"></path>
            </g>
        </g>
    </g>
</svg>