<?xml version="1.0" encoding="UTF-8"?>
<svg width="460px" height="134px" viewBox="0 0 460 134" version="1.1" xmlns="http://www.w3.org/2000/svg" xmlns:xlink="http://www.w3.org/1999/xlink">
    <!-- Generator: Sketch 49 (51002) - http://www.bohemiancoding.com/sketch -->
    <title>04. Wowza Logo 2018 Demuxed</title>
    <desc>Created with Sketch.</desc>
    <defs>
        <polygon id="path-1" points="0.06 0.164375611 459.944 0.164375611 459.944 128.49374 0.06 128.49374"></polygon>
    </defs>
    <g id="Page-1" stroke="none" stroke-width="1" fill="none" fill-rule="evenodd">
        <g id="04.-Wowza-Logo-2018-Demuxed">
            <path d="M0.209,64.184 C0.209,28.861 28.844,0.226 64.166,0.226 C99.489,0.226 128.124,28.861 128.124,64.184 C128.124,99.507 99.489,128.142 64.166,128.142 C28.844,128.142 0.209,99.507 0.209,64.184" id="Fill-1" fill="#FFFFFE"></path>
            <path d="M147.349,125.303 L147.349,90.457 L151.832,90.457 L151.832,93.682 C154.267,90.863 157.207,89.669 159.938,89.669 C162.343,89.669 165.075,91.298 166.084,93.628 C168.578,90.863 171.814,89.669 173.922,89.669 C177.456,89.669 180.93,92.376 180.93,96.186 L180.93,125.303 L176.477,125.303 L176.477,97.09 C176.477,94.035 174.665,92.899 172.616,92.899 C170.835,92.899 168.549,93.976 166.767,95.722 L166.767,125.303 L162.313,125.303 L162.313,97.061 C162.313,94.005 160.502,92.899 158.335,92.899 C156.315,92.899 153.732,94.238 151.802,96.36 L151.802,125.303 L147.349,125.303" id="Fill-2" fill="#818582"></path>
            <path d="M191.932,104.883 L201.789,104.883 L201.789,104.825 C201.701,99.502 202.383,92.608 197.454,92.608 C191.961,92.608 191.932,96.829 191.932,104.796 L191.932,104.883 Z M187.419,109.248 L187.449,104.39 C187.537,91.966 191.605,89.669 197.246,89.669 C203.689,89.669 206.213,94.063 206.213,103.457 C206.213,104.883 206.213,105.642 206.154,107.039 L191.902,107.039 L191.902,112.361 C191.902,121.755 193.891,123.152 197.216,123.152 C199.503,123.152 201.878,121.523 201.938,114.861 L201.938,114.629 L206.094,114.629 L206.094,114.803 C205.56,120.793 203.927,126.091 197.277,126.091 C190.001,126.091 187.3,122.397 187.419,109.248 Z" id="Fill-3" fill="#818582"></path>
            <path d="M225.573,119.342 L225.573,96.36 C223.733,94.354 221.713,92.899 219.605,92.899 C217.437,92.899 215.329,93.508 215.329,106.686 L215.329,109.451 C215.329,122.513 217.497,122.862 219.753,122.862 C221.565,122.862 223.822,121.407 225.573,119.342 Z M225.573,125.303 L225.573,122.02 C223.495,125.187 220.614,126.091 218.387,126.091 C215.091,126.091 210.876,124.491 210.876,109.422 L210.876,106.661 C210.876,91.037 215.091,89.669 218.715,89.669 C221.149,89.669 223.673,91.008 225.573,93.744 L225.573,75.243 L230.026,75.243 L230.026,125.303 L225.573,125.303 Z" id="Fill-4" fill="#818582"></path>
            <path d="M239.499,125.303 L243.951,125.303 L243.951,90.457 L239.499,90.457 L239.499,125.303 Z M239.499,82.486 L243.951,82.486 L243.951,77.279 L239.499,77.279 L239.499,82.486 Z" id="Fill-5" fill="#818582"></path>
            <path d="M264.349,118.206 L264.349,105.932 C258.261,110.094 254.704,112.767 254.704,117.539 C254.704,121.175 256.615,122.455 258.261,122.455 C260.495,122.455 263.053,120.706 264.349,118.206 Z M265.23,125.303 L264.672,121.087 C262.672,124.549 259.525,126.091 257.233,126.091 C253.821,126.091 250.264,123.21 250.264,118.351 C250.264,113.841 250.472,109.625 264.349,103.983 L264.349,103.693 C264.318,93.483 262.172,92.608 260.027,92.608 C258.292,92.608 255.882,93.28 255.529,99.241 L255.529,99.444 L250.94,99.444 C251.413,93.367 254.733,89.669 259.878,89.669 C267.346,89.669 268.815,95.722 268.815,100.522 L268.815,117.274 C268.815,121.378 269.346,125.303 269.346,125.303 L265.23,125.303 Z" id="Fill-6" fill="#818582"></path>
            <path d="M286.068,116.577 L289.482,115.445 C290.492,118.468 292.867,122.949 296.459,122.949 C299.695,122.949 301.15,120.793 301.15,117.771 C301.15,114.977 298.032,111.748 295.064,109.19 L292.479,106.976 C289.302,104.245 286.541,101.625 286.541,97.989 C286.541,92.637 290.164,89.727 295.479,89.727 C300.793,89.727 303.467,94.063 304.595,98.57 L300.644,99.763 C300.171,96.886 298.567,92.869 295.271,92.869 C292.569,92.869 290.938,94.876 290.938,97.612 C290.938,100.145 292.896,102.209 295.389,104.302 L298.21,106.686 C301.655,109.625 305.249,112.71 305.337,117.684 C305.337,122.978 301.535,126.091 296.279,126.091 C290.728,126.091 287.343,121.639 286.068,116.577" id="Fill-7" fill="#818582"></path>
            <path d="M309.635,134 L309.635,130.427 C314.473,130.104 316.494,128.852 316.494,126.642 C316.494,125.656 316.405,123.964 316.164,122.513 L308.448,90.486 L313.254,90.486 L319.137,120.445 L324.895,90.457 L329.708,90.457 L320.799,127.72 C319.551,132.433 315.841,133.826 309.723,134 L309.635,134" id="Fill-8" fill="#818582"></path>
            <path d="M331.983,116.577 L335.399,115.445 C336.411,118.468 338.786,122.949 342.376,122.949 C345.613,122.949 347.069,120.793 347.069,117.771 C347.069,114.977 343.951,111.748 340.981,109.19 L338.396,106.976 C335.221,104.245 332.46,101.625 332.46,97.989 C332.46,92.637 336.081,89.727 341.398,89.727 C346.712,89.727 349.382,94.063 350.513,98.57 L346.563,99.763 C346.086,96.886 344.486,92.869 341.19,92.869 C338.488,92.869 336.854,94.876 336.854,97.612 C336.854,100.145 338.815,102.209 341.306,104.302 L344.127,106.686 C347.572,109.625 351.166,112.71 351.253,117.684 C351.253,122.978 347.454,126.091 342.198,126.091 C336.647,126.091 333.26,121.639 331.983,116.577" id="Fill-9" fill="#818582"></path>
            <path d="M358.871,117.071 L358.871,92.899 L354.029,92.899 L354.029,90.457 L358.871,90.457 L358.871,78.093 L363.323,78.093 L363.323,90.457 L369.025,90.457 L369.025,92.899 L363.323,92.899 L363.323,116.871 C363.323,120.391 363.441,122.572 366.351,122.572 C367.215,122.572 368.105,122.513 368.965,122.335 L368.965,125.332 C367.452,125.714 366.233,125.83 365.105,125.83 C359.374,125.83 358.871,121.523 358.871,117.071" id="Fill-10" fill="#818582"></path>
            <path d="M377.569,104.883 L387.225,104.883 L387.225,104.825 C387.138,99.502 387.806,92.608 382.978,92.608 C377.596,92.608 377.569,96.829 377.569,104.796 L377.569,104.883 Z M373.148,109.248 L373.177,104.39 C373.264,91.966 377.247,89.669 382.773,89.669 C389.087,89.669 391.559,94.063 391.559,103.457 C391.559,104.883 391.559,105.642 391.503,107.039 L377.537,107.039 L377.537,112.361 C377.537,121.755 379.49,123.152 382.744,123.152 C384.987,123.152 387.312,121.523 387.371,114.861 L387.371,114.629 L391.441,114.629 L391.441,114.803 C390.919,120.793 389.321,126.091 382.804,126.091 C375.678,126.091 373.029,122.397 373.148,109.248 Z" id="Fill-11" fill="#818582"></path>
            <path d="M399.071,125.303 L399.071,90.457 L403.463,90.457 L403.463,93.682 C405.849,90.863 408.728,89.669 411.406,89.669 C413.76,89.669 416.438,91.298 417.427,93.628 C419.871,90.863 423.042,89.669 425.106,89.669 C428.568,89.669 431.971,92.376 431.971,96.186 L431.971,125.303 L427.606,125.303 L427.606,97.09 C427.606,94.035 425.834,92.899 423.825,92.899 C422.08,92.899 419.842,93.976 418.096,95.722 L418.096,125.303 L413.733,125.303 L413.733,97.061 C413.733,94.005 411.957,92.899 409.835,92.899 C407.857,92.899 405.326,94.238 403.434,96.36 L403.434,125.303 L399.071,125.303" id="Fill-12" fill="#818582"></path>
            <path d="M438.084,116.577 L441.497,115.445 C442.509,118.468 444.884,122.949 448.474,122.949 C451.712,122.949 453.167,120.793 453.167,117.771 C453.167,114.977 450.049,111.748 447.081,109.19 L444.494,106.976 C441.319,104.245 438.558,101.625 438.558,97.989 C438.558,92.637 442.181,89.727 447.496,89.727 C452.81,89.727 455.482,94.063 456.612,98.57 L452.661,99.763 C452.186,96.886 450.584,92.869 447.288,92.869 C444.586,92.869 442.952,94.876 442.952,97.612 C442.952,100.145 444.913,102.209 447.405,104.302 L450.228,106.686 C453.672,109.625 457.267,112.71 457.354,117.684 C457.354,122.978 453.552,126.091 448.296,126.091 C442.745,126.091 439.358,121.639 438.084,116.577" id="Fill-13" fill="#818582"></path>
            <path d="M193.326,41.722 C194.17,44.932 194.246,47.593 194.323,47.593 L194.476,47.593 C194.476,47.593 194.706,44.853 195.398,41.722 L204.376,3.292 L214.582,3.292 L200.539,58.865 L189.105,58.865 L180.74,25.99 C179.82,22.39 179.36,18.711 179.36,18.711 L179.207,18.711 C179.207,18.711 178.746,22.39 177.825,25.99 L169.461,58.865 L158.028,58.865 L144.368,3.292 L154.574,3.292 L163.168,41.722 C163.859,44.853 164.089,47.593 164.089,47.593 L164.243,47.593 C164.319,47.593 164.396,44.932 165.241,41.722 L175.062,3.292 L183.657,3.292 L193.326,41.722" id="Fill-14" fill="#E77B2B"></path>
            <path d="M249.104,50.568 C259.078,50.568 267.06,42.114 267.06,30.687 C267.06,19.729 259.078,11.588 249.104,11.588 C239.128,11.588 231.148,19.729 231.148,30.687 C231.148,42.114 239.128,50.568 249.104,50.568 Z M249.104,2.352 C265.143,2.352 277.264,14.798 277.264,30.687 C277.264,47.045 265.143,59.803 249.104,59.803 C233.065,59.803 220.942,47.045 220.942,30.687 C220.942,14.798 233.065,2.352 249.104,2.352 Z" id="Fill-15" fill="#E77B2B"></path>
            <path d="M332.661,41.722 C333.507,44.932 333.581,47.593 333.658,47.593 L333.812,47.593 C333.812,47.593 334.044,44.853 334.732,41.722 L343.711,3.292 L353.917,3.292 L339.874,58.865 L328.439,58.865 L320.078,25.99 C319.155,22.39 318.695,18.711 318.695,18.711 L318.544,18.711 C318.544,18.711 318.08,22.39 317.159,25.99 L308.796,58.865 L297.361,58.865 L283.706,3.292 L293.91,3.292 L302.505,41.722 C303.193,44.853 303.426,47.593 303.426,47.593 L303.579,47.593 C303.654,47.593 303.732,44.932 304.578,41.722 L314.398,3.292 L322.992,3.292 L332.661,41.722" id="Fill-16" fill="#E77B2B"></path>
            <path d="M360.276,52.368 L384.448,16.989 C386.597,13.78 388.44,11.98 388.44,11.98 L388.44,11.823 C388.44,11.823 386.906,11.98 384.373,11.98 L361.507,11.98 L361.507,3.292 L400.872,3.292 L400.872,9.71 L376.698,45.167 C374.553,48.376 372.708,50.176 372.708,50.176 L372.708,50.333 C372.708,50.333 374.242,50.176 376.775,50.176 L401.179,50.176 L401.179,58.865 L360.276,58.865 L360.276,52.368" id="Fill-17" fill="#E77B2B"></path>
            <path d="M430.408,12.919 C430.408,12.919 429.179,18.398 428.108,21.529 L423.272,36.401 L437.543,36.401 L432.711,21.529 C431.714,18.398 430.562,12.919 430.562,12.919 L430.408,12.919 Z M439.999,44.619 L420.89,44.619 L416.289,58.865 L406.083,58.865 L425.268,3.292 L435.628,3.292 L454.81,58.865 L444.607,58.865 L439.999,44.619 Z" id="Fill-18" fill="#E77B2B"></path>
            <polyline id="Fill-19" fill="#E77B2B" points="447.187 4.377 444.515 4.377 444.515 3.104 451.339 3.104 451.339 4.377 448.665 4.377 448.665 11.244 447.187 11.244 447.187 4.377"></polyline>
            <g id="Group-24">
                <mask id="mask-2" fill="white">
                    <use xlink:href="#path-1"></use>
                </mask>
                <g id="Clip-21"></g>
                <path d="M452.103,3.104 L453.685,3.104 L455.277,7.128 C455.463,7.609 455.691,8.32 455.691,8.32 L455.712,8.32 C455.712,8.32 455.932,7.609 456.114,7.128 L457.71,3.104 L459.292,3.104 L459.944,11.244 L458.477,11.244 L458.133,6.692 C458.1,6.154 458.12,5.432 458.12,5.432 L458.1,5.432 C458.1,5.432 457.857,6.223 457.665,6.692 L456.344,9.846 L455.049,9.846 L453.743,6.692 C453.548,6.223 453.295,5.421 453.295,5.421 L453.273,5.421 C453.273,5.421 453.295,6.154 453.262,6.692 L452.918,11.244 L451.438,11.244 L452.103,3.104" id="Fill-20" fill="#E77B2B" mask="url(#mask-2)"></path>
                <path d="M46.813,108.266 C43.92,109.397 40.559,112.096 37.478,109.522 C34.394,106.96 37.057,101.587 37.057,101.587 C37.057,101.587 60.03,47.766 61.352,41.842 C62.457,36.868 59.689,37.308 56.551,40.058 C54.745,41.64 30.467,62.757 26.884,64.573 C24.42,65.821 21.382,67.002 19.327,64.946 C17.274,62.894 19.596,57.936 19.596,57.936 L44.816,3.175 C43.236,3.675 41.661,4.22 40.101,4.852 C7.257,18.145 -8.59,55.552 4.704,88.392 C17.997,121.232 55.398,137.085 88.248,123.79 C113.158,113.704 128.28,89.744 128.333,64.436 C99.857,79.849 48.571,107.577 46.813,108.266" id="Fill-22" fill="#E77B2B" mask="url(#mask-2)"></path>
                <path d="M59.75,0.317 C54.06,12.332 46.498,28.788 46.813,30.718 C47.326,33.802 50.77,31.058 50.77,31.058 C50.77,31.058 73.584,11.638 77.878,9.098 C82.171,6.564 83.465,10.142 82.823,12.379 C82.337,14.06 68.862,48.556 69.437,52.433 C70.091,56.771 74.844,53.146 76.57,51.854 C77.909,50.848 110.973,20.438 110.973,20.438 C97.852,6.452 78.98,-1.017 59.75,0.317" id="Fill-23" fill="#E77B2B" mask="url(#mask-2)"></path>
            </g>
        </g>
    </g>
</svg>