<?xml version="1.0" encoding="utf-8"?>
<!-- Generator: Adobe Illustrator 20.0.0, SVG Export Plug-In . SVG Version: 6.00 Build 0)  -->
<!DOCTYPE svg PUBLIC "-//W3C//DTD SVG 1.1//EN" "http://www.w3.org/Graphics/SVG/1.1/DTD/svg11.dtd" [
	<!ENTITY ns_extend "http://ns.adobe.com/Extensibility/1.0/">
	<!ENTITY ns_ai "http://ns.adobe.com/AdobeIllustrator/10.0/">
	<!ENTITY ns_graphs "http://ns.adobe.com/Graphs/1.0/">
	<!ENTITY ns_vars "http://ns.adobe.com/Variables/1.0/">
	<!ENTITY ns_imrep "http://ns.adobe.com/ImageReplacement/1.0/">
	<!ENTITY ns_sfw "http://ns.adobe.com/SaveForWeb/1.0/">
	<!ENTITY ns_custom "http://ns.adobe.com/GenericCustomNamespace/1.0/">
	<!ENTITY ns_adobe_xpath "http://ns.adobe.com/XPath/1.0/">
]>
<svg version="1.1" id="Layer_1" xmlns:x="&ns_extend;" xmlns:i="&ns_ai;" xmlns:graph="&ns_graphs;"
	 xmlns="http://www.w3.org/2000/svg" xmlns:xlink="http://www.w3.org/1999/xlink" x="0px" y="0px" width="220px" height="71.6px"
	 viewBox="0 0 220 71.6" style="enable-background:new 0 0 220 71.6;" xml:space="preserve">
<style type="text/css">
	.st0{fill:#4285F4;}
	.st1{fill:#EA4335;}
	.st2{fill:#FBBC05;}
	.st3{fill:#34A853;}
	.st4{fill:none;}
</style>
<metadata>
	<sfw  xmlns="&ns_sfw;">
		<slices></slices>
		<sliceSourceBounds  bottomLeftOrigin="true" height="71.6" width="220" x="308" y="100.2"></sliceSourceBounds>
	</sfw>
</metadata>
<path class="st0" d="M28.4,32.8v-7.5h25.3c0.3,1.3,0.4,2.9,0.4,4.6c0,5.7-1.5,12.7-6.5,17.6c-4.8,5.1-11.1,7.7-19.3,7.7
	c-15.2,0-28-12.4-28-27.6S13.1,0,28.3,0c8.4,0,14.4,3.3,18.9,7.6L41.9,13c-3.2-3-7.6-5.4-13.6-5.4c-11.1,0-19.8,9-19.8,20.1
	s8.7,20.1,19.8,20.1c7.2,0,11.3-2.9,13.9-5.5c2.1-2.1,3.5-5.2,4.1-9.4L28.4,32.8L28.4,32.8z"/>
<path class="st1" d="M92.6,37.5c0,10.2-8,17.8-17.9,17.8s-17.9-7.5-17.9-17.8c0-10.3,8-17.8,17.9-17.8S92.6,27.2,92.6,37.5z
	 M84.8,37.5c0-6.4-4.6-10.8-10-10.8c-5.4,0-10,4.4-10,10.8c0,6.3,4.6,10.8,10,10.8C80.1,48.3,84.8,43.8,84.8,37.5L84.8,37.5z"/>
<path class="st2" d="M131.5,37.5c0,10.2-8,17.8-17.9,17.8s-17.9-7.5-17.9-17.8c0-10.3,8-17.8,17.9-17.8S131.5,27.2,131.5,37.5z
	 M123.7,37.5c0-6.4-4.6-10.8-10-10.8c-5.4,0-10,4.4-10,10.8c0,6.3,4.6,10.8,10,10.8C119.1,48.3,123.7,43.8,123.7,37.5L123.7,37.5z"
	/>
<path class="st0" d="M168.9,20.8v31.9c0,13.1-7.7,18.5-16.9,18.5c-8.6,0-13.8-5.8-15.8-10.5l6.8-2.8c1.2,2.9,4.2,6.3,9,6.3
	c5.9,0,9.5-3.6,9.5-10.4v-2.6h-0.3c-1.8,2.2-5.1,4-9.4,4c-8.9,0-17-7.7-17-17.7c0-10,8.2-17.9,17-17.9c4.2,0,7.6,1.9,9.4,4h0.3v-2.9
	H168.9L168.9,20.8z M162,37.6c0-6.3-4.2-10.8-9.5-10.8c-5.4,0-9.9,4.6-9.9,10.8c0,6.2,4.5,10.7,9.9,10.7
	C157.8,48.3,162,43.8,162,37.6z"/>
<path class="st3" d="M182.1,2.1v52.1h-7.8V2.1H182.1z"/>
<path class="st1" d="M212.3,43.4l6.1,4c-2,2.9-6.7,7.9-14.8,7.9c-10.1,0-17.7-7.8-17.7-17.8c0-10.6,7.6-17.8,16.8-17.8
	c9.2,0,13.7,7.3,15.2,11.3l0.8,2l-23.8,9.8c1.8,3.6,4.6,5.4,8.6,5.4C207.5,48.3,210.3,46.3,212.3,43.4z M193.6,37l15.9-6.6
	c-0.9-2.2-3.5-3.8-6.6-3.8C198.9,26.6,193.4,30.1,193.6,37L193.6,37z"/>
<path class="st4" d="M0,0h220v71.6H0V0z"/>
</svg>
