<?xml version="1.0" encoding="utf-8"?>
<!-- Generator: Adobe Illustrator 20.0.0, SVG Export Plug-In . SVG Version: 6.00 Build 0)  -->
<!DOCTYPE svg PUBLIC "-//W3C//DTD SVG 1.1//EN" "http://www.w3.org/Graphics/SVG/1.1/DTD/svg11.dtd" [
	<!ENTITY ns_extend "http://ns.adobe.com/Extensibility/1.0/">
	<!ENTITY ns_ai "http://ns.adobe.com/AdobeIllustrator/10.0/">
	<!ENTITY ns_graphs "http://ns.adobe.com/Graphs/1.0/">
	<!ENTITY ns_vars "http://ns.adobe.com/Variables/1.0/">
	<!ENTITY ns_imrep "http://ns.adobe.com/ImageReplacement/1.0/">
	<!ENTITY ns_sfw "http://ns.adobe.com/SaveForWeb/1.0/">
	<!ENTITY ns_custom "http://ns.adobe.com/GenericCustomNamespace/1.0/">
	<!ENTITY ns_adobe_xpath "http://ns.adobe.com/XPath/1.0/">
]>
<svg version="1.1" id="art" xmlns:x="&ns_extend;" xmlns:i="&ns_ai;" xmlns:graph="&ns_graphs;"
	 xmlns="http://www.w3.org/2000/svg" xmlns:xlink="http://www.w3.org/1999/xlink" x="0px" y="0px" width="2176.7px"
	 height="983.8px" viewBox="0 0 2176.7 983.8" style="enable-background:new 0 0 2176.7 983.8;" xml:space="preserve">
<style type="text/css">
	.st0{fill:#F4A04D;}
	.st1{fill:#301C47;}
	.st2{fill:url(#SVGID_1_);}
	.st3{fill:none;stroke:#F4A04D;stroke-width:3;stroke-linecap:round;stroke-miterlimit:10;}
	.st4{fill:none;stroke:#C8495B;stroke-width:3;stroke-linecap:round;stroke-miterlimit:10;}
	.st5{fill:url(#SVGID_2_);}
	.st6{fill:none;}
	.st7{fill:none;stroke:#F4A04D;stroke-width:10;stroke-linecap:round;stroke-miterlimit:10;}
	.st8{fill:none;stroke:#C8495B;stroke-width:6;stroke-linecap:round;stroke-miterlimit:10;}
	.st9{fill:none;stroke:#F4A04D;stroke-width:4;stroke-linecap:round;stroke-linejoin:round;stroke-miterlimit:10;}
	.st10{opacity:0.2;fill:none;stroke:#C8495B;stroke-width:3;stroke-linecap:round;stroke-miterlimit:10;enable-background:new    ;}
	.st11{fill:#C8495B;}
	.st12{fill:none;stroke:#301C47;stroke-width:6;stroke-linecap:round;stroke-miterlimit:10;}
	.st13{fill:url(#SVGID_3_);}
	.st14{fill:url(#SVGID_4_);}
	.st15{fill:none;stroke:#C8495B;stroke-width:4;stroke-linecap:round;stroke-miterlimit:10;}
	.st16{fill:none;stroke:#301C47;stroke-width:3;stroke-linecap:round;stroke-miterlimit:10;}
	.st17{fill:none;stroke:#301C47;stroke-width:4;stroke-linecap:round;stroke-miterlimit:10;}
	.st18{fill:url(#SVGID_5_);}
	.st19{fill:none;stroke:#301C47;stroke-width:20;stroke-linecap:round;stroke-miterlimit:10;}
	.st20{fill:url(#SVGID_6_);}
	.st21{fill:url(#SVGID_7_);}
	.st22{fill:none;stroke:#F4A04D;stroke-width:4;stroke-linejoin:round;stroke-miterlimit:10;}
	.st23{fill:none;stroke:#F4A04D;stroke-width:7;stroke-linejoin:round;stroke-miterlimit:10;}
	.st24{fill:none;stroke:#C8495B;stroke-width:4;stroke-linejoin:round;stroke-miterlimit:10;}
	.st25{fill:none;stroke:#301C47;stroke-width:2;stroke-linecap:round;stroke-linejoin:round;stroke-miterlimit:10;}
	.st26{fill:none;stroke:#301C47;stroke-width:4;stroke-linecap:round;stroke-linejoin:round;stroke-miterlimit:10;}
	.st27{fill:url(#SVGID_8_);}
	.st28{fill:url(#SVGID_9_);}
	.st29{fill:url(#SVGID_10_);}
	.st30{fill:url(#SVGID_11_);}
	.st31{fill:none;stroke:#F4A04D;stroke-width:4;stroke-miterlimit:10;}
	.st32{fill:none;stroke:#F4A04D;stroke-width:8;stroke-linecap:round;stroke-miterlimit:10;}
	.st33{fill:url(#SVGID_12_);}
	.st34{fill:url(#SVGID_13_);}
</style>
<metadata>
	<sfw  xmlns="&ns_sfw;">
		<slices></slices>
		<sliceSourceBounds  bottomLeftOrigin="true" height="983.8" width="2145.7" x="31" y="0"></sliceSourceBounds>
	</sfw>
</metadata>
<polygon class="st0" points="1335.2,340.3 1476.6,258.3 1476.6,395.6 1335.2,477.6 "/>
<polygon class="st1" points="1335.2,357.5 1476.6,275.5 1476.6,412.8 1335.2,494.8 "/>
<linearGradient id="SVGID_1_" gradientUnits="userSpaceOnUse" x1="1314.1254" y1="-170.3679" x2="1390.6746" y2="-126.1721" gradientTransform="matrix(1 0 0 1 0 564.47)">
	<stop  offset="0.4968" style="stop-color:#C8495B;stop-opacity:0"/>
	<stop  offset="1" style="stop-color:#C8495B;stop-opacity:0.5"/>
</linearGradient>
<polygon class="st2" points="1335.2,357.6 1369.6,337.6 1369.6,474.8 1335.2,494.8 "/>
<g>
	<line class="st3" x1="1435.3" y1="354.5" x2="1451.7" y2="345"/>
	<line class="st3" x1="1385.2" y1="398.9" x2="1420.4" y2="378.4"/>
	<line class="st3" x1="1402.8" y1="420.1" x2="1420.4" y2="409.9"/>
	<line class="st3" x1="1385.2" y1="430.3" x2="1395.3" y2="424.4"/>
	<line class="st3" x1="1412.1" y1="398.4" x2="1428.2" y2="389.1"/>
	<line class="st3" x1="1385.2" y1="414.1" x2="1400.8" y2="405"/>
	<g>
		<line class="st3" x1="1435.3" y1="324.1" x2="1443.5" y2="319.3"/>
		<line class="st3" x1="1405.4" y1="341.4" x2="1422.6" y2="331.4"/>
		<line class="st3" x1="1385.2" y1="353.1" x2="1395.9" y2="346.9"/>
		<line class="st3" x1="1385.2" y1="445.6" x2="1395.9" y2="439.4"/>
		<line class="st3" x1="1385.2" y1="368.4" x2="1420.4" y2="347.9"/>
		<line class="st3" x1="1412.1" y1="368" x2="1426.5" y2="359.6"/>
		<line class="st3" x1="1385.2" y1="383.6" x2="1400.8" y2="374.6"/>
	</g>
</g>
<g>
	<line class="st4" x1="1345.6" y1="417.1" x2="1355.7" y2="411.2"/>
	<line class="st4" x1="1345.6" y1="448.6" x2="1355.7" y2="442.7"/>
	<line class="st4" x1="1345.6" y1="432.3" x2="1361.2" y2="423.3"/>
	<g>
		<line class="st4" x1="1345.6" y1="371.4" x2="1356.3" y2="365.2"/>
		<line class="st4" x1="1345.6" y1="463.8" x2="1356.3" y2="457.6"/>
		<line class="st4" x1="1345.6" y1="386.6" x2="1355.3" y2="381"/>
		<line class="st4" x1="1345.6" y1="401.9" x2="1361.2" y2="392.8"/>
	</g>
</g>
<g>
	<path class="st1" d="M1451.7,281.7c0,1.2-1,2.7-2.2,3.4c-1.2,0.7-2.2,0.3-2.2-0.9c0-1.2,1-2.7,2.2-3.4
		C1450.7,280.1,1451.7,280.5,1451.7,281.7z"/>
	<path class="st1" d="M1460.4,276.7c0,1.2-1,2.7-2.2,3.4c-1.2,0.7-2.2,0.3-2.2-0.9c0-1.2,1-2.7,2.2-3.4
		C1459.4,275,1460.4,275.5,1460.4,276.7z"/>
	<path class="st1" d="M1469.1,271.6c0,1.2-1,2.7-2.2,3.4c-1.2,0.7-2.2,0.3-2.2-0.9c0-1.2,1-2.7,2.2-3.4
		C1468.2,270,1469.1,270.4,1469.1,271.6z"/>
</g>
<g>
	<path class="st1" d="M1582.1,459.8L1582.1,459.8c-12.8,0-23.1-10.3-23.1-23.1v-73.8c0-12.8,10.3-23.1,23.1-23.1l0,0
		c12.8,0,23.1,10.3,23.1,23.1v73.8C1605.2,449.5,1594.9,459.8,1582.1,459.8z"/>
	
		<linearGradient id="SVGID_2_" gradientUnits="userSpaceOnUse" x1="1559" y1="-164.67" x2="1605.2" y2="-164.67" gradientTransform="matrix(1 0 0 1 0 564.47)">
		<stop  offset="0.1245" style="stop-color:#C8495B;stop-opacity:0"/>
		<stop  offset="1" style="stop-color:#C8495B;stop-opacity:0.5"/>
	</linearGradient>
	<path class="st5" d="M1582.1,459.8L1582.1,459.8c-12.8,0-23.1-10.3-23.1-23.1v-73.8c0-12.8,10.3-23.1,23.1-23.1l0,0
		c12.8,0,23.1,10.3,23.1,23.1v73.8C1605.2,449.5,1594.9,459.8,1582.1,459.8z"/>
	<g>
		<path class="st1" d="M1605.3,436.2c0,0,0,0.1,0.1,0.2c0,0.1,0.1,0.2,0.1,0.5c0,0.5,0,1.2-0.4,2s-1,1.7-1.8,2.4
			c-0.8,0.8-1.8,1.6-3,2.3c-2.3,1.4-5.1,2.5-8.3,3.3c-0.8,0.2-1.6,0.3-2.4,0.5s-1.6,0.3-2.4,0.4c-1.7,0.2-3.3,0.3-5,0.3h-1.2
			l-1.3-0.1c-0.8,0-1.7-0.1-2.5-0.2c-1.7-0.2-3.3-0.5-4.8-0.9c-3.1-0.8-6-1.9-8.2-3.3c-1.2-0.7-2.2-1.5-3-2.3s-1.5-1.6-1.8-2.4
			c-0.4-0.8-0.5-1.5-0.4-2c0-0.5,0.2-0.7,0.2-0.7l0,0l0,0l0,0l0.5-0.1c0,0,0,0.2,0.1,0.5s0.3,0.8,0.7,1.3c0.9,1,2.6,1.9,4.8,2.7
			c4.4,1.6,10.8,2.4,17,2.3c6.3,0,12.6-0.8,17-2.3c2.2-0.8,4-1.7,4.8-2.7c0.4-0.5,0.7-1,0.7-1.3c0.1-0.3,0.1-0.5,0.1-0.5
			c0-0.1,0.1-0.2,0.3-0.2C1605.2,436,1605.3,436.1,1605.3,436.2z"/>
	</g>
	<g>
		<path class="st1" d="M1605.3,358c0,0,0,0.1,0.1,0.2c0,0.1,0.1,0.2,0.1,0.5c0,0.5,0,1.2-0.4,2s-1,1.7-1.8,2.4
			c-0.8,0.8-1.8,1.6-3,2.3c-2.3,1.4-5.1,2.5-8.2,3.3c-1.6,0.4-3.2,0.7-4.8,0.9c-1.7,0.2-3.3,0.3-5,0.3h-1.2l-1.3-0.1
			c-0.8,0-1.7-0.1-2.5-0.2s-1.6-0.2-2.4-0.4c-0.8-0.1-1.6-0.3-2.4-0.5c-3.1-0.8-6-1.9-8.3-3.3c-1.2-0.7-2.2-1.5-3-2.3
			s-1.5-1.6-1.8-2.4c-0.4-0.8-0.5-1.5-0.4-2c0-0.5,0.2-0.7,0.2-0.7l0,0l0,0l0,0l0.5-0.1c0,0,0,0.2,0.1,0.5s0.3,0.8,0.7,1.3
			c0.9,1,2.6,1.9,4.8,2.7c2.2,0.8,4.9,1.4,7.8,1.8s6.1,0.6,9.2,0.6c6.3,0,12.6-0.8,17-2.3c2.2-0.8,4-1.7,4.8-2.7
			c0.4-0.5,0.7-1,0.7-1.3c0.1-0.3,0.1-0.5,0.1-0.5c0-0.1,0.1-0.2,0.3-0.2C1605.2,357.7,1605.3,357.8,1605.3,358z"/>
	</g>
	<g>
		<circle class="st1" cx="1597.1" cy="381.3" r="2.7"/>
		<circle class="st1" cx="1597.1" cy="390.3" r="2.7"/>
		<circle class="st1" cx="1597.1" cy="399.3" r="2.7"/>
		<circle class="st1" cx="1597.1" cy="408.3" r="2.7"/>
		<circle class="st1" cx="1597.1" cy="417.3" r="2.7"/>
		<circle class="st1" cx="1597.1" cy="426.3" r="2.7"/>
		<circle class="st1" cx="1597.1" cy="436.3" r="2.7"/>
		<circle class="st1" cx="1580.9" cy="381.3" r="2.7"/>
		<circle class="st1" cx="1580.9" cy="390.3" r="2.7"/>
		<circle class="st1" cx="1580.9" cy="399.3" r="2.7"/>
		<circle class="st1" cx="1580.9" cy="408.3" r="2.7"/>
		<circle class="st1" cx="1580.9" cy="417.3" r="2.7"/>
		<circle class="st1" cx="1580.9" cy="426.3" r="2.7"/>
		<circle class="st1" cx="1580.9" cy="436.3" r="2.7"/>
		<path class="st1" d="M1605.2,388.5c-1.5,0-2.7-1.2-2.7-2.7s1.2-2.7,2.7-2.7"/>
		<path class="st1" d="M1605.2,397.5c-1.5,0-2.7-1.2-2.7-2.7s1.2-2.7,2.7-2.7"/>
		<path class="st1" d="M1605.2,406.5c-1.5,0-2.7-1.2-2.7-2.7s1.2-2.7,2.7-2.7"/>
		<path class="st1" d="M1605.2,415.5c-1.5,0-2.7-1.2-2.7-2.7s1.2-2.7,2.7-2.7"/>
		<circle class="st1" cx="1589" cy="385.8" r="2.7"/>
		<path class="st1" d="M1605.2,378.5c-1.5,0-2.7-1.2-2.7-2.7s1.2-2.7,2.7-2.7"/>
		<circle class="st1" cx="1589" cy="375.8" r="2.7"/>
		<circle class="st1" cx="1589" cy="394.8" r="2.7"/>
		<circle class="st1" cx="1589" cy="403.8" r="2.7"/>
		<circle class="st1" cx="1589" cy="412.8" r="2.7"/>
		<path class="st1" d="M1605.2,424.5c-1.5,0-2.7-1.2-2.7-2.7s1.2-2.7,2.7-2.7"/>
		<path class="st1" d="M1605.2,434.5c-1.5,0-2.7-1.2-2.7-2.7s1.2-2.7,2.7-2.7"/>
		<circle class="st1" cx="1589" cy="421.8" r="2.7"/>
		<circle class="st1" cx="1589" cy="431.8" r="2.7"/>
		<circle class="st1" cx="1572.8" cy="385.8" r="2.7"/>
		<circle class="st1" cx="1572.8" cy="375.8" r="2.7"/>
		<circle class="st1" cx="1572.8" cy="394.8" r="2.7"/>
		<circle class="st1" cx="1572.8" cy="403.8" r="2.7"/>
		<circle class="st1" cx="1572.8" cy="412.8" r="2.7"/>
		<circle class="st1" cx="1572.8" cy="421.8" r="2.7"/>
		<circle class="st1" cx="1572.8" cy="431.8" r="2.7"/>
	</g>
</g>
<line class="st6" x1="1581.7" y1="349.1" x2="1581.7" y2="302.6"/>
<line class="st7" x1="1582.1" y1="325.1" x2="1582.1" y2="348.7"/>
<polyline class="st8" points="2017.9,426.1 2021.9,428.4 2071.3,399.8 1896.3,299.6 1896.3,103.6 1582.1,285.1 1582.1,325.7 "/>
<polygon class="st1" points="1183.1,727.2 1196.8,734.1 1191.1,752.1 1169.3,747.8 "/>
<line class="st9" x1="352.4" y1="505.7" x2="352.4" y2="603.8"/>
<line class="st9" x1="221.4" y1="431.2" x2="221.4" y2="529.2"/>
<path class="st10" d="M132.1,513l9,9.9c3.6,4,8,6.5,11.6,6.6l8.5,0.3l8.4,9.4c3.7,4.1,8.1,6.6,11.7,6.8l8.4,0.3l8.4,9.5
	c3.7,4.1,8.1,6.6,11.7,6.8l8.4,0.3l8.4,9.5c3.7,4.1,8.1,6.6,11.7,6.8l8.4,0.3l8.4,9.5c3.7,4.1,8.1,6.6,11.7,6.8l8.4,0.3l8.4,9.5
	c3.7,4.1,8.1,6.6,11.7,6.8l8.4,0.3l8.4,9.5c3.7,4.1,8.1,6.6,11.7,6.8l8.4,0.3l8.4,9.5c3.7,4.1,8.1,6.6,11.7,6.8l8.4,0.3l8.4,9.5
	c3.7,4.1,8.1,6.6,11.7,6.8l8.4,0.3l8.4,9.5c3.7,4.1,8.1,6.6,11.7,6.8l8.4,0.3l13.6,15.6"/>
<polyline class="st8" points="695.9,697 559.6,618.2 486.7,660.4 103.6,438.4 "/>
<path class="st11" d="M488.1,446.5l43.4-25.1c23.2-13.4,52.1,3.3,52.1,30.1V506c0,12.4-6.6,23.9-17.4,30.1l-43.4,25.1
	c-23.2,13.4-52.1-3.3-52.1-30.1v-54.5C470.8,464.2,477.4,452.7,488.1,446.5z"/>
<line class="st7" x1="545.4" y1="526.4" x2="568.1" y2="539.7"/>
<polyline class="st12" points="568.1,539.7 614.3,565.8 560.4,596.9 650.3,648.8 "/>
<linearGradient id="SVGID_3_" gradientUnits="userSpaceOnUse" x1="1555.9664" y1="-10.151" x2="1770.5028" y2="-134.0137" gradientTransform="matrix(1 0 0 1 0 564.47)">
	<stop  offset="0" style="stop-color:#C8495B;stop-opacity:0"/>
	<stop  offset="1" style="stop-color:#C8495B;stop-opacity:0.5"/>
</linearGradient>
<polygon class="st13" points="1617.3,644 1784.5,454.7 1762.3,416.5 1501.8,460.5 "/>
<g>
	<path class="st1" d="M509.2,491.7c0,0,0.7-29.5,1.9-73.7c0.3-11.1,0.6-23,0.9-35.7c0.1-3.2,0.2-6.4,0.2-9.6c0-0.8,0-1.6,0.1-2.4
		v-1.2c0-0.5,0,0.5,0,0.3v-0.2v-0.3v-0.6c0-1.6,0-3.3,0-5c-0.2-4.9-1-10.9-2.4-16.6s-3.5-11.4-6.3-16.8s-6.2-10.6-10.2-15.4
		s-8.6-9.2-13.7-13c-1.2-1-2.6-1.8-3.9-2.7c-0.7-0.5-1.3-0.9-2-1.4l-2.3-1.5c-3.1-1.9-6.3-3.9-9.4-5.8
		c-12.5-7.8-25.1-15.5-37.4-23.2l-0.6-0.4c0.6,0.3,0.1,0,0.2,0.1l-0.1-0.1l-0.3-0.2l-1.2-0.7l-0.3-0.2l-0.2-0.1l-0.3-0.2L421,265
		c-1.1-0.5-2.3-0.9-3.4-1.2c-2.3-0.6-4.8-0.9-7.2-0.7c-2.4,0.2-4.9,0.7-7.1,1.7c-2.3,0.9-4.4,2.2-6.3,3.8c-3.8,3.1-6.4,7.4-7.6,12
		c-0.2,0.6-0.2,1.2-0.4,1.8c-0.1,0.6-0.2,1.2-0.3,1.8c0,0.6-0.1,1.2-0.1,1.8c0,0.8,0,1.6-0.1,2.4c-0.1,3.3-0.2,6.5-0.2,9.6
		c-0.3,12.7-0.6,24.7-0.9,35.7c-1.1,44.2-1.9,73.7-1.9,73.7c-0.1,3.3-2.9,6-6.2,5.9c-3.2-0.1-5.8-2.7-5.9-5.9c0,0-0.7-29.5-1.9-73.7
		c-0.3-11.1-0.6-23-0.9-35.7c-0.1-3.2-0.2-6.4-0.2-9.6c0-0.8,0-1.6-0.1-2.4c0-1,0-2,0-3.1c0.1-1,0.2-2.1,0.3-3.1
		c0.2-1,0.3-2.1,0.5-3.1c1.6-8.4,6.1-16.5,12.6-22.6c3.3-3.1,7-5.6,11.2-7.6c4.1-2,8.6-3.3,13.3-3.9c4.6-0.6,9.5-0.4,14.1,0.6
		c2.3,0.5,4.6,1.2,6.9,2l1.8,0.8l0.9,0.4l0.4,0.2l0.3,0.2l1.2,0.6l0.3,0.2l0.2,0.1c0.2,0.1-0.2-0.1,0.5,0.3l0.6,0.3
		c12.7,7,25.6,14.1,38.5,21.3c3.2,1.8,6.5,3.6,9.7,5.3l2.4,1.3c0.8,0.5,1.8,1,2.6,1.6c1.8,1.1,3.6,2.1,5.3,3.3
		c6.9,4.6,13.3,10,18.9,16.1c5.6,6.1,10.5,12.7,14.6,19.8c4.1,7,7.3,14.5,9.6,22.1c2.3,7.7,3.8,15.1,4.6,23.4c0.1,1.7,0.2,3.3,0.3,5
		v0.6v0.3v0.2v0.6v1.2c0,0.8,0,1.6,0.1,2.4c0.1,3.3,0.2,6.5,0.2,9.6c0.3,12.7,0.6,24.7,0.9,35.7c1.1,44.2,1.9,73.7,1.9,73.7
		c0.3,9.9-7.6,18.2-17.5,18.5s-18.2-7.6-18.5-17.5C509.2,492.3,509.2,492,509.2,491.7z"/>
</g>
<path class="st11" d="M343.9,364.9l36.2-20.9c22.9-13.2,51.6,3.3,51.6,29.8V420c0,12.3-6.6,23.6-17.2,29.8l-36.2,20.9
	c-22.9,13.2-51.6-3.3-51.6-29.8v-46.1C326.7,382.4,333.3,371.1,343.9,364.9z"/>
<path class="st1" d="M361.1,445.3c-1.4,0-4.4-1.1-4.4-4.4v-46.1c0-1.6,0.8-3,2.2-3.8l36.2-20.9c0.8-0.4,1.4-0.6,2.1-0.6
	c1.4,0,4.4,1.1,4.4,4.4V420c0,1.6-0.8,3-2.2,3.8l-36.2,20.9C362.5,445.1,361.9,445.3,361.1,445.3z"/>
<path class="st1" d="M953.8,696.8L753,580.9c-2.8,3-117.3,69.4-175.1,102.9l-32.6-1.1v3.7c0,10.1,5.4,19.4,14.1,24.5l208,120.1
	c8.6,5,19.2,5,27.8,0l184.2-106.3c6.9-4,11.2-11.4,11.2-19.4v-7.1L953.8,696.8z"/>
<path class="st0" d="M753,560.9c-3.8,4-207.7,121.7-207.7,121.7l236.1,136.3l209.3-120.8L753,560.9z"/>
<linearGradient id="SVGID_4_" gradientUnits="userSpaceOnUse" x1="603.9445" y1="219.7053" x2="931.2828" y2="30.7165" gradientTransform="matrix(1 0 0 1 0 564.47)">
	<stop  offset="0.2776" style="stop-color:#C8495B;stop-opacity:0"/>
	<stop  offset="0.5469" style="stop-color:#C8495B;stop-opacity:0.5"/>
</linearGradient>
<path class="st14" d="M753,560.9c-3.8,4-207.7,121.7-207.7,121.7l236.1,136.3l209.3-120.8L753,560.9z"/>
<path class="st1" d="M646.9,718.4c5.7-3.3,44.4-25.8,48.7-28.5l57.6,33.3l-49,28.3L646.9,718.4z"/>
<polygon class="st0" points="753,335.7 990.7,472 990.7,698.1 753,560.9 "/>
<path class="st1" d="M771.6,548.5c-1.3-25.4,0.2-101.6,0-178.1l198.3,113.3V663L771.6,548.5z"/>
<path class="st15" d="M899.8,540c-0.4-33.7,0.1-53.8,0-76.9L952,493v77.2L899.8,540z"/>
<path class="st0" d="M791.1,473.9c-0.1-10.9,0-26.8,0.1-44.3c0.1-7.9,0.1-16.2,0.1-27.8l88.3,50.5V525L791.1,473.9z"/>
<g>
	<line class="st16" x1="856" y1="453.4" x2="869.6" y2="461.1"/>
	<line class="st16" x1="801.2" y1="422" x2="841.9" y2="445.3"/>
	<line class="st6" x1="869.6" y1="507.7" x2="801" y2="468.1"/>
	<line class="st16" x1="869.6" y1="475.3" x2="801" y2="435.7"/>
	<line class="st16" x1="816.4" y1="458.6" x2="801" y2="449.7"/>
	<line class="st16" x1="856.1" y1="481.5" x2="826.2" y2="464.2"/>
</g>
<path class="st11" d="M727.4,592.6c-1.3-25.4,0.2-101.6,0-178.1l193.8,113.3V707L727.4,592.6z"/>
<g>
	<line class="st3" x1="883.7" y1="539.9" x2="926.9" y2="565.1"/>
	<line class="st3" x1="883.7" y1="555.8" x2="935.5" y2="586"/>
	<line class="st3" x1="883.7" y1="571.7" x2="920.6" y2="593.3"/>
	<line class="st3" x1="897.8" y1="595.8" x2="883.7" y2="587.4"/>
	<line class="st3" x1="935.5" y1="618" x2="914.2" y2="605.1"/>
</g>
<g>
	<line class="st3" x1="691.8" y1="553.7" x2="735" y2="579"/>
	<line class="st3" x1="691.8" y1="569.7" x2="743.6" y2="599.9"/>
	<line class="st3" x1="691.8" y1="585.6" x2="728.7" y2="607.1"/>
	<line class="st3" x1="705.9" y1="609.6" x2="691.8" y2="601.3"/>
	<line class="st3" x1="743.6" y1="631.9" x2="722.3" y2="619"/>
</g>
<line class="st17" x1="899.6" y1="663.1" x2="751.9" y2="577.8"/>
<g>
	<path class="st0" d="M804.5,564.7l21.4-5.2c2.2-0.5,3-3.3,1.5-4.9L806,531.2c-1.8-2-5.2-0.7-5.2,2v28.5
		C800.8,563.7,802.6,565.1,804.5,564.7z"/>
</g>
<polygon class="st1" points="1074.1,415.6 1029.9,441.1 1074.1,466.6 1118.3,441.1 "/>
<polygon class="st0" points="1074.1,658.5 1029.9,633 1029.9,441.1 1074.1,466.6 "/>
<polygon class="st11" points="1074.1,658.5 1118.3,633 1118.3,441.1 1074.1,466.6 "/>
<polygon class="st1" points="1092.3,479.7 1084.4,484.2 1084.4,476.3 1092.3,471.8 "/>
<polygon class="st1" points="1092.3,503.4 1084.4,508 1084.4,500.1 1092.3,495.5 "/>
<polygon class="st1" points="1092.3,566.7 1084.4,571.3 1084.4,563.4 1092.3,558.8 "/>
<polygon class="st1" points="1092.3,603.5 1084.4,608.1 1084.4,600.2 1092.3,595.6 "/>
<polygon class="st1" points="1108.1,558.8 1100.2,563.4 1100.2,555.5 1108.1,550.9 "/>
<polygon class="st1" points="1108.1,620.2 1100.2,624.8 1100.2,616.8 1108.1,612.3 "/>
<polygon class="st1" points="1108.1,529.1 1100.2,533.7 1100.2,525.8 1108.1,521.2 "/>
<polygon class="st11" points="1056,530.4 1063.9,535 1063.9,527.1 1056,522.5 "/>
<polygon class="st11" points="1040.1,556.1 1048.1,560.7 1048.1,552.8 1040.1,548.2 "/>
<polygon class="st11" points="1040.1,494.8 1048.1,499.3 1048.1,491.4 1040.1,486.9 "/>
<polygon class="st11" points="1040.1,617.5 1048.1,622.1 1048.1,614.2 1040.1,609.6 "/>
<g>
	<path class="st11" d="M1071.1,437.6l1.2-44.8c0-1,0.9-1.8,1.9-1.8s1.8,0.8,1.8,1.8l1.2,44.8c0,1.7-1.3,3-2.9,3.1s-3-1.3-3.1-2.9
		C1071.1,437.7,1071.1,437.7,1071.1,437.6z"/>
</g>
<path class="st17" d="M1072.6,384.2"/>
<g>
	<path class="st0" d="M419.3,190.4c0,6.9-5.6,9.2-12.4,5.3c-6.9-4-12.4-12.8-12.4-19.6c0-6.9,5.6-9.2,12.4-5.3
		C413.8,174.8,419.3,183.6,419.3,190.4z"/>
	<g>
		<polygon class="st1" points="406.9,183.3 409.9,227 403.9,227 		"/>
	</g>
</g>
<g>
	<path class="st1" d="M1308,752.4c0,0-32.3-19.6-80.8-48.9c-1.5-0.9-3-1.8-4.6-2.8l-1.2-0.7c-1.1-0.6-0.4-0.2-0.7-0.4l-0.1-0.1
		l-0.3-0.2l-0.6-0.4c-0.8-0.5-1.5-1-2.3-1.5c-1.1-0.8-2.2-1.6-3.3-2.4c-0.5-0.4-1.1-0.8-1.6-1.2l-1.4-1.2c-0.9-0.8-1.9-1.6-2.8-2.5
		s-1.8-1.7-2.7-2.6c-3.4-3.6-6.6-7.7-9.4-12c-2.7-4.4-5-9.1-6.8-14.1c-3.6-9.9-4.9-20.8-4-31.7c1-10.9,4.5-21.8,10.4-31.5
		s14.4-18.1,24.2-23.9c0.6-0.4,1.3-0.8,1.8-1.1l1.5-0.8l3-1.7c2-1.1,4-2.3,6-3.4c4-2.3,8-4.5,12.1-6.8c16.2-9.1,32.6-18.4,49.1-27.7
		l6.2-3.5l3.1-1.7l1.5-0.9c0,0,0.9-0.5,0.6-0.3l0.2-0.1l0.4-0.2l0.8-0.4l6.3-3.3c0.5-0.3,1-0.5,1.6-0.8l1.8-0.8l3.6-1.6
		c4.9-2.3,9.6-3.8,14.4-5.6c2.4-0.8,4.8-1.4,7.3-2.2l3.6-1c1.2-0.3,2.5-0.6,3.7-0.8c2.4-0.5,4.9-1.1,7.3-1.6
		c2.5-0.4,4.9-0.7,7.4-1.1c1.2-0.2,2.4-0.4,3.7-0.5c1.2-0.1,2.5-0.2,3.7-0.3c2.5-0.2,4.9-0.5,7.3-0.6c2.4,0,4.9-0.1,7.3-0.1
		c1.2,0,2.4-0.1,3.6,0s2.4,0.1,3.6,0.2c2.4,0.1,4.8,0.2,7.2,0.4c2.4,0.3,4.7,0.5,7.1,0.8c2.4,0.2,4.7,0.7,7,1.1s4.6,0.8,6.9,1.3
		c2.3,0.6,4.5,1.1,6.7,1.7c1.1,0.3,2.2,0.5,3.3,0.9c1.1,0.3,2.2,0.7,3.3,1c2.2,0.7,4.3,1.4,6.5,2.1c2.1,0.8,4.2,1.6,6.2,2.4
		c4.2,1.5,8.1,3.5,12,5.4c2,0.9,3.8,2,5.7,3c1.9,1,3.7,2.1,5.5,3.1c3.4,2,6.7,4.1,10,6c6.5,4,12.8,7.8,18.9,11.5
		c48.4,29.4,80.7,49,80.7,49c3.2,1.9,4.2,6.1,2.3,9.2c-1.9,3.1-5.9,4.1-9,2.4c0,0-33.1-18.2-82.8-45.4c-6.2-3.4-12.7-7-19.4-10.6
		c-3.3-1.8-6.7-3.7-10.2-5.6c-1.7-0.8-3.3-1.7-5-2.5s-3.3-1.8-5.1-2.4c-3.5-1.4-7-3.1-10.7-4.2c-1.8-0.6-3.7-1.3-5.5-1.9
		c-1.9-0.5-3.8-1-5.7-1.6c-1-0.3-1.9-0.5-2.9-0.8c-1-0.2-2-0.4-2.9-0.6c-2-0.4-3.9-0.8-5.9-1.2s-4-0.6-6-0.9c-2-0.3-4-0.6-6.1-0.7
		c-2-0.1-4.1-0.3-6.2-0.4c-2.1-0.1-4.1,0-6.2-0.1c-1,0-2.1,0-3.1,0s-2.1,0.1-3.1,0.1c-2.1,0.1-4.2,0.3-6.3,0.4
		c-2.1,0.2-4.2,0.5-6.3,0.8l-3.2,0.4c-1,0.2-2.1,0.4-3.1,0.6c-2.1,0.4-4.2,0.8-6.3,1.2c-2.1,0.5-4.1,1.1-6.2,1.6
		c-1,0.3-2.1,0.5-3.1,0.8l-3,1c-2,0.7-4.1,1.3-6.1,2.1c-3.9,1.7-8.1,3.2-11.6,5.1l-2.8,1.4l-1.4,0.7c-0.5,0.2-1,0.6-1.5,0.9
		l-6.1,3.5l-0.8,0.4l-0.4,0.2l-0.2,0.1c-0.4,0.2,0.3-0.2,0.2-0.1l-1.5,0.9l-3,1.9l-6,3.7c-16,10-32.1,20-47.8,29.8
		c-3.9,2.5-7.9,4.9-11.8,7.3c-2,1.2-3.9,2.4-5.8,3.6l-2.9,1.8l-1.5,0.9c-0.5,0.3-0.7,0.5-1.1,0.7c-5.7,3.7-10.1,8.7-13.2,14.2
		s-4.8,11.7-5,17.8s0.8,12.1,3,17.3c1.1,2.6,2.4,5.1,4,7.3s3.3,4.2,5.2,6.1c1,0.9,1.9,1.8,3,2.5l0.8,0.6c0.3,0.2,0.4,0.3,0.7,0.5
		c0.4,0.3,0.8,0.6,1.2,0.9c0.8,0.5,1.6,0.9,2.3,1.4l0.6,0.3l0.3,0.2l0.1,0.1c-0.2-0.1,0.6,0.4-0.4-0.2l1.2,0.7
		c1.6,0.9,3.2,1.7,4.7,2.6c49.7,27.2,82.8,45.3,82.8,45.3c9.7,5.3,13.3,17.5,8,27.1c-5.3,9.7-17.5,13.3-27.1,8
		C1308.5,752.7,1308.2,752.5,1308,752.4z"/>
</g>
<path class="st0" d="M1586,528l-252,145.5v141L1567,680c11.7-6.8,18.9-19.3,18.9-32.8L1586,528L1586,528z"/>
<linearGradient id="SVGID_5_" gradientUnits="userSpaceOnUse" x1="1395.6831" y1="70.2306" x2="1524.764" y2="144.7555" gradientTransform="matrix(1 0 0 1 0 564.47)">
	<stop  offset="0" style="stop-color:#C8495B;stop-opacity:0.5"/>
	<stop  offset="0.4968" style="stop-color:#C8495B;stop-opacity:0"/>
	<stop  offset="1" style="stop-color:#C8495B;stop-opacity:0.5"/>
</linearGradient>
<path class="st18" d="M1375.7,678.3l164.8-95.2c9.1-5.3,20.5,1.3,20.5,11.8v44.5c0,9.4-5,18-13,22.8l-47,27.6
	c-3.7,2.2-8.6,0.9-10.7-2.9l-8.6-15.5c-2.5-4.5-9.2-4-10.9,0.9l-11.3,31.6c-2.6,7.2-7.6,13.2-14.2,17.1l-67.5,39.2
	c-8.4,4.9-18.9-1.2-18.9-10.9v-42.2C1359,695.2,1365.4,684.3,1375.7,678.3z"/>
<path class="st11" d="M1425.7,698.3l164.8-95.2c9.1-5.3,20.5,1.3,20.5,11.8v44.5c0,9.4-5,18-13,22.8l-47,27.6
	c-3.7,2.2-8.6,0.9-10.7-2.9l-8.6-15.5c-2.5-4.5-9.2-4-10.9,0.9l-11.3,31.6c-2.6,7.2-7.6,13.2-14.2,17.1l-67.5,39.2
	c-8.4,4.9-18.9-1.2-18.9-10.9v-42.2C1409,715.2,1415.4,704.3,1425.7,698.3z"/>
<path class="st11" d="M1287.5,660.6l232.2-133.8c19.9-11.5,44.5-11.4,64.4,0.1l1.9,1.1l-252,145.5"/>
<path class="st1" d="M1312.2,660.9l21.9,12.6v141l-20.9-12.4c-23.9-14.2-38.6-39.9-38.6-67.8v-51.7
	C1274.5,663.3,1295.4,651.2,1312.2,660.9z"/>
<path class="st11" d="M1313.2,722.7c-3.3-8.8-10.7-16-16.4-16s-7.7,7.2-4.4,16s10.7,16,16.4,16S1316.5,731.5,1313.2,722.7z"/>
<path class="st1" d="M1308,722.7c-1.7-4.4-5.3-8-8.2-8s-3.9,3.6-2.2,8c1.7,4.4,5.3,8,8.2,8C1308.6,730.7,1309.6,727.1,1308,722.7z"
	/>
<path class="st0" d="M867.5,641c-1.9-5.1-6.2-9.3-9.6-9.3s-4.5,4.2-2.6,9.3s6.2,9.3,9.6,9.3S869.4,646.2,867.5,641z"/>
<g>
	<path class="st0" d="M1674.6,649.8l15.7-52.6l15.7,34.4c3.9,8.6-4.1,24.8-15.7,31.5l0,0C1678.7,669.8,1670.7,662.9,1674.6,649.8z"
		/>
	<g>
		<polygon class="st1" points="1690.3,643.1 1693.3,690.9 1687.3,690.9 		"/>
	</g>
	<g>
		<polygon class="st1" points="1689.3,670.2 1709.8,653.3 1691.3,672.4 		"/>
	</g>
</g>
<g>
	<path class="st11" d="M105,355.5l13.4-29.4l13.4,44.9c3.4,11.2-3.5,17.1-13.4,11.4l0,0C108.6,376.7,101.7,362.9,105,355.5z"/>
	<g>
		<polygon class="st1" points="118.4,365.3 121.4,406.1 115.4,406.1 		"/>
	</g>
	<g>
		<polygon class="st1" points="118.8,387.9 135.1,393.3 118.1,390.8 		"/>
	</g>
</g>
<polygon class="st11" points="2028.9,413 1812.6,538.2 1812.6,366.6 2028.9,241.4 "/>
<polygon class="st1" points="1899.5,339.6 2008.9,276.1 2008.9,401.5 1899.5,465 "/>
<polygon class="st11" points="1921.3,375 1931.3,369.2 1931.3,380.7 1921.3,386.5 "/>
<polygon class="st11" points="1921.3,395 1931.3,389.2 1931.3,400.7 1921.3,406.5 "/>
<polygon class="st11" points="1921.3,415 1931.3,409.2 1931.3,420.7 1921.3,426.5 "/>
<polygon class="st0" points="1921.3,375 1931.3,369.2 1931.3,380.7 1921.3,386.5 "/>
<polygon class="st0" points="1921.3,395 1931.3,389.2 1931.3,400.7 1921.3,406.5 "/>
<polygon class="st11" points="1921.3,415 1931.3,409.2 1931.3,420.7 1921.3,426.5 "/>
<polygon class="st0" points="1941.3,343.5 1951.3,337.7 1951.3,349.2 1941.3,355 "/>
<polygon class="st0" points="1941.3,363.5 1951.3,357.7 1951.3,369.2 1941.3,375 "/>
<polygon class="st11" points="1941.3,383.5 1951.3,377.7 1951.3,389.2 1941.3,395 "/>
<polygon class="st11" points="1941.3,403.5 1951.3,397.7 1951.3,409.2 1941.3,415 "/>
<polygon class="st1" points="1961.3,331.9 1971.3,326.1 1971.3,337.6 1961.3,343.4 "/>
<polygon class="st1" points="1961.3,351.9 1971.3,346.1 1971.3,357.6 1961.3,363.4 "/>
<polygon class="st0" points="1961.3,371.9 1971.3,366.1 1971.3,377.6 1961.3,383.4 "/>
<polygon class="st11" points="1961.3,391.9 1971.3,386.1 1971.3,397.6 1961.3,403.4 "/>
<g>
	<polygon class="st0" points="1981.3,320.4 1991.3,314.6 1991.3,326.1 1981.3,331.9 	"/>
	<polygon class="st0" points="1981.3,340.4 1991.3,334.6 1991.3,346.1 1981.3,351.9 	"/>
	<polygon class="st11" points="1981.3,360.4 1991.3,354.6 1991.3,366.1 1981.3,371.9 	"/>
	<polygon class="st11" points="1981.3,380.4 1991.3,374.6 1991.3,386.1 1981.3,391.9 	"/>
</g>
<polygon class="st0" points="1742.6,326.1 1958.9,201 2028.9,241.4 1812.6,366.6 "/>
<path class="st19" d="M1814.2,320.4v-54.8c0-3.9,2.1-7.6,5.5-9.5l123.9-70.7c7.3-4.2,16.4,1.1,16.4,9.5v42.2"/>
<polygon class="st1" points="1742.6,497.8 1812.6,538.2 1812.6,366.6 1742.6,326.1 "/>
<path class="st0" d="M1785.1,436.4c-4.2-11.2-13.5-20.2-20.8-20.2s-9.8,9.1-5.6,20.2c4.2,11.2,13.5,20.2,20.8,20.2
	S1789.3,447.6,1785.1,436.4z"/>
<polygon class="st0" points="1710.8,538.1 1784.5,454.7 1762.3,416.5 1654,434.5 "/>
<path class="st1" d="M1715.6,487.1c-11.1-29.7-35.8-53.7-55.1-53.7c-19.3,0-25.9,24-14.8,53.7c11.1,29.7,35.8,53.7,55.1,53.7
	S1726.8,516.8,1715.6,487.1z"/>
<linearGradient id="SVGID_6_" gradientUnits="userSpaceOnUse" x1="1664.3838" y1="-81.37" x2="1705.0807" y2="-81.37" gradientTransform="matrix(1 0 0 1 0 564.47)">
	<stop  offset="0" style="stop-color:#C8495B;stop-opacity:0"/>
	<stop  offset="1" style="stop-color:#C8495B;stop-opacity:0.5"/>
</linearGradient>
<path class="st20" d="M1702.3,483.1c-5.6-14.9-18-27.1-27.8-27.1c-9.7,0-13.1,12.1-7.4,27.1s18,27.1,27.8,27.1
	C1704.6,510.2,1707.9,498.1,1702.3,483.1z"/>
<path class="st0" d="M1864.2,390c0,5.5-4.5,12.6-10,15.8s-10,1.3-10-4.2s4.5-12.6,10-15.8S1864.2,384.5,1864.2,390z"/>
<path class="st0" d="M1864.2,420c0,5.5-4.5,12.6-10,15.8s-10,1.3-10-4.2s4.5-12.6,10-15.8S1864.2,414.5,1864.2,420z"/>
<path class="st0" d="M1864.2,450c0,5.5-4.5,12.6-10,15.8s-10,1.3-10-4.2s4.5-12.6,10-15.8S1864.2,444.5,1864.2,450z"/>
<path class="st1" d="M569,508.1c0,3.3-2.7,7.6-6,9.5c-3.3,1.9-6,0.8-6-2.5s2.7-7.6,6-9.5C566.3,503.7,569,504.8,569,508.1z"/>
<g>
	<path class="st11" d="M806.6,720.3H795V704c0-3.2,2.6-5.8,5.8-5.8l0,0c3.2,0,5.8,2.6,5.8,5.8V720.3z"/>
	<circle class="st1" cx="801.1" cy="692.5" r="4.6"/>
	<path class="st1" d="M800.8,745.5L800.8,745.5c-3.2,0-5.8-2.6-5.8-5.8v-19.5h11.5v19.5C806.6,743,804,745.5,800.8,745.5z"/>
</g>
<g>
	<path class="st11" d="M465.3,598.9h-10v-14.1c0-2.8,2.2-5,5-5l0,0c2.8,0,5,2.2,5,5V598.9z"/>
	<circle class="st0" cx="460.6" cy="574.9" r="4"/>
	<path class="st1" d="M460.3,620.9L460.3,620.9c-2.8,0-5-2.2-5-5V599h10v16.9C465.3,618.6,463.1,620.9,460.3,620.9z"/>
</g>
<g>
	<path class="st11" d="M1364.1,577h-8.2v-11.6c0-2.3,1.8-4.1,4.1-4.1l0,0c2.3,0,4.1,1.8,4.1,4.1V577z"/>
	<circle class="st1" cx="1360.2" cy="557.2" r="3.3"/>
	<path class="st1" d="M1360,595L1360,595c-2.3,0-4.1-1.8-4.1-4.1V577h8.2v13.9C1364.1,593.1,1362.3,595,1360,595z"/>
</g>
<g>
	<path class="st0" d="M1753.3,564h-10v-14.1c0-2.8,2.2-5,5-5l0,0c2.8,0,5,2.2,5,5V564z"/>
	<circle class="st11" cx="1748.6" cy="539.9" r="4"/>
	<path class="st1" d="M1748.3,585.9L1748.3,585.9c-2.8,0-5-2.2-5-5V564h10v16.9C1753.3,583.7,1751.1,585.9,1748.3,585.9z"/>
</g>
<g>
	<path class="st0" d="M686.9,390.7h-6.8v-9.6c0-1.9,1.5-3.4,3.4-3.4l0,0c1.9,0,3.4,1.5,3.4,3.4L686.9,390.7L686.9,390.7z"/>
	<circle class="st11" cx="683.7" cy="374.4" r="2.7"/>
	<path class="st1" d="M683.5,405.6L683.5,405.6c-1.9,0-3.4-1.5-3.4-3.4v-11.5h6.8v11.5C686.9,404.1,685.4,405.6,683.5,405.6z"/>
</g>
<g>
	<path class="st0" d="M70.2,336.7h-6.8v-9.6c0-1.9,1.5-3.4,3.4-3.4l0,0c1.9,0,3.4,1.5,3.4,3.4V336.7z"/>
	<circle class="st11" cx="67" cy="320.4" r="2.7"/>
	<path class="st1" d="M66.8,351.5L66.8,351.5c-1.9,0-3.4-1.5-3.4-3.4v-11.5h6.8v11.5C70.2,350,68.7,351.5,66.8,351.5z"/>
</g>
<g>
	<path class="st0" d="M1228,531.7h-8v-11.3c0-2.2,1.8-4,4-4l0,0c2.2,0,4,1.8,4,4V531.7z"/>
	<circle class="st1" cx="1224.2" cy="512.4" r="3.2"/>
	<path class="st11" d="M1224,549.2L1224,549.2c-2.2,0-4-1.8-4-4v-13.5h8v13.5C1228,547.4,1226.3,549.2,1224,549.2z"/>
</g>
<g>
	<path class="st0" d="M444.5,479.8h-8v-11.3c0-2.2,1.8-4,4-4l0,0c2.2,0,4,1.8,4,4V479.8z"/>
	<circle class="st1" cx="440.7" cy="460.5" r="3.2"/>
	<path class="st11" d="M440.5,497.3L440.5,497.3c-2.2,0-4-1.8-4-4v-13.5h8v13.5C444.5,495.5,442.7,497.3,440.5,497.3z"/>
</g>
<g>
	<path class="st0" d="M1672.9,390.9h-8v-11.3c0-2.2,1.8-4,4-4l0,0c2.2,0,4,1.8,4,4V390.9z"/>
	<circle class="st1" cx="1669.1" cy="371.7" r="3.2"/>
	<path class="st11" d="M1668.9,408.5L1668.9,408.5c-2.2,0-4-1.8-4-4V391h8v13.5C1672.9,406.7,1671.1,408.5,1668.9,408.5z"/>
</g>
<g>
	<path class="st1" d="M274.4,424.3h-8V413c0-2.2,1.8-4,4-4l0,0c2.2,0,4,1.8,4,4V424.3z"/>
	<circle class="st11" cx="270.6" cy="405" r="3.2"/>
	<path class="st0" d="M270.4,441.8L270.4,441.8c-2.2,0-4-1.8-4-4v-13.5h8v13.5C274.4,440,272.6,441.8,270.4,441.8z"/>
</g>
<polygon class="st16" points="1569.8,573.3 1629.6,538.6 1629.6,607.1 1569.8,641.8 "/>
<path class="st11" d="M1611.7,561.3l8.1,0.2c0.9,0,1.3,1,0.7,1.7l-8.1,9.1c-0.6,0.7-1.7,0.3-1.7-0.7v-9.3
	C1610.7,561.7,1611.1,561.3,1611.7,561.3z"/>
<g>
	<line class="st17" x1="1404.1" y1="820.5" x2="1397.5" y2="824.3"/>
	<line class="st17" x1="1446" y1="796.1" x2="1414.2" y2="814.6"/>
	<line class="st17" x1="1397.5" y1="776.8" x2="1432.3" y2="756.6"/>
	<line class="st17" x1="1421.3" y1="778.8" x2="1446" y2="764.5"/>
	<line class="st17" x1="1397.5" y1="792.6" x2="1411.5" y2="784.6"/>
	<line class="st17" x1="1397.5" y1="808.5" x2="1434.3" y2="787.1"/>
</g>
<g>
	<polygon class="st11" points="718.1,327.7 708.7,340.4 702.8,338.6 706,323 	"/>
	<polygon class="st11" points="518.2,129 540.4,129 543.3,134.3 530,143.2 	"/>
	<path class="st11" d="M543.6,129.9l167.3,96.6c5.8,3.3,9.4,9.5,9.4,16.2v79.4c0,6.5-7,10.5-12.6,7.3L533,228.6V136
		C533,130.6,538.9,127.2,543.6,129.9z"/>
	<path class="st1" d="M521.5,129.8L700.3,233c6.3,3.6,10.2,10.3,10.2,17.6V335c0,7-7.6,11.5-13.7,7.9l-178.4-103
		c-4.9-2.8-7.9-8-7.9-13.7v-90C510.4,130.5,516.6,127,521.5,129.8z"/>
	<path class="st0" d="M638.8,236.4l-141.1-81.5c-3.2-1.9-7.3,0.5-7.3,4.2v71.2c0,5.7,3.1,11.1,8,13.9l141.1,81.5
		c3.2,1.9,7.3-0.5,7.3-4.2v-71.2C646.8,244.6,643.8,239.3,638.8,236.4z"/>
	
		<linearGradient id="SVGID_7_" gradientUnits="userSpaceOnUse" x1="443.3872" y1="-269.6959" x2="646.3649" y2="-386.8851" gradientTransform="matrix(1 0 0 1 0 564.47)">
		<stop  offset="0.4453" style="stop-color:#C8495B;stop-opacity:0"/>
		<stop  offset="1" style="stop-color:#C8495B;stop-opacity:0.5"/>
	</linearGradient>
	<polygon class="st21" points="527.7,144.9 440.4,122.8 440.4,289.6 596.8,379.9 676.8,316.4 676.8,230.3 	"/>
	<path class="st11" d="M698.9,289.5c1.7,2.9,0.7,5.2-2.2,5.2s-6.5-2.3-8.2-5.2c-1.7-2.9-0.7-5.2,2.2-5.2S697.2,286.6,698.9,289.5z"
		/>
	<line class="st16" x1="617.9" y1="294" x2="515.4" y2="234.8"/>
	<g>
		<path class="st11" d="M561.9,241.6l14.8-3.6c1.5-0.4,2.1-2.3,1-3.4L563,218.4c-1.3-1.4-3.6-0.5-3.6,1.4v19.8
			C559.3,241,560.6,242,561.9,241.6z"/>
	</g>
	<path class="st11" d="M547.7,251.3c-1.3-3.6-4.3-6.5-6.6-6.5s-3.1,2.9-1.8,6.5s4.3,6.5,6.6,6.5
		C548.3,257.8,549.1,254.9,547.7,251.3z"/>
	<g>
		<line class="st15" x1="623.6" y1="252.6" x2="629.6" y2="250.1"/>
		<line class="st15" x1="629.6" y1="256.1" x2="623.6" y2="246.6"/>
	</g>
</g>
<g>
	<path class="st17" d="M1610.9,588.1c0,7.3-5.9,16.7-13.3,20.9s-13.3,1.7-13.3-5.6s5.9-16.7,13.3-20.9S1610.9,580.8,1610.9,588.1z"
		/>
	<path class="st1" d="M1601.7,593.5c0,2.2-1.8,5-4,6.3s-4,0.5-4-1.7s1.8-5,4-6.3C1599.9,590.5,1601.7,591.3,1601.7,593.5z"/>
	<line class="st17" x1="1597.7" y1="582.3" x2="1597.7" y2="577.9"/>
	<line class="st17" x1="1597.7" y1="613.9" x2="1597.7" y2="609.4"/>
	<line class="st17" x1="1584.1" y1="603.7" x2="1579.7" y2="606.3"/>
	<line class="st17" x1="1615.7" y1="585.5" x2="1611.3" y2="588"/>
</g>
<g>
	<path class="st11" d="M520.8,719.2c0,13.8-11.2,18.5-25,10.6c-13.8-8-25-25.6-25-39.4c0-13.8,11.2-18.5,25-10.6
		C509.6,687.7,520.8,705.4,520.8,719.2z"/>
	<g>
		<polygon class="st1" points="495.8,704.8 498.8,752.4 492.8,752.4 		"/>
	</g>
</g>
<g>
	<path class="st0" d="M647.1,438.2c0,11.3-9.2,15.2-20.5,8.7s-20.5-21-20.5-32.3s9.2-15.2,20.5-8.7
		C637.9,412.5,647.1,426.9,647.1,438.2z"/>
	<g>
		<polygon class="st1" points="626.6,426.4 629.6,495.4 623.6,495.4 		"/>
	</g>
</g>
<g>
	<path class="st11" d="M1197.1,512.1c0,13.8-11.2,31.5-25,39.4c-13.8,8-25,3.2-25-10.6s11.2-31.5,25-39.4
		C1185.9,493.5,1197.1,498.3,1197.1,512.1z"/>
	<g>
		<polygon class="st1" points="1172.1,526.5 1175.1,594.1 1169.1,594.1 		"/>
	</g>
</g>
<g>
	<path class="st11" d="M2125.6,283.6c0,11-9,25.2-20,31.5c-11,6.4-20,2.6-20-8.5c0-11,9-25.2,20-31.5
		C2116.7,268.7,2125.6,272.5,2125.6,283.6z"/>
	<g>
		<polygon class="st1" points="2105.6,295.1 2108.6,333.2 2102.6,333.2 		"/>
	</g>
</g>
<line class="st9" x1="339.1" y1="513.4" x2="339.1" y2="611.5"/>
<path class="st22" d="M221.4,529.2"/>
<line class="st23" x1="352.4" y1="520.7" x2="339.1" y2="528.4"/>
<line class="st23" x1="352.4" y1="535.9" x2="339.1" y2="543.6"/>
<line class="st23" x1="352.4" y1="551.2" x2="339.1" y2="558.8"/>
<line class="st23" x1="221.4" y1="447.9" x2="208.1" y2="455.6"/>
<line class="st23" x1="221.4" y1="462.5" x2="208.1" y2="470.2"/>
<line class="st23" x1="221.4" y1="477.1" x2="208.1" y2="484.8"/>
<path class="st24" d="M208.1,536.9"/>
<line class="st9" x1="208.1" y1="536.9" x2="208.1" y2="438.8"/>
<path class="st25" d="M143.5,437.4c-0.6-0.8-1.1-1.5-1.6-2.3l0,0"/>
<g>
	<path class="st1" d="M407.6,590.9c-1.7-1.5-3.2-3.2-4.6-4.9c-0.7-0.9-1.3-1.8-1.9-2.8l-1.7-2.7l-6.8-10.9L379,547.7L352,504
		l2.1,0.6l-20.3,9.3l-2.5,1.2l-0.4,0.2l-0.3,0.1l-0.6,0.3l-1.3,0.5c-0.9,0.3-1.7,0.7-2.6,1l-2.8,0.8c-1.9,0.6-3.7,0.9-5.6,1.3
		c-0.9,0.2-1.9,0.3-2.8,0.4L312,520c-1,0-1.9,0-2.9,0.1h-1.4c-0.5,0-1,0-1.4,0l-2.9-0.2c-0.5,0-1-0.1-1.4-0.1l-1.4-0.2l-2.8-0.5
		c-0.9-0.2-1.9-0.5-2.8-0.7c-0.9-0.3-1.9-0.4-2.8-0.8l-2.7-0.9c-0.5-0.2-0.9-0.3-1.4-0.5l-1.3-0.6l-2.6-1.2
		c-0.9-0.4-1.7-0.9-2.5-1.4s-1.7-0.9-2.5-1.4c-3.2-2.1-6.3-4.4-8.9-7.2c-0.7-0.7-1.4-1.3-2-2l-1.8-2.2c-1.3-1.4-2.3-3-3.4-4.6
		c-0.6-0.8-1.1-1.6-1.5-2.4l-1.5-2.4l-2.9-4.8l-11.8-19l-23.6-38l1.2,0.4l-38,17.5c-0.8,0.4-1.5,0.7-2.4,1.1c-0.8,0.3-1.6,0.7-2.4,1
		c-1.7,0.6-3.4,1.1-5.2,1.4s-3.5,0.5-5.3,0.5c-0.9,0-1.8,0-2.7-0.1l-1.3-0.1c-0.4-0.1-0.9-0.1-1.3-0.2l-1.3-0.2l-1.3-0.3
		c-0.9-0.2-1.7-0.5-2.6-0.7c-1.7-0.5-3.3-1.3-4.9-2.1c-0.8-0.4-1.5-0.9-2.3-1.3c-0.8-0.5-1.5-1-2.2-1.5s-1.4-1.1-2.1-1.7l-1.9-1.8
		c-0.3-0.3-0.3-0.7,0-1s0.7-0.3,0.9,0l0,0l1.9,1.8c0.7,0.5,1.3,1.1,2,1.6s1.4,1,2.1,1.4s1.5,0.9,2.2,1.3c1.5,0.8,3.1,1.4,4.7,1.9
		c0.8,0.3,1.6,0.5,2.5,0.7l1.2,0.3l1.3,0.2c0.4,0.1,0.8,0.1,1.3,0.2l1.3,0.1c0.8,0.1,1.7,0.1,2.5,0.1c1.7,0,3.4-0.2,5.1-0.5
		c1.7-0.3,3.3-0.8,4.9-1.3c0.8-0.3,1.6-0.7,2.4-1c0.7-0.3,1.6-0.7,2.3-1.1l37.8-17.7c0.4-0.2,1,0,1.2,0.4l0,0L247,466l11.9,18.9
		l3,4.7l1.5,2.4c0.5,0.8,1,1.6,1.5,2.3c1.1,1.5,2,3,3.3,4.4l1.8,2.1c0.6,0.7,1.3,1.3,1.9,1.9c2.6,2.6,5.5,4.8,8.5,6.8
		c0.8,0.5,1.6,0.9,2.4,1.4c0.8,0.4,1.6,0.9,2.4,1.3l2.5,1.1l1.2,0.6c0.4,0.2,0.9,0.3,1.3,0.4l2.6,0.9c0.9,0.3,1.8,0.5,2.6,0.7
		c0.9,0.2,1.8,0.5,2.6,0.6l2.7,0.4l1.3,0.2c0.4,0.1,0.9,0.1,1.4,0.1l2.7,0.2c0.5,0,0.9,0.1,1.4,0h1.4c0.9,0,1.8,0,2.7-0.1l2.7-0.3
		c0.9-0.1,1.8-0.2,2.7-0.4c1.8-0.4,3.6-0.7,5.3-1.3l2.6-0.8c0.9-0.3,1.7-0.7,2.6-1l1.3-0.5l0.6-0.3l0.3-0.1l0.3-0.1l2.5-1.2
		l20.3-9.5c0.7-0.4,1.6-0.1,2.1,0.6l0,0l27.3,43.5l13.7,21.7l6.8,10.9l1.7,2.7c0.5,0.8,1.1,1.7,1.8,2.5c1.3,1.6,2.6,3,4.2,4.4
		c0.8,0.7,0.9,2,0.2,2.8C409.7,591.6,408.4,591.6,407.6,590.9L407.6,590.9L407.6,590.9z"/>
</g>
<path class="st26" d="M419.4,595.8c-2-0.8-3.9-1.7-5.7-2.9"/>
<path class="st26" d="M430.1,598.2c-1.9-0.1-3.8-0.4-5.6-0.8"/>
<line class="st25" x1="127.3" y1="440.7" x2="125.3" y2="437.4"/>
<path class="st25" d="M131,446c-0.7-0.8-1.3-1.7-1.9-2.6"/>
<g>
	<path class="st1" d="M398.6,601.9c-1.9-1.3-3.8-2.8-5.5-4.4c-1.7-1.7-3.2-3.5-4.6-5.4c-0.3-0.5-0.7-1-1-1.5l-0.9-1.4l-1.8-2.9
		l-3.6-5.7L367,557.7l-28.4-45.9l2,0.6l-20.3,9.3l-2.5,1.2l-0.4,0.2l-0.3,0.1l-0.6,0.3l-1.3,0.5c-0.9,0.3-1.7,0.7-2.6,1l-2.8,0.8
		c-1.9,0.6-3.7,0.9-5.6,1.3c-0.9,0.2-1.9,0.3-2.8,0.4l-2.9,0.3c-1,0-1.9,0-2.9,0.1h-1.4c-0.5,0-1,0-1.4,0l-2.9-0.2
		c-0.5,0-1-0.1-1.4-0.1l-1.4-0.2l-2.8-0.5c-0.9-0.2-1.9-0.5-2.8-0.7c-0.9-0.3-1.9-0.4-2.8-0.8l-2.7-0.9c-0.5-0.2-0.9-0.3-1.4-0.5
		l-1.3-0.6l-2.6-1.2c-0.9-0.4-1.7-0.9-2.5-1.4s-1.7-0.9-2.5-1.4c-3.2-2.1-6.3-4.4-8.9-7.2c-0.7-0.7-1.4-1.3-2-2L253,508
		c-1.3-1.4-2.3-3-3.4-4.6c-0.6-0.8-1.1-1.6-1.5-2.4l-1.5-2.4l-2.9-4.8l-11.8-19l-23.6-38l1.2,0.4l-38,17.5c-0.8,0.4-1.5,0.7-2.4,1.1
		c-0.8,0.3-1.6,0.7-2.4,1c-1.7,0.6-3.4,1-5.2,1.3s-3.5,0.5-5.3,0.5c-0.9,0-1.8,0-2.7-0.1l-1.3-0.1l-1.3-0.2l-1.3-0.2l-1.3-0.3
		c-0.9-0.2-1.7-0.5-2.6-0.7c-1.7-0.5-3.3-1.3-4.9-2.1c-0.8-0.4-1.5-0.9-2.3-1.3c-0.8-0.5-1.5-1-2.2-1.5s-1.4-1.1-2.1-1.7l-1.9-1.9
		c-0.3-0.3-0.3-0.7,0-1s0.7-0.3,0.9,0l0,0l1.9,1.8c0.7,0.5,1.3,1.1,2,1.6s1.4,1,2.1,1.4c0.7,0.4,1.5,0.9,2.2,1.3
		c1.5,0.8,3.1,1.4,4.7,1.9c0.8,0.3,1.6,0.5,2.5,0.7l1.2,0.3l1.3,0.2l1.3,0.2l1.3,0.1c0.8,0.1,1.7,0.1,2.5,0.1c1.7,0,3.4-0.2,5.1-0.5
		s3.3-0.8,4.9-1.3c0.8-0.3,1.6-0.7,2.4-1c0.7-0.3,1.6-0.7,2.3-1.1l37.8-17.7c0.4-0.2,1,0,1.2,0.4l0,0l23.8,37.9l11.9,18.9l3,4.7
		l1.5,2.4c0.5,0.8,1,1.6,1.5,2.3c1.1,1.5,2,3,3.3,4.4l1.8,2.1c0.6,0.7,1.3,1.3,1.9,1.9c2.6,2.6,5.5,4.8,8.5,6.8
		c0.8,0.5,1.6,0.9,2.4,1.4c0.8,0.4,1.6,0.9,2.4,1.3l2.5,1.1l1.2,0.6c0.4,0.2,0.9,0.3,1.3,0.4l2.6,0.9c0.9,0.3,1.8,0.5,2.6,0.7
		c0.9,0.2,1.8,0.5,2.6,0.6l2.7,0.4l1.3,0.2c0.4,0.1,0.9,0.1,1.4,0.1l2.7,0.2c0.5,0,0.9,0.1,1.4,0h1.4c0.9,0,1.8,0,2.7-0.1l2.7-0.3
		c0.9-0.1,1.8-0.2,2.7-0.4c1.8-0.4,3.6-0.7,5.3-1.3l2.6-0.8c0.9-0.3,1.7-0.7,2.6-1l1.3-0.5l0.6-0.3l0.3-0.1l0.3-0.1l2.5-1.2
		l20.3-9.5c0.7-0.3,1.6-0.1,2,0.6l0,0l28.7,45.7l14.4,22.8l3.6,5.7l1.8,2.9l0.9,1.4c0.3,0.4,0.6,0.9,0.9,1.3
		c1.2,1.7,2.6,3.4,4.1,4.8c1.5,1.5,3.2,2.8,5,4c0.9,0.6,1.2,1.8,0.6,2.8C400.9,602.2,399.6,602.5,398.6,601.9L398.6,601.9
		L398.6,601.9z"/>
</g>
<path class="st26" d="M406.9,603.8c-1-0.4-1.9-0.7-2.9-1.2"/>
<g>
	<path class="st6" d="M449.3,595.5"/>
</g>
<linearGradient id="SVGID_8_" gradientUnits="userSpaceOnUse" x1="195.6" y1="-493.6129" x2="390.2" y2="-493.6129" gradientTransform="matrix(1 0 0 1 0 564.47)">
	<stop  offset="0" style="stop-color:#C8495B;stop-opacity:0.2"/>
	<stop  offset="1" style="stop-color:#C8495B;stop-opacity:0.5"/>
</linearGradient>
<path class="st27" d="M389.9,141.7c0.2-1.3,0.3-2.7,0.3-4.2c0-19.8-16-45-35.8-56.4c-6.8-3.9-13.2-5.7-18.7-5.5
	c-6.1-25.6-26.4-53.5-50.4-67.4C256.4-8.6,233,1.3,233,30.2c0,1.4,0.1,2.8,0.2,4.2c-3.7-4.2-8-7.9-12.5-10.5
	c-12.3-7.1-22.5-4.4-25.1,5.6L389.9,141.7z"/>
<linearGradient id="SVGID_9_" gradientUnits="userSpaceOnUse" x1="1662.1266" y1="-294.4469" x2="1749.4514" y2="-244.03" gradientTransform="matrix(1 0 0 1 0 564.47)">
	<stop  offset="0" style="stop-color:#C8495B;stop-opacity:0.2"/>
	<stop  offset="1" style="stop-color:#C8495B;stop-opacity:0.5"/>
</linearGradient>
<path class="st28" d="M1784,260.6c0-0.3,0-0.7,0-1c0-14.3-11.6-19.3-26-11c-7.7,4.4-14.6,11.8-19.3,19.8
	c-3.7-22.9-25.3-29.6-51.4-14.6c-28.7,16.6-51.9,53.2-51.9,81.9c0,3.6,0.4,6.9,1.1,10L1784,260.6z"/>
<linearGradient id="SVGID_10_" gradientUnits="userSpaceOnUse" x1="2115.7668" y1="-355.3898" x2="2159.3901" y2="-330.204" gradientTransform="matrix(1 0 0 1 0 564.47)">
	<stop  offset="0" style="stop-color:#C8495B;stop-opacity:0.2"/>
	<stop  offset="1" style="stop-color:#C8495B;stop-opacity:0.5"/>
</linearGradient>
<path class="st29" d="M2176.7,204.3c0-0.2,0-0.3,0-0.5c0-7.2-5.8-9.6-13-5.5c-3.8,2.2-7.3,5.9-9.7,9.9c-1.9-11.4-12.6-14.8-25.7-7.3
	c-14.3,8.3-26,26.6-26,41c0,1.8,0.2,3.5,0.5,5L2176.7,204.3z"/>
<linearGradient id="SVGID_11_" gradientUnits="userSpaceOnUse" x1="3895.155" y1="-247.5111" x2="3962.4761" y2="-208.6433" gradientTransform="matrix(-1 0 0 1 4793.207 564.47)">
	<stop  offset="0" style="stop-color:#C8495B;stop-opacity:0.2"/>
	<stop  offset="1" style="stop-color:#C8495B;stop-opacity:0.5"/>
</linearGradient>
<path class="st30" d="M804.1,309.7c0-0.3,0-0.5,0-0.8c0-11.1,9-14.9,20-8.5c5.9,3.4,11.3,9.1,14.9,15.3
	c2.9-17.7,19.5-22.9,39.6-11.3c22.1,12.8,40.1,41.1,40.1,63.2c0,2.8-0.3,5.4-0.8,7.7L804.1,309.7z"/>
<path class="st31" d="M695.9,486l13.7-6.6c2.3-1.1,6.2,1.1,8.5,4.9l8.1,13.3c2.3,3.8,6.3,6,8.5,4.9l0,0c2.1-1.1,5.7,0.8,8.1,4.2
	L754,523c2.3,3.3,5.8,5.2,7.9,4.3l8.7-3.7"/>
<path class="st0" d="M758.3,496.9c0,2.8-2.2,3.7-5,2.1s-5-5.1-5-7.9s2.2-3.7,5-2.1S758.3,494.1,758.3,496.9z"/>
<g>
	<g>
		<polygon class="st11" points="187.8,201.4 291.9,261.6 291.9,179 187.8,118.8 		"/>
		<polygon class="st0" points="325.6,159.5 221.5,99.3 187.8,118.8 291.9,179 		"/>
		<polygon class="st1" points="325.6,242.1 291.9,261.6 291.9,179 325.6,159.5 		"/>
	</g>
	<polygon class="st1" points="208.5,156.7 198.4,150.9 198.4,140.9 208.5,146.6 	"/>
	<polygon class="st1" points="208.5,176.7 198.4,171 198.4,160.9 208.5,166.7 	"/>
	<polygon class="st1" points="276.7,234.9 266.7,229.2 266.7,219.1 276.7,224.9 	"/>
	<polygon class="st1" points="276.7,214.9 266.7,209.1 266.7,199.1 276.7,204.8 	"/>
	<polygon class="st1" points="244.6,215.9 234.6,210.1 234.6,200.1 244.6,205.8 	"/>
	<polygon class="st11" points="305.8,253.7 315.8,247.9 315.8,223.9 305.8,229.7 	"/>
	<polygon class="st1" points="244.6,175.7 234.6,170 234.6,159.9 244.6,165.7 	"/>
	<path class="st0" d="M315.8,197.2c0,2.8-2.2,6.3-5,7.9s-5,0.7-5-2.1s2.2-6.3,5-7.9C313.5,193.4,315.8,194.4,315.8,197.2z"/>
</g>
<g>
	<path class="st11" d="M1036.3,922.7l16.2-35.5l16.2,54.2c4.1,13.6-4.3,20.6-16.2,13.7l0,0C1040.5,948.2,1032.2,931.6,1036.3,922.7z
		"/>
	<g>
		<polygon class="st1" points="1052.5,934.6 1055.5,983.8 1049.5,983.8 		"/>
	</g>
</g>
<g>
	<path class="st0" d="M1234.1,830.9h-8v-11.3c0-2.2,1.8-4,4-4l0,0c2.2,0,4,1.8,4,4V830.9z"/>
	<circle class="st1" cx="1230.4" cy="811.6" r="3.2"/>
	<path class="st11" d="M1230.2,848.5L1230.2,848.5c-2.2,0-4-1.8-4-4V831h8v13.5C1234.1,846.7,1232.4,848.5,1230.2,848.5z"/>
</g>
<g>
	<line class="st3" x1="1176.1" y1="686" x2="1178.2" y2="684.8"/>
	<line class="st3" x1="1166.6" y1="691.5" x2="1172.6" y2="688"/>
	<line class="st3" x1="975" y1="802.1" x2="1162.1" y2="694.1"/>
	<line class="st3" x1="967.6" y1="806.3" x2="971.4" y2="804.2"/>
	<line class="st3" x1="1174.3" y1="711.5" x2="1181.4" y2="707.4"/>
	<line class="st3" x1="947.7" y1="842.3" x2="1169.7" y2="714.1"/>
	<line class="st3" x1="937.7" y1="848.1" x2="943.6" y2="844.7"/>
	<line class="st3" x1="925.8" y1="855" x2="933.1" y2="850.8"/>
	<g>
		<path class="st1" d="M1040,783.1c0,3.5-2.9,8-6.4,10.1c-3.5,2-6.4,0.8-6.4-2.7s2.9-8,6.4-10.1C1037.2,778.4,1040,779.6,1040,783.1
			z"/>
		<path class="st1" d="M1087.9,756.1c0,3.5-2.9,8-6.4,10.1s-6.4,0.8-6.4-2.7s2.9-8,6.4-10.1S1087.9,752.6,1087.9,756.1z"/>
		<path class="st1" d="M1064.4,769c0,3.5-2.9,8-6.4,10.1c-3.5,2-6.4,0.8-6.4-2.7s2.9-8,6.4-10.1
			C1061.6,764.3,1064.4,765.5,1064.4,769z"/>
		<polygon class="st1" points="995.5,738.1 1067.7,696.4 1092,710.4 1019.7,752.1 		"/>
		<polygon class="st0" points="1092,752.9 1019.7,794.7 1019.7,752.1 1092,710.4 		"/>
		<polygon class="st11" points="995.5,780.7 1019.7,794.7 1019.7,752.1 995.5,738.1 		"/>
		<polygon class="st11" points="1040.3,764.4 1029.9,770.4 1029.9,754.8 1040.3,748.8 		"/>
		<polygon class="st11" points="1055.3,754.5 1044.9,760.5 1044.9,746.3 1055.3,740.3 		"/>
		<polygon class="st11" points="1070.2,746 1059.8,752 1059.8,737.8 1070.2,731.8 		"/>
		<polygon class="st1" points="1012.4,770.3 1002,764.3 1002,750.1 1012.4,756.1 		"/>
		<polygon class="st11" points="1085.1,737.4 1074.7,743.4 1074.7,729.1 1085.1,723.1 		"/>
		<path class="st0" d="M1009.8,777.1c-0.8-2.2-2.6-4-4.1-4s-1.9,1.8-1.1,4c0.8,2.2,2.6,4,4.1,4
			C1010.1,781,1010.6,779.2,1009.8,777.1z"/>
	</g>
</g>
<g>
	<path class="st1" d="M956,875.9h-8v-11.3c0-2.2,1.8-4,4-4l0,0c2.2,0,4,1.8,4,4V875.9z"/>
	<circle class="st11" cx="952.2" cy="856.7" r="3.2"/>
	<path class="st0" d="M952,893.5L952,893.5c-2.2,0-4-1.8-4-4V876h8v13.5C956,891.7,954.2,893.5,952,893.5z"/>
</g>
<polygon class="st11" points="976.6,719.3 965.2,725.8 965.2,719.4 976.6,712.8 "/>
<line class="st25" x1="197.3" y1="441.5" x2="197.3" y2="492.6"/>
<line class="st25" x1="181.3" y1="448.5" x2="181.3" y2="482.9"/>
<line class="st25" x1="165.2" y1="456.8" x2="165.2" y2="473.8"/>
<line class="st25" x1="231.4" y1="472.8" x2="231.4" y2="511.6"/>
<line class="st25" x1="247.5" y1="497.8" x2="247.5" y2="520.1"/>
<line class="st25" x1="362.8" y1="547.7" x2="362.8" y2="588.6"/>
<line class="st25" x1="378.9" y1="571.5" x2="378.9" y2="597.1"/>
<line class="st25" x1="280.3" y1="524.5" x2="280.3" y2="540.4"/>
<line class="st25" x1="312.4" y1="524.5" x2="312.4" y2="558.8"/>
<line class="st25" x1="328.5" y1="516.6" x2="328.5" y2="568.7"/>
<line class="st25" x1="263.5" y1="516.6" x2="263.5" y2="531.2"/>
<line class="st25" x1="296.4" y1="527" x2="296.4" y2="550.1"/>
<line class="st32" x1="2000.4" y1="416.1" x2="2013.1" y2="423.3"/>
<line class="st8" x1="2013.1" y1="423.3" x2="2017.9" y2="426.1"/>
<path class="st11" d="M1763.6,365.4c-1.4-3.7-4.4-6.7-6.8-6.7s-3.2,3-1.8,6.7c1.4,3.7,4.4,6.7,6.8,6.7S1765,369.1,1763.6,365.4z"/>
<path class="st11" d="M1270.1,635c0-10.8,8.8-24.6,19.6-30.9c10.8-6.2,19.6-2.5,19.6,8.3L1270.1,635z"/>
<path class="st11" d="M401.5,525.6c0-10.8,8.8-14.5,19.6-8.3c10.8,6.2,19.6,20.1,19.6,30.9L401.5,525.6z"/>
<path class="st11" d="M1019.5,667.2c0-7.8,6.3-10.5,14.1-6s14.1,14.4,14.1,22.2L1019.5,667.2z"/>
<path class="st0" d="M200.6,352.8c-0.3-10.8,8.3-14.8,19.3-8.9s20.2,19.5,20.5,30.3L200.6,352.8z"/>
<path class="st1" d="M1814.2,598.8c0-10.8,8.8-24.6,19.6-30.9c10.8-6.2,19.6-2.5,19.6,8.3L1814.2,598.8z"/>
<polygon class="st15" points="1436.8,404.7 1497.7,369.4 1497.7,428.5 1436.8,463.9 "/>
<g>
	<polygon class="st1" points="51,257.6 165,323.4 165,225.7 51,159.9 	"/>
	<polygon class="st11" points="31,202.7 66.8,223.4 66.8,192.7 31,172 	"/>
	<g>
		<path class="st11" d="M98,251.9l10.1-2.5c1.1-0.3,1.4-1.5,0.7-2.3L98.7,236c-0.9-1-2.5-0.3-2.5,1v13.5
			C96.2,251.5,97.1,252.1,98,251.9z"/>
	</g>
	<g>
		<polygon class="st0" points="138.9,294.2 200.5,329.8 200.5,262.1 138.9,226.5 		"/>
		<line class="st4" x1="176.5" y1="301.2" x2="153" y2="287.6"/>
		<line class="st4" x1="160.6" y1="279.7" x2="153" y2="275.3"/>
		<line class="st4" x1="184.3" y1="293.4" x2="168.6" y2="284.3"/>
		<line class="st4" x1="184.3" y1="281.1" x2="153" y2="263"/>
		<line class="st4" x1="172.2" y1="261.7" x2="153" y2="250.6"/>
		<line class="st4" x1="184.3" y1="268.7" x2="177.7" y2="264.9"/>
	</g>
</g>
<polygon class="st11" points="2017.8,220 2112,165.7 2112,84.9 2017.8,139.3 "/>
<polygon class="st1" points="2001.3,193.8 2030.9,176.7 2030.9,151.3 2001.3,168.4 "/>
<g>
	<path class="st1" d="M2056.7,170.5l8.4-11.7c0.9-1.2,1.2-2.7,0.6-2.6l-8.4,0.5c-0.7,0-2,2.1-2,3.2V171
		C2055.2,171.8,2055.9,171.5,2056.7,170.5z"/>
</g>
<g>
	<polygon class="st0" points="2090.5,166.4 2141.4,137 2141.4,81.1 2090.5,110.4 	"/>
	<line class="st4" x1="2121.5" y1="136.3" x2="2102.1" y2="147.5"/>
	<line class="st4" x1="2108.4" y1="133.7" x2="2102.1" y2="137.3"/>
	<line class="st4" x1="2128" y1="122.4" x2="2115" y2="129.9"/>
	<line class="st4" x1="2128" y1="112.2" x2="2102.1" y2="127.2"/>
	<line class="st4" x1="2118" y1="107.8" x2="2102.1" y2="117"/>
	<line class="st4" x1="2128" y1="102" x2="2122.5" y2="105.2"/>
</g>
<g>
	
		<linearGradient id="SVGID_12_" gradientUnits="userSpaceOnUse" x1="3062.0022" y1="-228.7712" x2="3048.8176" y2="-251.6075" gradientTransform="matrix(-1 0 0 1 3365.8027 564.47)">
		<stop  offset="0" style="stop-color:#F4A04D;stop-opacity:0"/>
		<stop  offset="1" style="stop-color:#F4A04D;stop-opacity:0.5"/>
	</linearGradient>
	<polygon class="st33" points="273.4,318.1 334.2,353.3 303.8,305.3 	"/>
	<polyline class="st15" points="278.7,364.1 278.7,282 303.7,296.9 303.7,306.7 	"/>
	<polygon class="st1" points="293.9,309.5 313.7,320.9 303.8,305.3 	"/>
</g>
<g>
	
		<linearGradient id="SVGID_13_" gradientUnits="userSpaceOnUse" x1="1266.7023" y1="-78.0661" x2="1253.5176" y2="-100.9025" gradientTransform="matrix(1 0 0 1 0 564.47)">
		<stop  offset="0" style="stop-color:#C8495B;stop-opacity:0"/>
		<stop  offset="1" style="stop-color:#C8495B;stop-opacity:0.5"/>
	</linearGradient>
	<polygon class="st34" points="1297.1,468.8 1236.3,504 1266.7,456 	"/>
	<polyline class="st17" points="1291.8,514.8 1291.8,432.7 1266.8,447.6 1266.8,457.4 	"/>
	<polygon class="st11" points="1276.7,460.2 1256.8,471.6 1266.7,456 	"/>
</g>
<path class="st17" d="M696,512c-0.5-9.7,0.1-38.8,0-68.1l74.1,43.3v68.5L696,512z"/>
<path class="st0" d="M876,775"/>
<path class="st0" d="M885.3,787.6"/>
<polygon class="st0" points="866.7,781.3 885.3,791.8 894.6,786.5 894.6,782.3 876,771.8 866.7,777.1 "/>
<polyline class="st8" points="889.3,786.2 944.6,819.9 864.5,867.3 949.6,916 1197.3,771.3 1295.4,828.8 1188.6,892.6 "/>
<polygon class="st1" points="1127.4,907.9 1136.5,917.1 1118.2,940.9 1106.2,934.9 "/>
<path class="st1" d="M1178.7,895.9l-66.7,38.5c-4.1,2.4-7.4,1-7.4-3.1V778.4c0-4.1,3.3-9.3,7.4-11.6l66.7-38.5
	c4.1-2.4,7.4-1,7.4,3.1v152.8C1186.1,888.3,1182.8,893.5,1178.7,895.9z"/>
<path class="st11" d="M1191.2,902.4l-66.7,38.5c-4.1,2.4-7.4,1-7.4-3.1V784.9c0-4.1,3.3-9.3,7.4-11.6l66.7-38.5
	c4.1-2.4,7.4-1,7.4,3.1v152.8C1198.6,894.8,1195.3,900,1191.2,902.4z"/>
<polygon class="st1" points="1126,902.9 1126,781.3 1189.7,744.5 1189.7,866.2 "/>
<polygon class="st0" points="1170.8,811.8 1170.8,771.9 1219.8,743.6 1219.8,783.5 "/>
<g>
	<line class="st4" x1="1205.8" y1="763.7" x2="1211" y2="760.7"/>
	<line class="st4" x1="1194.1" y1="770.5" x2="1200.8" y2="766.6"/>
	<line class="st4" x1="1180" y1="778.6" x2="1188.6" y2="773.6"/>
</g>
<path class="st1" d="M1166.8,899.2c0,3.3-2.6,7.4-5.9,9.3c-3.3,1.9-5.9,0.8-5.9-2.5s2.6-7.4,5.9-9.3
	C1164.1,894.8,1166.8,895.9,1166.8,899.2z"/>
<line class="st3" x1="1135.5" y1="874.5" x2="1180.2" y2="848.7"/>
<path class="st11" d="M1168.6,853.4c1.1-2.9,3.6-5.3,5.5-5.3s2.6,2.4,1.5,5.3c-1.1,2.9-3.6,5.3-5.5,5.3S1167.5,856.3,1168.6,853.4z"
	/>
<path class="st11" d="M1169.2,826.6l-13.7,16.2c-1.2,1.4-3.5,0.6-3.5-1.3V825c0-1.1,0.9-2,2-2l13.7,0.3
	C1169.4,823.4,1170.3,825.3,1169.2,826.6z"/>
<g>
	<path class="st4" d="M1179.1,793.1c3.2-1.9,5.3,1.5,8.5-0.5c3.2-1.9,1.1-5.4,4.3-7.3c3.2-1.9,5.3,1.5,8.5-0.5
		c3.2-1.9,1.1-5.4,4.3-7.3c3.2-1.9,5.3,1.5,8.5-0.5"/>
</g>
</svg>
