<?xml version="1.0" encoding="utf-8"?>
<!-- Generator: Adobe Illustrator 20.0.0, SVG Export Plug-In . SVG Version: 6.00 Build 0)  -->
<!DOCTYPE svg PUBLIC "-//W3C//DTD SVG 1.1//EN" "http://www.w3.org/Graphics/SVG/1.1/DTD/svg11.dtd" [
	<!ENTITY ns_extend "http://ns.adobe.com/Extensibility/1.0/">
	<!ENTITY ns_ai "http://ns.adobe.com/AdobeIllustrator/10.0/">
	<!ENTITY ns_graphs "http://ns.adobe.com/Graphs/1.0/">
	<!ENTITY ns_vars "http://ns.adobe.com/Variables/1.0/">
	<!ENTITY ns_imrep "http://ns.adobe.com/ImageReplacement/1.0/">
	<!ENTITY ns_sfw "http://ns.adobe.com/SaveForWeb/1.0/">
	<!ENTITY ns_custom "http://ns.adobe.com/GenericCustomNamespace/1.0/">
	<!ENTITY ns_adobe_xpath "http://ns.adobe.com/XPath/1.0/">
]>
<svg version="1.1" id="art" xmlns:x="&ns_extend;" xmlns:i="&ns_ai;" xmlns:graph="&ns_graphs;"
	 xmlns="http://www.w3.org/2000/svg" xmlns:xlink="http://www.w3.org/1999/xlink" x="0px" y="0px" width="360px" height="298.2px"
	 viewBox="0 0 360 298.2" style="enable-background:new 0 0 360 298.2;" xml:space="preserve">
<style type="text/css">
	.st0{fill:#F4A04D;}
	.st1{fill:#301C47;}
	.st2{fill:#C8495B;}
	.st3{opacity:0.2;fill:#C8495B;}
	.st4{fill:url(#SVGID_1_);}
</style>
<metadata>
	<sfw  xmlns="&ns_sfw;">
		<optimizationSettings>
			<targetSettings  fileFormat="PNG24Format" targetSettingsID="0">
				<PNG24Format  filtered="false" interlaced="false" matteColor="#000000" noMatteColor="true" transparency="true">
					</PNG24Format>
			</targetSettings>
		</optimizationSettings>
		<slices></slices>
		<sliceSourceBounds  bottomLeftOrigin="true" height="298.2" width="360" x="-1255" y="-246.4"></sliceSourceBounds>
	</sfw>
</metadata>
<g>
	<path class="st0" d="M312.1,193.8c0,9.6-7.8,12.9-17.4,7.4c-9.6-5.5-17.4-17.8-17.4-27.4c0-9.6,7.8-12.9,17.4-7.4
		C304.3,171.9,312.1,184.2,312.1,193.8z"/>
	<g>
		<polygon class="st1" points="294.7,183.8 297.7,225.4 291.7,225.4 		"/>
	</g>
</g>
<g>
	<g>
		<polygon class="st1" points="88.4,172.5 207.5,241.5 207.5,146.9 88.4,78 		"/>
		<polygon class="st0" points="246.1,124.7 127,55.8 88.4,78 207.5,146.9 		"/>
		<polygon class="st2" points="246.1,219.2 207.5,241.5 207.5,146.9 246.1,124.7 		"/>
	</g>
	<polygon class="st1" points="223.3,232.4 234.8,225.8 234.8,198.3 223.3,205 	"/>
	<g>
		<polygon class="st0" points="112,121.4 100.5,114.8 100.5,103.3 112,109.9 		"/>
		<polygon class="st0" points="190.1,211 178.6,204.3 178.6,192.9 190.1,199.5 		"/>
		<polygon class="st0" points="190.1,188 178.6,181.4 178.6,169.9 190.1,176.5 		"/>
		<polygon class="st0" points="153.4,189.2 141.9,182.5 141.9,171 153.4,177.7 		"/>
		<polygon class="st0" points="153.4,143.2 141.9,136.6 141.9,125.1 153.4,131.7 		"/>
	</g>
	<path class="st0" d="M234.8,167.7c0,3.2-2.6,7.2-5.7,9.1c-3.2,1.8-5.7,0.7-5.7-2.4s2.6-7.2,5.7-9.1
		C232.3,163.5,234.8,164.6,234.8,167.7z"/>
</g>
<g>
	<path class="st2" d="M137.1,52.4c-1.8-16.5,2.8-26.5,15.4-28.3c13.6-2,28.2,7.4,41.9,23.2C208.4,63.7,213,80,211.8,95.5
		C187,81.2,162.3,66.9,137.1,52.4z M190.8,68c-2.2-8.5-8.4-16.3-16.8-21.2c-7.5-4.4-14.5-3.6-16.5,2C168.5,55.1,179.5,61.5,190.8,68
		z"/>
	<path class="st2" d="M204.4,107.5c-13.8,12.9-47.4-6.6-60.7-35.4c4.5-0.8,9.1-1.6,13.7-2.4c7.6,15.6,24.8,25.7,32.8,18.8
		C194.9,94.8,199.7,101.2,204.4,107.5z"/>
</g>
<g>
	<path class="st2" d="M123.7,118.6l0.5,0.3l-55.4,87.6L13.5,55l0.5,0.3c-2.2-7.4-3.4-14.7-3.4-21.6C10.5,1.5,36.6-9.6,68.8,9
		c32.2,18.6,58.3,59.8,58.3,92C127.1,107.9,125.9,113.8,123.7,118.6z"/>
	<path class="st1" d="M68.8,37c-16.4-9.5-29.7-3.9-29.7,12.6C39.1,66,52.4,87,68.8,96.5c16.4,9.5,29.7,3.9,29.7-12.6
		C98.6,67.5,85.2,46.5,68.8,37z"/>
</g>
<path class="st3" d="M320.6,273.2l-52.7-30.5L206,278.6L17,169.1l-17,9.8l206,119.4l61.9-35.8l36.7,21.2l16.9-9.8
	C321.2,273.6,320.9,273.4,320.6,273.2z"/>
<linearGradient id="SVGID_1_" gradientUnits="userSpaceOnUse" x1="3212.605" y1="103.6084" x2="3274.4734" y2="139.3282" gradientTransform="matrix(-1 0 0 1 3553.6304 0)">
	<stop  offset="0" style="stop-color:#C8495B;stop-opacity:0.2"/>
	<stop  offset="1" style="stop-color:#C8495B;stop-opacity:0.5"/>
</linearGradient>
<path class="st4" d="M254.6,96.9c0-0.2,0-0.5,0-0.7c0-10.2,8.2-13.7,18.4-7.8c5.4,3.1,10.3,8.3,13.7,14.1
	c2.6-16.2,17.9-21,36.4-10.3c20.3,11.7,36.8,37.7,36.8,58.1c0,2.6-0.3,4.9-0.8,7.1L254.6,96.9z"/>
</svg>
