<?xml version="1.0" encoding="utf-8"?>
<!-- Generator: Adobe Illustrator 20.0.0, SVG Export Plug-In . SVG Version: 6.00 Build 0)  -->
<!DOCTYPE svg PUBLIC "-//W3C//DTD SVG 1.1//EN" "http://www.w3.org/Graphics/SVG/1.1/DTD/svg11.dtd" [
	<!ENTITY ns_extend "http://ns.adobe.com/Extensibility/1.0/">
	<!ENTITY ns_ai "http://ns.adobe.com/AdobeIllustrator/10.0/">
	<!ENTITY ns_graphs "http://ns.adobe.com/Graphs/1.0/">
	<!ENTITY ns_vars "http://ns.adobe.com/Variables/1.0/">
	<!ENTITY ns_imrep "http://ns.adobe.com/ImageReplacement/1.0/">
	<!ENTITY ns_sfw "http://ns.adobe.com/SaveForWeb/1.0/">
	<!ENTITY ns_custom "http://ns.adobe.com/GenericCustomNamespace/1.0/">
	<!ENTITY ns_adobe_xpath "http://ns.adobe.com/XPath/1.0/">
]>
<svg version="1.1" id="Netflix_x5F_Logo_x5F_RGB" xmlns:x="&ns_extend;" xmlns:i="&ns_ai;" xmlns:graph="&ns_graphs;"
	 xmlns="http://www.w3.org/2000/svg" xmlns:xlink="http://www.w3.org/1999/xlink" x="0px" y="0px" width="220px" height="59.1px"
	 viewBox="0 0 220 59.1" style="enable-background:new 0 0 220 59.1;" xml:space="preserve">
<style type="text/css">
	.st0{fill:#E50914;}
</style>
<metadata>
	<sfw  xmlns="&ns_sfw;">
		<slices></slices>
		<sliceSourceBounds  bottomLeftOrigin="true" height="59.1" width="220" x="1169.5" y="-786.3"></sliceSourceBounds>
	</sfw>
</metadata>
<g id="Netflix_x5F_Logo_x5F_RGB_1_">
	<g>
		<path class="st0" d="M169.9,53.6c3.1,0.2,6.2,0.5,9.3,0.8V0h-9.3V53.6z M20.9,33.5L8.8,0H0v59.1c3.1-0.4,6.2-0.9,9.3-1.3V25.7
			L20,56.5c3.4-0.4,6.8-0.8,10.1-1.1V0h-9.3V33.5z M39,54.6c8.5-0.8,17.1-1.4,25.7-1.9v-9.1c-5.5,0.3-11,0.7-16.5,1.1V30.8
			c3.6,0,8.3-0.1,12.5-0.1v-9.1c-3.3,0-8.7,0-12.5,0.1V9.2h16.5V0H39V54.6z M70.7,9.2h9.7v42.7c3.1-0.1,6.2-0.2,9.3-0.3V9.2h9.7V0
			H70.7V9.2z M105.3,51.4l9.3,0V30.3h12.6v-9.1h-12.6V9.2h16.6V0h-25.9V51.4z M220,0h-10.2l-6.7,15.5l-6-15.5h-10l10.8,27.8
			L186.1,55c3.3,0.3,6.5,0.7,9.7,1l6.8-15.8l6.8,17.5c3.5,0.5,7,0.9,10.6,1.4l0,0L207.9,28L220,0z M146.4,0h-9.3v51.8
			c8.4,0.3,16.8,0.7,25.2,1.3V44c-5.3-0.4-10.6-0.7-15.9-0.9V0z"/>
	</g>
</g>
</svg>
