<?xml version="1.0" encoding="utf-8"?>
<!-- Generator: Adobe Illustrator 21.0.2, SVG Export Plug-In . SVG Version: 6.00 Build 0)  -->
<!DOCTYPE svg PUBLIC "-//W3C//DTD SVG 1.1//EN" "http://www.w3.org/Graphics/SVG/1.1/DTD/svg11.dtd" [
	<!ENTITY ns_extend "http://ns.adobe.com/Extensibility/1.0/">
	<!ENTITY ns_ai "http://ns.adobe.com/AdobeIllustrator/10.0/">
	<!ENTITY ns_graphs "http://ns.adobe.com/Graphs/1.0/">
	<!ENTITY ns_vars "http://ns.adobe.com/Variables/1.0/">
	<!ENTITY ns_imrep "http://ns.adobe.com/ImageReplacement/1.0/">
	<!ENTITY ns_sfw "http://ns.adobe.com/SaveForWeb/1.0/">
	<!ENTITY ns_custom "http://ns.adobe.com/GenericCustomNamespace/1.0/">
	<!ENTITY ns_adobe_xpath "http://ns.adobe.com/XPath/1.0/">
]>
<svg version="1.1" id="art" xmlns:x="&ns_extend;" xmlns:i="&ns_ai;" xmlns:graph="&ns_graphs;"
	 xmlns="http://www.w3.org/2000/svg" xmlns:xlink="http://www.w3.org/1999/xlink" x="0px" y="0px" width="510px" height="702px"
	 viewBox="0 0 510 702" style="enable-background:new 0 0 510 702;" xml:space="preserve">
<style type="text/css">
	.st0{fill:url(#SVGID_1_);}
	.st1{fill:url(#SVGID_2_);}
	.st2{opacity:0.2;}
	.st3{fill:url(#SVGID_3_);}
	.st4{fill:url(#SVGID_4_);}
	.st5{fill:url(#SVGID_5_);}
	.st6{fill:url(#SVGID_6_);}
	.st7{fill:url(#SVGID_7_);}
	.st8{fill:url(#SVGID_8_);}
	.st9{fill:url(#SVGID_9_);}
	.st10{fill:url(#SVGID_10_);}
	.st11{fill:url(#SVGID_11_);}
	.st12{fill:url(#SVGID_12_);}
	.st13{fill:none;stroke:url(#SVGID_13_);stroke-width:6;stroke-linecap:round;stroke-linejoin:round;stroke-miterlimit:10;}
	.st14{fill:none;stroke:url(#SVGID_14_);stroke-width:6;stroke-linecap:round;stroke-linejoin:round;stroke-miterlimit:10;}
	.st15{fill:none;stroke:url(#SVGID_15_);stroke-width:6;stroke-linecap:round;stroke-linejoin:round;stroke-miterlimit:10;}
	.st16{fill:none;stroke:url(#SVGID_16_);stroke-width:6;stroke-linecap:round;stroke-linejoin:round;stroke-miterlimit:10;}
	.st17{fill:none;stroke:url(#SVGID_17_);stroke-width:6;stroke-linecap:round;stroke-linejoin:round;stroke-miterlimit:10;}
	.st18{fill:none;stroke:#C8495B;stroke-width:4;stroke-linecap:round;stroke-miterlimit:10;}
	.st19{fill:#F4A04D;}
	.st20{fill:url(#SVGID_18_);}
	.st21{fill:url(#SVGID_19_);}
	.st22{fill:none;stroke:#F4A04D;stroke-width:4;stroke-linecap:round;stroke-miterlimit:10;}
	.st23{fill:#C8495B;}
	.st24{fill:url(#SVGID_20_);stroke:#301C47;stroke-width:5;stroke-miterlimit:10;}
	.st25{fill:none;stroke:#301C47;stroke-width:5;stroke-linecap:square;stroke-miterlimit:10;}
	.st26{fill:none;stroke:#301C47;stroke-width:5;stroke-linecap:round;stroke-miterlimit:10;}
	.st27{fill:url(#SVGID_21_);}
	.st28{fill:#301C47;}
	.st29{fill:url(#SVGID_22_);}
	.st30{fill:url(#SVGID_23_);}
	.st31{fill:#FFFFFF;}
	.st32{fill:url(#SVGID_24_);}
	.st33{fill:url(#SVGID_25_);}
</style>
<metadata>
	<sfw  xmlns="&ns_sfw;">
		<optimizationSettings>
			<targetSettings  fileFormat="PNG24Format" targetSettingsID="0">
				<PNG24Format  filtered="false" interlaced="false" matteColor="#000000" noMatteColor="true" transparency="true">
					</PNG24Format>
			</targetSettings>
		</optimizationSettings>
		<slices></slices>
		<sliceSourceBounds  bottomLeftOrigin="true" height="670.4" width="501" x="5" y="17.8"></sliceSourceBounds>
	</sfw>
</metadata>
<linearGradient id="SVGID_1_" gradientUnits="userSpaceOnUse" x1="157.0877" y1="3445.6018" x2="328.3227" y2="3201.0527" gradientTransform="matrix(1 0 0 1 0 -2736.0283)">
	<stop  offset="0.4836" style="stop-color:#C8495B;stop-opacity:0"/>
	<stop  offset="1" style="stop-color:#C8495B;stop-opacity:0.5"/>
</linearGradient>
<path class="st0" d="M67.8,647l54.6,31.5l248.1-0.1l116.3-67.2l1.1-34.5L178.6,398.7c-2.2,2.3-53.5,32.5-110.8,65.9V647z"/>
<linearGradient id="SVGID_2_" gradientUnits="userSpaceOnUse" x1="63.1678" y1="568.4853" x2="464.1172" y2="568.4853">
	<stop  offset="0" style="stop-color:#F4A04D;stop-opacity:0.5"/>
	<stop  offset="0.7005" style="stop-color:#F4A04D;stop-opacity:0"/>
</linearGradient>
<path class="st1" d="M453,590.4c-36.2,62.8-150.4,103.8-255,91.8S38,609.4,74.3,546.6s150.4-103.8,255-91.8S489.3,527.6,453,590.4z"
	/>
<g class="st2">
	
		<linearGradient id="SVGID_3_" gradientUnits="userSpaceOnUse" x1="202.3498" y1="2560.9292" x2="267.7234" y2="2560.9292" gradientTransform="matrix(1 0.5774 0 1 0 -2446.4402)">
		<stop  offset="0" style="stop-color:#301C47;stop-opacity:0.2"/>
		<stop  offset="1" style="stop-color:#301C47;stop-opacity:0.5"/>
	</linearGradient>
	<polygon class="st3" points="267.7,282.1 202.3,244.4 202.3,218.3 267.7,256 	"/>
	
		<linearGradient id="SVGID_4_" gradientUnits="userSpaceOnUse" x1="373.2498" y1="2561.5867" x2="438.6234" y2="2561.5867" gradientTransform="matrix(1 0.5774 0 1 0 -2446.4402)">
		<stop  offset="0" style="stop-color:#301C47;stop-opacity:0.2"/>
		<stop  offset="1" style="stop-color:#301C47;stop-opacity:0.5"/>
	</linearGradient>
	<polygon class="st4" points="438.6,381.4 373.2,343.8 373.2,317.6 438.6,355.3 	"/>
	<g>
		
			<linearGradient id="SVGID_5_" gradientUnits="userSpaceOnUse" x1="297.6787" y1="2456.7458" x2="362.9612" y2="2456.7458" gradientTransform="matrix(1 0.5774 0 1 0 -2446.4402)">
			<stop  offset="0" style="stop-color:#301C47;stop-opacity:0.2"/>
			<stop  offset="1" style="stop-color:#301C47;stop-opacity:0.5"/>
		</linearGradient>
		<polygon class="st5" points="363,232.9 297.7,195.3 297.7,169.1 363,206.8 		"/>
		
			<linearGradient id="SVGID_6_" gradientUnits="userSpaceOnUse" x1="373.2498" y1="2491.8428" x2="438.6234" y2="2491.8428" gradientTransform="matrix(1 0.5774 0 1 0 -2446.4402)">
			<stop  offset="0" style="stop-color:#301C47;stop-opacity:0.2"/>
			<stop  offset="1" style="stop-color:#301C47;stop-opacity:0.5"/>
		</linearGradient>
		<polygon class="st6" points="438.6,311.7 373.2,274 373.2,247.9 438.6,285.6 		"/>
	</g>
	
		<linearGradient id="SVGID_7_" gradientUnits="userSpaceOnUse" x1="202.3498" y1="2630.7644" x2="267.7234" y2="2630.7644" gradientTransform="matrix(1 0.5774 0 1 0 -2446.4402)">
		<stop  offset="0" style="stop-color:#301C47;stop-opacity:0.2"/>
		<stop  offset="1" style="stop-color:#301C47;stop-opacity:0.5"/>
	</linearGradient>
	<polygon class="st7" points="267.7,351.9 202.3,314.3 202.3,288.1 267.7,325.8 	"/>
	
		<linearGradient id="SVGID_8_" gradientUnits="userSpaceOnUse" x1="329.455" y1="2680.6812" x2="394.7375" y2="2680.6812" gradientTransform="matrix(1 0.5774 0 1 0 -2446.4402)">
		<stop  offset="0" style="stop-color:#301C47;stop-opacity:0.2"/>
		<stop  offset="1" style="stop-color:#301C47;stop-opacity:0.5"/>
	</linearGradient>
	<polygon class="st8" points="394.7,475.2 329.5,437.5 329.5,411.4 394.7,449.1 	"/>
	
		<linearGradient id="SVGID_9_" gradientUnits="userSpaceOnUse" x1="400.4736" y1="2621.3933" x2="465.8472" y2="2621.3933" gradientTransform="matrix(1 0.5774 0 1 0 -2446.4402)">
		<stop  offset="0" style="stop-color:#301C47;stop-opacity:0.2"/>
		<stop  offset="1" style="stop-color:#301C47;stop-opacity:0.5"/>
	</linearGradient>
	<polygon class="st9" points="465.8,457 400.5,419.2 400.5,393.1 465.8,430.9 	"/>
	
		<linearGradient id="SVGID_10_" gradientUnits="userSpaceOnUse" x1="163.1985" y1="2595.8533" x2="228.481" y2="2595.8533" gradientTransform="matrix(1 0.5774 0 1 0 -2446.4402)">
		<stop  offset="0" style="stop-color:#301C47;stop-opacity:0.2"/>
		<stop  offset="1" style="stop-color:#301C47;stop-opacity:0.5"/>
	</linearGradient>
	<polygon class="st10" points="228.5,294.4 163.2,256.7 163.2,230.6 228.5,268.3 	"/>
	<g>
		
			<linearGradient id="SVGID_11_" gradientUnits="userSpaceOnUse" x1="182.7742" y1="2526.7075" x2="248.1478" y2="2526.7075" gradientTransform="matrix(1 0.5774 0 1 0 -2446.4402)">
			<stop  offset="0" style="stop-color:#301C47;stop-opacity:0.2"/>
			<stop  offset="1" style="stop-color:#301C47;stop-opacity:0.5"/>
		</linearGradient>
		<polygon class="st11" points="248.1,236.6 182.8,198.9 182.8,172.8 248.1,210.5 		"/>
		
			<linearGradient id="SVGID_12_" gradientUnits="userSpaceOnUse" x1="400.4736" y1="2526.292" x2="465.8472" y2="2526.292" gradientTransform="matrix(1 0.5774 0 1 0 -2446.4402)">
			<stop  offset="0" style="stop-color:#301C47;stop-opacity:0.2"/>
			<stop  offset="1" style="stop-color:#301C47;stop-opacity:0.5"/>
		</linearGradient>
		<polygon class="st12" points="465.8,361.9 400.5,324.2 400.5,298 465.8,335.7 		"/>
	</g>
</g>
<g>
	<g>
		<g>
			
				<linearGradient id="SVGID_13_" gradientUnits="userSpaceOnUse" x1="353.2189" y1="3574.752" x2="353.2189" y2="3574.752" gradientTransform="matrix(1 0 0 1 0 -3300.47)">
				<stop  offset="0.4618" style="stop-color:#F4A04D;stop-opacity:0"/>
				<stop  offset="1" style="stop-color:#F4A04D;stop-opacity:0.5"/>
			</linearGradient>
			<path class="st13" d="M353.2,274.3"/>
			
				<linearGradient id="SVGID_14_" gradientUnits="userSpaceOnUse" x1="265.7249" y1="3592.5977" x2="362.7745" y2="3592.5977" gradientTransform="matrix(1 0 0 1 0 -3300.47)">
				<stop  offset="0" style="stop-color:#C8495B;stop-opacity:0.1"/>
				<stop  offset="1" style="stop-color:#C8495B;stop-opacity:0.5"/>
			</linearGradient>
			<path class="st14" d="M353.2,274.3l-64.7,52.6l-19.8-11.6l71.3-58l19.8,11.6"/>
		</g>
		
			<linearGradient id="SVGID_15_" gradientUnits="userSpaceOnUse" x1="248.1524" y1="3525.6306" x2="309.5723" y2="3525.6306" gradientTransform="matrix(1 0 0 1 0 -3300.47)">
			<stop  offset="0" style="stop-color:#F4A04D;stop-opacity:0.1"/>
			<stop  offset="1" style="stop-color:#F4A04D;stop-opacity:0.5"/>
		</linearGradient>
		<polyline class="st15" points="294.5,268.5 306.5,259.1 275.6,196 251.2,181.8 288.1,255.7 		"/>
		
			<linearGradient id="SVGID_16_" gradientUnits="userSpaceOnUse" x1="288.1185" y1="3556.1777" x2="288.1185" y2="3556.1777" gradientTransform="matrix(1 0 0 1 0 -3300.47)">
			<stop  offset="0.4618" style="stop-color:#F4A04D;stop-opacity:0"/>
			<stop  offset="1" style="stop-color:#F4A04D;stop-opacity:0.5"/>
		</linearGradient>
		<path class="st16" d="M288.1,255.7"/>
		
			<linearGradient id="SVGID_17_" gradientUnits="userSpaceOnUse" x1="319.8994" y1="3659.4734" x2="383.4427" y2="3659.4734" gradientTransform="matrix(1 0 0 1 0 -3300.47)">
			<stop  offset="0" style="stop-color:#F4A04D;stop-opacity:0.1"/>
			<stop  offset="1" style="stop-color:#F4A04D;stop-opacity:0.5"/>
		</linearGradient>
		<polyline class="st17" points="334.9,313.7 322.9,323.5 356,390.1 380.4,404.3 342.7,329.2 		"/>
	</g>
</g>
<g>
	<g>
		<path class="st18" d="M440.4,417.9v19.6c0,9.2,0.7,18.8,2.1,28.7l4.9,35.6c1.4,9.9,2.1,19.5,2.1,28.7v3.7v40.1"/>
		<polygon class="st19" points="450,427.2 430.9,416.1 440.4,412.1 		"/>
	</g>
	<linearGradient id="SVGID_18_" gradientUnits="userSpaceOnUse" x1="387.8182" y1="367.9749" x2="500.6946" y2="302.8057">
		<stop  offset="0" style="stop-color:#F4A04D"/>
		<stop  offset="0.3377" style="stop-color:#F39E4D"/>
		<stop  offset="0.5274" style="stop-color:#EF954F"/>
		<stop  offset="0.6803" style="stop-color:#E88851"/>
		<stop  offset="0.8137" style="stop-color:#DE7454"/>
		<stop  offset="0.9331" style="stop-color:#D15B58"/>
		<stop  offset="1" style="stop-color:#C8495B"/>
	</linearGradient>
	<path class="st20" d="M506,329.1c0,35.2-28.5,81.9-63.7,81.9s-63.7-46.7-63.7-81.9s28.5-63.7,63.7-63.7S506,293.9,506,329.1z"/>
</g>
<g>
	<linearGradient id="SVGID_19_" gradientUnits="userSpaceOnUse" x1="16.8416" y1="185.8699" x2="160.7591" y2="102.7791">
		<stop  offset="0" style="stop-color:#C8495B"/>
		<stop  offset="0.399" style="stop-color:#C94B5B"/>
		<stop  offset="0.5781" style="stop-color:#CD5259"/>
		<stop  offset="0.7133" style="stop-color:#D35F57"/>
		<stop  offset="0.8263" style="stop-color:#DC7155"/>
		<stop  offset="0.9245" style="stop-color:#E88851"/>
		<stop  offset="1" style="stop-color:#F4A04D"/>
	</linearGradient>
	<path class="st21" d="M167.5,136.3c0,44.9-36.4,104.5-81.3,104.5S5,181.2,5,136.3S41.4,55,86.3,55S167.5,91.4,167.5,136.3z"/>
	<g>
		<path class="st22" d="M83.2,253.1v37.3c0,12.7-4.1,22.9-11.6,28.9l0,0c-7.6,6-11.6,16-11.6,28.9v109.3"/>
		<polygon class="st23" points="100.9,267.7 68.1,248.9 84.5,241.9 		"/>
	</g>
</g>
<g>
	<linearGradient id="SVGID_20_" gradientUnits="userSpaceOnUse" x1="134.4891" y1="455.1415" x2="240.5402" y2="455.1415">
		<stop  offset="0.2995" style="stop-color:#C8495B"/>
		<stop  offset="1" style="stop-color:#F4A04D"/>
	</linearGradient>
	<polyline class="st24" points="240.5,431.8 189.1,478.5 134.5,438.5 	"/>
	<path class="st25" d="M226.8,537.5c-7.3,12.6-30.1,20.8-51.1,18.4s-32-14.6-24.8-27.1c7.3-12.6,30.1-20.8,51.1-18.4
		S234.1,524.9,226.8,537.5z"/>
	<line class="st26" x1="189.2" y1="528" x2="189.2" y2="478.8"/>
	<linearGradient id="SVGID_21_" gradientUnits="userSpaceOnUse" x1="130.131" y1="421.0551" x2="247.6863" y2="421.0551">
		<stop  offset="0.2995" style="stop-color:#C8495B"/>
		<stop  offset="1" style="stop-color:#F4A04D"/>
	</linearGradient>
	<path class="st27" d="M208.1,391.9c-30.7-3.5-64.1,8.5-74.8,26.9c-3.3,5.7-4,11.4-2.5,16.6c7.6,7.4,20.2,12.8,36.4,14.7
		c31,3.6,64.5-7,79.6-24.2C251.5,409.7,235.6,395.1,208.1,391.9z"/>
	<path class="st25" d="M251.2,419.9c-11.9,20.7-49.5,34.2-83.9,30.2c-34.4-4-52.7-23.9-40.7-44.6c11.9-20.7,49.5-34.2,83.9-30.2
		S263.2,399.3,251.2,419.9z"/>
	<g>
		<circle class="st23" cx="206.7" cy="399.9" r="14.5"/>
		<g>
			<path class="st28" d="M206.3,389.7l-0.4-2.6c-0.1-0.4-0.1-0.9-0.2-1.2c-0.1-0.3-0.2-0.5-0.4-0.8c-0.6-1.1-1.8-2-2.8-2.3
				c-1.4-0.3-2.2-1.7-1.9-3.1s1.7-2.2,3.1-1.9c0.4,0.1,0.7,0.2,0.9,0.4l0.4,0.3c1,0.7,1.7,1.6,2.3,2.5c0.6,0.9,1,1.9,1.2,3
				c0.1,0.5,0.2,1.1,0.1,1.7c-0.1,0.5-0.1,0.9-0.2,1.3l-0.4,2.6c-0.1,0.5-0.5,0.8-1,0.7C206.6,390.3,206.3,390,206.3,389.7z"/>
		</g>
	</g>
	<g>
		<path class="st28" d="M274,402.2l-60.9,27.9c-0.9,0.4-2,0-2.4-0.9c-0.4-0.9,0-2,0.9-2.4l59.9-30c1.5-0.7,3.3-0.1,4,1.3
			C276.2,399.6,275.6,401.4,274,402.2C274.1,402.2,274.1,402.2,274,402.2z"/>
	</g>
	<g>
		<circle class="st19" cx="272.7" cy="399.5" r="5.4"/>
	</g>
</g>
<g>
	<path class="st28" d="M349.3,483.9l-17.9-64.4l-2.7-44.3l-37.3,0.3l-2.7,43.4l-16.4,70.2c-0.4,1.2-0.5,2.5-0.6,3.7h0v137.4h0.1
		c0.6,8.8,10.5,16.2,26.1,18c20.3,2.3,42.5-5.6,49.5-17.8c1.7-2.9,2.3-5.8,2.1-8.6V488C349.6,486.6,349.6,485.2,349.3,483.9z"/>
	<linearGradient id="SVGID_22_" gradientUnits="userSpaceOnUse" x1="271.7123" y1="511.9873" x2="349.5674" y2="511.9873">
		<stop  offset="0.6361" style="stop-color:#C8495B;stop-opacity:0"/>
		<stop  offset="1" style="stop-color:#C8495B;stop-opacity:0.5"/>
	</linearGradient>
	<path class="st29" d="M349.3,483.9l-17.9-64.4l-2.7-44.3l-37.3,0.3l-2.7,43.4l-16.4,70.2c-0.4,1.2-0.5,2.5-0.6,3.7h0v137.4h0.1
		c0.6,8.8,10.5,16.2,26.1,18c20.3,2.3,42.5-5.6,49.5-17.8c1.7-2.9,2.3-5.8,2.1-8.6V488C349.6,486.6,349.6,485.2,349.3,483.9z"/>
	<g>
		<path class="st19" d="M350.2,492.3c-0.2,2.1-0.9,4.2-2.1,6.4c-7.2,12.4-29.7,20.5-50.4,18.1c-15.9-1.8-26-9.3-26.6-18.3H271v88.8
			h0.1c0.6,9,10.7,16.5,26.6,18.3c20.7,2.4,43.2-5.7,50.4-18.1c1.7-3,2.4-5.9,2.1-8.7V492.3z"/>
	</g>
	<g>
		<path class="st19" d="M331.3,371.1v-10.6c0.6-5.4-5.1-10.1-14.5-11.2c-11.3-1.3-23.5,3.1-27.4,9.9c-0.8,1.4-1.2,2.7-1.2,4.1h0
			v12.5h0c0.3,4.9,5.8,9,14.5,10c11.3,1.3,23.5-3.1,27.4-9.9C331.1,374.3,331.4,372.7,331.3,371.1z"/>
		<linearGradient id="SVGID_23_" gradientUnits="userSpaceOnUse" x1="288.198" y1="372.7917" x2="331.3387" y2="372.7917">
			<stop  offset="0.2995" style="stop-color:#C8495B"/>
			<stop  offset="1" style="stop-color:#F4A04D"/>
		</linearGradient>
		<path class="st30" d="M288.2,363.1c-0.2,5.2,5.5,9.6,14.5,10.7c11.3,1.3,23.5-3.1,27.4-9.9c0.9-1.5,1.2-2.9,1.2-4.3l0,11.8
			c0.1,1.4-0.3,3-1.2,4.5c-3.9,6.8-16.2,11.2-27.4,9.9c-9-1-14.6-5.4-14.5-10.5L288.2,363.1z"/>
	</g>
	<g>
		<g>
			<g>
				<path class="st31" d="M301.5,545l5.6,3.2l-20.2,16.4l-5.6-3.2L301.5,545z"/>
			</g>
			<polygon class="st28" points="283.3,527.6 276.3,523.6 288.5,548.2 292,545.5 			"/>
			<polygon class="st23" points="300,561 296.7,563.8 306,582.7 312.9,586.7 			"/>
		</g>
	</g>
</g>
<linearGradient id="SVGID_24_" gradientUnits="userSpaceOnUse" x1="-3264.4814" y1="3366.6887" x2="-3533.9978" y2="2899.8752" gradientTransform="matrix(-1 0 0 1 -3090.7495 -2736.0283)">
	<stop  offset="0.2995" style="stop-color:#F4A04D;stop-opacity:0"/>
	<stop  offset="1" style="stop-color:#CF5759;stop-opacity:0.5"/>
</linearGradient>
<polygon class="st32" points="65.3,569.5 487.8,574 336.9,103.8 191.5,112.5 "/>
<g>
	<path class="st28" d="M313.7,78.7l-30.9-16.5c4.4,3.1,5.9,7.6,3.3,12.2c-4.3,7.4-17.8,12.3-30.2,10.9c-12.4-1.4-19-8.6-14.7-16.1
		c0.4-0.6,0.8-1.3,1.3-1.9l0,0l-31.5,21.3c-0.5,0.3-1,0.7-1.6,1.1l-0.2,0.1l0,0c-6.8,4.8-12.3,10.3-15.8,16.3
		c-13.4,23.3,7.1,45.8,45.9,50.2s81.1-10.8,94.5-34C343.8,105,334.9,88,313.7,78.7z"/>
	<path class="st23" d="M286.1,74.4c-4.3,7.4-17.8,12.3-30.2,10.9s-19-8.6-14.7-16.1c4.3-7.4,17.8-12.3,30.2-10.9
		S290.4,66.9,286.1,74.4z"/>
	<linearGradient id="SVGID_25_" gradientUnits="userSpaceOnUse" x1="263.8303" y1="85.4333" x2="263.3531" y2="58.0925">
		<stop  offset="0.4618" style="stop-color:#F4A04D;stop-opacity:0"/>
		<stop  offset="1" style="stop-color:#F4A04D;stop-opacity:0.5"/>
	</linearGradient>
	<path class="st33" d="M286.1,74.4c-4.3,7.4-17.8,12.3-30.2,10.9s-19-8.6-14.7-16.1c4.3-7.4,17.8-12.3,30.2-10.9
		S290.4,66.9,286.1,74.4z"/>
</g>
<g>
	<g>
		<path class="st19" d="M264.4,14.8l2,55.1c0.1,1.7-1.2,3-2.9,3.1c-1.7,0.1-3-1.2-3.1-2.9c0-0.1,0-0.1,0-0.2l2-55.1c0-0.6,0.5-1,1-1
			C263.9,13.9,264.3,14.3,264.4,14.8z"/>
	</g>
</g>
</svg>
