<?xml version="1.0" encoding="utf-8"?>
<!-- Generator: Adobe Illustrator 20.0.0, SVG Export Plug-In . SVG Version: 6.00 Build 0)  -->
<!DOCTYPE svg PUBLIC "-//W3C//DTD SVG 1.1//EN" "http://www.w3.org/Graphics/SVG/1.1/DTD/svg11.dtd" [
	<!ENTITY ns_extend "http://ns.adobe.com/Extensibility/1.0/">
	<!ENTITY ns_ai "http://ns.adobe.com/AdobeIllustrator/10.0/">
	<!ENTITY ns_graphs "http://ns.adobe.com/Graphs/1.0/">
	<!ENTITY ns_vars "http://ns.adobe.com/Variables/1.0/">
	<!ENTITY ns_imrep "http://ns.adobe.com/ImageReplacement/1.0/">
	<!ENTITY ns_sfw "http://ns.adobe.com/SaveForWeb/1.0/">
	<!ENTITY ns_custom "http://ns.adobe.com/GenericCustomNamespace/1.0/">
	<!ENTITY ns_adobe_xpath "http://ns.adobe.com/XPath/1.0/">
]>
<svg version="1.1" id="art" xmlns:x="&ns_extend;" xmlns:i="&ns_ai;" xmlns:graph="&ns_graphs;"
	 xmlns="http://www.w3.org/2000/svg" xmlns:xlink="http://www.w3.org/1999/xlink" x="0px" y="0px" width="510px" height="702px"
	 viewBox="0 0 510 702" style="enable-background:new 0 0 510 702;" xml:space="preserve">
<style type="text/css">
	.st0{opacity:0.2;}
	.st1{fill:url(#SVGID_1_);}
	.st2{fill:url(#SVGID_2_);}
	.st3{fill:url(#SVGID_3_);}
	.st4{fill:url(#SVGID_4_);}
	.st5{fill:url(#SVGID_5_);}
	.st6{fill:url(#SVGID_6_);}
	.st7{fill:url(#SVGID_7_);}
	.st8{fill:url(#SVGID_8_);}
	.st9{fill:url(#SVGID_9_);}
	.st10{fill:url(#SVGID_10_);}
	.st11{fill:url(#SVGID_11_);}
	.st12{fill:none;stroke:#301C47;stroke-width:5;stroke-linecap:square;stroke-miterlimit:10;}
	.st13{fill:#C8495B;}
	.st14{fill:url(#SVGID_12_);}
	.st15{fill:none;stroke:#301C47;stroke-width:4;stroke-miterlimit:10;}
	.st16{fill:none;stroke:#301C47;stroke-width:5;stroke-linecap:round;stroke-miterlimit:10;}
	.st17{fill:#F4A04D;}
	.st18{fill:none;stroke:url(#SVGID_13_);stroke-width:6;stroke-linecap:round;stroke-linejoin:round;stroke-miterlimit:10;}
	.st19{fill:none;stroke:url(#SVGID_14_);stroke-width:6;stroke-linecap:round;stroke-linejoin:round;stroke-miterlimit:10;}
	.st20{fill:none;stroke:url(#SVGID_15_);stroke-width:6;stroke-linecap:round;stroke-linejoin:round;stroke-miterlimit:10;}
	.st21{fill:none;stroke:url(#SVGID_16_);stroke-width:6;stroke-linecap:round;stroke-linejoin:round;stroke-miterlimit:10;}
	.st22{fill:none;stroke:url(#SVGID_17_);stroke-width:6;stroke-linecap:round;stroke-linejoin:round;stroke-miterlimit:10;}
	.st23{fill:#301C47;}
	.st24{fill:url(#SVGID_18_);}
	.st25{fill:#FFFFFF;}
	.st26{fill:url(#SVGID_19_);}
	.st27{fill:none;stroke:#F4A04D;stroke-width:4;stroke-linecap:round;stroke-miterlimit:10;}
	.st28{fill:none;stroke:#C8495B;stroke-width:4;stroke-linecap:round;stroke-miterlimit:10;}
	.st29{fill:url(#SVGID_20_);}
	.st30{fill:url(#SVGID_21_);}
</style>
<metadata>
	<sfw  xmlns="&ns_sfw;">
		<optimizationSettings>
			<targetSettings  fileFormat="PNG24Format" targetSettingsID="0">
				<PNG24Format  filtered="false" interlaced="false" matteColor="#000000" noMatteColor="true" transparency="true">
					</PNG24Format>
			</targetSettings>
		</optimizationSettings>
		<slices></slices>
		<sliceSourceBounds  bottomLeftOrigin="true" height="701.5" width="503.9" x="1.7" y="0.2"></sliceSourceBounds>
	</sfw>
</metadata>
<g class="st0">
	
		<linearGradient id="SVGID_1_" gradientUnits="userSpaceOnUse" x1="196.5" y1="178.712" x2="268.3" y2="178.712" gradientTransform="matrix(1 0.5774 0 -1 0 257.8742)">
		<stop  offset="0" style="stop-color:#301C47;stop-opacity:0.2"/>
		<stop  offset="1" style="stop-color:#301C47;stop-opacity:0.5"/>
	</linearGradient>
	<polygon class="st1" points="268.3,248.4 196.5,207 196.5,178.3 268.3,219.7 	"/>
	
		<linearGradient id="SVGID_2_" gradientUnits="userSpaceOnUse" x1="384.2" y1="177.99" x2="456" y2="177.99" gradientTransform="matrix(1 0.5774 0 -1 0 257.8742)">
		<stop  offset="0" style="stop-color:#301C47;stop-opacity:0.2"/>
		<stop  offset="1" style="stop-color:#301C47;stop-opacity:0.5"/>
	</linearGradient>
	<polygon class="st2" points="456,357.5 384.2,316.1 384.2,287.4 456,328.8 	"/>
	<g>
		
			<linearGradient id="SVGID_3_" gradientUnits="userSpaceOnUse" x1="301.2" y1="293.1369" x2="372.9" y2="293.1369" gradientTransform="matrix(1 0.5774 0 -1 0 257.8742)">
			<stop  offset="0" style="stop-color:#301C47;stop-opacity:0.2"/>
			<stop  offset="1" style="stop-color:#301C47;stop-opacity:0.5"/>
		</linearGradient>
		<polygon class="st3" points="372.9,194.4 301.2,153 301.2,124.3 372.9,165.7 		"/>
		
			<linearGradient id="SVGID_4_" gradientUnits="userSpaceOnUse" x1="384.2" y1="254.59" x2="456" y2="254.59" gradientTransform="matrix(1 0.5774 0 -1 0 257.8742)">
			<stop  offset="0" style="stop-color:#301C47;stop-opacity:0.2"/>
			<stop  offset="1" style="stop-color:#301C47;stop-opacity:0.5"/>
		</linearGradient>
		<polygon class="st4" points="456,280.9 384.2,239.5 384.2,210.8 456,252.2 		"/>
	</g>
	
		<linearGradient id="SVGID_5_" gradientUnits="userSpaceOnUse" x1="196.5" y1="102.012" x2="268.3" y2="102.012" gradientTransform="matrix(1 0.5774 0 -1 0 257.8742)">
		<stop  offset="0" style="stop-color:#301C47;stop-opacity:0.2"/>
		<stop  offset="1" style="stop-color:#301C47;stop-opacity:0.5"/>
	</linearGradient>
	<polygon class="st5" points="268.3,325.1 196.5,283.7 196.5,255 268.3,296.4 	"/>
	
		<linearGradient id="SVGID_6_" gradientUnits="userSpaceOnUse" x1="336.1" y1="47.1882" x2="407.8" y2="47.1882" gradientTransform="matrix(1 0.5774 0 -1 0 257.8742)">
		<stop  offset="0" style="stop-color:#301C47;stop-opacity:0.2"/>
		<stop  offset="1" style="stop-color:#301C47;stop-opacity:0.5"/>
	</linearGradient>
	<polygon class="st6" points="407.8,460.5 336.1,419.1 336.1,390.4 407.8,431.8 	"/>
	
		<linearGradient id="SVGID_7_" gradientUnits="userSpaceOnUse" x1="414.1" y1="112.3042" x2="485.9" y2="112.3042" gradientTransform="matrix(1 0.5774 0 -1 0 257.8742)">
		<stop  offset="0" style="stop-color:#301C47;stop-opacity:0.2"/>
		<stop  offset="1" style="stop-color:#301C47;stop-opacity:0.5"/>
	</linearGradient>
	<polygon class="st7" points="485.9,440.5 414.1,399 414.1,370.3 485.9,411.8 	"/>
	
		<linearGradient id="SVGID_8_" gradientUnits="userSpaceOnUse" x1="153.5" y1="140.3549" x2="225.2" y2="140.3549" gradientTransform="matrix(1 0.5774 0 -1 0 257.8742)">
		<stop  offset="0" style="stop-color:#301C47;stop-opacity:0.2"/>
		<stop  offset="1" style="stop-color:#301C47;stop-opacity:0.5"/>
	</linearGradient>
	<polygon class="st8" points="225.2,261.9 153.5,220.5 153.5,191.8 225.2,233.2 	"/>
	<g>
		
			<linearGradient id="SVGID_9_" gradientUnits="userSpaceOnUse" x1="175" y1="216.2979" x2="246.8" y2="216.2979" gradientTransform="matrix(1 0.5774 0 -1 0 257.8742)">
			<stop  offset="0" style="stop-color:#301C47;stop-opacity:0.2"/>
			<stop  offset="1" style="stop-color:#301C47;stop-opacity:0.5"/>
		</linearGradient>
		<polygon class="st9" points="246.8,198.4 175,157 175,128.3 246.8,169.7 		"/>
		
			<linearGradient id="SVGID_10_" gradientUnits="userSpaceOnUse" x1="414.1" y1="216.7542" x2="485.9" y2="216.7542" gradientTransform="matrix(1 0.5774 0 -1 0 257.8742)">
			<stop  offset="0" style="stop-color:#301C47;stop-opacity:0.2"/>
			<stop  offset="1" style="stop-color:#301C47;stop-opacity:0.5"/>
		</linearGradient>
		<polygon class="st10" points="485.9,336 414.1,294.6 414.1,265.9 485.9,307.3 		"/>
	</g>
</g>
<linearGradient id="SVGID_11_" gradientUnits="userSpaceOnUse" x1="99.7884" y1="528.0895" x2="287.8564" y2="796.6786" gradientTransform="matrix(1 0 0 -1 0 1263.9717)">
	<stop  offset="0.4836" style="stop-color:#C8495B;stop-opacity:0"/>
	<stop  offset="1" style="stop-color:#C8495B;stop-opacity:0.5"/>
</linearGradient>
<path class="st11" d="M1.7,667.2l60,34.6l272.5-0.1l127.7-73.8l1.2-37.9L123.4,394.4c-2.4,2.5-58.8,35.7-121.7,72.4
	C1.7,466.8,1.7,667.2,1.7,667.2z"/>
<g>
	<path class="st12" d="M240.8,528.9c0,4.5-20.6-3.7-45.9-18.3C169.5,496,149,480.4,149,475.9s20.6,3.7,45.9,18.3
		C220.3,508.8,240.8,524.3,240.8,528.9z"/>
	<g>
		<polygon class="st13" points="253.6,400.8 194.9,425.6 136.2,333 		"/>
		
			<linearGradient id="SVGID_12_" gradientUnits="userSpaceOnUse" x1="166.4218" y1="296.1796" x2="200.7031" y2="340.0576" gradientTransform="matrix(1 0 0 -1 0 699.53)">
			<stop  offset="0.3347" style="stop-color:#F4A04D;stop-opacity:0"/>
			<stop  offset="1" style="stop-color:#F4A04D;stop-opacity:0.5"/>
		</linearGradient>
		<polygon class="st14" points="253.6,400.8 194.9,425.6 136.2,333 		"/>
		<polyline class="st12" points="253.6,400.8 194.9,425.6 136.2,333 		"/>
		<line class="st15" x1="264.5" y1="364.9" x2="209.5" y2="388.1"/>
		<line class="st16" x1="194.9" y1="425.6" x2="194.9" y2="501"/>
		<path class="st13" d="M202.2,367.5c0,9.1-7.4,12.2-16.4,6.9c-9.1-5.2-16.4-16.8-16.4-25.9s7.4-12.2,16.4-6.9
			C194.9,346.8,202.2,358.4,202.2,367.5z"/>
		<path class="st17" d="M267.3,371.2c0,3.8-3.1,5.1-6.8,2.9c-3.8-2.2-6.8-7-6.8-10.8s3.1-5.1,6.8-2.9
			C264.2,362.6,267.3,367.4,267.3,371.2z"/>
	</g>
	<path class="st15" d="M187.3,349.5v-8.8c0-4.5-3.6-10.1-8.1-12.7l0,0"/>
</g>
<g>
	<g>
		<g>
			
				<linearGradient id="SVGID_13_" gradientUnits="userSpaceOnUse" x1="362.2" y1="459.73" x2="362.2" y2="459.73" gradientTransform="matrix(1 0 0 -1 0 699.53)">
				<stop  offset="0.4618" style="stop-color:#F4A04D;stop-opacity:0"/>
				<stop  offset="1" style="stop-color:#F4A04D;stop-opacity:0.5"/>
			</linearGradient>
			<path class="st18" d="M362.2,239.8"/>
			
				<linearGradient id="SVGID_14_" gradientUnits="userSpaceOnUse" x1="266.4" y1="440.13" x2="372.4" y2="440.13" gradientTransform="matrix(1 0 0 -1 0 699.53)">
				<stop  offset="0" style="stop-color:#C8495B;stop-opacity:0.1"/>
				<stop  offset="1" style="stop-color:#C8495B;stop-opacity:0.5"/>
			</linearGradient>
			<path class="st19" d="M362.2,239.8l-71.1,57.8l-21.7-12.7l78.3-63.7l21.7,12.7"/>
		</g>
		
			<linearGradient id="SVGID_15_" gradientUnits="userSpaceOnUse" x1="247.1" y1="513.68" x2="313.9673" y2="513.68" gradientTransform="matrix(1 0 0 -1 0 699.53)">
			<stop  offset="0" style="stop-color:#F4A04D;stop-opacity:0.1"/>
			<stop  offset="1" style="stop-color:#F4A04D;stop-opacity:0.5"/>
		</linearGradient>
		<polyline class="st20" points="297.7,233.5 310.9,223.1 277,153.8 250.1,138.2 290.7,219.4 		"/>
		
			<linearGradient id="SVGID_16_" gradientUnits="userSpaceOnUse" x1="290.7" y1="480.13" x2="290.7" y2="480.13" gradientTransform="matrix(1 0 0 -1 0 699.53)">
			<stop  offset="0.4618" style="stop-color:#F4A04D;stop-opacity:0"/>
			<stop  offset="1" style="stop-color:#F4A04D;stop-opacity:0.5"/>
		</linearGradient>
		<path class="st21" d="M290.7,219.4"/>
		
			<linearGradient id="SVGID_17_" gradientUnits="userSpaceOnUse" x1="325.9" y1="366.68" x2="395.1" y2="366.68" gradientTransform="matrix(1 0 0 -1 0 699.53)">
			<stop  offset="0" style="stop-color:#F4A04D;stop-opacity:0.1"/>
			<stop  offset="1" style="stop-color:#F4A04D;stop-opacity:0.5"/>
		</linearGradient>
		<polyline class="st22" points="342.1,283.1 328.9,293.9 365.2,367 392.1,382.6 350.6,300.1 		"/>
	</g>
</g>
<g>
	<g>
		<path class="st23" d="M340.7,390.6v-7.3l-28.9-16.7v7.3c0,17.6-3.9,32.7-11.5,44.1l0,0c-7.6,11.5-11.5,26.5-11.5,44.1v127.4
			l75,43.3V505.5c0-17.6-3.9-37.2-11.5-57.4l0,0C344.7,427.8,340.7,408.2,340.7,390.6z"/>
		
			<linearGradient id="SVGID_18_" gradientUnits="userSpaceOnUse" x1="249.4352" y1="-26.3814" x2="395.2228" y2="75.7002" gradientTransform="matrix(1 0.5774 0 -1 0 340.1466)">
			<stop  offset="0.6361" style="stop-color:#C8495B;stop-opacity:0"/>
			<stop  offset="1" style="stop-color:#C8495B;stop-opacity:0.5"/>
		</linearGradient>
		<path class="st24" d="M340.7,390.6v-7.3l-28.9-16.7v7.3c0,17.6-3.9,32.7-11.5,44.1l0,0c-7.6,11.5-11.5,26.5-11.5,44.1v127.4
			l75,43.3V505.5c0-17.6-3.9-37.2-11.5-57.4l0,0C344.7,427.8,340.7,408.2,340.7,390.6z"/>
		<path class="st17" d="M359.1,543c0,21.8-14.5,31.1-32.5,20.8c-17.9-10.3-32.5-36.4-32.5-58.2s14.5-31.1,32.5-20.8
			S359.1,521.2,359.1,543z"/>
		<polygon class="st17" points="344.7,375.1 307.8,353.8 307.8,364.2 344.7,385.6 		"/>
		<g>
			<g>
				<g>
					<path class="st25" d="M333.1,514.8l5.5,3.2l-19.9,16.2l-5.5-3.2L333.1,514.8z"/>
				</g>
				<polygon class="st23" points="315.1,497.7 308.2,493.7 320.3,518 323.7,515.3 				"/>
				<polygon class="st13" points="331.6,530.6 328.3,533.3 337.5,551.9 344.3,555.9 				"/>
			</g>
		</g>
	</g>
	<path class="st17" d="M354.2,453.3c-0.6-1.8-1.2-3.5-1.9-5.3l0,0c-3.7-9.8-6.5-19.5-8.4-28.8l-35.1-20.3
		c-1.9,7.1-4.7,13.5-8.4,19.1l0,0c-0.7,1-1.3,2-1.9,3.1L354.2,453.3z"/>
</g>
<g>
	
		<linearGradient id="SVGID_19_" gradientUnits="userSpaceOnUse" x1="1134.0483" y1="1002.7099" x2="1031.0233" y2="1181.1536" gradientTransform="matrix(-1 0 0 -1 1397.2505 1263.9717)">
		<stop  offset="0.2995" style="stop-color:#F4A04D;stop-opacity:0"/>
		<stop  offset="1" style="stop-color:#F4A04D;stop-opacity:0.5"/>
	</linearGradient>
	<polygon class="st26" points="71.3,151 482.6,323.9 309.5,50.6 	"/>
	<line class="st27" x1="309" y1="2.8" x2="309" y2="58.6"/>
	<polygon class="st23" points="253.2,74.5 365.9,139.4 309.5,50.6 	"/>
</g>
<g>
	<path class="st28" d="M450,370.5V392c0,10.1,0.8,20.7,2.3,31.5l5.4,39.1c1.5,10.9,2.3,21.4,2.3,31.5v4.1v44"/>
	<path class="st17" d="M505.6,316.8c0,30.7-24.9,64.4-55.6,46.7c-30.7-17.7-55.6-80.2-55.6-110.9s24.9-41.2,55.6-23.5
		S505.6,286.1,505.6,316.8z"/>
	
		<linearGradient id="SVGID_20_" gradientUnits="userSpaceOnUse" x1="407.0243" y1="330.2986" x2="492.9748" y2="416.2491" gradientTransform="matrix(1 0.5774 0 -1 0 405.4573)">
		<stop  offset="0.4618" style="stop-color:#C8495B;stop-opacity:0"/>
		<stop  offset="1" style="stop-color:#C8495B;stop-opacity:0.5"/>
	</linearGradient>
	<path class="st29" d="M505.6,316.8c0,30.7-24.9,64.4-55.6,46.7c-30.7-17.7-55.6-80.2-55.6-110.9s24.9-41.2,55.6-23.5
		S505.6,286.1,505.6,316.8z"/>
	<polygon class="st17" points="460.5,380.8 439.5,368.6 450,364.2 	"/>
</g>
<g>
	<path class="st27" d="M123.1,258v41c0,14-4.5,25.1-12.7,31.7l0,0c-8.3,6.6-12.7,17.6-12.7,31.7v30"/>
	<path class="st13" d="M219.6,164.8c0,52.5-42.5,110.1-95,79.8s-95-137.1-95-189.5s42.5-70.4,95-40.2S219.6,112.3,219.6,164.8z"/>
	
		<linearGradient id="SVGID_21_" gradientUnits="userSpaceOnUse" x1="51.1837" y1="281.5124" x2="198.0834" y2="428.4121" gradientTransform="matrix(1 0.5774 0 -1 0 405.4573)">
		<stop  offset="0.4618" style="stop-color:#F4A04D;stop-opacity:0"/>
		<stop  offset="1" style="stop-color:#F4A04D;stop-opacity:0.5"/>
	</linearGradient>
	<path class="st30" d="M219.6,164.8c0,52.5-42.5,110.1-95,79.8s-95-137.1-95-189.5s42.5-70.4,95-40.2S219.6,112.3,219.6,164.8z"/>
	<polygon class="st13" points="142.6,274.1 106.6,253.4 124.6,245.7 	"/>
</g>
</svg>
