<?xml version="1.0" encoding="iso-8859-1"?>
<!-- Generator: Adobe Illustrator 21.0.0, SVG Export Plug-In . SVG Version: 6.00 Build 0)  -->
<svg version="1.1" xmlns="http://www.w3.org/2000/svg" xmlns:xlink="http://www.w3.org/1999/xlink" x="0px" y="0px"
	 viewBox="0 0 540 304" style="enable-background:new 0 0 540 304;" xml:space="preserve">
<g id="brightcove_x5F_color">
	<g>
		<path style="fill:#626464;" d="M403.295,167.256c-5.068,4.729-11.811,6.015-17.768,3.246c-6.233-2.898-9.688-9.045-9.302-16.549
			c0.343-6.673,4.668-12.577,10.773-14.533c6.637-2.126,12.139,0.121,16.775,4.821c0.577,0.585,0.987,0.978,0.987,0.978l3.791-3.418
			c0,0-0.53-0.656-1.088-1.227c-6.85-7.013-17.421-8.757-25.698-4.096c-8.551,4.815-12.768,14.844-10.254,24.387
			c2.491,9.455,10.598,15.745,20.501,15.752c5.744,0.218,10.655-2.073,14.822-6.175c1.22-1.2,2.066-2.257,2.066-2.257l-3.453-3.075
			C405.448,165.109,403.853,166.736,403.295,167.256z"/>
		<path style="fill:#626464;" d="M493.461,134.795c0,0-5.123,12.188-7.101,16.768c-2.496,5.783-4.99,11.567-7.637,17.703
			c-0.455-0.992-0.734-1.567-0.985-2.153c-4.317-10.095-13.891-32.251-13.891-32.251s-3.817,0.019-5.58,0.02
			c0.313,0.794,0.499,1.329,0.73,1.844c5.576,12.45,17.561,39.473,17.561,39.473l4.105-0.007l18.379-41.396
			C499.071,134.797,493.461,134.795,493.461,134.795z"/>
		<path style="fill:#626464;" d="M352.079,122.071c0,0-1.727-0.008-2.54,0.003c-0.759,0.011-2.411-0.005-2.411-0.005
			s-0.208,25.302-0.12,37.053c0.076,10.116,5.974,16.273,16.05,17.206c1.415,0.131,2.98-0.019,2.98-0.019l-0.048-4.654
			c0,0-1.69,0.152-2.795-0.011c-7.394-1.1-11.06-5.144-11.144-12.6c-0.03-2.668-0.005-5.336-0.004-8.004
			c0-3.252,0.08-11.609,0.08-11.609l14.077,0.025l0.067-4.637l-14.18,0.108L352.079,122.071z"/>
		<path style="fill:#626464;" d="M204.177,152.316c-0.681,4.059-0.215,8.137-0.389,11.562c0,3.636-0.043,7.303-0.043,9.624
			c0,2.321,0.019,2.356,0.019,2.356h5.119c0,0-0.134-13.731-0.082-19.471c0.082-9.118,6.153-16.067,14.887-16.631
			c0.779-0.05,1.995-0.023,1.995-0.023l0.036-4.885c0,0-1.744,0.031-2.33,0.062C214.031,135.398,205.746,142.965,204.177,152.316z"
			/>
		<path style="fill:#626464;" d="M264.823,134.395c-8.561,2.046-14.255,9.048-15.459,19.009
			c-1.496,12.376,8.822,23.784,21.257,23.399c5.906-0.183,10.629-2.978,15.018-7.663c0,2.547,0.077,4.447-0.013,6.34
			c-0.371,7.776-6.348,14.558-13.54,15.431c-1.203,0.144-1.472,0.149-2.077,0.199l-0.024,4.862c0,0,2.142-0.172,2.803-0.273
			c9.958-1.531,17.427-10.108,17.622-20.311c0.135-7.083,0.157-14.173-0.002-21.254
			C290.101,140.515,278.003,131.246,264.823,134.395z M269.881,171.972c-8.791-0.006-15.731-7.496-15.679-16.922
			c0.051-9.335,6.951-16.46,15.863-16.382c8.869,0.077,15.61,7.299,15.575,16.687C285.607,164.586,278.596,171.978,269.881,171.972z
			"/>
		<path style="fill:#626464;" d="M169.683,134.41c-4.303,1.064-7.788,3.521-11.117,7.249c0-1.362,0-2.156,0-2.949
			c0-4.833,0.05-16.582,0.05-16.582h-2.671h-2.349c0,0,0.013,18.591,0.063,26.84c0.023,3.828,0.168,7.663,0.993,11.424
			c2.64,12.038,14.956,19.224,26.399,15.422c9.253-3.074,15.008-12.503,14.103-23.101
			C194.059,139.906,182.149,131.33,169.683,134.41z M190.373,155.722c-0.326,9.365-7.353,16.454-16.098,16.239
			c-8.688-0.214-15.584-7.878-15.314-17.022c0.281-9.538,7.086-16.467,15.977-16.269
			C183.95,138.871,190.699,146.327,190.373,155.722z"/>
		<path style="fill:#626464;" d="M508.442,157.333c4.66,0.191,9.333,0.058,14.001,0.058c3.584,0,7.169,0,10.753,0
			c3.092,0,5.496-0.009,5.496-0.009s0.559-3.299,0.168-6.409c-1.566-12.229-12.714-19.773-24.029-16.261
			c-7.734,2.401-13.383,9.693-13.983,18.051c-0.723,10.073,3.527,18.297,11.404,22.063c7.628,3.648,17.496,1.982,23.921-4.038
			c1.175-1.101,2.134-2.094,2.134-2.094s-1.091-1.013-2.172-2.055c-0.651-0.627-1.337-1.189-1.337-1.189s-1.246,1.196-1.806,1.718
			c-4.621,4.311-10.062,5.874-16.148,4.163c-5.745-1.615-8.872-5.867-10.382-11.466c-0.287-1.066-0.215-2.563-0.215-2.563
			S507.546,157.296,508.442,157.333z M506.297,151.596c1.296-7.943,8.138-14.851,17.315-12.613
			c5.226,1.274,10.335,7.865,10.089,12.997c-0.034,0.541,0.009,1,0.009,1h-27.433C506.276,152.979,506.204,152.165,506.297,151.596z
			"/>
		<path style="fill:#626464;" d="M435.438,133.878c-11.974-0.06-21.231,9.304-21.221,21.466
			c0.009,12.098,8.939,21.252,20.753,21.273c12.236,0.022,21.346-9.037,21.351-21.231
			C456.326,143.214,447.318,133.937,435.438,133.878z M435.294,171.966c-8.716-0.009-15.807-7.387-15.908-16.552
			c-0.104-9.4,6.851-16.763,15.817-16.746c8.95,0.017,15.843,7.31,15.828,16.749C451.017,164.725,444.122,171.975,435.294,171.966z"
			/>
		<rect x="235.051" y="134.795" style="fill:#626464;" width="5.125" height="41.009"/>
		<path style="fill:#626464;" d="M316.889,134.039c-4.297,0.725-7.642,2.941-10.398,6.141c-0.145-0.115-0.307-0.234-0.47-0.354
			v-18.105h-5.125v54.083h5.125v-21.721c0.1-1.407,0.197-2.813,0.276-4.219c0.376-6.661,6.512-11.583,13.252-11.377
			c7.151,0.218,11.527,4.479,11.74,11.866c0.044,1.518,0.107,3.034,0.176,4.549v20.901h4.857v-22.93h-0.02
			c0.016-0.869,0.027-1.739,0.024-2.609C336.29,139.257,327.764,132.205,316.889,134.039z"/>
	</g>
	<g>
		<linearGradient id="SVGID_1_" gradientUnits="userSpaceOnUse" x1="18.3254" y1="77.658" x2="18.3254" y2="135.5874">
			<stop  offset="0" style="stop-color:#78B2BA"/>
			<stop  offset="0.7242" style="stop-color:#579FA7"/>
		</linearGradient>
		<path style="fill:url(#SVGID_1_);" d="M1.597,103.627c0,0,13.85-23.737,14.314-24.758c0.464-1.021,3.779-2.285,5.163,0.379
			c1.384,2.664,11.715,20.708,13.159,22.978c1.444,2.27,2.026,4.41,0.588,7.506c-1.437,3.096-12.784,22.277-13.789,24.083
			c-1.005,1.806-3.748,3.089-5.813-0.586c-2.065-3.675-12.53-22.036-13.403-23.646S0.625,105.34,1.597,103.627z"/>
		<linearGradient id="SVGID_2_" gradientUnits="userSpaceOnUse" x1="38.5054" y1="170.5159" x2="38.5054" y2="112.5865">
			<stop  offset="0.1383" style="stop-color:#44959E"/>
			<stop  offset="0.4909" style="stop-color:#579FA7"/>
		</linearGradient>
		<path style="fill:url(#SVGID_2_);" d="M21.777,138.556c0,0,13.85-23.737,14.314-24.758s3.779-2.285,5.163,0.379
			c1.384,2.664,11.715,20.708,13.159,22.978c1.444,2.27,2.026,4.41,0.588,7.506c-1.437,3.096-12.784,22.277-13.789,24.083
			c-1.005,1.806-3.748,3.089-5.813-0.586c-2.065-3.675-12.53-22.036-13.403-23.646C21.122,142.903,20.805,140.268,21.777,138.556z"
			/>
		<linearGradient id="SVGID_3_" gradientUnits="userSpaceOnUse" x1="69.7651" y1="107.7972" x2="69.7651" y2="139.9077">
			<stop  offset="0.0228" style="stop-color:#BED03E"/>
			<stop  offset="0.6406" style="stop-color:#ABC33C"/>
			<stop  offset="1" style="stop-color:#9FBB3D"/>
		</linearGradient>
		<path style="fill:url(#SVGID_3_);" d="M47.588,107.799c3.534,0.144,22.352,0.002,25.597,0.068s6.305,0.63,8.81,4.956
			c2.505,4.326,11.042,19.44,12.508,21.822c1.466,2.382,1.163,5.235-3.192,5.231c-4.355-0.004-21.443,0.074-24.76,0
			c-3.317-0.074-6.071-0.28-8.368-4.072c-2.297-3.792-9.649-15.837-12.83-21.433C42.253,108.917,46.463,107.753,47.588,107.799z"/>
		<linearGradient id="SVGID_4_" gradientUnits="userSpaceOnUse" x1="111.3062" y1="178.8938" x2="111.3062" y2="211.0043">
			<stop  offset="0.2038" style="stop-color:#B92B74"/>
			<stop  offset="0.6989" style="stop-color:#971E60"/>
		</linearGradient>
		<path style="fill:url(#SVGID_4_);" d="M89.13,178.895c3.534,0.144,22.352,0.002,25.597,0.068c3.244,0.066,6.305,0.63,8.81,4.956
			s11.042,19.44,12.508,21.822c1.466,2.382,1.163,5.235-3.192,5.231c-4.355-0.004-21.443,0.074-24.76,0
			c-3.317-0.074-6.071-0.28-8.368-4.072c-2.297-3.792-9.649-15.837-12.83-21.433C83.794,180.014,88.004,178.849,89.13,178.895z"/>
		<linearGradient id="SVGID_5_" gradientUnits="userSpaceOnUse" x1="44.2347" y1="159.4008" x2="95.2955" y2="159.4008">
			<stop  offset="0" style="stop-color:#ABC33C"/>
			<stop  offset="0.6342" style="stop-color:#9FBB3D"/>
		</linearGradient>
		<path style="fill:url(#SVGID_5_);" d="M91.942,143.347c-3.534,0.144-22.352,0.002-25.597,0.068
			c-3.244,0.066-6.305,0.63-8.81,4.956c-2.505,4.326-11.042,19.44-12.508,21.822c-1.466,2.382-1.163,5.235,3.192,5.231
			s21.443,0.074,24.76,0c3.317-0.074,6.071-0.28,8.368-4.072c2.297-3.792,9.649-15.837,12.83-21.433
			C97.277,144.466,93.068,143.301,91.942,143.347z"/>
		<linearGradient id="SVGID_6_" gradientUnits="userSpaceOnUse" x1="111.1246" y1="143.3455" x2="111.1246" y2="175.456">
			<stop  offset="0" style="stop-color:#E13A8C"/>
			<stop  offset="0.8331" style="stop-color:#B92B74"/>
			<stop  offset="1" style="stop-color:#971E60"/>
		</linearGradient>
		<path style="fill:url(#SVGID_6_);" d="M133.301,143.347c-3.534,0.144-22.352,0.002-25.597,0.068
			c-3.244,0.066-6.305,0.63-8.81,4.956s-11.042,19.44-12.508,21.822c-1.466,2.382-1.163,5.235,3.192,5.231
			c4.355-0.004,21.443,0.074,24.76,0c3.317-0.074,6.071-0.28,8.368-4.072c2.297-3.792,9.649-15.837,12.83-21.433
			C138.637,144.466,134.427,143.301,133.301,143.347z"/>
	</g>
</g>
<g id="Ebene_1">
</g>
</svg>
