<?xml version="1.0" encoding="utf-8"?>
<!-- Generator: Adobe Illustrator 22.0.1, SVG Export Plug-In . SVG Version: 6.00 Build 0)  -->
<!DOCTYPE svg PUBLIC "-//W3C//DTD SVG 1.1//EN" "http://www.w3.org/Graphics/SVG/1.1/DTD/svg11.dtd" [
	<!ENTITY ns_extend "http://ns.adobe.com/Extensibility/1.0/">
	<!ENTITY ns_ai "http://ns.adobe.com/AdobeIllustrator/10.0/">
	<!ENTITY ns_graphs "http://ns.adobe.com/Graphs/1.0/">
	<!ENTITY ns_vars "http://ns.adobe.com/Variables/1.0/">
	<!ENTITY ns_imrep "http://ns.adobe.com/ImageReplacement/1.0/">
	<!ENTITY ns_sfw "http://ns.adobe.com/SaveForWeb/1.0/">
	<!ENTITY ns_custom "http://ns.adobe.com/GenericCustomNamespace/1.0/">
	<!ENTITY ns_adobe_xpath "http://ns.adobe.com/XPath/1.0/">
]>
<svg version="1.1" id="Layer_1" xmlns:x="&ns_extend;" xmlns:i="&ns_ai;" xmlns:graph="&ns_graphs;"
	 xmlns="http://www.w3.org/2000/svg" xmlns:xlink="http://www.w3.org/1999/xlink" x="0px" y="0px" width="220px" height="64px"
	 viewBox="0 0 220 64" style="enable-background:new 0 0 220 64;" xml:space="preserve">
<style type="text/css">
	.st0{filter:url(#Adobe_OpacityMaskFilter);}
	.st1{fill:#FFFFFF;}
	.st2{mask:url(#mask-2_2_);fill:#CC2B2B;}
	.st3{fill:#2D2E2C;}
</style>
<metadata>
	<sfw  xmlns="&ns_sfw;">
		<slices></slices>
		<sliceSourceBounds  bottomLeftOrigin="true" height="42" width="218" x="1.5" y="11"></sliceSourceBounds>
	</sfw>
</metadata>
<g id="Page-1">
	<g id="_x30_4.-CBSi-Logo-2018-Demuxed">
		<g id="Group-3">
			<g id="Clip-2">
			</g>
			<defs>
				<filter id="Adobe_OpacityMaskFilter" filterUnits="userSpaceOnUse" x="1.5" y="11" width="41.5" height="42">
					<feColorMatrix  type="matrix" values="1 0 0 0 0  0 1 0 0 0  0 0 1 0 0  0 0 0 1 0"/>
				</filter>
			</defs>
			<mask maskUnits="userSpaceOnUse" x="1.5" y="11" width="41.5" height="42" id="mask-2_2_">
				<g class="st0">
					<polygon id="path-1_2_" class="st1" points="1.5,11 43,11 43,53 1.5,53 					"/>
				</g>
			</mask>
			<path id="Fill-1" class="st2" d="M22.3,20.8c-6.2,0-11.2,5-11.2,11.1c0,6.2,5,11.2,11.2,11.2c6.2,0,11.1-4.9,11.1-11.2
				C33.4,25.8,28.5,20.8,22.3,20.8z M3,32c2.9,6.2,9.8,12.2,19.3,12.2c9.5,0,16.4-6,19.3-12.2c-2.9-6.1-9.8-12.1-19.3-12.1
				C12.8,19.9,5.9,25.9,3,32z M43,31.9C43,43.6,33.9,53,22.3,53C10.7,53,1.5,43.6,1.5,31.9c0-11.5,9.2-21,20.8-21
				C33.9,11,43,20.4,43,31.9z"/>
		</g>
		<path id="Fill-4" class="st3" d="M53.4,32.2c0-5.3,4.1-8.9,9.5-8.9c4.5,0,6.8,2.6,7.9,5l-4.5,2.1c-0.4-1.3-1.8-2.5-3.3-2.5
			c-2.5,0-4.2,1.9-4.2,4.3c0,2.4,1.7,4.3,4.2,4.3c1.6,0,2.9-1.2,3.3-2.5l4.5,2.1c-1,2.3-3.3,5.1-7.9,5.1
			C57.5,41.1,53.4,37.5,53.4,32.2"/>
		<path id="Fill-5" class="st3" d="M82.7,35.4c0-0.6-0.5-1.1-1.2-1.1h-4.2v2.2h4.2C82.3,36.5,82.7,36,82.7,35.4z M82.4,28.9
			c0-0.6-0.5-1-1-1h-4v2h4C81.9,29.9,82.4,29.5,82.4,28.9z M72.1,40.8V23.6h10.5c3.6,0,5.1,2.4,5.1,4.4c0,2.2-1.3,3.6-3,4
			c1.9,0.3,3.3,2,3.3,4.2c0,2.4-1.6,4.7-5.1,4.7L72.1,40.8L72.1,40.8z"/>
		<path id="Fill-6" class="st3" d="M88.6,38.4l2.7-3.9c1.3,1.2,3.2,2.2,5.6,2.2c1,0,1.9-0.3,1.9-0.9c0-1.7-9.6,0-9.6-6.8
			c0-2.9,2.4-5.7,7.2-5.7c2.8,0,5.4,0.8,7.3,2.4l-2.8,3.7c-1.5-1.1-3.4-1.7-5.1-1.7c-1,0-1.3,0.3-1.3,0.8c0,1.6,9.6,0.2,9.6,6.7
			c0,3.8-2.8,6-7.5,6C92.9,41.1,90.4,40.1,88.6,38.4"/>
		<polygon id="Fill-7" class="st3" points="113.1,40.8 114.6,40.8 114.6,23.3 113.1,23.3 		"/>
		<path id="Fill-8" class="st3" d="M126.7,40.8v-8.6c0-2.4-1.2-3.2-3.1-3.2c-1.6,0-3.3,1-4.1,2.2v9.6h-1.4V28.1h1.4v1.9
			c0.9-1.1,2.7-2.2,4.6-2.2c2.6,0,4,1.3,4,4.1v8.9H126.7"/>
		<path id="Fill-9" class="st3" d="M131.8,38.4v-9h-2.1v-1.2h2.1v-3.5h1.4v3.5h2.6v1.2h-2.6v8.8c0,1,0.4,1.7,1.3,1.7
			c0.6,0,1.1-0.3,1.4-0.6l0.5,1.1c-0.5,0.5-1.1,0.8-2.2,0.8C132.6,41.2,131.8,40.1,131.8,38.4"/>
		<path id="Fill-10" class="st3" d="M142.9,29c-3,0-4.5,2.6-4.6,4.8h9.2C147.5,31.7,146.1,29,142.9,29z M136.8,34.5
			c0-3.7,2.6-6.7,6.1-6.7c3.9,0,6,3.1,6,6.7v0.4h-10.6c0.1,2.8,2,5.1,5,5.1c1.6,0,3.1-0.6,4.2-1.8l0.7,0.9c-1.3,1.3-2.9,2.1-5,2.1
			C139.4,41.2,136.8,38.4,136.8,34.5z"/>
		<path id="Fill-11" class="st3" d="M151.5,40.8V28.1h1.4v2.2c1.1-1.4,2.5-2.4,4.3-2.4v1.5c-0.2-0.1-0.4-0.1-0.7-0.1
			c-1.3,0-3,1.2-3.6,2.3v9.3H151.5"/>
		<path id="Fill-12" class="st3" d="M167.2,38.3v-2.8c-0.9-1.2-2.3-1.8-3.8-1.8c-2.1,0-3.5,1.3-3.5,3.2c0,1.8,1.4,3.1,3.5,3.1
			C164.9,40.1,166.3,39.5,167.2,38.3z M167.2,40.8v-1.5c-1.1,1.2-2.6,1.8-4.3,1.8c-2.2,0-4.4-1.5-4.4-4.2c0-2.8,2.2-4.2,4.4-4.2
			c1.8,0,3.2,0.6,4.3,1.8v-2.6c0-1.9-1.5-2.9-3.4-2.9c-1.6,0-2.8,0.6-4,1.9l-0.8-0.9c1.3-1.4,2.8-2.1,4.9-2.1c2.6,0,4.6,1.2,4.6,4.1
			v8.9H167.2z"/>
		<path id="Fill-13" class="st3" d="M171.2,34.5c0-3.7,2.4-6.7,6.2-6.7c2.2,0,3.5,0.9,4.5,2.2l-0.9,0.8c-0.9-1.3-2.1-1.8-3.5-1.8
			c-3,0-4.8,2.4-4.8,5.4c0,3.1,1.8,5.4,4.8,5.4c1.4,0,2.6-0.5,3.5-1.8l0.9,0.8c-1,1.3-2.3,2.2-4.5,2.2
			C173.6,41.2,171.2,38.2,171.2,34.5"/>
		<path id="Fill-14" class="st3" d="M185.1,38.4v-9H183v-1.2h2.1v-3.5h1.4v3.5h2.6v1.2h-2.6v8.8c0,1,0.4,1.7,1.3,1.7
			c0.6,0,1.1-0.3,1.4-0.6l0.5,1.1c-0.5,0.5-1.1,0.8-2.2,0.8C185.9,41.2,185.1,40.1,185.1,38.4"/>
		<path id="Fill-15" class="st3" d="M191.5,40.8h1.4V28.1h-1.4V40.8z M191.2,25.1c0-0.6,0.5-1,1.1-1c0.6,0,1.1,0.4,1.1,1
			c0,0.6-0.5,1.1-1.1,1.1C191.7,26.1,191.2,25.7,191.2,25.1z"/>
		<polyline id="Fill-16" class="st3" points="200,40.8 194.6,28.1 196.2,28.1 200.8,39.2 205.4,28.1 206.9,28.1 201.6,40.8 
			200,40.8 		"/>
		<path id="Fill-17" class="st3" d="M213.5,29c-3,0-4.5,2.6-4.6,4.8h9.2C218.1,31.7,216.7,29,213.5,29z M207.4,34.5
			c0-3.7,2.6-6.7,6.1-6.7c3.9,0,6,3.1,6,6.7v0.4h-10.6c0.1,2.8,2,5.1,5,5.1c1.6,0,3.1-0.6,4.2-1.8l0.7,0.9c-1.3,1.3-2.9,2.1-5,2.1
			C210,41.2,207.4,38.4,207.4,34.5z"/>
	</g>
</g>
</svg>
