<?xml version="1.0" encoding="utf-8"?>
<!-- Generator: Adobe Illustrator 22.0.1, SVG Export Plug-In . SVG Version: 6.00 Build 0)  -->
<!DOCTYPE svg PUBLIC "-//W3C//DTD SVG 1.1//EN" "http://www.w3.org/Graphics/SVG/1.1/DTD/svg11.dtd" [
	<!ENTITY ns_extend "http://ns.adobe.com/Extensibility/1.0/">
	<!ENTITY ns_ai "http://ns.adobe.com/AdobeIllustrator/10.0/">
	<!ENTITY ns_graphs "http://ns.adobe.com/Graphs/1.0/">
	<!ENTITY ns_vars "http://ns.adobe.com/Variables/1.0/">
	<!ENTITY ns_imrep "http://ns.adobe.com/ImageReplacement/1.0/">
	<!ENTITY ns_sfw "http://ns.adobe.com/SaveForWeb/1.0/">
	<!ENTITY ns_custom "http://ns.adobe.com/GenericCustomNamespace/1.0/">
	<!ENTITY ns_adobe_xpath "http://ns.adobe.com/XPath/1.0/">
]>
<svg version="1.1" id="Layer_1" xmlns:x="&ns_extend;" xmlns:i="&ns_ai;" xmlns:graph="&ns_graphs;"
	 xmlns="http://www.w3.org/2000/svg" xmlns:xlink="http://www.w3.org/1999/xlink" x="0px" y="0px" width="220px" height="136.9px"
	 viewBox="0 0 220 136.9" style="enable-background:new 0 0 220 136.9;" xml:space="preserve">
<style type="text/css">
	.st0{fill:#FFFFFF;}
	.st1{fill:#645FAA;}
	.st2{fill:#C9234A;}
	.st3{fill:#0089CF;}
	.st4{fill:#F36F21;}
	.st5{fill:#0DB14B;}
	.st6{fill:#FDB913;}
</style>
<metadata>
	<sfw  xmlns="&ns_sfw;">
		<slices></slices>
		<sliceSourceBounds  bottomLeftOrigin="true" height="74.2" width="210" x="5" y="31.3"></sliceSourceBounds>
	</sfw>
</metadata>
<g>
	<path class="st0" d="M110,35.1c0.8-1.3,2.1-2.6,3.4-3.1c2.4-1.1,5.6-0.6,7.5,1.1c1.9,1.7,2.8,4,2.4,6.6c0.5-0.1,0.9-0.4,1.4-0.5
		c2.9-0.8,6,0.1,7.9,2.6c1.4,1.8,1.8,4.6,0.9,6.7c-0.4,1.1-1.1,2.1-2.1,2.9l0.1,0.1c2.7,0.1,5.4,2.2,6.2,4.8
		c0.9,2.6,0.1,5.4-1.8,7.3c-1.6,1.5-3.6,2.1-5.8,2H89.8c-3.3,0.1-5.9-1.4-7.3-4.4c-1.1-2.5-0.5-5.8,1.5-7.7c1.3-1.3,2.9-1.9,4.6-2.2
		c-2-1.8-2.9-4.3-2.3-6.9c0.4-2.2,2.2-4.3,4.3-5.1c1.9-0.7,4.4-0.6,6.1,0.4l0.1-0.1c-0.5-2.9,0.8-5.6,3.2-7.2
		c2.2-1.5,5.6-1.4,7.8,0.1C108.6,33.2,109.4,34.2,110,35.1"/>
	<path class="st1" d="M121.4,36.2c0.9,1.8,0.4,4-0.5,5.6l-7,15.8l-0.1,0.1l-2.5-16c-0.2-1.5,1.4-2.2,2.4-2.9c0-0.2-0.3-0.2-0.5-0.3
		l-2.4,0l-0.1-0.1c0-2,1.1-3.8,2.9-4.8c1.9-1.1,4.6-0.8,6.2,0.6C120.5,34.7,121.1,35.4,121.4,36.2"/>
	<path class="st2" d="M108.5,35.6c0.6,1.1,0.9,2.3,0.7,3.6l-2.9,18.3c0,0,0,0,0,0.1l-0.7-1.5l-7.2-16c-0.7-2.1,0-4.2,1.5-5.7
		c1.5-1.5,4-2,6-1.1C106.9,33.8,107.9,34.6,108.5,35.6"/>
	<path class="st3" d="M131.8,43.3c1,1.6,0.7,4.1-0.3,5.7c-0.7,1.1-1.8,1.6-2.7,2.3l-14.9,10.2h0l0.2-0.5l7.9-17.8
		c1.2-2.1,3.4-3.2,5.8-2.8C129.4,40.7,131,41.8,131.8,43.3"/>
	<path class="st4" d="M98.1,43.2l8.2,18.3h-0.1L89.6,50.1c-1.7-1.4-2.4-3.5-1.8-5.7c0.4-1.6,1.8-3.1,3.3-3.7
		C93.7,39.8,96.7,40.8,98.1,43.2"/>
	<path class="st5" d="M136.1,56.2c0.8,1.7,0.5,4.1-0.7,5.6c-1.2,1.4-2.7,2.2-4.6,2.1l-17.6,0L128,53.7c1.4-0.9,3.6-1.1,5.2-0.3
		C134.4,53.8,135.6,55,136.1,56.2"/>
	<path class="st6" d="M84,56.2c-0.8,1.7-0.5,4.1,0.7,5.6c1.2,1.4,2.7,2.2,4.6,2.1l17.6,0L92.1,53.7c-1.4-0.9-3.6-1.1-5.2-0.3
		C85.6,53.8,84.5,55,84,56.2"/>
	<path d="M52.3,74.5c-8.6,0-15.5,7-15.5,15.5c0,8.6,7,15.5,15.5,15.5c8.6,0,15.5-7,15.5-15.5C67.8,81.5,60.9,74.5,52.3,74.5
		 M52.3,102.5c-6.9,0-12.5-5.6-12.5-12.5c0-6.9,5.6-12.5,12.5-12.5c6.9,0,12.5,5.6,12.5,12.5C64.8,96.9,59.2,102.5,52.3,102.5"/>
	<path d="M186.1,90.2c-0.8-0.4-5.9-3-6.6-3.4c-2.7-1.4-3.6-2.6-3.6-4.6c0-2.8,2.3-4.6,5.9-4.6c2.1,0,4.2,0.9,5.3,1.6
		c0.2,0.1,0.5,0.2,0.7,0.2c0.8,0,1.5-0.7,1.5-1.5c0-0.6-0.3-1.1-0.8-1.3c-1.5-0.8-4.1-2-6.9-2c-5.3,0-9,3.2-9,7.7
		c0,4.1,2.7,6,5.3,7.3c0.7,0.4,5.9,3,6.6,3.4c2,1.1,3.1,2.6,3.1,4.5c0,2.5-2.1,5.1-5.9,5.1c-3.7,0-6.6-2.5-7.4-3.3l-0.2-0.2
		l-2.3,2.1l0.3,0.3c1,1,4.7,4.2,9.7,4.2c5.6,0,9-4.1,9-8.1C191,94.5,189.2,91.8,186.1,90.2"/>
	<path d="M20.5,77.6c3.3,0,6.5,1.3,8.8,3.6c0.6,0.6,1.6,0.6,2.2,0c0.3-0.3,0.4-0.7,0.4-1.1c0-0.4-0.2-0.8-0.4-1.1l-0.2-0.2
		c-2.9-2.8-6.7-4.4-10.8-4.4C12,74.5,5,81.5,5,90c0,8.6,7,15.5,15.5,15.5c4.5,0,8.6-1.9,11.4-5l-2.2-2.2c-2.3,2.5-5.6,4.1-9.3,4.1
		c-6.9,0-12.5-5.6-12.5-12.5C8.1,83.2,13.6,77.6,20.5,77.6"/>
	<path d="M125.7,77.6c3.3,0,6.5,1.3,8.8,3.6c0.6,0.6,1.6,0.6,2.2,0c0.3-0.3,0.5-0.7,0.5-1.1c0-0.4-0.2-0.8-0.5-1.1l-0.2-0.2
		c-2.9-2.8-6.7-4.4-10.8-4.4c-8.6,0-15.5,7-15.5,15.5c0,8.6,7,15.5,15.5,15.5c4.5,0,8.6-1.9,11.4-5l-2.2-2.2
		c-2.3,2.5-5.6,4.1-9.3,4.1c-6.9,0-12.5-5.6-12.5-12.5C113.2,83.2,118.8,77.6,125.7,77.6"/>
	<path d="M99.4,74.5c-0.6,0-1,0.4-1.3,0.8C97.9,75.8,89,97.8,89,97.8c0,0-8.9-22-9.1-22.4c-0.2-0.5-0.7-0.8-1.3-0.8
		c-0.7,0-1.2,0.5-1.3,1.1c-0.2,0.6-5.2,28.3-5.2,28.3c0,0.1,0,0.2,0,0.3c0,0.8,0.6,1.4,1.4,1.4c0.7,0,1.2-0.5,1.4-1.1l4.3-23.7
		c0,0,8.4,20.7,8.6,21.2c0.2,0.5,0.7,0.9,1.3,0.9c0.6,0,1-0.4,1.3-0.9c0.2-0.5,8.6-21.2,8.6-21.2l4.5,24.6h2.8
		c0,0-5.3-29.1-5.5-29.8C100.6,75,100.1,74.5,99.4,74.5"/>
	<path d="M154.6,74.5c-0.6,0-1,0.4-1.3,0.9c-0.3,0.5-11.5,28.3-11.5,28.3c-0.1,0.2-0.1,0.3-0.1,0.5c0,0.8,0.6,1.4,1.4,1.4
		c0.6,0,1.1-0.4,1.3-0.9l4.4-10.7h11.7l4.7,11.4h3c0,0-12-29.5-12.2-30C155.6,74.9,155.2,74.5,154.6,74.5 M150,90.9l4.6-11.3
		l4.6,11.3H150z"/>
	<path d="M213.5,74.7h-17.3c-0.8,0-1.5,0.7-1.5,1.5c0,0.8,0.7,1.5,1.5,1.5h7.2v27.6h2.8V77.7h7.2c0.8,0,1.5-0.7,1.5-1.5
		C215,75.4,214.3,74.7,213.5,74.7"/>
</g>
</svg>
