<?xml version="1.0" encoding="utf-8"?>
<!-- Generator: Adobe Illustrator 16.0.0, SVG Export Plug-In . SVG Version: 6.00 Build 0)  -->
<!DOCTYPE svg PUBLIC "-//W3C//DTD SVG 1.1//EN" "http://www.w3.org/Graphics/SVG/1.1/DTD/svg11.dtd">
<svg version="1.1" id="Layer_1" xmlns="http://www.w3.org/2000/svg" xmlns:xlink="http://www.w3.org/1999/xlink" x="0px" y="0px"
	 width="792px" height="612px" viewBox="0 0 792 612" enable-background="new 0 0 792 612" xml:space="preserve">
<g>
	<g>
		<g>
			<g>
				<path d="M233.38,313.621c-24.127,0-43.753,19.627-43.753,43.756c0,24.128,19.626,43.77,43.753,43.77s43.752-19.642,43.752-43.77
					C277.132,333.248,257.507,313.621,233.38,313.621z M233.38,392.525c-19.381,0-35.153-15.773-35.153-35.148
					c0-19.365,15.772-35.135,35.153-35.135s35.15,15.77,35.15,35.135C268.53,376.752,252.761,392.525,233.38,392.525z"/>
				<path d="M610.665,357.936c-2.354-1.232-16.624-8.589-18.682-9.653c-7.49-3.818-10.146-7.21-10.146-12.946
					c0-7.959,6.537-13.104,16.677-13.104c5.954,0,11.712,2.617,15.081,4.517c0.617,0.337,1.338,0.522,2.094,0.522
					c2.369,0,4.3-1.926,4.3-4.299c0-1.592-0.866-2.981-2.155-3.727c-4.251-2.367-11.502-5.625-19.319-5.625
					c-14.89,0-25.293,8.934-25.293,21.715c0,11.484,7.546,16.901,14.935,20.674c2.064,1.052,16.508,8.5,18.676,9.641
					c5.706,2.988,8.857,7.466,8.857,12.622c0,6.911-5.852,14.258-16.689,14.258c-10.537,0-18.723-7.07-20.986-9.243l-0.666-0.646
					l-6.375,5.803l0.752,0.742c2.825,2.811,13.162,11.961,27.275,11.961c15.828,0,25.289-11.634,25.289-22.874
					C624.288,369.879,619.329,362.462,610.665,357.936z"/>
				<path d="M143.669,322.242c9.395,0,18.225,3.652,24.854,10.283c1.575,1.567,4.534,1.567,6.087,0
					c0.821-0.806,1.263-1.885,1.263-3.042c0-1.143-0.441-2.233-1.263-3.037l-0.521-0.542c-8.199-7.92-19.009-12.283-30.42-12.283
					c-24.124,0-43.75,19.627-43.75,43.756c0,24.128,19.626,43.77,43.75,43.77c12.735,0,24.206-5.467,32.202-14.178l-6.088-6.099
					c-6.439,7.153-15.758,11.655-26.114,11.655c-19.379,0-35.148-15.773-35.148-35.148
					C108.521,338.012,124.29,322.242,143.669,322.242z"/>
				<path d="M440.291,322.242c9.388,0,18.223,3.652,24.851,10.283c1.575,1.567,4.537,1.567,6.092,0
					c0.818-0.806,1.268-1.885,1.268-3.042c0-1.143-0.449-2.233-1.268-3.037l-0.525-0.542c-8.203-7.92-19.004-12.283-30.417-12.283
					c-24.126,0-43.756,19.627-43.756,43.756c0,24.128,19.63,43.77,43.756,43.77c12.728,0,24.202-5.467,32.204-14.178l-6.094-6.099
					c-6.436,7.153-15.756,11.655-26.11,11.655c-19.382,0-35.151-15.773-35.151-35.148
					C405.14,338.012,420.909,322.242,440.291,322.242z"/>
				<path d="M366.173,313.621c-1.617,0-2.887,1.041-3.588,2.391c-0.706,1.343-25.746,63.283-25.747,63.283
					c0,0-25.042-61.94-25.749-63.283c-0.701-1.35-1.969-2.391-3.587-2.391c-1.886,0-3.309,1.383-3.808,3.138
					c-0.498,1.758-14.627,79.722-14.627,79.722c-0.049,0.252-0.076,0.513-0.076,0.781c0,2.146,1.746,3.885,3.884,3.885
					c1.889,0,3.47-1.354,3.812-3.143l12.234-66.694c0,0,23.607,58.323,24.301,59.712c0.693,1.387,1.975,2.459,3.617,2.459
					c1.64,0,2.922-1.072,3.613-2.459c0.693-1.389,24.301-59.712,24.301-59.712l12.719,69.351h7.892c0,0-14.884-82.144-15.382-83.901
					C369.48,315.004,368.06,313.621,366.173,313.621z"/>
				<path d="M521.743,313.621c-1.638-0.002-2.9,1.062-3.613,2.454c-0.707,1.387-32.406,79.675-32.406,79.675
					c-0.193,0.465-0.299,0.977-0.299,1.512c0,2.146,1.738,3.885,3.883,3.885c1.635,0,3.039-1.021,3.607-2.464l12.311-30.271h33.047
					l13.125,32.248h8.383c0,0-33.732-83.198-34.426-84.585C524.659,314.684,523.384,313.619,521.743,313.621z M508.735,359.796
					l13.008-31.997l13.023,31.997H508.735z"/>
				<path d="M692.081,318.393c0-2.381-1.939-4.305-4.312-4.305h-48.721c-2.373,0-4.297,1.924-4.297,4.305
					c0,2.373,1.924,4.299,4.297,4.299h20.426v77.969h7.885v-77.969h20.41C690.142,322.691,692.081,320.766,692.081,318.393z"/>
			</g>
		</g>
	</g>
	<g>
		<path fill="#6347B2" d="M429.592,202.704c2.562,5.162,1.054,11.939-1.614,16.575l-20.687,46.533l-0.175,0.211l-7.48-47.2
			c-0.597-4.53,4.25-6.463,7.095-8.64c-0.142-0.668-0.879-0.632-1.336-0.948l-6.987-0.071l-0.211-0.21
			c0.034-5.865,3.194-11.273,8.534-14.118c5.584-3.231,13.45-2.353,18.297,1.791C426.992,198.384,428.644,200.42,429.592,202.704z"
			/>
		<path fill="#9F0812" d="M391.488,201.088c1.686,3.125,2.669,6.673,2.072,10.606l-8.429,54.047
			c0.034,0.071-0.035,0.142-0.104,0.177l-2.179-4.354l-21.142-47.199c-1.966-6.077-0.141-12.434,4.285-16.789
			c4.46-4.531,11.799-5.759,17.629-3.3C386.713,195.609,389.662,198.068,391.488,201.088z"/>
		<path fill="#368DD5" d="M460.179,223.845c2.845,4.848,2.214,12.186-0.948,16.682c-1.964,3.161-5.196,4.741-7.936,6.814
			l-43.793,30.061h-0.105l0.492-1.44l23.213-52.397c3.476-6.182,10.113-9.306,17.139-8.359
			C453.052,216.084,457.862,219.21,460.179,223.845z"/>
		<path fill="#DC380F" d="M360.689,223.564l24.161,53.837h-0.386l-48.71-33.575c-4.952-4.177-6.988-10.43-5.302-16.751
			c1.265-4.741,5.197-9.166,9.868-10.92C347.976,213.345,356.615,216.329,360.689,223.564z"/>
		<path fill="#70AF1E" d="M472.894,261.844c2.423,5.127,1.475,12.152-2.003,16.506c-3.441,4.18-8.04,6.461-13.45,6.321l-51.94,0.035
			l43.512-30.272c4.251-2.739,10.712-3.231,15.348-1.019C467.941,254.821,471.312,258.332,472.894,261.844z"/>
		<path fill="#E1AC26" d="M319.108,261.844c-2.423,5.127-1.475,12.152,2.001,16.506c3.442,4.18,8.043,6.461,13.452,6.321
			l51.941,0.035l-43.512-30.272c-4.25-2.739-10.712-3.231-15.348-1.019C324.06,254.821,320.689,258.332,319.108,261.844z"/>
	</g>
</g>
</svg>
