<?xml version="1.0" encoding="utf-8"?>
<!-- Generator: Adobe Illustrator 21.1.0, SVG Export Plug-In . SVG Version: 6.00 Build 0)  -->
<!DOCTYPE svg PUBLIC "-//W3C//DTD SVG 1.1//EN" "http://www.w3.org/Graphics/SVG/1.1/DTD/svg11.dtd" [
	<!ENTITY ns_extend "http://ns.adobe.com/Extensibility/1.0/">
	<!ENTITY ns_ai "http://ns.adobe.com/AdobeIllustrator/10.0/">
	<!ENTITY ns_graphs "http://ns.adobe.com/Graphs/1.0/">
	<!ENTITY ns_vars "http://ns.adobe.com/Variables/1.0/">
	<!ENTITY ns_imrep "http://ns.adobe.com/ImageReplacement/1.0/">
	<!ENTITY ns_sfw "http://ns.adobe.com/SaveForWeb/1.0/">
	<!ENTITY ns_custom "http://ns.adobe.com/GenericCustomNamespace/1.0/">
	<!ENTITY ns_adobe_xpath "http://ns.adobe.com/XPath/1.0/">
]>
<svg version="1.1" id="Layer_1" xmlns:x="&ns_extend;" xmlns:i="&ns_ai;" xmlns:graph="&ns_graphs;"
	 xmlns="http://www.w3.org/2000/svg" xmlns:xlink="http://www.w3.org/1999/xlink" x="0px" y="0px" width="300px" height="105.5px"
	 viewBox="0 0 300 105.5" style="enable-background:new 0 0 300 105.5;" xml:space="preserve">
<style type="text/css">
	.st0{fill:#6347B2;}
	.st1{fill:#9F0812;}
	.st2{fill:#368DD5;}
	.st3{fill:#DC380F;}
	.st4{fill:#70AF1E;}
	.st5{fill:#E1AC26;}
</style>
<metadata>
	<sfw  xmlns="&ns_sfw;">
		<slices></slices>
		<sliceSourceBounds  bottomLeftOrigin="true" height="105.5" width="300" x="246" y="262.2"></sliceSourceBounds>
	</sfw>
</metadata>
<g>
	<g>
		<g>
			<g>
				<path d="M67.6,61.2c-12.2,0-22.2,9.9-22.2,22.2c0,12.2,9.9,22.2,22.2,22.2s22.2-10,22.2-22.2C89.8,71.1,79.8,61.2,67.6,61.2z
					 M67.6,101.1c-9.8,0-17.8-8-17.8-17.8c0-9.8,8-17.8,17.8-17.8s17.8,8,17.8,17.8C85.4,93.2,77.4,101.1,67.6,101.1z"/>
				<path d="M258.8,83.6c-1.2-0.6-8.4-4.4-9.5-4.9c-3.8-1.9-5.1-3.7-5.1-6.6c0-4,3.3-6.6,8.4-6.6c3,0,5.9,1.3,7.6,2.3
					c0.3,0.2,0.7,0.3,1.1,0.3c1.2,0,2.2-1,2.2-2.2c0-0.8-0.4-1.5-1.1-1.9c-2.2-1.2-5.8-2.8-9.8-2.8c-7.5,0-12.8,4.5-12.8,11
					c0,5.8,3.8,8.6,7.6,10.5c1,0.5,8.4,4.3,9.5,4.9c2.9,1.5,4.5,3.8,4.5,6.4c0,3.5-3,7.2-8.5,7.2c-5.3,0-9.5-3.6-10.6-4.7l-0.3-0.3
					l-3.2,2.9l0.4,0.4c1.4,1.4,6.7,6.1,13.8,6.1c8,0,12.8-5.9,12.8-11.6C265.7,89.7,263.1,85.9,258.8,83.6z"/>
				<path d="M22.2,65.5c4.8,0,9.2,1.9,12.6,5.2c0.8,0.8,2.3,0.8,3.1,0c0.4-0.4,0.6-1,0.6-1.5c0-0.6-0.2-1.1-0.6-1.5l-0.3-0.3
					c-4.2-4-9.6-6.2-15.4-6.2C9.9,61.2,0,71.1,0,83.3c0,12.2,9.9,22.2,22.2,22.2c6.5,0,12.3-2.8,16.3-7.2l-3.1-3.1
					c-3.3,3.6-8,5.9-13.2,5.9c-9.8,0-17.8-8-17.8-17.8C4.4,73.5,12.3,65.5,22.2,65.5z"/>
				<path d="M172.4,65.5c4.8,0,9.2,1.9,12.6,5.2c0.8,0.8,2.3,0.8,3.1,0c0.4-0.4,0.6-1,0.6-1.5c0-0.6-0.2-1.1-0.6-1.5l-0.3-0.3
					c-4.2-4-9.6-6.2-15.4-6.2c-12.2,0-22.2,9.9-22.2,22.2c0,12.2,9.9,22.2,22.2,22.2c6.4,0,12.3-2.8,16.3-7.2l-3.1-3.1
					c-3.3,3.6-8,5.9-13.2,5.9c-9.8,0-17.8-8-17.8-17.8C154.6,73.5,162.6,65.5,172.4,65.5z"/>
				<path d="M134.9,61.2c-0.8,0-1.5,0.5-1.8,1.2c-0.4,0.7-13,32.1-13,32.1c0,0-12.7-31.4-13-32.1c-0.4-0.7-1-1.2-1.8-1.2
					c-1,0-1.7,0.7-1.9,1.6c-0.3,0.9-7.4,40.4-7.4,40.4c0,0.1,0,0.3,0,0.4c0,1.1,0.9,2,2,2c1,0,1.8-0.7,1.9-1.6l6.2-33.8
					c0,0,12,29.5,12.3,30.3c0.4,0.7,1,1.2,1.8,1.2c0.8,0,1.5-0.5,1.8-1.2c0.4-0.7,12.3-30.3,12.3-30.3l6.4,35.1h4
					c0,0-7.5-41.6-7.8-42.5C136.6,61.9,135.8,61.2,134.9,61.2z"/>
				<path d="M213.7,61.2c-0.8,0-1.5,0.5-1.8,1.2c-0.4,0.7-16.4,40.4-16.4,40.4c-0.1,0.2-0.2,0.5-0.2,0.8c0,1.1,0.9,2,2,2
					c0.8,0,1.5-0.5,1.8-1.2l6.2-15.3h16.7l6.6,16.3h4.2c0,0-17.1-42.1-17.4-42.9C215.2,61.7,214.5,61.2,213.7,61.2z M207.1,84.6
					l6.6-16.2l6.6,16.2H207.1z"/>
				<path d="M300,63.6c0-1.2-1-2.2-2.2-2.2h-24.7c-1.2,0-2.2,1-2.2,2.2c0,1.2,1,2.2,2.2,2.2h10.3v39.5h4V65.8h10.3
					C299,65.8,300,64.8,300,63.6z"/>
			</g>
		</g>
	</g>
	<g>
		<path class="st0" d="M167,5c1.3,2.6,0.5,6-0.8,8.4L155.7,37l-0.1,0.1l-3.8-23.9c-0.3-2.3,2.2-3.3,3.6-4.4
			c-0.1-0.3-0.4-0.3-0.7-0.5l-3.5,0l-0.1-0.1c0-3,1.6-5.7,4.3-7.2c2.8-1.6,6.8-1.2,9.3,0.9C165.7,2.8,166.5,3.8,167,5z"/>
		<path class="st1" d="M147.7,4.2c0.9,1.6,1.4,3.4,1,5.4l-4.3,27.4c0,0,0,0.1-0.1,0.1l-1.1-2.2l-10.7-23.9c-1-3.1-0.1-6.3,2.2-8.5
			c2.3-2.3,6-2.9,8.9-1.7C145.3,1.4,146.8,2.6,147.7,4.2z"/>
		<path class="st2" d="M182.5,15.7c1.4,2.5,1.1,6.2-0.5,8.5c-1,1.6-2.6,2.4-4,3.5l-22.2,15.2h-0.1l0.2-0.7l11.8-26.5
			c1.8-3.1,5.1-4.7,8.7-4.2C178.9,11.8,181.3,13.3,182.5,15.7z"/>
		<path class="st3" d="M132.1,15.5l12.2,27.3h-0.2l-24.7-17c-2.5-2.1-3.5-5.3-2.7-8.5c0.6-2.4,2.6-4.6,5-5.5
			C125.7,10.4,130,11.9,132.1,15.5z"/>
		<path class="st4" d="M189,34.9c1.2,2.6,0.7,6.2-1,8.4c-1.7,2.1-4.1,3.3-6.8,3.2l-26.3,0l22-15.3c2.2-1.4,5.4-1.6,7.8-0.5
			C186.4,31.4,188.2,33.2,189,34.9z"/>
		<path class="st5" d="M111,34.9c-1.2,2.6-0.7,6.2,1,8.4c1.7,2.1,4.1,3.3,6.8,3.2l26.3,0l-22-15.3c-2.2-1.4-5.4-1.6-7.8-0.5
			C113.6,31.4,111.8,33.2,111,34.9z"/>
	</g>
</g>
</svg>
