<?xml version="1.0" encoding="utf-8"?>
<!-- Generator: Adobe Illustrator 21.0.2, SVG Export Plug-In . SVG Version: 6.00 Build 0)  -->
<!DOCTYPE svg PUBLIC "-//W3C//DTD SVG 1.1//EN" "http://www.w3.org/Graphics/SVG/1.1/DTD/svg11.dtd" [
	<!ENTITY ns_extend "http://ns.adobe.com/Extensibility/1.0/">
	<!ENTITY ns_ai "http://ns.adobe.com/AdobeIllustrator/10.0/">
	<!ENTITY ns_graphs "http://ns.adobe.com/Graphs/1.0/">
	<!ENTITY ns_vars "http://ns.adobe.com/Variables/1.0/">
	<!ENTITY ns_imrep "http://ns.adobe.com/ImageReplacement/1.0/">
	<!ENTITY ns_sfw "http://ns.adobe.com/SaveForWeb/1.0/">
	<!ENTITY ns_custom "http://ns.adobe.com/GenericCustomNamespace/1.0/">
	<!ENTITY ns_adobe_xpath "http://ns.adobe.com/XPath/1.0/">
]>
<svg version="1.1" id="art" xmlns:x="&ns_extend;" xmlns:i="&ns_ai;" xmlns:graph="&ns_graphs;"
	 xmlns="http://www.w3.org/2000/svg" xmlns:xlink="http://www.w3.org/1999/xlink" x="0px" y="0px" width="271px" height="243px"
	 viewBox="0 0 271 243" style="enable-background:new 0 0 271 243;" xml:space="preserve">
<style type="text/css">
	.st0{fill:#301C47;}
	.st1{fill:url(#SVGID_1_);}
	.st2{fill:#F4A04D;}
	.st3{fill:#C8495B;}
	.st4{fill:url(#SVGID_2_);}
	.st5{fill:url(#SVGID_3_);}
</style>
<metadata>
	<sfw  xmlns="&ns_sfw;">
		<slices></slices>
		<sliceSourceBounds  bottomLeftOrigin="true" height="192.3" width="250" x="-49.5" y="24"></sliceSourceBounds>
	</sfw>
</metadata>
<g>
	<path class="st0" d="M176.2,192.4l6.6-11.4l0.7-7.1l-0.2-8.8l-6.4-3.6l-7.1,2.1l-5.7-2.1l-4.3-6.4l-0.5-6.4l-0.2-5.2l3.6-5.5
		l4.5-6.4l3.3-4.3l3.3-1.9h6.2l4.7-2.1l3.1,2.6l3.3-5l-3.6-3.6L184,113h-3.8l-1.4,3.6l-1.2,5l-5.7,2.6l-4.3-1.9l-1.2-2.8v-3.8h7.4
		l-1.2-3.8l-4-3.8l3.6-0.2l4.3-3.3l0.9-3.3l2.4-2.6l-0.5-4.3h-5.9l-3.1-3.3l0.9-3.8l-0.5-7.8l4.7-1.7l3.6,1.2
		C165.7,68.3,148.9,62,130.6,62c-19,0-36.5,6.8-50.1,18h2l7.6-1.4l10.9-4.3l4.7,1.9l5.7,6.2l-4,6.2l-0.5,7.6l9,11.9l-7.6,3.1
		l-5.7,3.8l-6.2-0.5l-8.8,7.6l-0.5,4.7l-5,4.5l-0.5,6.6h-2.6l-5.5-4.5l-6.2,1.4l1.4,13.3l2.6-0.2l1.7-4l2.8-0.2l-0.5,6.9h3.8
		l0.2,4.7l5.5,2.1l4.3-3.8l17.1,5.9l10,5.5l1.4,3.6l18.7,5.7l-4,9l-0.2,6.2l-8.1,4l-4.3,10.2l-4.7,1.9l2.4,7.1l-4.3-2.1l-6.9-9
		L101,187l-11.9-8.5l-3.1-5.2l-0.5-12.6l-7.1-1.7l-5-6.9l-6.4-1.9l-4.3-4.3l-5.7-19l-2-8.2c-2,6.9-3.1,14.1-3.1,21.7
		c0,43.4,35.2,78.5,78.5,78.5c16.8,0,32.4-5.3,45.2-14.4l-4.8-3.9L176.2,192.4z M165.3,93.2l7.9,8.5l0.4,3.1l-6.3,0.2l-0.4-5.6
		l-2.8-4.6L165.3,93.2z M162.7,100l2.1,1.4l-0.2,2l-2.1,1.4l-0.9-3.7L162.7,100z M143.3,79.2l-7.4,3.6l-6.4,3.6l-2.3,5.7l-5.7-2.1
		l-3.3-7.9v-4.3l-0.6-5.3l-4-0.1l-0.8-2.4l8.3-4l10.3-1.7l6.6-0.7l3.1,4.7l2.4,4.9L143.3,79.2z"/>
	<linearGradient id="SVGID_1_" gradientUnits="userSpaceOnUse" x1="62.5503" y1="179.7681" x2="193.6706" y2="104.0658">
		<stop  offset="0.1761" style="stop-color:#C8495B;stop-opacity:0"/>
		<stop  offset="0.2382" style="stop-color:#C8495B;stop-opacity:0.1032"/>
		<stop  offset="1" style="stop-color:#C8495B;stop-opacity:0.5"/>
	</linearGradient>
	<path class="st1" d="M176.2,192.4l6.6-11.4l0.7-7.1l-0.2-8.8l-6.4-3.6l-7.1,2.1l-5.7-2.1l-4.3-6.4l-0.5-6.4l-0.2-5.2l3.6-5.5
		l4.5-6.4l3.3-4.3l3.3-1.9h6.2l4.7-2.1l3.1,2.6l3.3-5l-3.6-3.6L184,113h-3.8l-1.4,3.6l-1.2,5l-5.7,2.6l-4.3-1.9l-1.2-2.8v-3.8h7.4
		l-1.2-3.8l-4-3.8l3.6-0.2l4.3-3.3l0.9-3.3l2.4-2.6l-0.5-4.3h-5.9l-3.1-3.3l0.9-3.8l-0.5-7.8l4.7-1.7l3.6,1.2
		C165.7,68.3,148.9,62,130.6,62c-19,0-36.5,6.8-50.1,18h2l7.6-1.4l10.9-4.3l4.7,1.9l5.7,6.2l-4,6.2l-0.5,7.6l9,11.9l-7.6,3.1
		l-5.7,3.8l-6.2-0.5l-8.8,7.6l-0.5,4.7l-5,4.5l-0.5,6.6h-2.6l-5.5-4.5l-6.2,1.4l1.4,13.3l2.6-0.2l1.7-4l2.8-0.2l-0.5,6.9h3.8
		l0.2,4.7l5.5,2.1l4.3-3.8l17.1,5.9l10,5.5l1.4,3.6l18.7,5.7l-4,9l-0.2,6.2l-8.1,4l-4.3,10.2l-4.7,1.9l2.4,7.1l-4.3-2.1l-6.9-9
		L101,187l-11.9-8.5l-3.1-5.2l-0.5-12.6l-7.1-1.7l-5-6.9l-6.4-1.9l-4.3-4.3l-5.7-19l-2-8.2c-2,6.9-3.1,14.1-3.1,21.7
		c0,43.4,35.2,78.5,78.5,78.5c16.8,0,32.4-5.3,45.2-14.4l-4.8-3.9L176.2,192.4z M165.3,93.2l7.9,8.5l0.4,3.1l-6.3,0.2l-0.4-5.6
		l-2.8-4.6L165.3,93.2z M162.7,100l2.1,1.4l-0.2,2l-2.1,1.4l-0.9-3.7L162.7,100z M143.3,79.2l-7.4,3.6l-6.4,3.6l-2.3,5.7l-5.7-2.1
		l-3.3-7.9v-4.3l-0.6-5.3l-4-0.1l-0.8-2.4l8.3-4l10.3-1.7l6.6-0.7l3.1,4.7l2.4,4.9L143.3,79.2z"/>
	<path class="st2" d="M62.8,146l4.3,4.3l6.4,1.9l5,6.9l7.1,1.7l0.5,12.6l3.1,5.2L101,187l5.5,14.5l6.9,9l4.3,2.1l-2.4-7.1l4.7-1.9
		l4.3-10.2l8.1-4l0.2-6.2l4-9l-18.7-5.7l-1.4-3.6l-10-5.5l-17.1-5.9l-4.3,3.8l-5.5-2.1l-0.2-4.7h-3.8l0.5-6.9l-2.8,0.2l-1.7,4
		l-2.6,0.2l-1.4-13.3l6.2-1.4l5.5,4.5h2.6l0.5-6.6l5-4.5l0.5-4.7l8.8-7.6l6.2,0.5l5.7-3.8l7.6-3.1l-9-11.9l0.5-7.6l4-6.2l-5.7-6.2
		l-4.7-1.9l-10.9,4.3L82.5,80h-2c-12,9.9-21,23.4-25.4,38.8l2,8.2L62.8,146z"/>
	<path class="st2" d="M209.1,140.5c0-25-11.7-47.3-30-61.7l-3.6-1.2l-4.7,1.7l0.5,7.8l-0.9,3.8l3.1,3.3h5.9l0.5,4.3l-2.4,2.6
		l-0.9,3.3l-4.3,3.3l-3.6,0.2l4,3.8l1.2,3.8h-7.4v3.8l1.2,2.8l4.3,1.9l5.7-2.6l1.2-5l1.4-3.6h3.8l3.6,4.5l3.6,3.6l-3.3,5l-3.1-2.6
		l-4.7,2.1h-6.2l-3.3,1.9l-3.3,4.3l-4.5,6.4l-3.6,5.5l0.2,5.2l0.5,6.4l4.3,6.4l5.7,2.1l7.1-2.1l6.4,3.6l0.2,8.8l-0.7,7.1l-6.6,11.4
		l-5.2,8.3l4.8,3.9C195.9,190.5,209.1,167,209.1,140.5z"/>
	<polygon class="st2" points="167.3,105.1 173.6,104.8 173.2,101.7 165.3,93.2 164.1,94.9 166.9,99.5 	"/>
	<polygon class="st2" points="164.6,103.4 164.8,101.4 162.7,100 161.5,101.2 162.4,104.8 	"/>
	<polygon class="st2" points="138.1,63.4 131.5,64.2 121.2,65.8 112.9,69.8 113.7,72.2 117.7,72.3 118.3,77.7 118.3,81.9 
		121.6,89.9 127.3,92 129.6,86.3 136,82.8 143.3,79.2 143.6,73 141.2,68.2 	"/>
</g>
<g>
	<g>
		<path class="st3" d="M75.5,92l-0.1,0.1L89.3,114l13.8-37.8l-0.1,0.1c0.5-1.8,0.9-3.7,0.9-5.4c0-8-6.5-10.8-14.6-6.2
			c-8,4.6-14.6,14.9-14.6,23C74.7,89.4,75,90.8,75.5,92z"/>
	</g>
	<g>
		<path class="st0" d="M80.3,84.3c0,5,4.1,6.7,9.1,3.8s9.1-9.3,9.1-14.3s-4.1-6.7-9.1-3.8C84.4,72.9,80.3,79.3,80.3,84.3z"/>
		<g>
			<path class="st2" d="M87.4,85l4-2.3V79c0-1.1-0.9-1.5-2-0.8l0,0c-1.1,0.6-2,2-2,3.1V85z"/>
			<path class="st3" d="M89.2,74.2c-0.9,0.5-1.7,1.7-1.7,2.6c0,0.9,0.7,1.2,1.7,0.7c0.9-0.5,1.7-1.7,1.7-2.6
				C90.9,74,90.2,73.7,89.2,74.2z"/>
		</g>
	</g>
</g>
<g>
	<g>
		<path class="st3" d="M186.3,157.3L186.3,157.3l7.7,12.4l7.8-21.3l-0.1,0c0.3-1,0.5-2.1,0.5-3c0-4.5-3.7-6.1-8.2-3.5
			c-4.5,2.6-8.2,8.4-8.2,12.9C185.8,155.8,186,156.6,186.3,157.3z"/>
	</g>
	<g>
		<path class="st0" d="M188.9,153c0,2.8,2.3,3.8,5.1,2.2c2.8-1.6,5.1-5.2,5.1-8c0-2.8-2.3-3.8-5.1-2.2
			C191.2,146.5,188.9,150.1,188.9,153z"/>
		<g>
			<path class="st2" d="M192.9,153.4l2.2-1.3V150c0-0.6-0.5-0.8-1.1-0.5l0,0c-0.6,0.4-1.1,1.1-1.1,1.8V153.4z"/>
			<path class="st3" d="M194,147.3c-0.5,0.3-0.9,1-0.9,1.5c0,0.5,0.4,0.7,0.9,0.4c0.5-0.3,0.9-1,0.9-1.5S194.5,147,194,147.3z"/>
		</g>
	</g>
</g>
<g>
	<g>
		<path class="st3" d="M154.5,75.4l-0.2,0.1l22.7,36.1l22.9-62.3l-0.2,0.1c0.9-3,1.4-6,1.4-8.9c0-13.3-10.7-17.8-24-10.2
			c-13.3,7.6-24.1,24.6-24.1,37.8C153.1,71,153.6,73.4,154.5,75.4z"/>
	</g>
	<g>
		<path class="st0" d="M162.4,62.7c0,8.2,6.7,11.1,14.9,6.3c8.3-4.7,15-15.3,15-23.5c0-8.2-6.7-11.1-14.9-6.3S162.4,54.4,162.4,62.7
			z"/>
		<g>
			<path class="st3" d="M174,63.9l6.5-3.7l0-6.1c0-1.8-1.5-2.4-3.3-1.4l0,0c-1.8,1-3.3,3.3-3.3,5.1L174,63.9z"/>
			<path class="st2" d="M177.1,46.1c-1.5,0.9-2.8,2.8-2.8,4.3s1.2,2,2.8,1.2c1.5-0.9,2.8-2.8,2.8-4.3S178.6,45.3,177.1,46.1z"/>
		</g>
	</g>
</g>
<g>
	<g>
		<path class="st3" d="M101.8,166.6l-0.1,0.1l14.1,22.2l14.1-38.5l-0.1,0.1c0.6-1.9,0.9-3.7,0.9-5.5c0-8.2-6.6-11-14.8-6.3
			c-8.2,4.7-14.8,15.2-14.8,23.4C100.9,163.9,101.2,165.4,101.8,166.6z"/>
	</g>
	<g>
		<path class="st0" d="M106.6,158.7c0,5.1,4.1,6.8,9.2,3.9s9.2-9.4,9.2-14.5s-4.1-6.8-9.2-3.9S106.6,153.6,106.6,158.7z"/>
		<g>
			<path class="st3" d="M113.8,159.5l4-2.3v-3.8c0-1.1-0.9-1.5-2-0.8l0,0c-1.1,0.6-2,2.1-2,3.2V159.5z"/>
			<path class="st2" d="M115.7,148.5c-0.9,0.5-1.7,1.7-1.7,2.7c0,0.9,0.8,1.3,1.7,0.7c0.9-0.5,1.7-1.7,1.7-2.7
				C117.4,148.3,116.6,148,115.7,148.5z"/>
		</g>
	</g>
</g>
<linearGradient id="SVGID_2_" gradientUnits="userSpaceOnUse" x1="202.6783" y1="102.4576" x2="244.0775" y2="126.3595">
	<stop  offset="0" style="stop-color:#C8495B;stop-opacity:0.2"/>
	<stop  offset="1" style="stop-color:#C8495B;stop-opacity:0.5"/>
</linearGradient>
<path class="st4" d="M260.5,98c0-0.2,0-0.3,0-0.5c0-6.8-5.5-9.1-12.3-5.2c-3.6,2.1-6.9,5.6-9.2,9.4c-1.8-10.9-12-14.1-24.4-6.9
	C201,102.6,190,120,190,133.6c0,1.7,0.2,3.3,0.5,4.7L260.5,98z"/>
<linearGradient id="SVGID_3_" gradientUnits="userSpaceOnUse" x1="10.4884" y1="2338.9475" x2="55.2879" y2="2338.9475" gradientTransform="matrix(1 -1.1547 0 -1 0 2480.2454)">
	<stop  offset="0" style="stop-color:#C8495B;stop-opacity:0.2"/>
	<stop  offset="1" style="stop-color:#C8495B;stop-opacity:0.5"/>
</linearGradient>
<path class="st5" d="M55.2,93.8c0-0.4,0.1-0.7,0.1-1c0-4.6-3.7-6.1-8.2-3.5c-1.6,0.9-3,2.2-4.3,3.7c-1.4-4.3-6.1-5.3-11.6-2.1
	c-6.7,3.8-12,12.3-12,19c0,0.3,0,0.6,0,0.9c-0.9,0-1.8,0.3-2.9,0.9c-2.8,1.6-5.2,5-5.8,8L55.2,93.8z"/>
</svg>
