<?xml version="1.0" encoding="utf-8"?>
<!-- Generator: Adobe Illustrator 20.0.0, SVG Export Plug-In . SVG Version: 6.00 Build 0)  -->
<!DOCTYPE svg PUBLIC "-//W3C//DTD SVG 1.1//EN" "http://www.w3.org/Graphics/SVG/1.1/DTD/svg11.dtd" [
	<!ENTITY ns_extend "http://ns.adobe.com/Extensibility/1.0/">
	<!ENTITY ns_ai "http://ns.adobe.com/AdobeIllustrator/10.0/">
	<!ENTITY ns_graphs "http://ns.adobe.com/Graphs/1.0/">
	<!ENTITY ns_vars "http://ns.adobe.com/Variables/1.0/">
	<!ENTITY ns_imrep "http://ns.adobe.com/ImageReplacement/1.0/">
	<!ENTITY ns_sfw "http://ns.adobe.com/SaveForWeb/1.0/">
	<!ENTITY ns_custom "http://ns.adobe.com/GenericCustomNamespace/1.0/">
	<!ENTITY ns_adobe_xpath "http://ns.adobe.com/XPath/1.0/">
]>
<svg version="1.1" id="art" xmlns:x="&ns_extend;" xmlns:i="&ns_ai;" xmlns:graph="&ns_graphs;"
	 xmlns="http://www.w3.org/2000/svg" xmlns:xlink="http://www.w3.org/1999/xlink" x="0px" y="0px" width="151px" height="243px"
	 viewBox="0 0 151 243" style="enable-background:new 0 0 151 243;" xml:space="preserve">
<style type="text/css">
	.st0{fill:#F4A04D;}
	.st1{fill:url(#SVGID_1_);}
	.st2{fill:#C8495B;}
	.st3{fill:#301C47;}
	.st4{fill:url(#SVGID_2_);}
	.st5{fill:none;stroke:#F4A04D;stroke-width:3;stroke-linecap:round;stroke-miterlimit:10;}
	.st6{fill:none;stroke:#C8495B;stroke-width:3;stroke-linecap:round;stroke-miterlimit:10;}
	.st7{fill:url(#SVGID_3_);}
</style>
<metadata>
	<sfw  xmlns="&ns_sfw;">
		<slices></slices>
		<sliceSourceBounds  bottomLeftOrigin="true" height="174.6" width="150.8" x="0" y="0"></sliceSourceBounds>
	</sfw>
</metadata>
<polygon class="st0" points="0.1,78 45.1,51.9 45.1,95.5 0.1,121.6 "/>
<linearGradient id="SVGID_1_" gradientUnits="userSpaceOnUse" x1="-9.3655" y1="137.1947" x2="54.5655" y2="174.1053" gradientTransform="matrix(1 0 0 -1 0 242.4)">
	<stop  offset="0.406" style="stop-color:#C8495B;stop-opacity:0"/>
	<stop  offset="1" style="stop-color:#C8495B;stop-opacity:0.5"/>
</linearGradient>
<polygon class="st1" points="0.1,78 45.1,51.9 45.1,95.5 0.1,121.6 "/>
<g>
	<path class="st2" d="M20.4,101.6l-9.2,5.3v-13c0-2.5,2.1-5.8,4.6-7.3l0,0c2.5-1.5,4.6-0.6,4.6,1.9V101.6z"/>
	<path class="st3" d="M19.7,79.8c0,2-1.6,4.6-3.7,5.8c-2,1.2-3.7,0.5-3.7-1.6c0-2,1.6-4.6,3.7-5.8C18.1,77.1,19.7,77.8,19.7,79.8z"
		/>
</g>
<g>
	<path class="st3" d="M36,93.3l-9.2,5.3v-13c0-2.5,2.1-5.8,4.6-7.3l0,0c2.5-1.5,4.6-0.6,4.6,1.9V93.3z"/>
	<path class="st2" d="M35.3,71.5c0,2-1.6,4.6-3.7,5.8c-2,1.2-3.7,0.5-3.7-1.6c0-2,1.6-4.6,3.7-5.8C33.6,68.7,35.3,69.4,35.3,71.5z"
		/>
</g>
<polygon class="st2" points="24.9,94.8 129.4,34.2 129.4,135.6 24.9,196.1 "/>
<polygon class="st3" points="24.9,107.5 129.4,46.9 129.4,148.3 24.9,208.8 "/>
<linearGradient id="SVGID_2_" gradientUnits="userSpaceOnUse" x1="9.338" y1="107.9459" x2="65.8981" y2="75.2909" gradientTransform="matrix(1 0 0 -1 0 242.4)">
	<stop  offset="0.4968" style="stop-color:#C8495B;stop-opacity:0"/>
	<stop  offset="1" style="stop-color:#C8495B;stop-opacity:0.5"/>
</linearGradient>
<polygon class="st4" points="24.9,107.5 50.4,92.8 50.4,194.1 24.9,208.8 "/>
<g>
	<line class="st5" x1="98.8" y1="105.3" x2="111" y2="98.2"/>
	<line class="st5" x1="61.8" y1="138" x2="87.8" y2="122.9"/>
	<line class="st5" x1="74.8" y1="153.7" x2="81.7" y2="149.7"/>
	<line class="st5" x1="61.8" y1="161.2" x2="69.3" y2="156.9"/>
	<line class="st5" x1="81.7" y1="137.7" x2="84.8" y2="135.9"/>
	<line class="st5" x1="61.8" y1="149.2" x2="73.3" y2="142.6"/>
	<g>
		<line class="st5" x1="98.8" y1="82.8" x2="104.9" y2="79.2"/>
		<line class="st5" x1="76.8" y1="95.6" x2="89.5" y2="88.2"/>
		<line class="st5" x1="61.8" y1="104.2" x2="69.7" y2="99.6"/>
		<line class="st5" x1="61.8" y1="172.5" x2="69.7" y2="167.9"/>
		<line class="st5" x1="61.8" y1="115.5" x2="87.8" y2="100.4"/>
		<line class="st5" x1="81.7" y1="115.2" x2="92.3" y2="109"/>
		<line class="st5" x1="61.8" y1="126.7" x2="73.3" y2="120.1"/>
	</g>
</g>
<g>
	<line class="st6" x1="32.6" y1="151.5" x2="40.1" y2="147.1"/>
	<line class="st6" x1="32.6" y1="174.7" x2="40.1" y2="170.4"/>
	<line class="st6" x1="32.6" y1="162.7" x2="44.1" y2="156"/>
	<g>
		<line class="st6" x1="32.6" y1="117.7" x2="40.5" y2="113.1"/>
		<line class="st6" x1="32.6" y1="186" x2="40.5" y2="181.4"/>
		<line class="st6" x1="32.6" y1="129" x2="39.8" y2="124.8"/>
		<line class="st6" x1="32.6" y1="140.2" x2="44.1" y2="133.5"/>
	</g>
</g>
<polygon class="st0" points="96.4,133.1 150.9,101.5 150.9,154.4 96.4,186 "/>
<linearGradient id="SVGID_3_" gradientUnits="userSpaceOnUse" x1="84.9177" y1="76.2879" x2="162.3823" y2="121.0121" gradientTransform="matrix(1 0 0 -1 0 242.4)">
	<stop  offset="0.406" style="stop-color:#C8495B;stop-opacity:0"/>
	<stop  offset="1" style="stop-color:#C8495B;stop-opacity:0.5"/>
</linearGradient>
<polygon class="st7" points="96.4,133.1 150.9,101.5 150.9,154.4 96.4,186 "/>
<g>
	<path class="st0" d="M112.9,50c0,0.9-0.7,2-1.6,2.5s-1.6,0.2-1.6-0.7s0.7-2,1.6-2.5C112.1,48.8,112.9,49.1,112.9,50z"/>
	<path class="st0" d="M119.3,46.2c0,0.9-0.7,2-1.6,2.5s-1.6,0.2-1.6-0.7c0-0.9,0.7-2,1.6-2.5C118.6,45.1,119.3,45.4,119.3,46.2z"/>
	<path class="st0" d="M125.7,42.5c0,0.9-0.7,2-1.6,2.5s-1.6,0.2-1.6-0.7c0-0.9,0.7-2,1.6-2.5S125.7,41.6,125.7,42.5z"/>
</g>
<g>
	<path class="st2" d="M120.2,162l-11.2,6.4v-15.7c0-3.1,2.5-7,5.6-8.8l0,0c3.1-1.8,5.6-0.7,5.6,2.4V162z"/>
	<path class="st3" d="M119.4,135.6c0,2.5-2,5.6-4.5,7c-2.5,1.4-4.5,0.6-4.5-1.9s2-5.6,4.5-7S119.4,133.1,119.4,135.6z"/>
</g>
<g>
	<path class="st3" d="M139,151.9l-11.2,6.4v-15.7c0-3.1,2.5-7,5.6-8.8l0,0c3.1-1.8,5.6-0.7,5.6,2.4V151.9L139,151.9z"/>
	<path class="st2" d="M138.2,125.5c0,2.5-2,5.6-4.5,7s-4.5,0.6-4.5-1.9s2-5.6,4.5-7S138.2,123,138.2,125.5z"/>
</g>
</svg>
