<?xml version="1.0" encoding="utf-8"?>
<!-- Generator: Adobe Illustrator 21.1.0, SVG Export Plug-In . SVG Version: 6.00 Build 0)  -->
<!DOCTYPE svg PUBLIC "-//W3C//DTD SVG 1.1//EN" "http://www.w3.org/Graphics/SVG/1.1/DTD/svg11.dtd" [
	<!ENTITY ns_extend "http://ns.adobe.com/Extensibility/1.0/">
	<!ENTITY ns_ai "http://ns.adobe.com/AdobeIllustrator/10.0/">
	<!ENTITY ns_graphs "http://ns.adobe.com/Graphs/1.0/">
	<!ENTITY ns_vars "http://ns.adobe.com/Variables/1.0/">
	<!ENTITY ns_imrep "http://ns.adobe.com/ImageReplacement/1.0/">
	<!ENTITY ns_sfw "http://ns.adobe.com/SaveForWeb/1.0/">
	<!ENTITY ns_custom "http://ns.adobe.com/GenericCustomNamespace/1.0/">
	<!ENTITY ns_adobe_xpath "http://ns.adobe.com/XPath/1.0/">
]>
<svg version="1.1" id="Layer_1" xmlns:x="&ns_extend;" xmlns:i="&ns_ai;" xmlns:graph="&ns_graphs;"
	 xmlns="http://www.w3.org/2000/svg" xmlns:xlink="http://www.w3.org/1999/xlink" x="0px" y="0px" width="300px" height="44.5px"
	 viewBox="0 0 300 44.5" style="enable-background:new 0 0 300 44.5;" xml:space="preserve">
<style type="text/css">
	.st0{fill:#88C050;}
	.st1{fill:#676866;}
</style>
<metadata>
	<sfw  xmlns="&ns_sfw;">
		<slices></slices>
		<sliceSourceBounds  bottomLeftOrigin="true" height="44.5" width="300" x="337.3" y="50.2"></sliceSourceBounds>
	</sfw>
</metadata>
<title>Slice 1</title>
<desc>Created with Sketch.</desc>
<g id="Page-1">
	<g id="ConvivaLogo_FNL1_RGB" transform="translate(0.000000, -195.000000)">
		<polygon id="Fill-1" class="st0" points="68.5,210.7 72.4,210.7 72.4,195 68.5,195 		"/>
		<path id="Fill-2" class="st1" d="M76,197.2v4.6c6.8,2.2,11.3,8.3,11.3,16.2c0,9.9-7.1,17-16.8,17s-16.8-7.2-16.8-17
			c0-7.9,4.5-14,11.2-16.2v-4.6c-9.5,2.3-16.2,10.5-16.2,20.8c0,12.2,9.3,21.5,21.7,21.5c12.4,0,21.7-9.2,21.7-21.5
			C92.2,207.7,85.5,199.5,76,197.2"/>
		<path id="Fill-3" class="st1" d="M292.3,201.3c0-1.1,0.4-2,1.1-2.7c0.8-0.8,1.7-1.1,2.7-1.1c1.1,0,2,0.4,2.7,1.1
			c0.8,0.8,1.1,1.7,1.1,2.7c0,1.1-0.4,2-1.1,2.7c-0.8,0.8-1.7,1.1-2.7,1.1c-1.1,0-2-0.4-2.7-1.1
			C292.6,203.3,292.3,202.4,292.3,201.3L292.3,201.3z M299.4,201.3c0-0.9-0.3-1.7-0.9-2.3c-0.6-0.6-1.4-0.9-2.3-0.9
			c-0.9,0-1.7,0.3-2.3,0.9c-0.6,0.6-0.9,1.4-0.9,2.3c0,0.9,0.3,1.7,0.9,2.3c0.6,0.6,1.4,1,2.3,1c0.9,0,1.7-0.3,2.3-1
			C299.1,203,299.4,202.2,299.4,201.3L299.4,201.3z M297.3,203.7l-1.2-2h-0.7v2h-0.7v-4.8h1.2c1.2,0,1.7,0.4,1.7,1.3
			c0,0.6-0.3,1-0.9,1.3l1.3,2.1H297.3z M295.4,199.5v1.6c0.1,0,0.2,0,0.4,0c0.4,0,0.7-0.1,0.9-0.2c0.2-0.1,0.2-0.3,0.2-0.6
			c0-0.5-0.3-0.8-1-0.8h-0.3L295.4,199.5L295.4,199.5z"/>
		<path id="Fill-4" class="st1" d="M22.5,239.5C9.9,239.5,0,230.1,0,218c0-11.8,10-21.4,22.2-21.4c8.9,0,16.9,5.1,20.1,12.8h-5.6
			c-3-5-8.6-8.2-14.4-8.2c-9.8,0-17.4,7.3-17.4,16.7c0,9.5,7.5,17,17,17c6.3,0,11-2.5,14.9-7.8h5.5
			C38.4,234.9,31.1,239.5,22.5,239.5"/>
		<polyline id="Fill-5" class="st1" points="160.5,238.5 143.2,197.5 148.5,197.5 163.2,232.7 177.9,197.5 183.2,197.5 165.8,238.5 
			160.5,238.5 		"/>
		<polygon id="Fill-6" class="st1" points="191.4,238.5 196.3,238.5 196.3,197.5 191.4,197.5 		"/>
		<polyline id="Fill-7" class="st1" points="244.6,197.5 227.3,238.5 221.9,238.5 204.6,197.5 209.9,197.5 224.6,232.7 239.3,197.5 
					"/>
		<path id="Fill-8" class="st1" d="M100.9,238.5v-41h4.9v4.6l0.6-0.6c3.5-3.2,8-4.9,12.7-4.9c5.6,0,10.9,2.5,14.5,6.8
			c3.1,3.9,3.7,8.2,3.7,13.5v21.6h-4.9v-21.6c0-3.2-0.2-6.9-2.5-10.2c-2.5-3.4-6.4-5.4-10.9-5.5c-4.5,0.1-8.4,2.1-10.9,5.5
			c-2.3,3.2-2.5,6.9-2.5,10.2v21.6H100.9"/>
		<path id="Fill-9" class="st1" d="M268.2,200.4c-9,0-15.6,7.1-15.6,16.9c0,9.8,6.6,16.9,15.6,16.9c8.8,0,15.6-7.8,15.6-17.7
			C283.8,207,277.4,200.4,268.2,200.4z M268.2,238.7c-11.6,0-20.4-9.2-20.4-21.4c0-12.2,8.8-21.4,20.4-21.4
			c11.8,0,20.4,8.7,20.4,20.6c0,0,0,0.3,0,0.3v21.7h-4.7v-7.6l-0.7,0.8C279.3,236.2,274,238.7,268.2,238.7L268.2,238.7z"/>
	</g>
</g>
</svg>
