<?xml version="1.0" encoding="UTF-8"?>
<svg width="975px" height="145px" viewBox="0 0 975 145" version="1.1" xmlns="http://www.w3.org/2000/svg" xmlns:xlink="http://www.w3.org/1999/xlink">
    <!-- Generator: Sketch 44.1 (41455) - http://www.bohemiancoding.com/sketch -->
    <title>Slice 1</title>
    <desc>Created with Sketch.</desc>
    <defs></defs>
    <g id="Page-1" stroke="none" stroke-width="1" fill="none" fill-rule="evenodd">
        <g id="ConvivaLogo_FNL1_RGB" transform="translate(0.000000, -195.000000)">
            <polygon id="Fill-1" fill="#88C050" points="222.79 246.091 235.23 246.091 235.23 195.243 222.79 195.243"></polygon>
            <path d="M247.06,202.515 L247.06,217.519 C268.98,224.581 283.59,244.496 283.59,270.055 C283.59,302.132 260.63,325.415 229.01,325.415 C197.39,325.415 174.44,302.132 174.44,270.055 C174.44,244.496 189.04,224.58 210.96,217.519 L210.96,202.514 C180.09,210.015 158.489,236.525 158.489,270.055 C158.489,309.812 188.81,339.794 229.01,339.794 C269.22,339.794 299.53,309.812 299.53,270.055 C299.53,236.525 277.94,210.016 247.06,202.515" id="Fill-2" fill="#676866"></path>
            <path d="M949.19,215.775 C949.19,212.313 950.43,209.361 952.88,206.913 C955.34,204.451 958.29,203.228 961.77,203.228 C965.23,203.228 968.18,204.451 970.63,206.913 C973.09,209.361 974.32,212.313 974.32,215.775 C974.32,219.234 973.09,222.189 970.63,224.651 C968.18,227.11 965.23,228.335 961.77,228.335 C958.29,228.335 955.34,227.11 952.88,224.651 C950.43,222.189 949.19,219.234 949.19,215.775 L949.19,215.775 Z M972.26,215.775 C972.26,212.864 971.25,210.402 969.18,208.348 C967.14,206.293 964.67,205.269 961.77,205.269 C958.86,205.269 956.38,206.293 954.31,208.348 C952.28,210.402 951.25,212.864 951.25,215.775 C951.25,218.672 952.28,221.148 954.31,223.202 C956.38,225.268 958.86,226.295 961.77,226.295 C964.67,226.295 967.14,225.268 969.18,223.202 C971.25,221.148 972.26,218.672 972.26,215.775 L972.26,215.775 Z M965.67,223.343 L961.76,216.689 L959.51,216.689 L959.51,223.343 L957.3,223.343 L957.3,207.885 L961.25,207.885 C964.99,207.885 966.85,209.303 966.85,212.159 C966.85,214.142 965.85,215.549 963.85,216.364 L968.07,223.343 L965.67,223.343 Z M959.51,209.782 L959.51,214.916 C959.7,214.929 960.18,214.946 960.97,214.946 C962.4,214.946 963.37,214.761 963.86,214.412 C964.36,214.045 964.61,213.34 964.61,212.313 C964.61,210.611 963.5,209.755 961.25,209.755 L960.39,209.755 L959.51,209.782 L959.51,209.782 Z" id="Fill-3" fill="#676866"></path>
            <path d="M73.2,339.794 C32.284,339.794 0.235,309.052 0.235,269.808 C0.235,231.489 32.634,200.315 72.455,200.315 C101.296,200.315 127.246,216.997 137.633,242.012 L119.566,242.012 C109.824,225.859 91.51,215.46 72.705,215.46 C40.977,215.46 16.121,239.223 16.121,269.558 C16.121,300.451 40.321,324.651 71.213,324.651 C91.585,324.651 106.945,316.604 119.495,299.338 L137.259,299.338 C124.899,324.711 101.089,339.794 73.2,339.794" id="Fill-4" fill="#676866"></path>
            <polyline id="Fill-5" fill="#676866" points="521.28 336.566 465.24 203.297 482.4 203.297 530.13 317.695 577.86 203.297 595.02 203.297 538.74 336.566 521.28 336.566"></polyline>
            <polygon id="Fill-6" fill="#676866" points="621.63 336.568 637.51 336.568 637.51 203.298 621.63 203.298"></polygon>
            <polyline id="Fill-7" fill="#676866" points="794.45 203.297 738.17 336.566 720.71 336.566 664.67 203.297 681.83 203.297 729.56 317.695 777.29 203.297"></polyline>
            <path d="M327.87,336.568 L327.87,203.298 L343.76,203.298 L343.76,218.265 L345.83,216.371 C357.18,206.019 371.87,200.317 387.19,200.317 C405.49,200.317 422.69,208.384 434.38,222.451 C444.44,235.143 446.5,249.175 446.5,266.333 L446.5,336.566 L430.61,336.566 L430.61,266.333 C430.61,255.882 429.98,243.851 422.44,233.347 C414.46,222.226 401.62,215.72 387.21,215.499 C372.76,215.72 359.91,222.226 351.93,233.347 C344.39,243.855 343.76,255.883 343.76,266.333 L343.76,336.568 L327.87,336.568" id="Fill-8" fill="#676866"></path>
            <path d="M870.97,212.721 C841.59,212.721 820.26,235.797 820.26,267.591 C820.26,299.382 841.59,322.458 870.97,322.458 C899.41,322.458 921.69,297.282 921.69,265.143 C921.69,234.278 900.84,212.721 870.97,212.721 Z M870.97,337.084 C833.3,337.084 804.88,307.209 804.88,267.591 C804.88,227.973 833.3,198.097 870.97,198.097 C909.27,198.097 937.07,226.293 937.07,265.143 C937.07,265.287 937.02,266.057 937.02,266.057 L937.02,336.53 L921.72,336.53 L921.72,311.75 L919.53,314.309 C907.01,328.996 889.76,337.084 870.97,337.084 L870.97,337.084 Z" id="Fill-9" fill="#676866"></path>
        </g>
    </g>
</svg>