<?xml version="1.0" encoding="utf-8"?>
<!-- Generator: Adobe Illustrator 19.1.0, SVG Export Plug-In . SVG Version: 6.00 Build 0)  -->
<!DOCTYPE svg PUBLIC "-//W3C//DTD SVG 1.1//EN" "http://www.w3.org/Graphics/SVG/1.1/DTD/svg11.dtd">
<svg xmlns:sketch="http://www.bohemiancoding.com/sketch/ns" xmlns="http://www.w3.org/2000/svg" xmlns:xlink="http://www.w3.org/1999/xlink" version="1.1" id="Layer_1" x="0px" y="0px" viewBox="191 28 317.3 44.8" style="enable-background:new 191 28 317.3 44.8;" xml:space="preserve">
<style type="text/css">
	.st0{fill:#000;}
	.st1{fill:#84BF41;}
	.st2{fill:#85BF43;}
</style>
<g id="Page-1" sketch:type="MSPage">
	<g id="Artbox" sketch:type="MSArtboardGroup">
		<g id="Conviva" transform="translate(42.000000, 128.000000)" sketch:type="MSLayerGroup">
			<g id="Group-3" transform="translate(0.000000, 1.551724)" sketch:type="MSShapeGroup">
				<path id="Fill-1" class="st0" d="M181.1-67.1c-3,3-6.7,4.6-11,4.6c-4.4,0-8.1-1.5-11.1-4.5c-2.9-3-4.4-6.7-4.4-11.2      c0-4.5,1.5-8.2,4.4-11.1c2.9-3,6.7-4.4,11.1-4.4c4.3,0,8.1,1.6,11.1,4.8l0.3,0.3l4-4l-0.3-0.3c-4.1-4.3-9.2-6.5-15.1-6.5      c-6,0-11,2.1-15.1,6.1c-4,4.1-6.1,9.2-6.1,15.2c0,6.1,2,11.2,6,15.3c4,4.1,9.1,6.1,15.1,6.1c5.8,0,10.8-2.1,14.9-6.3l0.3-0.3      l-4-4L181.1-67.1"/>
			</g>
			<path id="Fill-4" sketch:type="MSShapeGroup" class="st0" d="M263.1-86.4v30.6h-2.8c-0.3,0-1.2-0.1-2.9-0.1v-41.3h5.7L284.6-67     v-30.2h5.9v41.3c-1.8,0-2.8,0-3,0.1l-2.9,0.1L263.1-86.4"/>
			<path id="Fill-5" sketch:type="MSShapeGroup" class="st1" d="M326.6-55.7l-20.7-37.9l-0.1-3.5h4.9L326.7-68l15.7-29.2h4.8     l0.2,3.5L326.6-55.7"/>
			<path id="Fill-6" sketch:type="MSShapeGroup" class="st1" d="M362.6-97.1h5.9v41.4h-5.9V-97.1z"/>
			<path id="Fill-7" sketch:type="MSShapeGroup" class="st1" d="M404.8-55.7l-20.7-37.9l-0.1-3.5h4.9L404.9-68l15.7-29.2h4.7     l0.2,3.5L404.8-55.7"/>
			<path id="Fill-8" sketch:type="MSShapeGroup" class="st1" d="M440-74.7h11.6l-5.8-10.5L440-74.7L440-74.7z M454.1-69.8h-16.7     l-7.3,13.1h-4.9l0.1-3.4l20.5-37l20.4,37l-0.2,3.4h-4.8L454.1-69.8L454.1-69.8z"/>
			<path id="Fill-9" sketch:type="MSShapeGroup" class="st2" d="M236.2-91.9c-2.6-2.6-5.6-4.4-9-5.3l-0.6-0.2v6l0.3,0.1     c2,0.7,3.8,1.9,5.3,3.4c2.9,3,4.4,6.7,4.4,11.1c0,4.4-1.5,8.2-4.4,11.2c-2.9,3-6.6,4.5-11,4.5c-4.4,0-8.1-1.5-11.1-4.5     c-2.9-3-4.4-6.7-4.4-11.2c0-4.4,1.5-8.2,4.4-11.1c1.6-1.6,3.6-2.9,5.8-3.6l0.3-0.1v-5.9l-0.6,0.1c-3.6,0.9-6.8,2.7-9.5,5.4     c-4,4.1-6.1,9.2-6.1,15.2c0,6.1,2,11.2,6.1,15.3c4,4,9.1,6.1,15.1,6.1c6,0,11-2.1,15-6.1c4-4.1,6-9.2,6-15.2     C242.3-82.7,240.2-87.8,236.2-91.9"/>
			<path id="Fill-10" sketch:type="MSShapeGroup" class="st1" d="M219.1-100h4.6v17.8h-4.6V-100z"/>
		</g>
	</g>
</g>
</svg>
