<?xml version="1.0" encoding="utf-8"?>
<!-- Generator: Adobe Illustrator 15.0.0, SVG Export Plug-In . SVG Version: 6.00 Build 0)  -->
<!DOCTYPE svg PUBLIC "-//W3C//DTD SVG 1.1//EN" "http://www.w3.org/Graphics/SVG/1.1/DTD/svg11.dtd">
<svg version="1.1" id="Layer_1" xmlns="http://www.w3.org/2000/svg" xmlns:xlink="http://www.w3.org/1999/xlink" x="0px" y="0px"
	 width="222.271px" height="102.915px" viewBox="0 0 222.271 102.915" enable-background="new 0 0 222.271 102.915"
	 xml:space="preserve">
<path fill="#0093D0" d="M101.133,67.825c-0.163-0.018-0.315-0.057-0.44-0.133c-0.47-0.295-0.605-0.857-0.663-1.446
	c0.658-7.046,2.536-13.829,7.312-19.442c2.697-3.167,6.146-6.604,10.345-7.577c5.671-1.318,10.319,0.187,15.928,1.083
	c0.165,0.033,0.309,0.085,0.458,0.13c3.013-4.438,6.628-8.708,8.7-13.403c3.488-7.877,4.352-26.605,16.406-27.027
	c6.364-0.222,10.438,3.309,16.404,4.756c3.836,0.938,12.125,0.596,14.936,3.55c2.86,2.997,1.952,5.714,0.084,8.261
	c2.877,2.458,4.652,6.572,5.85,9.97c0.844,2.407,1.588,4.853,1.799,7.404c0.076,0.963-0.039,2.017-0.035,3.033
	c0.535-0.116,1.061-0.203,1.593-0.253c6.988-0.606,11.872,5.042,16.087,10.002c3.816,4.497,5.686,8.563,6.352,13.121
	c0.274,8.564-1.882,17.271-2.938,25.721c-0.445,3.568-0.723,7.076-0.826,10.529c-0.014,0.073-0.041,0.137-0.041,0.217
	c-0.002,0.038-0.02,0.063-0.024,0.094c-0.039,0.309,0.009,0.671,0.028,1.029c-0.012,0.061-0.028,0.118-0.04,0.178
	c-0.314,0.902-1.129,1.488-2.19,1.219c-0.401-0.404-0.721-0.994-1.016-1.525c-2.859-9.501-1.764-20.166-0.463-30.338
	c0.174-2.688,0.066-5.303-0.703-7.633c-0.934-2.851-10.693-17.593-14.226-17.139c-5.067,0.655-9.507,3.545-14.407,4.852
	c-0.223,0.057-0.436-0.196-0.305-0.396c1.891-2.889,4.84-5.794,8.178-7.717c-0.434-3.248,0.108-6.579-0.582-9.879
	c-0.796-3.813-2.477-6.797-4.117-10.066c-1.102,1.228-2.223,2.414-3.011,3.579c-0.167,0.247-0.569,0.099-0.501-0.209
	c0.67-2.549,1.469-5.059,1.955-7.65c0.41-2.171-6.571-2.189-7.761-2.447c-3.968-0.873-7.726-1.999-11.34-3.884
	c-7.118-3.706-11.655,1.658-13.478,8.095c-2.428,8.536-5.857,14.004-11.061,21.208c-4.074,5.651-11.087,12.407-13.674,18.835
	c-0.098,0.244-0.531,0.339-0.586,0c-0.52-3.24-0.005-6.198,1.063-8.993c-3.532-0.809-7.095-2.438-10.649-1.585
	c-4.137,0.985-7.408,2.824-9.834,6.424c-3.125,4.636-5.732,9.889-7.878,15.169C101.616,67.696,101.392,67.794,101.133,67.825z"/>
<g>
	<g>
		<path fill="#231F20" d="M7.385,88.944c0-5.563,3.023-8.282,6.71-8.282c2.179,0,4.083,1.237,5.353,2.658v-8.831H20.9v18.443
			c0,1.937,0.118,3.115,0.482,3.932h-1.569c-0.182-0.573-0.365-1.537-0.365-2.389c-1.358,1.42-3.025,2.664-5.415,2.664
			C10.377,97.14,7.385,94.505,7.385,88.944z M19.448,93.03v-8.259c-1.787-1.815-3.386-2.843-5.442-2.843
			c-2.784,0-5.174,2.117-5.174,6.988c0,4.805,2.453,6.949,5.237,6.949C16.217,95.866,17.662,94.84,19.448,93.03z"/>
		<path fill="#231F20" d="M25.373,75.094h1.571v1.847h-1.571V75.094z M25.437,80.992h1.448v15.872h-1.448V80.992z"/>
		<path fill="#231F20" d="M29.665,98.921c0-1.665,1.085-2.963,3.057-3.719c-1.029-0.393-1.516-1.06-1.516-2.053
			c0-0.879,0.726-1.635,1.849-2.18c-1.456-0.967-2.36-2.566-2.36-4.563c0-3.416,2.718-5.745,6.079-5.745
			c1.724,0,3.26,0.573,4.385,1.63c0.9-0.631,2.322-1.236,3.594-1.419v1.573c-1.025,0-2.117,0.18-2.965,0.574
			c0.699,0.904,1.091,2.023,1.091,3.387c0,3.535-2.815,5.65-6.078,5.65c-0.97,0-1.903-0.18-2.72-0.516
			c-0.848,0.336-1.422,0.818-1.422,1.488c0,0.691,0.605,1.112,2.541,1.299l3.723,0.329c3.29,0.303,5.257,1.574,5.257,3.933
			c0,2.754-2.932,4.324-7.043,4.324C32.112,102.915,29.665,101.399,29.665,98.921z M42.756,98.711c0-1.661-1.359-2.54-4.473-2.815
			l-3.297-0.271c-0.272-0.027-0.542-0.058-0.787-0.088c-2.057,0.635-3.113,1.874-3.113,3.264c0,1.756,1.813,2.902,6.107,2.902
			C40.675,101.702,42.756,100.466,42.756,98.711z M41.454,86.407c0-2.725-1.721-4.508-4.682-4.508c-2.847,0-4.661,1.846-4.661,4.508
			c0,2.627,1.876,4.414,4.688,4.414C39.612,90.821,41.454,89.034,41.454,86.407z"/>
		<path fill="#231F20" d="M47.594,75.094h1.57v1.847h-1.57V75.094z M47.649,80.992h1.454v15.872h-1.454V80.992z"/>
		<path fill="#231F20" d="M54.666,93.33V82.292h-2.78v-1.3h2.78v-5.776h1.453v5.776h4.142v1.3h-4.142v10.822
			c0,1.695,0.572,2.662,2.568,2.662c0.604,0,1.208-0.063,1.664-0.21v1.36c-0.518,0.086-1.115,0.15-1.786,0.15
			C55.935,97.077,54.666,96.021,54.666,93.33z"/>
		<path fill="#231F20" d="M62.408,93.206c0-3.025,2.57-5.291,10.913-6.68v-0.97c0-2.421-1.268-3.628-3.443-3.628
			c-2.631,0-4.382,1.027-6.168,2.633l-0.849-0.908c1.97-1.816,3.993-2.991,7.048-2.991c3.294,0,4.866,1.874,4.866,4.802v7.469
			c0,1.937,0.121,3.115,0.45,3.932h-1.539c-0.212-0.662-0.365-1.451-0.365-2.359c-1.936,1.666-4.048,2.635-6.439,2.635
			C63.98,97.14,62.408,95.624,62.408,93.206z M73.321,93.087v-5.471c-7.738,1.355-9.459,3.264-9.459,5.498
			c0,1.787,1.177,2.752,3.142,2.752C69.363,95.866,71.507,94.84,73.321,93.087z"/>
		<path fill="#231F20" d="M79.129,74.489h1.449v22.375h-1.449V74.489z"/>
		<path fill="#231F20" d="M90.913,80.992h1.453v2.328c1.362-1.421,3.026-2.658,5.411-2.658c3.664,0,6.653,2.688,6.653,8.255
			c0,5.559-3.021,8.223-6.708,8.223c-2.179,0-3.845-1.119-5.356-2.602v8.377h-1.453V80.992z M102.979,88.944
			c0-4.808-2.446-7.016-5.23-7.016c-2.144,0-3.6,1.027-5.383,2.843v8.259c1.783,1.81,3.389,2.836,5.449,2.836
			C100.591,95.866,102.979,93.813,102.979,88.944z"/>
		<path fill="#231F20" d="M107.907,80.992h1.45v3.326h0.063c1.328-2.089,3.357-3.656,6.531-3.656h0.422l-0.24,1.362h-0.517
			c-2.687,0-4.962,1.568-6.259,4.383v10.457h-1.45V80.992z"/>
		<path fill="#231F20" d="M119.03,75.094h1.574v1.847h-1.574V75.094z M119.095,80.992h1.445v15.872h-1.445V80.992z"/>
		<path fill="#231F20" d="M125.079,80.992h1.447v2.632c1.756-1.666,3.63-2.962,5.958-2.962c2.693,0,3.966,1.237,4.413,2.991
			c1.818-1.664,3.844-2.991,6.137-2.991c3.268,0,4.599,1.812,4.599,4.683v11.52h-1.452V85.528c0-2.42-0.873-3.6-3.295-3.6
			c-2.09,0-3.836,1.152-5.804,3.025v11.91h-1.45V85.528c0-2.42-0.85-3.6-3.298-3.6c-2.056,0-3.839,1.152-5.808,3.025v11.91h-1.447
			V80.992z"/>
		<path fill="#231F20" d="M150.894,93.206c0-3.025,2.57-5.291,10.924-6.68v-0.97c0-2.421-1.278-3.628-3.449-3.628
			c-2.631,0-4.385,1.027-6.168,2.633l-0.85-0.908c1.963-1.816,3.989-2.991,7.045-2.991c3.298,0,4.865,1.874,4.865,4.802v7.469
			c0,1.937,0.125,3.115,0.453,3.932h-1.541c-0.213-0.662-0.355-1.451-0.355-2.359c-1.94,1.666-4.058,2.635-6.445,2.635
			C152.466,97.14,150.894,95.624,150.894,93.206z M161.817,93.087v-5.471c-7.746,1.355-9.469,3.264-9.469,5.498
			c0,1.787,1.178,2.752,3.146,2.752C157.847,95.866,159.997,94.84,161.817,93.087z"/>
		<path fill="#231F20" d="M168.463,93.33V82.292h-2.782v-1.3h2.782v-5.776h1.45v5.776h4.143v1.3h-4.143v10.822
			c0,1.695,0.573,2.662,2.57,2.662c0.604,0,1.207-0.063,1.667-0.21v1.36c-0.522,0.086-1.128,0.15-1.788,0.15
			C169.731,97.077,168.463,96.021,168.463,93.33z"/>
		<path fill="#231F20" d="M176.073,88.917c0-5.506,3.357-8.255,6.746-8.255c3.754,0,6.291,3.146,6.291,8.134v0.21h-11.581
			c0,4.324,2.394,6.923,5.321,6.923c2.482,0,3.899-1.18,5.111-3.299l1.059,0.666c-1.301,2.394-3.178,3.906-6.26,3.906
			C179.19,97.202,176.073,94.143,176.073,88.917z M187.601,87.798c-0.215-3.264-1.758-5.869-4.813-5.869
			c-2.477,0-4.833,1.936-5.226,5.869H187.601z"/>
		<path fill="#231F20" d="M191.167,94.205l1.057-0.817c1.207,1.549,2.658,2.479,4.928,2.479c2.989,0,4.535-1.208,4.535-3.144
			c0-1.934-1.15-2.753-4.72-3.599c-4.021-0.996-5.347-2.055-5.347-4.499c0-2.032,1.811-3.963,5.228-3.963
			c2.573,0,4.296,0.937,5.623,2.329l-0.968,0.998c-1.21-1.301-2.569-2.061-4.686-2.061c-2.631,0-3.748,1.299-3.748,2.633
			c0,1.662,0.902,2.391,4.021,3.145c4.475,1.118,6.049,2.173,6.049,5.017c0,2.723-2.453,4.417-6.02,4.417
			C194.31,97.14,192.313,95.866,191.167,94.205z"/>
	</g>
</g>
<text transform="matrix(1 0 0 1 204.5908 82.9092)" fill="#231F20" font-family="'Helvetica-Light'" font-size="4.4639">®</text>
</svg>
