<?xml version="1.0" encoding="utf-8"?>
<!-- Generator: Adobe Illustrator 21.1.0, SVG Export Plug-In . SVG Version: 6.00 Build 0)  -->
<!DOCTYPE svg PUBLIC "-//W3C//DTD SVG 1.1//EN" "http://www.w3.org/Graphics/SVG/1.1/DTD/svg11.dtd" [
	<!ENTITY ns_extend "http://ns.adobe.com/Extensibility/1.0/">
	<!ENTITY ns_ai "http://ns.adobe.com/AdobeIllustrator/10.0/">
	<!ENTITY ns_graphs "http://ns.adobe.com/Graphs/1.0/">
	<!ENTITY ns_vars "http://ns.adobe.com/Variables/1.0/">
	<!ENTITY ns_imrep "http://ns.adobe.com/ImageReplacement/1.0/">
	<!ENTITY ns_sfw "http://ns.adobe.com/SaveForWeb/1.0/">
	<!ENTITY ns_custom "http://ns.adobe.com/GenericCustomNamespace/1.0/">
	<!ENTITY ns_adobe_xpath "http://ns.adobe.com/XPath/1.0/">
]>
<svg version="1.1" id="Layer_1" xmlns:x="&ns_extend;" xmlns:i="&ns_ai;" xmlns:graph="&ns_graphs;"
	 xmlns="http://www.w3.org/2000/svg" xmlns:xlink="http://www.w3.org/1999/xlink" x="0px" y="0px" width="300px" height="82.7px"
	 viewBox="0 0 300 82.7" style="enable-background:new 0 0 300 82.7;" xml:space="preserve">
<style type="text/css">
	.st0{clip-path:url(#SVGID_2_);}
	.st1{fill:url(#SVGID_3_);}
	.st2{clip-path:url(#SVGID_5_);}
	.st3{fill:url(#SVGID_6_);}
	.st4{clip-path:url(#SVGID_8_);}
	.st5{fill:url(#SVGID_9_);}
	.st6{clip-path:url(#SVGID_11_);}
	.st7{clip-path:url(#SVGID_13_);}
	.st8{fill:url(#SVGID_14_);}
	.st9{clip-path:url(#SVGID_16_);}
	.st10{fill:url(#SVGID_17_);}
	.st11{fill:#343434;}
</style>
<metadata>
	<sfw  xmlns="&ns_sfw;">
		<slices></slices>
		<sliceSourceBounds  bottomLeftOrigin="true" height="105.8" width="300.5" x="2350.8" y="1892.1"></sliceSourceBounds>
	</sfw>
</metadata>
<g transform="matrix(1,0,0,1,-349.884,-416.088)">
	<g id="Capa-2" transform="matrix(4.16667,0,0,4.16667,0,0)">
		<g>
			<defs>
				<path id="SVGID_1_" d="M87.5,102.2c-1.4,1.2-2.5,2.8-3,4.6c0.6-1.8,2.3-3.1,4.3-3.1c0.4,0,0.8,0.1,1.2,0.2
					c0.2,0.1,0.5,0.1,0.7,0.3l2.6,1.5l7.2,4.2c0.2-0.2,0.5-0.4,0.7-0.6c0,0.1,0,0.1,0,0.2l2.5-1.4c-0.3-1.7-1.1-3.3-2.2-4.6
					c-0.2-0.3-0.5-0.5-0.8-0.8c-0.6-0.5-1.2-1-1.9-1.4l-0.1-0.1c-1.4-0.8-3-1.2-4.7-1.2C91.5,99.9,89.2,100.8,87.5,102.2z"/>
			</defs>
			<clipPath id="SVGID_2_">
				<use xlink:href="#SVGID_1_"  style="overflow:visible;"/>
			</clipPath>
			<g class="st0">
				
					<linearGradient id="SVGID_3_" gradientUnits="userSpaceOnUse" x1="-479.8552" y1="575.8228" x2="-479.795" y2="575.8228" gradientTransform="matrix(861.8779 480.6661 480.6661 -861.8779 136886.6406 727041.375)">
					<stop  offset="0" style="stop-color:#FAB200"/>
					<stop  offset="1" style="stop-color:#D90812"/>
				</linearGradient>
				<path class="st1" d="M89.9,96.2l15.5,8.6l-5.8,10.4l-15.5-8.6L89.9,96.2z"/>
			</g>
		</g>
		<g>
			<defs>
				<path id="SVGID_4_" d="M87.9,102.8c-0.1,0.1-0.3,0.3-0.4,0.4c0.4-0.1,0.8-0.2,1.3-0.2c0.4,0,0.9,0.1,1.3,0.2
					c0.3,0.1,0.6,0.2,0.8,0.3l0.1,0l2.6,1.5l6.8,3.9c0.1-0.1,0.2-0.2,0.2-0.2l1-1.1l0.1,0.7l1.1-0.7c-0.3-1.4-1-2.7-2-3.8
					c-0.2-0.3-0.5-0.5-0.7-0.7c-0.6-0.5-1.2-1-1.8-1.3l-0.2-0.1c-1.3-0.7-2.8-1.1-4.4-1.1C91.7,100.6,89.6,101.3,87.9,102.8z"/>
			</defs>
			<clipPath id="SVGID_5_">
				<use xlink:href="#SVGID_4_"  style="overflow:visible;"/>
			</clipPath>
			<g class="st2">
				
					<linearGradient id="SVGID_6_" gradientUnits="userSpaceOnUse" x1="-479.81" y1="575.8043" x2="-479.7498" y2="575.8043" gradientTransform="matrix(766.0477 427.2217 427.2217 -766.0477 121651.6016 646179.8125)">
					<stop  offset="0" style="stop-color:#FFFFFF"/>
					<stop  offset="0.41" style="stop-color:#FAB404"/>
					<stop  offset="1" style="stop-color:#D90812"/>
				</linearGradient>
				<path class="st3" d="M90.7,97.4l13.6,7.6l-3.2,5.7l-13.6-7.6L90.7,97.4z"/>
			</g>
		</g>
		<g>
			<defs>
				<path id="SVGID_7_" d="M84.4,106.8c0,0.2-0.1,0.3-0.1,0.5c-0.1,0.4-0.2,0.8-0.3,1.3c0,0.4-0.1,0.8-0.1,1.2c0,0.4,0,0.8,0.1,1.2
					c0,0.1,0,0.3,0.1,0.4h0c0,0.1,0.1,0.2,0.1,0.4c0,0.1,0,0.2,0.1,0.3c0,0.2,0.1,0.3,0.1,0.5c0,0.2,0.1,0.3,0.1,0.4
					c0,0.1,0.1,0.2,0.1,0.3c0.1,0.2,0.2,0.4,0.2,0.6c0,0.1,0.1,0.1,0.1,0.2c0.1,0.2,0.2,0.5,0.4,0.7c0,0,0,0,0,0c0,0,0,0,0,0
					c0.6,0.9,1.2,1.8,2.1,2.5c0.9,0.8,2,1.4,3.2,1.9v0c0,0,0,0,0,0c1.8,0.6,3.7,0.7,5.5,0.3c-1.9,0.4-3.9-0.4-4.9-2.1
					c-0.2-0.3-0.4-0.7-0.5-1.1c-0.1-0.2-0.1-0.5-0.1-0.7l0-1v-1l0,0v-1.2l0-8.3c-0.2-0.1-0.5-0.2-0.7-0.3c-0.4-0.1-0.8-0.2-1.2-0.2
					C86.7,103.7,85,105,84.4,106.8z"/>
			</defs>
			<clipPath id="SVGID_8_">
				<use xlink:href="#SVGID_7_"  style="overflow:visible;"/>
			</clipPath>
			<g class="st4">
				
					<linearGradient id="SVGID_9_" gradientUnits="userSpaceOnUse" x1="-480.2381" y1="576.2452" x2="-480.1779" y2="576.2452" gradientTransform="matrix(16.0504 834.6276 834.6276 -16.0504 -473152.2188 410173.5)">
					<stop  offset="0" style="stop-color:#8F1003"/>
					<stop  offset="1" style="stop-color:#E52C12"/>
				</linearGradient>
				<path class="st5" d="M95.9,103.5l0.3,16.3l-12,0.2l-0.3-16.3L95.9,103.5z"/>
			</g>
		</g>
		<g>
			<defs>
				<path id="SVGID_10_" d="M85.1,107c0,0.1-0.1,0.2-0.1,0.3l0,0.1c-0.1,0.5-0.2,0.8-0.2,1.2c-0.1,0.4-0.1,0.8-0.1,1.1
					c0,0.3,0,0.7,0.1,1.1c0,0.1,0,0.1,0,0.2l0.1,0.5c0,0.1,0,0.2,0.1,0.3c0,0.2,0.1,0.3,0.1,0.5c0,0.1,0.1,0.3,0.1,0.4
					c0,0.1,0.1,0.2,0.1,0.3c0.1,0.2,0.1,0.4,0.2,0.6l0.1,0.1c0.1,0.3,0.2,0.5,0.4,0.7l0,0c0,0,0,0,0,0c0.5,0.9,1.2,1.6,1.9,2.3
					c0.8,0.6,1.6,1.2,2.5,1.5l0.5,0.2c0.2,0.1,0.4,0.1,0.5,0.2c-0.3-0.3-0.6-0.6-0.8-1c-0.2-0.4-0.4-0.8-0.5-1.2
					c-0.1-0.3-0.1-0.6-0.2-0.9l0-0.1l0-3.1l0-7.8c-0.1,0-0.1,0-0.2-0.1c-0.3-0.1-0.7-0.1-1-0.1C87.1,104.4,85.6,105.5,85.1,107z"/>
			</defs>
			<clipPath id="SVGID_11_">
				<use xlink:href="#SVGID_10_"  style="overflow:visible;"/>
			</clipPath>
			<g class="st6">
				<g transform="matrix(0.24,-0,-0,0.24,83.9722,99.8612)">
					<g transform="matrix(0.985753,0,0,0.996641,0,0)">
						
							<image style="overflow:visible;enable-background:new    ;" width="62" height="129" id="_Image8" xlink:href="D8C4FC15DF96EB54.png"  transform="matrix(0.457 0 0 0.462 2.8503 18.7055)">
						</image>
					</g>
				</g>
			</g>
		</g>
		<g>
			<defs>
				<path id="SVGID_12_" d="M101.7,108.3c-0.2,0.4-0.4,0.7-0.7,0.9c-0.2,0.2-0.4,0.4-0.6,0.5l-0.8,0.5l-0.8,0.5h0l-1,0.6l-7.2,4.2
					c0,0.3,0.1,0.5,0.1,0.7c0.1,0.4,0.2,0.7,0.4,1.1c1,1.8,3,2.6,4.9,2.2c0.2,0,0.3-0.1,0.5-0.1c0.4-0.1,0.8-0.2,1.2-0.4
					c0.4-0.2,0.7-0.3,1.1-0.5c0.4-0.2,0.7-0.4,1-0.7c0.1-0.1,0.2-0.2,0.3-0.3l0,0c0.1-0.1,0.2-0.2,0.3-0.2c0.1-0.1,0.2-0.1,0.2-0.2
					c0.1-0.1,0.2-0.2,0.4-0.4c0.1-0.1,0.2-0.2,0.3-0.3c0.1-0.1,0.1-0.2,0.2-0.3c0.1-0.2,0.3-0.3,0.4-0.5c0-0.1,0.1-0.1,0.1-0.2
					c0.2-0.2,0.3-0.4,0.4-0.7c0,0,0,0,0,0c0,0,0,0,0,0c0.5-0.9,0.9-2,1.1-3c0.2-1.2,0.2-2.5,0-3.7l0,0c0,0,0,0,0,0
					c-0.4-1.8-1.2-3.5-2.5-4.9C102.4,104.4,102.7,106.5,101.7,108.3z"/>
			</defs>
			<clipPath id="SVGID_13_">
				<use xlink:href="#SVGID_12_"  style="overflow:visible;"/>
			</clipPath>
			<g class="st7">
				
					<linearGradient id="SVGID_14_" gradientUnits="userSpaceOnUse" x1="-479.864" y1="575.5134" x2="-479.8038" y2="575.5134" gradientTransform="matrix(762.446 -477.9119 -477.9119 -762.446 641006.25 209581.4531)">
					<stop  offset="0" style="stop-color:#EC6607"/>
					<stop  offset="1" style="stop-color:#FAB200"/>
				</linearGradient>
				<path class="st8" d="M87.5,111.5l13.9-8.7l6.3,10.1l-13.9,8.7L87.5,111.5z"/>
			</g>
		</g>
		<g>
			<defs>
				<path id="SVGID_15_" d="M102.4,108.6c-0.2,0.4-0.5,0.7-0.8,1.1c-0.2,0.2-0.4,0.4-0.7,0.6c0,0,0,0-0.1,0l-2.7,1.6l-6.8,3.9
					c0,0.1,0,0.1,0,0.2c0.1,0.3,0.2,0.6,0.4,0.9c0.7,1.2,2,1.9,3.3,1.9c0.3,0,0.5,0,0.8-0.1c0.1,0,0.2-0.1,0.3-0.1l0.1,0
					c0.5-0.1,0.8-0.2,1.2-0.4c0.4-0.2,0.7-0.3,1-0.5c0.3-0.2,0.6-0.4,0.9-0.6c0.1,0,0.1-0.1,0.2-0.1l0.1-0.1c0,0,0.1,0,0.1-0.1
					c0,0,0,0,0,0l0.1-0.1c0.1-0.1,0.1-0.1,0.2-0.2c0.1-0.1,0.2-0.2,0.3-0.3c0.1-0.1,0.2-0.2,0.3-0.3c0.1-0.1,0.1-0.2,0.2-0.2
					c0.1-0.2,0.2-0.3,0.4-0.5l0.1-0.1c0.2-0.2,0.3-0.5,0.4-0.7c0,0,0,0,0,0c0,0,0,0,0,0c0.5-0.9,0.8-1.8,1-2.8
					c0.2-1.1,0.2-2.2,0-3.3c0-0.1,0-0.1-0.1-0.2c0,0,0-0.1,0-0.1c0-0.2-0.1-0.4-0.1-0.5C102.7,107.8,102.6,108.2,102.4,108.6z"/>
			</defs>
			<clipPath id="SVGID_16_">
				<use xlink:href="#SVGID_15_"  style="overflow:visible;"/>
			</clipPath>
			<g class="st9">
				
					<linearGradient id="SVGID_17_" gradientUnits="userSpaceOnUse" x1="-479.8156" y1="575.5311" x2="-479.7555" y2="575.5311" gradientTransform="matrix(677.3086 -424.5445 -424.5445 -677.3086 569414.625 186226.6719)">
					<stop  offset="0" style="stop-color:#EC6607"/>
					<stop  offset="0.53" style="stop-color:#FAB406"/>
					<stop  offset="1" style="stop-color:#FFFFFF"/>
				</linearGradient>
				<path class="st10" d="M90.6,115.1l12.2-7.7l3.4,5.5l-12.2,7.7L90.6,115.1z"/>
			</g>
		</g>
		<path class="st11" d="M115.7,116.1h-3.6v-11.5h3.6c3.6,0,5.3,1.8,5.3,5.3C121,114.1,119.3,116.1,115.7,116.1 M116.1,103.1h-5.9
			v14.5h5.9c4.5,0,6.8-2.6,6.8-7.7C122.9,105.4,120.7,103.1,116.1,103.1"/>
		<path class="st11" d="M125.8,103.1h-1.9v14.5h9.5v-1.5h-7.6V103.1z"/>
		<path class="st11" d="M136.9,115.7l-5.3-12.6h-2l6.2,14.5h2.1l6.2-14.5h-1.9L136.9,115.7z"/>
		<path class="st11" d="M146.6,104.7h4.1c1.5,0,2.3,0.7,2.3,2c0,1.7-1.4,2.7-4.1,3.2l-2.3,0.3V104.7z M153.5,117.6h2.5l-5-6.8
			c2.7-0.9,4.1-2.3,4.1-4.2c0-2.3-1.4-3.5-4.1-3.5h-6.2v14.5h1.9v-6.2l2.3-0.3L153.5,117.6z"/>
	</g>
</g>
</svg>
