<?xml version="1.0" encoding="utf-8"?>
<!-- Generator: Adobe Illustrator 22.0.1, SVG Export Plug-In . SVG Version: 6.00 Build 0)  -->
<!DOCTYPE svg PUBLIC "-//W3C//DTD SVG 1.1//EN" "http://www.w3.org/Graphics/SVG/1.1/DTD/svg11.dtd" [
	<!ENTITY ns_extend "http://ns.adobe.com/Extensibility/1.0/">
	<!ENTITY ns_ai "http://ns.adobe.com/AdobeIllustrator/10.0/">
	<!ENTITY ns_graphs "http://ns.adobe.com/Graphs/1.0/">
	<!ENTITY ns_vars "http://ns.adobe.com/Variables/1.0/">
	<!ENTITY ns_imrep "http://ns.adobe.com/ImageReplacement/1.0/">
	<!ENTITY ns_sfw "http://ns.adobe.com/SaveForWeb/1.0/">
	<!ENTITY ns_custom "http://ns.adobe.com/GenericCustomNamespace/1.0/">
	<!ENTITY ns_adobe_xpath "http://ns.adobe.com/XPath/1.0/">
]>
<svg version="1.1" id="Isolation_Mode" xmlns:x="&ns_extend;" xmlns:i="&ns_ai;" xmlns:graph="&ns_graphs;"
	 xmlns="http://www.w3.org/2000/svg" xmlns:xlink="http://www.w3.org/1999/xlink" x="0px" y="0px" width="284.8px" height="139px"
	 viewBox="0 0 284.8 139" style="enable-background:new 0 0 284.8 139;" xml:space="preserve">
<style type="text/css">
	.st0{fill:#2F1C46;}
	.st1{fill:#5F2F8E;}
	.st2{fill:none;stroke:#5F2F8E;stroke-width:2;stroke-linecap:round;stroke-miterlimit:10;}
	.st3{fill:none;stroke:#FD7CFC;stroke-width:2;stroke-linecap:round;stroke-miterlimit:10;}
	.st4{fill:url(#SVGID_1_);}
	.st5{fill:none;stroke:#2F1C46;stroke-width:3;stroke-linecap:round;stroke-miterlimit:10;}
	.st6{fill:#FFFFFF;}
</style>
<metadata>
	<sfw  xmlns="&ns_sfw;">
		<slices></slices>
		<sliceSourceBounds  bottomLeftOrigin="true" height="139" width="284.8" x="0" y="0"></sliceSourceBounds>
	</sfw>
</metadata>
<g>
	<path class="st0" d="M199.2,38.1h44c5.6,0,11.1-1.8,15.6-5.1l19.3-14h-86.7v11.2C191.3,34.6,194.9,38.1,199.2,38.1z"/>
	<rect x="178.5" y="22.7" class="st0" width="2.6" height="8.6"/>
	<rect x="181" y="23.7" class="st1" width="9" height="6.4"/>
	<line class="st2" x1="213.7" y1="34.1" x2="213.7" y2="46.3"/>
	<line class="st2" x1="240.6" y1="34.1" x2="240.6" y2="46.3"/>
	<path class="st2" d="M259.2,48H199c-2.5,0-4.9-1-6.7-2.8l0,0"/>
	<line class="st3" x1="237.8" y1="13.5" x2="283.8" y2="13.5"/>
	<line class="st3" x1="182.8" y1="13.5" x2="228.8" y2="13.5"/>
	
		<linearGradient id="SVGID_1_" gradientUnits="userSpaceOnUse" x1="-1122.3694" y1="70.5" x2="-946.5693" y2="70.5" gradientTransform="matrix(-1 0 0 -1 -946.5693 140)">
		<stop  offset="0" style="stop-color:#FD7CFC"/>
		<stop  offset="0.2035" style="stop-color:#FEA3FD;stop-opacity:0.7959"/>
		<stop  offset="0.4442" style="stop-color:#FECBFE;stop-opacity:0.5546"/>
		<stop  offset="0.6651" style="stop-color:#FFE7FE;stop-opacity:0.3331"/>
		<stop  offset="0.8566" style="stop-color:#FFF9FF;stop-opacity:0.1411"/>
		<stop  offset="0.9973" style="stop-color:#FFFFFF;stop-opacity:0"/>
	</linearGradient>
	<polygon class="st4" points="42,139 175.8,30.2 175.8,23.8 0,0 	"/>
	<line class="st5" x1="205.8" y1="16.9" x2="205.8" y2="11.1"/>
	<line class="st5" x1="260.8" y1="16.9" x2="260.8" y2="11.1"/>
	<rect x="203.9" y="15.5" class="st1" width="3.9" height="3.9"/>
	<rect x="258.9" y="15.5" class="st1" width="3.9" height="3.9"/>
	<circle class="st6" cx="203.8" cy="30.2" r="2"/>
</g>
</svg>
