<?xml version="1.0" encoding="UTF-8"?>
<svg width="390px" height="76px" viewBox="0 0 390 76" version="1.1" xmlns="http://www.w3.org/2000/svg" xmlns:xlink="http://www.w3.org/1999/xlink">
    <!-- Generator: Sketch 50.2 (55047) - http://www.bohemiancoding.com/sketch -->
    <title>Facebook-06-2015-Blue</title>
    <desc>Created with Sketch.</desc>
    <defs></defs>
    <g id="Facebook-06-2015-Blue" stroke="none" stroke-width="1" fill="none" fill-rule="evenodd">
        <path d="M30.947,12.066 C26.363,12.066 25.039,14.103 25.039,18.586 L25.039,26.022 L37.263,26.022 L36.041,38.042 L25.039,38.042 L25.039,74.511 L10.37,74.511 L10.37,38.042 L0.489,38.042 L0.489,26.022 L10.37,26.022 L10.37,18.789 C10.37,6.667 15.26,0.249 28.91,0.249 C31.865,0.249 35.328,0.453 37.467,0.759 L37.467,12.066 L30.947,12.066" id="Fill-1" fill="#465E97"></path>
        <path d="M52.948,51.998 C52.948,59.231 55.597,64.019 62.422,64.019 C68.432,64.019 71.488,59.638 71.488,52.711 L71.488,47.822 C71.488,40.895 68.432,36.514 62.422,36.514 C55.597,36.514 52.948,41.302 52.948,48.535 L52.948,51.998 Z M38.28,48.739 C38.28,35.19 44.697,25.003 58.144,25.003 C65.478,25.003 69.96,28.772 72.099,33.458 L72.099,26.022 L86.157,26.022 L86.157,74.511 L72.099,74.511 L72.099,67.177 C70.062,71.863 65.478,75.53 58.144,75.53 C44.697,75.53 38.28,65.343 38.28,51.795 L38.28,48.739 Z" id="Fill-2" fill="#465E97"></path>
        <path d="M116.713,25.003 C122.418,25.003 127.817,26.226 130.771,28.263 L127.511,38.654 C125.27,37.533 121.603,36.412 117.732,36.412 C109.786,36.412 106.322,40.996 106.322,48.84 L106.322,51.693 C106.322,59.536 109.786,64.12 117.732,64.12 C121.603,64.12 125.27,63 127.511,61.879 L130.771,72.27 C127.817,74.307 122.418,75.53 116.713,75.53 C99.497,75.53 91.654,66.26 91.654,51.387 L91.654,49.146 C91.654,34.273 99.497,25.003 116.713,25.003" id="Fill-3" fill="#465E97"></path>
        <path d="M147.373,45.784 L165.098,45.784 L165.098,44.562 C165.098,39.265 162.959,35.088 156.541,35.088 C149.92,35.088 147.373,39.265 147.373,45.784 Z M132.704,52.1 L132.704,47.822 C132.704,34.07 140.548,25.003 156.541,25.003 C171.617,25.003 178.238,34.171 178.238,47.618 L178.238,55.36 L147.373,55.36 C147.678,61.982 150.632,64.936 158.782,64.936 C164.283,64.936 170.089,63.815 174.368,61.982 L177.016,72.066 C173.145,74.104 165.199,75.631 158.171,75.631 C139.631,75.631 132.704,66.362 132.704,52.1 Z" id="Fill-4" fill="#465E97"></path>
        <path d="M217.964,48.433 C217.964,41.608 215.315,36.514 208.286,36.514 C202.276,36.514 199.016,40.793 199.016,47.72 L199.016,52.813 C199.016,59.74 202.276,64.019 208.286,64.019 C215.315,64.019 217.964,58.925 217.964,52.1 L217.964,48.433 Z M232.633,51.795 C232.633,65.343 226.113,75.53 212.667,75.53 C205.332,75.53 200.239,71.863 198.202,67.177 L198.202,74.511 L184.347,74.511 L184.347,1.676 L199.016,0.351 L199.016,32.745 C201.155,28.467 205.841,25.003 212.667,25.003 C226.113,25.003 232.633,35.19 232.633,48.739 L232.633,51.795 Z" id="Fill-5" fill="#465E97"></path>
        <path d="M271.135,48.026 C271.135,41.608 268.486,36.514 261.662,36.514 C254.837,36.514 252.187,41.608 252.187,48.026 L252.187,52.508 C252.187,58.925 254.837,64.019 261.662,64.019 C268.486,64.019 271.135,58.925 271.135,52.508 L271.135,48.026 Z M237.519,51.489 L237.519,49.044 C237.519,35.088 245.465,25.003 261.662,25.003 C277.858,25.003 285.804,35.088 285.804,49.044 L285.804,51.489 C285.804,65.445 277.858,75.53 261.662,75.53 C245.465,75.53 237.519,65.445 237.519,51.489 Z" id="Fill-6" fill="#465E97"></path>
        <path d="M324.306,48.026 C324.306,41.608 321.658,36.514 314.833,36.514 C308.007,36.514 305.359,41.608 305.359,48.026 L305.359,52.508 C305.359,58.925 308.007,64.019 314.833,64.019 C321.658,64.019 324.306,58.925 324.306,52.508 L324.306,48.026 Z M290.689,51.489 L290.689,49.044 C290.689,35.088 298.635,25.003 314.833,25.003 C331.029,25.003 338.975,35.088 338.975,49.044 L338.975,51.489 C338.975,65.445 331.029,75.53 314.833,75.53 C298.635,75.53 290.689,65.445 290.689,51.489 Z" id="Fill-7" fill="#465E97"></path>
        <polyline id="Fill-8" fill="#465E97" points="359.14 49.146 373.606 26.022 389.192 26.022 374.013 49.961 389.802 74.511 374.217 74.511 359.14 50.776 359.14 74.511 344.471 74.511 344.471 1.676 359.14 0.351 359.14 49.146"></polyline>
    </g>
</svg>