<?xml version="1.0" encoding="utf-8"?>
<!-- Generator: Adobe Illustrator 22.0.1, SVG Export Plug-In . SVG Version: 6.00 Build 0)  -->
<!DOCTYPE svg PUBLIC "-//W3C//DTD SVG 1.1//EN" "http://www.w3.org/Graphics/SVG/1.1/DTD/svg11.dtd" [
	<!ENTITY ns_extend "http://ns.adobe.com/Extensibility/1.0/">
	<!ENTITY ns_ai "http://ns.adobe.com/AdobeIllustrator/10.0/">
	<!ENTITY ns_graphs "http://ns.adobe.com/Graphs/1.0/">
	<!ENTITY ns_vars "http://ns.adobe.com/Variables/1.0/">
	<!ENTITY ns_imrep "http://ns.adobe.com/ImageReplacement/1.0/">
	<!ENTITY ns_sfw "http://ns.adobe.com/SaveForWeb/1.0/">
	<!ENTITY ns_custom "http://ns.adobe.com/GenericCustomNamespace/1.0/">
	<!ENTITY ns_adobe_xpath "http://ns.adobe.com/XPath/1.0/">
]>
<svg version="1.1" id="Layer_1" xmlns:x="&ns_extend;" xmlns:i="&ns_ai;" xmlns:graph="&ns_graphs;"
	 xmlns="http://www.w3.org/2000/svg" xmlns:xlink="http://www.w3.org/1999/xlink" x="0px" y="0px" width="220px" height="64px"
	 viewBox="0 0 220 64" style="enable-background:new 0 0 220 64;" xml:space="preserve">
<style type="text/css">
	.st0{fill:#D42F30;}
</style>
<metadata>
	<sfw  xmlns="&ns_sfw;">
		<slices></slices>
		<sliceSourceBounds  bottomLeftOrigin="true" height="60" width="154.9" x="32.5" y="2"></sliceSourceBounds>
	</sfw>
</metadata>
<g id="Page-1">
	<g id="_x30_4.-Fastly-Logo-2018-Demuxed">
		<polyline id="Fill-1" class="st0" points="138,8.2 138,48.6 150.1,48.6 150.1,42.4 146.1,42.4 146.1,2 138,2 138,8.2 		"/>
		<path id="Fill-2" class="st0" d="M32.5,42.4h4.1V22.9h-4.1v-5.4l4.1-0.7v-5.4c0-6.6,1.4-9.4,9.8-9.4c1.8,0,4,0.3,5.8,0.6l-1.1,6.6
			C49.9,9,49.3,9,48.5,9c-3,0-3.7,0.3-3.7,3.2v4.7h6.1v6h-6.1v19.5h4.1v6.2l-16.3,0V42.4"/>
		<path id="Fill-3" class="st0" d="M133.8,40.5c-1.3,0.3-2.4,0.2-3.2,0.3c-3.3,0.1-3.1-1-3.1-4.2V22.9h6.4v-6h-6.4V2h-8.1v36.2
			c0,7.1,1.8,10.4,9.4,10.4c1.8,0,4.3-0.5,6.2-0.9L133.8,40.5"/>
		<path id="Fill-4" class="st0" d="M183.9,45.5h0.6c0.3,0,0.5-0.1,0.5-0.5c0-0.3-0.2-0.4-0.5-0.4h-0.6V45.5z M184.9,47l-0.6-0.9
			h-0.4V47h-0.7v-3h1.3c0.7,0,1.2,0.4,1.2,1c0,0.5-0.2,0.8-0.6,0.9l0.8,1H184.9z M184.4,48.1c1.4,0,2.6-1.2,2.6-2.6
			c0-1.4-1.2-2.6-2.6-2.6s-2.6,1.1-2.6,2.6C181.8,46.9,182.9,48.1,184.4,48.1z M184.4,42.4c1.7,0,3.1,1.4,3.1,3.1
			c0,1.7-1.4,3.1-3.1,3.1s-3.1-1.4-3.1-3.1C181.3,43.8,182.6,42.4,184.4,42.4z"/>
		<path id="Fill-5" class="st0" d="M109.3,22.9v-1.1c-2.5-0.4-4.9-0.5-6.2-0.5c-3.8,0-4.2,2-4.2,3.1c0,1.5,0.5,2.4,4.6,3.3
			c6,1.3,12,2.7,12,10.2c0,7-3.6,10.7-11.3,10.7c-5.1,0-10.1-1.1-13.8-2.1v-6.1h6.2l0,1.1c2.6,0.5,5.4,0.5,6.9,0.5
			c4,0,4.7-2.2,4.7-3.3c0-1.6-1.2-2.4-4.9-3.1c-7.1-1.2-12.8-3.7-12.8-10.9c0-6.9,4.6-9.5,12.2-9.5c5.2,0,9.1,0.8,12.9,1.8v6H109.3"
			/>
		<path id="Fill-6" class="st0" d="M71.9,28.2l-0.6-0.6l-3.1,2.7c-0.2-0.1-0.3-0.1-0.5-0.1c-0.8,0-1.5,0.7-1.5,1.6
			c0,0.9,0.7,1.6,1.5,1.6c0.8,0,1.5-0.7,1.5-1.6c0-0.2,0-0.3-0.1-0.5L71.9,28.2"/>
		<path id="Fill-7" class="st0" d="M68.1,40.4v-1h-1v1c-4.4-0.3-7.9-3.8-8.1-8.1h1v-1h-1c0.3-4.3,3.7-7.8,8.1-8.1v1h1v-1
			c4.3,0.2,7.7,3.6,8.1,7.8v0.3h-1v1h1l0,0.3C75.8,36.8,72.4,40.2,68.1,40.4z M84.4,40.5l0-25.3h-8.1v2.4c-1.7-1-3.5-1.7-5.5-2.1h0
			v-2.8h1v-2.1h-8.2v2.1h1v2.8h0.1c-7.8,1.4-13.7,8.2-13.7,16.4c0,9.2,7.5,16.7,16.7,16.7c3.2,0,6.1-0.9,8.6-2.4l1.5,2.4h8.6v-8.1
			H84.4z"/>
		<path id="Fill-8" class="st0" d="M170.7,16.9h16.8v6h-4l-10.3,25.3C170.2,55.3,165.4,62,158,62c-1.8,0-4.2-0.2-5.9-0.6l0.7-7.4
			c1.1,0.2,2.5,0.3,3.2,0.3c3.4,0,7.3-2.1,8.5-5.8l-10.4-25.6h-4v-6h16.8v6h-4l5.9,14.5l5.9-14.5h-4V16.9"/>
	</g>
</g>
</svg>
