<?xml version="1.0" encoding="utf-8"?>
<!-- Generator: Adobe Illustrator 22.0.1, SVG Export Plug-In . SVG Version: 6.00 Build 0)  -->
<!DOCTYPE svg PUBLIC "-//W3C//DTD SVG 1.1//EN" "http://www.w3.org/Graphics/SVG/1.1/DTD/svg11.dtd" [
	<!ENTITY ns_extend "http://ns.adobe.com/Extensibility/1.0/">
	<!ENTITY ns_ai "http://ns.adobe.com/AdobeIllustrator/10.0/">
	<!ENTITY ns_graphs "http://ns.adobe.com/Graphs/1.0/">
	<!ENTITY ns_vars "http://ns.adobe.com/Variables/1.0/">
	<!ENTITY ns_imrep "http://ns.adobe.com/ImageReplacement/1.0/">
	<!ENTITY ns_sfw "http://ns.adobe.com/SaveForWeb/1.0/">
	<!ENTITY ns_custom "http://ns.adobe.com/GenericCustomNamespace/1.0/">
	<!ENTITY ns_adobe_xpath "http://ns.adobe.com/XPath/1.0/">
]>
<svg version="1.1" id="Isolation_Mode" xmlns:x="&ns_extend;" xmlns:i="&ns_ai;" xmlns:graph="&ns_graphs;"
	 xmlns="http://www.w3.org/2000/svg" xmlns:xlink="http://www.w3.org/1999/xlink" x="0px" y="0px" width="910.7px" height="506.9px"
	 viewBox="0 0 910.7 506.9" style="enable-background:new 0 0 910.7 506.9;" xml:space="preserve">
<style type="text/css">
	.st0{fill:#362B5C;}
	.st1{fill:none;stroke:#FD7CFC;stroke-width:3;stroke-miterlimit:10;stroke-dasharray:5;}
	.st2{fill:#2F1C46;}
	.st3{fill:#5F2F8E;}
	.st4{fill:none;stroke:#FFFFFF;stroke-miterlimit:10;}
	.st5{fill:#FFFFFF;}
	.st6{fill:#FFFFFF;stroke:#5F2F8E;stroke-width:2;stroke-miterlimit:10;}
	.st7{fill:none;stroke:#FD7CFC;stroke-width:2;stroke-linecap:round;stroke-miterlimit:10;}
	.st8{fill:#FD7CFC;}
	.st9{fill:none;stroke:#2F1C46;stroke-width:2;stroke-linecap:round;stroke-miterlimit:10;}
	.st10{fill:none;stroke:#5F2F8E;stroke-width:2;stroke-linecap:round;stroke-miterlimit:10;}
	.st11{fill:none;stroke:#5F2F8E;stroke-width:2;stroke-miterlimit:10;}
	.st12{fill:none;stroke:#FFFFFF;stroke-linecap:round;stroke-miterlimit:10;}
	.st13{clip-path:url(#SVGID_1_);}
	.st14{fill:none;stroke:#2F1C46;stroke-width:18;stroke-linecap:round;stroke-linejoin:round;stroke-miterlimit:10;}
	.st15{fill:#FD7CFC;stroke:#FFFFFF;stroke-width:3;stroke-linecap:round;stroke-miterlimit:10;}
	.st16{fill:#FFFFFF;stroke:#FD7CFC;stroke-width:3;stroke-linecap:round;stroke-miterlimit:10;}
	.st17{fill:#FFFFFF;stroke:#5F2F8E;stroke-width:2;stroke-linecap:round;stroke-miterlimit:10;}
	.st18{fill:none;stroke:#FD7CFC;stroke-width:6;stroke-linecap:round;stroke-miterlimit:10;}
	.st19{fill:none;stroke:#2F1C46;stroke-width:4;stroke-miterlimit:10;}
	.st20{opacity:0.11;fill:#2F1C46;enable-background:new    ;}
	.st21{fill:none;stroke:#FFFFFF;stroke-width:2;stroke-linecap:round;stroke-miterlimit:10;}
	.st22{fill:none;stroke:#FD7CFC;stroke-linecap:round;stroke-miterlimit:10;stroke-dasharray:3;}
	.st23{fill:url(#SVGID_2_);}
</style>
<metadata>
	<sfw  xmlns="&ns_sfw;">
		<slices></slices>
		<sliceSourceBounds  bottomLeftOrigin="true" height="506.9" width="910.7" x="181" y="-0.4"></sliceSourceBounds>
	</sfw>
</metadata>
<polygon class="st0" points="549.4,506.5 910.7,0 392.9,0 31.6,506.5 "/>
<path class="st1" d="M207,504.3V491c0-8,6.5-14.5,14.5-14.5l0,0c8,0,14.5-6.5,14.5-14.5v-15c0-8,6.5-14.5,14.5-14.5h123.2"/>
<g>
	<g>
		<path class="st2" d="M375.6,201.2H389v-20.4h-13.4c-5.3,0-9.7,4.4-9.7,9.7v1C365.9,196.8,370.3,201.2,375.6,201.2z"/>
		<circle class="st3" cx="381.2" cy="350.4" r="37.5"/>
		<circle class="st0" cx="368.4" cy="347.9" r="18.5"/>
		<path class="st3" d="M417.2,143.6c3.8-28.1,27.8-49,56-49l0,0c28.4,0,52.3,21,56,49l2.8,21H414.3L417.2,143.6z"/>
		<polygon class="st2" points="397.4,291.6 414.4,164.7 532.2,164.7 549.1,291.6 		"/>
		<g>
			<circle class="st4" cx="445.2" cy="138" r="11.9"/>
			<circle class="st4" cx="445.2" cy="138" r="6.6"/>
			<circle class="st4" cx="445.2" cy="138" r="2.6"/>
			<line class="st4" x1="436.6" y1="129.4" x2="465.8" y2="158.7"/>
		</g>
		<g>
			<circle class="st4" cx="500.8" cy="138" r="11.9"/>
			<circle class="st4" cx="500.8" cy="138" r="6.6"/>
			<circle class="st4" cx="500.8" cy="138" r="2.6"/>
			<line class="st4" x1="509.3" y1="129.4" x2="480" y2="158.7"/>
		</g>
		<g>
			<line class="st4" x1="478.1" y1="117.1" x2="468.7" y2="117.1"/>
			<line class="st4" x1="479.6" y1="122.4" x2="467.1" y2="122.4"/>
			<line class="st4" x1="482.7" y1="127.7" x2="464" y2="127.7"/>
			<line class="st4" x1="479.6" y1="133" x2="467.1" y2="133"/>
			<line class="st4" x1="478.1" y1="138.3" x2="468.7" y2="138.3"/>
			<line class="st4" x1="478.1" y1="143.6" x2="468.7" y2="143.6"/>
		</g>
		<polygon class="st3" points="381.2,205.8 409.2,205.8 413.1,176.2 381.2,176.2 		"/>
		<circle class="st5" cx="395.9" cy="190.8" r="10.6"/>
		<circle class="st6" cx="395.9" cy="190.8" r="5.3"/>
		<line class="st7" x1="395.9" y1="190.8" x2="359.9" y2="178"/>
		<line class="st7" x1="359.9" y1="203.7" x2="395.9" y2="190.9"/>
		<path class="st8" d="M480.8,149.9c0,8.1,6.6,14.7,14.7,14.7h-44.3c8.1,0,14.7-6.6,14.7-14.7H480.8z"/>
		<line class="st9" x1="374.8" y1="152.7" x2="374.8" y2="180.6"/>
		<path class="st2" d="M570.9,201.2h-13.4v-20.4h13.4c5.3,0,9.7,4.4,9.7,9.7v1C580.6,196.8,576.3,201.2,570.9,201.2z"/>
		<polygon class="st3" points="565.4,205.8 537.5,205.8 533.5,176.2 565.4,176.2 		"/>
		<circle class="st5" cx="550.6" cy="190.8" r="10.6"/>
		<circle class="st6" cx="550.6" cy="190.8" r="5.3"/>
		<g>
			<line class="st7" x1="550.4" y1="191.3" x2="537.7" y2="155.3"/>
			<line class="st7" x1="563.5" y1="155.3" x2="550.7" y2="191.3"/>
		</g>
		<circle class="st10" cx="606.9" cy="190.8" r="12.6"/>
		<circle class="st10" cx="375" cy="140" r="12.6"/>
		<line class="st10" x1="592.8" y1="190.8" x2="576.8" y2="190.8"/>
		<g>
			<line class="st11" x1="446.5" y1="164.6" x2="446.5" y2="181.9"/>
			<line class="st11" x1="439" y1="164.6" x2="439" y2="181.9"/>
			<line class="st11" x1="431.5" y1="164.6" x2="431.5" y2="181.9"/>
			<line class="st11" x1="424" y1="164.6" x2="424" y2="181.9"/>
		</g>
		<g>
			<line class="st11" x1="520.5" y1="164.6" x2="520.5" y2="181.9"/>
			<line class="st11" x1="513" y1="164.6" x2="513" y2="181.9"/>
			<line class="st11" x1="505.5" y1="164.6" x2="505.5" y2="181.9"/>
			<line class="st11" x1="498" y1="164.6" x2="498" y2="181.9"/>
		</g>
		<path class="st3" d="M557.8,253.1c-17.1-10.1-48.5-16.9-84.5-16.9s-67.3,6.8-84.5,16.9v27.3h169.1V253.1z"/>
		<path class="st3" d="M571.2,307.9"/>
		<path class="st2" d="M378,506.9h196V297.2c0-9.3-7.5-16.8-16.8-16.8H394.6c-9.3,0-16.8,7.5-16.8,16.8v209.7L378,506.9L378,506.9z"
			/>
		<g>
			<g>
				<path class="st3" d="M499.9,220.5h5.7v-17.9c0-1.5-1.2-2.6-2.6-2.6h-0.3c-1.5,0-2.6,1.2-2.6,2.6v17.9H499.9z"/>
				<path class="st3" d="M487.8,224.4h5.7v-17.9c0-1.5-1.2-2.6-2.6-2.6h-0.3c-1.5,0-2.6,1.2-2.6,2.6v17.9H487.8z"/>
				<path class="st3" d="M475.6,227.1h5.7v-17.9c0-1.5-1.2-2.6-2.6-2.6h-0.3c-1.5,0-2.6,1.2-2.6,2.6v17.9H475.6z"/>
				<path class="st3" d="M463.6,227.1h5.7v-17.9c0-1.5-1.2-2.6-2.6-2.6h-0.3c-1.5,0-2.6,1.2-2.6,2.6v17.9H463.6z"/>
				<path class="st3" d="M451.5,224.4h5.7v-17.9c0-1.5-1.2-2.6-2.6-2.6h-0.3c-1.5,0-2.6,1.2-2.6,2.6v17.9H451.5z"/>
				<path class="st3" d="M439.4,220.5h5.7v-17.9c0-1.5-1.2-2.6-2.6-2.6h-0.3c-1.5,0-2.6,1.2-2.6,2.6v17.9H439.4z"/>
			</g>
			<line class="st12" x1="442.2" y1="206.9" x2="442.2" y2="194"/>
			<line class="st12" x1="454.3" y1="206.9" x2="454.3" y2="194"/>
			<line class="st12" x1="466.3" y1="206.9" x2="466.3" y2="194"/>
			<line class="st12" x1="478.6" y1="206.9" x2="478.6" y2="194"/>
			<line class="st12" x1="490.6" y1="206.9" x2="490.6" y2="194"/>
			<line class="st12" x1="502.7" y1="206.9" x2="502.7" y2="194"/>
		</g>
		<g>
			<g>
				<g>
					<g>
						<defs>
							<rect id="SVGID_4_" x="431.4" y="241" width="82.6" height="32.6"/>
						</defs>
						<clipPath id="SVGID_1_">
							<use xlink:href="#SVGID_4_"  style="overflow:visible;"/>
						</clipPath>
						<g class="st13">
							<path class="st12" d="M557.8,262.4c-17.1-10.1-48.5-16.9-84.5-16.9s-67.3,6.8-84.5,16.9v27.3h169.1V262.4z"/>
							<path class="st12" d="M557.8,267.6c-17.1-10.1-48.5-16.9-84.5-16.9s-67.3,6.8-84.5,16.9V295h169.1V267.6z"/>
							<path class="st12" d="M557.8,272.9c-17.1-10.1-48.5-16.9-84.5-16.9s-67.3,6.8-84.5,16.9v27.3h169.1V272.9z"/>
							<path class="st12" d="M557.8,278.2c-17.1-10.1-48.5-16.9-84.5-16.9s-67.3,6.8-84.5,16.9v27.3h169.1V278.2z"/>
							<path class="st12" d="M557.8,283.5c-17.1-10.1-48.5-16.9-84.5-16.9s-67.3,6.8-84.5,16.9v27.3h169.1V283.5z"/>
						</g>
					</g>
				</g>
			</g>
		</g>
		<path class="st3" d="M435.8,209c-2.9,0-5.3,2.4-5.3,5.3s2.4,5.3,5.3,5.3"/>
		<path class="st3" d="M508.8,219.4c2.9,0,5.3-2.4,5.3-5.3s-2.4-5.3-5.3-5.3"/>
		<g>
			<polyline class="st14" points="454,307.1 384.7,243.2 319.8,303.4 367,350.4 			"/>
			<circle class="st15" cx="384.7" cy="244.6" r="10.6"/>
			<circle class="st16" cx="319.8" cy="304.4" r="13.2"/>
			<circle class="st17" cx="319.8" cy="304.4" r="5.3"/>
			<g>
				<path class="st18" d="M427.4,355.1c-2.9-4.9-4.7-10.6-4.7-16.6c0-17.3,14.1-31.5,31.5-31.5c17.3,0,31.5,14.1,31.5,31.5
					c0,6.2-1.8,11.8-4.7,16.6"/>
				<circle class="st3" cx="454" cy="307.1" r="13.2"/>
				<circle class="st5" cx="454" cy="307.1" r="5.1"/>
				<circle class="st3" cx="427.7" cy="355.1" r="4"/>
				<circle class="st3" cx="480.6" cy="355.1" r="4"/>
			</g>
		</g>
		<g>
			<circle class="st5" cx="489.3" cy="395.4" r="9.3"/>
			<circle class="st5" cx="467.1" cy="391.7" r="9.3"/>
			<circle class="st5" cx="420.2" cy="395.4" r="9.3"/>
			<circle class="st5" cx="438.6" cy="382.5" r="9.3"/>
			<circle class="st5" cx="462.5" cy="370.4" r="9.3"/>
			<circle class="st5" cx="475.5" cy="378.4" r="9.3"/>
			<circle class="st5" cx="456.4" cy="382.2" r="9.3"/>
			<circle class="st5" cx="461.3" cy="382.5" r="9.3"/>
			<circle class="st5" cx="451.4" cy="391.7" r="9.3"/>
			<circle class="st5" cx="436.6" cy="391.7" r="9.3"/>
			<circle class="st5" cx="480.9" cy="388.9" r="9.3"/>
			<polygon class="st3" points="417.8,503.9 490.2,503.9 503.4,395.9 404.6,395.9 			"/>
			<line class="st19" x1="482.7" y1="395.4" x2="482.7" y2="489.2"/>
			<line class="st19" x1="468.8" y1="395.4" x2="468.8" y2="503.9"/>
			<line class="st19" x1="454.9" y1="395.4" x2="454.9" y2="503.9"/>
			<line class="st19" x1="440.9" y1="395.4" x2="440.9" y2="503.9"/>
			<line class="st19" x1="427.1" y1="395.4" x2="427.1" y2="489.2"/>
			<path class="st20" d="M469.9,377.3c4.6,0,8.4,3.4,9.1,7.8c0.1-0.4,0.1-1,0.1-1.5c0-5.1-4.1-9.3-9.3-9.3c-5.1,0-9.3,4.1-9.3,9.3
				c0,0.4,0,1,0.1,1.5C461.3,380.6,465.2,377.3,469.9,377.3z"/>
			<path class="st20" d="M444,386c3.7,0,6.6,2.6,7.2,6.2c0-0.4,0.1-0.7,0.1-1.2c0-4.1-3.2-7.4-7.4-7.4s-7.4,3.2-7.4,7.4
				c0,0.4,0,0.7,0.1,1.2C437.2,388.6,440.3,386,444,386z"/>
		</g>
		<g>
			<circle class="st0" cx="548.7" cy="304.4" r="8.7"/>
			<circle class="st2" cx="548.7" cy="304.4" r="4"/>
			<rect x="480.6" y="300.3" class="st0" width="55.3" height="5.7"/>
		</g>
		<g>
			<rect x="553.7" y="370.3" class="st0" width="5.7" height="13.5"/>
		</g>
		<g>
			<rect x="538.8" y="378.1" class="st0" width="5.7" height="5.7"/>
		</g>
		<g>
			<rect x="508.1" y="377.9" class="st0" width="5.7" height="5.7"/>
		</g>
		<g>
			<rect x="518.5" y="378.1" class="st3" width="16.3" height="5.7"/>
		</g>
		<g>
			<rect x="512.7" y="456.6" class="st3" width="44.5" height="27.9"/>
		</g>
		<g>
			<rect x="502.7" y="332" class="st3" width="57.5" height="29.1"/>
		</g>
		<path class="st21" d="M502.8,348.7h8.4l1.8-0.9c1.9-0.9,4-0.4,5.4,1l0,0c2.1,2.2,5.6,1.9,7.2-0.4l3.8-5.6c2.1-3.1,6.8-2.5,8.1,0.9
			l1.5,3.5c1.3,3.2,5.6,3.8,7.8,1.2l0.6-0.7c1.9-2.2,5.1-2.2,7.1,0l0.7,0.9c0.9,1,2.2,1.6,3.5,1.6h1.8"/>
		<rect x="505.8" y="338.5" class="st12" width="3.7" height="3.7"/>
		<rect x="555.2" y="354.2" class="st12" width="2.1" height="2.1"/>
		<g>
			<rect x="517.8" y="461.1" class="st0" width="4.4" height="4.4"/>
		</g>
		<g>
			<rect x="532.5" y="461.1" class="st2" width="4.4" height="4.4"/>
		</g>
		<g>
			<rect x="547.2" y="461.1" class="st0" width="4.4" height="4.4"/>
		</g>
		<g>
			<rect x="517.8" y="475.8" class="st2" width="4.4" height="4.4"/>
		</g>
		<g>
			<rect x="532.5" y="475.8" class="st0" width="4.4" height="4.4"/>
		</g>
		<g>
			<rect x="547.2" y="475.8" class="st0" width="4.4" height="4.4"/>
		</g>
		<g>
			<rect x="517.8" y="468.5" class="st0" width="4.4" height="4.4"/>
		</g>
		<g>
			<rect x="532.5" y="468.5" class="st0" width="4.4" height="4.4"/>
		</g>
		<g>
			<rect x="547.2" y="468.5" class="st2" width="4.4" height="4.4"/>
		</g>
		<g>
			<circle class="st5" cx="397.4" cy="487.2" r="8.2"/>
			<circle class="st22" cx="397.4" cy="487.2" r="4.7"/>
		</g>
	</g>
	
		<linearGradient id="SVGID_2_" gradientUnits="userSpaceOnUse" x1="101.8844" y1="671.8221" x2="509.9127" y2="907.3975" gradientTransform="matrix(1 0 0 -1 0 1026)">
		<stop  offset="0.1681" style="stop-color:#524090;stop-opacity:0"/>
		<stop  offset="0.2815" style="stop-color:#5B4199;stop-opacity:9.518917e-02"/>
		<stop  offset="0.4632" style="stop-color:#7244B0;stop-opacity:0.2478"/>
		<stop  offset="0.6444" style="stop-color:#8F48CE;stop-opacity:0.4"/>
		<stop  offset="0.7715" style="stop-color:#FA7FF9;stop-opacity:0.1"/>
		<stop  offset="0.9942" style="stop-color:#FFFFFF;stop-opacity:0.4"/>
	</linearGradient>
	<path class="st23" d="M518.5,137.7L518.5,137.7c-0.1-9-7.5-16.2-16.5-16.2c-8.7,0-15.7,6.8-16.5,15.3l-24.3-0.6
		c-0.9-8.2-7.9-14.6-16.3-14.6c-8.2,0-15.1,6.2-16.3,14.1L0,135.5l189.4,370.2l130.6,0.1l191-353.9c4.6-2.9,7.6-8.1,7.6-14
		C518.5,137.8,518.5,137.7,518.5,137.7L518.5,137.7z"/>
</g>
</svg>
