<?xml version="1.0" encoding="utf-8"?>
<!-- Generator: Adobe Illustrator 22.0.1, SVG Export Plug-In . SVG Version: 6.00 Build 0)  -->
<!DOCTYPE svg PUBLIC "-//W3C//DTD SVG 1.1//EN" "http://www.w3.org/Graphics/SVG/1.1/DTD/svg11.dtd" [
	<!ENTITY ns_extend "http://ns.adobe.com/Extensibility/1.0/">
	<!ENTITY ns_ai "http://ns.adobe.com/AdobeIllustrator/10.0/">
	<!ENTITY ns_graphs "http://ns.adobe.com/Graphs/1.0/">
	<!ENTITY ns_vars "http://ns.adobe.com/Variables/1.0/">
	<!ENTITY ns_imrep "http://ns.adobe.com/ImageReplacement/1.0/">
	<!ENTITY ns_sfw "http://ns.adobe.com/SaveForWeb/1.0/">
	<!ENTITY ns_custom "http://ns.adobe.com/GenericCustomNamespace/1.0/">
	<!ENTITY ns_adobe_xpath "http://ns.adobe.com/XPath/1.0/">
]>
<svg version="1.1" id="Isolation_Mode" xmlns:x="&ns_extend;" xmlns:i="&ns_ai;" xmlns:graph="&ns_graphs;"
	 xmlns="http://www.w3.org/2000/svg" xmlns:xlink="http://www.w3.org/1999/xlink" x="0px" y="0px" width="735.3px" height="723.8px"
	 viewBox="0 0 735.3 723.8" style="enable-background:new 0 0 735.3 723.8;" xml:space="preserve">
<style type="text/css">
	.st0{fill:url(#SVGID_1_);}
	.st1{fill:url(#SVGID_2_);}
	.st2{fill:#27183C;}
	.st3{fill:#5F2F8E;}
	.st4{fill:#27183C;stroke:#2F1C46;stroke-width:2;stroke-miterlimit:10;}
	.st5{fill:#FFFFFF;}
	.st6{fill:none;stroke:#5F2F8E;stroke-width:2;stroke-miterlimit:10;}
	.st7{fill:none;stroke:#2F1C46;stroke-miterlimit:10;}
	.st8{fill:none;stroke:#FFFFFF;stroke-miterlimit:10;}
	.st9{fill:none;}
	.st10{fill:#362B5C;}
	.st11{fill:#FC7BFB;}
	.st12{fill:none;stroke:#362B5C;stroke-width:2;stroke-miterlimit:10;}
	.st13{fill:none;stroke:#27183C;stroke-width:3;stroke-linecap:round;stroke-miterlimit:10;}
</style>
<metadata>
	<sfw  xmlns="&ns_sfw;">
		<slices></slices>
		<sliceSourceBounds  bottomLeftOrigin="true" height="723.8" width="735.3" x="4284.1" y="-685.2"></sliceSourceBounds>
	</sfw>
</metadata>
<radialGradient id="SVGID_1_" cx="521.2376" cy="348.0018" r="169.6483" gradientUnits="userSpaceOnUse">
	<stop  offset="0" style="stop-color:#2F1C46"/>
	<stop  offset="1" style="stop-color:#5F2F8E;stop-opacity:0"/>
</radialGradient>
<path class="st0" d="M362.1,332.6c0-96.8,78.4-175.2,175.2-175.2s175.2,78.4,175.2,175.2"/>
<linearGradient id="SVGID_2_" gradientUnits="userSpaceOnUse" x1="429.8114" y1="128.8897" x2="521.0951" y2="128.8897">
	<stop  offset="0" style="stop-color:#FFFFFF;stop-opacity:0.45"/>
	<stop  offset="0.6521" style="stop-color:#9879B6;stop-opacity:0.1565"/>
	<stop  offset="1" style="stop-color:#5F2F8E;stop-opacity:0"/>
</linearGradient>
<path class="st1" d="M510.3,66.8c-5.1-4.7-7.7-11.5-7.5-18.4c0-0.3,0-0.7,0-1c0-9-4.2-17-10.8-22.2c0.2-0.9,0.3-1.9,0.3-2.8
	c0-5.1-2.6-9.5-6.6-12.1c-0.8-0.5-1.2-1.3-1.2-2.2c0,0,0,0,0-0.1c0-2.9-0.7-5.6-1.9-8c-2,3.9-3.1,8.2-3.1,12.9c0,0,0,0.1,0,0.1
	c0,1.4-0.7,2.8-1.9,3.5c-6.4,4.1-10.6,11.2-10.6,19.4c0,6.4,2.6,12.2,6.9,16.4c-3.5,4-5.6,9.2-5.6,15c0,2,0.3,3.9,0.7,5.7
	c-9.5,6.6-15.7,17.6-15.7,30c0,0.4,0,0.9,0,1.3c0.3,9-3.1,17.7-9.7,23.8c-8.6,7.9-13.9,19.2-13.9,31.7c0,15.3,7.9,28.7,19.9,36.4
	c2.3,1.5,3.6,3.9,3.6,6.6c0,0.1,0,0.1,0,0.2c0,9.3,2.4,18.1,6.6,25.7c9.2,16.8,14.8,6,17.2,25.1l4.1,4.2v-7.9v-10.2
	c0.8-1.3,1.3-2.8,1.3-4.4c0-0.1,0-0.2,0-0.3c-0.1-2,0.7-3.9,2.1-5.3c1.9-1.7,3.1-4.2,3.1-7c0-3.1-1.5-5.8-3.7-7.6c0.9-0.8,2-2,3-5
	c1.1-3.4,1.4-7.1,0.7-10.9c0,0,0,0,0-0.1c-0.1-0.7,0-1.5,0.3-2.1c5.4-4.2,8.8-10.7,8.8-18.1c0-6.7-2.9-12.7-7.4-16.9
	c-1.5-1.4-2.7-3-3.5-4.8c2.3-5.6,6.2-2.5,11.8-12.8c3.2-5.9,5.1-12.7,5.1-19.9c0,0,0-0.1,0-0.1c0-2.1,1-4,2.8-5.1
	c9.3-5.9,15.4-16.3,15.4-28.1C521.1,81.6,517,72.9,510.3,66.8z"/>
<polygon class="st2" points="672.8,394.3 373.9,393.8 340.8,328.3 373.9,319.6 395.2,321.4 524.2,317.8 606.6,320.4 731.4,324.9 "/>
<g>
	<polygon class="st3" points="593.9,308 450.1,308 450.1,252.9 572.2,252.9 598.2,291.2 	"/>
	<polygon class="st3" points="413.7,308 450.1,308 450.1,252.9 413.7,252.9 408.9,286.1 	"/>
	<circle class="st4" cx="484.6" cy="308.3" r="9.1"/>
	<circle class="st5" cx="484.6" cy="308.3" r="3.8"/>
	<circle class="st4" cx="574.8" cy="308.3" r="9.1"/>
	<circle class="st5" cx="574.8" cy="308.3" r="3.8"/>
	<polygon class="st5" points="537,252.9 513.7,252.9 513.7,246.8 532.6,246.8 537,249.8 	"/>
	<polygon class="st5" points="440.3,252.9 417,252.9 417,246.8 436,246.8 440.3,249.8 	"/>
	<rect x="502.4" y="264.6" class="st2" width="19.3" height="9.8"/>
	<rect x="540.2" y="263.9" class="st2" width="16.6" height="14.8"/>
	<polygon class="st2" points="585.1,278.7 562.9,278.7 562.9,263.9 575.1,263.9 	"/>
	<line class="st6" x1="568.5" y1="281.5" x2="568.5" y2="259.8"/>
	<rect x="416.6" y="265.3" class="st2" width="30.7" height="15.1"/>
	<rect x="476.3" y="279.6" class="st7" width="11.7" height="7.7"/>
	<polyline class="st7" points="445.9,299.2 445.9,304.1 433.2,304.1 	"/>
	<line class="st8" x1="561.3" y1="257.8" x2="450.1" y2="257.8"/>
	<polyline class="st7" points="430.6,299.2 430.6,304.1 417.9,304.1 	"/>
	<rect x="524.2" y="290.1" class="st9" width="12.8" height="4.9"/>
	<polygon class="st5" points="597.4,290.1 537,290.1 537,295 597.2,295 598.2,291.2 	"/>
	<polygon class="st5" points="409.7,290.1 411,295 524.2,295 524.2,290.1 	"/>
	<rect x="524.2" y="264.6" class="st2" width="12.8" height="38.9"/>
	<g>
		<rect x="537.3" y="265.6" class="st3" width="10.8" height="36.9"/>
		<path class="st10" d="M547.1,266.6v34.9h-8.8v-34.9H547.1 M549.1,264.6h-12.8v38.9h12.8V264.6L549.1,264.6z"/>
	</g>
	<polyline class="st8" points="414.5,260.6 408.9,260.6 406.1,280 411.7,280 	"/>
</g>
<g>
	<rect x="626.3" y="309.3" class="st5" width="11.2" height="15.1"/>
	<rect x="626.3" y="314.2" class="st11" width="5.6" height="5.5"/>
	<line class="st12" x1="625.1" y1="309.3" x2="638.7" y2="309.3"/>
	<line class="st12" x1="638.7" y1="324.5" x2="625.1" y2="324.5"/>
</g>
<g>
	<rect x="356.5" y="311.4" class="st5" width="11.2" height="15.1"/>
	<rect x="356.5" y="316.2" class="st11" width="5.6" height="5.5"/>
	<line class="st12" x1="355.3" y1="311.4" x2="368.9" y2="311.4"/>
	<line class="st12" x1="368.9" y1="326.5" x2="355.3" y2="326.5"/>
</g>
<g>
	<rect x="602.2" y="314.2" class="st5" width="11.2" height="15.1"/>
	<rect x="602.2" y="319" class="st11" width="5.6" height="5.5"/>
	<line class="st12" x1="601" y1="314.2" x2="614.6" y2="314.2"/>
	<line class="st12" x1="614.6" y1="329.3" x2="601" y2="329.3"/>
</g>
<g>
	<line class="st13" x1="389.4" y1="321.3" x2="389.4" y2="305.9"/>
	<line class="st13" x1="393.5" y1="313.6" x2="393.5" y2="321.3"/>
	<line class="st13" x1="455.7" y1="318.7" x2="455.7" y2="326.4"/>
	<line class="st13" x1="378.2" y1="314" x2="378.2" y2="321.7"/>
	<line class="st13" x1="383.8" y1="316.1" x2="383.8" y2="321.3"/>
	<line class="st13" x1="436.1" y1="314.9" x2="436.1" y2="320"/>
	<line class="st13" x1="450.1" y1="316.1" x2="450.1" y2="321.3"/>
	<line class="st13" x1="343.7" y1="322.6" x2="343.7" y2="327.7"/>
	<line class="st13" x1="399.9" y1="316.1" x2="399.9" y2="321.3"/>
	<line class="st13" x1="408.1" y1="318.7" x2="408.1" y2="321.3"/>
	<line class="st13" x1="415.6" y1="318.7" x2="415.6" y2="321.3"/>
	<line class="st13" x1="429.5" y1="317.7" x2="429.5" y2="320.3"/>
	<line class="st13" x1="444.7" y1="318.7" x2="444.7" y2="321.3"/>
	<line class="st13" x1="424.3" y1="314.9" x2="424.3" y2="322.5"/>
	<line class="st13" x1="349.2" y1="320" x2="349.2" y2="327.6"/>
</g>
<g>
	<line class="st13" x1="666" y1="323.3" x2="666" y2="308"/>
	<line class="st13" x1="671.1" y1="316.3" x2="671.1" y2="323.9"/>
	<line class="st13" x1="697.4" y1="317.2" x2="697.4" y2="324.9"/>
	<line class="st13" x1="652.5" y1="315.4" x2="652.5" y2="323"/>
	<line class="st13" x1="656.7" y1="317.8" x2="656.7" y2="323"/>
	<line class="st13" x1="677.9" y1="318.4" x2="677.9" y2="323.6"/>
	<line class="st13" x1="644.6" y1="320.4" x2="644.6" y2="323"/>
	<line class="st13" x1="702.5" y1="322" x2="702.5" y2="324.6"/>
	<line class="st13" x1="689.6" y1="322" x2="689.6" y2="324.6"/>
</g>
<polygon class="st2" points="405.3,723.8 0,723.8 330,324.5 735.3,324.5 "/>
</svg>
