<?xml version="1.0" encoding="utf-8"?>
<!-- Generator: Adobe Illustrator 20.0.0, SVG Export Plug-In . SVG Version: 6.00 Build 0)  -->
<!DOCTYPE svg PUBLIC "-//W3C//DTD SVG 1.1//EN" "http://www.w3.org/Graphics/SVG/1.1/DTD/svg11.dtd" [
	<!ENTITY ns_extend "http://ns.adobe.com/Extensibility/1.0/">
	<!ENTITY ns_ai "http://ns.adobe.com/AdobeIllustrator/10.0/">
	<!ENTITY ns_graphs "http://ns.adobe.com/Graphs/1.0/">
	<!ENTITY ns_vars "http://ns.adobe.com/Variables/1.0/">
	<!ENTITY ns_imrep "http://ns.adobe.com/ImageReplacement/1.0/">
	<!ENTITY ns_sfw "http://ns.adobe.com/SaveForWeb/1.0/">
	<!ENTITY ns_custom "http://ns.adobe.com/GenericCustomNamespace/1.0/">
	<!ENTITY ns_adobe_xpath "http://ns.adobe.com/XPath/1.0/">
]>
<svg version="1.1" id="art" xmlns:x="&ns_extend;" xmlns:i="&ns_ai;" xmlns:graph="&ns_graphs;"
	 xmlns="http://www.w3.org/2000/svg" xmlns:xlink="http://www.w3.org/1999/xlink" x="0px" y="0px" width="600px" height="583.8px"
	 viewBox="0 0 600 583.8" style="enable-background:new 0 0 600 583.8;" xml:space="preserve">
<style type="text/css">
	.st0{fill:#C8495B;}
	.st1{fill:#F4A04D;}
	.st2{fill:url(#SVGID_1_);}
	.st3{fill:#301C47;}
	.st4{fill:none;stroke:#301C47;stroke-width:3;stroke-linecap:round;stroke-miterlimit:10;}
	.st5{fill:none;}
	.st6{fill:url(#SVGID_2_);}
	.st7{fill:url(#SVGID_3_);}
	.st8{fill:none;stroke:#C8495B;stroke-width:3;stroke-linecap:round;stroke-miterlimit:10;}
	.st9{fill:#FFFFFF;}
	.st10{fill:none;stroke:#F4A04D;stroke-width:3;stroke-miterlimit:10;}
	.st11{fill:url(#SVGID_4_);}
	.st12{enable-background:new    ;}
</style>
<metadata>
	<sfw  xmlns="&ns_sfw;">
		<slices></slices>
		<sliceSourceBounds  bottomLeftOrigin="true" height="583.8" width="600" x="0" y="0"></sliceSourceBounds>
	</sfw>
</metadata>
<path class="st0" d="M483.1,361.1L282.3,245.2c-2.8,3-117.3,69.4-175.1,102.9L74.6,347v3.7c0,10.1,5.4,19.4,14.1,24.5l208,120.1
	c8.6,5,19.2,5,27.8,0L508.7,389c6.9-4,11.2-11.4,11.2-19.4v-7.1L483.1,361.1z"/>
<path class="st1" d="M282.3,225.2c-3.8,4-207.7,121.7-207.7,121.7l236.1,136.3L520,362.4L282.3,225.2z"/>
<linearGradient id="SVGID_1_" gradientUnits="userSpaceOnUse" x1="133.2445" y1="137.5247" x2="460.5828" y2="326.5135" gradientTransform="matrix(1 0 0 -1 0 586)">
	<stop  offset="0.2776" style="stop-color:#C8495B;stop-opacity:0"/>
	<stop  offset="0.5469" style="stop-color:#C8495B;stop-opacity:0.5"/>
</linearGradient>
<path class="st2" d="M282.3,225.2c-3.8,4-207.7,121.7-207.7,121.7l236.1,136.3L520,362.4L282.3,225.2z"/>
<path class="st3" d="M176.1,382.6c5.7-3.3,44.4-25.8,48.7-28.5l57.6,33.3l-49,28.3L176.1,382.6z"/>
<polygon class="st1" points="282.3,0 519.9,136.3 519.9,362.3 282.3,225.2 "/>
<path class="st3" d="M300.8,212.7c-1.3-25.4,0.2-101.6,0-178.1L499.1,148v179.2L300.8,212.7z"/>
<path class="st1" d="M320.3,138.2c-0.1-10.9,0-26.8,0.1-44.3c0.1-7.9,0.1-16.2,0.1-27.8l88.3,50.5v72.7L320.3,138.2z"/>
<g>
	<line class="st4" x1="385.2" y1="117.6" x2="398.9" y2="125.4"/>
	<line class="st4" x1="330.5" y1="86.3" x2="371.2" y2="109.6"/>
	<line class="st5" x1="398.9" y1="172" x2="330.3" y2="132.4"/>
	<line class="st4" x1="398.9" y1="137.6" x2="330.3" y2="98"/>
	<line class="st4" x1="345.7" y1="118.8" x2="330.3" y2="109.9"/>
	<line class="st4" x1="385.3" y1="141.7" x2="355.5" y2="124.5"/>
</g>
<g>
	<path class="st0" d="M335.8,384.5h-11.5v-16.3c0-3.2,2.6-5.8,5.8-5.8l0,0c3.2,0,5.8,2.6,5.8,5.8L335.8,384.5L335.8,384.5z"/>
	<circle class="st3" cx="330.3" cy="356.7" r="4.6"/>
	<path class="st3" d="M330,409.8L330,409.8c-3.2,0-5.8-2.6-5.8-5.8v-19.5h11.5V404C335.8,407.2,333.2,409.8,330,409.8z"/>
</g>
<g>
	<path class="st1" d="M118,203.8h-6.8v-9.6c0-1.9,1.5-3.4,3.4-3.4l0,0c1.9,0,3.4,1.5,3.4,3.4V203.8z"/>
	<circle class="st3" cx="114.8" cy="187.4" r="2.7"/>
	<path class="st0" d="M114.6,218.6L114.6,218.6c-1.9,0-3.4-1.5-3.4-3.4v-11.5h6.8v11.5C118,217.1,116.5,218.6,114.6,218.6z"/>
</g>
<g>
	<path class="st0" d="M50,383.4c0,13.8-11.2,18.5-25,10.6c-13.8-8-25-25.6-25-39.4C0,340.8,11.2,336,25,344S50,369.6,50,383.4z"/>
	<g>
		<polygon class="st1" points="25,369 28,416.6 22,416.6 		"/>
	</g>
</g>
<g>
	<path class="st1" d="M176.3,161.5c0,11.3-9.2,15.2-20.5,8.7s-20.5-21-20.5-32.3s9.2-15.2,20.5-8.7
		C167.2,135.7,176.3,150.2,176.3,161.5z"/>
	<g>
		<polygon class="st3" points="155.8,149.7 158.8,218.7 152.8,218.7 		"/>
	</g>
</g>
<linearGradient id="SVGID_2_" gradientUnits="userSpaceOnUse" x1="401.848" y1="544.5412" x2="469.1691" y2="505.6733" gradientTransform="matrix(-1 0 0 -1 919.7003 586)">
	<stop  offset="0" style="stop-color:#C8495B;stop-opacity:0.2"/>
	<stop  offset="1" style="stop-color:#C8495B;stop-opacity:0.5"/>
</linearGradient>
<path class="st6" d="M423.9,34.2c0-0.3,0-0.5,0-0.8c0-11.1,9-14.9,20-8.5c5.9,3.4,11.3,9.1,14.9,15.3c2.9-17.7,19.5-22.9,39.6-11.3
	c22.1,12.8,40.1,41.1,40.1,63.2c0,2.8-0.3,5.4-0.8,7.7L423.9,34.2z"/>
<polygon class="st3" points="505.9,383.5 494.4,390.1 494.4,383.6 505.9,377.1 "/>
<path class="st1" d="M405.3,439.2"/>
<path class="st1" d="M414.6,451.9"/>
<polygon class="st1" points="396,445.6 414.6,456.1 423.9,450.7 423.9,446.5 405.3,436 396,441.4 "/>
<linearGradient id="SVGID_3_" gradientUnits="userSpaceOnUse" x1="145.803" y1="491.5318" x2="212.4028" y2="491.5318" gradientTransform="matrix(1 0 0 -1 0 586)">
	<stop  offset="0" style="stop-color:#C8495B;stop-opacity:0.2"/>
	<stop  offset="1" style="stop-color:#C8495B;stop-opacity:0.5"/>
</linearGradient>
<path class="st7" d="M212.3,118.7c0.1-0.5,0.1-0.9,0.1-1.4c0-6.8-5.5-15.4-12.2-19.3c-2.3-1.4-4.5-2-6.4-1.9
	c-2.1-8.8-9-18.3-17.2-23.1c-9.9-5.7-17.9-2.3-17.9,7.6c0,0.5,0,1,0.1,1.4c-1.3-1.4-2.7-2.7-4.3-3.6c-4.2-2.4-7.7-1.5-8.6,1.9
	L212.3,118.7z"/>
<g>
	<polygon class="st8" points="425.7,124.8 485.4,159.1 485.4,227.6 425.7,193.3 	"/>
	<g>
		<g>
			<path class="st9" d="M461.2,166.8l4.6,2.7L449.2,183l-4.6-2.7L461.2,166.8z"/>
		</g>
		<polygon class="st1" points="446.2,152.5 440.5,149.2 450.6,169.4 453.4,167.2 		"/>
		<polygon class="st0" points="460,179.9 457.2,182.2 464.9,197.7 470.6,201 		"/>
	</g>
</g>
<polygon class="st10" points="425.7,214.8 485.4,249.1 485.4,297.6 425.7,263.3 "/>
<path class="st3" d="M256.7,256.8c-1.3-25.4,0.2-101.6,0-178.1L450.5,192v179.2L256.7,256.8z"/>
<linearGradient id="SVGID_4_" gradientUnits="userSpaceOnUse" x1="267.1336" y1="311.1286" x2="440.5428" y2="411.2465" gradientTransform="matrix(1 0 0 -1 0 586)">
	<stop  offset="0.2097" style="stop-color:#C8495B;stop-opacity:0"/>
	<stop  offset="1" style="stop-color:#C8495B;stop-opacity:0.5"/>
</linearGradient>
<path class="st11" d="M256.7,256.8c-1.3-25.4,0.2-101.6,0-178.1L450.5,192v179.2L256.7,256.8z"/>
<g>
	<path class="st0" d="M381,280.1l-130.5-75.3c-17-9.8-30.8-31.5-30.8-48.5l0,0c0-17,13.8-22.8,30.8-13L381,218.6
		c17,9.8,30.8,31.5,30.8,48.5l0,0C411.8,284.1,398,289.9,381,280.1z"/>
	<g class="st12">
		<path class="st9" d="M250.5,166.8l6.2,3.6c0.9,0.5,1.6,1.1,2.3,1.7c0.7,0.6,1.2,1.3,1.7,2c0.4,0.6,0.7,1.2,0.9,1.8
			s0.3,1.2,0.3,1.8v0c0,0.6-0.1,1-0.2,1.4c-0.2,0.4-0.4,0.6-0.7,0.8c-0.3,0.2-0.6,0.3-1,0.3c-0.4,0-0.8-0.1-1.3-0.2l3.7,7.4
			l-2.9-1.7L256,179l0,0l-3-1.7v4.8l-2.4-1.4V166.8z M256.5,177.2c0.9,0.5,1.6,0.7,2.1,0.6c0.5-0.1,0.8-0.5,0.8-1.3v0
			c0-0.8-0.3-1.5-0.8-2.2c-0.5-0.7-1.2-1.3-2.1-1.8l-3.6-2.1v4.7L256.5,177.2z"/>
		<path class="st9" d="M268.3,177.1l10.3,5.9v2.2l-7.8-4.5v3.6l7,4v2.2l-7-4v3.7l7.9,4.6v2.2l-10.4-6V177.1z"/>
		<path class="st9" d="M291.7,204.7c-1.1-0.6-2.1-1.4-3-2.2c-0.9-0.9-1.6-1.8-2.3-2.8c-0.6-1-1.1-2-1.5-3.1
			c-0.3-1.1-0.5-2.1-0.5-3.1v0c0-1,0.2-1.8,0.5-2.4c0.4-0.7,0.8-1.1,1.5-1.4c0.6-0.3,1.4-0.4,2.3-0.2c0.9,0.1,1.8,0.5,2.9,1.1
			c0.6,0.4,1.2,0.7,1.7,1.1c0.5,0.4,1,0.8,1.4,1.2c0.4,0.4,0.8,0.8,1.2,1.3s0.7,0.9,1.1,1.4l-1.5,1c-0.3-0.4-0.5-0.7-0.8-1.1
			c-0.3-0.3-0.6-0.7-0.9-1c-0.3-0.3-0.6-0.6-1-0.9c-0.4-0.3-0.8-0.5-1.2-0.8c-0.6-0.4-1.2-0.6-1.8-0.6c-0.5-0.1-1,0-1.4,0.2
			s-0.7,0.5-1,1c-0.2,0.5-0.3,1-0.3,1.7v0c0,0.7,0.1,1.4,0.3,2.2c0.2,0.7,0.5,1.4,1,2.1c0.4,0.7,0.9,1.3,1.5,1.9
			c0.6,0.6,1.2,1.1,1.9,1.5c0.7,0.4,1.3,0.6,1.8,0.8c0.6,0.1,1.1,0.2,1.5,0.1v-2.6l-3.5-2v-2.1l5.9,3.4v5.8
			c-0.3,0.1-0.7,0.2-1.1,0.2c-0.4,0-0.9,0-1.3-0.1c-0.5-0.1-1-0.2-1.6-0.4C292.9,205.3,292.3,205,291.7,204.7z"/>
		<path class="st9" d="M304.2,197.8l2.4,1.4v13.9l-2.4-1.4V197.8z"/>
		<path class="st9" d="M318.7,220.3c-1.1-0.6-2.1-1.4-3.1-2.3c-1-0.9-1.9-2-2.7-3.2l1.5-0.9c0.7,1,1.4,1.8,2,2.5
			c0.7,0.7,1.5,1.3,2.3,1.8c0.8,0.4,1.3,0.6,1.8,0.6s0.7-0.4,0.7-0.9v0c0-0.3,0-0.5-0.1-0.7c-0.1-0.2-0.2-0.5-0.5-0.8
			c-0.2-0.3-0.5-0.6-1-1c-0.4-0.4-0.9-0.8-1.6-1.3c-0.7-0.6-1.4-1.2-2-1.7c-0.6-0.6-1.1-1.1-1.4-1.6s-0.7-1.1-0.9-1.7
			c-0.2-0.6-0.3-1.2-0.3-1.8v0c0-0.6,0.1-1.1,0.4-1.4c0.2-0.4,0.6-0.6,1-0.7c0.4-0.1,0.9-0.1,1.5,0c0.6,0.1,1.2,0.4,1.9,0.8
			c1,0.6,1.9,1.3,2.7,2s1.6,1.6,2.3,2.6l-1.3,1.1c-0.6-0.8-1.3-1.5-1.9-2.1c-0.6-0.6-1.2-1.1-1.9-1.5c-0.7-0.4-1.3-0.6-1.7-0.5
			c-0.4,0.1-0.6,0.4-0.6,0.8v0c0,0.3,0,0.5,0.1,0.8c0.1,0.3,0.3,0.5,0.5,0.8c0.2,0.3,0.6,0.7,1,1.1c0.4,0.4,1,0.9,1.6,1.4
			c0.7,0.6,1.4,1.2,1.9,1.7c0.6,0.5,1,1.1,1.4,1.6c0.4,0.5,0.7,1.1,0.8,1.6c0.2,0.5,0.3,1.1,0.3,1.7v0c0,0.6-0.1,1.2-0.4,1.5
			c-0.2,0.4-0.6,0.6-1,0.7c-0.4,0.1-1,0.1-1.6-0.1C320.1,221,319.5,220.7,318.7,220.3z"/>
		<path class="st9" d="M333.4,216.9l-4.4-2.5v-2.3l11.2,6.5v2.3l-4.4-2.5V230l-2.5-1.4V216.9z"/>
		<path class="st9" d="M346.4,222.1l10.3,5.9v2.2l-7.8-4.5v3.6l7,4v2.2l-7-4v3.7l7.9,4.6v2.2l-10.4-6V222.1z"/>
		<path class="st9" d="M363.1,231.8l6.2,3.6c0.9,0.5,1.6,1.1,2.3,1.7c0.7,0.6,1.2,1.3,1.7,2c0.4,0.6,0.7,1.2,0.9,1.8
			c0.2,0.6,0.3,1.2,0.3,1.8v0c0,0.6-0.1,1-0.2,1.4c-0.2,0.4-0.4,0.6-0.7,0.8c-0.3,0.2-0.6,0.3-1,0.3c-0.4,0-0.8-0.1-1.3-0.2l3.7,7.4
			l-2.9-1.7l-3.4-6.8l0,0l-3-1.7v4.8l-2.4-1.4V231.8z M369.1,242.2c0.9,0.5,1.6,0.7,2.1,0.6c0.5-0.1,0.8-0.5,0.8-1.3v0
			c0-0.8-0.3-1.5-0.8-2.2c-0.5-0.7-1.2-1.3-2.1-1.8l-3.6-2.1v4.7L369.1,242.2z"/>
	</g>
</g>
<path class="st0" d="M600,506l-121.1,70.8l-79.2-45.4l80.1-47.2l-59.6-36.4c-1.4-0.9-3.3-0.4-4.1,1c-0.9,1.4-0.4,3.3,1,4.1l51,31.2
	l-80.3,47.4l91.2,52.2L600,513V506z"/>
</svg>
