<?xml version="1.0" encoding="utf-8"?>
<!-- Generator: Adobe Illustrator 21.0.2, SVG Export Plug-In . SVG Version: 6.00 Build 0)  -->
<!DOCTYPE svg PUBLIC "-//W3C//DTD SVG 1.1//EN" "http://www.w3.org/Graphics/SVG/1.1/DTD/svg11.dtd" [
	<!ENTITY ns_extend "http://ns.adobe.com/Extensibility/1.0/">
	<!ENTITY ns_ai "http://ns.adobe.com/AdobeIllustrator/10.0/">
	<!ENTITY ns_graphs "http://ns.adobe.com/Graphs/1.0/">
	<!ENTITY ns_vars "http://ns.adobe.com/Variables/1.0/">
	<!ENTITY ns_imrep "http://ns.adobe.com/ImageReplacement/1.0/">
	<!ENTITY ns_sfw "http://ns.adobe.com/SaveForWeb/1.0/">
	<!ENTITY ns_custom "http://ns.adobe.com/GenericCustomNamespace/1.0/">
	<!ENTITY ns_adobe_xpath "http://ns.adobe.com/XPath/1.0/">
]>
<svg version="1.1" id="art" xmlns:x="&ns_extend;" xmlns:i="&ns_ai;" xmlns:graph="&ns_graphs;"
	 xmlns="http://www.w3.org/2000/svg" xmlns:xlink="http://www.w3.org/1999/xlink" x="0px" y="0px" width="600px" height="485px"
	 viewBox="0 0 600 485" style="enable-background:new 0 0 600 485;" xml:space="preserve">
<style type="text/css">
	.st0{fill:url(#SVGID_1_);}
	.st1{fill:#301C47;}
	.st2{fill:#C8495B;}
	.st3{fill:#F4A04D;}
	.st4{fill:#FFFFFF;}
	.st5{fill:#2F1C46;}
	.st6{fill:url(#SVGID_2_);}
	.st7{opacity:0.2;fill:none;stroke:#F4A04D;stroke-width:2;stroke-miterlimit:10;}
	.st8{fill:none;stroke:#F4A04D;stroke-width:8;stroke-linecap:round;stroke-miterlimit:10;}
	.st9{fill:none;stroke:#C8495B;stroke-width:6;stroke-linecap:round;stroke-miterlimit:10;}
	.st10{fill:none;stroke:#F4A04D;stroke-width:12;stroke-linecap:round;stroke-miterlimit:10;}
	.st11{fill:none;stroke:#FFFFFF;stroke-width:6;stroke-linecap:round;stroke-miterlimit:10;}
	.st12{fill:url(#SVGID_3_);}
	.st13{fill:none;stroke:#C8495B;stroke-width:4;stroke-linecap:round;stroke-linejoin:round;stroke-miterlimit:10;}
	.st14{fill:none;stroke:#C8495B;stroke-width:4;stroke-linecap:square;stroke-linejoin:round;stroke-miterlimit:10;}
	.st15{fill:none;stroke:#C8495B;stroke-width:2;stroke-linecap:round;stroke-linejoin:round;stroke-miterlimit:10;}
	.st16{fill:url(#SVGID_4_);}
	.st17{fill:none;stroke:#F4A04D;stroke-width:7;stroke-linecap:square;stroke-miterlimit:10;}
	.st18{fill:none;stroke:#301C47;stroke-width:7;stroke-linecap:square;stroke-miterlimit:10;}
	.st19{fill:url(#SVGID_5_);}
	.st20{fill:none;stroke:#C8495B;stroke-width:6;stroke-linecap:round;stroke-linejoin:round;stroke-miterlimit:10;}
</style>
<metadata>
	<sfw  xmlns="&ns_sfw;">
		<slices></slices>
		<sliceSourceBounds  bottomLeftOrigin="true" height="464" width="577.6" x="16.1" y="12.2"></sliceSourceBounds>
	</sfw>
</metadata>
<g>
	
		<linearGradient id="SVGID_1_" gradientUnits="userSpaceOnUse" x1="3495.5715" y1="-1402.7323" x2="3753.0442" y2="-1402.7323" gradientTransform="matrix(-1 -1.1547 0 -1 3974.4431 2912.771)">
		<stop  offset="0" style="stop-color:#C8495B;stop-opacity:0.2"/>
		<stop  offset="1" style="stop-color:#C8495B;stop-opacity:0.5"/>
	</linearGradient>
	<path class="st0" d="M221.8,76.1c-0.3-2-0.4-4-0.4-6c0-26.2,21.2-35.1,47.4-19.9c9,5.2,17.5,12.6,24.7,21.3
		c8.1-24.6,34.9-30.5,66.7-12.2c38.2,21.9,69.2,70.8,69.2,109c0,1.9-0.1,3.6-0.3,5.3c4.9,0.1,10.6,1.8,16.5,5.2
		c16.3,9.4,29.8,28.6,33.2,45.8L221.8,76.1z"/>
	<g>
		<g>
			<g>
				<path class="st1" d="M199.8,407.4c0.9-2.3,2.8-4.2,4.3-4.2s2,1.9,1.2,4.2c-0.9,2.3-2.8,4.2-4.3,4.2S198.9,409.8,199.8,407.4z"/>
			</g>
			<path class="st2" d="M238.8,387.5l1.5,0.9c2.8,1.6,2.8,5.5,0,7.1L218,408.3c-5.8,3.3-12.9,3.4-18.7,0.1l0,0c-2.5-1.4-2.5-5,0-6.5
				l25-14.4C228.8,385,234.3,385,238.8,387.5z"/>
			<g>
				<path class="st1" d="M235.1,402c0.9-2.3,2.8-4.2,4.3-4.2s2,1.9,1.2,4.2c-0.9,2.3-2.8,4.2-4.3,4.2S234.2,404.3,235.1,402z"/>
				<path class="st2" d="M236.5,402c0.4-1.2,1.4-2.1,2.2-2.1c0.8,0,1,1,0.6,2.1c-0.4,1.2-1.4,2.1-2.2,2.1
					C236.3,404.1,236,403.2,236.5,402z"/>
			</g>
			<g>
				<path class="st1" d="M217,412c0.9-2.3,2.8-4.2,4.3-4.2c1.5,0,2,1.9,1.2,4.2c-0.9,2.3-2.8,4.2-4.3,4.2
					C216.6,416.2,216.1,414.3,217,412z"/>
				<path class="st2" d="M218.4,412c0.4-1.2,1.4-2.1,2.2-2.1s1,1,0.6,2.1c-0.4,1.2-1.4,2.1-2.2,2.1
					C218.2,414.1,217.9,413.1,218.4,412z"/>
			</g>
		</g>
		<g>
			<path class="st3" d="M211.9,360.7l5.1,1.8l2.6,0.9l0.6,0.2l0.5,0.2c0.1,0.1,0.3,0.1,0.4,0.2l0.4,0.2c1.1,0.5,2.1,1.4,2.9,2.4
				c0.4,0.5,0.7,1.1,1,1.7c0.3,0.6,0.5,1.2,0.6,1.9l0.1,0.5l0.1,0.5c0.1,0.3,0,0.7,0.1,1c0,0.3,0,0.7-0.1,1l-0.1,0.5
				c0,0.2,0,0.3-0.1,0.6l-1.2,5.3l-2.4,10.6c-0.2,0.9,0.3,1.7,1.2,1.9c0.8,0.2,1.6-0.3,1.9-1l4-10.2l2-5.1c0.1-0.2,0.2-0.5,0.3-0.7
				l0.3-0.8c0.1-0.5,0.3-1.1,0.4-1.6c0.1-0.6,0.2-1.1,0.2-1.7l0-0.9c0-0.3,0-0.6,0-0.9c-0.1-1.1-0.3-2.3-0.6-3.4
				c-0.3-1.1-0.8-2.2-1.3-3.2c-1.1-2.1-2.7-3.9-4.7-5.3l-0.7-0.5c-0.3-0.2-0.5-0.3-0.8-0.5l-0.8-0.4l-0.6-0.3l-2.4-1.3l-4.8-2.6
				c-2.4-1.3-5.3-0.4-6.5,2c-1.3,2.4-0.4,5.3,2,6.5C211.5,360.5,211.7,360.6,211.9,360.7z"/>
			<path class="st3" d="M198.8,367.8l5.1,1.8l2.6,0.9l0.6,0.2l0.5,0.2c0.1,0.1,0.3,0.1,0.4,0.2l0.4,0.2c1.1,0.5,2.1,1.4,2.9,2.4
				c0.4,0.5,0.7,1.1,1,1.7c0.3,0.6,0.5,1.2,0.6,1.9l0.1,0.5l0.1,0.5c0.1,0.3,0,0.7,0.1,1c0,0.3,0,0.7-0.1,1l-0.1,0.5
				c0,0.2,0,0.3-0.1,0.6l-1.2,5.3l-2.4,10.6c-0.2,0.9,0.3,1.7,1.2,1.9c0.8,0.2,1.6-0.3,1.9-1l4-10.2l2-5.1c0.1-0.2,0.2-0.5,0.3-0.7
				l0.3-0.8c0.1-0.5,0.3-1.1,0.4-1.6c0.1-0.6,0.2-1.1,0.2-1.7l0-0.9c0-0.3,0-0.6,0-0.9c-0.1-1.1-0.3-2.3-0.6-3.4
				c-0.3-1.1-0.8-2.2-1.3-3.2c-1.1-2.1-2.7-3.9-4.7-5.3l-0.7-0.5c-0.3-0.2-0.5-0.3-0.8-0.5l-0.8-0.4l-0.6-0.3l-2.4-1.3l-4.8-2.6
				c-2.4-1.3-5.3-0.4-6.5,2c-1.3,2.4-0.4,5.3,2,6.5C198.3,367.6,198.6,367.7,198.8,367.8z"/>
			<g>
				<path class="st4" d="M230.1,396.2c-0.2,0-0.4,0-0.6-0.1l-6.6-2.6c-0.9-0.3-1.3-1.3-0.9-2.2c0.3-0.9,1.3-1.3,2.2-0.9l6.6,2.6
					c0.9,0.3,1.3,1.3,0.9,2.2C231.4,395.8,230.8,396.2,230.1,396.2z"/>
			</g>
			<g>
				<path class="st4" d="M216.9,403.4c-0.2,0-0.4,0-0.6-0.1l-6.6-2.6c-0.9-0.3-1.3-1.3-0.9-2.2c0.3-0.9,1.3-1.3,2.2-0.9l6.6,2.6
					c0.9,0.3,1.3,1.3,0.9,2.2C218.2,403,217.6,403.4,216.9,403.4z"/>
			</g>
			<path class="st2" d="M214.9,345.8l-20.3,11.7v-35.4c0-4.4,2.4-8.5,6.2-10.7l8.1-4.7c2.7-1.5,6,0.4,6,3.4V345.8z"/>
			<path class="st3" d="M197.4,322.6c-3.1,0.9-6.2,1.6-9.4,1.9c-3.2,0.3-6.3,0.4-9.5,0.1c-3.1-0.3-6.2-0.8-9.2-1.7
				c-1.5-0.4-3-1-4.4-1.5l-4.2-1.6c-0.6-0.2-1-1-0.7-1.6c0.2-0.6,0.8-0.9,1.4-0.8l4.4,1c1.5,0.3,2.8,0.6,4.3,0.8
				c2.8,0.4,5.7,0.5,8.5,0.4c2.8-0.1,5.6-0.5,8.3-1.2c2.7-0.7,5.3-1.6,7.8-2.8c1.8-0.9,4-0.1,4.9,1.8c0.9,1.8,0.1,4-1.8,4.9
				C197.7,322.5,197.6,322.6,197.4,322.6L197.4,322.6z"/>
			<path class="st3" d="M212.7,305.5c2.8-1.2,5.8-2.2,8.7-2.6c3-0.5,6-0.6,9-0.3c3,0.3,5.9,0.9,8.6,1.9l7.8,3c0.6,0.2,1,1,0.7,1.6
				c-0.2,0.6-0.8,0.9-1.4,0.8l0,0L238,308c-2.6-0.5-5.2-0.7-7.7-0.6c-2.6,0.1-5.1,0.6-7.4,1.4c-2.4,0.8-4.6,1.9-6.7,3.2
				c-1.7,1.1-4,0.6-5.1-1.2c-1.1-1.7-0.6-4,1.2-5.1C212.4,305.7,212.5,305.6,212.7,305.5z"/>
			
				<ellipse transform="matrix(0.9694 -0.2455 0.2455 0.9694 -63.1819 60.0705)" class="st4" cx="209.3" cy="283.4" rx="4.5" ry="4.5"/>
			
				<ellipse transform="matrix(0.9694 -0.2455 0.2455 0.9694 -64.0074 59.6791)" class="st2" cx="207.4" cy="286.6" rx="4.5" ry="4.5"/>
			
				<ellipse transform="matrix(0.9694 -0.2455 0.2455 0.9694 -65.5804 58.9572)" class="st4" cx="203.7" cy="292.5" rx="9.7" ry="9.7"/>
			<ellipse transform="matrix(0.9694 -0.2455 0.2455 0.9694 -66.732 58.6871)" class="st3" cx="202" cy="297" rx="7.4" ry="7.4"/>
			<g>
				<path class="st5" d="M210.1,334.9l-1.9,1.1l-6.9-5.6l1.9-1.1L210.1,334.9z"/>
				<polygon class="st4" points="209.3,323.2 212.3,321.5 207.7,330.6 206.2,329.4 				"/>
				<polygon class="st3" points="203.6,334.5 205.1,335.7 201.9,342.2 201.9,342.2 198.9,344 				"/>
			</g>
			<polygon class="st2" points="200.3,312 204.3,316.4 208.7,307.1 			"/>
			<linearGradient id="SVGID_2_" gradientUnits="userSpaceOnUse" x1="194.65" y1="364.447" x2="232.5765" y2="364.447">
				<stop  offset="0" style="stop-color:#DE7554"/>
				<stop  offset="1" style="stop-color:#F4A04D"/>
			</linearGradient>
			<path class="st6" d="M232.5,369.4c-0.1-1.1-0.3-2.3-0.6-3.4c-0.3-1.1-0.8-2.2-1.3-3.2c-1.1-2.1-2.7-3.9-4.7-5.3l-0.7-0.5
				c-0.3-0.2-0.5-0.3-0.8-0.5l-0.8-0.4l-0.6-0.3l-2.4-1.3l-4.8-2.6c-0.3-0.2-0.6-0.3-0.9-0.4v-5.7l-20.3,11.7v6.3
				c0,1.5,0.9,2.6,2.1,3.1l0,0l1.9,0.8l0,0c0,0,0.1,0,0.1,0.1l5.1,1.8l2.6,0.9l0.6,0.2l0.5,0.2c0.1,0.1,0.3,0.1,0.4,0.2l0.4,0.2
				c1.1,0.5,2.1,1.4,2.9,2.4c0.4,0.5,0.7,1.1,1,1.7c0.3,0.6,0.5,1.2,0.6,1.9l0.1,0.5l0.1,0.5c0.1,0.3,0,0.7,0.1,1c0,0.3,0,0.7-0.1,1
				l-0.1,0.5c0,0.2,0,0.3-0.1,0.6l5.4,1.7c0.1-0.2,0.2-0.5,0.3-0.7l0.3-0.8c0.1-0.5,0.3-1.1,0.4-1.6c0.1-0.6,0.2-1.1,0.2-1.7l0-0.9
				c0-0.3,0-0.6,0-0.9c-0.1-1.1-0.3-2.3-0.6-3.4c-0.3-1.1-0.8-2.2-1.3-3.2c-1.1-2.1-2.7-3.9-4.7-5.3l-0.7-0.5
				c-0.3-0.2-0.5-0.3-0.8-0.5l-0.8-0.4l-0.6-0.3l-1.8-1l2.9-1.7c0.1,0.1,0.2,0.2,0.3,0.2c0.2,0.1,0.4,0.2,0.6,0.3l5.1,1.8l2.6,0.9
				l0.6,0.2l0.5,0.2c0.1,0.1,0.3,0.1,0.4,0.2l0.4,0.2c1.1,0.5,2.1,1.4,2.9,2.4c0.4,0.5,0.7,1.1,1,1.7c0.3,0.6,0.5,1.2,0.6,1.9
				l0.1,0.5l0.1,0.5c0.1,0.3,0,0.7,0.1,1c0,0.3,0,0.7-0.1,1l-0.1,0.5c0,0.2,0,0.3-0.1,0.6l5.4,1.7c0.1-0.2,0.2-0.5,0.3-0.7l0.3-0.8
				c0.1-0.5,0.3-1.1,0.4-1.6c0.1-0.6,0.2-1.1,0.2-1.7l0-0.9C232.6,370,232.6,369.7,232.5,369.4z"/>
		</g>
	</g>
	<g>
		<polygon class="st2" points="471,358.1 461.1,371.5 454.9,369.6 458.3,353.2 		"/>
		<polygon class="st2" points="260.9,149.3 284.2,149.3 287.3,154.9 273.3,164.2 		"/>
		<path class="st2" d="M287.6,150.2l175.8,101.5c6.1,3.5,9.9,10,9.9,17v83.4c0,6.8-7.4,11-13.2,7.7L276.5,254v-97.3
			C276.5,151,282.7,147.4,287.6,150.2z"/>
		<path class="st1" d="M264.4,150.1l187.9,108.5c6.6,3.8,10.7,10.8,10.7,18.5v88.7c0,7.4-8,12.1-14.4,8.3L261.1,265.8
			c-5.1-2.9-8.3-8.4-8.3-14.4v-94.6C252.7,150.9,259.2,147.2,264.4,150.1z"/>
		<path class="st7" d="M423.1,257.4l-148.3-85.6c-3.4-2-7.7,0.5-7.7,4.4V251c0,6,3.3,11.7,8.4,14.6l148.3,85.6
			c3.4,2,7.7-0.5,7.7-4.4v-74.8C431.5,266.1,428.3,260.5,423.1,257.4z"/>
		<path class="st3" d="M387.6,262.2l-148.3-85.6c-3.4-2-7.7,0.5-7.7,4.4v74.8c0,6,3.3,11.7,8.4,14.6L388.4,356
			c3.4,2,7.7-0.5,7.7-4.4v-74.8C396.1,270.8,392.9,265.2,387.6,262.2z"/>
		<path class="st2" d="M245.9,231.1L245.9,231.1c0-12.2,9.9-16.4,22.2-9.4l77.5,44.8c12.2,7.1,22.2,22.7,22.2,35v0
			c0,12.2-9.9,16.4-22.2,9.4L268,266C255.8,259,245.9,243.3,245.9,231.1z"/>
		<path class="st2" d="M414.6,306.3l-29-16.8c-0.7-0.4-1.5,0.1-1.5,0.9V305c0,1.2,0.6,2.3,1.6,2.9l29,16.8c0.7,0.4,1.5-0.1,1.5-0.9
			v-14.6C416.2,308,415.6,306.9,414.6,306.3z"/>
		<path class="st2" d="M414.6,335.6l-29-16.8c-0.7-0.4-1.5,0.1-1.5,0.9v14.6c0,1.2,0.6,2.3,1.6,2.9l29,16.8c0.7,0.4,1.5-0.1,1.5-0.9
			v-14.6C416.2,337.3,415.6,336.2,414.6,335.6z"/>
		<path class="st2" d="M414.6,364.9l-29-16.8c-0.7-0.4-1.5,0.1-1.5,0.9v14.6c0,1.2,0.6,2.3,1.6,2.9l29,16.8c0.7,0.4,1.5-0.1,1.5-0.9
			v-14.6C416.2,366.6,415.6,365.5,414.6,364.9z"/>
		<path class="st2" d="M450.8,318c1.8,3,0.7,5.5-2.3,5.5c-3,0-6.8-2.4-8.6-5.5s-0.7-5.5,2.3-5.5C445.2,312.5,449,314.9,450.8,318z"
			/>
		<g>
			<path class="st4" d="M265.4,253.9l-2.9-1.7v-18.9l4.6,2.6c1.7,1,2.8,2,3.7,3.3c1.1,1.6,1.7,3.4,1.7,5.3c0,2.4-0.9,3.5-2.6,3.4
				l2.8,10.2l-3.1-1.8l-2.5-9.2l-1.8-1V253.9z M266.5,244c1.2,0.7,1.8,0.9,2.3,0.7c0.5-0.2,0.7-0.8,0.7-1.9c0-1-0.2-1.9-0.7-2.7
				c-0.5-0.7-1-1.2-2.3-1.9l-1.1-0.6v5.8L266.5,244z"/>
			<path class="st4" d="M283.6,248.2l-5.6-3.3v5l4.2,2.4v2.7l-4.2-2.4v5.8l5.6,3.3v2.7l-8.6-4.9v-18.9l8.6,4.9V248.2z"/>
			<path class="st4" d="M295.8,262v9.4l-1.5-0.9l-0.5-1.9c-1,0.8-2,0.7-3.5-0.1c-1.7-1-3.2-2.7-3.9-4.5c-0.6-1.6-0.8-2.9-0.8-5.5
				v-5.2c0-3,0.2-4,1.1-4.6c0.8-0.7,2.3-0.4,4,0.5c2.1,1.2,3.6,3,4.5,5.1c0.5,1.2,0.7,2.5,0.7,4.3l-2.9-1.7c0-2.6-0.7-4.1-2.2-5
				c-0.8-0.4-1.4-0.5-1.7,0c-0.3,0.4-0.4,0.9-0.4,2.5v5.8c0,1.6,0.1,2.4,0.3,3.3c0.3,1.1,1,2,2,2.6c1.5,0.9,2.2,0.2,2.2-2.5v-0.8
				l-2.4-1.4v-2.4L295.8,262z"/>
			<path class="st4" d="M301.3,274.5l-2.9-1.7V254l2.9,1.7V274.5z"/>
			<path class="st4" d="M311.3,266.7c-0.5-2.1-1.3-3.6-2.5-4.2c-1.1-0.6-1.9-0.3-1.9,0.8c0,0.7,0.3,1.5,0.8,2.4
				c0.5,0.8,0.5,0.8,2.5,3.5c1.6,2.2,2.2,3,2.8,4.2c0.8,1.4,1.2,2.9,1.2,4.2c0,2.9-2.1,3.6-5.2,1.8c-3.2-1.9-5.1-4.7-5.7-8.6
				l2.8,0.8c0.4,2.5,1.4,4.2,2.9,5.1c1.3,0.7,2.2,0.4,2.2-0.9c0-1.2-0.6-2.3-2.8-5.3c-2.6-3.6-2.7-3.8-3.5-5.1c-0.7-1.3-1-2.6-1-3.8
				c0-2.7,2-3.5,4.9-1.8c2.7,1.6,4.5,4.2,5.3,7.8L311.3,266.7z"/>
			<path class="st4" d="M322.1,286.6l-2.9-1.7v-16.2l-3.7-2.1v-2.7l10.3,5.9v2.7l-3.7-2.1V286.6z"/>
			<path class="st4" d="M336.3,278.6l-5.6-3.3v5l4.2,2.4v2.7l-4.2-2.4v5.8l5.6,3.3v2.7l-8.6-4.9V271l8.6,4.9V278.6z"/>
			<path class="st4" d="M341.3,297.7l-2.9-1.7v-18.9l4.6,2.6c1.7,1,2.8,2,3.7,3.3c1.1,1.6,1.7,3.4,1.7,5.3c0,2.4-0.9,3.5-2.6,3.4
				l2.8,10.2l-3.1-1.8l-2.5-9.2l-1.8-1V297.7z M342.4,287.8c1.2,0.7,1.8,0.9,2.3,0.7c0.5-0.2,0.7-0.8,0.7-1.9c0-1-0.2-1.9-0.7-2.7
				c-0.5-0.7-1-1.2-2.3-1.9l-1.1-0.6v5.8L342.4,287.8z"/>
		</g>
	</g>
	<line class="st8" x1="487.8" y1="326.8" x2="469.4" y2="316.8"/>
	<polyline class="st9" points="227.4,450.3 325.3,393.6 418,447.1 556.5,366.5 487.8,326.8 	"/>
	<line class="st10" x1="203.8" y1="464" x2="227.4" y2="450.3"/>
	<line class="st11" x1="193.9" y1="469.8" x2="203.8" y2="464"/>
	<g>
		<polygon class="st1" points="116.9,128.4 78.8,150.4 116.9,172.4 155,150.4 		"/>
		<polygon class="st3" points="116.9,307.9 78.8,285.9 78.8,150.4 116.9,172.4 		"/>
		<polygon class="st2" points="116.9,307.9 155,285.9 155,150.4 116.9,172.4 		"/>
		<polygon class="st1" points="132.6,183.7 125.8,187.6 125.8,180.8 132.6,176.9 		"/>
		<polygon class="st1" points="132.6,204.1 125.8,208.1 125.8,201.3 132.6,197.3 		"/>
		<polygon class="st1" points="132.6,258.7 125.8,262.6 125.8,255.8 132.6,251.9 		"/>
		<polygon class="st1" points="146.2,251.9 139.4,255.8 139.4,249 146.2,245.1 		"/>
		<polygon class="st1" points="146.2,226.3 139.4,230.2 139.4,223.4 146.2,219.5 		"/>
		<polygon class="st2" points="101.3,227.4 108.1,231.4 108.1,224.5 101.3,220.6 		"/>
		<polygon class="st2" points="87.6,249.5 94.5,253.5 94.5,246.7 87.6,242.7 		"/>
		<polygon class="st2" points="87.6,196.7 94.5,200.6 94.5,193.8 87.6,189.9 		"/>
	</g>
	<linearGradient id="SVGID_3_" gradientUnits="userSpaceOnUse" x1="141.7354" y1="330.2822" x2="391.0109" y2="203.27">
		<stop  offset="0.3333" style="stop-color:#C8495B;stop-opacity:0"/>
		<stop  offset="1" style="stop-color:#C8495B;stop-opacity:0.5"/>
	</linearGradient>
	<path class="st12" d="M298.8,430.8l122.8-76.7l0,0c2-0.6,3.6-2.5,3.6-4.9v-74.8c0-6-3.2-11.6-8.4-14.6l-148.3-85.6l-113.8-31
		l-18.9,175.4L298.8,430.8z"/>
	<g>
		<path class="st2" d="M16.9,255.3l13.9-30.5l13.9,46.6c3.5,11.6-3.6,17.8-13.9,11.8l0,0C20.7,277.3,13.5,262.9,16.9,255.3z"/>
		<g>
			<polygon class="st3" points="30.8,265.4 34,310.9 27.7,307.8 			"/>
		</g>
		<g>
			<polygon class="st3" points="31.3,288.9 48.2,294.5 30.5,291.9 			"/>
		</g>
	</g>
	<g>
		<line class="st13" x1="558.8" y1="127.7" x2="540.1" y2="127.7"/>
		<g>
			<path class="st2" d="M551.3,130.9l-1.9,1.1l-1.9-1.1H551.3 M558.8,128.9L558.8,128.9L558.8,128.9z M558.8,128.9h-18.7l9.3,5.4
				L558.8,128.9L558.8,128.9z"/>
		</g>
		<g>
			<path class="st2" d="M561.2,249.3l-11.7,6.8l-11.7-6.8H561.2 M576.1,245.3L576.1,245.3L576.1,245.3z M576.1,245.3h-53.3
				l26.7,15.4L576.1,245.3L576.1,245.3z"/>
		</g>
		<line class="st14" x1="584.4" y1="84.2" x2="514.5" y2="84.2"/>
		<g>
			<line class="st15" x1="568.5" y1="12.9" x2="588.5" y2="75.5"/>
		</g>
		<g>
			<line class="st15" x1="529.4" y1="12.9" x2="509.4" y2="75.5"/>
		</g>
		<g>
			<linearGradient id="SVGID_4_" gradientUnits="userSpaceOnUse" x1="570.6518" y1="265.0508" x2="585.0886" y2="265.0508">
				<stop  offset="0" style="stop-color:#301C47"/>
				<stop  offset="0.3721" style="stop-color:#321D48"/>
				<stop  offset="0.5859" style="stop-color:#3B204A"/>
				<stop  offset="0.7595" style="stop-color:#49254E"/>
				<stop  offset="0.9108" style="stop-color:#5C2C53"/>
				<stop  offset="1" style="stop-color:#6C3157"/>
			</linearGradient>
			<path class="st16" d="M580.9,291.4c-2,0-3.8-1.5-4.1-3.6l-6.2-44.5c-0.3-2.3,1.3-4.3,3.5-4.7c2.2-0.3,4.3,1.3,4.7,3.5l6.2,44.5
				c0.3,2.3-1.3,4.3-3.5,4.7C581.3,291.4,581.1,291.4,580.9,291.4z"/>
		</g>
		<line class="st17" x1="567.1" y1="187.6" x2="574.8" y2="242.8"/>
		<line class="st18" x1="558.9" y1="128.2" x2="567.1" y2="187.6"/>
		<g>
			<polygon class="st3" points="569.7,9.9 571,76.7 571,76.9 570.9,77.2 562.3,128.8 561.8,132.3 554.7,131 555.4,127.6 566.1,76.3 
				566,76.7 567.3,9.9 567.3,8.7 569.6,8.7 			"/>
		</g>
		<g>
			<linearGradient id="SVGID_5_" gradientUnits="userSpaceOnUse" x1="512.8972" y1="265.008" x2="527.3455" y2="265.008">
				<stop  offset="0" style="stop-color:#6C3157"/>
				<stop  offset="8.922803e-02" style="stop-color:#5C2C53"/>
				<stop  offset="0.2405" style="stop-color:#49254E"/>
				<stop  offset="0.4141" style="stop-color:#3B204A"/>
				<stop  offset="0.6279" style="stop-color:#321D48"/>
				<stop  offset="1" style="stop-color:#301C47"/>
			</linearGradient>
			<path class="st19" d="M517,291.4c-0.2,0-0.4,0-0.6,0c-2.3-0.3-3.8-2.4-3.5-4.7l6.2-44.6c0.3-2.3,2.4-3.8,4.7-3.5
				c2.3,0.3,3.8,2.4,3.5,4.7l-6.2,44.6C520.8,289.9,519.1,291.4,517,291.4z"/>
		</g>
		<line class="st17" x1="530.9" y1="187.6" x2="523.2" y2="242.7"/>
		<line class="st18" x1="539.1" y1="128.2" x2="530.9" y2="187.6"/>
		<g>
			<polygon class="st3" points="530.7,9.9 532,76.7 531.9,76.3 542.5,127.6 543.2,131 536.2,132.3 535.7,128.8 527.1,77.2 527,76.9 
				527,76.7 528.3,9.9 528.3,8.7 530.6,8.7 			"/>
		</g>
		<g>
			<path class="st2" d="M550.8,35.7l3,270.4c0,2.5-2,4.5-4.5,4.5s-4.5-2-4.5-4.5c0,0,0-0.1,0-0.1l3-270.4c0-0.8,0.7-1.5,1.5-1.5
				C550.1,34.3,550.8,34.9,550.8,35.7z"/>
		</g>
		<path class="st20" d="M549.5,97.4"/>
		<line class="st14" x1="591.7" y1="76.3" x2="507.3" y2="76.3"/>
		<g>
			<polygon class="st1" points="541.8,99.7 582.9,74.7 585.4,73.1 588.5,78.4 585.9,79.9 543.7,102.9 542.1,103.7 540.3,100.6 			
				"/>
		</g>
		<g>
			<path class="st2" d="M556.3,191.9l-7.8,4.5l-7.8-4.5H556.3 M567.5,188.9L567.5,188.9L567.5,188.9z M567.5,188.9h-38l19,11
				L567.5,188.9L567.5,188.9z"/>
		</g>
		<g>
			<polygon class="st1" points="515.9,74.6 557.6,99.9 559.1,100.9 557.3,104 555.7,103.1 512.9,79.8 510.3,78.3 513.4,73 			"/>
		</g>
	</g>
</g>
</svg>
