<?xml version="1.0" encoding="utf-8"?>
<!-- Generator: Adobe Illustrator 21.0.2, SVG Export Plug-In . SVG Version: 6.00 Build 0)  -->
<!DOCTYPE svg PUBLIC "-//W3C//DTD SVG 1.1//EN" "http://www.w3.org/Graphics/SVG/1.1/DTD/svg11.dtd" [
	<!ENTITY ns_extend "http://ns.adobe.com/Extensibility/1.0/">
	<!ENTITY ns_ai "http://ns.adobe.com/AdobeIllustrator/10.0/">
	<!ENTITY ns_graphs "http://ns.adobe.com/Graphs/1.0/">
	<!ENTITY ns_vars "http://ns.adobe.com/Variables/1.0/">
	<!ENTITY ns_imrep "http://ns.adobe.com/ImageReplacement/1.0/">
	<!ENTITY ns_sfw "http://ns.adobe.com/SaveForWeb/1.0/">
	<!ENTITY ns_custom "http://ns.adobe.com/GenericCustomNamespace/1.0/">
	<!ENTITY ns_adobe_xpath "http://ns.adobe.com/XPath/1.0/">
]>
<svg version="1.1" id="art" xmlns:x="&ns_extend;" xmlns:i="&ns_ai;" xmlns:graph="&ns_graphs;"
	 xmlns="http://www.w3.org/2000/svg" xmlns:xlink="http://www.w3.org/1999/xlink" x="0px" y="0px" width="190px" height="243px"
	 viewBox="0 0 190 243" style="enable-background:new 0 0 190 243;" xml:space="preserve">
<style type="text/css">
	.st0{fill:#C8495B;}
	.st1{fill:#301C47;}
	.st2{fill:url(#SVGID_1_);}
	.st3{fill:#F4A04D;}
	.st4{fill:none;stroke:#F4A04D;stroke-width:2;stroke-linecap:round;stroke-miterlimit:10;}
	.st5{fill:none;stroke:#301D46;stroke-width:3;stroke-miterlimit:10;}
	.st6{fill:#301D46;}
</style>
<metadata>
	<sfw  xmlns="&ns_sfw;">
		<slices></slices>
		<sliceSourceBounds  bottomLeftOrigin="true" height="179.5" width="185.1" x="-6.1" y="31.1"></sliceSourceBounds>
		<optimizationSettings>
			<targetSettings  fileFormat="PNG24Format" targetSettingsID="0">
				<PNG24Format  filtered="false" interlaced="false" matteColor="#000000" noMatteColor="true" transparency="true">
					</PNG24Format>
			</targetSettings>
		</optimizationSettings>
	</sfw>
</metadata>
<g>
	<path class="st0" d="M152.3,85L168,32.4l15.7,34.4c3.9,8.6-4.1,24.8-15.7,31.5l0,0C156.5,105,148.4,98.2,152.3,85z"/>
	<g>
		<polygon class="st1" points="168,78.4 171,126.2 165,126.2 		"/>
	</g>
	<g>
		<polygon class="st1" points="167,105.4 187.5,88.6 169.1,107.6 		"/>
	</g>
</g>
<linearGradient id="SVGID_1_" gradientUnits="userSpaceOnUse" x1="24.0024" y1="55.8241" x2="94.2199" y2="96.3642">
	<stop  offset="0" style="stop-color:#C8495B;stop-opacity:0.2"/>
	<stop  offset="1" style="stop-color:#C8495B;stop-opacity:0.5"/>
</linearGradient>
<path class="st2" d="M122,48.2c0-0.3,0-0.5,0-0.8c0-11.5-9.4-15.5-20.9-8.8C95,42.1,89.4,48,85.6,54.5c-3-18.4-20.4-23.8-41.3-11.7
	C21.2,56.1,2.5,85.6,2.5,108.7c0,2.9,0.3,5.6,0.9,8L122,48.2z"/>
<g>
	<path class="st1" d="M96.9,128.1H86.2V113c0-3,2.4-5.4,5.4-5.4l0,0c3,0,5.4,2.4,5.4,5.4V128.1z"/>
	<circle class="st1" cx="90.5" cy="101" r="5.7"/>
	<circle class="st3" cx="91.9" cy="102.4" r="4.3"/>
	<path class="st0" d="M91.6,151.4L91.6,151.4c-3,0-5.4-2.4-5.4-5.4v-18.1h10.7V146C96.9,149,94.6,151.4,91.6,151.4z"/>
</g>
<g>
	<path class="st3" d="M120.9,188.5h-10.6v-15c0-2.9,2.4-5.3,5.3-5.3l0,0c2.9,0,5.3,2.4,5.3,5.3V188.5z"/>
	<circle class="st0" cx="117.9" cy="160.2" r="7"/>
	<circle class="st1" cx="115.9" cy="163" r="4.3"/>
	<path class="st0" d="M115.6,211.9L115.6,211.9c-2.9,0-5.3-2.4-5.3-5.3v-18h10.6v18C120.9,209.5,118.6,211.9,115.6,211.9z"/>
</g>
<g>
	<path class="st0" d="M151.7,168.2h-10.6v-15c0-2.9,2.4-5.3,5.3-5.3l0,0c2.9,0,5.3,2.4,5.3,5.3V168.2z"/>
	<path class="st0" d="M146.2,133.8c3.6,0,6.5,2.9,6.5,6.5s-2.9,6.5-6.5,6.5s-6.5-2.9-6.5-6.5v-6.7L146.2,133.8z"/>
	<circle class="st3" cx="146.7" cy="142.7" r="4.3"/>
	<path class="st1" d="M146.4,191.7L146.4,191.7c-2.9,0-5.3-2.4-5.3-5.3v-18h10.6v18C151.7,189.3,149.3,191.7,146.4,191.7z"/>
</g>
<g>
	<g>
		<g>
			<path class="st0" d="M49.8,164.6l-0.7-12.3l0.6,1.1l-3.9-2c-0.7-0.4-1-1.3-0.7-2s1.3-1,2-0.7c0.1,0,0.1,0.1,0.2,0.1l3.7,2.4
				l0.7,0.4l0,0.6l-0.7,12.3c0,0.3-0.3,0.5-0.5,0.5C50,165,49.8,164.8,49.8,164.6z"/>
		</g>
		<g>
			<path class="st0" d="M69.2,186.3l0.4-14.3c0-0.3,0.3-0.6,0.6-0.6c0.3,0,0.6,0.3,0.6,0.6l0.4,14.3c0,0.6-0.4,1-1,1
				C69.7,187.3,69.3,186.9,69.2,186.3C69.2,186.3,69.2,186.3,69.2,186.3z"/>
		</g>
		<g>
			<polygon class="st0" points="50.4,158.3 32.4,168.7 53.2,180.7 71.2,170.3 			"/>
			<polygon class="st3" points="53.2,186.9 32.4,174.9 32.4,168.7 53.2,180.7 			"/>
			<polygon class="st0" points="53.2,186.9 71.2,176.5 71.2,170.3 53.2,180.7 			"/>
		</g>
		<g>
			<path class="st0" d="M31.7,171.7l-1.1-18.7l0.9,1.5l-3.9-2c-1-0.5-1.4-1.7-0.9-2.7c0.5-1,1.7-1.4,2.7-0.9c0.1,0,0.1,0.1,0.2,0.1
				l3.7,2.4l0.9,0.6l-0.1,0.9l-1.1,18.7c0,0.4-0.3,0.7-0.7,0.6C32,172.4,31.7,172.1,31.7,171.7z"/>
		</g>
		<g>
			<path class="st0" d="M51.7,195.6l0.6-16c0-0.5,0.4-0.9,1-0.9c0.5,0,0.9,0.4,0.9,0.9l0.6,16c0,0.8-0.6,1.5-1.4,1.6
				s-1.5-0.6-1.6-1.4C51.7,195.6,51.7,195.6,51.7,195.6z"/>
		</g>
		<line class="st4" x1="32.3" y1="176.8" x2="32.4" y2="187.3"/>
		<line class="st4" x1="36.1" y1="180.3" x2="28.2" y2="184"/>
		<line class="st4" x1="39.8" y1="186.4" x2="25.7" y2="178.4"/>
		<line class="st4" x1="37.6" y1="190.4" x2="27.1" y2="173.9"/>
		<path class="st5" d="M42.5,188c0,5.6-4.5,7.5-10.1,4.3s-10.1-10.4-10.1-16c0-5.6,4.5-7.5,10.1-4.3C37.9,175.2,42.5,182.4,42.5,188
			z"/>
		<polygon class="st6" points="32.3,164.3 50.3,154 50.3,144.9 32.3,155.3 		"/>
		<path class="st5" d="M56.5,202.2c0,2.2-1.8,2.9-3.9,1.7c-2.2-1.3-3.9-4-3.9-6.2s1.8-2.9,3.9-1.7C54.8,197.2,56.5,200,56.5,202.2z"
			/>
		<path class="st5" d="M74.2,192.7c0,2.2-1.8,2.9-3.9,1.7s-3.9-4-3.9-6.2c0-2.2,1.8-2.9,3.9-1.7S74.2,190.6,74.2,192.7z"/>
	</g>
	<g>
		<path class="st3" d="M53.1,164H42.4v-15c0-2.9,2.4-5.3,5.3-5.3l0,0c2.9,0,5.3,2.4,5.3,5.3V164z"/>
		<circle class="st0" cx="48" cy="137.5" r="4.5"/>
	</g>
	<g>
		<path class="st6" d="M56,183.3l-0.6-14.4l2.4,3.7l-11.3-3.3c-2.9-0.9-4.6-4-3.7-6.9c0.9-2.9,4-4.6,6.9-3.7
			c0.5,0.1,0.9,0.3,1.3,0.6l10.1,6.1l0.6,0.4c1.2,0.7,1.8,2,1.8,3.3l-0.7,14.4c-0.1,1.9-1.7,3.3-3.5,3.2
			C57.5,186.5,56.1,185,56,183.3z"/>
	</g>
</g>
<g>
	<path class="st1" d="M85.7,100.6c0,1,0,0.3,0,0.5l0,0l0,0l0,0l0,0l0,0l-0.1,0l-0.2,0l-0.3,0l-0.6,0.2l-0.6,0.2l-0.5,0.3
		c-0.7,0.4-1.3,0.9-1.8,1.5c-0.5,0.6-0.8,1.3-1,2c-0.2,0.7-0.2,1.4-0.1,2.2c0.1,0.8-0.5,1.6-1.3,1.7s-1.6-0.5-1.7-1.3
		c0-0.1,0-0.2,0-0.3l0-0.1c0.1-1,0.3-2.2,0.8-3.1c0.5-1,1.1-1.8,1.9-2.5c0.8-0.7,1.7-1.2,2.6-1.5l0.7-0.2l0.7-0.1l0.7,0l0.4,0l0.2,0
		l0.1,0l0,0l0,0l0,0l0,0l0,0C85.7,100.3,85.7,99.6,85.7,100.6z"/>
</g>
</svg>
