<?xml version="1.0" encoding="utf-8"?>
<!-- Generator: Adobe Illustrator 21.1.0, SVG Export Plug-In . SVG Version: 6.00 Build 0)  -->
<!DOCTYPE svg PUBLIC "-//W3C//DTD SVG 1.1//EN" "http://www.w3.org/Graphics/SVG/1.1/DTD/svg11.dtd" [
	<!ENTITY ns_extend "http://ns.adobe.com/Extensibility/1.0/">
	<!ENTITY ns_ai "http://ns.adobe.com/AdobeIllustrator/10.0/">
	<!ENTITY ns_graphs "http://ns.adobe.com/Graphs/1.0/">
	<!ENTITY ns_vars "http://ns.adobe.com/Variables/1.0/">
	<!ENTITY ns_imrep "http://ns.adobe.com/ImageReplacement/1.0/">
	<!ENTITY ns_sfw "http://ns.adobe.com/SaveForWeb/1.0/">
	<!ENTITY ns_custom "http://ns.adobe.com/GenericCustomNamespace/1.0/">
	<!ENTITY ns_adobe_xpath "http://ns.adobe.com/XPath/1.0/">
]>
<svg version="1.1" id="art" xmlns:x="&ns_extend;" xmlns:i="&ns_ai;" xmlns:graph="&ns_graphs;"
	 xmlns="http://www.w3.org/2000/svg" xmlns:xlink="http://www.w3.org/1999/xlink" x="0px" y="0px" width="1239.2px"
	 height="989.2px" viewBox="0 0 1239.2 989.2" style="enable-background:new 0 0 1239.2 989.2;" xml:space="preserve">
<style type="text/css">
	.st0{fill:url(#SVGID_1_);}
	.st1{fill:url(#SVGID_2_);}
	.st2{fill:url(#SVGID_3_);}
	.st3{fill:url(#SVGID_4_);}
	.st4{fill:url(#SVGID_5_);}
	.st5{fill:#F4A04D;}
	.st6{fill:#C8495B;}
	.st7{fill:url(#SVGID_6_);}
	.st8{fill:#301C47;}
	.st9{fill:url(#SVGID_7_);}
	.st10{fill:none;stroke:#F4A04D;stroke-width:3;stroke-linecap:round;stroke-miterlimit:10;}
	.st11{enable-background:new    ;}
	.st12{fill:#FFFFFF;}
	.st13{fill:url(#SVGID_8_);}
	.st14{fill:none;stroke:#C8495B;stroke-width:4;stroke-linecap:round;stroke-miterlimit:10;}
	.st15{fill:none;stroke:#C8495B;stroke-width:3;stroke-linecap:round;stroke-miterlimit:10;}
	.st16{fill:none;stroke:#301C47;stroke-width:3;stroke-linecap:round;stroke-miterlimit:10;}
	.st17{clip-path:url(#SVGID_10_);}
	.st18{fill:url(#SVGID_11_);}
	.st19{fill:url(#SVGID_12_);}
	.st20{fill:#2F1C46;}
	.st21{fill:none;stroke:#301C47;stroke-width:13;stroke-linecap:round;stroke-miterlimit:10;}
	.st22{fill:none;stroke:#C8495B;stroke-width:6;stroke-linecap:round;stroke-miterlimit:10;}
	.st23{fill:url(#SVGID_13_);}
	.st24{fill:url(#SVGID_14_);}
	.st25{fill:url(#SVGID_15_);}
	.st26{fill:none;stroke:#301C47;stroke-width:4;stroke-linecap:round;stroke-miterlimit:10;}
	.st27{fill:none;stroke:#C8495B;stroke-width:4;stroke-linecap:round;stroke-linejoin:round;stroke-miterlimit:10;}
	.st28{fill:none;stroke:#C8495B;stroke-width:6;stroke-linecap:square;stroke-linejoin:round;stroke-miterlimit:10;}
	.st29{fill:none;stroke:#C8495B;stroke-width:2;stroke-linecap:round;stroke-linejoin:round;stroke-miterlimit:10;}
	.st30{fill:none;stroke:#301C47;stroke-width:7;stroke-linecap:round;stroke-miterlimit:10;}
	.st31{fill:none;stroke:#F4A04D;stroke-width:7;stroke-linecap:square;stroke-miterlimit:10;}
	.st32{fill:none;stroke:#301C47;stroke-width:7;stroke-linecap:square;stroke-miterlimit:10;}
	.st33{fill:none;stroke:#C8495B;stroke-width:6;stroke-linecap:round;stroke-linejoin:round;stroke-miterlimit:10;}
	.st34{fill:url(#SVGID_16_);}
	.st35{fill:url(#SVGID_17_);}
	.st36{fill:url(#SVGID_18_);}
	.st37{fill:url(#SVGID_19_);}
	.st38{fill:none;stroke:#301C47;stroke-width:6;stroke-linecap:round;stroke-miterlimit:10;}
	.st39{fill:none;stroke:#F4A04D;stroke-width:6;stroke-linecap:round;stroke-miterlimit:10;}
	.st40{fill:none;stroke:#F4A04D;stroke-width:5;stroke-linecap:round;stroke-miterlimit:10;}
	.st41{opacity:0.2;fill:none;stroke:#C8495B;stroke-width:3;stroke-linecap:round;stroke-miterlimit:10;enable-background:new    ;}
	.st42{fill:url(#SVGID_20_);}
	.st43{fill:none;stroke:#C8495B;stroke-width:2;stroke-miterlimit:10;}
	.st44{fill:none;stroke:#C8495B;stroke-width:9;stroke-linecap:round;stroke-miterlimit:10;}
	.st45{fill:url(#SVGID_21_);}
	.st46{fill:url(#SVGID_22_);}
	.st47{fill:url(#SVGID_23_);}
	.st48{fill:url(#SVGID_24_);}
	.st49{fill:none;}
	.st50{fill:url(#SVGID_25_);}
	.st51{fill:url(#SVGID_26_);}
	.st52{fill:url(#SVGID_27_);}
	.st53{fill:url(#SVGID_28_);}
	.st54{fill:url(#SVGID_29_);}
	.st55{fill:url(#SVGID_30_);}
	.st56{fill:url(#SVGID_31_);}
	.st57{fill:url(#SVGID_32_);}
	.st58{fill:url(#SVGID_33_);}
	.st59{fill:url(#SVGID_34_);}
	.st60{fill:url(#SVGID_35_);}
	.st61{fill:url(#SVGID_36_);}
	.st62{fill:url(#SVGID_37_);}
	.st63{fill:url(#SVGID_38_);}
	.st64{fill:url(#SVGID_39_);}
	.st65{fill:url(#SVGID_40_);}
	.st66{fill:url(#SVGID_41_);}
	.st67{fill:url(#SVGID_42_);}
	.st68{fill:url(#SVGID_43_);}
	.st69{fill:url(#SVGID_44_);}
	.st70{fill:url(#SVGID_45_);}
	.st71{fill:url(#SVGID_46_);}
	.st72{fill:url(#SVGID_47_);}
	.st73{fill:url(#SVGID_48_);}
	.st74{fill:url(#SVGID_49_);}
	.st75{fill:url(#SVGID_50_);}
	.st76{fill:url(#SVGID_51_);}
	.st77{fill:url(#SVGID_52_);}
	.st78{fill:url(#SVGID_53_);}
	.st79{fill:url(#SVGID_54_);}
	.st80{fill:url(#SVGID_55_);}
	.st81{fill:url(#SVGID_56_);}
	.st82{fill:url(#SVGID_57_);}
</style>
<metadata>
	<sfw  xmlns="&ns_sfw;">
		<slices></slices>
		<sliceSourceBounds  bottomLeftOrigin="true" height="869.6" width="1211.8" x="28.8" y="25.7"></sliceSourceBounds>
	</sfw>
</metadata>
<g>
	<g>
		<g>
			
				<linearGradient id="SVGID_1_" gradientUnits="userSpaceOnUse" x1="716.3" y1="-1.998779e-02" x2="734.9" y2="-1.998779e-02" gradientTransform="matrix(1 0 0 1 0 572.47)">
				<stop  offset="0.2776" style="stop-color:#C8495B"/>
				<stop  offset="0.5469" style="stop-color:#C8495B"/>
			</linearGradient>
			<polygon class="st0" points="734.9,576.6 717.4,587 716.3,568.2 734.1,557.9 			"/>
			
				<linearGradient id="SVGID_2_" gradientUnits="userSpaceOnUse" x1="447.6567" y1="-352.62" x2="467.3075" y2="-352.62" gradientTransform="matrix(1 0 0 1 0 572.47)">
				<stop  offset="0.2776" style="stop-color:#C8495B"/>
				<stop  offset="0.5469" style="stop-color:#C8495B"/>
			</linearGradient>
			<polygon class="st1" points="467.2,224 449.5,234.3 447.7,208.7 467.3,205.4 			"/>
			
				<linearGradient id="SVGID_3_" gradientUnits="userSpaceOnUse" x1="456.8" y1="-180.5494" x2="740.3" y2="-180.5494" gradientTransform="matrix(1 0 0 1 0 572.47)">
				<stop  offset="0.2776" style="stop-color:#C8495B"/>
				<stop  offset="0.5469" style="stop-color:#C8495B"/>
			</linearGradient>
			<path class="st2" d="M720.6,577.4L472,432.9c-9.4-5.5-15.2-15.5-15.2-26.4v-187c0-11.4,12.3-18.5,22.2-12.8l245.5,142.6
				c9.8,5.7,15.8,16.2,15.8,27.5V566C740.2,576.1,729.3,582.4,720.6,577.4z"/>
			<g>
				
					<linearGradient id="SVGID_4_" gradientUnits="userSpaceOnUse" x1="543.0916" y1="-13.584" x2="583.7371" y2="-83.9841" gradientTransform="matrix(1 0 0 1 0 572.47)">
					<stop  offset="0.2776" style="stop-color:#301C47"/>
					<stop  offset="1" style="stop-color:#C8495B"/>
				</linearGradient>
				<path class="st3" d="M537.4,555.6l-36.3-21c-3.8-2.2-3.8-7.7,0-9.9l73.1-41.7l56.5,32.6l-70.1,40
					C553.4,559.7,544.5,559.7,537.4,555.6z"/>
			</g>
			
				<linearGradient id="SVGID_5_" gradientUnits="userSpaceOnUse" x1="441" y1="-173.8277" x2="724.4999" y2="-173.8277" gradientTransform="matrix(1 0 0 1 0 572.47)">
				<stop  offset="0" style="stop-color:#DE7554"/>
				<stop  offset="1" style="stop-color:#F4A04D"/>
			</linearGradient>
			<path class="st4" d="M704.8,586.7L456.2,442.3c-9.4-5.5-15.2-15.5-15.2-26.4V216.3c0-5.8,6.3-9.4,11.3-6.5l256.4,149
				c9.8,5.7,15.8,16.2,15.8,27.5v189.2C724.4,585.5,713.5,591.8,704.8,586.7z"/>
			<path class="st5" d="M724.4,559.3L441,394.6V216.2c0-5.8,6.2-9.4,11.2-6.5l256.4,149c9.8,5.7,15.8,16.2,15.8,27.5L724.4,559.3
				L724.4,559.3z"/>
			<path class="st6" d="M564.8,487.6c0,2.8,2.3,6.3,5,7.9c2.8,1.6,5,0.7,5-2.1s-2.3-6.3-5-7.9S564.8,484.8,564.8,487.6z"/>
		</g>
		<g>
			
				<linearGradient id="SVGID_6_" gradientUnits="userSpaceOnUse" x1="460" y1="-256.67" x2="705.4" y2="-256.67" gradientTransform="matrix(1 0 0 1 0 572.47)">
				<stop  offset="3.565705e-03" style="stop-color:#C8495B;stop-opacity:0.8"/>
				<stop  offset="1" style="stop-color:#C8495B;stop-opacity:0"/>
			</linearGradient>
			<polygon class="st7" points="460.3,238 705.4,379.1 705.4,393.6 460,252.2 			"/>
			<polygon class="st8" points="460,252.2 705.4,393.6 705.4,525.6 460.3,384.4 			"/>
			
				<linearGradient id="SVGID_7_" gradientUnits="userSpaceOnUse" x1="443.8323" y1="41.0298" x2="519.1677" y2="-2.4653" gradientTransform="matrix(1 1.1547 0 -1 0 -202.6558)">
				<stop  offset="0.4968" style="stop-color:#C8495B;stop-opacity:0"/>
				<stop  offset="1" style="stop-color:#C8495B;stop-opacity:0.5"/>
			</linearGradient>
			<polygon class="st9" points="460.3,259.3 502.7,283.7 502.7,408.8 460.3,384.4 			"/>
			<g>
				<line class="st10" x1="473.2" y1="326.3" x2="485.6" y2="333.5"/>
				<line class="st10" x1="473.2" y1="338.9" x2="492.4" y2="350"/>
				<g>
					<line class="st10" x1="473.2" y1="288.6" x2="486.3" y2="296.2"/>
					<line class="st10" x1="473.2" y1="301.1" x2="485.1" y2="308"/>
					<line class="st10" x1="473.2" y1="313.8" x2="492.4" y2="324.8"/>
				</g>
			</g>
			<g>
				<path class="st8" d="M471.1,251.7c0,1-0.8,1.3-1.8,0.7s-1.8-1.8-1.8-2.8s0.8-1.3,1.8-0.7C470.3,249.5,471.1,250.8,471.1,251.7z"
					/>
				<path class="st8" d="M478.2,255.9c0,1-0.8,1.3-1.8,0.7c-1-0.6-1.8-1.8-1.8-2.8s0.8-1.3,1.8-0.7
					C477.4,253.5,478.2,254.9,478.2,255.9z"/>
				<path class="st8" d="M485.3,259.9c0,1-0.8,1.3-1.8,0.7s-1.8-1.8-1.8-2.8s0.8-1.3,1.8-0.7C484.6,257.8,485.3,258.9,485.3,259.9z"
					/>
			</g>
			<g>
				<path class="st5" d="M643.8,398.1l-123.9-71.6c-2.8-1.7-6.4,0.4-6.4,3.7v62.5c0,5,2.7,9.7,7,12.2l123.9,71.6
					c2.8,1.7,6.4-0.4,6.4-3.7v-62.5C650.8,405.3,648.2,400.6,643.8,398.1z"/>
				<g class="st11">
					<path class="st12" d="M528.7,318.9l4.9,2.8v2.3l-7.3-4.2v-15.8l2.4,1.4V318.9z"/>
					<path class="st12" d="M537.6,326.2l-2.4-1.4V309l2.4,1.4V326.2z"/>
					<path class="st12" d="M542.8,329.2l-3.4-17.8l2.5,1.5l2.4,13.4l2.1-10.8l2.5,1.4l-3.1,14.1L542.8,329.2z"/>
					<path class="st12" d="M557.9,324.4l-4.7-2.7v4.2l3.5,2v2.3l-3.5-2v4.9l4.7,2.7v2.3l-7.2-4.1V318l7.2,4.1V324.4z"/>
				</g>
				<g>
					<polygon class="st5" points="644.7,376.7 643.1,373 637.6,369.9 636,371.7 632.5,369.7 632.5,379.8 648.1,388.8 648.1,378.7 
											"/>
					<path class="st8" d="M637.3,377.5c0-1.7,1.4-2.3,3.1-1.3c1.7,1,3.1,3.1,3.1,4.8c0,1.7-1.4,2.3-3.1,1.3S637.3,379.2,637.3,377.5
						z"/>
				</g>
				
					<linearGradient id="SVGID_8_" gradientUnits="userSpaceOnUse" x1="514.6675" y1="-271.52" x2="520.738" y2="-271.52" gradientTransform="matrix(1 0 0 1 0 572.47)">
					<stop  offset="0.2776" style="stop-color:#C8495B"/>
					<stop  offset="0.5469" style="stop-color:#C8495B"/>
				</linearGradient>
				<path class="st13" d="M520.7,302.7c0,1.7-1.4,2.3-3,1.3s-3-3.1-3-4.8c0-1.7,1.4-2.3,3-1.3C519.4,298.9,520.7,301,520.7,302.7z"
					/>
			</g>
		</g>
		<g>
			<path class="st6" d="M619.3,409.2l6-13.1l6,19.9c1.5,5-1.6,7.6-6,5l0,0C620.8,418.6,617.7,412.5,619.3,409.2z"/>
			<g>
				<polygon class="st8" points="625.2,413.6 626.3,431.7 624.1,431.7 				"/>
			</g>
		</g>
		<g>
			<path class="st14" d="M638.2,499.4c-0.4-36.3,0.1-57.9,0-82.8l56.2,32.2v83.1L638.2,499.4z"/>
			<g>
				<line class="st15" x1="649.4" y1="448.9" x2="678.4" y2="465.8"/>
				<line class="st15" x1="649.4" y1="459.6" x2="684.2" y2="479.9"/>
				<line class="st15" x1="649.4" y1="470.3" x2="674.2" y2="484.7"/>
				<line class="st15" x1="658.9" y1="486.4" x2="649.4" y2="480.8"/>
				<line class="st15" x1="684.2" y1="501.3" x2="669.9" y2="492.7"/>
			</g>
		</g>
		<g>
			<line class="st16" x1="414.7" y1="359.5" x2="452.2" y2="381.4"/>
			<line class="st16" x1="414.7" y1="373.4" x2="459.7" y2="399.6"/>
			<line class="st16" x1="414.7" y1="387.2" x2="446.7" y2="405.8"/>
			<line class="st16" x1="427" y1="408" x2="414.7" y2="400.8"/>
			<line class="st16" x1="459.7" y1="427.3" x2="441.2" y2="416.1"/>
		</g>
		<g>
			<g>
				<g>
					<defs>
						<path id="SVGID_9_" d="M642.8,398.4l-122.9-71c-2.8-1.7-6.4,0.4-6.4,3.7v62c0,5,2.7,9.7,7,12.1l122.9,71
							c2.8,1.7,6.4-0.4,6.4-3.7v-62C649.7,405.5,647.1,400.9,642.8,398.4z"/>
					</defs>
					<clipPath id="SVGID_10_">
						<use xlink:href="#SVGID_9_"  style="overflow:visible;"/>
					</clipPath>
					<g class="st17">
						<g>
							<g>
								
									<linearGradient id="SVGID_11_" gradientUnits="userSpaceOnUse" x1="502.7" y1="-122.266" x2="641.5" y2="-122.266" gradientTransform="matrix(1 0 0 1 0 525.416)">
									<stop  offset="3.565705e-03" style="stop-color:#C8495B;stop-opacity:0.8"/>
									<stop  offset="1" style="stop-color:#C8495B;stop-opacity:0"/>
								</linearGradient>
								<path class="st18" d="M562.1,332.6c0,37.3,19.6,71.6,51.5,90.5l27.9,16.6l-59.4,34l-27.9-16.6c-31.9-19-51.5-53.3-51.5-90.5
									L562.1,332.6z"/>
							</g>
						</g>
						<g>
							<g>
								<g>
									<path class="st8" d="M583.8,422.6c-0.4-1.1-1.3-1.9-2-1.9s-0.9,0.9-0.5,1.9c0.4,1.1,1.3,1.9,2,1.9S584.2,423.7,583.8,422.6
										z"/>
								</g>
								<path class="st6" d="M565.9,413.5l-0.7,0.4c-1.3,0.7-1.3,2.5,0,3.3l10.3,5.9c2.7,1.5,5.9,1.5,8.6,0l0,0c1.2-0.6,1.2-2.3,0-3
									l-11.5-6.6C570.5,412.3,568,412.3,565.9,413.5z"/>
								<g>
									<path class="st8" d="M567.6,420.1c-0.4-1.1-1.3-1.9-2-1.9s-0.9,0.9-0.5,1.9c0.4,1.1,1.3,1.9,2,1.9
										C567.8,422.1,568,421.2,567.6,420.1z"/>
									<path class="st6" d="M567,420.1c-0.2-0.5-0.6-1-1-1s-0.5,0.4-0.3,1c0.2,0.5,0.6,1,1,1C567.1,421.1,567.2,420.7,567,420.1z"
										/>
								</g>
								<g>
									<path class="st8" d="M575.9,424.7c-0.4-1.1-1.3-1.9-2-1.9s-0.9,0.9-0.5,1.9c0.4,1.1,1.3,1.9,2,1.9S576.3,425.8,575.9,424.7
										z"/>
									<path class="st6" d="M575.3,424.7c-0.2-0.5-0.6-1-1-1s-0.5,0.4-0.3,1s0.6,1,1,1S575.5,425.2,575.3,424.7z"/>
								</g>
							</g>
							<g>
								<g>
									<path class="st12" d="M570.9,417.9c-0.3,0-0.6-0.2-0.7-0.5c-0.2-0.4,0-0.9,0.4-1l2.6-1c0.4-0.2,0.9,0,1,0.4
										c0.2,0.4,0,0.9-0.4,1l-2.6,1C571.1,417.9,571,417.9,570.9,417.9z"/>
								</g>
								<g>
									<path class="st12" d="M576.2,420.8c-0.3,0-0.6-0.2-0.7-0.5c-0.2-0.4,0-0.9,0.4-1l2.6-1c0.4-0.2,0.9,0,1,0.4
										c0.2,0.4,0,0.9-0.4,1l-2.6,1C576.3,420.7,576.2,420.8,576.2,420.8z"/>
								</g>
								
									<linearGradient id="SVGID_12_" gradientUnits="userSpaceOnUse" x1="576.9269" y1="-180.0786" x2="584.9155" y2="-180.0786" gradientTransform="matrix(1 0 0 1 0 572.47)">
									<stop  offset="0" style="stop-color:#DE7554"/>
									<stop  offset="1" style="stop-color:#F4A04D"/>
								</linearGradient>
								<path class="st19" d="M576.9,397.9l8,4.6v-14c0-1.7-0.9-3.4-2.4-4.2l-3.2-1.8c-1-0.6-2.4,0.1-2.4,1.4L576.9,397.9
									L576.9,397.9z"/>
								<path class="st8" d="M576.9,397.9l8,4.6v2.5c0,1-1.1,1.7-2,1.1l-6-3.5V397.9z"/>
								<path class="st8" d="M578.2,404.1l-2,0.7l-1,0.4l-0.4,0.1c-0.1,0-0.2,0.1-0.3,0.1c-0.4,0.2-0.8,0.5-1.1,0.8
									c-0.2,0.2-0.3,0.4-0.4,0.6c-0.1,0.2-0.2,0.5-0.3,0.7v0.2v0.2c0,0.1,0,0.3,0,0.4s0,0.3,0,0.4v0.2c0,0.1,0,0.1,0,0.2l0.5,2.1
									l0.9,4.2c0.1,0.4-0.2,0.8-0.6,0.9c-0.4,0.1-0.7-0.1-0.9-0.5l-1.6-4l-0.8-2c0-0.1-0.1-0.2-0.1-0.3l-0.1-0.3
									c-0.1-0.2-0.1-0.4-0.1-0.7c0-0.2-0.1-0.5-0.1-0.7v-0.3c0-0.1,0-0.2,0-0.3c0-0.5,0.1-0.9,0.2-1.4c0.1-0.5,0.3-0.9,0.5-1.3
									c0.5-0.8,1.1-1.6,1.9-2.2c0.2-0.1,0.4-0.3,0.6-0.4l0.3-0.2l0.2-0.1l0.9-0.5l1.9-1c1.1-0.6,2.4-0.2,3,0.9s0.2,2.4-0.9,3
									C578.5,404,578.3,404.1,578.2,404.1z"/>
								<path class="st8" d="M583.4,406.9l-2,0.7l-1,0.4l-0.4,0.1c-0.1,0-0.2,0.1-0.3,0.1c-0.4,0.2-0.8,0.5-1.1,0.8
									c-0.2,0.2-0.3,0.4-0.4,0.6c-0.1,0.2-0.2,0.5-0.3,0.7v0.2v0.2c0,0.1,0,0.3,0,0.4s0,0.3,0,0.4v0.2c0,0.1,0,0.1,0,0.2l0.5,2.1
									l0.9,4.2c0.1,0.4-0.2,0.8-0.6,0.9c-0.4,0.1-0.7-0.1-0.9-0.5l-1.6-4l-0.8-2c0-0.1-0.1-0.2-0.1-0.3l-0.1-0.3
									c-0.1-0.2-0.1-0.4-0.1-0.7c0-0.2-0.1-0.5-0.1-0.7v-0.3c0-0.1,0-0.2,0-0.3c0-0.5,0.1-0.9,0.2-1.4c0.1-0.5,0.3-0.9,0.5-1.3
									c0.5-0.8,1.1-1.6,1.9-2.2c0.2-0.1,0.4-0.3,0.6-0.4l0.3-0.2l0.2-0.1l0.9-0.5l1.9-1c1.1-0.6,2.4-0.2,3,0.9s0.2,2.4-0.9,3
									C583.7,406.8,583.5,406.9,583.4,406.9z"/>
								<path class="st6" d="M585,385.9c1,0.5,2,0.8,3,1.1c1.1,0.3,2.1,0.5,3.2,0.5c1.1,0.1,2.2,0,3.3-0.1c0.6-0.1,1.1-0.2,1.7-0.3
									l1.7-0.4c0.3-0.1,0.6,0.1,0.7,0.4c0.1,0.3-0.1,0.6-0.4,0.7l-1.6,0.6c-0.5,0.2-1.1,0.4-1.7,0.6c-1.2,0.4-2.4,0.6-3.6,0.7
									c-1.2,0.1-2.5,0.1-3.8,0s-2.5-0.4-3.8-0.7l0,0c-0.9-0.3-1.4-1.2-1.1-2.1c0.3-0.9,1.2-1.4,2.1-1.1
									C584.8,385.8,584.9,385.8,585,385.9z"/>
								<path class="st6" d="M576.3,384.8c-0.8-0.5-1.7-1-2.6-1.3c-0.9-0.3-1.9-0.5-2.9-0.6s-2,0-3,0.2l-3.2,0.7l0,0
									c-0.3,0.1-0.6-0.1-0.7-0.4c-0.1-0.3,0.1-0.5,0.3-0.6l3.1-1.2c1.1-0.4,2.2-0.7,3.4-0.8c1.2-0.1,2.4-0.1,3.6,0.1
									c1.2,0.2,2.4,0.5,3.5,1l0,0c0.9,0.4,1.3,1.4,0.9,2.2c-0.4,0.9-1.4,1.3-2.2,0.9C576.5,384.9,576.4,384.9,576.3,384.8z"/>
								
									<ellipse transform="matrix(0.2455 -0.9694 0.9694 0.2455 72.0124 849.9336)" class="st6" cx="582" cy="378.7" rx="2.9" ry="2.9"/>
								<g>
									<path class="st20" d="M581.5,391.4l0.8,0.4l-2.7,2.2l-0.8-0.4L581.5,391.4z"/>
									<polygon class="st12" points="579.1,389 578,388.3 579.8,391.9 580.3,391.5 									"/>
									<polygon class="st6" points="581.4,393.5 580.8,394 582,396.5 582.1,396.5 583.3,397.2 									"/>
								</g>
							</g>
						</g>
					</g>
				</g>
			</g>
		</g>
	</g>
	<line class="st21" x1="733.9" y1="539.2" x2="755.6" y2="551.8"/>
	<polyline class="st22" points="755.6,551.8 875,620.7 793.6,667.7 929.5,746.2 	"/>
	<g>
		<path class="st5" d="M812.9,511.1l13.4-29.4l13.4,44.9c3.4,11.2-3.5,17.1-13.4,11.4l0,0C816.5,532.3,809.6,518.5,812.9,511.1z"/>
		<g>
			<polygon class="st8" points="826.3,520.9 829.3,561.7 823.3,561.7 			"/>
		</g>
		<g>
			<polygon class="st8" points="826.7,543.5 843,548.9 826,546.4 			"/>
		</g>
	</g>
	<g>
		<path class="st5" d="M371.1,370.7h-8v-11.3c0-2.2,1.8-4,4-4l0,0c2.2,0,4,1.8,4,4V370.7z"/>
		<circle class="st8" cx="367.3" cy="351.4" r="3.2"/>
		<path class="st6" d="M367.1,388.2L367.1,388.2c-2.2,0-4-1.8-4-4v-13.5h8v13.5C371.1,386.4,369.3,388.2,367.1,388.2z"/>
	</g>
	<g>
		<path class="st6" d="M765.1,913.7h-8v-11.3c0-2.2,1.8-4,4-4l0,0c2.2,0,4,1.8,4,4V913.7z"/>
		<circle class="st5" cx="761.3" cy="894.4" r="3.2"/>
		<path class="st8" d="M761.1,931.2L761.1,931.2c-2.2,0-4-1.8-4-4v-13.5h8v13.5C765.1,929.4,763.3,931.2,761.1,931.2z"/>
	</g>
	<g>
		<path class="st6" d="M666.3,868.5c0,13.8-11.2,18.5-25,10.6c-13.8-8-25-25.6-25-39.4c0-13.8,11.2-18.5,25-10.6
			S666.3,854.7,666.3,868.5z"/>
		<g>
			<polygon class="st8" points="641.3,854.1 644.3,901.7 638.3,901.7 			"/>
		</g>
	</g>
	<g>
		<path class="st6" d="M338.9,293.9c0,16.6-13.4,22.2-30,12.7c-16.6-9.6-30-30.7-30-47.3c0-16.6,13.4-22.2,30-12.7
			C325.5,256.1,338.9,277.3,338.9,293.9z"/>
		<g>
			<polygon class="st8" points="308.9,276.6 312.5,333.7 305.3,333.7 			"/>
		</g>
	</g>
	
		<linearGradient id="SVGID_13_" gradientUnits="userSpaceOnUse" x1="791.7001" y1="-1914.4407" x2="920.1" y2="-1914.4407" gradientTransform="matrix(1 0 0 -1 0 -1456)">
		<stop  offset="0" style="stop-color:#C8495B;stop-opacity:0.2"/>
		<stop  offset="1" style="stop-color:#C8495B;stop-opacity:0.5"/>
	</linearGradient>
	<path class="st23" d="M919.9,505.2c0.1-0.9,0.2-1.8,0.2-2.8c0-13.1-10.6-29.7-23.6-37.2c-4.5-2.6-8.7-3.8-12.3-3.6
		c-4-16.9-17.4-35.3-33.3-44.5c-19.1-11.1-34.5-4.6-34.5,14.5c0,0.9,0.1,1.8,0.1,2.8c-2.4-2.8-5.3-5.2-8.2-6.9
		c-8.1-4.7-14.8-2.9-16.6,3.7L919.9,505.2z"/>
	
		<linearGradient id="SVGID_14_" gradientUnits="userSpaceOnUse" x1="-2984.7642" y1="-1586.1724" x2="-2860.1511" y2="-1658.1177" gradientTransform="matrix(-1 0 0 -1 -2674.793 -1456)">
		<stop  offset="0" style="stop-color:#C8495B;stop-opacity:0.2"/>
		<stop  offset="1" style="stop-color:#C8495B;stop-opacity:0.5"/>
	</linearGradient>
	<path class="st24" d="M136.1,116.8c0-0.6,0-0.9,0-1.5c0-20.5,16.6-27.6,37-15.7c10.9,6.3,20.9,16.8,27.6,28.3
		c5.4-32.7,36.1-42.4,73.3-20.9c40.9,23.7,74.2,76,74.2,116.9c0,5.2-0.6,10-1.5,14.2L136.1,116.8z"/>
	<path class="st8" d="M710.5,631.5c-0.3-10.8,8.3-14.8,19.3-8.9c11,5.9,20.2,19.5,20.5,30.3L710.5,631.5z"/>
	<path class="st5" d="M300.2,689.8c-0.4-10.8,8.1-14.9,19.2-9.2c11.1,5.8,20.5,19.2,20.9,30L300.2,689.8z"/>
	<g>
		
			<linearGradient id="SVGID_15_" gradientUnits="userSpaceOnUse" x1="-4174.3198" y1="-1947.8612" x2="-4187.5044" y2="-1925.025" gradientTransform="matrix(-1 0 0 -1 -4102.1973 -1456)">
			<stop  offset="0" style="stop-color:#F4A04D;stop-opacity:0"/>
			<stop  offset="1" style="stop-color:#F4A04D;stop-opacity:0.5"/>
		</linearGradient>
		<polygon class="st25" points="41.7,474.3 102.5,509.5 72.1,461.5 		"/>
		<polyline class="st14" points="47,520.3 47,438.2 72,453.1 72,462.9 		"/>
		<polygon class="st8" points="62.2,465.7 82,477.1 72.1,461.5 		"/>
	</g>
	<path class="st26" d="M1202.7,503.9"/>
	<g>
		<path class="st5" d="M837.1,763.7h-8v-11.3c0-2.2,1.8-4,4-4l0,0c2.2,0,4,1.8,4,4V763.7z"/>
		<circle class="st8" cx="833.3" cy="744.4" r="3.2"/>
		<path class="st6" d="M833.1,781.2L833.1,781.2c-2.2,0-4-1.8-4-4v-13.5h8v13.5C837.1,779.4,835.4,781.2,833.1,781.2z"/>
	</g>
	<g>
		<path class="st6" d="M36.8,389.5h-8v-11.3c0-2.2,1.8-4,4-4l0,0c2.2,0,4,1.8,4,4V389.5z"/>
		<circle class="st5" cx="33" cy="370.3" r="3.2"/>
		<path class="st8" d="M32.8,407.1L32.8,407.1c-2.2,0-4-1.8-4-4v-13.5h8v13.5C36.8,405.3,35,407.1,32.8,407.1z"/>
	</g>
	<g>
		<line class="st27" x1="1196" y1="573.8" x2="1172.4" y2="573.8"/>
		<g>
			<path class="st6" d="M1188.6,577.3l-4.4,2.5l-4.4-2.5H1188.6 M1196,575.3L1196,575.3L1196,575.3z M1196,575.3h-23.7l11.8,6.8
				L1196,575.3L1196,575.3z"/>
		</g>
		<g>
			<path class="st6" d="M1195.5,728.6l-11.3,6.5l-11.3-6.5H1195.5 M1217.9,722.6L1217.9,722.6L1217.9,722.6z M1217.9,722.6h-67.5
				l33.7,19.5L1217.9,722.6L1217.9,722.6z"/>
		</g>
		<line class="st28" x1="1228.4" y1="518.8" x2="1140" y2="518.8"/>
		<g>
			<line class="st29" x1="1208.3" y1="428.5" x2="1233.6" y2="507.8"/>
		</g>
		<g>
			<line class="st29" x1="1158.8" y1="428.5" x2="1133.5" y2="507.8"/>
		</g>
		<line class="st30" x1="1216.3" y1="719.5" x2="1224.1" y2="775.8"/>
		<line class="st31" x1="1206.6" y1="649.7" x2="1216.3" y2="719.5"/>
		<line class="st32" x1="1196.1" y1="574.5" x2="1206.6" y2="649.7"/>
		<g>
			<polygon class="st5" points="1209.5,424.7 1210.8,509.3 1210.8,509.5 1210.7,509.8 1199.6,575.1 1199,578.5 1192,577.2 
				1192.7,573.8 1205.9,508.9 1205.8,509.3 1207.1,424.7 1207.1,423.6 1209.5,423.6 			"/>
		</g>
		<line class="st30" x1="1151" y1="719.4" x2="1143.2" y2="775.8"/>
		<line class="st31" x1="1160.7" y1="649.7" x2="1151" y2="719.4"/>
		<line class="st32" x1="1171.1" y1="574.5" x2="1160.7" y2="649.7"/>
		<g>
			<polygon class="st5" points="1160.1,424.7 1161.4,509.3 1161.4,508.9 1174.5,573.8 1175.2,577.2 1168.2,578.5 1167.6,575.1 
				1156.5,509.8 1156.4,509.5 1156.4,509.3 1157.8,424.7 1157.8,423.6 1160.1,423.6 			"/>
		</g>
		<g>
			<path class="st6" d="M1185.9,457.4l3.6,342.3c0,3-2.4,5.5-5.4,5.6c-3,0-5.5-2.4-5.6-5.4v-0.1l3.6-342.3c0-1,0.8-1.8,1.9-1.8
				C1185,455.6,1185.8,456.4,1185.9,457.4z"/>
		</g>
		<path class="st33" d="M1184.2,535.5"/>
		<line class="st28" x1="1237.6" y1="508.8" x2="1130.8" y2="508.8"/>
		<g>
			<polygon class="st8" points="1174.7,538.5 1226.6,506.9 1229.6,505.1 1233.2,511.3 1230.1,513 1176.8,542.2 1174.9,543.2 
				1172.8,539.6 			"/>
		</g>
		<g>
			<path class="st6" d="M1192.2,655.3l-9.1,5.3l-9.1-5.3H1192.2 M1207.1,651.3L1207.1,651.3L1207.1,651.3z M1207.1,651.3H1159
				l24,13.9L1207.1,651.3L1207.1,651.3z"/>
		</g>
		<g>
			<polygon class="st8" points="1141.6,506.8 1194.4,538.8 1196.2,539.9 1194.1,543.6 1192.2,542.6 1138.1,512.9 1135,511.2 
				1138.6,505 			"/>
		</g>
	</g>
	<g>
		<line class="st10" x1="484.2" y1="697" x2="529.9" y2="723.3"/>
		<g>
			<path class="st5" d="M561.9,687.1l-5.1,24.7l-19.3-11.1l24.4-113.1l26.9,15.5l25.7,142.1l-20.2-11.7l-5.3-30.7L561.9,687.1z
				 M575.3,619.7L565,670.8l20.8,12L575.3,619.7z"/>
			<path class="st5" d="M642,761l-27.3-143l20.4,11.8l19.1,107.7l16.8-87l20,11.6l-24.6,113L642,761z"/>
			<path class="st5" d="M746.5,821.4L728,810.7v-97.3l-18.3-10.6v-11.6c10.3,1.6,21.4-0.1,25.9-3.3l10.9,6.3L746.5,821.4
				L746.5,821.4z"/>
		</g>
		
			<linearGradient id="SVGID_16_" gradientUnits="userSpaceOnUse" x1="524.6" y1="105.78" x2="614.6" y2="105.78" gradientTransform="matrix(1 0 0 1 0 572.47)">
			<stop  offset="0" style="stop-color:#C8495B;stop-opacity:0.3"/>
			<stop  offset="1" style="stop-color:#C8495B;stop-opacity:0"/>
		</linearGradient>
		<polygon class="st34" points="577.2,767.8 551.5,625.7 524.6,610.2 561.9,588.7 588.8,604.2 614.6,746.3 		"/>
		
			<linearGradient id="SVGID_17_" gradientUnits="userSpaceOnUse" x1="629.1" y1="152.23" x2="691" y2="152.23" gradientTransform="matrix(1 0 0 1 0 572.47)">
			<stop  offset="0" style="stop-color:#C8495B;stop-opacity:0.3"/>
			<stop  offset="1" style="stop-color:#C8495B;stop-opacity:0"/>
		</linearGradient>
		<polygon class="st35" points="633.7,673.2 653.7,684.7 629.1,797.7 666.4,776.2 691,663.2 671,651.7 		"/>
		
			<linearGradient id="SVGID_18_" gradientUnits="userSpaceOnUse" x1="577.4" y1="117.23" x2="654.2" y2="117.23" gradientTransform="matrix(1 0 0 1 0 572.47)">
			<stop  offset="0" style="stop-color:#C8495B;stop-opacity:0.3"/>
			<stop  offset="1" style="stop-color:#C8495B;stop-opacity:0"/>
		</linearGradient>
		<polygon class="st36" points="577.4,640.7 597.8,652.5 616.9,760.2 654.2,738.7 635.2,631 614.8,619.2 		"/>
		<line class="st26" x1="612.3" y1="646" x2="626.6" y2="654.2"/>
		
			<linearGradient id="SVGID_19_" gradientUnits="userSpaceOnUse" x1="672.4" y1="194.03" x2="746.5001" y2="194.03" gradientTransform="matrix(1 0 0 1 0 572.47)">
			<stop  offset="0" style="stop-color:#C8495B;stop-opacity:0.3"/>
			<stop  offset="1" style="stop-color:#C8495B;stop-opacity:0"/>
		</linearGradient>
		<path class="st37" d="M672.4,713.8c10.3,1.6,21.4-0.1,25.9-3.3l10.9,6.3V844l37.3-21.5V695.3l-10.9-6.3
			c-4.6,3.3-15.6,4.9-25.9,3.3L672.4,713.8z"/>
		<g>
			<g>
				<line class="st22" x1="772.6" y1="727.8" x2="762" y2="722.1"/>
				<line class="st38" x1="719.6" y1="750.9" x2="770.4" y2="780.3"/>
				<line class="st39" x1="718.5" y1="794.2" x2="742.6" y2="808.1"/>
			</g>
		</g>
		<g>
			<g>
				<line class="st26" x1="672.2" y1="804.5" x2="681.1" y2="809.7"/>
				<line class="st40" x1="769.5" y1="748.8" x2="780.6" y2="754.9"/>
				<line class="st15" x1="721" y1="834.1" x2="736.6" y2="843.1"/>
			</g>
		</g>
		<line class="st14" x1="649.7" y1="755" x2="685.4" y2="775.6"/>
		<g>
			<path class="st8" d="M524.6,708.6l-5.1,24.7l-19.3-11.1l24.4-113.1l26.9,15.5l25.7,142.1L557,755l-5.3-30.7L524.6,708.6z
				 M537.9,641.2l-10.3,51.1l20.8,12L537.9,641.2z"/>
			<path class="st8" d="M604.7,782.5l-27.3-143l20.4,11.8L616.9,759l16.8-87l20,11.6l-24.6,113L604.7,782.5z"/>
			<path class="st8" d="M709.2,842.9l-18.5-10.7v-97.3l-18.3-10.6v-11.6c10.3,1.6,21.4-0.1,25.9-3.3l10.9,6.3L709.2,842.9
				L709.2,842.9z"/>
		</g>
		<line class="st10" x1="411.6" y1="569.5" x2="440.4" y2="586.1"/>
		<line class="st14" x1="713.5" y1="721" x2="742.3" y2="737.6"/>
		<line class="st14" x1="582.9" y1="744.9" x2="618.6" y2="765.5"/>
		<g>
			<g>
				<line class="st38" x1="460" y1="596" x2="496.6" y2="617.1"/>
				<line class="st14" x1="354.1" y1="568.9" x2="379.1" y2="583.3"/>
				<line class="st39" x1="480.1" y1="653.2" x2="519.6" y2="676"/>
				<line class="st38" x1="445.6" y1="657.3" x2="473" y2="673.1"/>
				<line class="st14" x1="483.7" y1="632.1" x2="498" y2="640.3"/>
			</g>
			<line class="st22" x1="404.4" y1="613.2" x2="431.1" y2="628.6"/>
			<path class="st38" d="M400.5,610.9"/>
			<path class="st38" d="M395.2,607.9"/>
			<line class="st38" x1="385.5" y1="602.4" x2="395.2" y2="607.9"/>
			<line class="st22" x1="526.4" y1="588.9" x2="549.3" y2="602"/>
		</g>
		<g>
			<path class="st5" d="M664.1,648.7h-10v-14.1c0-2.8,2.2-5,5-5l0,0c2.8,0,5,2.2,5,5V648.7z"/>
			<circle class="st6" cx="659.4" cy="624.6" r="4"/>
			<path class="st8" d="M659.1,670.6L659.1,670.6c-2.8,0-5-2.2-5-5v-16.9h10v16.9C664.1,668.4,661.9,670.6,659.1,670.6z"/>
		</g>
	</g>
	<g>
		<line class="st41" x1="538.9" y1="806.8" x2="389.8" y2="720.7"/>
		<line class="st41" x1="528" y1="800.5" x2="528" y2="824.9"/>
		<line class="st41" x1="496.3" y1="782.2" x2="496.3" y2="806.6"/>
		<line class="st41" x1="464.6" y1="764" x2="464.6" y2="788.4"/>
		<line class="st41" x1="433" y1="745.7" x2="433" y2="770.1"/>
		<line class="st41" x1="401.3" y1="727.4" x2="401.3" y2="751.8"/>
	</g>
	<polyline class="st10" points="1131,802.1 1118.8,809.2 1073,782.7 1118.2,756.6 1023.7,702.1 	"/>
	<line class="st10" x1="1147.4" y1="792.6" x2="1136.7" y2="798.8"/>
	<line class="st10" x1="1163.6" y1="783.2" x2="1154.3" y2="788.6"/>
	<g>
		<path class="st8" d="M1010.1,890.4l-101.7,58.7c-11.9,6.9-21.6,2.8-21.6-9.1V676.6c0-11.9,9.7-27.1,21.6-34l101.7-58.7
			c11.9-6.9,21.6-2.8,21.6,9.1v263.4C1031.7,868.3,1022,883.5,1010.1,890.4z"/>
		<polygon class="st8" points="1027.7,582.8 1041.6,591.8 1038.1,596.7 1026.1,597.7 1023.1,590.7 		"/>
		<polygon class="st8" points="907.5,959.8 893.2,951.6 893.1,945.7 897.1,942.7 916.1,942.7 917.1,958.7 		"/>
		<path class="st6" d="M1028.1,901.4l-101.7,58.7c-11.9,6.9-21.6,2.8-21.6-9.1V687.6c0-11.9,9.7-27.1,21.6-34l101.7-58.7
			c11.9-6.9,21.6-2.8,21.6,9.1v263.4C1049.7,879.3,1040,894.5,1028.1,901.4z"/>
		<polygon class="st5" points="1039.4,850 915.1,921.8 915.1,701.2 1039.4,629.5 		"/>
		<polygon class="st8" points="1039.4,769.4 915.1,841.1 915.1,701.2 1039.4,629.5 		"/>
		<path class="st5" d="M990.4,640.6l-26.2,15.1c-1.5,0.9-2.8,0.4-2.8-1.2l0,0c0-1.5,1.3-3.5,2.8-4.4l26.2-15.1
			c1.5-0.9,2.8-0.4,2.8,1.2l0,0C993.2,637.7,991.9,639.7,990.4,640.6z"/>
		<path class="st5" d="M966.1,914.8c0-6.2,5-14.1,11.2-17.7c6.2-3.6,11.2-1.5,11.2,4.7s-5,14.1-11.2,17.7
			C971.1,923.1,966.1,921,966.1,914.8z"/>
		<path class="st6" d="M961.2,712.6c0-8.6,7-19.6,15.6-24.6s15.6-2,15.6,6.6s-7,19.6-15.6,24.6C968.2,724.2,961.2,721.2,961.2,712.6
			z"/>
		<path class="st5" d="M976.8,727.3L976.8,727.3c-13.2,7.6-24,24.6-24,37.8v26.7l48-27.7v-26.7
			C1000.8,724.2,990.1,719.7,976.8,727.3z"/>
		
			<linearGradient id="SVGID_20_" gradientUnits="userSpaceOnUse" x1="914.6" y1="219.23" x2="1039.8" y2="219.23" gradientTransform="matrix(1 0 0 1 0 572.47)">
			<stop  offset="0" style="stop-color:#C8495B"/>
			<stop  offset="1" style="stop-color:#F4A04D"/>
		</linearGradient>
		<polygon class="st42" points="1039.8,769.4 1039.8,741.5 914.6,813.8 914.6,841.9 		"/>
		<line class="st16" x1="931.1" y1="818.4" x2="1023.1" y2="765.3"/>
		<path class="st5" d="M992.8,782.6c0-2.8,2.2-6.3,5-7.9c2.8-1.6,5-0.6,5,2.1s-2.2,6.3-5,7.9C995.1,786.3,992.8,785.4,992.8,782.6z"
			/>
		<g>
			<g>
				<path class="st6" d="M989.8,860.7c0-4.4,3.6-10.1,8-12.6s8-1,8,3.4s-3.6,10.1-8,12.6S989.8,865.1,989.8,860.7z"/>
				<g>
					<path class="st8" d="M995.4,854.6c0-1.3,1.1-3.1,2.4-3.8s2.4-0.3,2.4,1s-1.1,3.1-2.4,3.8S995.4,856,995.4,854.6z"/>
					<path class="st5" d="M997.8,857.1L997.8,857.1c-2.1,1.2-3.7,3.8-3.7,5.9v0.3c0,2.1,1.7,2.8,3.7,1.6l0,0
						c2.1-1.2,3.7-3.8,3.7-5.9v-0.3C1001.6,856.6,999.9,855.9,997.8,857.1z"/>
				</g>
			</g>
			<g>
				<path class="st8" d="M1060.9,831.9l-33.3,19.2c-6.6,3.8-12,1.6-12-5.1s5.4-15.1,12-18.9l33.3-19.2c6.6-3.8,12-1.6,12,5.1
					S1067.6,828.1,1060.9,831.9z"/>
			</g>
			<line class="st15" x1="1027.6" y1="839.1" x2="1060.9" y2="819.9"/>
		</g>
		<g>
			<g>
				<path class="st6" d="M1014.8,675.8c0-4.4,3.6-10.1,8-12.6c4.4-2.5,8-1,8,3.4s-3.6,10.1-8,12.6S1014.8,680.2,1014.8,675.8z"/>
				<g>
					<path class="st8" d="M1020.4,669.7c0-1.3,1.1-3.1,2.4-3.8c1.3-0.8,2.4-0.3,2.4,1s-1.1,3.1-2.4,3.8
						C1021.5,671.5,1020.4,671.1,1020.4,669.7z"/>
					<path class="st5" d="M1022.8,672.2L1022.8,672.2c-2.1,1.2-3.7,3.8-3.7,5.9v0.3c0,2.1,1.7,2.8,3.7,1.6l0,0
						c2.1-1.2,3.7-3.8,3.7-5.9v-0.3C1026.6,671.7,1024.9,671,1022.8,672.2z"/>
				</g>
			</g>
			<g>
				<path class="st5" d="M1075.9,652.8l-23.3,13.5c-6.6,3.8-12,1.6-12-5.1s5.4-15.1,12-18.9l23.3-13.5c6.6-3.8,12-1.6,12,5.1
					S1082.6,648.9,1075.9,652.8z"/>
			</g>
			<line class="st15" x1="1052.6" y1="654.2" x2="1075.9" y2="640.8"/>
		</g>
		<g>
			<g>
				<path class="st6" d="M925.8,862.7c0-4.4,3.6-10.1,8-12.6s8-1,8,3.4s-3.6,10.1-8,12.6S925.8,867.1,925.8,862.7z"/>
				<g>
					<path class="st8" d="M931.4,856.6c0-1.3,1.1-3.1,2.4-3.8s2.4-0.3,2.4,1s-1.1,3.1-2.4,3.8S931.4,858,931.4,856.6z"/>
					<path class="st5" d="M933.8,859.1L933.8,859.1c-2.1,1.2-3.7,3.8-3.7,5.9v0.3c0,2.1,1.7,2.8,3.7,1.6l0,0
						c2.1-1.2,3.7-3.8,3.7-5.9v-0.3C937.6,858.6,935.9,857.9,933.8,859.1z"/>
				</g>
			</g>
			<g>
				<path class="st8" d="M1013.6,822.3l-50,28.9c-6.6,3.8-12,1.6-12-5.1s5.4-15.1,12-18.9l50-28.9c6.6-3.8,12-1.6,12,5.1
					S1020.2,818.4,1013.6,822.3z"/>
			</g>
			<line class="st15" x1="961.6" y1="840.3" x2="991.6" y2="823"/>
			<line class="st15" x1="999.6" y1="818.3" x2="1010.6" y2="812"/>
		</g>
		<g>
			<g>
				<path class="st8" d="M832.7,841.9c0-4.9,3.9-11.1,8.8-13.9c4.9-2.8,8.8-1.1,8.8,3.7c0,4.9-3.9,11.1-8.8,13.9
					C836.7,848.4,832.7,846.7,832.7,841.9z"/>
				<g>
					<path class="st6" d="M838.9,835.2c0-1.5,1.2-3.4,2.7-4.2c1.5-0.9,2.7-0.3,2.7,1.1c0,1.5-1.2,3.4-2.7,4.2
						C840.1,837.2,838.9,836.6,838.9,835.2z"/>
					<path class="st5" d="M841.5,837.9L841.5,837.9c-2.3,1.3-4.1,4.2-4.1,6.5v0.3c0,2.3,1.8,3,4.1,1.7l0,0c2.3-1.3,4.1-4.2,4.1-6.5
						v-0.3C845.6,837.3,843.8,836.6,841.5,837.9z"/>
				</g>
			</g>
			<g>
				<path class="st5" d="M929.5,797.3l-55.1,31.8c-7.3,4.2-13.2,1.7-13.2-5.6s5.9-16.7,13.2-20.9l55.1-31.8
					c7.3-4.2,13.2-1.7,13.2,5.6S936.8,793,929.5,797.3z"/>
			</g>
			<line class="st15" x1="872.2" y1="817.1" x2="905.2" y2="798"/>
			<line class="st15" x1="914.1" y1="792.9" x2="926.2" y2="785.9"/>
		</g>
		<g>
			<g class="st11">
				<path class="st12" d="M935.7,709.1l4-2.3v1.9l-6,3.5v-13l2-1.2V709.1z"/>
				<path class="st12" d="M943,706.8l-2,1.2v-13l2-1.2V706.8z"/>
				<path class="st12" d="M947.3,704.3l-2.8-11.4l2.1-1.2l2,8.8l1.7-10.9l2.1-1.2l-2.5,14.5L947.3,704.3z"/>
				<path class="st12" d="M959.8,685.9l-3.9,2.2v3.4l2.9-1.7v1.9l-2.9,1.7v4l3.9-2.2v1.9l-5.9,3.4v-13l5.9-3.4V685.9z"/>
			</g>
			<path class="st5" d="M929.1,703.4c0,1.4-1.1,3.1-2.5,3.9s-2.5,0.3-2.5-1.1s1.1-3.1,2.5-3.9S929.1,702,929.1,703.4z"/>
		</g>
		<g>
			<g>
				<path class="st5" d="M917.4,580.8c0-6.4,5.2-14.5,11.6-18.2s11.6-1.5,11.6,4.9s-5.2,14.5-11.6,18.2S917.4,587.2,917.4,580.8z"/>
				<g>
					<path class="st8" d="M925.4,572c0-1.9,1.6-4.4,3.5-5.5s3.5-0.5,3.5,1.5c0,1.9-1.6,4.4-3.5,5.5S925.4,574,925.4,572z"/>
					<path class="st6" d="M928.9,575.6L928.9,575.6c-3,1.7-5.4,5.5-5.4,8.5v0.4c0,3,2.4,4,5.4,2.3l0,0c3-1.7,5.4-5.5,5.4-8.5v-0.4
						C934.3,574.9,931.9,573.8,928.9,575.6z"/>
				</g>
			</g>
			<g>
				<path class="st6" d="M1020.1,539.2L971.9,567c-9.6,5.5-17.3,2.2-17.3-7.3s7.8-21.8,17.3-27.3l48.1-27.8
					c9.6-5.5,17.3-2.2,17.3,7.3S1029.6,533.7,1020.1,539.2z"/>
			</g>
			<line class="st10" x1="971.9" y1="549.6" x2="1020.1" y2="521.9"/>
		</g>
		<g>
			<polygon class="st43" points="998.4,598.1 1015,588.4 1020.4,591.6 1003.8,601.2 			"/>
		</g>
		<polygon class="st43" points="897.8,735.1 892.8,732.2 892.8,708.7 897.8,711.6 		"/>
		<polygon class="st43" points="897.8,775.1 892.8,772.2 892.8,748.7 897.8,751.6 		"/>
		<g>
			<g>
				<path class="st8" d="M995.7,952.9c0-4.9,3.9-11.1,8.8-13.9c4.9-2.8,8.8-1.1,8.8,3.7c0,4.9-3.9,11.1-8.8,13.9
					C999.7,959.4,995.7,957.7,995.7,952.9z"/>
				<g>
					<path class="st6" d="M1001.9,946.2c0-1.5,1.2-3.4,2.7-4.2c1.5-0.9,2.7-0.3,2.7,1.1c0,1.5-1.2,3.4-2.7,4.2
						C1003.1,948.2,1001.9,947.6,1001.9,946.2z"/>
					<path class="st5" d="M1004.5,948.9L1004.5,948.9c-2.3,1.3-4.1,4.2-4.1,6.5v0.3c0,2.3,1.8,3,4.1,1.7l0,0
						c2.3-1.3,4.1-4.2,4.1-6.5v-0.3C1008.6,948.3,1006.8,947.6,1004.5,948.9z"/>
				</g>
			</g>
			<g>
				<path class="st6" d="M1092.5,908.3l-55.1,31.8c-7.3,4.2-13.2,1.7-13.2-5.6s5.9-16.7,13.2-20.9l55.1-31.8
					c7.3-4.2,13.2-1.7,13.2,5.6S1099.8,904,1092.5,908.3z"/>
			</g>
			<line class="st10" x1="1035.2" y1="928.1" x2="1068.2" y2="909"/>
			<line class="st10" x1="1077.1" y1="903.9" x2="1089.2" y2="896.9"/>
		</g>
		<line class="st15" x1="926.6" y1="889.3" x2="956.6" y2="872"/>
		<line class="st15" x1="926.6" y1="901.3" x2="943.9" y2="891.3"/>
	</g>
	<line class="st44" x1="879.5" y1="950.3" x2="894.4" y2="941.7"/>
	<polyline class="st40" points="749.2,855.4 770.8,868.2 797.3,852.9 865.6,892.2 812.1,923.1 869.4,956.2 879.5,950.3 	"/>
	
		<linearGradient id="SVGID_21_" gradientUnits="userSpaceOnUse" x1="-4071.8767" y1="89.63" x2="-3921.0852" y2="89.63" gradientTransform="matrix(-1 0 0 1 -3484.731 572.47)">
		<stop  offset="0.2436" style="stop-color:#F4A04D;stop-opacity:0"/>
		<stop  offset="1" style="stop-color:#F4A04D;stop-opacity:0.5"/>
	</linearGradient>
	<path class="st45" d="M446.3,662.1c20.4-54.7,66.5-99.8,103-99.8s48.3,45.1,27.9,99.8c-20.4,54.7-66.5,99.8-103,99.8
		S425.9,717.9,446.3,662.1z"/>
	<g>
		<polygon class="st6" points="46,153.1 203,243.3 203,395.7 46,305.5 		"/>
		<polygon class="st8" points="46,172.2 203,262.4 203,414.8 46,324.6 		"/>
		<g>
			<line class="st15" x1="150.4" y1="293.2" x2="168.6" y2="303.7"/>
			<line class="st15" x1="81.2" y1="270.5" x2="120.3" y2="292.9"/>
			<line class="st15" x1="87.2" y1="308.8" x2="106.8" y2="320"/>
			<line class="st10" x1="67.7" y1="297.6" x2="78.9" y2="304"/>
			<line class="st10" x1="138.1" y1="320" x2="156" y2="330.4"/>
			<line class="st10" x1="108.3" y1="303" x2="125.6" y2="312.9"/>
			<line class="st10" x1="123.3" y1="243.9" x2="132.4" y2="249.1"/>
			<line class="st15" x1="90.1" y1="224.8" x2="109.2" y2="235.7"/>
			<line class="st10" x1="67.7" y1="211.9" x2="79.6" y2="218.7"/>
			<line class="st15" x1="67.7" y1="314.5" x2="79.6" y2="321.4"/>
			<line class="st10" x1="67.7" y1="228.9" x2="106.8" y2="251.2"/>
			<line class="st10" x1="124.6" y1="278.5" x2="140.6" y2="287.6"/>
			<line class="st10" x1="94.8" y1="261.3" x2="112.1" y2="271.3"/>
		</g>
		<g>
			<path class="st8" d="M61.7,171.8c0,1.3-1.1,1.7-2.4,1c-1.3-0.8-2.4-2.5-2.4-3.8s1.1-1.7,2.4-1C60.6,168.7,61.7,170.5,61.7,171.8z
				"/>
			<path class="st8" d="M71.4,177.4c0,1.3-1.1,1.7-2.4,1c-1.3-0.8-2.4-2.5-2.4-3.8s1.1-1.7,2.4-1C70.3,174.2,71.4,176.1,71.4,177.4z
				"/>
			<path class="st8" d="M81.1,182.9c0,1.3-1.1,1.7-2.4,1c-1.3-0.8-2.4-2.5-2.4-3.8s1.1-1.7,2.4-1C80.1,180,81.1,181.6,81.1,182.9z"
				/>
		</g>
		<polygon class="st5" points="158.8,354.8 221.1,390.6 221.1,456.2 158.8,420.5 		"/>
		<g>
			<path class="st8" d="M185.5,414.6l10.6-2.6c1.1-0.2,1.5-1.6,0.7-2.4L186.2,398c-0.9-1-2.6-0.3-2.6,1v14.1
				C183.7,414.1,184.5,414.8,185.5,414.6z"/>
		</g>
	</g>
</g>
<g>
	<g>
		<path class="st5" d="M312.7,427.8l-6,42.1c-0.2,1.7-1.8,2.8-3.5,2.6c-1.4-0.2-2.4-1.3-2.6-2.6l-6-42.1c-0.7-5,2.8-9.6,7.7-10.3
			s9.6,2.8,10.3,7.7C312.8,426.1,312.8,427,312.7,427.8z"/>
	</g>
	
		<linearGradient id="SVGID_22_" gradientUnits="userSpaceOnUse" x1="302.8831" y1="-58.8413" x2="424.1578" y2="-58.8413" gradientTransform="matrix(1 0 0 1 0 572.47)">
		<stop  offset="0" style="stop-color:#D96856"/>
		<stop  offset="1" style="stop-color:#C8495B"/>
	</linearGradient>
	<path class="st46" d="M306.6,516l109.7-13.2c3.8-0.5,7.3,2.3,7.8,6.1s-2.3,7.3-6.1,7.8c-0.1,0-0.2,0-0.3,0l-110.2,7.8
		c-2.4,0.2-4.4-1.6-4.6-4C302.7,518.3,304.3,516.3,306.6,516z"/>
	
		<linearGradient id="SVGID_23_" gradientUnits="userSpaceOnUse" x1="282.2784" y1="-91.1322" x2="308.6802" y2="-91.1322" gradientTransform="matrix(1 0 0 1 0 572.47)">
		<stop  offset="0" style="stop-color:#D96856"/>
		<stop  offset="0.4596" style="stop-color:#D05859"/>
		<stop  offset="1" style="stop-color:#C8495B"/>
	</linearGradient>
	<path class="st47" d="M282.4,517.5l15.4-72.1c0.6-3,3.6-4.9,6.5-4.2c3,0.6,4.9,3.6,4.2,6.5c0,0.1,0,0.2-0.1,0.3l-19.6,71.1
		c-0.5,1.8-2.4,2.9-4.2,2.4C283,521,282,519.3,282.4,517.5z"/>
	<g>
		<g>
			<path class="st8" d="M304.3,419.4l43.6,8c0.9,0.2,1.5,1,1.4,2c-0.2,0.8-0.9,1.4-1.7,1.4l-44.4-1.4c-2.8-0.1-4.9-2.4-4.8-5.2
				c0.1-2.8,2.4-4.9,5.2-4.8C303.8,419.4,304.1,419.4,304.3,419.4z"/>
		</g>
		<g>
			<path class="st8" d="M260.4,417.4l44,2.1c2.8,0.1,4.9,2.5,4.8,5.2c-0.1,2.8-2.5,4.9-5.2,4.8c-0.2,0-0.5,0-0.7-0.1l-43.2-8.7
				c-0.9-0.2-1.5-1.1-1.3-2C258.8,417.9,259.5,417.3,260.4,417.4z"/>
		</g>
		<g>
			<path class="st8" d="M299.4,421.9l18.2-24.9c0.6-0.8,1.6-0.9,2.4-0.4c0.7,0.5,0.9,1.3,0.5,2.1L308,427c-1.1,2.5-4.1,3.7-6.6,2.6
				s-3.7-4.1-2.6-6.6C299,422.5,299.2,422.2,299.4,421.9z"/>
		</g>
		<g>
			<path class="st8" d="M287.3,449.5l12.1-27.6c1.1-2.5,4.1-3.7,6.6-2.6s3.7,4.1,2.6,6.6c-0.1,0.3-0.3,0.7-0.6,1l-17.9,24.3
				c-0.6,0.8-1.6,0.9-2.4,0.4C287.2,451.1,287,450.2,287.3,449.5z"/>
		</g>
	</g>
	<g>
		<g>
			<polygon class="st6" points="339.1,507.4 275,470 218.3,502.9 282.4,540.2 			"/>
			<polygon class="st5" points="241.3,503.3 234.3,499.2 228.2,502.8 235.1,506.8 			"/>
			
				<linearGradient id="SVGID_24_" gradientUnits="userSpaceOnUse" x1="218.3" y1="-38.4762" x2="339" y2="-38.4762" gradientTransform="matrix(1 0 0 1 0 572.47)">
				<stop  offset="0.2776" style="stop-color:#301C47"/>
				<stop  offset="1" style="stop-color:#C8495B"/>
			</linearGradient>
			<path class="st48" d="M282.4,540.2l-64.1-37.4v0.1c0,19.3,10.3,37.2,26.9,46.9l17,9.9c12.5,7.3,27.8,7.3,40.3,0.1l9.4-5.5
				c16.8-9.7,27.1-27.6,27.1-47l0,0L282.4,540.2z"/>
		</g>
	</g>
	<g>
		<circle class="st6" cx="320.1" cy="544.3" r="16.5"/>
		<g>
			<path class="st49" d="M321,539.4"/>
		</g>
		<g>
			<path class="st49" d="M321,539.4"/>
		</g>
		<g>
			<g>
				<line class="st49" x1="318" y1="537.1" x2="343.3" y2="551.8"/>
				<path class="st8" d="M343.3,551.8"/>
			</g>
		</g>
		<path class="st5" d="M337.4,547c0,4.8-3.9,11-8.7,13.7c-4.8,2.8-8.7,1.1-8.7-3.7s3.9-11,8.7-13.7S337.4,542.2,337.4,547z"/>
		<path class="st8" d="M336.6,549.7c0,3.5-2.8,7.9-6.3,9.9s-6.3,0.8-6.3-2.7s2.8-7.9,6.3-9.9C333.8,545.1,336.6,546.3,336.6,549.7z"
			/>
		
			<linearGradient id="SVGID_25_" gradientUnits="userSpaceOnUse" x1="325.6" y1="-13.7922" x2="345.6" y2="-13.7922" gradientTransform="matrix(1 0 0 1 0 572.47)">
			<stop  offset="0" style="stop-color:#C8495B;stop-opacity:0"/>
			<stop  offset="1" style="stop-color:#C8495B;stop-opacity:0.5"/>
		</linearGradient>
		<path class="st50" d="M345.6,552.9c0,5.5-4.5,12.6-10,15.8s-10,1.3-10-4.2s4.5-12.6,10-15.8C341.1,545.4,345.6,547.4,345.6,552.9z
			"/>
		
			<linearGradient id="SVGID_26_" gradientUnits="userSpaceOnUse" x1="426.6702" y1="-75.3155" x2="552.8541" y2="143.2413" gradientTransform="matrix(1 0 0 1 0 572.47)">
			<stop  offset="0" style="stop-color:#F4A04D;stop-opacity:0.5"/>
			<stop  offset="0.7564" style="stop-color:#F4A04D;stop-opacity:0"/>
		</linearGradient>
		<path class="st51" d="M334.1,550.6l-0.1,0.1c0.7,0.2,1.1,0.9,1.1,1.9c0,1.9-1.6,4.4-3.5,5.5c-0.8,0.5-1.6,0.6-2.2,0.5v0.1
			l134.1,208.6l153.1-171.2L334.1,550.6z"/>
	</g>
	
		<linearGradient id="SVGID_27_" gradientUnits="userSpaceOnUse" x1="138.4199" y1="-41.0024" x2="235.8633" y2="-41.0024" gradientTransform="matrix(1 0 0 1 0 572.47)">
		<stop  offset="0" style="stop-color:#C8495B"/>
		<stop  offset="0.569" style="stop-color:#C94B5B"/>
		<stop  offset="0.774" style="stop-color:#CD525A"/>
		<stop  offset="0.9196" style="stop-color:#D35D58"/>
		<stop  offset="1" style="stop-color:#D96856"/>
	</linearGradient>
	<path class="st52" d="M145.1,526.7l86.4-4.4c2.4-0.1,4.4,1.7,4.5,4.1c0.1,2.3-1.6,4.2-3.8,4.5l-85.9,9.7c-3.8,0.4-7.3-2.3-7.7-6.2
		c-0.4-3.8,2.3-7.3,6.2-7.7C144.8,526.8,144.9,526.7,145.1,526.7z"/>
	
		<linearGradient id="SVGID_28_" gradientUnits="userSpaceOnUse" x1="260.6235" y1="53.0098" x2="286.7307" y2="-18.7189" gradientTransform="matrix(1 0 0 1 0 572.47)">
		<stop  offset="0" style="stop-color:#C8495B"/>
		<stop  offset="0.4138" style="stop-color:#CA4C5B"/>
		<stop  offset="0.7042" style="stop-color:#CF5559"/>
		<stop  offset="0.9562" style="stop-color:#D76457"/>
		<stop  offset="1" style="stop-color:#D96856"/>
	</linearGradient>
	<path class="st53" d="M260.1,618.8l14.5-64.2c0.5-2.3,2.8-3.8,5.1-3.2c2.2,0.5,3.6,2.6,3.3,4.8l-9.2,65.2c-0.5,3.8-4.1,6.5-7.9,6
		s-6.5-4.1-6-7.9C260.1,619.2,260.1,619,260.1,618.8z"/>
	<g>
		<g>
			
				<linearGradient id="SVGID_29_" gradientUnits="userSpaceOnUse" x1="262.6802" y1="-156.8807" x2="343.8563" y2="-156.8807" gradientTransform="matrix(1 0 0 1 0 572.47)">
				<stop  offset="0" style="stop-color:#C8495B;stop-opacity:0.5"/>
				<stop  offset="1" style="stop-color:#C8495B;stop-opacity:0"/>
			</linearGradient>
			<path class="st54" d="M263.2,415.9c1.2-2.1,2.8-3.9,4.4-5.5c1.5-1.5,4-1.4,5.5,0.1s1.4,3.9,0,5.4l0,0c-1.2,1.2-2.2,2.6-3,3.9
				c-1.1,1.9-3.5,2.6-5.4,1.6s-2.6-3.5-1.6-5.4C263.1,416,263.2,416,263.2,415.9L263.2,415.9z"/>
			
				<linearGradient id="SVGID_30_" gradientUnits="userSpaceOnUse" x1="262.6802" y1="-168.2127" x2="343.8563" y2="-168.2127" gradientTransform="matrix(1 0 0 1 0 572.47)">
				<stop  offset="0" style="stop-color:#C8495B;stop-opacity:0.5"/>
				<stop  offset="1" style="stop-color:#C8495B;stop-opacity:0"/>
			</linearGradient>
			<path class="st55" d="M278.9,402.9c4-1.9,8.2-3.2,12.4-4.2c1.9-0.4,3.7,0.8,4.1,2.6c0.4,1.8-0.7,3.6-2.5,4.1l0,0
				c-3.8,1-7.4,2.3-10.8,4.1c-1.8,0.9-4,0.2-4.9-1.6c-0.9-1.8-0.2-4,1.6-4.9L278.9,402.9z"/>
			
				<linearGradient id="SVGID_31_" gradientUnits="userSpaceOnUse" x1="262.6802" y1="-171.9376" x2="343.8563" y2="-171.9376" gradientTransform="matrix(1 0 0 1 0 572.47)">
				<stop  offset="0" style="stop-color:#C8495B;stop-opacity:0.5"/>
				<stop  offset="1" style="stop-color:#C8495B;stop-opacity:0"/>
			</linearGradient>
			<path class="st56" d="M304.2,397.1c2.2-0.1,4.3,0,6.5,0.1c1.1,0.1,2.2,0.2,3.2,0.3c1.1,0.1,2.2,0.3,3.2,0.5
				c1.6,0.2,2.8,1.8,2.5,3.4c-0.2,1.6-1.7,2.7-3.3,2.6h-0.2c-1-0.1-1.9-0.2-2.9-0.3c-1-0.1-2-0.1-2.9-0.2c-2-0.1-3.9,0-5.9,0.1
				c-1.8,0.1-3.3-1.2-3.4-3s1.2-3.3,3-3.4C304.2,397.1,304.2,397.1,304.2,397.1z"/>
			
				<linearGradient id="SVGID_32_" gradientUnits="userSpaceOnUse" x1="262.6802" y1="-164.1914" x2="343.8563" y2="-164.1914" gradientTransform="matrix(1 0 0 1 0 572.47)">
				<stop  offset="0" style="stop-color:#C8495B;stop-opacity:0.5"/>
				<stop  offset="1" style="stop-color:#C8495B;stop-opacity:0"/>
			</linearGradient>
			<path class="st57" d="M329.8,402c2,1,3.9,2.2,5.7,3.7s3.4,3.2,4.6,5.3c0.7,1.2,0.3,2.8-0.9,3.5s-2.7,0.3-3.5-0.8l0,0
				c-1.9-2.9-5-5.1-8.4-6.6c-1.4-0.6-2-2.3-1.4-3.7C326.6,401.9,328.3,401.3,329.8,402C329.7,401.9,329.7,401.9,329.8,402z"/>
			
				<linearGradient id="SVGID_33_" gradientUnits="userSpaceOnUse" x1="262.6802" y1="-143.9411" x2="343.8563" y2="-143.9411" gradientTransform="matrix(1 0 0 1 0 572.47)">
				<stop  offset="0" style="stop-color:#C8495B;stop-opacity:0.5"/>
				<stop  offset="1" style="stop-color:#C8495B;stop-opacity:0"/>
			</linearGradient>
			<path class="st58" d="M340.9,425c-0.5,1-1,2.1-1.7,3.1c-0.6,1-1.3,1.9-2.1,2.7c-1.5,1.7-3.2,3.1-4.9,4.4c-0.9,0.7-2.3,0.5-3-0.5
				c-0.7-0.9-0.5-2.2,0.4-2.9l0,0c1.5-1.2,2.9-2.5,4.1-4c0.6-0.7,1.1-1.5,1.6-2.3s0.8-1.6,1.2-2.4l0.2-0.4c0.6-1.1,2-1.6,3.1-1
				C341.1,422.5,341.5,423.9,340.9,425L340.9,425z"/>
			
				<linearGradient id="SVGID_34_" gradientUnits="userSpaceOnUse" x1="262.6802" y1="-131.4842" x2="343.8563" y2="-131.4842" gradientTransform="matrix(1 0 0 1 0 572.47)">
				<stop  offset="0" style="stop-color:#C8495B;stop-opacity:0.5"/>
				<stop  offset="1" style="stop-color:#C8495B;stop-opacity:0"/>
			</linearGradient>
			<path class="st59" d="M320.8,441.2c-4,1.5-8.1,2.5-12.3,3.2c-0.9,0.1-1.8-0.5-1.9-1.4s0.5-1.7,1.3-1.9c3.9-0.8,7.8-1.9,11.5-3.4
				c1-0.4,2.1,0.1,2.5,1C322.3,439.7,321.8,440.8,320.8,441.2L320.8,441.2z"/>
			
				<linearGradient id="SVGID_35_" gradientUnits="userSpaceOnUse" x1="262.6802" y1="-128.8255" x2="343.8563" y2="-128.8255" gradientTransform="matrix(1 0 0 1 0 572.47)">
				<stop  offset="0" style="stop-color:#C8495B;stop-opacity:0.5"/>
				<stop  offset="1" style="stop-color:#C8495B;stop-opacity:0"/>
			</linearGradient>
			<path class="st60" d="M295.9,445.2l-6.1-0.5c-0.7-0.1-1.3-0.7-1.2-1.4c0.1-0.7,0.7-1.3,1.4-1.2h0.1l5.9,0.3h0.1
				c0.8,0,1.4,0.7,1.4,1.5C297.4,444.6,296.7,445.2,295.9,445.2L295.9,445.2z"/>
		</g>
	</g>
	<path class="st5" d="M295.8,507.8c-3,5.1-12.3,8.5-20.9,7.5s-13.1-6-10.1-11.1s12.3-8.5,20.9-7.5
		C294.3,497.7,298.8,502.7,295.8,507.8z"/>
	<g>
		<path class="st5" d="M425,501.9l-4.6,42.1c-0.1,1.3-1.3,2.2-2.6,2.1c-1.1-0.1-2-1-2.1-2.1l-4.6-42.1c-0.4-3.9,2.4-7.3,6.2-7.8
			s7.3,2.4,7.8,6.2C425,500.9,425,501.4,425,501.9z"/>
	</g>
	<g>
		<g>
			<path class="st8" d="M418.6,493.5l43.6,8c0.9,0.2,1.5,1,1.4,2c-0.2,0.8-0.9,1.4-1.7,1.4l-44.4-1.4c-2.8-0.1-4.9-2.4-4.8-5.2
				c0.1-2.8,2.4-4.9,5.2-4.8C418.1,493.5,418.3,493.5,418.6,493.5z"/>
		</g>
		<g>
			<path class="st8" d="M374.6,491.4l44,2.1c2.8,0.1,4.9,2.5,4.8,5.2c-0.1,2.8-2.5,4.9-5.2,4.8c-0.2,0-0.5,0-0.7-0.1l-43.2-8.7
				c-0.9-0.2-1.5-1.1-1.3-2C373.1,492,373.8,491.4,374.6,491.4z"/>
		</g>
		<g>
			<path class="st8" d="M413.7,496l18.2-24.9c0.6-0.8,1.6-0.9,2.4-0.4c0.7,0.5,0.9,1.3,0.5,2.1L422.4,501c-1.1,2.5-4.1,3.7-6.6,2.6
				s-3.7-4.1-2.6-6.6C413.3,496.6,413.5,496.3,413.7,496z"/>
		</g>
		<g>
			<path class="st8" d="M401.6,523.6l12.1-27.6c1.1-2.5,4.1-3.7,6.6-2.6s3.7,4.1,2.6,6.6c-0.1,0.3-0.3,0.7-0.6,1l-17.9,24.3
				c-0.6,0.8-1.6,0.9-2.4,0.4C401.5,525.2,401.3,524.3,401.6,523.6z"/>
		</g>
	</g>
	<g>
		<g>
			
				<linearGradient id="SVGID_36_" gradientUnits="userSpaceOnUse" x1="377.1414" y1="-100.7423" x2="460.4002" y2="-100.7423" gradientTransform="matrix(1 0 0 1 0 572.47)">
				<stop  offset="0" style="stop-color:#C8495B;stop-opacity:0.1"/>
				<stop  offset="1" style="stop-color:#C8495B;stop-opacity:0.5"/>
			</linearGradient>
			<path class="st61" d="M431.5,467.3c2.1,0.3,4.2,0.7,6.3,1.2c2.1,0.5,3.3,2.6,2.8,4.7c-0.5,2-2.5,3.3-4.6,2.9l0,0
				c-1.8-0.4-3.6-0.6-5.5-0.8c-2.2-0.2-3.8-2.2-3.6-4.4c0.2-2.2,2.2-3.8,4.4-3.6C431.4,467.3,431.5,467.3,431.5,467.3L431.5,467.3z"
				/>
			
				<linearGradient id="SVGID_37_" gradientUnits="userSpaceOnUse" x1="377.1414" y1="-92.3039" x2="460.4002" y2="-92.3039" gradientTransform="matrix(1 0 0 1 0 572.47)">
				<stop  offset="0" style="stop-color:#C8495B;stop-opacity:0.1"/>
				<stop  offset="1" style="stop-color:#C8495B;stop-opacity:0.5"/>
			</linearGradient>
			<path class="st62" d="M449.4,473.2c1.8,1.1,3.6,2.4,5.1,4c1.6,1.6,2.9,3.5,3.9,5.7c0.8,1.7,0,3.8-1.8,4.5c-1.7,0.8-3.7,0-4.5-1.6
				l0,0c-1.2-2.5-3.7-4.7-6.5-6.3c-1.8-1-2.4-3.2-1.4-5s3.2-2.4,5-1.4C449.3,473.2,449.3,473.2,449.4,473.2L449.4,473.2z"/>
			
				<linearGradient id="SVGID_38_" gradientUnits="userSpaceOnUse" x1="377.1414" y1="-73.0488" x2="460.4002" y2="-73.0488" gradientTransform="matrix(1 0 0 1 0 572.47)">
				<stop  offset="0" style="stop-color:#C8495B;stop-opacity:0.1"/>
				<stop  offset="1" style="stop-color:#C8495B;stop-opacity:0.5"/>
			</linearGradient>
			<path class="st63" d="M458,496.7c-0.5,1-1,2-1.7,2.9c-0.6,0.9-1.3,1.7-2,2.5c-1.4,1.6-3,3-4.6,4.2c-1.3,1-3.2,0.7-4.2-0.6
				c-1-1.3-0.7-3.1,0.5-4.1l0,0c1.3-1.1,2.6-2.3,3.6-3.5c0.5-0.6,1-1.3,1.4-2s0.8-1.4,1.1-2.1l0.1-0.3c0.8-1.6,2.7-2.2,4.3-1.4
				C458.2,493.1,458.8,495,458,496.7C458,496.6,458,496.7,458,496.7z"/>
			
				<linearGradient id="SVGID_39_" gradientUnits="userSpaceOnUse" x1="377.1414" y1="-61.357" x2="460.4002" y2="-61.357" gradientTransform="matrix(1 0 0 1 0 572.47)">
				<stop  offset="0" style="stop-color:#C8495B;stop-opacity:0.1"/>
				<stop  offset="1" style="stop-color:#C8495B;stop-opacity:0.5"/>
			</linearGradient>
			<path class="st64" d="M439.2,512.1c-3.7,1.5-7.5,2.6-11.3,3.3c-1.4,0.3-2.7-0.6-3-2c-0.3-1.4,0.6-2.7,1.9-3l0,0
				c3.5-0.8,7-2,10.2-3.4c1.4-0.6,3,0,3.7,1.4s0,3-1.4,3.7C439.2,512,439.2,512,439.2,512.1z"/>
			
				<linearGradient id="SVGID_40_" gradientUnits="userSpaceOnUse" x1="377.1414" y1="-58.2742" x2="460.4002" y2="-58.2742" gradientTransform="matrix(1 0 0 1 0 572.47)">
				<stop  offset="0" style="stop-color:#C8495B;stop-opacity:0.1"/>
				<stop  offset="1" style="stop-color:#C8495B;stop-opacity:0.5"/>
			</linearGradient>
			<path class="st65" d="M416.2,516.7c-2,0-3.9,0-5.9-0.1c-1.9-0.1-3.9-0.4-5.8-0.7c-1.2-0.2-1.9-1.3-1.8-2.4
				c0.2-1.1,1.2-1.9,2.3-1.8l0,0c1.8,0.2,3.6,0.4,5.4,0.4c1.8,0.1,3.6,0,5.4-0.1c1.3-0.1,2.4,0.9,2.5,2.2
				C418.6,515.5,417.6,516.6,416.2,516.7C416.3,516.6,416.2,516.7,416.2,516.7z"/>
			
				<linearGradient id="SVGID_41_" gradientUnits="userSpaceOnUse" x1="377.1414" y1="-64.6449" x2="460.4002" y2="-64.6449" gradientTransform="matrix(1 0 0 1 0 572.47)">
				<stop  offset="0" style="stop-color:#C8495B;stop-opacity:0.1"/>
				<stop  offset="1" style="stop-color:#C8495B;stop-opacity:0.5"/>
			</linearGradient>
			<path class="st66" d="M393.2,512.6c-3.6-1.6-7.1-3.8-9.8-6.9c-0.6-0.7-0.5-1.8,0.2-2.4s1.7-0.5,2.3,0.1l0,0
				c2.3,2.5,5.4,4.3,8.7,5.7l0,0c1,0.4,1.5,1.5,1.1,2.5C395.4,512.6,394.3,513,393.2,512.6C393.3,512.6,393.2,512.6,393.2,512.6z"/>
			
				<linearGradient id="SVGID_42_" gradientUnits="userSpaceOnUse" x1="377.1414" y1="-81.0335" x2="460.4002" y2="-81.0335" gradientTransform="matrix(1 0 0 1 0 572.47)">
				<stop  offset="0" style="stop-color:#C8495B;stop-opacity:0.1"/>
				<stop  offset="1" style="stop-color:#C8495B;stop-opacity:0.5"/>
			</linearGradient>
			<path class="st67" d="M379.8,494c0.3-2.2,1.2-4.3,2.3-6.1c0.4-0.6,1.2-0.8,1.8-0.5c0.6,0.4,0.8,1.2,0.5,1.8
				c-0.9,1.6-1.5,3.4-1.7,5.1c-0.1,0.8-0.8,1.4-1.6,1.3C380.3,495.6,379.7,494.8,379.8,494L379.8,494L379.8,494z"/>
		</g>
	</g>
	<g>
		<path class="st5" d="M151.1,523.1l-4.6,42.1c-0.1,1.3-1.3,2.2-2.6,2.1c-1.1-0.1-2-1-2.1-2.1l-4.6-42.1c-0.4-3.9,2.4-7.3,6.2-7.8
			s7.3,2.4,7.8,6.2C151.1,522.1,151.1,522.6,151.1,523.1z"/>
	</g>
	<g>
		<g>
			<path class="st8" d="M144.7,513l43.6,8c0.9,0.2,1.5,1,1.4,2c-0.2,0.8-0.9,1.4-1.7,1.4l-44.4-1.4c-2.8-0.1-4.9-2.4-4.8-5.2
				c0.1-2.8,2.4-4.9,5.2-4.8C144.2,512.9,144.4,513,144.7,513z"/>
		</g>
		<g>
			<path class="st8" d="M100.7,510.9l44,2.1c2.8,0.1,4.9,2.5,4.8,5.2s-2.5,4.9-5.2,4.8c-0.2,0-0.5,0-0.7-0.1l-43.2-8.7
				c-0.9-0.2-1.5-1.1-1.3-2C99.2,511.5,99.9,510.9,100.7,510.9z"/>
		</g>
		<g>
			<path class="st8" d="M139.8,515.5l18.2-25c0.6-0.8,1.6-0.9,2.4-0.4c0.7,0.5,0.9,1.3,0.5,2.1l-12.5,28.3c-1.1,2.5-4.1,3.7-6.6,2.6
				c-2.5-1.1-3.7-4.1-2.6-6.6C139.4,516.1,139.6,515.8,139.8,515.5z"/>
		</g>
		<g>
			<path class="st8" d="M127.7,543.1l12.1-27.6c1.1-2.5,4.1-3.7,6.6-2.6c2.5,1.1,3.7,4.1,2.6,6.6c-0.1,0.3-0.3,0.7-0.6,1l-17.9,24.3
				c-0.6,0.8-1.6,0.9-2.4,0.4C127.6,544.7,127.4,543.8,127.7,543.1z"/>
		</g>
	</g>
	<g>
		<g>
			
				<linearGradient id="SVGID_43_" gradientUnits="userSpaceOnUse" x1="95.8647" y1="-48.4593" x2="177.0408" y2="-48.4593" gradientTransform="matrix(1 0 0 1 0 572.47)">
				<stop  offset="0" style="stop-color:#C8495B;stop-opacity:0.5"/>
				<stop  offset="1" style="stop-color:#C8495B;stop-opacity:0.1"/>
			</linearGradient>
			<path class="st68" d="M176.5,523.7c-1.2,2.1-2.8,3.9-4.4,5.5c-1.5,1.5-4,1.4-5.5-0.1s-1.4-3.9,0-5.4l0,0c1.2-1.2,2.2-2.6,3-3.9
				c1.1-1.9,3.5-2.6,5.4-1.6s2.6,3.5,1.6,5.4C176.6,523.6,176.6,523.7,176.5,523.7L176.5,523.7z"/>
			
				<linearGradient id="SVGID_44_" gradientUnits="userSpaceOnUse" x1="95.8647" y1="-37.1272" x2="177.0408" y2="-37.1272" gradientTransform="matrix(1 0 0 1 0 572.47)">
				<stop  offset="0" style="stop-color:#C8495B;stop-opacity:0.5"/>
				<stop  offset="1" style="stop-color:#C8495B;stop-opacity:0.1"/>
			</linearGradient>
			<path class="st69" d="M160.8,536.7c-4,1.9-8.2,3.2-12.4,4.2c-1.9,0.4-3.7-0.8-4.1-2.6c-0.4-1.8,0.7-3.6,2.5-4.1l0,0
				c3.8-1,7.4-2.3,10.8-4.1c1.8-0.9,4-0.2,4.9,1.6S162.7,535.7,160.8,536.7C160.9,536.7,160.8,536.7,160.8,536.7z"/>
			
				<linearGradient id="SVGID_45_" gradientUnits="userSpaceOnUse" x1="95.8647" y1="-33.4024" x2="177.0408" y2="-33.4024" gradientTransform="matrix(1 0 0 1 0 572.47)">
				<stop  offset="0" style="stop-color:#C8495B;stop-opacity:0.5"/>
				<stop  offset="1" style="stop-color:#C8495B;stop-opacity:0.1"/>
			</linearGradient>
			<path class="st70" d="M135.5,542.5c-2.2,0.1-4.3,0-6.5-0.1c-1.1-0.1-2.2-0.2-3.2-0.3c-1.1-0.1-2.2-0.3-3.2-0.5
				c-1.6-0.2-2.8-1.8-2.5-3.4c0.2-1.6,1.7-2.7,3.3-2.6h0.2c1,0.1,1.9,0.2,2.9,0.3s2,0.1,2.9,0.2c2,0.1,3.9,0,5.9-0.1
				c1.8-0.1,3.3,1.2,3.4,3c0.1,1.8-1.2,3.3-3,3.4C135.6,542.5,135.5,542.5,135.5,542.5z"/>
			
				<linearGradient id="SVGID_46_" gradientUnits="userSpaceOnUse" x1="95.8647" y1="-41.0486" x2="177.0408" y2="-41.0486" gradientTransform="matrix(1 0 0 1 0 572.47)">
				<stop  offset="0" style="stop-color:#C8495B;stop-opacity:0.5"/>
				<stop  offset="1" style="stop-color:#C8495B;stop-opacity:0.1"/>
			</linearGradient>
			<path class="st71" d="M110,537.7c-2-1-3.9-2.2-5.7-3.7c-1.8-1.5-3.4-3.2-4.6-5.3c-0.7-1.2-0.3-2.8,0.9-3.5
				c1.2-0.7,2.7-0.3,3.5,0.8l0,0c1.9,2.9,5,5.1,8.4,6.6c1.4,0.6,2,2.3,1.4,3.7C113.1,537.8,111.5,538.4,110,537.7L110,537.7z"/>
			
				<linearGradient id="SVGID_47_" gradientUnits="userSpaceOnUse" x1="95.8647" y1="-61.3989" x2="177.0408" y2="-61.3989" gradientTransform="matrix(1 0 0 1 0 572.47)">
				<stop  offset="0" style="stop-color:#C8495B;stop-opacity:0.5"/>
				<stop  offset="1" style="stop-color:#C8495B;stop-opacity:0.1"/>
			</linearGradient>
			<path class="st72" d="M98.8,514.6c0.5-1,1-2.1,1.7-3.1c0.6-1,1.3-1.9,2.1-2.7c1.5-1.7,3.2-3.1,4.9-4.4c0.9-0.7,2.3-0.5,3,0.5
				c0.7,0.9,0.5,2.2-0.4,2.9l0,0c-1.5,1.2-2.9,2.5-4.1,4c-0.6,0.7-1.1,1.5-1.6,2.3s-0.8,1.6-1.2,2.4l-0.2,0.4c-0.6,1.1-2,1.6-3.1,1
				C98.7,517.2,98.2,515.8,98.8,514.6L98.8,514.6z"/>
			
				<linearGradient id="SVGID_48_" gradientUnits="userSpaceOnUse" x1="95.8647" y1="-73.8558" x2="177.0408" y2="-73.8558" gradientTransform="matrix(1 0 0 1 0 572.47)">
				<stop  offset="0" style="stop-color:#C8495B;stop-opacity:0.5"/>
				<stop  offset="1" style="stop-color:#C8495B;stop-opacity:0.1"/>
			</linearGradient>
			<path class="st73" d="M118.9,498.4c4-1.5,8.1-2.5,12.3-3.2c0.9-0.1,1.8,0.5,1.9,1.4c0.1,0.9-0.5,1.7-1.3,1.9
				c-3.9,0.8-7.8,1.9-11.5,3.4c-1,0.4-2.1-0.1-2.5-1C117.4,500,117.9,498.9,118.9,498.4C118.9,498.5,118.9,498.4,118.9,498.4z"/>
			
				<linearGradient id="SVGID_49_" gradientUnits="userSpaceOnUse" x1="95.8647" y1="-76.42" x2="177.0408" y2="-76.42" gradientTransform="matrix(1 0 0 1 0 572.47)">
				<stop  offset="0" style="stop-color:#C8495B;stop-opacity:0.5"/>
				<stop  offset="1" style="stop-color:#C8495B;stop-opacity:0.1"/>
			</linearGradient>
			<path class="st74" d="M143.8,494.5l6.2,0.5c0.7,0.1,1.3,0.7,1.2,1.4c-0.1,0.7-0.7,1.3-1.4,1.2h-0.1l-5.9-0.3h-0.1
				c-0.8,0-1.4-0.7-1.4-1.5S143,494.4,143.8,494.5L143.8,494.5z"/>
		</g>
	</g>
	<g>
		<path class="st5" d="M276.1,606.8l-6,42.1c-0.2,1.7-1.8,2.8-3.5,2.6c-1.4-0.2-2.4-1.3-2.6-2.6l-6-42.1c-0.7-5,2.8-9.6,7.7-10.3
			c4.9-0.7,9.6,2.8,10.3,7.7C276.2,605.1,276.2,606,276.1,606.8z"/>
	</g>
	<g>
		<g>
			<path class="st8" d="M267.7,598.5l54.5,9.2c0.9,0.2,1.5,1,1.4,1.9s-0.9,1.4-1.7,1.4l-55.2-2.6c-2.8-0.1-4.9-2.5-4.8-5.2
				c0.1-2.8,2.5-4.9,5.2-4.8C267.3,598.4,267.5,598.5,267.7,598.5z"/>
		</g>
		<g>
			<path class="st8" d="M213,595.1l54.8,3.4c2.8,0.2,4.9,2.6,4.7,5.3c-0.2,2.8-2.6,4.9-5.3,4.7c-0.2,0-0.4,0-0.6-0.1l-54-10
				c-0.9-0.2-1.5-1-1.4-2C211.3,595.6,212.1,595,213,595.1z"/>
		</g>
		<g>
			<path class="st8" d="M262.8,601l22-31.5c0.5-0.8,1.6-1,2.4-0.4c0.7,0.5,0.9,1.4,0.6,2.1L271.5,606c-1.2,2.5-4.2,3.6-6.7,2.4
				c-2.5-1.2-3.6-4.2-2.4-6.7C262.5,601.5,262.6,601.2,262.8,601z"/>
		</g>
		<g>
			<path class="st8" d="M247,635l15.8-34c1.2-2.5,4.2-3.6,6.7-2.4c2.5,1.2,3.6,4.2,2.4,6.7c-0.1,0.3-0.3,0.5-0.4,0.8l-21.6,30.7
				c-0.5,0.8-1.6,0.9-2.4,0.4C246.9,636.6,246.6,635.7,247,635z"/>
		</g>
	</g>
	<g>
		<g>
			
				<linearGradient id="SVGID_50_" gradientUnits="userSpaceOnUse" x1="212.4086" y1="61.3289" x2="314.2858" y2="61.3289" gradientTransform="matrix(1 0 0 1 0 572.47)">
				<stop  offset="0" style="stop-color:#C8495B;stop-opacity:0.5"/>
				<stop  offset="1" style="stop-color:#C8495B;stop-opacity:0"/>
			</linearGradient>
			<path class="st75" d="M247.5,638.2l-6.3-1.1c-2.1-0.4-3.5-2.4-3.2-4.5c0.4-2.1,2.3-3.5,4.4-3.2l0.4,0.1l5.6,0.8h0.3
				c2.2,0.3,3.7,2.3,3.4,4.5S249.8,638.5,247.5,638.2C247.6,638.2,247.6,638.2,247.5,638.2z"/>
			
				<linearGradient id="SVGID_51_" gradientUnits="userSpaceOnUse" x1="212.4086" y1="53.5493" x2="314.2858" y2="53.5493" gradientTransform="matrix(1 0 0 1 0 572.47)">
				<stop  offset="0" style="stop-color:#C8495B;stop-opacity:0.5"/>
				<stop  offset="1" style="stop-color:#C8495B;stop-opacity:0"/>
			</linearGradient>
			<path class="st76" d="M228.9,632.8c-4-2-7.8-4.5-10.8-8.1c-1.3-1.5-1.1-3.7,0.4-5c1.5-1.2,3.6-1.1,4.9,0.3l0,0
				c2.3,2.5,5.4,4.5,8.7,6.1c1.9,0.9,2.7,3.1,1.8,4.9C233,632.9,230.8,633.7,228.9,632.8C229,632.9,229,632.8,228.9,632.8z"/>
			
				<linearGradient id="SVGID_52_" gradientUnits="userSpaceOnUse" x1="212.4086" y1="33.4523" x2="314.2858" y2="33.4523" gradientTransform="matrix(1 0 0 1 0 572.47)">
				<stop  offset="0" style="stop-color:#C8495B;stop-opacity:0.5"/>
				<stop  offset="1" style="stop-color:#C8495B;stop-opacity:0"/>
			</linearGradient>
			<path class="st77" d="M213.1,611.3c0.1-2.5,0.6-4.9,1.5-7.1c0.4-1.1,1-2.1,1.5-3.1c0.6-1,1.3-1.9,1.9-2.8c1-1.4,2.9-1.8,4.4-0.8
				c1.4,0.9,1.8,2.8,0.9,4.3l-0.2,0.3l-1.4,2.3c-0.4,0.8-0.8,1.6-1.1,2.3c-0.6,1.6-0.9,3.2-0.9,4.8c0,1.8-1.5,3.4-3.3,3.4
				s-3.4-1.5-3.4-3.3C213.1,611.4,213.1,611.3,213.1,611.3L213.1,611.3z"/>
			
				<linearGradient id="SVGID_53_" gradientUnits="userSpaceOnUse" x1="212.4086" y1="16.6315" x2="314.2858" y2="16.6315" gradientTransform="matrix(1 0 0 1 0 572.47)">
				<stop  offset="0" style="stop-color:#C8495B;stop-opacity:0.5"/>
				<stop  offset="1" style="stop-color:#C8495B;stop-opacity:0"/>
			</linearGradient>
			<path class="st78" d="M227.8,589.4c3.6-2.4,7.4-4.2,11.3-5.8c1.4-0.6,3,0.1,3.6,1.6c0.5,1.4-0.1,3-1.5,3.6l0,0
				c-3.6,1.5-7,3.4-10.1,5.5c-1.3,0.9-3.2,0.6-4.1-0.7C226,592.2,226.3,590.4,227.8,589.4C227.7,589.4,227.7,589.4,227.8,589.4z"/>
			
				<linearGradient id="SVGID_54_" gradientUnits="userSpaceOnUse" x1="212.4086" y1="9.3079" x2="314.2838" y2="9.3079" gradientTransform="matrix(1 0 0 1 0 572.47)">
				<stop  offset="0" style="stop-color:#C8495B;stop-opacity:0.5"/>
				<stop  offset="1" style="stop-color:#C8495B;stop-opacity:0"/>
			</linearGradient>
			<path class="st79" d="M251.2,580.1c4.1-0.9,8.2-1.4,12.4-1.7c1.3-0.1,2.5,0.9,2.5,2.2c0.1,1.3-0.9,2.4-2.2,2.5
				c-3.9,0.4-7.8,1-11.6,2c-1.4,0.3-2.8-0.5-3.1-1.9C248.9,581.8,249.7,580.4,251.2,580.1C251.1,580.1,251.1,580.1,251.2,580.1z"/>
			
				<linearGradient id="SVGID_55_" gradientUnits="userSpaceOnUse" x1="212.4086" y1="9.1113" x2="314.2858" y2="9.1113" gradientTransform="matrix(1 0 0 1 0 572.47)">
				<stop  offset="0" style="stop-color:#C8495B;stop-opacity:0.5"/>
				<stop  offset="1" style="stop-color:#C8495B;stop-opacity:0"/>
			</linearGradient>
			<path class="st80" d="M276.1,578.5c2.1,0.2,4.1,0.4,6.2,0.8c2.1,0.4,4.1,0.8,6.1,1.4c1.1,0.3,1.7,1.4,1.4,2.5
				c-0.3,1-1.4,1.7-2.4,1.4l0,0c-1.9-0.5-3.8-0.8-5.8-1.1c-1.9-0.3-3.9-0.5-5.9-0.6h-0.1c-1.2-0.1-2.1-1.1-2-2.4
				C273.7,579.3,274.8,578.4,276.1,578.5C276,578.5,276,578.5,276.1,578.5z"/>
			
				<linearGradient id="SVGID_56_" gradientUnits="userSpaceOnUse" x1="212.4086" y1="18.7702" x2="314.2858" y2="18.7702" gradientTransform="matrix(1 0 0 1 0 572.47)">
				<stop  offset="0" style="stop-color:#C8495B;stop-opacity:0.5"/>
				<stop  offset="1" style="stop-color:#C8495B;stop-opacity:0"/>
			</linearGradient>
			<path class="st81" d="M300,585.7c3.6,2.2,7,5.1,9.3,8.9c0.5,0.8,0.2,1.8-0.6,2.2c-0.8,0.5-1.7,0.2-2.2-0.5l0,0
				c-2-3.1-5-5.6-8.3-7.5c-0.9-0.5-1.2-1.6-0.7-2.5C298,585.4,299.1,585.2,300,585.7L300,585.7z"/>
			
				<linearGradient id="SVGID_57_" gradientUnits="userSpaceOnUse" x1="212.4086" y1="37.4269" x2="314.2858" y2="37.4269" gradientTransform="matrix(1 0 0 1 0 572.47)">
				<stop  offset="0" style="stop-color:#C8495B;stop-opacity:0.5"/>
				<stop  offset="1" style="stop-color:#C8495B;stop-opacity:0"/>
			</linearGradient>
			<path class="st82" d="M311.3,607.5c-0.5,2.1-1.4,4.1-2.5,5.9c-0.4,0.6-1.2,0.8-1.8,0.5c-0.6-0.4-0.8-1.2-0.5-1.8
				c0.9-1.6,1.6-3.4,2-5.2c0.2-0.8,0.9-1.3,1.7-1.1C311,605.9,311.5,606.6,311.3,607.5C311.3,607.4,311.3,607.5,311.3,607.5z"/>
		</g>
	</g>
</g>
</svg>
