<?xml version="1.0" encoding="utf-8"?>
<!-- Generator: Adobe Illustrator 20.0.0, SVG Export Plug-In . SVG Version: 6.00 Build 0)  -->
<!DOCTYPE svg PUBLIC "-//W3C//DTD SVG 1.1//EN" "http://www.w3.org/Graphics/SVG/1.1/DTD/svg11.dtd" [
	<!ENTITY ns_extend "http://ns.adobe.com/Extensibility/1.0/">
	<!ENTITY ns_ai "http://ns.adobe.com/AdobeIllustrator/10.0/">
	<!ENTITY ns_graphs "http://ns.adobe.com/Graphs/1.0/">
	<!ENTITY ns_vars "http://ns.adobe.com/Variables/1.0/">
	<!ENTITY ns_imrep "http://ns.adobe.com/ImageReplacement/1.0/">
	<!ENTITY ns_sfw "http://ns.adobe.com/SaveForWeb/1.0/">
	<!ENTITY ns_custom "http://ns.adobe.com/GenericCustomNamespace/1.0/">
	<!ENTITY ns_adobe_xpath "http://ns.adobe.com/XPath/1.0/">
]>
<svg version="1.1" id="art" xmlns:x="&ns_extend;" xmlns:i="&ns_ai;" xmlns:graph="&ns_graphs;"
	 xmlns="http://www.w3.org/2000/svg" xmlns:xlink="http://www.w3.org/1999/xlink" x="0px" y="0px" width="1239.2px"
	 height="989.2px" viewBox="0 0 1239.2 989.2" style="enable-background:new 0 0 1239.2 989.2;" xml:space="preserve">
<style type="text/css">
	.st0{fill:#301C47;}
	.st1{fill:none;stroke:#F4A04D;stroke-width:4;stroke-linecap:round;stroke-linejoin:round;stroke-miterlimit:10;}
	.st2{opacity:0.2;fill:none;stroke:#C8495B;stroke-width:3;stroke-linecap:round;stroke-miterlimit:10;enable-background:new    ;}
	.st3{fill:none;stroke:#C8495B;stroke-width:6;stroke-linecap:round;stroke-miterlimit:10;}
	.st4{fill:#C8495B;}
	.st5{fill:none;stroke:#F4A04D;stroke-width:10;stroke-linecap:round;stroke-miterlimit:10;}
	.st6{fill:none;stroke:#301C47;stroke-width:6;stroke-linecap:round;stroke-miterlimit:10;}
	.st7{fill:#F4A04D;}
	.st8{fill:url(#SVGID_1_);}
	.st9{fill:none;stroke:#C8495B;stroke-width:4;stroke-linecap:round;stroke-miterlimit:10;}
	.st10{fill:none;stroke:#301C47;stroke-width:3;stroke-linecap:round;stroke-miterlimit:10;}
	.st11{fill:none;}
	.st12{fill:none;stroke:#F4A04D;stroke-width:3;stroke-linecap:round;stroke-miterlimit:10;}
	.st13{fill:none;stroke:#301C47;stroke-width:4;stroke-linecap:round;stroke-miterlimit:10;}
	.st14{fill:url(#SVGID_2_);}
	.st15{fill:none;stroke:#F4A04D;stroke-width:4;stroke-linejoin:round;stroke-miterlimit:10;}
	.st16{fill:none;stroke:#F4A04D;stroke-width:7;stroke-linejoin:round;stroke-miterlimit:10;}
	.st17{fill:none;stroke:#C8495B;stroke-width:4;stroke-linejoin:round;stroke-miterlimit:10;}
	.st18{fill:none;stroke:#301C47;stroke-width:2;stroke-linecap:round;stroke-linejoin:round;stroke-miterlimit:10;}
	.st19{fill:none;stroke:#301C47;stroke-width:4;stroke-linecap:round;stroke-linejoin:round;stroke-miterlimit:10;}
	.st20{fill:url(#SVGID_3_);}
	.st21{fill:url(#SVGID_4_);}
	.st22{fill:none;stroke:#F4A04D;stroke-width:4;stroke-miterlimit:10;}
	.st23{fill:none;stroke:#C8495B;stroke-width:3;stroke-linecap:round;stroke-miterlimit:10;}
	.st24{fill:url(#SVGID_5_);}
</style>
<metadata>
	<sfw  xmlns="&ns_sfw;">
		<slices></slices>
		<sliceSourceBounds  bottomLeftOrigin="true" height="989.2" width="1239.2" x="100.6" y="-5.4"></sliceSourceBounds>
	</sfw>
</metadata>
<polygon class="st0" points="1082.5,727.2 1096.2,734.1 1090.5,752.1 1068.7,747.8 "/>
<line class="st1" x1="251.8" y1="505.7" x2="251.8" y2="603.8"/>
<line class="st1" x1="120.8" y1="431.2" x2="120.8" y2="529.2"/>
<path class="st2" d="M31.5,513l9,9.9c3.6,4,8,6.5,11.6,6.6l8.5,0.3l8.4,9.4c3.7,4.1,8.1,6.6,11.7,6.8l8.4,0.3l8.4,9.5
	c3.7,4.1,8.1,6.6,11.7,6.8l8.4,0.3l8.4,9.5c3.7,4.1,8.1,6.6,11.7,6.8l8.4,0.3l8.4,9.5c3.7,4.1,8.1,6.6,11.7,6.8l8.4,0.3l8.4,9.5
	c3.7,4.1,8.1,6.6,11.7,6.8l8.4,0.3l8.4,9.5c3.7,4.1,8.1,6.6,11.7,6.8l8.4,0.3l8.4,9.5c3.7,4.1,8.1,6.6,11.7,6.8l8.4,0.3l8.4,9.5
	c3.7,4.1,8.1,6.6,11.7,6.8l8.4,0.3l8.4,9.5c3.7,4.1,8.1,6.6,11.7,6.8l8.4,0.3l13.6,15.6"/>
<polyline class="st3" points="595.3,697 459,618.2 386.1,660.4 3,438.4 "/>
<path class="st4" d="M387.5,446.5l43.4-25.1c23.2-13.4,52.1,3.3,52.1,30.1V506c0,12.4-6.6,23.9-17.4,30.1l-43.4,25.1
	c-23.2,13.4-52.1-3.3-52.1-30.1v-54.5C370.2,464.2,376.8,452.7,387.5,446.5z"/>
<line class="st5" x1="444.8" y1="526.4" x2="467.5" y2="539.7"/>
<polyline class="st6" points="467.5,539.7 513.7,565.8 459.8,596.9 549.7,648.8 "/>
<g>
	<path class="st0" d="M408.6,491.7c0,0,0.7-29.5,1.9-73.7c0.3-11.1,0.6-23,0.9-35.7c0.1-3.2,0.2-6.4,0.2-9.6c0-0.8,0-1.6,0.1-2.4
		v-1.2c0-0.5,0,0.5,0,0.3v-0.2v-0.3v-0.6c0-1.6,0-3.3,0-5c-0.2-4.9-1-10.9-2.4-16.6s-3.5-11.4-6.3-16.8s-6.2-10.6-10.2-15.4
		s-8.6-9.2-13.7-13c-1.2-1-2.6-1.8-3.9-2.7c-0.7-0.5-1.3-0.9-2-1.4l-2.3-1.5c-3.1-1.9-6.3-3.9-9.4-5.8
		c-12.5-7.8-25.1-15.5-37.4-23.2l-0.6-0.4c0.6,0.3,0.1,0,0.2,0.1l-0.1-0.1l-0.3-0.2l-1.2-0.7l-0.3-0.2l-0.2-0.1l-0.3-0.2l-0.9-0.1
		c-1.1-0.5-2.3-0.9-3.4-1.2c-2.3-0.6-4.8-0.9-7.2-0.7c-2.4,0.2-4.9,0.7-7.1,1.7c-2.3,0.9-4.4,2.2-6.3,3.8c-3.8,3.1-6.4,7.4-7.6,12
		c-0.2,0.6-0.2,1.2-0.4,1.8c-0.1,0.6-0.2,1.2-0.3,1.8c0,0.6-0.1,1.2-0.1,1.8c0,0.8,0,1.6-0.1,2.4c-0.1,3.3-0.2,6.5-0.2,9.6
		c-0.3,12.7-0.6,24.7-0.9,35.7c-1.1,44.2-1.9,73.7-1.9,73.7c-0.1,3.3-2.9,6-6.2,5.9c-3.2-0.1-5.8-2.7-5.9-5.9c0,0-0.7-29.5-1.9-73.7
		c-0.3-11.1-0.6-23-0.9-35.7c-0.1-3.2-0.2-6.4-0.2-9.6c0-0.8,0-1.6-0.1-2.4c0-1,0-2,0-3.1c0.1-1,0.2-2.1,0.3-3.1
		c0.2-1,0.3-2.1,0.5-3.1c1.6-8.4,6.1-16.5,12.6-22.6c3.3-3.1,7-5.6,11.2-7.6c4.1-2,8.6-3.3,13.3-3.9c4.6-0.6,9.5-0.4,14.1,0.6
		c2.3,0.5,4.6,1.2,6.9,2l1.8,0.8l0.9,0.4l0.4,0.2l0.3,0.2l1.2,0.6l0.3,0.2l0.2,0.1c0.2,0.1-0.2-0.1,0.5,0.3l0.6,0.3
		c12.7,7,25.6,14.1,38.5,21.3c3.2,1.8,6.5,3.6,9.7,5.3l2.4,1.3c0.8,0.5,1.8,1,2.6,1.6c1.8,1.1,3.6,2.1,5.3,3.3
		c6.9,4.6,13.3,10,18.9,16.1s10.5,12.7,14.6,19.8c4.1,7,7.3,14.5,9.6,22.1c2.3,7.7,3.8,15.1,4.6,23.4c0.1,1.7,0.2,3.3,0.3,5v0.6v0.3
		v0.2v0.6v1.2c0,0.8,0,1.6,0.1,2.4c0.1,3.3,0.2,6.5,0.2,9.6c0.3,12.7,0.6,24.7,0.9,35.7c1.1,44.2,1.9,73.7,1.9,73.7
		c0.3,9.9-7.6,18.2-17.5,18.5s-18.2-7.6-18.5-17.5C408.6,492.3,408.6,492,408.6,491.7z"/>
</g>
<path class="st4" d="M243.3,364.9l36.2-20.9c22.9-13.2,51.6,3.3,51.6,29.8V420c0,12.3-6.6,23.6-17.2,29.8l-36.2,20.9
	c-22.9,13.2-51.6-3.3-51.6-29.8v-46.1C226.1,382.4,232.7,371.1,243.3,364.9z"/>
<path class="st0" d="M260.5,445.3c-1.4,0-4.4-1.1-4.4-4.4v-46.1c0-1.6,0.8-3,2.2-3.8l36.2-20.9c0.8-0.4,1.4-0.6,2.1-0.6
	c1.4,0,4.4,1.1,4.4,4.4V420c0,1.6-0.8,3-2.2,3.8l-36.2,20.9C261.9,445.1,261.3,445.3,260.5,445.3z"/>
<path class="st0" d="M853.2,696.8L652.4,580.9c-2.8,3-117.3,69.4-175.1,102.9l-32.6-1.1v3.7c0,10.1,5.4,19.4,14.1,24.5l208,120.1
	c8.6,5,19.2,5,27.8,0l184.2-106.3c6.9-4,11.2-11.4,11.2-19.4v-7.1L853.2,696.8z"/>
<path class="st7" d="M652.4,560.9c-3.8,4-207.7,121.7-207.7,121.7l236.1,136.3l209.3-120.8L652.4,560.9z"/>
<linearGradient id="SVGID_1_" gradientUnits="userSpaceOnUse" x1="503.3445" y1="199.8105" x2="830.6829" y2="388.7994" gradientTransform="matrix(1 0 0 -1 0 983.9717)">
	<stop  offset="0.2776" style="stop-color:#C8495B;stop-opacity:0"/>
	<stop  offset="0.5469" style="stop-color:#C8495B;stop-opacity:0.5"/>
</linearGradient>
<path class="st8" d="M652.4,560.9c-3.8,4-207.7,121.7-207.7,121.7l236.1,136.3l209.3-120.8L652.4,560.9z"/>
<path class="st0" d="M546.3,718.4c5.7-3.3,44.4-25.8,48.7-28.5l57.6,33.3l-49,28.3L546.3,718.4z"/>
<polygon class="st7" points="652.4,335.7 890.1,472 890.1,698.1 652.4,560.9 "/>
<path class="st0" d="M671,548.5c-1.3-25.4,0.2-101.6,0-178.1l198.3,113.3V663L671,548.5z"/>
<path class="st9" d="M799.2,540c-0.4-33.7,0.1-53.8,0-76.9l52.2,29.9v77.2L799.2,540z"/>
<path class="st7" d="M690.5,473.9c-0.1-10.9,0-26.8,0.1-44.3c0.1-7.9,0.1-16.2,0.1-27.8l88.3,50.5V525L690.5,473.9z"/>
<g>
	<line class="st10" x1="755.4" y1="453.4" x2="769" y2="461.1"/>
	<line class="st10" x1="700.6" y1="422" x2="741.3" y2="445.3"/>
	<line class="st11" x1="769" y1="507.7" x2="700.4" y2="468.1"/>
	<line class="st10" x1="769" y1="475.3" x2="700.4" y2="435.7"/>
	<line class="st10" x1="715.8" y1="458.6" x2="700.4" y2="449.7"/>
	<line class="st10" x1="755.5" y1="481.5" x2="725.6" y2="464.2"/>
</g>
<path class="st4" d="M626.8,592.6c-1.3-25.4,0.2-101.6,0-178.1l193.8,113.3V707L626.8,592.6z"/>
<g>
	<line class="st12" x1="783.1" y1="539.9" x2="826.3" y2="565.1"/>
	<line class="st12" x1="783.1" y1="555.8" x2="834.9" y2="586"/>
	<line class="st12" x1="783.1" y1="571.7" x2="820" y2="593.3"/>
	<line class="st12" x1="797.2" y1="595.8" x2="783.1" y2="587.4"/>
	<line class="st12" x1="834.9" y1="618" x2="813.6" y2="605.1"/>
</g>
<g>
	<line class="st12" x1="591.2" y1="553.7" x2="634.4" y2="579"/>
	<line class="st12" x1="591.2" y1="569.7" x2="643" y2="599.9"/>
	<line class="st12" x1="591.2" y1="585.6" x2="628.1" y2="607.1"/>
	<line class="st12" x1="605.3" y1="609.6" x2="591.2" y2="601.3"/>
	<line class="st12" x1="643" y1="631.9" x2="621.7" y2="619"/>
</g>
<line class="st13" x1="799" y1="663.1" x2="651.3" y2="577.8"/>
<g>
	<path class="st7" d="M703.9,564.7l21.4-5.2c2.2-0.5,3-3.3,1.5-4.9l-21.4-23.4c-1.8-2-5.2-0.7-5.2,2v28.5
		C700.2,563.7,702,565.1,703.9,564.7z"/>
</g>
<polygon class="st0" points="973.5,415.6 929.3,441.1 929.3,633.1 973.5,546.2 1017.7,633.1 1017.7,441.1 "/>
<polygon class="st7" points="973.5,658.5 929.3,633 929.3,441.1 973.5,466.6 "/>
<polygon class="st4" points="973.5,658.5 1017.7,633 1017.7,441.1 973.5,466.6 "/>
<polygon class="st0" points="991.7,479.7 983.8,484.2 983.8,476.3 991.7,471.8 "/>
<polygon class="st0" points="991.7,503.4 983.8,508 983.8,500.1 991.7,495.5 "/>
<polygon class="st0" points="991.7,566.7 983.8,571.3 983.8,563.4 991.7,558.8 "/>
<polygon class="st0" points="991.7,603.5 983.8,608.1 983.8,600.2 991.7,595.6 "/>
<polygon class="st0" points="1007.5,558.8 999.6,563.4 999.6,555.5 1007.5,550.9 "/>
<polygon class="st0" points="1007.5,620.2 999.6,624.8 999.6,616.8 1007.5,612.3 "/>
<polygon class="st0" points="1007.5,529.1 999.6,533.7 999.6,525.8 1007.5,521.2 "/>
<polygon class="st4" points="955.4,530.4 963.3,535 963.3,527.1 955.4,522.5 "/>
<polygon class="st4" points="939.5,556.1 947.5,560.7 947.5,552.8 939.5,548.2 "/>
<polygon class="st4" points="939.5,494.8 947.5,499.3 947.5,491.4 939.5,486.9 "/>
<polygon class="st4" points="939.5,617.5 947.5,622.1 947.5,614.2 939.5,609.6 "/>
<g>
	<path class="st4" d="M970.5,437.6l1.2-44.8c0-1,0.9-1.8,1.9-1.8s1.8,0.8,1.8,1.8l1.2,44.8c0,1.7-1.3,3-2.9,3.1s-3-1.3-3.1-2.9
		C970.5,437.7,970.5,437.7,970.5,437.6z"/>
</g>
<path class="st13" d="M972,384.2"/>
<g>
	<path class="st7" d="M318.7,190.4c0,6.9-5.6,9.2-12.4,5.3c-6.9-4-12.4-12.8-12.4-19.6c0-6.9,5.6-9.2,12.4-5.3
		C313.2,174.8,318.7,183.6,318.7,190.4z"/>
	<g>
		<polygon class="st0" points="306.3,183.3 309.3,227 303.3,227 		"/>
	</g>
</g>
<path class="st7" d="M766.9,641c-1.9-5.1-6.2-9.3-9.6-9.3s-4.5,4.2-2.6,9.3s6.2,9.3,9.6,9.3S768.8,646.2,766.9,641z"/>
<g>
	<path class="st4" d="M75.5,277.9l13.4-29.4l13.4,44.9c3.4,11.2-3.5,17.1-13.4,11.4l0,0C79.1,299.1,72.2,285.3,75.5,277.9z"/>
	<g>
		<polygon class="st0" points="88.9,287.7 91.9,328.5 85.9,328.5 		"/>
	</g>
	<g>
		<polygon class="st0" points="89.3,310.3 105.6,315.7 88.6,313.2 		"/>
	</g>
</g>
<path class="st0" d="M468.4,508.1c0,3.3-2.7,7.6-6,9.5c-3.3,1.9-6,0.8-6-2.5s2.7-7.6,6-9.5C465.7,503.7,468.4,504.8,468.4,508.1z"/>
<g>
	<path class="st4" d="M706,720.3h-11.6V704c0-3.2,2.6-5.8,5.8-5.8l0,0c3.2,0,5.8,2.6,5.8,5.8V720.3z"/>
	<circle class="st0" cx="700.5" cy="692.5" r="4.6"/>
	<path class="st0" d="M700.2,745.5L700.2,745.5c-3.2,0-5.8-2.6-5.8-5.8v-19.5h11.5v19.5C706,743,703.4,745.5,700.2,745.5z"/>
</g>
<g>
	<path class="st4" d="M364.7,598.9h-10v-14.1c0-2.8,2.2-5,5-5l0,0c2.8,0,5,2.2,5,5V598.9z"/>
	<circle class="st7" cx="360" cy="574.9" r="4"/>
	<path class="st0" d="M359.7,620.9L359.7,620.9c-2.8,0-5-2.2-5-5V599h10v16.9C364.7,618.6,362.5,620.9,359.7,620.9z"/>
</g>
<g>
	<path class="st7" d="M586.3,390.7h-6.8v-9.6c0-1.9,1.5-3.4,3.4-3.4l0,0c1.9,0,3.4,1.5,3.4,3.4L586.3,390.7L586.3,390.7z"/>
	<circle class="st4" cx="583.1" cy="374.4" r="2.7"/>
	<path class="st0" d="M582.9,405.6L582.9,405.6c-1.9,0-3.4-1.5-3.4-3.4v-11.5h6.8v11.5C586.3,404.1,584.8,405.6,582.9,405.6z"/>
</g>
<g>
	<path class="st7" d="M66.4,400.2h-6.8v-9.6c0-1.9,1.5-3.4,3.4-3.4l0,0c1.9,0,3.4,1.5,3.4,3.4C66.4,390.6,66.4,400.2,66.4,400.2z"/>
	<circle class="st4" cx="63.2" cy="383.9" r="2.7"/>
	<path class="st0" d="M63,415L63,415c-1.9,0-3.4-1.5-3.4-3.4v-11.5h6.8v11.5C66.4,413.5,64.9,415,63,415z"/>
</g>
<g>
	<path class="st7" d="M1050.5,635.6h-8v-11.3c0-2.2,1.8-4,4-4l0,0c2.2,0,4,1.8,4,4V635.6z"/>
	<circle class="st0" cx="1046.7" cy="616.3" r="3.2"/>
	<path class="st4" d="M1046.5,653.1L1046.5,653.1c-2.2,0-4-1.8-4-4v-13.5h8v13.5C1050.5,651.3,1048.8,653.1,1046.5,653.1z"/>
</g>
<g>
	<path class="st7" d="M343.9,479.8h-8v-11.3c0-2.2,1.8-4,4-4l0,0c2.2,0,4,1.8,4,4V479.8z"/>
	<circle class="st0" cx="340.1" cy="460.5" r="3.2"/>
	<path class="st4" d="M339.9,497.3L339.9,497.3c-2.2,0-4-1.8-4-4v-13.5h8v13.5C343.9,495.5,342.1,497.3,339.9,497.3z"/>
</g>
<g>
	<path class="st0" d="M173.8,424.3h-8V413c0-2.2,1.8-4,4-4l0,0c2.2,0,4,1.8,4,4V424.3z"/>
	<circle class="st4" cx="170" cy="405" r="3.2"/>
	<path class="st7" d="M169.8,441.8L169.8,441.8c-2.2,0-4-1.8-4-4v-13.5h8v13.5C173.8,440,172,441.8,169.8,441.8z"/>
</g>
<g>
	<polygon class="st4" points="617.5,327.7 608.1,340.4 602.2,338.6 605.4,323 	"/>
	<polygon class="st4" points="417.6,129 439.8,129 442.7,134.3 429.4,143.2 	"/>
	<path class="st4" d="M443,129.9l167.3,96.6c5.8,3.3,9.4,9.5,9.4,16.2v79.4c0,6.5-7,10.5-12.6,7.3L432.4,228.6V136
		C432.4,130.6,438.3,127.2,443,129.9z"/>
	<path class="st0" d="M420.9,129.8L599.7,233c6.3,3.6,10.2,10.3,10.2,17.6V335c0,7-7.6,11.5-13.7,7.9l-178.4-103
		c-4.9-2.8-7.9-8-7.9-13.7v-90C409.8,130.5,416,127,420.9,129.8z"/>
	<path class="st7" d="M538.2,236.4l-141.1-81.5c-3.2-1.9-7.3,0.5-7.3,4.2v71.2c0,5.7,3.1,11.1,8,13.9l141.1,81.5
		c3.2,1.9,7.3-0.5,7.3-4.2v-71.2C546.2,244.6,543.2,239.3,538.2,236.4z"/>
	
		<linearGradient id="SVGID_2_" gradientUnits="userSpaceOnUse" x1="342.7873" y1="689.2117" x2="545.7649" y2="806.4009" gradientTransform="matrix(1 0 0 -1 0 983.9717)">
		<stop  offset="0.4453" style="stop-color:#C8495B;stop-opacity:0"/>
		<stop  offset="1" style="stop-color:#C8495B;stop-opacity:0.5"/>
	</linearGradient>
	<polygon class="st14" points="427.1,144.9 339.8,122.8 339.8,289.6 496.2,379.9 576.2,316.4 576.2,230.3 	"/>
	<path class="st4" d="M598.3,289.5c1.7,2.9,0.7,5.2-2.2,5.2s-6.5-2.3-8.2-5.2c-1.7-2.9-0.7-5.2,2.2-5.2S596.6,286.6,598.3,289.5z"/>
	<line class="st10" x1="517.3" y1="294" x2="414.8" y2="234.8"/>
	<g>
		<path class="st4" d="M461.3,241.6l14.8-3.6c1.5-0.4,2.1-2.3,1-3.4l-14.7-16.2c-1.3-1.4-3.6-0.5-3.6,1.4v19.8
			C458.7,241,460,242,461.3,241.6z"/>
	</g>
	<path class="st4" d="M447.1,251.3c-1.3-3.6-4.3-6.5-6.6-6.5c-2.3,0-3.1,2.9-1.8,6.5s4.3,6.5,6.6,6.5
		C447.7,257.8,448.5,254.9,447.1,251.3z"/>
	<g>
		<line class="st9" x1="523" y1="252.6" x2="529" y2="250.1"/>
		<line class="st9" x1="529" y1="256.1" x2="523" y2="246.6"/>
	</g>
</g>
<g>
	<path class="st4" d="M420.2,719.2c0,13.8-11.2,18.5-25,10.6c-13.8-8-25-25.6-25-39.4c0-13.8,11.2-18.5,25-10.6
		C409,687.7,420.2,705.4,420.2,719.2z"/>
	<g>
		<polygon class="st0" points="395.2,704.8 398.2,752.4 392.2,752.4 		"/>
	</g>
</g>
<g>
	<path class="st7" d="M546.5,438.2c0,11.3-9.2,15.2-20.5,8.7s-20.5-21-20.5-32.3s9.2-15.2,20.5-8.7
		C537.3,412.5,546.5,426.9,546.5,438.2z"/>
	<g>
		<polygon class="st0" points="526,426.4 529,495.4 523,495.4 		"/>
	</g>
</g>
<line class="st1" x1="238.5" y1="513.4" x2="238.5" y2="611.5"/>
<path class="st15" d="M120.8,529.2"/>
<line class="st16" x1="251.8" y1="520.7" x2="238.5" y2="528.4"/>
<line class="st16" x1="251.8" y1="535.9" x2="238.5" y2="543.6"/>
<line class="st16" x1="251.8" y1="551.2" x2="238.5" y2="558.8"/>
<line class="st16" x1="120.8" y1="447.9" x2="107.5" y2="455.6"/>
<line class="st16" x1="120.8" y1="462.5" x2="107.5" y2="470.2"/>
<line class="st16" x1="120.8" y1="477.1" x2="107.5" y2="484.8"/>
<path class="st17" d="M107.5,536.9"/>
<line class="st1" x1="107.5" y1="536.9" x2="107.5" y2="438.8"/>
<path class="st18" d="M42.9,437.4c-0.6-0.8-1.1-1.5-1.6-2.3l0,0"/>
<g>
	<path class="st0" d="M307,590.9c-1.7-1.5-3.2-3.2-4.6-4.9c-0.7-0.9-1.3-1.8-1.9-2.8l-1.7-2.7l-6.8-10.9l-13.6-21.9l-27-43.7
		l2.1,0.6l-20.3,9.3l-2.5,1.2l-0.4,0.2l-0.3,0.1l-0.6,0.3l-1.3,0.5c-0.9,0.3-1.7,0.7-2.6,1l-2.8,0.8c-1.9,0.6-3.7,0.9-5.6,1.3
		c-0.9,0.2-1.9,0.3-2.8,0.4l-2.9,0.3c-1,0-1.9,0-2.9,0.1h-1.4c-0.5,0-1,0-1.4,0l-2.9-0.2c-0.5,0-1-0.1-1.4-0.1l-1.4-0.2l-2.8-0.5
		c-0.9-0.2-1.9-0.5-2.8-0.7c-0.9-0.3-1.9-0.4-2.8-0.8l-2.7-0.9c-0.5-0.2-0.9-0.3-1.4-0.5l-1.3-0.6l-2.6-1.2
		c-0.9-0.4-1.7-0.9-2.5-1.4c-0.8-0.5-1.7-0.9-2.5-1.4c-3.2-2.1-6.3-4.4-8.9-7.2c-0.7-0.7-1.4-1.3-2-2l-1.8-2.2
		c-1.3-1.4-2.3-3-3.4-4.6c-0.6-0.8-1.1-1.6-1.5-2.4l-1.5-2.4l-2.9-4.8l-11.8-19l-23.6-38l1.2,0.4l-38,17.5c-0.8,0.4-1.5,0.7-2.4,1.1
		c-0.8,0.3-1.6,0.7-2.4,1c-1.7,0.6-3.4,1.1-5.2,1.4s-3.5,0.5-5.3,0.5c-0.9,0-1.8,0-2.7-0.1l-1.3-0.1c-0.4-0.1-0.9-0.1-1.3-0.2
		l-1.3-0.2l-1.3-0.3c-0.9-0.2-1.7-0.5-2.6-0.7c-1.7-0.5-3.3-1.3-4.9-2.1c-0.8-0.4-1.5-0.9-2.3-1.3c-0.8-0.5-1.5-1-2.2-1.5
		s-1.4-1.1-2.1-1.7l-1.9-1.8c-0.3-0.3-0.3-0.7,0-1s0.7-0.3,0.9,0l0,0l1.9,1.8c0.7,0.5,1.3,1.1,2,1.6s1.4,1,2.1,1.4s1.5,0.9,2.2,1.3
		c1.5,0.8,3.1,1.4,4.7,1.9c0.8,0.3,1.6,0.5,2.5,0.7l1.2,0.3l1.3,0.2c0.4,0.1,0.8,0.1,1.3,0.2l1.3,0.1c0.8,0.1,1.7,0.1,2.5,0.1
		c1.7,0,3.4-0.2,5.1-0.5c1.7-0.3,3.3-0.8,4.9-1.3c0.8-0.3,1.6-0.7,2.4-1c0.7-0.3,1.6-0.7,2.3-1.1l37.8-17.7c0.4-0.2,1,0,1.2,0.4l0,0
		l23.6,37.7l11.9,18.9l3,4.7l1.5,2.4c0.5,0.8,1,1.6,1.5,2.3c1.1,1.5,2,3,3.3,4.4l1.8,2.1c0.6,0.7,1.3,1.3,1.9,1.9
		c2.6,2.6,5.5,4.8,8.5,6.8c0.8,0.5,1.6,0.9,2.4,1.4c0.8,0.4,1.6,0.9,2.4,1.3l2.5,1.1l1.2,0.6c0.4,0.2,0.9,0.3,1.3,0.4l2.6,0.9
		c0.9,0.3,1.8,0.5,2.6,0.7c0.9,0.2,1.8,0.5,2.6,0.6l2.7,0.4l1.3,0.2c0.4,0.1,0.9,0.1,1.4,0.1l2.7,0.2c0.5,0,0.9,0.1,1.4,0h1.4
		c0.9,0,1.8,0,2.7-0.1l2.7-0.3c0.9-0.1,1.8-0.2,2.7-0.4c1.8-0.4,3.6-0.7,5.3-1.3l2.6-0.8c0.9-0.3,1.7-0.7,2.6-1l1.3-0.5l0.6-0.3
		l0.3-0.1l0.3-0.1l2.5-1.2l20.3-9.5c0.7-0.4,1.6-0.1,2.1,0.6l0,0l27.3,43.5l13.7,21.7l6.8,10.9l1.7,2.7c0.5,0.8,1.1,1.7,1.8,2.5
		c1.3,1.6,2.6,3,4.2,4.4c0.8,0.7,0.9,2,0.2,2.8C309.1,591.6,307.8,591.6,307,590.9L307,590.9L307,590.9z"/>
</g>
<path class="st19" d="M318.8,595.8c-2-0.8-3.9-1.7-5.7-2.9"/>
<path class="st19" d="M329.5,598.2c-1.9-0.1-3.8-0.4-5.6-0.8"/>
<line class="st18" x1="26.7" y1="440.7" x2="24.7" y2="437.4"/>
<path class="st18" d="M30.4,446c-0.7-0.8-1.3-1.7-1.9-2.6"/>
<g>
	<path class="st0" d="M298,601.9c-1.9-1.3-3.8-2.8-5.5-4.4c-1.7-1.7-3.2-3.5-4.6-5.4c-0.3-0.5-0.7-1-1-1.5l-0.9-1.4l-1.8-2.9
		l-3.6-5.7l-14.2-22.9L238,511.8l2,0.6l-20.3,9.3l-2.5,1.2l-0.4,0.2l-0.3,0.1l-0.6,0.3l-1.3,0.5c-0.9,0.3-1.7,0.7-2.6,1l-2.8,0.8
		c-1.9,0.6-3.7,0.9-5.6,1.3c-0.9,0.2-1.9,0.3-2.8,0.4l-2.9,0.3c-1,0-1.9,0-2.9,0.1h-1.4c-0.5,0-1,0-1.4,0l-2.9-0.2
		c-0.5,0-1-0.1-1.4-0.1l-1.4-0.2l-2.8-0.5c-0.9-0.2-1.9-0.5-2.8-0.7c-0.9-0.3-1.9-0.4-2.8-0.8l-2.7-0.9c-0.5-0.2-0.9-0.3-1.4-0.5
		l-1.3-0.6l-2.6-1.2c-0.9-0.4-1.7-0.9-2.5-1.4c-0.8-0.5-1.7-0.9-2.5-1.4c-3.2-2.1-6.3-4.4-8.9-7.2c-0.7-0.7-1.4-1.3-2-2l-1.8-2.2
		c-1.3-1.4-2.3-3-3.4-4.6c-0.6-0.8-1.1-1.6-1.5-2.4l-1.5-2.4l-2.9-4.8l-11.8-19l-23.6-38l1.2,0.4l-38,17.5c-0.8,0.4-1.5,0.7-2.4,1.1
		c-0.8,0.3-1.6,0.7-2.4,1c-1.7,0.6-3.4,1-5.2,1.3s-3.5,0.5-5.3,0.5c-0.9,0-1.8,0-2.7-0.1l-1.3-0.1l-1.3-0.2L49,458l-1.3-0.3
		c-0.9-0.2-1.7-0.5-2.6-0.7c-1.7-0.5-3.3-1.3-4.9-2.1c-0.8-0.4-1.5-0.9-2.3-1.3c-0.8-0.5-1.5-1-2.2-1.5s-1.4-1.1-2.1-1.7l-1.9-1.9
		c-0.3-0.3-0.3-0.7,0-1s0.7-0.3,0.9,0l0,0l1.9,1.8c0.7,0.5,1.3,1.1,2,1.6s1.4,1,2.1,1.4s1.5,0.9,2.2,1.3c1.5,0.8,3.1,1.4,4.7,1.9
		c0.8,0.3,1.6,0.5,2.5,0.7l1.2,0.3l1.3,0.2l1.3,0.2l1.3,0.1c0.8,0.1,1.7,0.1,2.5,0.1c1.7,0,3.4-0.2,5.1-0.5s3.3-0.8,4.9-1.3
		c0.8-0.3,1.6-0.7,2.4-1c0.7-0.3,1.6-0.7,2.3-1.1l37.8-17.7c0.4-0.2,1,0,1.2,0.4l0,0l23.8,37.9l11.9,18.9l3,4.7l1.5,2.4
		c0.5,0.8,1,1.6,1.5,2.3c1.1,1.5,2,3,3.3,4.4l1.8,2.1c0.6,0.7,1.3,1.3,1.9,1.9c2.6,2.6,5.5,4.8,8.5,6.8c0.8,0.5,1.6,0.9,2.4,1.4
		c0.8,0.4,1.6,0.9,2.4,1.3l2.5,1.1l1.2,0.6c0.4,0.2,0.9,0.3,1.3,0.4l2.6,0.9c0.9,0.3,1.8,0.5,2.6,0.7c0.9,0.2,1.8,0.5,2.6,0.6
		l2.7,0.4l1.3,0.2c0.4,0.1,0.9,0.1,1.4,0.1l2.7,0.2c0.5,0,0.9,0.1,1.4,0h1.4c0.9,0,1.8,0,2.7-0.1l2.7-0.3c0.9-0.1,1.8-0.2,2.7-0.4
		c1.8-0.4,3.6-0.7,5.3-1.3l2.6-0.8c0.9-0.3,1.7-0.7,2.6-1l1.3-0.5l0.6-0.3l0.3-0.1l0.3-0.1l2.5-1.2l20.3-9.5c0.7-0.3,1.6-0.1,2,0.6
		l0,0l28.7,45.7l14.4,22.8l3.6,5.7l1.8,2.9l0.9,1.4c0.3,0.4,0.6,0.9,0.9,1.3c1.2,1.7,2.6,3.4,4.1,4.8c1.5,1.5,3.2,2.8,5,4
		c0.9,0.6,1.2,1.8,0.6,2.8C300.3,602.2,299,602.5,298,601.9L298,601.9L298,601.9z"/>
</g>
<path class="st19" d="M306.3,603.8c-1-0.4-1.9-0.7-2.9-1.2"/>
<g>
	<path class="st11" d="M348.7,595.5"/>
</g>
<linearGradient id="SVGID_3_" gradientUnits="userSpaceOnUse" x1="95" y1="913.1287" x2="289.6" y2="913.1287" gradientTransform="matrix(1 0 0 -1 0 983.9717)">
	<stop  offset="0" style="stop-color:#C8495B;stop-opacity:0.2"/>
	<stop  offset="1" style="stop-color:#C8495B;stop-opacity:0.5"/>
</linearGradient>
<path class="st20" d="M289.3,141.7c0.2-1.3,0.3-2.7,0.3-4.2c0-19.8-16-45-35.8-56.4c-6.8-3.9-13.2-5.7-18.7-5.5
	C229,50,208.7,22.1,184.7,8.2c-28.9-16.8-52.3-6.9-52.3,22c0,1.4,0.1,2.8,0.2,4.2c-3.7-4.2-8-7.9-12.5-10.5
	c-12.3-7.1-22.5-4.4-25.1,5.6L289.3,141.7z"/>
<linearGradient id="SVGID_4_" gradientUnits="userSpaceOnUse" x1="2214.5549" y1="667.027" x2="2281.876" y2="628.1592" gradientTransform="matrix(-1 0 0 -1 3012.0073 983.9717)">
	<stop  offset="0" style="stop-color:#C8495B;stop-opacity:0.2"/>
	<stop  offset="1" style="stop-color:#C8495B;stop-opacity:0.5"/>
</linearGradient>
<path class="st21" d="M703.5,309.7c0-0.3,0-0.5,0-0.8c0-11.1,9-14.9,20-8.5c5.9,3.4,11.3,9.1,14.9,15.3
	c2.9-17.7,19.5-22.9,39.6-11.3c22.1,12.8,40.1,41.1,40.1,63.2c0,2.8-0.3,5.4-0.8,7.7L703.5,309.7z"/>
<path class="st22" d="M595.3,486l13.7-6.6c2.3-1.1,6.2,1.1,8.5,4.9l8.1,13.3c2.3,3.8,6.3,6,8.5,4.9l0,0c2.1-1.1,5.7,0.8,8.1,4.2
	l11.2,16.3c2.3,3.3,5.8,5.2,7.9,4.3l8.7-3.7"/>
<path class="st7" d="M657.7,496.9c0,2.8-2.2,3.7-5,2.1s-5-5.1-5-7.9s2.2-3.7,5-2.1S657.7,494.1,657.7,496.9z"/>
<g>
	<g>
		<polygon class="st4" points="87.2,201.4 191.3,261.6 191.3,179 87.2,118.8 		"/>
		<polygon class="st7" points="225,159.5 120.9,99.3 87.2,118.8 191.3,179 		"/>
		<polygon class="st0" points="225,242.1 191.3,261.6 191.3,179 225,159.5 		"/>
	</g>
	<polygon class="st0" points="107.9,156.7 97.8,150.9 97.8,140.9 107.9,146.6 	"/>
	<polygon class="st0" points="107.9,176.7 97.8,171 97.8,160.9 107.9,166.7 	"/>
	<polygon class="st0" points="176.1,234.9 166.1,229.2 166.1,219.1 176.1,224.9 	"/>
	<polygon class="st0" points="176.1,214.9 166.1,209.1 166.1,199.1 176.1,204.8 	"/>
	<polygon class="st0" points="144,215.9 134,210.1 134,200.1 144,205.8 	"/>
	<polygon class="st4" points="205.2,253.7 215.2,247.9 215.2,223.9 205.2,229.7 	"/>
	<polygon class="st0" points="144,175.7 134,170 134,159.9 144,165.7 	"/>
	<path class="st7" d="M215.2,197.2c0,2.8-2.2,6.3-5,7.9s-5,0.7-5-2.1s2.2-6.3,5-7.9C212.9,193.4,215.2,194.4,215.2,197.2z"/>
</g>
<g>
	<path class="st4" d="M928.1,928.1l16.2-35.5l16.2,54.2c4.1,13.6-4.3,20.6-16.2,13.7l0,0C932.3,953.6,924,937,928.1,928.1z"/>
	<g>
		<polygon class="st0" points="944.3,940 947.3,989.2 941.3,989.2 		"/>
	</g>
</g>
<g>
	<path class="st7" d="M1133.5,830.9h-8v-11.3c0-2.2,1.8-4,4-4l0,0c2.2,0,4,1.8,4,4V830.9z"/>
	<circle class="st0" cx="1129.8" cy="811.6" r="3.2"/>
	<path class="st4" d="M1129.6,848.5L1129.6,848.5c-2.2,0-4-1.8-4-4V831h8v13.5C1133.5,846.7,1131.8,848.5,1129.6,848.5z"/>
</g>
<g>
	<line class="st12" x1="1075.5" y1="686" x2="1077.6" y2="684.8"/>
	<line class="st12" x1="1066" y1="691.5" x2="1072" y2="688"/>
	<line class="st12" x1="874.4" y1="802.1" x2="1061.5" y2="694.1"/>
	<line class="st12" x1="867" y1="806.3" x2="870.8" y2="804.2"/>
	<line class="st12" x1="1073.7" y1="711.5" x2="1080.8" y2="707.4"/>
	<line class="st12" x1="847.1" y1="842.3" x2="1069.1" y2="714.1"/>
	<line class="st12" x1="837.1" y1="848.1" x2="843" y2="844.7"/>
	<line class="st12" x1="825.2" y1="855" x2="832.5" y2="850.8"/>
	<g>
		<path class="st0" d="M939.4,783.1c0,3.5-2.9,8-6.4,10.1c-3.5,2-6.4,0.8-6.4-2.7s2.9-8,6.4-10.1
			C936.6,778.4,939.4,779.6,939.4,783.1z"/>
		<path class="st0" d="M987.3,756.1c0,3.5-2.9,8-6.4,10.1s-6.4,0.8-6.4-2.7s2.9-8,6.4-10.1S987.3,752.6,987.3,756.1z"/>
		<path class="st0" d="M963.8,769c0,3.5-2.9,8-6.4,10.1c-3.5,2-6.4,0.8-6.4-2.7s2.9-8,6.4-10.1C961,764.3,963.8,765.5,963.8,769z"/>
		<polygon class="st0" points="894.9,738.1 967.1,696.4 991.4,710.4 919.1,752.1 		"/>
		<polygon class="st7" points="991.4,752.9 919.1,794.7 919.1,752.1 991.4,710.4 		"/>
		<polygon class="st4" points="894.9,780.7 919.1,794.7 919.1,752.1 894.9,738.1 		"/>
		<polygon class="st4" points="939.7,764.4 929.3,770.4 929.3,754.8 939.7,748.8 		"/>
		<polygon class="st4" points="954.7,754.5 944.3,760.5 944.3,746.3 954.7,740.3 		"/>
		<polygon class="st4" points="969.6,746 959.2,752 959.2,737.8 969.6,731.8 		"/>
		<polygon class="st0" points="911.8,770.3 901.4,764.3 901.4,750.1 911.8,756.1 		"/>
		<polygon class="st4" points="984.5,737.4 974.1,743.4 974.1,729.1 984.5,723.1 		"/>
		<path class="st7" d="M909.2,777.1c-0.8-2.2-2.6-4-4.1-4s-1.9,1.8-1.1,4c0.8,2.2,2.6,4,4.1,4C909.5,781,910,779.2,909.2,777.1z"/>
	</g>
</g>
<g>
	<path class="st0" d="M855.4,875.9h-8v-11.3c0-2.2,1.8-4,4-4l0,0c2.2,0,4,1.8,4,4V875.9z"/>
	<circle class="st4" cx="851.6" cy="856.7" r="3.2"/>
	<path class="st7" d="M851.4,893.5L851.4,893.5c-2.2,0-4-1.8-4-4V876h8v13.5C855.4,891.7,853.6,893.5,851.4,893.5z"/>
</g>
<polygon class="st4" points="876,719.3 864.6,725.8 864.6,719.4 876,712.8 "/>
<line class="st18" x1="96.7" y1="441.5" x2="96.7" y2="492.6"/>
<line class="st18" x1="80.7" y1="448.5" x2="80.7" y2="482.9"/>
<line class="st18" x1="64.6" y1="456.8" x2="64.6" y2="473.8"/>
<line class="st18" x1="130.8" y1="472.8" x2="130.8" y2="511.6"/>
<line class="st18" x1="146.9" y1="497.8" x2="146.9" y2="520.1"/>
<line class="st18" x1="262.2" y1="547.7" x2="262.2" y2="588.6"/>
<line class="st18" x1="278.3" y1="571.5" x2="278.3" y2="597.1"/>
<line class="st18" x1="179.7" y1="524.5" x2="179.7" y2="540.4"/>
<line class="st18" x1="211.8" y1="524.5" x2="211.8" y2="558.8"/>
<line class="st18" x1="227.9" y1="516.6" x2="227.9" y2="568.7"/>
<line class="st18" x1="162.9" y1="516.6" x2="162.9" y2="531.2"/>
<line class="st18" x1="195.8" y1="527" x2="195.8" y2="550.1"/>
<path class="st4" d="M300.9,525.6c0-10.8,8.8-14.5,19.6-8.3c10.8,6.2,19.6,20.1,19.6,30.9L300.9,525.6z"/>
<path class="st4" d="M918.9,667.2c0-7.8,6.3-10.5,14.1-6s14.1,14.4,14.1,22.2L918.9,667.2z"/>
<path class="st7" d="M100,352.8c-0.3-10.8,8.3-14.8,19.3-8.9s20.2,19.5,20.5,30.3L100,352.8z"/>
<g>
	<polygon class="st0" points="1089.7,628.6 1203.7,694.4 1203.7,596.7 1089.7,530.9 	"/>
	<polygon class="st4" points="1069.7,573.7 1105.5,594.4 1105.5,563.7 1069.7,543 	"/>
	<g>
		<path class="st4" d="M1136.7,622.9l10.1-2.5c1.1-0.3,1.4-1.5,0.7-2.3l-10.1-11.1c-0.9-1-2.5-0.3-2.5,1v13.5
			C1134.9,622.5,1135.8,623.1,1136.7,622.9z"/>
	</g>
	<g>
		<polygon class="st7" points="1177.6,665.2 1239.2,700.8 1239.2,633.1 1177.6,597.5 		"/>
		<line class="st23" x1="1215.2" y1="672.2" x2="1191.7" y2="658.6"/>
		<line class="st23" x1="1199.3" y1="650.7" x2="1191.7" y2="646.3"/>
		<line class="st23" x1="1223" y1="664.4" x2="1207.3" y2="655.3"/>
		<line class="st23" x1="1223" y1="652.1" x2="1191.7" y2="634"/>
		<line class="st23" x1="1210.9" y1="632.7" x2="1191.7" y2="621.6"/>
		<line class="st23" x1="1223" y1="639.7" x2="1216.4" y2="635.9"/>
	</g>
</g>
<g>
	
		<linearGradient id="SVGID_5_" gradientUnits="userSpaceOnUse" x1="1381.4022" y1="648.287" x2="1368.2175" y2="671.1234" gradientTransform="matrix(-1 0 0 -1 1584.6029 983.9717)">
		<stop  offset="0" style="stop-color:#F4A04D;stop-opacity:0"/>
		<stop  offset="1" style="stop-color:#F4A04D;stop-opacity:0.5"/>
	</linearGradient>
	<polygon class="st24" points="172.8,318.1 233.6,353.3 203.2,305.3 	"/>
	<polyline class="st9" points="178.1,364.1 178.1,282 203.1,296.9 203.1,306.7 	"/>
	<polygon class="st0" points="193.3,309.5 213.1,320.9 203.2,305.3 	"/>
</g>
<path class="st13" d="M595.4,512c-0.5-9.7,0.1-38.8,0-68.1l74.1,43.3v68.5L595.4,512z"/>
<path class="st7" d="M775.4,775"/>
<path class="st7" d="M784.7,787.6"/>
<polygon class="st7" points="766.1,781.3 784.7,791.8 794,786.5 794,782.3 775.4,771.8 766.1,777.1 "/>
<polyline class="st3" points="788.7,786.2 844,819.9 763.9,867.3 849,916 1096.7,771.3 1194.8,828.8 1088,892.6 "/>
<polygon class="st0" points="1026.8,907.9 1035.9,917.1 1017.6,940.9 1005.6,934.9 "/>
<path class="st0" d="M1078.1,895.9l-66.7,38.5c-4.1,2.4-7.4,1-7.4-3.1V778.4c0-4.1,3.3-9.3,7.4-11.6l66.7-38.5
	c4.1-2.4,7.4-1,7.4,3.1v152.8C1085.5,888.3,1082.2,893.5,1078.1,895.9z"/>
<path class="st4" d="M1090.6,902.4l-66.7,38.5c-4.1,2.4-7.4,1-7.4-3.1V784.9c0-4.1,3.3-9.3,7.4-11.6l66.7-38.5
	c4.1-2.4,7.4-1,7.4,3.1v152.8C1098,894.8,1094.7,900,1090.6,902.4z"/>
<polygon class="st0" points="1025.4,902.9 1025.4,781.3 1089.1,744.5 1089.1,866.2 "/>
<polygon class="st7" points="1070.2,811.8 1070.2,771.9 1119.2,743.6 1119.2,783.5 "/>
<g>
	<line class="st23" x1="1105.2" y1="763.7" x2="1110.4" y2="760.7"/>
	<line class="st23" x1="1093.5" y1="770.5" x2="1100.2" y2="766.6"/>
	<line class="st23" x1="1079.4" y1="778.6" x2="1088" y2="773.6"/>
</g>
<path class="st0" d="M1066.2,899.2c0,3.3-2.6,7.4-5.9,9.3c-3.3,1.9-5.9,0.8-5.9-2.5s2.6-7.4,5.9-9.3
	C1063.5,894.8,1066.2,895.9,1066.2,899.2z"/>
<line class="st12" x1="1034.9" y1="874.5" x2="1079.6" y2="848.7"/>
<path class="st4" d="M1068,853.4c1.1-2.9,3.6-5.3,5.5-5.3s2.6,2.4,1.5,5.3c-1.1,2.9-3.6,5.3-5.5,5.3S1066.9,856.3,1068,853.4z"/>
<path class="st4" d="M1068.6,826.6l-13.7,16.2c-1.2,1.4-3.5,0.6-3.5-1.3V825c0-1.1,0.9-2,2-2l13.7,0.3
	C1068.8,823.4,1069.7,825.3,1068.6,826.6z"/>
<g>
	<path class="st23" d="M1078.5,793.1c3.2-1.9,5.3,1.5,8.5-0.5c3.2-1.9,1.1-5.4,4.3-7.3c3.2-1.9,5.3,1.5,8.5-0.5
		c3.2-1.9,1.1-5.4,4.3-7.3c3.2-1.9,5.3,1.5,8.5-0.5"/>
</g>
</svg>
