<?xml version="1.0" encoding="utf-8"?>
<!-- Generator: Adobe Illustrator 21.1.0, SVG Export Plug-In . SVG Version: 6.00 Build 0)  -->
<!DOCTYPE svg PUBLIC "-//W3C//DTD SVG 1.1//EN" "http://www.w3.org/Graphics/SVG/1.1/DTD/svg11.dtd" [
	<!ENTITY ns_extend "http://ns.adobe.com/Extensibility/1.0/">
	<!ENTITY ns_ai "http://ns.adobe.com/AdobeIllustrator/10.0/">
	<!ENTITY ns_graphs "http://ns.adobe.com/Graphs/1.0/">
	<!ENTITY ns_vars "http://ns.adobe.com/Variables/1.0/">
	<!ENTITY ns_imrep "http://ns.adobe.com/ImageReplacement/1.0/">
	<!ENTITY ns_sfw "http://ns.adobe.com/SaveForWeb/1.0/">
	<!ENTITY ns_custom "http://ns.adobe.com/GenericCustomNamespace/1.0/">
	<!ENTITY ns_adobe_xpath "http://ns.adobe.com/XPath/1.0/">
]>
<svg version="1.1" id="art" xmlns:x="&ns_extend;" xmlns:i="&ns_ai;" xmlns:graph="&ns_graphs;"
	 xmlns="http://www.w3.org/2000/svg" xmlns:xlink="http://www.w3.org/1999/xlink" x="0px" y="0px" width="2176.7px"
	 height="983.8px" viewBox="0 0 2176.7 983.8" style="enable-background:new 0 0 2176.7 983.8;" xml:space="preserve">
<style type="text/css">
	.st0{fill:url(#SVGID_1_);}
	.st1{fill:url(#SVGID_2_);}
	.st2{fill:url(#SVGID_3_);}
	.st3{fill:url(#SVGID_4_);}
	.st4{fill:url(#SVGID_5_);}
	.st5{fill:#F4A04D;}
	.st6{fill:#C8495B;}
	.st7{fill:url(#SVGID_6_);}
	.st8{fill:#301C47;}
	.st9{fill:url(#SVGID_7_);}
	.st10{fill:none;stroke:#F4A04D;stroke-width:3;stroke-linecap:round;stroke-miterlimit:10;}
	.st11{enable-background:new    ;}
	.st12{fill:#FFFFFF;}
	.st13{fill:url(#SVGID_8_);}
	.st14{fill:none;stroke:#C8495B;stroke-width:4;stroke-linecap:round;stroke-miterlimit:10;}
	.st15{fill:none;stroke:#C8495B;stroke-width:3;stroke-linecap:round;stroke-miterlimit:10;}
	.st16{fill:none;stroke:#301C47;stroke-width:3;stroke-linecap:round;stroke-miterlimit:10;}
	.st17{clip-path:url(#SVGID_10_);}
	.st18{fill:url(#SVGID_11_);}
	.st19{fill:url(#SVGID_12_);}
	.st20{fill:#2F1C46;}
	.st21{fill:none;stroke:#301C47;stroke-width:13;stroke-linecap:round;stroke-miterlimit:10;}
	.st22{fill:none;stroke:#C8495B;stroke-width:6;stroke-linecap:round;stroke-miterlimit:10;}
	.st23{fill:none;}
	.st24{fill:url(#SVGID_13_);}
	.st25{fill:url(#SVGID_14_);}
	.st26{fill:url(#SVGID_15_);}
	.st27{fill:url(#SVGID_16_);}
	.st28{fill:none;stroke:#301C47;stroke-width:4;stroke-linecap:round;stroke-miterlimit:10;}
	.st29{fill:url(#SVGID_17_);}
	.st30{fill:url(#SVGID_18_);}
	.st31{fill:none;stroke:#C8495B;stroke-width:4;stroke-linecap:round;stroke-linejoin:round;stroke-miterlimit:10;}
	.st32{fill:none;stroke:#C8495B;stroke-width:6;stroke-linecap:square;stroke-linejoin:round;stroke-miterlimit:10;}
	.st33{fill:none;stroke:#C8495B;stroke-width:2;stroke-linecap:round;stroke-linejoin:round;stroke-miterlimit:10;}
	.st34{fill:none;stroke:#301C47;stroke-width:7;stroke-linecap:round;stroke-miterlimit:10;}
	.st35{fill:none;stroke:#F4A04D;stroke-width:7;stroke-linecap:square;stroke-miterlimit:10;}
	.st36{fill:none;stroke:#301C47;stroke-width:7;stroke-linecap:square;stroke-miterlimit:10;}
	.st37{fill:none;stroke:#C8495B;stroke-width:6;stroke-linecap:round;stroke-linejoin:round;stroke-miterlimit:10;}
	.st38{fill:url(#SVGID_19_);}
	.st39{fill:url(#SVGID_20_);}
	.st40{fill:url(#SVGID_21_);}
	.st41{fill:url(#SVGID_22_);}
	.st42{fill:url(#SVGID_23_);}
	.st43{fill:url(#SVGID_24_);}
	.st44{fill:url(#SVGID_25_);}
	.st45{fill:url(#SVGID_26_);}
	.st46{fill:url(#SVGID_27_);}
	.st47{fill:url(#SVGID_28_);}
	.st48{fill:url(#SVGID_29_);}
	.st49{fill:url(#SVGID_30_);}
	.st50{fill:url(#SVGID_31_);}
	.st51{fill:url(#SVGID_32_);}
	.st52{fill:url(#SVGID_33_);}
	.st53{fill:url(#SVGID_34_);}
	.st54{fill:url(#SVGID_35_);}
	.st55{fill:url(#SVGID_36_);}
	.st56{fill:url(#SVGID_37_);}
	.st57{fill:url(#SVGID_38_);}
	.st58{fill:url(#SVGID_39_);}
	.st59{fill:url(#SVGID_40_);}
	.st60{fill:url(#SVGID_41_);}
	.st61{fill:url(#SVGID_42_);}
	.st62{fill:url(#SVGID_43_);}
	.st63{fill:url(#SVGID_44_);}
	.st64{fill:url(#SVGID_45_);}
	.st65{fill:url(#SVGID_46_);}
	.st66{fill:url(#SVGID_47_);}
	.st67{fill:url(#SVGID_48_);}
	.st68{fill:url(#SVGID_49_);}
	.st69{fill:url(#SVGID_50_);}
	.st70{fill:url(#SVGID_51_);}
	.st71{fill:url(#SVGID_52_);}
	.st72{fill:url(#SVGID_53_);}
	.st73{fill:url(#SVGID_54_);}
	.st74{fill:url(#SVGID_55_);}
	.st75{fill:url(#SVGID_56_);}
	.st76{fill:url(#SVGID_57_);}
	.st77{fill:url(#SVGID_58_);}
	.st78{fill:none;stroke:#301C47;stroke-width:6;stroke-linecap:round;stroke-miterlimit:10;}
	.st79{fill:none;stroke:#F4A04D;stroke-width:6;stroke-linecap:round;stroke-miterlimit:10;}
	.st80{fill:none;stroke:#F4A04D;stroke-width:5;stroke-linecap:round;stroke-miterlimit:10;}
	.st81{fill:url(#SVGID_59_);}
	.st82{fill:url(#SVGID_60_);}
	.st83{fill:none;stroke:#FFFFFF;stroke-width:6;stroke-linecap:round;stroke-miterlimit:10;}
	.st84{fill:url(#SVGID_61_);}
	.st85{fill:url(#SVGID_62_);}
	.st86{opacity:0.2;fill:none;stroke:#F4A04D;stroke-width:2;stroke-miterlimit:10;enable-background:new    ;}
	.st87{fill:none;stroke:#F4A04D;stroke-width:2;stroke-linecap:round;stroke-linejoin:round;stroke-miterlimit:10;}
	.st88{fill:none;stroke:#C8495B;stroke-width:3;stroke-linecap:round;stroke-linejoin:round;stroke-miterlimit:10;}
	.st89{fill:none;stroke:#301C47;stroke-width:3;stroke-linecap:round;stroke-linejoin:round;stroke-miterlimit:10;}
	.st90{fill:none;stroke:#F4A04D;stroke-width:4;stroke-linecap:round;stroke-miterlimit:10;}
	.st91{opacity:0.2;fill:none;stroke:#C8495B;stroke-width:3;stroke-linecap:round;stroke-miterlimit:10;enable-background:new    ;}
	.st92{fill:url(#SVGID_63_);}
	.st93{fill:none;stroke:#C8495B;stroke-width:2;stroke-miterlimit:10;}
	.st94{fill:none;stroke:#301C47;stroke-width:8;stroke-linecap:round;stroke-miterlimit:10;}
	.st95{fill:none;stroke:#C8495B;stroke-width:9;stroke-linecap:round;stroke-miterlimit:10;}
	.st96{fill:url(#SVGID_64_);}
	.st97{fill:url(#SVGID_65_);}
	.st98{fill:url(#SVGID_66_);}
	.st99{opacity:0.1;}
	.st100{fill:url(#SVGID_67_);}
</style>
<metadata>
	<sfw  xmlns="&ns_sfw;">
		<slices></slices>
		<sliceSourceBounds  bottomLeftOrigin="true" height="981.5" width="2167.7" x="0" y="0"></sliceSourceBounds>
	</sfw>
</metadata>
<g>
	<g>
		<g>
			
				<linearGradient id="SVGID_1_" gradientUnits="userSpaceOnUse" x1="624.0463" y1="546.05" x2="642.6628" y2="546.05" gradientTransform="matrix(1 0 0 -1 0 986)">
				<stop  offset="0.2776" style="stop-color:#C8495B"/>
				<stop  offset="0.5469" style="stop-color:#C8495B"/>
			</linearGradient>
			<polygon class="st0" points="642.7,444.1 625.1,454.5 624,435.7 641.8,425.4 			"/>
			
				<linearGradient id="SVGID_2_" gradientUnits="userSpaceOnUse" x1="355.4" y1="898.7" x2="375.0508" y2="898.7" gradientTransform="matrix(1 0 0 -1 0 986)">
				<stop  offset="0.2776" style="stop-color:#C8495B"/>
				<stop  offset="0.5469" style="stop-color:#C8495B"/>
			</linearGradient>
			<polygon class="st1" points="375,91.5 357.2,101.8 355.4,76.2 375.1,72.8 			"/>
			
				<linearGradient id="SVGID_3_" gradientUnits="userSpaceOnUse" x1="364.5" y1="726.6012" x2="648" y2="726.6012" gradientTransform="matrix(1 0 0 -1 0 986)">
				<stop  offset="0.2776" style="stop-color:#C8495B"/>
				<stop  offset="0.5469" style="stop-color:#C8495B"/>
			</linearGradient>
			<path class="st2" d="M628.3,444.8L379.7,300.4c-9.4-5.5-15.2-15.5-15.2-26.4V87c0-11.4,12.3-18.5,22.2-12.8l245.5,142.6
				c9.8,5.7,15.8,16.2,15.8,27.5v189.2C648,443.6,637.1,449.9,628.3,444.8z"/>
			<g>
				
					<linearGradient id="SVGID_4_" gradientUnits="userSpaceOnUse" x1="450.7916" y1="559.614" x2="491.4371" y2="630.014" gradientTransform="matrix(1 0 0 -1 0 986)">
					<stop  offset="0.2776" style="stop-color:#301C47"/>
					<stop  offset="1" style="stop-color:#C8495B"/>
				</linearGradient>
				<path class="st3" d="M445.1,423.1l-36.3-21c-3.8-2.2-3.8-7.7,0-9.9l73.1-41.7l56.5,32.6l-70.1,40
					C461.1,427.2,452.3,427.2,445.1,423.1z"/>
			</g>
			
				<linearGradient id="SVGID_5_" gradientUnits="userSpaceOnUse" x1="348.7" y1="719.9084" x2="632.2" y2="719.9084" gradientTransform="matrix(1 0 0 -1 0 986)">
				<stop  offset="0" style="stop-color:#DE7554"/>
				<stop  offset="1" style="stop-color:#F4A04D"/>
			</linearGradient>
			<path class="st4" d="M612.6,454.2L363.9,309.7c-9.4-5.5-15.2-15.5-15.2-26.4V83.7c0-5.8,6.3-9.4,11.3-6.5l256.4,149
				c9.8,5.7,15.8,16.2,15.8,27.5v189.2C632.2,453,621.3,459.3,612.6,454.2z"/>
			<path class="st5" d="M632.2,426.8L348.7,262.1V83.7c0-5.8,6.2-9.4,11.2-6.5l256.4,149c9.8,5.7,15.8,16.2,15.8,27.5L632.2,426.8
				L632.2,426.8z"/>
			<path class="st6" d="M472.6,355.1c0,2.8,2.3,6.3,5,7.9c2.8,1.6,5,0.7,5-2.1s-2.3-6.3-5-7.9C474.8,351.3,472.6,352.3,472.6,355.1z
				"/>
		</g>
		<g>
			
				<linearGradient id="SVGID_6_" gradientUnits="userSpaceOnUse" x1="367.8" y1="802.75" x2="613.2" y2="802.75" gradientTransform="matrix(1 0 0 -1 0 986)">
				<stop  offset="3.565705e-03" style="stop-color:#C8495B;stop-opacity:0.8"/>
				<stop  offset="1" style="stop-color:#C8495B;stop-opacity:0"/>
			</linearGradient>
			<polygon class="st7" points="368.1,105.5 613.2,246.6 613.2,261 367.8,119.7 			"/>
			<polygon class="st8" points="367.8,119.7 613.2,261 613.2,393.1 368.1,251.9 			"/>
			
				<linearGradient id="SVGID_7_" gradientUnits="userSpaceOnUse" x1="351.6323" y1="1979.5502" x2="426.9244" y2="2023.0203" gradientTransform="matrix(1 1.1547 0 1 0 -2249.2725)">
				<stop  offset="0.4968" style="stop-color:#C8495B;stop-opacity:0"/>
				<stop  offset="1" style="stop-color:#C8495B;stop-opacity:0.5"/>
			</linearGradient>
			<polygon class="st9" points="368.1,126.8 410.5,151.2 410.5,276.2 368.1,251.9 			"/>
			<g>
				<line class="st10" x1="380.9" y1="193.8" x2="393.4" y2="200.9"/>
				<line class="st10" x1="380.9" y1="206.4" x2="400.1" y2="217.5"/>
				<g>
					<line class="st10" x1="380.9" y1="156" x2="394.1" y2="163.6"/>
					<line class="st10" x1="380.9" y1="168.6" x2="392.9" y2="175.5"/>
					<line class="st10" x1="380.9" y1="181.3" x2="400.1" y2="192.3"/>
				</g>
			</g>
			<g>
				<path class="st8" d="M378.9,119.2c0,1-0.8,1.3-1.8,0.7c-1-0.6-1.8-1.8-1.8-2.8s0.8-1.3,1.8-0.7C378,117,378.9,118.2,378.9,119.2
					z"/>
				<path class="st8" d="M386,123.3c0,1-0.8,1.3-1.8,0.7c-1-0.6-1.8-1.8-1.8-2.8s0.8-1.3,1.8-0.7C385.1,121,386,122.4,386,123.3z"/>
				<path class="st8" d="M393.1,127.4c0,1-0.8,1.3-1.8,0.7c-1-0.6-1.8-1.8-1.8-2.8s0.8-1.3,1.8-0.7
					C392.3,125.2,393.1,126.4,393.1,127.4z"/>
			</g>
			<g>
				<path class="st5" d="M551.5,265.6L427.6,194c-2.8-1.7-6.4,0.4-6.4,3.7v62.5c0,5,2.7,9.7,7,12.2L552.1,344
					c2.8,1.7,6.4-0.4,6.4-3.7v-62.5C558.5,272.8,555.9,268.1,551.5,265.6z"/>
				<g class="st11">
					<path class="st12" d="M436.5,186.3l4.9,2.8v2.3l-7.3-4.2v-15.8l2.4,1.4V186.3z"/>
					<path class="st12" d="M445.3,193.7l-2.4-1.4v-15.8l2.4,1.4V193.7z"/>
					<path class="st12" d="M450.5,196.7l-3.4-17.8l2.5,1.5l2.4,13.4l2.1-10.8l2.5,1.4l-3.1,14.1L450.5,196.7z"/>
					<path class="st12" d="M465.7,191.8l-4.7-2.7v4.2l3.5,2v2.3l-3.5-2v4.9l4.7,2.7v2.3l-7.2-4.1v-15.8l7.2,4.1V191.8z"/>
				</g>
				<g>
					<polygon class="st5" points="552.4,244.1 550.8,240.5 545.4,237.3 543.8,239.1 540.3,237.1 540.3,247.3 555.9,256.3 
						555.9,246.1 					"/>
					<path class="st8" d="M545,245c0-1.7,1.4-2.3,3.1-1.3c1.7,1,3.1,3.1,3.1,4.8s-1.4,2.3-3.1,1.3S545,246.6,545,245z"/>
				</g>
				
					<linearGradient id="SVGID_8_" gradientUnits="userSpaceOnUse" x1="422.413" y1="817.55" x2="428.4835" y2="817.55" gradientTransform="matrix(1 0 0 -1 0 986)">
					<stop  offset="0.2776" style="stop-color:#C8495B"/>
					<stop  offset="0.5469" style="stop-color:#C8495B"/>
				</linearGradient>
				<path class="st13" d="M428.5,170.2c0,1.7-1.4,2.3-3,1.3c-1.7-1-3-3.1-3-4.8s1.4-2.3,3-1.3C427.1,166.3,428.5,168.5,428.5,170.2z
					"/>
			</g>
		</g>
		<g>
			<path class="st6" d="M527,276.7l6-13.1l6,19.9c1.5,5-1.6,7.6-6,5l0,0C528.5,286.1,525.5,280,527,276.7z"/>
			<g>
				<polygon class="st8" points="533,281.1 534.1,299.2 531.9,299.2 				"/>
			</g>
		</g>
		<g>
			<path class="st14" d="M546,366.8c-0.4-36.3,0.1-57.9,0-82.8l56.2,32.2v83.1L546,366.8z"/>
			<g>
				<line class="st15" x1="557.2" y1="316.3" x2="586.2" y2="333.3"/>
				<line class="st15" x1="557.2" y1="327.1" x2="591.9" y2="347.3"/>
				<line class="st15" x1="557.2" y1="337.7" x2="581.9" y2="352.2"/>
				<line class="st15" x1="566.6" y1="353.8" x2="557.2" y2="348.3"/>
				<line class="st15" x1="591.9" y1="368.8" x2="577.6" y2="360.2"/>
			</g>
		</g>
		<g>
			<line class="st16" x1="322.5" y1="227" x2="360" y2="248.9"/>
			<line class="st16" x1="322.5" y1="240.8" x2="367.4" y2="267"/>
			<line class="st16" x1="322.5" y1="254.6" x2="354.5" y2="273.3"/>
			<line class="st16" x1="334.7" y1="275.4" x2="322.5" y2="268.2"/>
			<line class="st16" x1="367.4" y1="294.8" x2="348.9" y2="283.6"/>
		</g>
		<g>
			<g>
				<defs>
					<path id="SVGID_9_" d="M550.5,265.9l-122.9-71c-2.8-1.7-6.4,0.4-6.4,3.7v62c0,5,2.7,9.7,7,12.1l122.9,71
						c2.8,1.7,6.4-0.4,6.4-3.7v-62C557.5,273,554.9,268.4,550.5,265.9z"/>
				</defs>
				<clipPath id="SVGID_10_">
					<use xlink:href="#SVGID_9_"  style="overflow:visible;"/>
				</clipPath>
				<g class="st17">
					<g>
						<g>
							
								<linearGradient id="SVGID_11_" gradientUnits="userSpaceOnUse" x1="410.5" y1="668.296" x2="549.3" y2="668.296" gradientTransform="matrix(1 0 0 -1 0 938.946)">
								<stop  offset="3.565705e-03" style="stop-color:#C8495B;stop-opacity:0.8"/>
								<stop  offset="1" style="stop-color:#C8495B;stop-opacity:0"/>
							</linearGradient>
							<path class="st18" d="M469.9,200.1c0,37.3,19.6,71.6,51.5,90.5l27.9,16.6l-59.4,34L462,324.7c-31.9-19-51.5-53.3-51.5-90.5
								L469.9,200.1z"/>
						</g>
					</g>
					<g>
						<g>
							<g>
								<path class="st8" d="M491.6,290.1c-0.4-1.1-1.3-1.9-2-1.9s-0.9,0.9-0.5,1.9c0.4,1.1,1.3,1.9,2,1.9
									C491.8,292,492,291.2,491.6,290.1z"/>
							</g>
							<path class="st6" d="M473.7,280.9l-0.7,0.4c-1.3,0.7-1.3,2.5,0,3.3l10.3,5.9c2.7,1.5,5.9,1.5,8.6,0l0,0c1.2-0.6,1.2-2.3,0-3
								l-11.5-6.6C478.3,279.8,475.7,279.8,473.7,280.9z"/>
							<g>
								<path class="st8" d="M475.4,287.6c-0.4-1.1-1.3-1.9-2-1.9s-0.9,0.9-0.5,1.9c0.4,1.1,1.3,1.9,2,1.9
									C475.5,289.5,475.8,288.7,475.4,287.6z"/>
								<path class="st6" d="M474.7,287.6c-0.2-0.5-0.6-1-1-1s-0.5,0.4-0.3,1c0.2,0.5,0.6,1,1,1
									C474.8,288.6,474.9,288.1,474.7,287.6z"/>
							</g>
							<g>
								<path class="st8" d="M483.7,292.2c-0.4-1.1-1.3-1.9-2-1.9s-0.9,0.9-0.5,1.9c0.4,1.1,1.3,1.9,2,1.9S484.1,293.2,483.7,292.2z
									"/>
								<path class="st6" d="M483.1,292.2c-0.2-0.5-0.6-1-1-1s-0.5,0.4-0.3,1c0.2,0.5,0.6,1,1,1
									C483.1,293.1,483.3,292.7,483.1,292.2z"/>
							</g>
						</g>
						<g>
							<g>
								<path class="st12" d="M478.7,285.4c-0.3,0-0.6-0.2-0.7-0.5c-0.2-0.4,0-0.9,0.4-1l2.6-1c0.4-0.2,0.9,0,1,0.4
									c0.2,0.4,0,0.9-0.4,1l-2.6,1C478.9,285.4,478.8,285.4,478.7,285.4z"/>
							</g>
							<g>
								<path class="st12" d="M483.9,288.2c-0.3,0-0.6-0.2-0.7-0.5c-0.2-0.4,0-0.9,0.4-1l2.6-1c0.4-0.2,0.9,0,1,0.4
									c0.2,0.4,0,0.9-0.4,1l-2.6,1C484.1,288.2,484,288.2,483.9,288.2z"/>
							</g>
							
								<linearGradient id="SVGID_12_" gradientUnits="userSpaceOnUse" x1="484.6724" y1="726.1086" x2="492.661" y2="726.1086" gradientTransform="matrix(1 0 0 -1 0 986)">
								<stop  offset="0" style="stop-color:#DE7554"/>
								<stop  offset="1" style="stop-color:#F4A04D"/>
							</linearGradient>
							<path class="st19" d="M484.7,265.4l8,4.6v-14c0-1.7-0.9-3.4-2.4-4.2L487,250c-1-0.6-2.4,0.1-2.4,1.4v14H484.7z"/>
							<path class="st8" d="M484.7,265.4l8,4.6v2.5c0,1-1.1,1.7-2,1.1l-6-3.5V265.4z"/>
							<path class="st8" d="M486,271.6l-2,0.7l-1,0.4l-0.4,0.1c-0.1,0-0.2,0.1-0.3,0.1c-0.4,0.2-0.8,0.5-1.1,0.8
								c-0.2,0.2-0.3,0.4-0.4,0.6s-0.2,0.5-0.3,0.7v0.2v0.2c0,0.1,0,0.3,0,0.4s0,0.3,0,0.4v0.2c0,0.1,0,0.1,0,0.2l0.5,2.1l0.9,4.2
								c0.1,0.4-0.2,0.8-0.6,0.9s-0.7-0.1-0.9-0.5l-1.6-4l-0.8-2c0-0.1-0.1-0.2-0.1-0.3l-0.1-0.3c-0.1-0.2-0.1-0.4-0.1-0.7
								c0-0.2-0.1-0.5-0.1-0.7V275c0-0.1,0-0.2,0-0.3c0-0.5,0.1-0.9,0.2-1.4s0.3-0.9,0.5-1.3c0.5-0.8,1.1-1.6,1.9-2.2
								c0.2-0.1,0.4-0.3,0.6-0.4l0.3-0.2l0.2-0.1l0.9-0.5l1.9-1c1.1-0.6,2.4-0.2,3,0.9s0.2,2.4-0.9,3
								C486.2,271.5,486.1,271.5,486,271.6z"/>
							<path class="st8" d="M491.2,274.4l-2,0.7l-1,0.4l-0.4,0.1c-0.1,0-0.2,0.1-0.3,0.1c-0.4,0.2-0.8,0.5-1.1,0.8
								c-0.2,0.2-0.3,0.4-0.4,0.6s-0.2,0.5-0.3,0.7v0.2v0.2c0,0.1,0,0.3,0,0.4s0,0.3,0,0.4v0.2c0,0.1,0,0.1,0,0.2l0.5,2.1l0.9,4.2
								c0.1,0.4-0.2,0.8-0.6,0.9s-0.7-0.1-0.9-0.5l-1.6-4l-0.8-2c0-0.1-0.1-0.2-0.1-0.3l-0.1-0.3c-0.1-0.2-0.1-0.4-0.1-0.7
								c0-0.2-0.1-0.5-0.1-0.7v-0.3c0-0.1,0-0.2,0-0.3c0-0.5,0.1-0.9,0.2-1.4s0.3-0.9,0.5-1.3c0.5-0.8,1.1-1.6,1.9-2.2
								c0.2-0.1,0.4-0.3,0.6-0.4l0.3-0.2l0.2-0.1l0.9-0.5l1.9-1c1.1-0.6,2.4-0.2,3,0.9s0.2,2.4-0.9,3
								C491.4,274.3,491.3,274.3,491.2,274.4z"/>
							<path class="st6" d="M492.7,253.3c1,0.5,2,0.8,3,1.1c1.1,0.3,2.1,0.5,3.2,0.5c1.1,0.1,2.2,0,3.3-0.1c0.6-0.1,1.1-0.2,1.7-0.3
								l1.7-0.4c0.3-0.1,0.6,0.1,0.7,0.4c0.1,0.3-0.1,0.6-0.4,0.7l-1.6,0.6c-0.5,0.2-1.1,0.4-1.7,0.6c-1.2,0.4-2.4,0.6-3.6,0.7
								s-2.5,0.1-3.8,0s-2.5-0.4-3.8-0.7l0,0c-0.9-0.3-1.4-1.2-1.1-2.1s1.2-1.4,2.1-1.1C492.5,253.3,492.6,253.3,492.7,253.3z"/>
							<path class="st6" d="M484.1,252.3c-0.8-0.5-1.7-1-2.6-1.3s-1.9-0.5-2.9-0.6s-2,0-3,0.2l-3.2,0.7l0,0
								c-0.3,0.1-0.6-0.1-0.7-0.4c-0.1-0.3,0.1-0.5,0.3-0.6l3.1-1.2c1.1-0.4,2.2-0.7,3.4-0.8c1.2-0.1,2.4-0.1,3.6,0.1
								c1.2,0.2,2.4,0.5,3.5,1l0,0c0.9,0.4,1.3,1.4,0.9,2.2c-0.4,0.9-1.4,1.3-2.2,0.9C484.2,252.4,484.2,252.3,484.1,252.3z"/>
							
								<ellipse transform="matrix(0.2455 -0.9694 0.9694 0.2455 130.9621 660.5101)" class="st6" cx="489.8" cy="246.1" rx="2.9" ry="2.9"/>
							<g>
								<path class="st20" d="M489.3,258.9l0.8,0.4l-2.7,2.2l-0.8-0.4L489.3,258.9z"/>
								<polygon class="st12" points="486.9,256.5 485.7,255.8 487.5,259.4 488.1,258.9 								"/>
								<polygon class="st6" points="489.1,260.9 488.5,261.4 489.8,264 489.8,264 491,264.7 								"/>
							</g>
						</g>
					</g>
				</g>
			</g>
		</g>
	</g>
	<line class="st21" x1="641.6" y1="406.7" x2="663.4" y2="419.3"/>
	<polyline class="st22" points="663.4,419.3 782.7,488.2 701.3,535.2 837.3,613.7 	"/>
	<g>
		<polyline class="st23" points="12.2,362 1089.9,983.8 2167.7,362 		"/>
		<polyline class="st23" points="12.2,39 1089.9,660.8 2167.7,39 		"/>
	</g>
	<line class="st22" x1="1218.8" y1="863.3" x2="1362.8" y2="780.2"/>
	<g>
		<g>
			<g>
				<polygon class="st6" points="1240.3,858.3 1186.4,889.2 1186.4,879.7 1240.3,848.9 				"/>
				<path class="st8" d="M1178,874.9l49.4-28.2c2.8-1.6,6.2-1.6,9,0l3.9,2.2l-53.9,30.8L1178,874.9z"/>
				<polygon class="st8" points="1174.5,882.3 1186.4,889.2 1186.4,879.7 1174.5,872.8 				"/>
			</g>
			<path class="st6" d="M1207.9,845.3l-6.9-28.6c-0.8-3.5-3.1-6.4-6.1-8.2l-3.6-2.1l-6.7,1.1h-0.5h-0.1l-10.3,1l-19.7,11.4
				c-3.2,1.8-5.4,5-6.1,8.6l-7.1,37.8c-2.7,14.4,4.4,22.6,15.6,20.8c2.9,9.6,13,12.3,25.6,5.1l0,0
				C1198.9,882.4,1211.4,859.7,1207.9,845.3z"/>
			<polygon class="st6" points="1146,885.1 1161.4,894 1163.7,892.5 1163.7,879.5 1151.8,878 			"/>
			<path class="st8" d="M1182.1,867.8L1182.1,867.8c-1.4,0.8-2.5,0.3-2.5-1.1v-23.1c0-1.4,1.1-3.1,2.5-3.9l0,0
				c1.4-0.8,2.5-0.3,2.5,1.1v23.1C1184.6,865.3,1183.5,867,1182.1,867.8z"/>
		</g>
		<path class="st8" d="M1157.1,818.1l21.3-12.3c3.7-2.1,8.2-2.1,11.9,0l3.5,2c2.7,1.5,2.7,5.4,0,6.9l-21.9,12.7
			c-4.6,2.6-10.2,2.6-14.8,0l0,0C1153.5,825.3,1153.5,820.1,1157.1,818.1z"/>
	</g>
	<g>
		<g>
			<g>
				<polygon class="st6" points="1155.3,945.3 1101.4,976.2 1101.4,966.7 1155.3,935.9 				"/>
				<path class="st8" d="M1093,961.9l49.4-28.2c2.8-1.6,6.2-1.6,9,0l3.9,2.2l-53.9,30.8L1093,961.9z"/>
				<polygon class="st8" points="1089.5,969.3 1101.4,976.2 1101.4,966.7 1089.5,959.8 				"/>
			</g>
			<path class="st6" d="M1122.9,932.3l-6.9-28.6c-0.8-3.5-3.1-6.4-6.1-8.2l-3.6-2.1l-6.7,1.1h-0.5h-0.1l-10.3,1l-19.7,11.4
				c-3.2,1.8-5.4,5-6.1,8.6l-7.1,37.8c-2.7,14.4,4.4,22.6,15.6,20.8c2.9,9.6,13,12.3,25.6,5.1l0,0
				C1113.9,969.4,1126.4,946.7,1122.9,932.3z"/>
			<polygon class="st6" points="1061,972.1 1076.4,981 1078.7,979.5 1078.7,966.5 1066.8,965 			"/>
			<path class="st8" d="M1097.1,954.8L1097.1,954.8c-1.4,0.8-2.5,0.3-2.5-1.1v-23.1c0-1.4,1.1-3.1,2.5-3.9l0,0
				c1.4-0.8,2.5-0.3,2.5,1.1v23.1C1099.6,952.3,1098.5,954,1097.1,954.8z"/>
		</g>
		<path class="st8" d="M1072.1,905.1l21.3-12.3c3.7-2.1,8.2-2.1,11.9,0l3.5,2c2.7,1.5,2.7,5.4,0,6.9l-21.9,12.7
			c-4.6,2.6-10.2,2.6-14.8,0l0,0C1068.5,912.3,1068.5,907.1,1072.1,905.1z"/>
	</g>
	<g>
		<path class="st5" d="M1162.2,662.1l13-43.6l13,28.5c3.2,7.1-3.4,20.6-13,26.1l0,0C1165.5,678.7,1158.9,673,1162.2,662.1z"/>
		<g>
			<polygon class="st8" points="1175.2,656.6 1177.6,696.2 1172.7,696.2 			"/>
		</g>
		<g>
			<polygon class="st8" points="1174.3,679 1191.3,665 1176,680.9 			"/>
		</g>
	</g>
	<g>
		<path class="st5" d="M720.6,378.6l13.4-29.4l13.4,44.9c3.4,11.2-3.5,17.1-13.4,11.4l0,0C724.2,399.8,717.3,386,720.6,378.6z"/>
		<g>
			<polygon class="st8" points="734,388.4 737,429.2 731,429.2 			"/>
		</g>
		<g>
			<polygon class="st8" points="734.4,411 750.7,416.4 733.7,413.9 			"/>
		</g>
	</g>
	<g>
		<path class="st6" d="M1547.5,455.7h-6.8v-9.6c0-1.9,1.5-3.4,3.4-3.4l0,0c1.9,0,3.4,1.5,3.4,3.4V455.7z"/>
		<circle class="st5" cx="1544.3" cy="439.4" r="2.7"/>
		<path class="st8" d="M1544.1,470.5L1544.1,470.5c-1.9,0-3.4-1.5-3.4-3.4v-11.5h6.8v11.5C1547.5,469,1546,470.5,1544.1,470.5z"/>
	</g>
	<g>
		<path class="st6" d="M1294.5,467.7h-6.8v-9.6c0-1.9,1.5-3.4,3.4-3.4l0,0c1.9,0,3.4,1.5,3.4,3.4V467.7z"/>
		<circle class="st5" cx="1291.3" cy="451.4" r="2.7"/>
		<path class="st8" d="M1291.1,482.5L1291.1,482.5c-1.9,0-3.4-1.5-3.4-3.4v-11.5h6.8v11.5C1294.5,481,1293,482.5,1291.1,482.5z"/>
	</g>
	<g>
		<path class="st5" d="M278.9,238.2h-8v-11.3c0-2.2,1.8-4,4-4l0,0c2.2,0,4,1.8,4,4V238.2z"/>
		<circle class="st8" cx="275.1" cy="218.9" r="3.2"/>
		<path class="st6" d="M274.9,255.7L274.9,255.7c-2.2,0-4-1.8-4-4v-13.5h8v13.5C278.9,253.9,277.1,255.7,274.9,255.7z"/>
	</g>
	<g>
		<path class="st6" d="M672.9,781.2h-8v-11.3c0-2.2,1.8-4,4-4l0,0c2.2,0,4,1.8,4,4V781.2z"/>
		<circle class="st5" cx="669.1" cy="761.9" r="3.2"/>
		<path class="st8" d="M668.9,798.7L668.9,798.7c-2.2,0-4-1.8-4-4v-13.5h8v13.5C672.9,796.9,671.1,798.7,668.9,798.7z"/>
	</g>
	<g>
		<path class="st6" d="M574,736c0,13.8-11.2,18.5-25,10.6c-13.8-8-25-25.6-25-39.4c0-13.8,11.2-18.5,25-10.6S574,722.2,574,736z"/>
		<g>
			<polygon class="st8" points="549,721.6 552,769.2 546,769.2 			"/>
		</g>
	</g>
	<g>
		<path class="st6" d="M246.6,161.4c0,16.6-13.4,22.2-30,12.7c-16.6-9.6-30-30.7-30-47.3s13.4-22.2,30-12.7S246.6,144.8,246.6,161.4
			z"/>
		<g>
			<polygon class="st8" points="216.6,144.1 220.2,201.2 213,201.2 			"/>
		</g>
	</g>
	
		<linearGradient id="SVGID_13_" gradientUnits="userSpaceOnUse" x1="699.5001" y1="2775.4707" x2="827.9" y2="2775.4707" gradientTransform="matrix(1 0 0 1 0 -2449.53)">
		<stop  offset="0" style="stop-color:#C8495B;stop-opacity:0.2"/>
		<stop  offset="1" style="stop-color:#C8495B;stop-opacity:0.5"/>
	</linearGradient>
	<path class="st24" d="M827.7,372.7c0.1-0.9,0.2-1.8,0.2-2.8c0-13.1-10.6-29.7-23.6-37.2c-4.5-2.6-8.7-3.8-12.3-3.6
		c-4-16.9-17.4-35.3-33.3-44.5c-19.1-11.1-34.5-4.6-34.5,14.5c0,0.9,0.1,1.8,0.1,2.8c-2.4-2.8-5.3-5.2-8.2-6.9
		c-8.1-4.7-14.8-2.9-16.6,3.7L827.7,372.7z"/>
	
		<linearGradient id="SVGID_14_" gradientUnits="userSpaceOnUse" x1="1881.7" y1="3628.864" x2="2042" y2="3628.864" gradientTransform="matrix(1 -1.1547 0 1 0 -1306.6069)">
		<stop  offset="0" style="stop-color:#C8495B;stop-opacity:0.2"/>
		<stop  offset="1" style="stop-color:#C8495B;stop-opacity:0.5"/>
	</linearGradient>
	<path class="st25" d="M2041.8,23c0.2-1.3,0.2-2.5,0.2-3.7c0-16.3-13.2-21.8-29.5-12.4c-5.6,3.3-10.9,7.9-15.4,13.2
		c-5-15.3-21.7-18.9-41.5-7.6c-23.8,13.6-43.1,44-43.1,67.8c0,1.2,0.1,2.2,0.2,3.3c-3,0.1-6.6,1.1-10.3,3.2
		c-10.1,5.8-18.5,17.8-20.7,28.5L2041.8,23z"/>
	
		<linearGradient id="SVGID_15_" gradientUnits="userSpaceOnUse" x1="-1079.4286" y1="2478.2773" x2="-990.7927" y2="2529.4514" gradientTransform="matrix(-1 0 0 1 -850.793 -2449.53)">
		<stop  offset="0" style="stop-color:#C8495B;stop-opacity:0.2"/>
		<stop  offset="1" style="stop-color:#C8495B;stop-opacity:0.5"/>
	</linearGradient>
	<path class="st26" d="M105,19.3c0-0.4,0-0.7,0-1.1C105,3.6,116.8-1.4,131.3,7c7.8,4.5,14.9,12,19.6,20.1
		C154.7,3.8,176.6-3,203,12.2c29.1,16.8,52.8,54.1,52.8,83.2c0,3.7-0.4,7.1-1.1,10.1L105,19.3z"/>
	<g>
		<g>
			<polygon class="st6" points="1033.7,768 1116.1,815.6 1116.1,750.3 1033.7,702.6 			"/>
			<polygon class="st5" points="1142.7,734.8 1060.3,687.2 1033.7,702.6 1116.1,750.3 			"/>
			<polygon class="st8" points="1142.7,800.2 1116.1,815.6 1116.1,750.3 1142.7,734.8 			"/>
		</g>
		<polygon class="st8" points="1050.1,732.6 1042.1,728 1042.1,720.1 1050.1,724.6 		"/>
		<polygon class="st8" points="1050.1,748.5 1042.1,743.9 1042.1,735.9 1050.1,740.5 		"/>
		<polygon class="st8" points="1104,794.5 1096.1,790 1096.1,782 1104,786.6 		"/>
		<polygon class="st8" points="1104,778.7 1096.1,774.1 1096.1,766.2 1104,770.7 		"/>
		<polygon class="st8" points="1078.6,779.5 1070.7,774.9 1070.7,767 1078.6,771.5 		"/>
		<polygon class="st6" points="1127.1,809.4 1135,804.8 1135,785.8 1127.1,790.4 		"/>
		<polygon class="st8" points="1078.6,747.7 1070.7,743.1 1070.7,735.2 1078.6,739.7 		"/>
		<path class="st5" d="M1135,764.7c0,2.2-1.7,5-4,6.3c-2.2,1.3-4,0.6-4-1.7c0-2.2,1.7-5,4-6.3C1133.1,761.7,1135,762.5,1135,764.7z"
			/>
	</g>
	<g>
		<path class="st8" d="M1602.8,501.1h-8v-11.3c0-2.2,1.8-4,4-4l0,0c2.2,0,4,1.8,4,4V501.1z"/>
		<circle class="st6" cx="1599.1" cy="481.9" r="3.2"/>
		<path class="st5" d="M1598.8,518.7L1598.8,518.7c-2.2,0-4-1.8-4-4v-13.5h8v13.5C1602.8,516.9,1601.1,518.7,1598.8,518.7z"/>
	</g>
	<path class="st6" d="M1514.9,554.2c0-10.8,8.8-24.6,19.6-30.9c10.8-6.2,19.6-2.5,19.6,8.3L1514.9,554.2z"/>
	<path class="st8" d="M618.3,499c-0.3-10.8,8.3-14.8,19.3-8.9s20.2,19.5,20.5,30.3L618.3,499z"/>
	<path class="st5" d="M207.9,557.2c-0.4-10.8,8.1-14.9,19.2-9.2c11.1,5.8,20.5,19.2,20.9,30L207.9,557.2z"/>
	<g>
		
			<linearGradient id="SVGID_16_" gradientUnits="userSpaceOnUse" x1="-2339.8389" y1="2535.4448" x2="-2353.0234" y2="2512.6084" gradientTransform="matrix(-1 0 0 1 -2278.1973 -2449.53)">
			<stop  offset="0" style="stop-color:#F4A04D;stop-opacity:0"/>
			<stop  offset="1" style="stop-color:#F4A04D;stop-opacity:0.5"/>
		</linearGradient>
		<polygon class="st27" points="31.2,68.3 92.1,103.5 61.6,55.5 		"/>
		<polyline class="st14" points="36.6,114.3 36.6,32.2 61.6,47.1 61.6,56.9 		"/>
		<polygon class="st8" points="51.8,59.7 71.6,71.1 61.6,55.5 		"/>
	</g>
	<path class="st28" d="M1110.4,371.4"/>
	<g>
		<path class="st5" d="M2085.2,378.1l15.7-52.6l15.7,34.4c3.9,8.6-4.1,24.8-15.7,31.5l0,0C2089.3,398.1,2081.3,391.2,2085.2,378.1z"
			/>
		<g>
			<polygon class="st8" points="2100.9,371.4 2103.9,419.2 2097.9,419.2 			"/>
		</g>
		<g>
			<polygon class="st8" points="2099.9,398.5 2120.4,381.6 2101.9,400.7 			"/>
		</g>
	</g>
	<g>
		<path class="st6" d="M1562.8,747.2h-10v-14.1c0-2.8,2.2-5,5-5l0,0c2.8,0,5,2.2,5,5V747.2z"/>
		<circle class="st8" cx="1558.1" cy="723.1" r="4"/>
		<path class="st5" d="M1557.8,769.1L1557.8,769.1c-2.8,0-5-2.2-5-5v-16.9h10v16.9C1562.8,766.9,1560.6,769.1,1557.8,769.1z"/>
	</g>
	<g>
		<path class="st5" d="M1355.8,681.2h-10v-14.1c0-2.8,2.2-5,5-5l0,0c2.8,0,5,2.2,5,5V681.2z"/>
		<circle class="st6" cx="1351.1" cy="657.1" r="4"/>
		<path class="st8" d="M1350.8,703.1L1350.8,703.1c-2.8,0-5-2.2-5-5v-16.9h10v16.9C1355.8,700.9,1353.6,703.1,1350.8,703.1z"/>
	</g>
	<g>
		<path class="st6" d="M1057.8,847.5h-10v-14.1c0-2.8,2.2-5,5-5l0,0c2.8,0,5,2.2,5,5V847.5z"/>
		<circle class="st5" cx="1053.1" cy="823.4" r="4"/>
		<path class="st8" d="M1052.8,869.4L1052.8,869.4c-2.8,0-5-2.2-5-5v-16.9h10v16.9C1057.8,867.2,1055.6,869.4,1052.8,869.4z"/>
	</g>
	<g>
		<path class="st5" d="M744.9,631.2h-8v-11.3c0-2.2,1.8-4,4-4l0,0c2.2,0,4,1.8,4,4V631.2z"/>
		<circle class="st8" cx="741" cy="611.9" r="3.2"/>
		<path class="st6" d="M740.9,648.7L740.9,648.7c-2.2,0-4-1.8-4-4v-13.5h8v13.5C744.9,646.9,743.2,648.7,740.9,648.7z"/>
	</g>
	<g>
		<path class="st6" d="M124.6,145h-8v-11.3c0-2.2,1.8-4,4-4l0,0c2.2,0,4,1.8,4,4V145z"/>
		<circle class="st5" cx="120.7" cy="125.8" r="3.2"/>
		<path class="st8" d="M120.6,162.6L120.6,162.6c-2.2,0-4-1.8-4-4v-13.5h8v13.5C124.6,160.8,122.7,162.6,120.6,162.6z"/>
	</g>
	<g>
		<path class="st6" d="M1476.9,725.2c0,13.8-11.2,31.5-25,39.4c-13.8,8-25,3.2-25-10.6s11.2-31.5,25-39.4
			C1465.8,706.6,1476.9,711.4,1476.9,725.2z"/>
		<g>
			<polygon class="st8" points="1451.9,739.6 1454.9,807.2 1448.9,807.2 			"/>
		</g>
	</g>
	<g>
		<path class="st6" d="M1562.5,349.6c0,11-9,25.2-20,31.5c-11,6.4-20,2.6-20-8.5c0-11,9-25.2,20-31.5
			C1553.5,334.7,1562.5,338.5,1562.5,349.6z"/>
		<g>
			<polygon class="st8" points="1542.5,361.1 1545.5,399.2 1539.5,399.2 			"/>
		</g>
	</g>
	
		<linearGradient id="SVGID_17_" gradientUnits="userSpaceOnUse" x1="1578.4503" y1="2717.229" x2="1619.5579" y2="2740.9624" gradientTransform="matrix(1 0 0 1 0 -2449.53)">
		<stop  offset="0" style="stop-color:#C8495B;stop-opacity:0.2"/>
		<stop  offset="1" style="stop-color:#C8495B;stop-opacity:0.5"/>
	</linearGradient>
	<path class="st29" d="M1635.8,263.3c0-0.1,0-0.3,0-0.5c0-6.7-5.5-9.1-12.2-5.2c-3.6,2.1-6.9,5.6-9.1,9.3
		c-1.7-10.8-11.9-13.9-24.2-6.9c-13.5,7.8-24.4,25.1-24.4,38.6c0,1.7,0.2,3.3,0.5,4.7L1635.8,263.3z"/>
	<path class="st8" d="M1673.6,644c0-10.8,8.8-24.6,19.6-30.9c10.8-6.2,19.6-2.5,19.6,8.3L1673.6,644z"/>
	<g>
		
			<linearGradient id="SVGID_18_" gradientUnits="userSpaceOnUse" x1="1240.5522" y1="3206.134" x2="1227.3677" y2="3183.2976" gradientTransform="matrix(1 0 0 1 0 -2449.53)">
			<stop  offset="0" style="stop-color:#C8495B;stop-opacity:0"/>
			<stop  offset="1" style="stop-color:#C8495B;stop-opacity:0.5"/>
		</linearGradient>
		<polygon class="st30" points="1270.9,739 1210.2,774.2 1240.5,726.2 		"/>
		<polyline class="st28" points="1265.7,785 1265.7,702.9 1240.7,717.8 1240.7,727.6 		"/>
		<polygon class="st6" points="1250.5,730.4 1230.7,741.8 1240.5,726.2 		"/>
	</g>
	<g>
		<line class="st31" x1="1103.8" y1="441.3" x2="1080.1" y2="441.3"/>
		<g>
			<path class="st6" d="M1096.3,444.8l-4.4,2.5l-4.4-2.5H1096.3 M1103.8,442.8L1103.8,442.8L1103.8,442.8z M1103.8,442.8h-23.7
				l11.8,6.8L1103.8,442.8L1103.8,442.8z"/>
		</g>
		<g>
			<path class="st6" d="M1103.3,596.1l-11.3,6.5l-11.3-6.5H1103.3 M1125.7,590.1L1125.7,590.1L1125.7,590.1z M1125.7,590.1h-67.5
				l33.7,19.5L1125.7,590.1L1125.7,590.1z"/>
		</g>
		<line class="st32" x1="1136.1" y1="386.3" x2="1047.8" y2="386.3"/>
		<g>
			<line class="st33" x1="1116" y1="296" x2="1141.4" y2="375.3"/>
		</g>
		<g>
			<line class="st33" x1="1066.6" y1="296" x2="1041.2" y2="375.3"/>
		</g>
		<line class="st34" x1="1124" y1="587" x2="1131.8" y2="643.3"/>
		<line class="st35" x1="1114.3" y1="517.1" x2="1124" y2="587"/>
		<line class="st36" x1="1103.9" y1="441.9" x2="1114.3" y2="517.1"/>
		<g>
			<polygon class="st5" points="1117.2,292.2 1118.5,376.8 1118.5,377 1118.5,377.2 1107.3,442.6 1106.7,446 1099.7,444.7 
				1100.4,441.3 1113.6,376.3 1113.6,376.8 1114.9,292.2 1114.9,291 1117.2,291 			"/>
		</g>
		<line class="st34" x1="1058.7" y1="586.9" x2="1050.9" y2="643.3"/>
		<line class="st35" x1="1068.4" y1="517.1" x2="1058.7" y2="586.9"/>
		<line class="st36" x1="1078.8" y1="441.9" x2="1068.4" y2="517.1"/>
		<g>
			<polygon class="st5" points="1067.9,292.2 1069.2,376.8 1069.1,376.3 1082.3,441.3 1083,444.7 1076,446 1075.4,442.6 
				1064.2,377.2 1064.2,377 1064.2,376.8 1065.5,292.2 1065.5,291 1067.8,291 			"/>
		</g>
		<g>
			<path class="st6" d="M1093.6,324.9l3.6,342.3c0,3-2.4,5.5-5.4,5.6c-3,0-5.5-2.4-5.6-5.4v-0.1l3.6-342.3c0-1,0.8-1.8,1.9-1.8
				C1092.8,323.1,1093.6,323.9,1093.6,324.9z"/>
		</g>
		<path class="st37" d="M1091.9,402.9"/>
		<line class="st32" x1="1145.4" y1="376.2" x2="1038.5" y2="376.2"/>
		<g>
			<polygon class="st8" points="1082.4,405.9 1134.4,374.4 1137.4,372.6 1141,378.8 1137.9,380.5 1084.6,409.7 1082.7,410.7 
				1080.6,407.1 			"/>
		</g>
		<g>
			<path class="st6" d="M1099.9,522.8l-9.1,5.3l-9.1-5.3H1099.9 M1114.8,518.8L1114.8,518.8L1114.8,518.8z M1114.8,518.8h-48.1
				l24,13.9L1114.8,518.8L1114.8,518.8z"/>
		</g>
		<g>
			<polygon class="st8" points="1049.4,374.3 1102.1,406.3 1103.9,407.4 1101.8,411.1 1100,410 1045.9,380.4 1042.8,378.7 
				1046.4,372.5 			"/>
		</g>
	</g>
	<g>
		<g>
			<path class="st5" d="M220.7,294.8l-6,42.1c-0.2,1.7-1.8,2.8-3.5,2.6c-1.4-0.2-2.4-1.3-2.6-2.6l-6-42.1c-0.7-5,2.8-9.6,7.7-10.3
				s9.6,2.8,10.3,7.7C220.8,293.1,220.8,294,220.7,294.8z"/>
		</g>
		
			<linearGradient id="SVGID_19_" gradientUnits="userSpaceOnUse" x1="210.8831" y1="605.3713" x2="332.1578" y2="605.3713" gradientTransform="matrix(1 0 0 -1 0 986)">
			<stop  offset="0" style="stop-color:#D96856"/>
			<stop  offset="1" style="stop-color:#C8495B"/>
		</linearGradient>
		<path class="st38" d="M214.6,383l109.7-13.2c3.8-0.5,7.3,2.3,7.8,6.1c0.5,3.8-2.3,7.3-6.1,7.8c-0.1,0-0.2,0-0.3,0l-110.2,7.8
			c-2.4,0.2-4.4-1.6-4.6-4C210.7,385.3,212.3,383.3,214.6,383z"/>
		
			<linearGradient id="SVGID_20_" gradientUnits="userSpaceOnUse" x1="190.2784" y1="637.6622" x2="216.6802" y2="637.6622" gradientTransform="matrix(1 0 0 -1 0 986)">
			<stop  offset="0" style="stop-color:#D96856"/>
			<stop  offset="0.4596" style="stop-color:#D05859"/>
			<stop  offset="1" style="stop-color:#C8495B"/>
		</linearGradient>
		<path class="st39" d="M190.4,384.5l15.4-72.1c0.6-3,3.6-4.9,6.5-4.2c3,0.6,4.9,3.6,4.2,6.5c0,0.1,0,0.2-0.1,0.3l-19.6,71.1
			c-0.5,1.8-2.4,2.9-4.2,2.4C191,388,190,386.3,190.4,384.5z"/>
		<g>
			<g>
				<path class="st8" d="M212.3,286.4l43.6,8c0.9,0.2,1.5,1,1.4,2c-0.2,0.8-0.9,1.4-1.7,1.4l-44.4-1.4c-2.8-0.1-4.9-2.4-4.8-5.2
					c0.1-2.8,2.4-4.9,5.2-4.8C211.8,286.4,212.1,286.4,212.3,286.4z"/>
			</g>
			<g>
				<path class="st8" d="M168.4,284.4l44,2.1c2.8,0.1,4.9,2.5,4.8,5.2c-0.1,2.8-2.5,4.9-5.2,4.8c-0.2,0-0.5,0-0.7-0.1l-43.2-8.7
					c-0.9-0.2-1.5-1.1-1.3-2C166.8,284.9,167.5,284.3,168.4,284.4z"/>
			</g>
			<g>
				<path class="st8" d="M207.4,288.9l18.2-24.9c0.6-0.8,1.6-0.9,2.4-0.4c0.7,0.5,0.9,1.3,0.5,2.1L216,294c-1.1,2.5-4.1,3.7-6.6,2.6
					s-3.7-4.1-2.6-6.6C207,289.5,207.2,289.2,207.4,288.9z"/>
			</g>
			<g>
				<path class="st8" d="M195.3,316.5l12.1-27.6c1.1-2.5,4.1-3.7,6.6-2.6s3.7,4.1,2.6,6.6c-0.1,0.3-0.3,0.7-0.6,1l-17.9,24.3
					c-0.6,0.8-1.6,0.9-2.4,0.4C195.2,318.1,195,317.2,195.3,316.5z"/>
			</g>
		</g>
		<g>
			<g>
				<polygon class="st6" points="247.1,374.4 183,337 126.3,369.9 190.4,407.2 				"/>
				<polygon class="st5" points="149.3,370.3 142.3,366.2 136.2,369.8 143.1,373.8 				"/>
				
					<linearGradient id="SVGID_21_" gradientUnits="userSpaceOnUse" x1="126.3" y1="585.0062" x2="247" y2="585.0062" gradientTransform="matrix(1 0 0 -1 0 986)">
					<stop  offset="0.2776" style="stop-color:#301C47"/>
					<stop  offset="1" style="stop-color:#C8495B"/>
				</linearGradient>
				<path class="st40" d="M190.4,407.2l-64.1-37.4v0.1c0,19.3,10.3,37.2,26.9,46.9l17,9.9c12.5,7.3,27.8,7.3,40.3,0.1l9.4-5.5
					c16.8-9.7,27.1-27.6,27.1-47l0,0L190.4,407.2z"/>
			</g>
		</g>
		<g>
			<circle class="st6" cx="228.1" cy="411.3" r="16.5"/>
			<g>
				<path class="st23" d="M229,406.4"/>
			</g>
			<g>
				<path class="st23" d="M229,406.4"/>
			</g>
			<g>
				<g>
					<line class="st23" x1="226" y1="404.1" x2="251.3" y2="418.8"/>
					<path class="st8" d="M251.3,418.8"/>
				</g>
			</g>
			<path class="st5" d="M245.4,414c0,4.8-3.9,11-8.7,13.7c-4.8,2.8-8.7,1.1-8.7-3.7c0-4.8,3.9-11,8.7-13.7
				C241.5,407.6,245.4,409.2,245.4,414z"/>
			<path class="st8" d="M244.6,416.7c0,3.5-2.8,7.9-6.3,9.9s-6.3,0.8-6.3-2.7s2.8-7.9,6.3-9.9C241.8,412.1,244.6,413.3,244.6,416.7z
				"/>
			
				<linearGradient id="SVGID_22_" gradientUnits="userSpaceOnUse" x1="233.6" y1="560.3222" x2="253.6" y2="560.3222" gradientTransform="matrix(1 0 0 -1 0 986)">
				<stop  offset="0" style="stop-color:#C8495B;stop-opacity:0"/>
				<stop  offset="1" style="stop-color:#C8495B;stop-opacity:0.5"/>
			</linearGradient>
			<path class="st41" d="M253.6,419.9c0,5.5-4.5,12.6-10,15.8c-5.5,3.2-10,1.3-10-4.2s4.5-12.6,10-15.8
				C249.1,412.4,253.6,414.4,253.6,419.9z"/>
			
				<linearGradient id="SVGID_23_" gradientUnits="userSpaceOnUse" x1="334.6702" y1="621.8455" x2="460.8541" y2="403.2886" gradientTransform="matrix(1 0 0 -1 0 986)">
				<stop  offset="0" style="stop-color:#F4A04D;stop-opacity:0.5"/>
				<stop  offset="0.7564" style="stop-color:#F4A04D;stop-opacity:0"/>
			</linearGradient>
			<path class="st42" d="M242.1,417.6l-0.1,0.1c0.7,0.2,1.1,0.9,1.1,1.9c0,1.9-1.6,4.4-3.5,5.5c-0.8,0.5-1.6,0.6-2.2,0.5v0.1
				l134.1,208.6l153.1-171.2L242.1,417.6z"/>
		</g>
		
			<linearGradient id="SVGID_24_" gradientUnits="userSpaceOnUse" x1="46.4199" y1="587.5323" x2="143.8633" y2="587.5323" gradientTransform="matrix(1 0 0 -1 0 986)">
			<stop  offset="0" style="stop-color:#C8495B"/>
			<stop  offset="0.569" style="stop-color:#C94B5B"/>
			<stop  offset="0.774" style="stop-color:#CD525A"/>
			<stop  offset="0.9196" style="stop-color:#D35D58"/>
			<stop  offset="1" style="stop-color:#D96856"/>
		</linearGradient>
		<path class="st43" d="M53.1,393.7l86.4-4.4c2.4-0.1,4.4,1.7,4.5,4.1c0.1,2.3-1.6,4.2-3.8,4.5l-85.9,9.7c-3.8,0.4-7.3-2.3-7.7-6.2
			c-0.4-3.8,2.3-7.3,6.2-7.7C52.8,393.8,52.9,393.7,53.1,393.7z"/>
		
			<linearGradient id="SVGID_25_" gradientUnits="userSpaceOnUse" x1="168.6235" y1="493.5202" x2="194.7307" y2="565.2489" gradientTransform="matrix(1 0 0 -1 0 986)">
			<stop  offset="0" style="stop-color:#C8495B"/>
			<stop  offset="0.4138" style="stop-color:#CA4C5B"/>
			<stop  offset="0.7042" style="stop-color:#CF5559"/>
			<stop  offset="0.9562" style="stop-color:#D76457"/>
			<stop  offset="1" style="stop-color:#D96856"/>
		</linearGradient>
		<path class="st44" d="M168.1,485.8l14.5-64.2c0.5-2.3,2.8-3.8,5.1-3.2c2.2,0.5,3.6,2.6,3.3,4.8l-9.2,65.2c-0.5,3.8-4.1,6.5-7.9,6
			c-3.8-0.5-6.5-4.1-6-7.9C168.1,486.2,168.1,486,168.1,485.8z"/>
		<g>
			<g>
				
					<linearGradient id="SVGID_26_" gradientUnits="userSpaceOnUse" x1="170.6802" y1="703.4107" x2="251.8563" y2="703.4107" gradientTransform="matrix(1 0 0 -1 0 986)">
					<stop  offset="0" style="stop-color:#C8495B;stop-opacity:0.5"/>
					<stop  offset="1" style="stop-color:#C8495B;stop-opacity:0"/>
				</linearGradient>
				<path class="st45" d="M171.2,282.9c1.2-2.1,2.8-3.9,4.4-5.5c1.5-1.5,4-1.4,5.5,0.1s1.4,3.9,0,5.4l0,0c-1.2,1.2-2.2,2.6-3,3.9
					c-1.1,1.9-3.5,2.6-5.4,1.6s-2.6-3.5-1.6-5.4C171.1,283,171.2,283,171.2,282.9L171.2,282.9z"/>
				
					<linearGradient id="SVGID_27_" gradientUnits="userSpaceOnUse" x1="170.6802" y1="714.7427" x2="251.8563" y2="714.7427" gradientTransform="matrix(1 0 0 -1 0 986)">
					<stop  offset="0" style="stop-color:#C8495B;stop-opacity:0.5"/>
					<stop  offset="1" style="stop-color:#C8495B;stop-opacity:0"/>
				</linearGradient>
				<path class="st46" d="M186.9,269.9c4-1.9,8.2-3.2,12.4-4.2c1.9-0.4,3.7,0.8,4.1,2.6c0.4,1.8-0.7,3.6-2.5,4.1l0,0
					c-3.8,1-7.4,2.3-10.8,4.1c-1.8,0.9-4,0.2-4.9-1.6s-0.2-4,1.6-4.9L186.9,269.9z"/>
				
					<linearGradient id="SVGID_28_" gradientUnits="userSpaceOnUse" x1="170.6802" y1="718.4675" x2="251.8563" y2="718.4675" gradientTransform="matrix(1 0 0 -1 0 986)">
					<stop  offset="0" style="stop-color:#C8495B;stop-opacity:0.5"/>
					<stop  offset="1" style="stop-color:#C8495B;stop-opacity:0"/>
				</linearGradient>
				<path class="st47" d="M212.2,264.1c2.2-0.1,4.3,0,6.5,0.1c1.1,0.1,2.2,0.2,3.2,0.3c1.1,0.1,2.2,0.3,3.2,0.5
					c1.6,0.2,2.8,1.8,2.5,3.4c-0.2,1.6-1.7,2.7-3.3,2.6h-0.2c-1-0.1-1.9-0.2-2.9-0.3c-1-0.1-2-0.1-2.9-0.2c-2-0.1-3.9,0-5.9,0.1
					c-1.8,0.1-3.3-1.2-3.4-3c-0.1-1.8,1.2-3.3,3-3.4C212.2,264.1,212.2,264.1,212.2,264.1z"/>
				
					<linearGradient id="SVGID_29_" gradientUnits="userSpaceOnUse" x1="170.6802" y1="710.7214" x2="251.8563" y2="710.7214" gradientTransform="matrix(1 0 0 -1 0 986)">
					<stop  offset="0" style="stop-color:#C8495B;stop-opacity:0.5"/>
					<stop  offset="1" style="stop-color:#C8495B;stop-opacity:0"/>
				</linearGradient>
				<path class="st48" d="M237.8,269c2,1,3.9,2.2,5.7,3.7s3.4,3.2,4.6,5.3c0.7,1.2,0.3,2.8-0.9,3.5s-2.7,0.3-3.5-0.8l0,0
					c-1.9-2.9-5-5.1-8.4-6.6c-1.4-0.6-2-2.3-1.4-3.7C234.6,268.9,236.3,268.3,237.8,269C237.7,268.9,237.7,268.9,237.8,269z"/>
				
					<linearGradient id="SVGID_30_" gradientUnits="userSpaceOnUse" x1="170.6802" y1="690.4711" x2="251.8563" y2="690.4711" gradientTransform="matrix(1 0 0 -1 0 986)">
					<stop  offset="0" style="stop-color:#C8495B;stop-opacity:0.5"/>
					<stop  offset="1" style="stop-color:#C8495B;stop-opacity:0"/>
				</linearGradient>
				<path class="st49" d="M248.9,292c-0.5,1-1,2.1-1.7,3.1c-0.6,1-1.3,1.9-2.1,2.7c-1.5,1.7-3.2,3.1-4.9,4.4c-0.9,0.7-2.3,0.5-3-0.5
					c-0.7-0.9-0.5-2.2,0.4-2.9l0,0c1.5-1.2,2.9-2.5,4.1-4c0.6-0.7,1.1-1.5,1.6-2.3s0.8-1.6,1.2-2.4l0.2-0.4c0.6-1.1,2-1.6,3.1-1
					C249.1,289.5,249.5,290.9,248.9,292L248.9,292z"/>
				
					<linearGradient id="SVGID_31_" gradientUnits="userSpaceOnUse" x1="170.6802" y1="678.0142" x2="251.8563" y2="678.0142" gradientTransform="matrix(1 0 0 -1 0 986)">
					<stop  offset="0" style="stop-color:#C8495B;stop-opacity:0.5"/>
					<stop  offset="1" style="stop-color:#C8495B;stop-opacity:0"/>
				</linearGradient>
				<path class="st50" d="M228.8,308.2c-4,1.5-8.1,2.5-12.3,3.2c-0.9,0.1-1.8-0.5-1.9-1.4c-0.1-0.9,0.5-1.7,1.3-1.9
					c3.9-0.8,7.8-1.9,11.5-3.4c1-0.4,2.1,0.1,2.5,1C230.3,306.7,229.8,307.8,228.8,308.2L228.8,308.2z"/>
				
					<linearGradient id="SVGID_32_" gradientUnits="userSpaceOnUse" x1="170.6802" y1="675.3555" x2="251.8563" y2="675.3555" gradientTransform="matrix(1 0 0 -1 0 986)">
					<stop  offset="0" style="stop-color:#C8495B;stop-opacity:0.5"/>
					<stop  offset="1" style="stop-color:#C8495B;stop-opacity:0"/>
				</linearGradient>
				<path class="st51" d="M203.9,312.2l-6.1-0.5c-0.7-0.1-1.3-0.7-1.2-1.4c0.1-0.7,0.7-1.3,1.4-1.2h0.1l5.9,0.3h0.1
					c0.8,0,1.4,0.7,1.4,1.5C205.4,311.6,204.7,312.2,203.9,312.2L203.9,312.2z"/>
			</g>
		</g>
		<path class="st5" d="M203.8,374.8c-3,5.1-12.3,8.5-20.9,7.5c-8.6-1-13.1-6-10.1-11.1s12.3-8.5,20.9-7.5
			C202.3,364.7,206.8,369.7,203.8,374.8z"/>
		<g>
			<path class="st5" d="M333,368.9l-4.6,42.1c-0.1,1.3-1.3,2.2-2.6,2.1c-1.1-0.1-2-1-2.1-2.1l-4.6-42.1c-0.4-3.9,2.4-7.3,6.2-7.8
				s7.3,2.4,7.8,6.2C333,367.9,333,368.4,333,368.9z"/>
		</g>
		<g>
			<g>
				<path class="st8" d="M326.6,360.5l43.6,8c0.9,0.2,1.5,1,1.4,2c-0.2,0.8-0.9,1.4-1.7,1.4l-44.4-1.4c-2.8-0.1-4.9-2.4-4.8-5.2
					c0.1-2.8,2.4-4.9,5.2-4.8C326.1,360.5,326.3,360.5,326.6,360.5z"/>
			</g>
			<g>
				<path class="st8" d="M282.6,358.4l44,2.1c2.8,0.1,4.9,2.5,4.8,5.2c-0.1,2.8-2.5,4.9-5.2,4.8c-0.2,0-0.5,0-0.7-0.1l-43.2-8.7
					c-0.9-0.2-1.5-1.1-1.3-2C281.1,359,281.8,358.4,282.6,358.4z"/>
			</g>
			<g>
				<path class="st8" d="M321.7,363l18.2-24.9c0.6-0.8,1.6-0.9,2.4-0.4c0.7,0.5,0.9,1.3,0.5,2.1L330.4,368c-1.1,2.5-4.1,3.7-6.6,2.6
					s-3.7-4.1-2.6-6.6C321.3,363.6,321.5,363.3,321.7,363z"/>
			</g>
			<g>
				<path class="st8" d="M309.6,390.6l12.1-27.6c1.1-2.5,4.1-3.7,6.6-2.6s3.7,4.1,2.6,6.6c-0.1,0.3-0.3,0.7-0.6,1l-17.9,24.3
					c-0.6,0.8-1.6,0.9-2.4,0.4C309.5,392.2,309.3,391.3,309.6,390.6z"/>
			</g>
		</g>
		<g>
			<g>
				
					<linearGradient id="SVGID_33_" gradientUnits="userSpaceOnUse" x1="285.1414" y1="647.2723" x2="368.4002" y2="647.2723" gradientTransform="matrix(1 0 0 -1 0 986)">
					<stop  offset="0" style="stop-color:#C8495B;stop-opacity:0.1"/>
					<stop  offset="1" style="stop-color:#C8495B;stop-opacity:0.5"/>
				</linearGradient>
				<path class="st52" d="M339.5,334.3c2.1,0.3,4.2,0.7,6.3,1.2c2.1,0.5,3.3,2.6,2.8,4.7c-0.5,2-2.5,3.3-4.6,2.9l0,0
					c-1.8-0.4-3.6-0.6-5.5-0.8c-2.2-0.2-3.8-2.2-3.6-4.4c0.2-2.2,2.2-3.8,4.4-3.6C339.4,334.3,339.5,334.3,339.5,334.3L339.5,334.3z
					"/>
				
					<linearGradient id="SVGID_34_" gradientUnits="userSpaceOnUse" x1="285.1414" y1="638.8339" x2="368.4002" y2="638.8339" gradientTransform="matrix(1 0 0 -1 0 986)">
					<stop  offset="0" style="stop-color:#C8495B;stop-opacity:0.1"/>
					<stop  offset="1" style="stop-color:#C8495B;stop-opacity:0.5"/>
				</linearGradient>
				<path class="st53" d="M357.4,340.2c1.8,1.1,3.6,2.4,5.1,4c1.6,1.6,2.9,3.5,3.9,5.7c0.8,1.7,0,3.8-1.8,4.5
					c-1.7,0.8-3.7,0-4.5-1.6l0,0c-1.2-2.5-3.7-4.7-6.5-6.3c-1.8-1-2.4-3.2-1.4-5s3.2-2.4,5-1.4C357.3,340.2,357.3,340.2,357.4,340.2
					L357.4,340.2z"/>
				
					<linearGradient id="SVGID_35_" gradientUnits="userSpaceOnUse" x1="285.1414" y1="619.5788" x2="368.4002" y2="619.5788" gradientTransform="matrix(1 0 0 -1 0 986)">
					<stop  offset="0" style="stop-color:#C8495B;stop-opacity:0.1"/>
					<stop  offset="1" style="stop-color:#C8495B;stop-opacity:0.5"/>
				</linearGradient>
				<path class="st54" d="M366,363.7c-0.5,1-1,2-1.7,2.9c-0.6,0.9-1.3,1.7-2,2.5c-1.4,1.6-3,3-4.6,4.2c-1.3,1-3.2,0.7-4.2-0.6
					c-1-1.3-0.7-3.1,0.5-4.1l0,0c1.3-1.1,2.6-2.3,3.6-3.5c0.5-0.6,1-1.3,1.4-2s0.8-1.4,1.1-2.1l0.1-0.3c0.8-1.6,2.7-2.2,4.3-1.4
					C366.2,360.1,366.8,362,366,363.7C366,363.6,366,363.7,366,363.7z"/>
				
					<linearGradient id="SVGID_36_" gradientUnits="userSpaceOnUse" x1="285.1414" y1="607.887" x2="368.4002" y2="607.887" gradientTransform="matrix(1 0 0 -1 0 986)">
					<stop  offset="0" style="stop-color:#C8495B;stop-opacity:0.1"/>
					<stop  offset="1" style="stop-color:#C8495B;stop-opacity:0.5"/>
				</linearGradient>
				<path class="st55" d="M347.2,379.1c-3.7,1.5-7.5,2.6-11.3,3.3c-1.4,0.3-2.7-0.6-3-2s0.6-2.7,1.9-3l0,0c3.5-0.8,7-2,10.2-3.4
					c1.4-0.6,3,0,3.7,1.4s0,3-1.4,3.7C347.2,379,347.2,379,347.2,379.1z"/>
				
					<linearGradient id="SVGID_37_" gradientUnits="userSpaceOnUse" x1="285.1414" y1="604.8042" x2="368.4002" y2="604.8042" gradientTransform="matrix(1 0 0 -1 0 986)">
					<stop  offset="0" style="stop-color:#C8495B;stop-opacity:0.1"/>
					<stop  offset="1" style="stop-color:#C8495B;stop-opacity:0.5"/>
				</linearGradient>
				<path class="st56" d="M324.2,383.7c-2,0-3.9,0-5.9-0.1c-1.9-0.1-3.9-0.4-5.8-0.7c-1.2-0.2-1.9-1.3-1.8-2.4
					c0.2-1.1,1.2-1.9,2.3-1.8l0,0c1.8,0.2,3.6,0.4,5.4,0.4c1.8,0.1,3.6,0,5.4-0.1c1.3-0.1,2.4,0.9,2.5,2.2
					C326.6,382.5,325.6,383.6,324.2,383.7C324.3,383.6,324.2,383.7,324.2,383.7z"/>
				
					<linearGradient id="SVGID_38_" gradientUnits="userSpaceOnUse" x1="285.1414" y1="611.1749" x2="368.4002" y2="611.1749" gradientTransform="matrix(1 0 0 -1 0 986)">
					<stop  offset="0" style="stop-color:#C8495B;stop-opacity:0.1"/>
					<stop  offset="1" style="stop-color:#C8495B;stop-opacity:0.5"/>
				</linearGradient>
				<path class="st57" d="M301.2,379.6c-3.6-1.6-7.1-3.8-9.8-6.9c-0.6-0.7-0.5-1.8,0.2-2.4s1.7-0.5,2.3,0.1l0,0
					c2.3,2.5,5.4,4.3,8.7,5.7l0,0c1,0.4,1.5,1.5,1.1,2.5C303.4,379.6,302.3,380,301.2,379.6C301.3,379.6,301.2,379.6,301.2,379.6z"
					/>
				
					<linearGradient id="SVGID_39_" gradientUnits="userSpaceOnUse" x1="285.1414" y1="627.5635" x2="368.4002" y2="627.5635" gradientTransform="matrix(1 0 0 -1 0 986)">
					<stop  offset="0" style="stop-color:#C8495B;stop-opacity:0.1"/>
					<stop  offset="1" style="stop-color:#C8495B;stop-opacity:0.5"/>
				</linearGradient>
				<path class="st58" d="M287.8,361c0.3-2.2,1.2-4.3,2.3-6.1c0.4-0.6,1.2-0.8,1.8-0.5c0.6,0.4,0.8,1.2,0.5,1.8
					c-0.9,1.6-1.5,3.4-1.7,5.1c-0.1,0.8-0.8,1.4-1.6,1.3C288.3,362.6,287.7,361.8,287.8,361L287.8,361L287.8,361z"/>
			</g>
		</g>
		<g>
			<path class="st5" d="M59.1,390.1l-4.6,42.1c-0.1,1.3-1.3,2.2-2.6,2.1c-1.1-0.1-2-1-2.1-2.1l-4.6-42.1c-0.4-3.9,2.4-7.3,6.2-7.8
				s7.3,2.4,7.8,6.2C59.1,389.1,59.1,389.6,59.1,390.1z"/>
		</g>
		<g>
			<g>
				<path class="st8" d="M52.7,380l43.6,8c0.9,0.2,1.5,1,1.4,2c-0.2,0.8-0.9,1.4-1.7,1.4L51.6,390c-2.8-0.1-4.9-2.4-4.8-5.2
					c0.1-2.8,2.4-4.9,5.2-4.8C52.2,379.9,52.4,380,52.7,380z"/>
			</g>
			<g>
				<path class="st8" d="M8.7,377.9l44,2.1c2.8,0.1,4.9,2.5,4.8,5.2s-2.5,4.9-5.2,4.8c-0.2,0-0.5,0-0.7-0.1l-43.2-8.7
					c-0.9-0.2-1.5-1.1-1.3-2C7.2,378.5,7.9,377.9,8.7,377.9z"/>
			</g>
			<g>
				<path class="st8" d="M47.8,382.5l18.2-25c0.6-0.8,1.6-0.9,2.4-0.4c0.7,0.5,0.9,1.3,0.5,2.1l-12.5,28.3c-1.1,2.5-4.1,3.7-6.6,2.6
					s-3.7-4.1-2.6-6.6C47.4,383.1,47.6,382.8,47.8,382.5z"/>
			</g>
			<g>
				<path class="st8" d="M35.7,410.1l12.1-27.6c1.1-2.5,4.1-3.7,6.6-2.6s3.7,4.1,2.6,6.6c-0.1,0.3-0.3,0.7-0.6,1l-17.9,24.3
					c-0.6,0.8-1.6,0.9-2.4,0.4C35.6,411.7,35.4,410.8,35.7,410.1z"/>
			</g>
		</g>
		<g>
			<g>
				
					<linearGradient id="SVGID_40_" gradientUnits="userSpaceOnUse" x1="3.8647" y1="594.9893" x2="85.0408" y2="594.9893" gradientTransform="matrix(1 0 0 -1 0 986)">
					<stop  offset="0" style="stop-color:#C8495B;stop-opacity:0.5"/>
					<stop  offset="1" style="stop-color:#C8495B;stop-opacity:0.1"/>
				</linearGradient>
				<path class="st59" d="M84.5,390.7c-1.2,2.1-2.8,3.9-4.4,5.5c-1.5,1.5-4,1.4-5.5-0.1s-1.4-3.9,0-5.4l0,0c1.2-1.2,2.2-2.6,3-3.9
					c1.1-1.9,3.5-2.6,5.4-1.6s2.6,3.5,1.6,5.4C84.6,390.6,84.6,390.7,84.5,390.7L84.5,390.7z"/>
				
					<linearGradient id="SVGID_41_" gradientUnits="userSpaceOnUse" x1="3.8647" y1="583.6572" x2="85.0408" y2="583.6572" gradientTransform="matrix(1 0 0 -1 0 986)">
					<stop  offset="0" style="stop-color:#C8495B;stop-opacity:0.5"/>
					<stop  offset="1" style="stop-color:#C8495B;stop-opacity:0.1"/>
				</linearGradient>
				<path class="st60" d="M68.8,403.7c-4,1.9-8.2,3.2-12.4,4.2c-1.9,0.4-3.7-0.8-4.1-2.6c-0.4-1.8,0.7-3.6,2.5-4.1l0,0
					c3.8-1,7.4-2.3,10.8-4.1c1.8-0.9,4-0.2,4.9,1.6s0.2,4-1.6,4.9C68.9,403.7,68.8,403.7,68.8,403.7z"/>
				
					<linearGradient id="SVGID_42_" gradientUnits="userSpaceOnUse" x1="3.8647" y1="579.9324" x2="85.0408" y2="579.9324" gradientTransform="matrix(1 0 0 -1 0 986)">
					<stop  offset="0" style="stop-color:#C8495B;stop-opacity:0.5"/>
					<stop  offset="1" style="stop-color:#C8495B;stop-opacity:0.1"/>
				</linearGradient>
				<path class="st61" d="M43.5,409.5c-2.2,0.1-4.3,0-6.5-0.1c-1.1-0.1-2.2-0.2-3.2-0.3c-1.1-0.1-2.2-0.3-3.2-0.5
					c-1.6-0.2-2.8-1.8-2.5-3.4c0.2-1.6,1.7-2.7,3.3-2.6h0.2c1,0.1,1.9,0.2,2.9,0.3c1,0.1,2,0.1,2.9,0.2c2,0.1,3.9,0,5.9-0.1
					c1.8-0.1,3.3,1.2,3.4,3c0.1,1.8-1.2,3.3-3,3.4C43.6,409.5,43.5,409.5,43.5,409.5z"/>
				
					<linearGradient id="SVGID_43_" gradientUnits="userSpaceOnUse" x1="3.8647" y1="587.5786" x2="85.0408" y2="587.5786" gradientTransform="matrix(1 0 0 -1 0 986)">
					<stop  offset="0" style="stop-color:#C8495B;stop-opacity:0.5"/>
					<stop  offset="1" style="stop-color:#C8495B;stop-opacity:0.1"/>
				</linearGradient>
				<path class="st62" d="M18,404.7c-2-1-3.9-2.2-5.7-3.7s-3.4-3.2-4.6-5.3c-0.7-1.2-0.3-2.8,0.9-3.5s2.7-0.3,3.5,0.8l0,0
					c1.9,2.9,5,5.1,8.4,6.6c1.4,0.6,2,2.3,1.4,3.7C21.1,404.8,19.5,405.4,18,404.7L18,404.7z"/>
				
					<linearGradient id="SVGID_44_" gradientUnits="userSpaceOnUse" x1="3.8647" y1="607.9289" x2="85.0408" y2="607.9289" gradientTransform="matrix(1 0 0 -1 0 986)">
					<stop  offset="0" style="stop-color:#C8495B;stop-opacity:0.5"/>
					<stop  offset="1" style="stop-color:#C8495B;stop-opacity:0.1"/>
				</linearGradient>
				<path class="st63" d="M6.8,381.6c0.5-1,1-2.1,1.7-3.1c0.6-1,1.3-1.9,2.1-2.7c1.5-1.7,3.2-3.1,4.9-4.4c0.9-0.7,2.3-0.5,3,0.5
					c0.7,0.9,0.5,2.2-0.4,2.9l0,0c-1.5,1.2-2.9,2.5-4.1,4c-0.6,0.7-1.1,1.5-1.6,2.3s-0.8,1.6-1.2,2.4l-0.2,0.4c-0.6,1.1-2,1.6-3.1,1
					C6.7,384.2,6.2,382.8,6.8,381.6L6.8,381.6z"/>
				
					<linearGradient id="SVGID_45_" gradientUnits="userSpaceOnUse" x1="3.8647" y1="620.3857" x2="85.0408" y2="620.3857" gradientTransform="matrix(1 0 0 -1 0 986)">
					<stop  offset="0" style="stop-color:#C8495B;stop-opacity:0.5"/>
					<stop  offset="1" style="stop-color:#C8495B;stop-opacity:0.1"/>
				</linearGradient>
				<path class="st64" d="M26.9,365.4c4-1.5,8.1-2.5,12.3-3.2c0.9-0.1,1.8,0.5,1.9,1.4c0.1,0.9-0.5,1.7-1.3,1.9
					c-3.9,0.8-7.8,1.9-11.5,3.4c-1,0.4-2.1-0.1-2.5-1C25.4,367,25.9,365.9,26.9,365.4C26.9,365.5,26.9,365.4,26.9,365.4z"/>
				
					<linearGradient id="SVGID_46_" gradientUnits="userSpaceOnUse" x1="3.8647" y1="622.95" x2="85.0408" y2="622.95" gradientTransform="matrix(1 0 0 -1 0 986)">
					<stop  offset="0" style="stop-color:#C8495B;stop-opacity:0.5"/>
					<stop  offset="1" style="stop-color:#C8495B;stop-opacity:0.1"/>
				</linearGradient>
				<path class="st65" d="M51.8,361.5L58,362c0.7,0.1,1.3,0.7,1.2,1.4c-0.1,0.7-0.7,1.3-1.4,1.2h-0.1l-5.9-0.3h-0.1
					c-0.8,0-1.4-0.7-1.4-1.5S51,361.4,51.8,361.5L51.8,361.5z"/>
			</g>
		</g>
		<g>
			<path class="st5" d="M184.1,473.8l-6,42.1c-0.2,1.7-1.8,2.8-3.5,2.6c-1.4-0.2-2.4-1.3-2.6-2.6l-6-42.1c-0.7-5,2.8-9.6,7.7-10.3
				s9.6,2.8,10.3,7.7C184.2,472.1,184.2,473,184.1,473.8z"/>
		</g>
		<g>
			<g>
				<path class="st8" d="M175.7,465.5l54.5,9.2c0.9,0.2,1.5,1,1.4,1.9s-0.9,1.4-1.7,1.4l-55.2-2.6c-2.8-0.1-4.9-2.5-4.8-5.2
					c0.1-2.8,2.5-4.9,5.2-4.8C175.3,465.4,175.5,465.5,175.7,465.5z"/>
			</g>
			<g>
				<path class="st8" d="M121,462.1l54.8,3.4c2.8,0.2,4.9,2.6,4.7,5.3c-0.2,2.8-2.6,4.9-5.3,4.7c-0.2,0-0.4,0-0.6-0.1l-54-10
					c-0.9-0.2-1.5-1-1.4-2C119.3,462.6,120.1,462,121,462.1z"/>
			</g>
			<g>
				<path class="st8" d="M170.8,468l22-31.5c0.5-0.8,1.6-1,2.4-0.4c0.7,0.5,0.9,1.4,0.6,2.1L179.5,473c-1.2,2.5-4.2,3.6-6.7,2.4
					s-3.6-4.2-2.4-6.7C170.5,468.5,170.6,468.2,170.8,468z"/>
			</g>
			<g>
				<path class="st8" d="M155,502l15.8-34c1.2-2.5,4.2-3.6,6.7-2.4s3.6,4.2,2.4,6.7c-0.1,0.3-0.3,0.5-0.4,0.8l-21.6,30.7
					c-0.5,0.8-1.6,0.9-2.4,0.4C154.9,503.6,154.6,502.7,155,502z"/>
			</g>
		</g>
		<g>
			<g>
				
					<linearGradient id="SVGID_47_" gradientUnits="userSpaceOnUse" x1="120.4086" y1="485.2011" x2="222.2858" y2="485.2011" gradientTransform="matrix(1 0 0 -1 0 986)">
					<stop  offset="0" style="stop-color:#C8495B;stop-opacity:0.5"/>
					<stop  offset="1" style="stop-color:#C8495B;stop-opacity:0"/>
				</linearGradient>
				<path class="st66" d="M155.5,505.2l-6.3-1.1c-2.1-0.4-3.5-2.4-3.2-4.5c0.4-2.1,2.3-3.5,4.4-3.2l0.4,0.1l5.6,0.8h0.3
					c2.2,0.3,3.7,2.3,3.4,4.5S157.8,505.5,155.5,505.2C155.6,505.2,155.6,505.2,155.5,505.2z"/>
				
					<linearGradient id="SVGID_48_" gradientUnits="userSpaceOnUse" x1="120.4086" y1="492.9807" x2="222.2858" y2="492.9807" gradientTransform="matrix(1 0 0 -1 0 986)">
					<stop  offset="0" style="stop-color:#C8495B;stop-opacity:0.5"/>
					<stop  offset="1" style="stop-color:#C8495B;stop-opacity:0"/>
				</linearGradient>
				<path class="st67" d="M136.9,499.8c-4-2-7.8-4.5-10.8-8.1c-1.3-1.5-1.1-3.7,0.4-5c1.5-1.2,3.6-1.1,4.9,0.3l0,0
					c2.3,2.5,5.4,4.5,8.7,6.1c1.9,0.9,2.7,3.1,1.8,4.9c-0.9,1.9-3.1,2.7-4.9,1.8C137,499.9,137,499.8,136.9,499.8z"/>
				
					<linearGradient id="SVGID_49_" gradientUnits="userSpaceOnUse" x1="120.4086" y1="513.0778" x2="222.2858" y2="513.0778" gradientTransform="matrix(1 0 0 -1 0 986)">
					<stop  offset="0" style="stop-color:#C8495B;stop-opacity:0.5"/>
					<stop  offset="1" style="stop-color:#C8495B;stop-opacity:0"/>
				</linearGradient>
				<path class="st68" d="M121.1,478.3c0.1-2.5,0.6-4.9,1.5-7.1c0.4-1.1,1-2.1,1.5-3.1c0.6-1,1.3-1.9,1.9-2.8c1-1.4,2.9-1.8,4.4-0.8
					c1.4,0.9,1.8,2.8,0.9,4.3l-0.2,0.3l-1.4,2.3c-0.4,0.8-0.8,1.6-1.1,2.3c-0.6,1.6-0.9,3.2-0.9,4.8c0,1.8-1.5,3.4-3.3,3.4
					s-3.4-1.5-3.4-3.3C121.1,478.4,121.1,478.3,121.1,478.3L121.1,478.3z"/>
				
					<linearGradient id="SVGID_50_" gradientUnits="userSpaceOnUse" x1="120.4086" y1="529.8985" x2="222.2858" y2="529.8985" gradientTransform="matrix(1 0 0 -1 0 986)">
					<stop  offset="0" style="stop-color:#C8495B;stop-opacity:0.5"/>
					<stop  offset="1" style="stop-color:#C8495B;stop-opacity:0"/>
				</linearGradient>
				<path class="st69" d="M135.8,456.4c3.6-2.4,7.4-4.2,11.3-5.8c1.4-0.6,3,0.1,3.6,1.6c0.5,1.4-0.1,3-1.5,3.6l0,0
					c-3.6,1.5-7,3.4-10.1,5.5c-1.3,0.9-3.2,0.6-4.1-0.7C134,459.2,134.3,457.4,135.8,456.4C135.7,456.4,135.7,456.4,135.8,456.4z"/>
				
					<linearGradient id="SVGID_51_" gradientUnits="userSpaceOnUse" x1="120.4086" y1="537.2221" x2="222.2838" y2="537.2221" gradientTransform="matrix(1 0 0 -1 0 986)">
					<stop  offset="0" style="stop-color:#C8495B;stop-opacity:0.5"/>
					<stop  offset="1" style="stop-color:#C8495B;stop-opacity:0"/>
				</linearGradient>
				<path class="st70" d="M159.2,447.1c4.1-0.9,8.2-1.4,12.4-1.7c1.3-0.1,2.5,0.9,2.5,2.2c0.1,1.3-0.9,2.4-2.2,2.5
					c-3.9,0.4-7.8,1-11.6,2c-1.4,0.3-2.8-0.5-3.1-1.9C156.9,448.8,157.7,447.4,159.2,447.1C159.1,447.1,159.1,447.1,159.2,447.1z"/>
				
					<linearGradient id="SVGID_52_" gradientUnits="userSpaceOnUse" x1="120.4086" y1="537.4188" x2="222.2858" y2="537.4188" gradientTransform="matrix(1 0 0 -1 0 986)">
					<stop  offset="0" style="stop-color:#C8495B;stop-opacity:0.5"/>
					<stop  offset="1" style="stop-color:#C8495B;stop-opacity:0"/>
				</linearGradient>
				<path class="st71" d="M184.1,445.5c2.1,0.2,4.1,0.4,6.2,0.8c2.1,0.4,4.1,0.8,6.1,1.4c1.1,0.3,1.7,1.4,1.4,2.5
					c-0.3,1-1.4,1.7-2.4,1.4l0,0c-1.9-0.5-3.8-0.8-5.8-1.1c-1.9-0.3-3.9-0.5-5.9-0.6h-0.1c-1.2-0.1-2.1-1.1-2-2.4
					C181.7,446.3,182.8,445.4,184.1,445.5C184,445.5,184,445.5,184.1,445.5z"/>
				
					<linearGradient id="SVGID_53_" gradientUnits="userSpaceOnUse" x1="120.4086" y1="527.7598" x2="222.2858" y2="527.7598" gradientTransform="matrix(1 0 0 -1 0 986)">
					<stop  offset="0" style="stop-color:#C8495B;stop-opacity:0.5"/>
					<stop  offset="1" style="stop-color:#C8495B;stop-opacity:0"/>
				</linearGradient>
				<path class="st72" d="M208,452.7c3.6,2.2,7,5.1,9.3,8.9c0.5,0.8,0.2,1.8-0.6,2.2c-0.8,0.5-1.7,0.2-2.2-0.5l0,0
					c-2-3.1-5-5.6-8.3-7.5c-0.9-0.5-1.2-1.6-0.7-2.5S207.1,452.2,208,452.7L208,452.7z"/>
				
					<linearGradient id="SVGID_54_" gradientUnits="userSpaceOnUse" x1="120.4086" y1="509.1031" x2="222.2858" y2="509.1031" gradientTransform="matrix(1 0 0 -1 0 986)">
					<stop  offset="0" style="stop-color:#C8495B;stop-opacity:0.5"/>
					<stop  offset="1" style="stop-color:#C8495B;stop-opacity:0"/>
				</linearGradient>
				<path class="st73" d="M219.3,474.5c-0.5,2.1-1.4,4.1-2.5,5.9c-0.4,0.6-1.2,0.8-1.8,0.5c-0.6-0.4-0.8-1.2-0.5-1.8
					c0.9-1.6,1.6-3.4,2-5.2c0.2-0.8,0.9-1.3,1.7-1.1C219,472.9,219.5,473.6,219.3,474.5C219.3,474.4,219.3,474.5,219.3,474.5z"/>
			</g>
		</g>
	</g>
	<g>
		<line class="st10" x1="392" y1="564.5" x2="437.6" y2="590.8"/>
		<g>
			<path class="st5" d="M469.7,554.6l-5.1,24.7l-19.3-11.1L469.7,455l26.9,15.5l25.7,142.1L502.1,601l-5.3-30.7L469.7,554.6z
				 M483,487.2l-10.3,51.1l20.8,12L483,487.2z"/>
			<path class="st5" d="M549.8,628.5l-27.3-143l20.4,11.8L562,605l16.8-87l20,11.6l-24.6,113L549.8,628.5z"/>
			<path class="st5" d="M654.3,688.8l-18.5-10.7v-97.3l-18.3-10.6v-11.6c10.3,1.6,21.4-0.1,25.9-3.3l10.9,6.3L654.3,688.8
				L654.3,688.8z"/>
		</g>
		
			<linearGradient id="SVGID_55_" gradientUnits="userSpaceOnUse" x1="432.3" y1="440.25" x2="522.3" y2="440.25" gradientTransform="matrix(1 0 0 -1 0 986)">
			<stop  offset="0" style="stop-color:#C8495B;stop-opacity:0.3"/>
			<stop  offset="1" style="stop-color:#C8495B;stop-opacity:0"/>
		</linearGradient>
		<polygon class="st74" points="485,635.3 459.2,493.2 432.3,477.7 469.7,456.2 496.6,471.7 522.3,613.8 		"/>
		
			<linearGradient id="SVGID_56_" gradientUnits="userSpaceOnUse" x1="536.8" y1="393.85" x2="598.8" y2="393.85" gradientTransform="matrix(1 0 0 -1 0 986)">
			<stop  offset="0" style="stop-color:#C8495B;stop-opacity:0.3"/>
			<stop  offset="1" style="stop-color:#C8495B;stop-opacity:0"/>
		</linearGradient>
		<polygon class="st75" points="541.4,540.6 561.4,552.2 536.8,665.2 574.2,643.7 598.8,530.7 578.8,519.1 		"/>
		
			<linearGradient id="SVGID_57_" gradientUnits="userSpaceOnUse" x1="485.2" y1="428.8" x2="562" y2="428.8" gradientTransform="matrix(1 0 0 -1 0 986)">
			<stop  offset="0" style="stop-color:#C8495B;stop-opacity:0.3"/>
			<stop  offset="1" style="stop-color:#C8495B;stop-opacity:0"/>
		</linearGradient>
		<polygon class="st76" points="485.2,508.2 505.6,519.9 524.6,627.7 562,606.2 542.9,498.4 522.5,486.7 		"/>
		<line class="st28" x1="520.1" y1="513.4" x2="534.4" y2="521.7"/>
		
			<linearGradient id="SVGID_58_" gradientUnits="userSpaceOnUse" x1="580.1" y1="352.05" x2="654.2" y2="352.05" gradientTransform="matrix(1 0 0 -1 0 986)">
			<stop  offset="0" style="stop-color:#C8495B;stop-opacity:0.3"/>
			<stop  offset="1" style="stop-color:#C8495B;stop-opacity:0"/>
		</linearGradient>
		<path class="st77" d="M580.1,581.3c10.3,1.6,21.4-0.1,25.9-3.3l10.9,6.3v127.2l37.3-21.5V562.7l-10.9-6.3
			c-4.6,3.3-15.6,4.9-25.9,3.3L580.1,581.3z"/>
		<g>
			<g>
				<line class="st22" x1="680.4" y1="595.3" x2="669.8" y2="589.5"/>
				<line class="st78" x1="627.3" y1="618.4" x2="678.1" y2="647.8"/>
				<line class="st79" x1="626.3" y1="661.7" x2="650.3" y2="675.5"/>
			</g>
		</g>
		<g>
			<g>
				<line class="st28" x1="579.9" y1="672" x2="588.8" y2="677.1"/>
				<line class="st80" x1="677.2" y1="616.2" x2="688.4" y2="622.4"/>
				<line class="st15" x1="628.7" y1="701.6" x2="644.3" y2="710.6"/>
			</g>
		</g>
		<line class="st14" x1="557.5" y1="622.5" x2="593.1" y2="643.1"/>
		<g>
			<path class="st8" d="M432.3,576.1l-5.1,24.7l-19.3-11.1l24.4-113.1l26.9,15.5l25.8,142l-20.2-11.7l-5.3-30.7L432.3,576.1z
				 M445.7,508.7l-10.3,51.1l20.8,12L445.7,508.7z"/>
			<path class="st8" d="M512.4,650l-27.3-143l20.4,11.8l19.1,107.7l16.8-87l20,11.6l-24.6,113L512.4,650z"/>
			<path class="st8" d="M616.9,710.3l-18.5-10.7v-97.3l-18.3-10.6v-11.6c10.3,1.6,21.4-0.1,25.9-3.3l10.9,6.3L616.9,710.3
				L616.9,710.3z"/>
		</g>
		<line class="st10" x1="319.4" y1="437" x2="348.1" y2="453.6"/>
		<line class="st14" x1="621.3" y1="588.5" x2="650.1" y2="605.1"/>
		<line class="st14" x1="490.7" y1="612.3" x2="526.4" y2="632.9"/>
		<g>
			<g>
				<line class="st78" x1="367.8" y1="463.4" x2="404.3" y2="484.5"/>
				<line class="st14" x1="261.9" y1="436.4" x2="286.8" y2="450.8"/>
				<line class="st79" x1="387.8" y1="520.7" x2="427.4" y2="543.5"/>
				<line class="st78" x1="353.3" y1="524.7" x2="380.7" y2="540.5"/>
				<line class="st14" x1="391.4" y1="499.5" x2="405.7" y2="507.8"/>
			</g>
			<line class="st22" x1="312.1" y1="480.7" x2="338.9" y2="496"/>
			<path class="st78" d="M308.2,478.4"/>
			<path class="st78" d="M303,475.4"/>
			<line class="st78" x1="293.2" y1="469.8" x2="303" y2="475.4"/>
			<line class="st22" x1="434.1" y1="456.4" x2="457" y2="469.5"/>
		</g>
		<g>
			<path class="st5" d="M571.9,516.2h-10v-14.1c0-2.8,2.2-5,5-5l0,0c2.8,0,5,2.2,5,5V516.2z"/>
			<circle class="st6" cx="567.1" cy="492.1" r="4"/>
			<path class="st8" d="M566.9,538.1L566.9,538.1c-2.8,0-5-2.2-5-5v-16.9h10v16.9C571.9,535.9,569.6,538.1,566.9,538.1z"/>
		</g>
	</g>
	<g>
		<g>
			<g>
				<polygon class="st8" points="1678.8,170.7 1685.6,338.7 1894.6,458.8 2032.5,379.2 2032.8,359.2 1735.3,192.4 				"/>
				<path class="st5" d="M1847.8,108.7c0,87.1,45.9,167.2,120.4,211.6l65.2,38.7l-138.9,79.6l-65.2-38.7
					c-74.6-44.3-120.4-124.5-120.4-211.6L1847.8,108.7z"/>
			</g>
			<polygon class="st6" points="1679.2,170.5 1817.4,91.2 1848.1,108.9 1709.8,188.2 			"/>
		</g>
		<g>
			<path class="st6" d="M1731.4,146.2h-9.2v-13c0-2.6,2-4.6,4.6-4.6l0,0c2.6,0,4.6,2,4.6,4.6V146.2z"/>
			<circle class="st8" cx="1727" cy="124" r="3.7"/>
			<path class="st8" d="M1726.8,166.5L1726.8,166.5c-2.6,0-4.6-2-4.6-4.6v-15.6h9.2v15.6C1731.4,164.3,1729.4,166.5,1726.8,166.5z"
				/>
		</g>
		<g>
			<g>
				<path class="st8" d="M1889.3,360c-1.5-4.1-5-7.5-7.7-7.5s-3.6,3.4-2.1,7.5s5,7.5,7.7,7.5C1889.9,367.4,1890.8,364.1,1889.3,360z
					"/>
			</g>
			<path class="st6" d="M1820.4,324.8l-2.7,1.5c-4.9,2.7-4.9,9.8-0.1,12.6l39.4,22.7c10.2,5.9,22.7,5.9,33,0.2l0,0
				c4.4-2.5,4.5-8.9,0.1-11.4l-44.2-25.4C1838,320.4,1828.3,320.3,1820.4,324.8z"/>
			<g>
				<path class="st8" d="M1826.9,350.4c-1.5-4.1-5-7.5-7.7-7.5s-3.6,3.4-2.1,7.5s5,7.5,7.7,7.5
					C1827.5,357.8,1828.5,354.5,1826.9,350.4z"/>
				<path class="st6" d="M1824.5,350.4c-0.8-2.1-2.5-3.7-3.8-3.7s-1.8,1.7-1,3.7c0.8,2.1,2.5,3.7,3.8,3.7S1825.2,352.4,1824.5,350.4
					z"/>
			</g>
			<g>
				<path class="st8" d="M1858.9,368c-1.5-4.1-5-7.5-7.7-7.5s-3.6,3.4-2.1,7.5s5,7.5,7.7,7.5C1859.5,375.4,1860.4,372.1,1858.9,368z
					"/>
				<path class="st6" d="M1856.5,368c-0.8-2.1-2.5-3.7-3.8-3.7s-1.8,1.7-1,3.7c0.8,2.1,2.5,3.7,3.8,3.7S1857.2,370,1856.5,368z"/>
			</g>
		</g>
		<g>
			
				<linearGradient id="SVGID_59_" gradientUnits="userSpaceOnUse" x1="1831.4" y1="689.1204" x2="1873.4686" y2="689.1204" gradientTransform="matrix(1 0 0 -1 0 986)">
				<stop  offset="0.2776" style="stop-color:#C8495B"/>
				<stop  offset="0.5469" style="stop-color:#C8495B"/>
			</linearGradient>
			<path class="st81" d="M1867.8,277.4l-9.1,3.3l-4.5,1.6l-1.1,0.4l-0.8,0.3c-0.2,0.1-0.5,0.2-0.8,0.3l-0.7,0.4
				c-2,1-3.7,2.4-5.1,4.2c-0.7,0.9-1.3,1.9-1.8,2.9c-0.5,1.1-0.9,2.2-1.1,3.3l-0.2,0.9l-0.1,0.9c-0.1,0.6-0.1,1.2-0.1,1.8
				c0,0.6,0.1,1.2,0.1,1.8l0.1,0.9c0.1,0.3,0.1,0.6,0.2,1l2.1,9.4l4.3,18.8c0.4,1.5-0.6,3.1-2.2,3.4c-1.4,0.3-2.8-0.4-3.3-1.8
				l-7-17.9l-3.5-9c-0.1-0.3-0.3-0.8-0.5-1.3l-0.4-1.4c-0.2-1-0.5-1.9-0.6-2.9s-0.3-2-0.3-3v-1.5c0-0.5,0-1,0.1-1.5c0.1-2,0.5-4,1-6
				c0.6-1.9,1.3-3.9,2.4-5.7c2-3.6,4.8-6.9,8.2-9.4l1.3-0.9c0.4-0.3,0.9-0.5,1.4-0.8l1.3-0.8l1.1-0.6l4.2-2.3l8.5-4.5
				c4.1-2.2,9.3-0.7,11.5,3.5c2.2,4.1,0.7,9.3-3.5,11.5C1868.6,277.1,1868.2,277.3,1867.8,277.4z"/>
			
				<linearGradient id="SVGID_60_" gradientUnits="userSpaceOnUse" x1="1854.6" y1="676.5203" x2="1896.6685" y2="676.5203" gradientTransform="matrix(1 0 0 -1 0 986)">
				<stop  offset="0.2776" style="stop-color:#C8495B"/>
				<stop  offset="0.5469" style="stop-color:#C8495B"/>
			</linearGradient>
			<path class="st82" d="M1891,290l-9.1,3.3l-4.5,1.6l-1.1,0.4l-0.8,0.3c-0.2,0.1-0.5,0.2-0.8,0.3l-0.7,0.4c-2,1-3.7,2.4-5.1,4.2
				c-0.7,0.9-1.3,1.9-1.8,2.9c-0.5,1.1-0.9,2.2-1.1,3.3l-0.2,0.9l-0.1,0.9c-0.1,0.6-0.1,1.2-0.1,1.8c0,0.6,0.1,1.2,0.1,1.8l0.1,0.9
				c0.1,0.3,0.1,0.6,0.2,1l2.1,9.4l4.3,18.8c0.4,1.5-0.6,3.1-2.2,3.4c-1.4,0.3-2.8-0.4-3.3-1.8l-7-17.9l-3.5-9
				c-0.1-0.3-0.3-0.8-0.5-1.3l-0.4-1.4c-0.2-1-0.5-1.9-0.6-2.9s-0.3-2-0.3-3v-1.5c0-0.5,0-1,0.1-1.5c0.1-2,0.5-4,1-6
				c0.6-1.9,1.3-3.9,2.4-5.7c2-3.6,4.8-6.9,8.2-9.4l1.3-0.9c0.4-0.3,0.9-0.5,1.4-0.8l1.3-0.8l1.1-0.6l4.2-2.3l8.5-4.5
				c4.1-2.2,9.3-0.7,11.5,3.5c2.2,4.1,0.7,9.3-3.5,11.5C1891.8,289.7,1891.4,289.8,1891,290z"/>
			<line class="st83" x1="1847.4" y1="332.4" x2="1835.8" y2="337"/>
			<line class="st83" x1="1870.7" y1="345.2" x2="1859.1" y2="349.9"/>
			
				<linearGradient id="SVGID_61_" gradientUnits="userSpaceOnUse" x1="1862.5438" y1="759.5733" x2="1898.3439" y2="759.5733" gradientTransform="matrix(1 0 0 -1 0 986)">
				<stop  offset="0" style="stop-color:#DE7554"/>
				<stop  offset="1" style="stop-color:#F4A04D"/>
			</linearGradient>
			<path class="st84" d="M1862.5,251.2l35.8,20.6v-62.6c0-7.8-4.2-15-10.9-18.9l-14.3-8.3c-4.7-2.7-10.6,0.7-10.6,6.1V251.2z"/>
			<path class="st8" d="M1862.5,251.2l35.8,20.6V283c0,4.6-4.9,7.4-8.9,5.1l-26.9-15.5V251.2z"/>
			<path class="st8" d="M1833.2,304.4c-0.1-0.3-0.3-0.8-0.5-1.3l-0.4-1.4c-0.2-1-0.5-1.9-0.6-2.9s-0.3-2-0.3-3v-1.5
				c0-0.5,0-1,0.1-1.5c0.1-2,0.5-4,1-6c0.6-1.9,1.3-3.9,2.4-5.7c2-3.6,4.8-6.9,8.2-9.4l1.3-0.9c0.4-0.3,0.9-0.5,1.4-0.8l1.3-0.8
				l1.1-0.6l4.2-2.3l8.5-4.5c4.1-2.2,9.3-0.7,11.5,3.5c2.2,4.1,0.7,9.3-3.5,11.5c-0.4,0.2-0.8,0.4-1.1,0.5l-9.1,3.3l-4.5,1.6
				l-1.1,0.4l-0.8,0.3c-0.2,0.1-0.5,0.2-0.8,0.3l-0.7,0.4c-2,1-3.7,2.4-5.1,4.2c-0.7,0.9-1.3,1.9-1.8,2.9c-0.5,1.1-0.9,2.2-1.1,3.3
				l-0.2,0.9l-0.1,0.9c-0.1,0.6-0.1,1.2-0.1,1.8c0,0.6,0.1,1.2,0.1,1.8l0.1,0.9c0.1,0.3,0.1,0.6,0.2,1L1833.2,304.4z"/>
			<path class="st8" d="M1856.5,316.9c-0.1-0.3-0.3-0.8-0.5-1.3l-0.4-1.4c-0.2-1-0.5-1.9-0.6-2.9s-0.3-2-0.3-3v-1.5
				c0-0.5,0-1,0.1-1.5c0.1-2,0.5-4,1-6c0.6-1.9,1.3-3.9,2.4-5.7c2-3.6,4.8-6.9,8.2-9.4l1.3-0.9c0.4-0.3,0.9-0.5,1.4-0.8l1.3-0.8
				l1.1-0.6l4.2-2.3l8.5-4.5c4.1-2.2,9.3-0.7,11.5,3.5c2.2,4.1,0.7,9.3-3.5,11.5c-0.4,0.2-0.8,0.4-1.1,0.5l-9.1,3.3l-4.5,1.6
				l-1.1,0.4l-0.8,0.3c-0.2,0.1-0.5,0.2-0.8,0.3l-0.7,0.4c-2,1-3.7,2.4-5.1,4.2c-0.7,0.9-1.3,1.9-1.8,2.9c-0.5,1.1-0.9,2.2-1.1,3.3
				l-0.2,0.9l-0.1,0.9c-0.1,0.6-0.1,1.2-0.1,1.8c0,0.6,0.1,1.2,0.1,1.8l0.1,0.9c0.1,0.3,0.1,0.6,0.2,1L1856.5,316.9z"/>
			<g>
				<path class="st6" d="M1898.1,198.1c4.4,2,9,3.7,13.8,4.9s9.7,1.9,14.7,2.2c5,0.2,10,0,15-0.7c2.5-0.4,4.9-0.9,7.5-1.5l7.7-1.7
					c1.2-0.3,2.4,0.5,2.6,1.7c0.2,1.1-0.4,2.2-1.4,2.5l-7.4,2.8c-2.4,0.9-5.1,1.9-7.7,2.6c-5.3,1.5-10.7,2.5-16.2,3
					s-11.1,0.5-16.7-0.1s-11.1-1.7-16.6-3.4l0,0c-3.4-1.1-5.4-4.7-4.3-8.1s4.7-5.4,8.1-4.3C1897.6,197.8,1897.9,197.9,1898.1,198.1z
					"/>
			</g>
			<g>
				<path class="st6" d="M1860.4,191.5c-3.7-2.3-7.6-4.2-11.8-5.6c-4.2-1.4-8.6-2.2-13.1-2.5s-9.1,0.1-13.6,1l-14.3,3.1l0,0
					c-1.2,0.3-2.4-0.5-2.6-1.7c-0.2-1.1,0.4-2.1,1.4-2.5l13.7-5.2c4.9-1.8,10-2.9,15.2-3.4s10.6-0.3,15.8,0.6
					c5.3,0.9,10.5,2.5,15.4,4.7c3.3,1.4,4.8,5.3,3.3,8.6c-1.4,3.3-5.3,4.8-8.6,3.3C1860.9,191.8,1860.6,191.6,1860.4,191.5z"/>
			</g>
			
				<ellipse transform="matrix(0.2455 -0.9694 0.9694 0.2455 1276.0093 1921.5198)" class="st8" cx="1872.4" cy="141" rx="8" ry="8"/>
			
				<ellipse transform="matrix(0.2455 -0.9694 0.9694 0.2455 1273.3186 1929.0623)" class="st6" cx="1875.9" cy="146.5" rx="8" ry="8"/>
			
				<ellipse transform="matrix(0.2455 -0.9694 0.9694 0.2455 1268.0443 1943.2854)" class="st8" cx="1882.4" cy="157" rx="17.2" ry="17.2"/>
			
				<ellipse transform="matrix(0.2455 -0.9694 0.9694 0.2455 1262.5414 1952.0933)" class="st6" cx="1885.3" cy="165" rx="13.1" ry="13.1"/>
			<g>
				<path class="st20" d="M1883.1,222l3.4,2l-12.2,9.9l-3.4-2L1883.1,222z"/>
				<polygon class="st12" points="1872.5,211.2 1867.1,208.2 1875.2,224.3 1877.8,222.2 				"/>
				<polygon class="st6" points="1882.4,231.1 1879.8,233.3 1885.5,244.7 1885.6,244.9 1890.9,247.9 				"/>
			</g>
			<polygon class="st6" points="1888.4,191.4 1881.2,199.2 1873.4,182.8 			"/>
			<polygon class="st8" points="1894.6,288.4 1891.3,289.9 1888.2,289.6 1889,285.7 1893.3,284.2 			"/>
		</g>
		<g>
			<path class="st5" d="M1820.8,95.2h-8V83.9c0-2.2,1.8-4,4-4l0,0c2.2,0,4,1.8,4,4V95.2z"/>
			<circle class="st6" cx="1817" cy="75.9" r="3.2"/>
			<path class="st8" d="M1816.8,112.7L1816.8,112.7c-2.2,0-4-1.8-4-4V95.2h8v13.5C1820.8,110.9,1819.2,112.7,1816.8,112.7z"/>
		</g>
		<g>
			
				<linearGradient id="SVGID_62_" gradientUnits="userSpaceOnUse" x1="1774.7146" y1="570.6478" x2="1867.9055" y2="653.7092" gradientTransform="matrix(1 0 0 -1 0 986)">
				<stop  offset="0" style="stop-color:#C8495B;stop-opacity:0.4"/>
				<stop  offset="1" style="stop-color:#C8495B;stop-opacity:0"/>
			</linearGradient>
			<polygon class="st85" points="1650.3,345.5 1648.4,434.2 1804.1,523.7 2019.8,399.2 2019.8,345.2 1822.8,170.2 			"/>
			<g>
				<polygon class="st6" points="1808.2,522.2 1799.8,533.5 1794.6,531.9 1797.4,518 				"/>
				<polygon class="st6" points="1630.3,345.4 1650.1,345.4 1652.6,350.1 1640.8,358 				"/>
				<path class="st6" d="M1652.9,346.2l148.9,86c5.2,2.9,8.4,8.5,8.4,14.4v70.6c0,5.8-6.2,9.3-11.2,6.5L1643.5,434v-82.4
					C1643.5,346.8,1648.7,343.8,1652.9,346.2z"/>
				<path class="st8" d="M1633.2,346.1l159.1,91.8c5.6,3.2,9.1,9.2,9.1,15.7v75.1c0,6.2-6.8,10.2-12.2,7l-158.7-91.6
					c-4.4-2.5-7-7.1-7-12.2v-80.1C1623.4,346.7,1628.9,343.6,1633.2,346.1z"/>
				<path class="st86" d="M1767.6,436.9l-125.5-72.5c-2.8-1.7-6.5,0.4-6.5,3.7v63.4c0,5.1,2.8,9.9,7.1,12.4l125.6,72.5
					c2.8,1.7,6.5-0.4,6.5-3.7v-63.4C1774.7,444.2,1772.1,439.5,1767.6,436.9z"/>
				<path class="st5" d="M1737.6,440.9l-125.5-72.5c-2.8-1.7-6.5,0.4-6.5,3.7v63.4c0,5.1,2.8,9.9,7.1,12.4l125.6,72.5
					c2.8,1.7,6.5-0.4,6.5-3.7v-63.4C1744.7,448.2,1742.1,443.5,1737.6,440.9z"/>
				<path class="st6" d="M1760.4,478.3l-24.6-14.2c-0.6-0.3-1.3,0.1-1.3,0.7v12.4c0,1,0.5,1.9,1.4,2.4l24.6,14.2
					c0.6,0.3,1.3-0.1,1.3-0.7v-12.4C1761.8,479.7,1761.3,478.8,1760.4,478.3z"/>
				<path class="st6" d="M1760.4,503.1l-24.6-14.2c-0.6-0.3-1.3,0.1-1.3,0.7V502c0,1,0.5,1.9,1.4,2.4l24.6,14.2
					c0.6,0.3,1.3-0.1,1.3-0.7v-12.4C1761.8,504.5,1761.3,503.6,1760.4,503.1z"/>
				<path class="st6" d="M1760.4,527.9l-24.6-14.2c-0.6-0.3-1.3,0.1-1.3,0.7v12.4c0,1,0.5,1.9,1.4,2.4l24.6,14.2
					c0.6,0.3,1.3-0.1,1.3-0.7v-12.4C1761.8,529.3,1761.3,528.4,1760.4,527.9z"/>
				<path class="st6" d="M1791.1,488.2c1.5,2.6,0.6,4.6-2,4.6s-5.8-2-7.3-4.6s-0.6-4.6,2-4.6
					C1786.4,483.6,1789.6,485.6,1791.1,488.2z"/>
				<path class="st6" d="M1631.6,400.8c-1.2-3.2-3.8-5.8-5.9-5.8c-2,0-2.8,2.6-1.6,5.8c1.2,3.2,3.8,5.8,5.9,5.8
					C1632.2,406.6,1632.9,404,1631.6,400.8z"/>
				<g class="st11">
					<path class="st8" d="M1643,443l8.8,5.1v4.1l-13.2-7.6V416l4.4,2.5V443z"/>
					<path class="st8" d="M1658.9,456.2l-4.4-2.5v-28.5l4.4,2.5V456.2z"/>
					<path class="st8" d="M1668.3,461.6l-6.1-32l4.6,2.6l4.3,24.1l3.8-19.5l4.5,2.6l-5.5,25.3L1668.3,461.6z"/>
					<path class="st8" d="M1695.4,452.9l-8.5-4.9v7.5l6.3,3.6v4.1l-6.3-3.6v8.8l8.5,4.9v4.1l-12.9-7.4v-28.5l12.9,7.4V452.9z"/>
				</g>
				<g>
					<polygon class="st8" points="1722.2,449.4 1720.4,445.3 1714.2,441.7 1712.4,443.7 1708.4,441.4 1708.4,453.1 1726.2,463.3 
						1726.2,451.7 					"/>
					<path class="st5" d="M1713.8,450.4c0-1.9,1.6-2.6,3.5-1.5s3.5,3.6,3.5,5.5s-1.6,2.6-3.5,1.5S1713.8,452.3,1713.8,450.4z"/>
				</g>
			</g>
		</g>
	</g>
	<g>
		<g>
			<line class="st87" x1="922.9" y1="864.5" x2="922.9" y2="896.5"/>
			<line class="st87" x1="934.2" y1="875.7" x2="911.5" y2="885.3"/>
			<line class="st87" x1="938.9" y1="889.7" x2="906.9" y2="871.3"/>
			<line class="st87" x1="934.2" y1="898.3" x2="911.5" y2="862.7"/>
		</g>
		<g>
			<line class="st87" x1="998.9" y1="908.5" x2="998.9" y2="940.5"/>
			<line class="st87" x1="1010.2" y1="919.7" x2="987.5" y2="929.3"/>
			<line class="st87" x1="1014.9" y1="933.7" x2="982.9" y2="915.3"/>
			<line class="st87" x1="1010.2" y1="942.3" x2="987.5" y2="906.7"/>
		</g>
		<path class="st28" d="M975.9,911.3c0-12.4,10.1-16.7,22.5-9.5s22.5,23.1,22.5,35.5s-10.1,16.7-22.5,9.5
			C985.9,939.6,975.9,923.7,975.9,911.3z"/>
		<path class="st28" d="M900.9,868c0-12.4,10.1-16.7,22.5-9.5s22.5,23.1,22.5,35.5s-10.1,16.7-22.5,9.5
			C910.9,896.3,900.9,880.4,900.9,868z"/>
		<polygon class="st88" points="984.1,887.5 948.9,871.7 923.4,881.7 955.6,904.8 		"/>
		<line class="st15" x1="943.6" y1="849.1" x2="955.6" y2="904.8"/>
		<line class="st88" x1="998.4" y1="925.7" x2="981.9" y2="878"/>
		<path class="st8" d="M938.1,842.4l-4.4,2.5c-2.7,1.6-2.3,5.6,0.7,6.5l19,6.1c1.8,0.6,3.3-1.6,2-3.1l-9.9-10.9
			C943.7,841.5,940.6,841,938.1,842.4z"/>
		<line class="st89" x1="991.6" y1="868.6" x2="1001.9" y2="862.7"/>
		<line class="st90" x1="969.8" y1="881.2" x2="991.6" y2="868.6"/>
		<line class="st89" x1="961.9" y1="886.3" x2="969.8" y2="881.2"/>
	</g>
	<g>
		<line class="st91" x1="1915.5" y1="483.3" x2="2064.7" y2="397.2"/>
		<line class="st91" x1="1926.5" y1="477" x2="1926.5" y2="501.4"/>
		<line class="st91" x1="1958.1" y1="458.7" x2="1958.1" y2="483.1"/>
		<line class="st91" x1="1989.8" y1="440.4" x2="1989.8" y2="464.8"/>
		<line class="st91" x1="2021.5" y1="422.1" x2="2021.5" y2="446.5"/>
		<line class="st91" x1="2053.2" y1="403.9" x2="2053.2" y2="428.3"/>
	</g>
	<g>
		<line class="st91" x1="434.7" y1="641.3" x2="285.5" y2="555.2"/>
		<line class="st91" x1="423.7" y1="635" x2="423.7" y2="659.4"/>
		<line class="st91" x1="392.1" y1="616.7" x2="392.1" y2="641.1"/>
		<line class="st91" x1="360.4" y1="598.4" x2="360.4" y2="622.8"/>
		<line class="st91" x1="328.7" y1="580.1" x2="328.7" y2="604.5"/>
		<line class="st91" x1="297" y1="561.9" x2="297" y2="586.3"/>
	</g>
	<polyline class="st10" points="1038.7,669.6 1026.6,676.6 980.7,650.2 1025.9,624.1 931.4,569.5 	"/>
	<line class="st10" x1="1055.1" y1="660.1" x2="1044.4" y2="666.3"/>
	<line class="st10" x1="1071.3" y1="650.7" x2="1062" y2="656.1"/>
	<g>
		<path class="st8" d="M917.9,757.8l-101.7,58.7c-11.9,6.9-21.6,2.8-21.6-9.1V544.1c0-11.9,9.7-27.1,21.6-34l101.7-58.7
			c11.9-6.9,21.6-2.8,21.6,9.1v263.4C939.4,735.7,929.8,751,917.9,757.8z"/>
		<polygon class="st8" points="935.4,450.3 949.4,459.3 945.9,464.2 933.9,465.2 930.9,458.2 		"/>
		<polygon class="st8" points="815.3,827.3 800.9,819.1 800.9,813.2 804.9,810.2 823.9,810.2 824.9,826.2 		"/>
		<path class="st6" d="M935.9,768.8l-101.7,58.7c-11.9,6.9-21.6,2.8-21.6-9.1V555.1c0-11.9,9.7-27.1,21.6-34l101.7-58.7
			c11.9-6.9,21.6-2.8,21.6,9.1v263.4C957.4,746.7,947.8,762,935.9,768.8z"/>
		<polygon class="st5" points="947.2,717.5 822.9,789.2 822.9,568.7 947.2,496.9 		"/>
		<polygon class="st8" points="947.2,636.8 822.9,708.6 822.9,568.7 947.2,496.9 		"/>
		<path class="st5" d="M898.1,508l-26.2,15.1c-1.5,0.9-2.8,0.4-2.8-1.2l0,0c0-1.5,1.3-3.5,2.8-4.4l26.2-15.1
			c1.5-0.9,2.8-0.4,2.8,1.2l0,0C900.9,505.2,899.7,507.2,898.1,508z"/>
		<path class="st5" d="M873.8,782.2c0-6.2,5-14.1,11.2-17.7c6.2-3.6,11.2-1.5,11.2,4.7s-5,14.1-11.2,17.7
			C878.8,790.6,873.8,788.4,873.8,782.2z"/>
		<path class="st6" d="M869,580.1c0-8.6,7-19.6,15.6-24.6s15.6-2,15.6,6.6s-7,19.6-15.6,24.6C876,591.7,869,588.7,869,580.1z"/>
		<path class="st5" d="M884.6,594.8L884.6,594.8c-13.2,7.6-24,24.6-24,37.8v26.7l48-27.7v-26.7C908.6,591.7,897.8,587.1,884.6,594.8
			z"/>
		
			<linearGradient id="SVGID_63_" gradientUnits="userSpaceOnUse" x1="822.3" y1="326.85" x2="947.6" y2="326.85" gradientTransform="matrix(1 0 0 -1 0 986)">
			<stop  offset="0" style="stop-color:#C8495B"/>
			<stop  offset="1" style="stop-color:#F4A04D"/>
		</linearGradient>
		<polygon class="st92" points="947.6,636.9 947.6,608.9 822.3,681.3 822.3,709.4 		"/>
		<line class="st16" x1="838.9" y1="685.9" x2="930.9" y2="632.7"/>
		<path class="st5" d="M900.6,650.1c0-2.8,2.2-6.3,5-7.9c2.8-1.6,5-0.6,5,2.1s-2.2,6.3-5,7.9S900.6,652.9,900.6,650.1z"/>
		<g>
			<g>
				<path class="st6" d="M897.6,728.2c0-4.4,3.6-10.1,8-12.6c4.4-2.6,8-1,8,3.4s-3.6,10.1-8,12.6
					C901.2,734.1,897.6,732.6,897.6,728.2z"/>
				<g>
					<path class="st8" d="M903.2,722.1c0-1.3,1.1-3.1,2.4-3.8c1.3-0.8,2.4-0.3,2.4,1s-1.1,3.1-2.4,3.8
						C904.2,723.9,903.2,723.4,903.2,722.1z"/>
					<path class="st5" d="M905.6,724.5L905.6,724.5c-2.1,1.2-3.7,3.8-3.7,5.9v0.3c0,2.1,1.7,2.8,3.7,1.6l0,0
						c2.1-1.2,3.7-3.8,3.7-5.9v-0.3C909.3,724.1,907.6,723.4,905.6,724.5z"/>
				</g>
			</g>
			<g>
				<path class="st8" d="M968.7,699.3l-33.3,19.2c-6.6,3.8-12,1.6-12-5.1s5.4-15.1,12-18.9l33.3-19.2c6.6-3.8,12-1.6,12,5.1
					S975.3,695.5,968.7,699.3z"/>
			</g>
			<line class="st15" x1="935.4" y1="706.6" x2="968.7" y2="687.3"/>
		</g>
		<g>
			<g>
				<path class="st6" d="M922.6,543.3c0-4.4,3.6-10.1,8-12.6c4.4-2.6,8-1,8,3.4s-3.6,10.1-8,12.6
					C926.2,549.2,922.6,547.7,922.6,543.3z"/>
				<g>
					<path class="st8" d="M928.2,537.2c0-1.3,1.1-3.1,2.4-3.8c1.3-0.8,2.4-0.3,2.4,1s-1.1,3.1-2.4,3.8
						C929.2,539,928.2,538.6,928.2,537.2z"/>
					<path class="st5" d="M930.6,539.7L930.6,539.7c-2.1,1.2-3.7,3.8-3.7,5.9v0.3c0,2.1,1.7,2.8,3.7,1.6l0,0
						c2.1-1.2,3.7-3.8,3.7-5.9v-0.3C934.3,539.2,932.6,538.5,930.6,539.7z"/>
				</g>
			</g>
			<g>
				<path class="st5" d="M983.7,520.2l-23.3,13.5c-6.6,3.8-12,1.6-12-5.1s5.4-15.1,12-18.9l23.3-13.5c6.6-3.8,12-1.6,12,5.1
					S990.3,516.4,983.7,520.2z"/>
			</g>
			<line class="st15" x1="960.4" y1="521.7" x2="983.7" y2="508.2"/>
		</g>
		<g>
			<g>
				<path class="st6" d="M833.6,730.2c0-4.4,3.6-10.1,8-12.6c4.4-2.6,8-1,8,3.4s-3.6,10.1-8,12.6
					C837.2,736.1,833.6,734.6,833.6,730.2z"/>
				<g>
					<path class="st8" d="M839.2,724.1c0-1.3,1.1-3.1,2.4-3.8c1.3-0.8,2.4-0.3,2.4,1s-1.1,3.1-2.4,3.8
						C840.2,725.9,839.2,725.4,839.2,724.1z"/>
					<path class="st5" d="M841.6,726.5L841.6,726.5c-2.1,1.2-3.7,3.8-3.7,5.9v0.3c0,2.1,1.7,2.8,3.7,1.6l0,0
						c2.1-1.2,3.7-3.8,3.7-5.9v-0.3C845.3,726.1,843.6,725.4,841.6,726.5z"/>
				</g>
			</g>
			<g>
				<path class="st8" d="M921.4,689.7l-50,28.9c-6.6,3.8-12,1.6-12-5.1s5.4-15.1,12-18.9l50-28.9c6.6-3.8,12-1.6,12,5.1
					S928,685.9,921.4,689.7z"/>
			</g>
			<line class="st15" x1="869.4" y1="707.7" x2="899.4" y2="690.4"/>
			<line class="st15" x1="907.4" y1="685.8" x2="918.4" y2="679.5"/>
		</g>
		<g>
			<g>
				<path class="st8" d="M740.5,709.3c0-4.9,3.9-11.1,8.8-13.9c4.9-2.8,8.8-1.1,8.8,3.7s-3.9,11.1-8.8,13.9
					C744.4,715.9,740.5,714.2,740.5,709.3z"/>
				<g>
					<path class="st6" d="M746.6,702.6c0-1.5,1.2-3.4,2.7-4.2c1.5-0.9,2.7-0.3,2.7,1.1s-1.2,3.4-2.7,4.2
						C747.8,704.6,746.6,704.1,746.6,702.6z"/>
					<path class="st5" d="M749.3,705.3L749.3,705.3c-2.3,1.3-4.1,4.2-4.1,6.5v0.3c0,2.3,1.8,3,4.1,1.7l0,0c2.3-1.3,4.1-4.2,4.1-6.5
						V707C753.4,704.8,751.6,704,749.3,705.3z"/>
				</g>
			</g>
			<g>
				<path class="st5" d="M837.2,664.7l-55.1,31.8c-7.3,4.2-13.2,1.7-13.2-5.6s5.9-16.7,13.2-20.9l55.1-31.8
					c7.3-4.2,13.2-1.7,13.2,5.6C850.5,651.2,844.5,660.5,837.2,664.7z"/>
			</g>
			<line class="st15" x1="779.9" y1="684.6" x2="813" y2="665.5"/>
			<line class="st15" x1="821.8" y1="660.4" x2="833.9" y2="653.4"/>
		</g>
		<g>
			<g class="st11">
				<path class="st12" d="M843.5,576.6l4-2.3v1.9l-6,3.5v-13l2-1.2V576.6z"/>
				<path class="st12" d="M850.8,574.3l-2,1.2v-13l2-1.2V574.3z"/>
				<path class="st12" d="M855.1,571.8l-2.8-11.4l2.1-1.2l2,8.8L858,557l2.1-1.2l-2.5,14.5L855.1,571.8z"/>
				<path class="st12" d="M867.5,553.4l-3.9,2.2v3.4l2.9-1.7v1.9l-2.9,1.7v4l3.9-2.2v1.9l-5.9,3.4v-13l5.9-3.4V553.4z"/>
			</g>
			<path class="st5" d="M836.9,570.9c0,1.4-1.1,3.1-2.5,3.9c-1.4,0.8-2.5,0.3-2.5-1.1s1.1-3.1,2.5-3.9
				C835.8,569,836.9,569.5,836.9,570.9z"/>
		</g>
		<g>
			<g>
				<path class="st5" d="M825.1,448.3c0-6.4,5.2-14.5,11.6-18.2c6.4-3.7,11.6-1.5,11.6,4.9s-5.2,14.5-11.6,18.2
					C830.3,456.8,825.1,454.7,825.1,448.3z"/>
				<g>
					<path class="st8" d="M833.2,439.5c0-1.9,1.6-4.4,3.5-5.5s3.5-0.5,3.5,1.5c0,1.9-1.6,4.4-3.5,5.5S833.2,441.4,833.2,439.5z"/>
					<path class="st6" d="M836.7,443L836.7,443c-3,1.7-5.4,5.5-5.4,8.5v0.4c0,3,2.4,4,5.4,2.3l0,0c3-1.7,5.4-5.5,5.4-8.5v-0.4
						C842.1,442.3,839.7,441.3,836.7,443z"/>
				</g>
			</g>
			<g>
				<path class="st6" d="M927.8,406.6l-48.1,27.8c-9.6,5.5-17.3,2.2-17.3-7.3s7.8-21.8,17.3-27.3l48.1-27.8
					c9.6-5.5,17.3-2.2,17.3,7.3S937.4,401.1,927.8,406.6z"/>
			</g>
			<line class="st10" x1="879.7" y1="417.1" x2="927.8" y2="389.3"/>
		</g>
		<g>
			<polygon class="st93" points="906.2,465.5 922.8,455.9 928.2,459 911.5,468.6 			"/>
		</g>
		<polygon class="st93" points="805.6,602.6 800.6,599.7 800.6,576.2 805.6,579.1 		"/>
		<polygon class="st93" points="805.6,642.6 800.6,639.7 800.6,616.2 805.6,619.1 		"/>
		<g>
			<g>
				<path class="st8" d="M903.5,820.3c0-4.9,3.9-11.1,8.8-13.9c4.9-2.8,8.8-1.1,8.8,3.7s-3.9,11.1-8.8,13.9
					C907.4,826.9,903.5,825.2,903.5,820.3z"/>
				<g>
					<path class="st6" d="M909.6,813.6c0-1.5,1.2-3.4,2.7-4.2c1.5-0.9,2.7-0.3,2.7,1.1s-1.2,3.4-2.7,4.2
						C910.8,815.6,909.6,815.1,909.6,813.6z"/>
					<path class="st5" d="M912.3,816.3L912.3,816.3c-2.3,1.3-4.1,4.2-4.1,6.5v0.3c0,2.3,1.8,3,4.1,1.7l0,0c2.3-1.3,4.1-4.2,4.1-6.5
						V818C916.4,815.8,914.6,815,912.3,816.3z"/>
				</g>
			</g>
			<g>
				<path class="st6" d="M1000.2,775.7l-55.1,31.8c-7.3,4.2-13.2,1.7-13.2-5.6s5.9-16.7,13.2-20.9l55.1-31.8
					c7.3-4.2,13.2-1.7,13.2,5.6C1013.5,762.2,1007.5,771.5,1000.2,775.7z"/>
			</g>
			<line class="st10" x1="942.9" y1="795.6" x2="976" y2="776.5"/>
			<line class="st10" x1="984.8" y1="771.4" x2="996.9" y2="764.4"/>
		</g>
		<line class="st15" x1="834.4" y1="756.7" x2="864.4" y2="739.4"/>
		<line class="st15" x1="834.4" y1="768.7" x2="851.6" y2="758.8"/>
	</g>
	<line class="st94" x1="1822.4" y1="495.7" x2="1806.8" y2="487.2"/>
	<line class="st95" x1="787.3" y1="817.8" x2="802.1" y2="809.2"/>
	<polyline class="st80" points="656.9,722.9 678.5,735.7 705.1,720.3 773.4,759.7 719.9,790.6 777.1,823.6 787.3,817.8 	"/>
	<polyline class="st22" points="1132.8,954.3 1399.8,800.2 1327.4,759.9 1684.8,552.2 1763.3,597.5 1880.6,529.3 1822.4,495.7 	"/>
	<g>
		<polygon class="st8" points="1595.9,550.3 1561,570.5 1595.9,590.7 1631,570.5 		"/>
		<polygon class="st5" points="1595.9,715.2 1561,695 1561,570.5 1595.9,590.7 		"/>
		<polygon class="st6" points="1595.9,715.2 1631,695 1631,570.5 1595.9,590.7 		"/>
		<polygon class="st8" points="1610.4,601.1 1604.1,604.7 1604.1,598.4 1610.4,594.8 		"/>
		<polygon class="st8" points="1610.4,619.9 1604.1,623.5 1604.1,617.3 1610.4,613.6 		"/>
		<polygon class="st8" points="1610.4,670 1604.1,673.6 1604.1,667.4 1610.4,663.7 		"/>
		<polygon class="st8" points="1622.9,663.7 1616.6,667.4 1616.6,661.1 1622.9,657.5 		"/>
		<polygon class="st8" points="1622.9,640.2 1616.6,643.9 1616.6,637.6 1622.9,634 		"/>
		<polygon class="st6" points="1581.6,641.2 1587.9,644.9 1587.9,638.6 1581.6,635 		"/>
		<polygon class="st6" points="1569,661.6 1575.4,665.2 1575.4,659 1569,655.3 		"/>
		<polygon class="st6" points="1569,613.1 1575.4,616.6 1575.4,610.4 1569,606.8 		"/>
	</g>
	<polyline class="st91" points="2094.9,81.2 2072,94.4 2039.2,80.6 2026.1,101.2 2001.4,90.8 1976.6,129.8 1963.5,124.3 
		1930.7,175.9 1918.4,183.1 	"/>
	<g>
		<path class="st5" d="M2013.8,343.1h-8v-11.3c0-2.2,1.8-4,4-4l0,0c2.2,0,4,1.8,4,4V343.1z"/>
		<circle class="st8" cx="2009.9" cy="323.9" r="3.2"/>
		<path class="st6" d="M2009.8,360.7L2009.8,360.7c-2.2,0-4-1.8-4-4v-13.5h8v13.5C2013.8,358.9,2011.9,360.7,2009.8,360.7z"/>
	</g>
	
		<linearGradient id="SVGID_64_" gradientUnits="userSpaceOnUse" x1="-2155.5767" y1="456.4" x2="-2004.8296" y2="456.4" gradientTransform="matrix(-1 0 0 -1 -1660.731 986)">
		<stop  offset="0.2436" style="stop-color:#F4A04D;stop-opacity:0"/>
		<stop  offset="1" style="stop-color:#F4A04D;stop-opacity:0.5"/>
	</linearGradient>
	<path class="st96" d="M354,529.6c20.4-54.7,66.5-99.8,103-99.8s48.3,45.1,27.9,99.8s-66.5,99.8-103,99.8S333.7,585.3,354,529.6z"/>
	<path class="st8" d="M1204.8,562.2c-0.5-31.7,0.1-60.8,0-95.1l74.1,43.3v95.5L1204.8,562.2z"/>
	<path class="st8" d="M1261.7,660.3c-0.3-6.6,0.1-26.3,0-46.1l50.2,29.3v46.4L1261.7,660.3z"/>
	<g>
		<line class="st10" x1="1224.9" y1="550.3" x2="1218.3" y2="546.5"/>
		<line class="st10" x1="1266.8" y1="574.3" x2="1235" y2="556.1"/>
		<line class="st10" x1="1218.3" y1="499" x2="1253.2" y2="519"/>
		<line class="st10" x1="1242.2" y1="528.5" x2="1266.8" y2="542.7"/>
		<line class="st10" x1="1218.3" y1="514.8" x2="1232.3" y2="523"/>
		<line class="st10" x1="1218.3" y1="530.7" x2="1255.2" y2="551.8"/>
	</g>
	<path class="st10" d="M1290.3,654.1c0,5.1-4.1,6.8-9.2,3.9s-9.2-9.4-9.2-14.5s4.1-6.8,9.2-3.9"/>
	<path class="st6" d="M1291.4,647.2c0-1.5-1.2-3.5-2.8-4.4c-1.5-0.9-2.8-0.4-2.8,1.2c0,1.5,1.2,3.5,2.8,4.4
		C1290.1,649.3,1291.4,648.8,1291.4,647.2z"/>
	<g>
		<line class="st15" x1="1299.8" y1="665.2" x2="1299.8" y2="673.2"/>
		<line class="st15" x1="1303.8" y1="671.5" x2="1295.8" y2="666.9"/>
	</g>
	<g>
		<polygon class="st6" points="0,128.9 104.7,189.1 104.7,290.8 0,230.6 		"/>
		<polygon class="st8" points="0,141.6 104.7,201.8 104.7,303.5 0,243.3 		"/>
		<g>
			<line class="st15" x1="69.6" y1="222.4" x2="81.8" y2="229.4"/>
			<line class="st15" x1="23.5" y1="207.3" x2="49.6" y2="222.2"/>
			<line class="st15" x1="27.5" y1="232.8" x2="40.6" y2="240.3"/>
			<line class="st10" x1="14.5" y1="225.3" x2="22" y2="229.6"/>
			<line class="st10" x1="61.5" y1="240.3" x2="73.4" y2="247.2"/>
			<line class="st10" x1="41.5" y1="228.9" x2="53.1" y2="235.5"/>
			<line class="st10" x1="51.6" y1="189.5" x2="57.7" y2="192.9"/>
			<line class="st15" x1="29.4" y1="176.7" x2="42.2" y2="184"/>
			<line class="st10" x1="14.5" y1="168.1" x2="22.4" y2="172.7"/>
			<line class="st15" x1="14.5" y1="236.6" x2="22.4" y2="241.2"/>
			<line class="st10" x1="14.5" y1="179.4" x2="40.6" y2="194.4"/>
			<line class="st10" x1="52.5" y1="212.6" x2="63.1" y2="218.7"/>
			<line class="st10" x1="32.5" y1="201.1" x2="44.1" y2="207.8"/>
		</g>
		<g>
			<path class="st8" d="M10.5,141.4c0,0.9-0.7,1.1-1.6,0.6s-1.6-1.7-1.6-2.5c0-0.9,0.7-1.1,1.6-0.6C9.8,139.3,10.5,140.5,10.5,141.4
				z"/>
			<path class="st8" d="M16.9,145.1c0,0.9-0.7,1.1-1.6,0.6s-1.6-1.7-1.6-2.5c0-0.9,0.7-1.1,1.6-0.6C16.2,143,16.9,144.2,16.9,145.1z
				"/>
			<path class="st8" d="M23.4,148.8c0,0.9-0.7,1.1-1.6,0.6s-1.6-1.7-1.6-2.5c0-0.9,0.7-1.1,1.6-0.6
				C22.7,146.8,23.4,147.9,23.4,148.8z"/>
		</g>
		<polygon class="st5" points="75.3,263.5 116.9,287.4 116.9,331.2 75.3,307.4 		"/>
		<g>
			<path class="st8" d="M93.1,303.4l7.1-1.7c0.7-0.2,1-1.1,0.5-1.6l-7.1-7.7c-0.6-0.7-1.7-0.2-1.7,0.7v9.4
				C91.9,303.1,92.4,303.5,93.1,303.4z"/>
		</g>
	</g>
	<g>
		
			<linearGradient id="SVGID_65_" gradientUnits="userSpaceOnUse" x1="1979" y1="782.95" x2="2157.3999" y2="782.95" gradientTransform="matrix(1 0 0 -1 0 986)">
			<stop  offset="0.2776" style="stop-color:#C8495B"/>
			<stop  offset="0.5469" style="stop-color:#C8495B"/>
		</linearGradient>
		<polygon class="st97" points="1979,200.5 2157.4,97.2 2157.4,205.4 1979,308.9 		"/>
		<polygon class="st5" points="2089.2,163.8 2139.6,134.6 2139.6,165.2 2089.2,194.4 		"/>
		<polygon class="st28" points="2060.2,232.2 2127.1,193.4 2127.1,254 2060.2,292.8 		"/>
		<g>
			<path class="st8" d="M2019,246.3l17.4-24.4c1.8-2.5,2.4-5.5,1.2-5.4l-17.4,1.1c-1.5,0.1-4.2,4.3-4.2,6.5v23.2
				C2016,249,2017.5,248.4,2019,246.3z"/>
		</g>
		<g>
			<line class="st16" x1="2072.1" y1="241.4" x2="2104.4" y2="222.7"/>
			<line class="st16" x1="2094.2" y1="243.3" x2="2117.1" y2="230"/>
			<line class="st16" x1="2072.1" y1="256.1" x2="2085.1" y2="248.7"/>
			<line class="st16" x1="2072.1" y1="270.8" x2="2106.2" y2="251"/>
		</g>
	</g>
	<g>
		<g>
			<path class="st8" d="M1435.8,588.9l-10,39.6c-0.7,2.8-3.5,4.5-6.3,3.8c-1.9-0.5-3.3-2-3.8-3.8l-10-39.6
				c-2.1-8.3,2.9-16.7,11.2-18.8c8.3-2.1,16.7,2.9,18.8,11.2C1436.5,583.9,1436.4,586.5,1435.8,588.9z"/>
		</g>
		<g>
			<path class="st5" d="M1402.4,571.7l-52.8,39.5c-3.3,2.5-8,1.8-10.5-1.5s-1.8-8,1.5-10.5c0.2-0.1,0.4-0.3,0.5-0.4l56-34.7
				c2.2-1.3,5-0.7,6.3,1.5C1404.8,567.6,1404.3,570.3,1402.4,571.7z"/>
		</g>
		<g>
			<path class="st6" d="M1454.2,569.8v-19.1c0-0.2,0-0.4,0-0.6V550l0,0c-0.3-7.8-9-14.4-22.8-16c-17.7-2.1-37.1,4.7-43.3,15.3
				c-1.3,2.2-1.9,4.4-1.9,6.6l0,0v19.7l0,0c0,8,8.7,14.9,22.8,16.5c17.7,2.1,37.1-4.7,43.3-15.3c1.2-2.1,1.8-4.1,1.9-6.1l0,0v-0.2
				C1454.2,570.2,1454.2,570,1454.2,569.8z"/>
			<path class="st8" d="M1452.3,555c-6.2,10.6-25.6,17.5-43.3,15.3c-17.7-2.1-27-12.4-20.9-23c6.2-10.6,25.6-17.5,43.3-15.3
				C1449.1,534.1,1458.5,544.4,1452.3,555z"/>
		</g>
		<circle class="st6" cx="1420.2" cy="477" r="84.7"/>
		<g>
			<path class="st8" d="M1344.2,484.1c1.2-10.9,3.9-21.6,8.1-31.6s9.9-19.2,16.7-27.4c6.8-8.2,14.8-15.3,23.5-21.1
				c8.7-5.8,18.3-10.3,28.2-13.2c1.8-0.5,3.7,0.5,4.2,2.3c0.5,1.7-0.4,3.4-1.9,4.1l0,0c-8.9,3.8-17.2,8.9-24.5,15
				s-13.6,13.2-18.8,21c-5.1,7.8-9.1,16.3-11.7,25.1c-2.6,8.8-3.9,17.9-3.8,26.9c0,5.5-4.4,10-10,10.1c-5.5,0-10-4.4-10.1-10
				C1344.2,485,1344.2,484.6,1344.2,484.1L1344.2,484.1z"/>
		</g>
		<path class="st8" d="M1386.3,510.6c-7.4-19.9-24.2-36.3-37.4-36.3c-13.3,0-17.5,16.4-10.1,36.3s24.2,36.3,37.4,36.3
			S1393.7,530.9,1386.3,510.6z"/>
		<path class="st5" d="M1375,515.1c-5.2-14-17.1-25.6-26.4-25.6c-9.4,0-12.4,11.6-7.2,25.6c5.2,14,17.1,25.6,26.4,25.6
			C1377.2,540.7,1380.2,529.4,1375,515.1z"/>
		<path class="st8" d="M1363.5,523.3c-3.6-9.6-11.6-17.4-18-17.4s-8.4,7.9-4.9,17.4c3.6,9.6,11.6,17.4,18,17.4
			S1367,533,1363.5,523.3z"/>
		<g>
			<path class="st5" d="M1448,577l56,109c2.5,4.9,0.6,10.9-4.3,13.5c-4.9,2.5-10.9,0.6-13.5-4.3c-0.1-0.2-0.2-0.4-0.3-0.6
				l-49.1-112.3c-1.4-3.1,0.1-6.7,3.2-8.1C1443.1,572.9,1446.5,574.2,1448,577z"/>
		</g>
		
			<linearGradient id="SVGID_66_" gradientUnits="userSpaceOnUse" x1="1173.8655" y1="493.1863" x2="1674.2559" y2="493.1863" gradientTransform="matrix(1 0 0 -1 0 986)">
			<stop  offset="0.4453" style="stop-color:#C8495B;stop-opacity:0"/>
			<stop  offset="1" style="stop-color:#C8495B;stop-opacity:0.5"/>
		</linearGradient>
		<path class="st98" d="M1660.4,520.1c-45.2,78.3-187.7,129.6-318.2,114.5s-199.7-90.8-154.5-169.1C1233,387.2,1375.4,336,1506,351
			S1705.6,441.8,1660.4,520.1z"/>
		<path class="st5" d="M1494.8,498.9c0,3.5-2.7,7.8-6.2,9.8s-6.2,0.9-6.2-2.6s2.7-7.8,6.2-9.8
			C1491.9,494.2,1494.8,495.5,1494.8,498.9z"/>
		<g class="st99">
			<path class="st8" d="M1463.9,548.9c-2.8-0.7-5.5-2-7.8-3.9s-4.1-4.2-5.3-6.8c-1.2-2.5-2-5.2-2.4-7.8s-0.5-5.2-0.3-7.8
				c0.3-5.1,1.3-10,3-14.7c1.6-4.7,3.7-9.1,6.1-13.4c2.5-4.2,5.2-8.2,8.3-11.9c3.1-3.7,6.5-7.2,10.2-10.3c3.7-3.1,7.7-5.9,11.9-8.2
				c4.1-2.4,8.7-4.5,13.5-5.4c0.7-0.1,1.4,0.3,1.6,1.1c0.1,0.7-0.3,1.4-1,1.6l0,0c-4.4,1.1-8.5,3.1-12.4,5.7c-4,2.4-7.6,5.3-11,8.4
				s-6.4,6.6-9.2,10.3c-2.8,3.7-5.2,7.6-7.3,11.6c-2.1,4.1-3.8,8.3-5.1,12.6c-1.3,4.3-2,8.7-2,13.1c-0.1,4.3,0.7,8.6,2.5,12
				s4.8,5.5,8.4,6.3c2.2,0.5,3.5,2.6,3.1,4.7c-0.5,2.2-2.6,3.5-4.7,3.1C1464.1,549,1464,549,1463.9,548.9L1463.9,548.9z"/>
		</g>
		
			<linearGradient id="SVGID_67_" gradientUnits="userSpaceOnUse" x1="1381.8999" y1="420.65" x2="1173.9818" y2="420.65" gradientTransform="matrix(1 0 0 -1 0 986)">
			<stop  offset="0" style="stop-color:#C8495B;stop-opacity:5.000000e-02"/>
			<stop  offset="1" style="stop-color:#F4A04D;stop-opacity:0.6"/>
		</linearGradient>
		<path class="st100" d="M1377.6,533.3l-0.5-0.5c-1.2,4.9-4.3,7.9-9.2,7.9c-9.4,0-21.2-11.6-26.4-25.6c-2.3-6.2-3-12-2.3-16.4
			l-162.8-5.2c-16.3,67.6,51,127.9,165.9,141.1c13.1,1.5,26.4,2.3,39.6,2.6L1377.6,533.3z"/>
	</g>
</g>
</svg>
