<?xml version="1.0" encoding="utf-8"?>
<!-- Generator: Adobe Illustrator 22.0.1, SVG Export Plug-In . SVG Version: 6.00 Build 0)  -->
<!DOCTYPE svg PUBLIC "-//W3C//DTD SVG 1.1//EN" "http://www.w3.org/Graphics/SVG/1.1/DTD/svg11.dtd" [
	<!ENTITY ns_extend "http://ns.adobe.com/Extensibility/1.0/">
	<!ENTITY ns_ai "http://ns.adobe.com/AdobeIllustrator/10.0/">
	<!ENTITY ns_graphs "http://ns.adobe.com/Graphs/1.0/">
	<!ENTITY ns_vars "http://ns.adobe.com/Variables/1.0/">
	<!ENTITY ns_imrep "http://ns.adobe.com/ImageReplacement/1.0/">
	<!ENTITY ns_sfw "http://ns.adobe.com/SaveForWeb/1.0/">
	<!ENTITY ns_custom "http://ns.adobe.com/GenericCustomNamespace/1.0/">
	<!ENTITY ns_adobe_xpath "http://ns.adobe.com/XPath/1.0/">
]>
<svg version="1.1" id="Layer_1" xmlns:x="&ns_extend;" xmlns:i="&ns_ai;" xmlns:graph="&ns_graphs;"
	 xmlns="http://www.w3.org/2000/svg" xmlns:xlink="http://www.w3.org/1999/xlink" x="0px" y="0px" width="18px" height="18px"
	 viewBox="0 0 18 18" style="enable-background:new 0 0 18 18;" xml:space="preserve">
<style type="text/css">
	.st0{fill:#FFFFFF;}
</style>
<metadata>
	<sfw  xmlns="&ns_sfw;">
		<slices></slices>
		<sliceSourceBounds  bottomLeftOrigin="true" height="15.9" width="15.8" x="1" y="1.1"></sliceSourceBounds>
	</sfw>
</metadata>
<g>
	<path class="st0" d="M9,2.4c2.1,0,2.4,0,3.2,0s1.2,0.2,1.5,0.3c0.4,0.1,0.6,0.3,0.9,0.6c0.3,0.3,0.5,0.5,0.6,0.9
		c0.1,0.3,0.2,0.7,0.3,1.5c0,0.8,0,1.1,0,3.2s0,2.4,0,3.2c0,0.8-0.2,1.2-0.3,1.5c-0.1,0.4-0.3,0.6-0.6,0.9c-0.3,0.3-0.5,0.5-0.9,0.6
		c-0.3,0.1-0.7,0.2-1.5,0.3c-0.8,0-1.1,0-3.2,0s-2.4,0-3.2,0s-1.2-0.2-1.5-0.3c-0.4-0.1-0.6-0.3-0.9-0.6S2.9,14,2.8,13.6
		c-0.1-0.3-0.2-0.7-0.3-1.5c0-0.8,0-1.1,0-3.2s0-2.4,0-3.2s0.2-1.2,0.3-1.5c0.1-0.4,0.3-0.6,0.6-0.9s0.5-0.5,0.9-0.6
		c0.3,0,0.7-0.2,1.5-0.2C6.6,2.4,6.9,2.4,9,2.4 M9,1C6.8,1,6.6,1,5.7,1S4.3,1.2,3.8,1.4s-1,0.5-1.4,0.9c-0.5,0.5-0.8,0.9-1,1.5
		C1.2,4.3,1.1,4.9,1,5.7C1,6.6,1,6.8,1,9s0,2.4,0,3.3c0,0.9,0.2,1.4,0.4,1.9s0.5,1,0.9,1.4s0.9,0.7,1.4,0.9s1.1,0.3,1.9,0.4
		c0.9,0,1.1,0,3.3,0s2.4,0,3.3,0c0.9,0,1.4-0.2,1.9-0.4c0.5-0.2,1-0.5,1.4-0.9s0.7-0.9,0.9-1.4s0.3-1.1,0.4-1.9c0-0.9,0-1.1,0-3.3
		s0-2.4,0-3.3s-0.2-1.4-0.4-1.9c-0.2-0.5-0.5-1-0.9-1.4s-0.9-0.7-1.4-0.9S13,1.2,12.2,1.1C11.4,1,11.2,1,9,1L9,1z"/>
	<path class="st0" d="M9,4.9C6.7,4.9,4.9,6.7,4.9,9s1.8,4.1,4.1,4.1s4.1-1.8,4.1-4.1S11.3,4.9,9,4.9z M9,11.7
		c-1.5,0-2.7-1.2-2.7-2.7S7.5,6.3,9,6.3s2.7,1.2,2.7,2.7S10.5,11.7,9,11.7z"/>
	<circle class="st0" cx="13.3" cy="4.7" r="1"/>
</g>
</svg>
