<?xml version="1.0" encoding="utf-8"?>
<!-- Generator: Adobe Illustrator 20.0.0, SVG Export Plug-In . SVG Version: 6.00 Build 0)  -->
<!DOCTYPE svg PUBLIC "-//W3C//DTD SVG 1.1//EN" "http://www.w3.org/Graphics/SVG/1.1/DTD/svg11.dtd" [
	<!ENTITY ns_extend "http://ns.adobe.com/Extensibility/1.0/">
	<!ENTITY ns_ai "http://ns.adobe.com/AdobeIllustrator/10.0/">
	<!ENTITY ns_graphs "http://ns.adobe.com/Graphs/1.0/">
	<!ENTITY ns_vars "http://ns.adobe.com/Variables/1.0/">
	<!ENTITY ns_imrep "http://ns.adobe.com/ImageReplacement/1.0/">
	<!ENTITY ns_sfw "http://ns.adobe.com/SaveForWeb/1.0/">
	<!ENTITY ns_custom "http://ns.adobe.com/GenericCustomNamespace/1.0/">
	<!ENTITY ns_adobe_xpath "http://ns.adobe.com/XPath/1.0/">
]>
<svg version="1.1" id="Layer_1" xmlns:x="&ns_extend;" xmlns:i="&ns_ai;" xmlns:graph="&ns_graphs;"
	 xmlns="http://www.w3.org/2000/svg" xmlns:xlink="http://www.w3.org/1999/xlink" x="0px" y="0px" width="220px" height="78.2px"
	 viewBox="0 0 220 78.2" style="enable-background:new 0 0 220 78.2;" xml:space="preserve">
<style type="text/css">
	.st0{fill:#FE0146;}
</style>
<metadata>
	<sfw  xmlns="&ns_sfw;">
		<slices></slices>
		<sliceSourceBounds  bottomLeftOrigin="true" height="78.2" width="220" x="-97.4" y="-211.9"></sliceSourceBounds>
	</sfw>
</metadata>
<path class="st0" d="M0,34.7c0.1,0,0.1-0.2,0.2-0.3C0.5,33.6,1.1,33,2.1,33c1-0.1,1.8,0.4,2.2,1.3c0.6,1.3,1,2.6,1.4,3.9
	c0.2,0.5,0.3,1.1,0.5,1.6c0.1,0.3,0.1,0.6,0.4,0.7c0.3,0,0.3-0.4,0.4-0.6c0.8-2.6,1.6-5.2,2.4-7.8c1-3.3,2-6.7,3.3-10
	c0.6-1.5,1.3-2.8,2.3-4c1.6-1.8,3.7-2.4,5.8-1.6c1.5,0.6,2.4,1.8,3,3.2c0.8,1.8,1.1,3.6,1.3,5.5c0.4,3.9,0.4,7.7,0.5,11.6
	c0,0.7,0.1,1.4,0.1,2.1c0,0.2,0,0.4,0.2,0.4c0.2,0,0.3-0.2,0.3-0.3c0.4-1.3,0.9-2.5,1.3-3.8c2.5-7.2,4.9-14.4,7.7-21.4
	c1-2.5,2.4-4.6,4.8-6c4.5-2.7,10.2-0.6,11.9,4.4c0.5,1.4,0.7,2.9,0.7,4.4c0,5.5,0,10.9,0,16.4c0,3,0,6.1,0,9.1c0,0.4-0.1,0.9,0.2,1
	c0.4,0.1,0.5-0.5,0.6-0.8c5.5-13.2,11-26.5,16.5-39.7c0.1-0.3,0.3-0.7,0.4-1c0.6-1.3,1.9-1.9,3.3-1.5c1.2,0.4,1.9,1.6,1.6,3
	c-0.7,3.3-1.7,6.6-2.6,9.9c-3.7,13.6-7.4,27.1-11.4,40.6c-1.7,5.8-3.5,11.6-6,17.2c-0.8,1.8-1.7,3.5-3.1,4.9
	c-3.9,4-9.6,2.9-11.8-2.2c-0.8-2-1.3-4.1-1.3-6.2c0.1-4.7,0.1-9.4,0.2-14.1c0.1-4.3,0.2-8.5,0.3-12.8c0-1.4,0.1-2.9,0.1-4.3
	c0-0.3,0.1-0.8-0.2-0.9c-0.3-0.1-0.4,0.4-0.5,0.7c-2.3,5.4-4.6,10.8-7.1,16c-1.2,2.5-2.4,5-4.1,7.2c-1,1.3-2.2,2.3-3.9,2.5
	c-2.3,0.4-4.5-0.8-5.6-2.9c-0.9-1.7-1-3.5-1.2-5.3c-0.3-4.6-0.1-9.2,0-13.9c0-2.6,0.1-5.3,0.1-7.9c0-0.3,0.1-0.8-0.2-0.9
	c-0.3-0.1-0.4,0.4-0.5,0.7c-1.7,4.6-3.4,9.2-5.1,13.8c-0.4,1.2-0.9,2.3-1.5,3.4c-0.3,0.6-0.7,1.1-1.2,1.6c-2,1.9-4.9,1.2-5.9-1.4
	c-0.7-1.8-1.1-3.8-1.5-5.7c-0.5-2.3-0.9-4.7-1.3-7c0-0.1,0-0.2-0.1-0.3C0,35.6,0,35.2,0,34.7z"/>
<path class="st0" d="M91.6,31c1.4,0,2.7,0,4.1,0c0.4,0,0.4,0.3,0.5,0.5c0.5,2,1,4.1,1.5,6.1c0.6,2.3,1.1,4.7,1.7,7.1
	c0.2-0.2,0.2-0.5,0.3-0.8c1.1-4.1,2.2-8.3,3.2-12.4c0.1-0.5,0.3-0.6,0.8-0.6c0.8,0,1.5,0,2.3,0c0.4,0,0.5,0.1,0.6,0.5
	c1.1,4.3,2.2,8.7,3.3,13c0,0.1,0,0.1,0.1,0.2c0.2-0.2,0.2-0.4,0.3-0.6c1-4.2,2-8.4,3.1-12.5c0.1-0.4,0.2-0.5,0.7-0.5
	c1.1,0,2.2,0,3.2,0c0.5,0,0.5,0.1,0.4,0.6c-1.7,6.5-3.4,12.9-5.1,19.4c-0.2,0.8-0.2,0.8-1.1,0.8c-0.8,0-1.7,0-2.5,0
	c-0.5,0-0.6-0.1-0.7-0.6c-1.1-4.1-2.2-8.2-3.3-12.3c0-0.2-0.1-0.4-0.2-0.6c-0.3,0.4-0.3,0.8-0.4,1.1c-1.1,3.9-2.1,7.9-3.1,11.8
	c-0.1,0.4-0.3,0.5-0.7,0.5c-1,0-1.9,0-2.9,0c-0.4,0-0.6-0.1-0.7-0.5c-1.4-5.6-2.9-11.1-4.3-16.7C92.2,33.4,91.9,32.3,91.6,31z"/>
<path class="st0" d="M139.2,41.4c0-3.3,0-6.5,0-9.8c0-0.4,0.1-0.6,0.6-0.6c0.6,0,1.1,0,1.7,0c0.4,0,0.5,0.1,0.5,0.5
	c0,1.5,0,2.9,0,4.4c0,4.3,0,8.6,0,12.9c0,0.5,0.1,0.6,0.6,0.6c2.9,0,5.8,0,8.8,0c0.4,0,0.6-0.1,0.7-0.5c2.2-5.7,4.5-11.5,6.7-17.2
	c0.2-0.5,0.4-0.7,1-0.7c0.6,0.1,1.3-0.2,1.7,0.1c0.4,0.3,0.5,1,0.7,1.6c2.4,6.2,4.8,12.3,7.2,18.5c0.2,0.6,0.2,0.6-0.5,0.6
	c-0.5,0-1.1,0-1.6,0c-0.3,0-0.5-0.1-0.6-0.4c-0.7-1.8-1.4-3.6-2-5.4c-0.1-0.4-0.3-0.5-0.7-0.5c-2.5,0-5,0-7.5,0
	c-0.4,0-0.6,0.1-0.7,0.5c-0.6,1.8-1.3,3.5-2,5.3c-0.1,0.4-0.3,0.5-0.7,0.5c-4.4,0-8.9,0-13.3,0c-0.4,0-0.6-0.1-0.6-0.5
	C139.3,48,139.2,44.7,139.2,41.4z M160.2,34.4c-1.1,3-2.2,5.9-3.3,8.8c2.1,0,4.2,0,6.3,0c0.4,0,0.4-0.2,0.3-0.4
	c-0.7-1.7-1.3-3.4-2-5.1C161,36.6,160.6,35.6,160.2,34.4z"/>
<path class="st0" d="M220,51.8c-1,0-1.9,0-2.8,0c-0.3,0-0.4-0.2-0.5-0.4c-1.8-2.6-3.6-5.2-5.3-7.9c-0.3-0.4-0.6-0.6-1-0.5
	c-0.8,0-1.7,0-2.5,0c-0.4,0-0.5,0.1-0.5,0.5c0,2.6,0,5.1,0,7.7c0,0.5-0.1,0.6-0.6,0.6c-0.5,0-1.1,0-1.6,0c-0.4,0-0.5-0.1-0.5-0.5
	c0-4.2,0-8.4,0-12.6c0-2.4,0-4.8,0-7.2c0-0.2-0.1-0.5,0.4-0.5c2.9,0.1,5.8-0.2,8.6,0.1c2.2,0.2,4.1,1.1,5,3.3
	c1.1,2.4,0.5,5.6-1.4,7.1c-0.9,0.7-1.9,1.1-2.9,1.3c-0.5,0.1-0.4,0.2-0.2,0.5c1.9,2.7,3.7,5.4,5.6,8C219.8,51.5,219.9,51.6,220,51.8
	z M210.5,33.4c-1,0-1.9,0-2.8,0c-0.2,0-0.4,0-0.4,0.3c0,2.2,0,4.4,0,6.7c0,0.2,0,0.3,0.3,0.3c1.9-0.1,3.8,0.1,5.7-0.1
	c2-0.2,3.2-1.6,3.2-3.5c0-1.9-1.1-3.2-3-3.6C212.5,33.3,211.4,33.5,210.5,33.4z"/>
<path class="st0" d="M187.7,41.4c0-3.3,0-6.5,0-9.8c0-0.4,0.1-0.6,0.6-0.6c4,0,8.1,0,12.1,0c0.4,0,0.6,0.1,0.6,0.5
	c0,0.5,0,0.9,0,1.4c0,0.4-0.1,0.5-0.5,0.5c-2.4,0-4.8,0-7.3,0c-0.8,0-1.5,0-2.3,0c-0.4,0-0.6,0.1-0.6,0.5c0,1.8,0,3.7,0,5.5
	c0,0.4,0.1,0.5,0.5,0.5c2.8,0,5.6,0,8.5,0c0.4,0,0.6,0.1,0.6,0.6c0,0.4,0,0.9,0,1.3c0,0.4-0.1,0.5-0.5,0.5c-2.5,0-4.9,0-7.4,0
	c-0.5,0-1.3-0.2-1.6,0.1c-0.4,0.3-0.1,1.1-0.1,1.6c0,1.6,0,3.1,0,4.7c0,0.5,0.1,0.6,0.6,0.6c3.1,0,6.3,0,9.4,0
	c0.4,0,0.6,0.1,0.6,0.6c0,0.4,0,0.9,0,1.3c0,0.5-0.2,0.6-0.6,0.6c-4,0-8.1,0-12.1,0c-0.4,0-0.5-0.1-0.5-0.5
	C187.7,48,187.7,44.7,187.7,41.4z"/>
<path class="st0" d="M120.9,41.4c0-3.3,0-6.5,0-9.8c0-0.5,0.1-0.6,0.6-0.6c2.8,0.1,5.6-0.1,8.4,0.1c2.3,0.2,4.3,1.1,5.1,3.4
	c0.9,2.4,0.8,4.8-0.9,6.9c-1.1,1.3-2.6,1.8-4.2,2c-1.9,0.2-3.8,0.1-5.7,0.1c-0.5,0-0.6,0.1-0.6,0.6c0,2.4,0,4.8,0,7.1
	c0,0.5-0.1,0.6-0.6,0.6c-0.5,0-1.1,0-1.6,0c-0.5,0-0.5-0.1-0.5-0.6C120.9,48,120.9,44.7,120.9,41.4z M123.6,37.3c0,1.1,0,2.3,0,3.4
	c0,0.3,0.1,0.4,0.4,0.4c1.7,0,3.3,0,5,0c1.9,0,3.3-1.1,3.7-2.6c0.8-2.7-0.9-5-3.7-5.1c-1.6,0-3.3,0-4.9,0c-0.4,0-0.5,0.1-0.4,0.5
	C123.6,35,123.6,36.1,123.6,37.3z"/>
<path class="st0" d="M77.4,46.8c0.6,0.3,1.1,0.6,1.7,0.9c0.7,0.3,1.5,0.5,2.2,0.5c1.8,0,2.7-0.8,2.9-2.5c0.1-0.5,0.1-1,0.1-1.6
	c0-4.2,0-8.4,0-12.5c0-0.4,0.1-0.6,0.6-0.6c1.1,0,2.2,0,3.4,0c0.3,0,0.5,0.1,0.5,0.5c0,4.6,0,9.1,0,13.7c0,1.2-0.2,2.3-0.6,3.4
	c-0.7,1.6-1.8,2.7-3.4,3.2c-2.3,0.7-4.6,0.5-6.8-0.5c-0.3-0.2-0.5-0.4-0.5-0.7C77.4,49.3,77.4,48.1,77.4,46.8z"/>
<path class="st0" d="M167.8,31c0.9,0,1.8,0,2.6,0c0.4,0,0.5,0.2,0.6,0.4c1.8,2.9,3.5,5.8,5.3,8.7c0.1,0.2,0.3,0.4,0.4,0.7
	c0.5-0.8,0.9-1.5,1.4-2.2c1.4-2.4,2.9-4.7,4.3-7.1c0.2-0.3,0.4-0.5,0.8-0.5c0.7,0,1.5,0,2.3,0c0,0.3-0.2,0.5-0.3,0.7
	c-2.3,3.7-4.6,7.5-6.9,11.2c-0.2,0.3-0.3,0.6-0.3,0.9c0,2.5,0,5,0,7.5c0,0.4-0.1,0.6-0.5,0.6c-0.6,0-1.1,0-1.7,0
	c-0.4,0-0.5-0.1-0.5-0.5c0-2.5,0-4.9,0-7.4c0-0.5-0.1-0.9-0.4-1.3c-2.3-3.7-4.5-7.4-6.8-11C168.1,31.5,168,31.3,167.8,31z"/>
</svg>
