<?xml version="1.0" encoding="utf-8"?>
<!-- Generator: Adobe Illustrator 21.0.2, SVG Export Plug-In . SVG Version: 6.00 Build 0)  -->
<!DOCTYPE svg PUBLIC "-//W3C//DTD SVG 1.1//EN" "http://www.w3.org/Graphics/SVG/1.1/DTD/svg11.dtd" [
	<!ENTITY ns_extend "http://ns.adobe.com/Extensibility/1.0/">
	<!ENTITY ns_ai "http://ns.adobe.com/AdobeIllustrator/10.0/">
	<!ENTITY ns_graphs "http://ns.adobe.com/Graphs/1.0/">
	<!ENTITY ns_vars "http://ns.adobe.com/Variables/1.0/">
	<!ENTITY ns_imrep "http://ns.adobe.com/ImageReplacement/1.0/">
	<!ENTITY ns_sfw "http://ns.adobe.com/SaveForWeb/1.0/">
	<!ENTITY ns_custom "http://ns.adobe.com/GenericCustomNamespace/1.0/">
	<!ENTITY ns_adobe_xpath "http://ns.adobe.com/XPath/1.0/">
]>
<svg version="1.1" id="art" xmlns:x="&ns_extend;" xmlns:i="&ns_ai;" xmlns:graph="&ns_graphs;"
	 xmlns="http://www.w3.org/2000/svg" xmlns:xlink="http://www.w3.org/1999/xlink" x="0px" y="0px" width="584.5px" height="409.1px"
	 viewBox="0 0 584.5 409.1" style="enable-background:new 0 0 584.5 409.1;" xml:space="preserve">
<style type="text/css">
	.st0{fill:#F09E54;}
	.st1{fill:#301C47;}
	.st2{fill:#C8495B;}
	.st3{fill:#F4A04D;}
	.st4{fill:#301D46;}
	.st5{opacity:0.2;fill:#C4495C;}
	.st6{fill:url(#SVGID_1_);}
	.st7{fill:url(#SVGID_2_);}
	.st8{fill:#FFFFFF;}
	.st9{fill:#C4495C;}
	.st10{fill:none;stroke:#F4A04D;stroke-width:2;stroke-linecap:round;stroke-miterlimit:10;}
	.st11{fill:none;stroke:#301D46;stroke-width:3;stroke-miterlimit:10;}
	.st12{fill:url(#SVGID_3_);}
</style>
<metadata>
	<sfw  xmlns="&ns_sfw;">
		<optimizationSettings>
			<targetSettings  fileFormat="PNG24Format" targetSettingsID="0">
				<PNG24Format  filtered="false" interlaced="false" matteColor="#000000" noMatteColor="true" transparency="true">
					</PNG24Format>
			</targetSettings>
		</optimizationSettings>
		<slices></slices>
		<sliceSourceBounds  bottomLeftOrigin="true" height="409.1" width="584.5" x="-183.5" y="-38.8"></sliceSourceBounds>
	</sfw>
</metadata>
<path class="st0" d="M425.6,126.1v13.7l-26.2-15.1v-11.2l-27.8-16V87.2l-1.1-0.6c-8.3-4.8-18.8-13.8-25.4-22.7
	c-4.7-6.4-10.7-12-17.1-15.7c-6.4-3.7-12.4-5-17.1-4.1c-6.6,1.3-17.1-1.9-25.4-6.7l-1.1-0.6V47l-27.8-16v11.2L230.2,27V13.4L207.1,0
	v182.7l241.6,139.5V139.5L425.6,126.1z"/>
<polygon class="st0" points="417.5,169.6 231.8,48.6 207.1,0 159.8,27 185.5,188.1 375,225.1 "/>
<polygon class="st0" points="209.1,57.9 256.5,30.9 274.6,41.4 227.2,68.4 "/>
<polygon class="st0" points="378.1,153.1 425.5,126.1 443.6,136.5 396.2,163.6 "/>
<polygon class="st0" points="236.7,63.9 284.1,36.9 302.3,47.4 254.9,74.4 "/>
<polygon class="st1" points="448.6,321.1 401.1,348.5 401.1,167 448.6,139.6 "/>
<g>
	<path class="st2" d="M378.3,153.1v13.7L352,151.7v-11.2l-27.8-16v-10.1l-1.1-0.6c-8.3-4.8-18.8-13.8-25.4-22.7
		c-4.7-6.4-10.7-12-17.1-15.7c-6.4-3.7-12.4-5-17.1-4.1c-6.6,1.3-17.1-1.9-25.4-6.7l-1.1-0.6V74l-27.8-16v11.2L182.9,54V40.4
		L159.8,27v182.7l241.6,139.5V166.5L378.3,153.1z"/>
	<path class="st1" d="M204.4,157.9L175.2,141v-32.5c0-8.1,6.5-10.8,14.6-6.2l0,0c8.1,4.7,14.6,15,14.6,23V157.9z"/>
	<path class="st1" d="M249.9,184.2l-29.2-16.9v-32.5c0-8.1,6.5-10.8,14.6-6.2l0,0c8.1,4.7,14.6,15,14.6,23V184.2z"/>
	<path class="st1" d="M295.5,210.5l-29.2-16.9v-32.5c0-8.1,6.5-10.8,14.6-6.2v0c8.1,4.7,14.6,15,14.6,23V210.5z"/>
	<path class="st1" d="M341.1,236.8l-29.2-16.9v-32.5c0-8.1,6.5-10.8,14.6-6.2l0,0c8.1,4.7,14.6,15,14.6,23V236.8z"/>
	<path class="st1" d="M386.6,263.1l-29.2-16.9v-32.5c0-8.1,6.5-10.8,14.6-6.2l0,0c8.1,4.7,14.6,15,14.6,23V263.1z"/>
	<path class="st1" d="M204.4,218.8l-29.2-16.9v-32.5c0-8.1,6.5-10.8,14.6-6.2l0,0c8.1,4.7,14.6,15,14.6,23V218.8z"/>
	<path class="st1" d="M249.9,245.1l-29.2-16.9v-32.5c0-8.1,6.5-10.8,14.6-6.2l0,0c8.1,4.7,14.6,15,14.6,23V245.1z"/>
	<path class="st1" d="M295.5,288.4l-29.2-16.9V222c0-8.1,6.5-10.8,14.6-6.2v0c8.1,4.7,14.6,15,14.6,23V288.4z"/>
	<path class="st1" d="M341.1,297.7l-29.2-16.9v-32.5c0-8.1,6.5-10.8,14.6-6.2l0,0c8.1,4.7,14.6,15,14.6,23V297.7z"/>
	<path class="st1" d="M386.6,324l-29.2-16.9v-32.5c0-8.1,6.5-10.8,14.6-6.2l0,0c8.1,4.7,14.6,15,14.6,23V324z"/>
	<polygon class="st3" points="152.6,69.5 148.6,48.9 412.6,201.4 408.6,217.3 	"/>
	<path class="st3" d="M303.7,125.3l-48.1-27.8l0,0c2.4-9,11.6-11,22.2-4.9l3.7,2.2C292.1,101,301.3,113.6,303.7,125.3L303.7,125.3z"
		/>
</g>
<g>
	<path class="st0" d="M525.8,296.5c0,11.9-9.7,16-21.6,9.1c-11.9-6.9-21.6-22.2-21.6-34.1s9.7-16,21.6-9.1
		C516.2,269.3,525.8,284.6,525.8,296.5z"/>
	<g>
		<polygon class="st4" points="504.2,284.1 507.2,344.8 501.2,344.8 		"/>
	</g>
</g>
<path class="st5" d="M536.4,378.1l-65.4-37.8l-76.8,44.4L101.7,215.2l-21,12.1l313.6,181.7l76.8-44.4l45.5,26.2l21-12.1
	C537.2,378.6,536.8,378.3,536.4,378.1z"/>
<linearGradient id="SVGID_1_" gradientUnits="userSpaceOnUse" x1="407.1456" y1="213.9996" x2="469.0141" y2="249.7194" gradientTransform="matrix(-1 0 0 1 972.6506 0)">
	<stop  offset="0" style="stop-color:#C4495C;stop-opacity:0.2"/>
	<stop  offset="1" style="stop-color:#C4495C;stop-opacity:0.5"/>
</linearGradient>
<path class="st6" d="M479.1,207.3c0-0.2,0-0.5,0-0.7c0-10.2,8.2-13.7,18.4-7.8c5.4,3.1,10.3,8.3,13.7,14.1
	c2.6-16.2,17.9-21,36.4-10.3c20.3,11.7,36.8,37.7,36.8,58.1c0,2.6-0.3,4.9-0.8,7.1L479.1,207.3z"/>
<linearGradient id="SVGID_2_" gradientUnits="userSpaceOnUse" x1="189.8424" y1="288.9824" x2="293.1333" y2="229.3474">
	<stop  offset="0.1522" style="stop-color:#C4495C;stop-opacity:0"/>
	<stop  offset="1" style="stop-color:#C4495C;stop-opacity:0.8"/>
</linearGradient>
<path class="st7" d="M280.9,215.9c-1.8-1-3.5-1.7-5-2l-0.1-0.3l-67-9l0.1,0.4c-6.8,0.4-11.4,5.4-11.4,14.1v83.1l49.1,28.4l48.8-42.3
	v-49.5C295.5,230.8,289,220.5,280.9,215.9z"/>
<g>
	<path class="st2" d="M106.5,16.1l-1.2,177c0,1-0.8,1.8-1.9,1.8c-1,0-1.8-0.8-1.8-1.8l-1.2-177c0-1.7,1.3-3,3-3
		C105.2,13,106.5,14.4,106.5,16.1C106.5,16,106.5,16.1,106.5,16.1z"/>
</g>
<polygon class="st4" points="69.5,120.3 128,154.6 128,40 69.5,5.7 "/>
<g>
	<path class="st8" d="M104,70.6l4.6,2.7L92,86.7L87.4,84L104,70.6z"/>
	<polygon class="st0" points="89.4,56 82.2,51.8 93.2,73.7 96.8,70.9 	"/>
	<polygon class="st9" points="103,83.1 99.4,86 107.2,101.6 107.3,101.8 114.5,106 	"/>
</g>
<g>
	<g>
		<path class="st2" d="M136.6,272.1l-0.7-12.3l0.6,1.1l-3.9-2c-0.7-0.4-1-1.3-0.7-2s1.3-1,2-0.7c0.1,0,0.1,0.1,0.2,0.1l3.7,2.4
			l0.7,0.4l0,0.6l-0.7,12.3c0,0.3-0.3,0.5-0.5,0.5C136.8,272.5,136.6,272.3,136.6,272.1z"/>
	</g>
	<g>
		<path class="st2" d="M156.1,293.8l0.4-14.3c0-0.3,0.3-0.6,0.6-0.6c0.3,0,0.6,0.3,0.6,0.6l0.4,14.3c0,0.6-0.4,1-1,1
			C156.5,294.8,156.1,294.4,156.1,293.8C156.1,293.8,156.1,293.8,156.1,293.8z"/>
	</g>
	<g>
		<polygon class="st2" points="137.2,265.8 119.2,276.2 140,288.2 158,277.8 		"/>
		<polygon class="st3" points="140,294.5 119.2,282.4 119.2,276.2 140,288.2 		"/>
		<polygon class="st2" points="140,294.5 158,284.1 158,277.8 140,288.2 		"/>
	</g>
	<g>
		<path class="st2" d="M118.5,279.3l-1.1-18.7l0.9,1.5l-3.9-2c-1-0.5-1.4-1.7-0.9-2.7c0.5-1,1.7-1.4,2.7-0.9c0.1,0,0.1,0.1,0.2,0.1
			l3.7,2.4l0.9,0.6l-0.1,0.9l-1.1,18.7c0,0.4-0.3,0.7-0.7,0.6C118.8,279.9,118.5,279.6,118.5,279.3z"/>
	</g>
	<g>
		<path class="st2" d="M138.6,303.1l0.6-16c0-0.5,0.4-0.9,1-0.9c0.5,0,0.9,0.4,0.9,0.9l0.6,16c0,0.8-0.6,1.5-1.4,1.6
			s-1.5-0.6-1.6-1.4C138.6,303.2,138.6,303.1,138.6,303.1z"/>
	</g>
	<line class="st10" x1="119.1" y1="284.4" x2="119.2" y2="294.8"/>
	<line class="st10" x1="122.9" y1="287.8" x2="115.1" y2="291.5"/>
	<line class="st10" x1="126.6" y1="294" x2="112.5" y2="285.9"/>
	<line class="st10" x1="124.4" y1="297.9" x2="113.9" y2="281.4"/>
	<path class="st11" d="M129.3,295.5c0,5.6-4.5,7.5-10.1,4.3c-5.6-3.2-10.1-10.4-10.1-16s4.5-7.5,10.1-4.3
		C124.8,282.8,129.3,289.9,129.3,295.5z"/>
	<polygon class="st4" points="119.1,271.9 137.1,261.5 137.1,252.4 119.1,262.8 	"/>
	<path class="st11" d="M143.4,309.7c0,2.2-1.8,2.9-3.9,1.7c-2.2-1.3-3.9-4-3.9-6.2s1.8-2.9,3.9-1.7
		C141.6,304.8,143.4,307.6,143.4,309.7z"/>
	<path class="st11" d="M161,300.3c0,2.2-1.8,2.9-3.9,1.7c-2.2-1.3-3.9-4-3.9-6.2c0-2.2,1.8-2.9,3.9-1.7
		C159.3,295.3,161,298.1,161,300.3z"/>
</g>
<g>
	<linearGradient id="SVGID_3_" gradientUnits="userSpaceOnUse" x1="191.3854" y1="292.3958" x2="202.0264" y2="292.3958">
		<stop  offset="0.2776" style="stop-color:#C8495B"/>
		<stop  offset="0.5469" style="stop-color:#C8495B"/>
	</linearGradient>
	<path class="st12" d="M202,302.6h-10.6v-15c0-2.9,2.4-5.3,5.3-5.3l0,0c2.9,0,5.3,2.4,5.3,5.3V302.6z"/>
	<circle class="st1" cx="197" cy="276.9" r="4.3"/>
	<path class="st3" d="M196.7,325.8L196.7,325.8c-2.9,0-5.3-2.4-5.3-5.3v-18H202v18C202,323.5,199.8,325.8,196.7,325.8z"/>
</g>
<g>
	<path class="st1" d="M97.2,280.7H86.5v-15.1c0-3,2.4-5.4,5.4-5.4l0,0c3,0,5.4,2.4,5.4,5.4V280.7z"/>
	<circle class="st3" cx="92.2" cy="255.1" r="4.3"/>
	<path class="st2" d="M91.9,304L91.9,304c-3,0-5.4-2.4-5.4-5.4v-18.1h10.7v18.1C97.2,301.7,94.8,304,91.9,304z"/>
</g>
<g>
	<path class="st1" d="M300,324.4h-10.7v-15.1c0-3,2.4-5.4,5.4-5.4l0,0c3,0,5.4,2.4,5.4,5.4V324.4z"/>
	<circle class="st3" cx="295" cy="298.8" r="4.3"/>
	<path class="st2" d="M294.7,347.7L294.7,347.7c-3,0-5.4-2.4-5.4-5.4v-18.1H300v18.1C300,345.3,297.7,347.7,294.7,347.7z"/>
</g>
<g>
	<path class="st1" d="M10.7,237.9H0v-15.1c0-3,2.4-5.4,5.4-5.4l0,0c3,0,5.4,2.4,5.4,5.4V237.9z"/>
	<circle class="st2" cx="5.7" cy="212.3" r="4.3"/>
	<path class="st3" d="M5.4,261.2L5.4,261.2c-3,0-5.4-2.4-5.4-5.4v-18.1h10.7v18.1C10.7,258.8,8.3,261.2,5.4,261.2z"/>
</g>
<g>
	<path class="st3" d="M271.2,275.4h-10.6v-15c0-2.9,2.4-5.3,5.3-5.3l0,0c2.9,0,5.3,2.4,5.3,5.3V275.4z"/>
	<circle class="st1" cx="266.2" cy="249.9" r="4.3"/>
	<path class="st2" d="M265.9,298.8L265.9,298.8c-2.9,0-5.3-2.4-5.3-5.3v-18h10.6v18C271.2,296.5,268.8,298.8,265.9,298.8z"/>
</g>
<g>
	<path class="st3" d="M56.2,223.4H45.6v-15c0-2.9,2.4-5.3,5.3-5.3l0,0c2.9,0,5.3,2.4,5.3,5.3V223.4z"/>
	<circle class="st1" cx="51.2" cy="197.9" r="4.3"/>
	<path class="st2" d="M50.9,246.8L50.9,246.8c-2.9,0-5.3-2.4-5.3-5.3v-18h10.6v18C56.2,244.5,53.8,246.8,50.9,246.8z"/>
</g>
<g>
	<path class="st3" d="M139.9,271.5h-10.6v-15c0-2.9,2.4-5.3,5.3-5.3l0,0c2.9,0,5.3,2.4,5.3,5.3V271.5z"/>
	<circle class="st2" cx="134.8" cy="246" r="4.3"/>
</g>
<g>
	<path class="st4" d="M142.8,290.8l-0.6-14.4l2.4,3.7l-11.3-3.3c-2.9-0.9-4.6-4-3.7-6.9c0.9-2.9,4-4.6,6.9-3.7
		c0.5,0.1,0.9,0.3,1.3,0.6l10.1,6.1l0.6,0.4c1.2,0.7,1.8,2,1.8,3.3l-0.7,14.4c-0.1,1.9-1.7,3.3-3.5,3.2
		C144.3,294,142.9,292.5,142.8,290.8z"/>
</g>
</svg>
