<?xml version="1.0" encoding="utf-8"?>
<!-- Generator: Adobe Illustrator 22.0.1, SVG Export Plug-In . SVG Version: 6.00 Build 0)  -->
<!DOCTYPE svg PUBLIC "-//W3C//DTD SVG 1.1//EN" "http://www.w3.org/Graphics/SVG/1.1/DTD/svg11.dtd" [
	<!ENTITY ns_extend "http://ns.adobe.com/Extensibility/1.0/">
	<!ENTITY ns_ai "http://ns.adobe.com/AdobeIllustrator/10.0/">
	<!ENTITY ns_graphs "http://ns.adobe.com/Graphs/1.0/">
	<!ENTITY ns_vars "http://ns.adobe.com/Variables/1.0/">
	<!ENTITY ns_imrep "http://ns.adobe.com/ImageReplacement/1.0/">
	<!ENTITY ns_sfw "http://ns.adobe.com/SaveForWeb/1.0/">
	<!ENTITY ns_custom "http://ns.adobe.com/GenericCustomNamespace/1.0/">
	<!ENTITY ns_adobe_xpath "http://ns.adobe.com/XPath/1.0/">
]>
<svg version="1.1" id="Layer_1" xmlns:x="&ns_extend;" xmlns:i="&ns_ai;" xmlns:graph="&ns_graphs;"
	 xmlns="http://www.w3.org/2000/svg" xmlns:xlink="http://www.w3.org/1999/xlink" x="0px" y="0px" width="147px" height="24.4px"
	 viewBox="0 0 147 24.4" style="enable-background:new 0 0 147 24.4;" xml:space="preserve">
<style type="text/css">
	.st0{fill:#2E1C46;}
	.st1{fill:#763FAA;}
	.st2{fill:#FB7AFA;}
</style>
<metadata>
	<sfw  xmlns="&ns_sfw;">
		<slices></slices>
		<sliceSourceBounds  bottomLeftOrigin="true" height="24.4" width="147" x="0" y="0"></sliceSourceBounds>
	</sfw>
</metadata>
<g>
	<path class="st0" d="M0,4h6.1c1.3,0,2.4,0.2,3.5,0.6s2,1,2.7,1.7c0.8,0.7,1.4,1.6,1.8,2.6c0.4,1,0.6,2.1,0.6,3.2l0,0
		c0,1.1-0.2,2.2-0.6,3.2c-0.4,1-1,1.9-1.8,2.6s-1.7,1.3-2.7,1.7c-1.1,0.4-2.2,0.6-3.5,0.6H0V4z M6.1,17.8c0.9,0,1.6-0.1,2.3-0.4
		s1.3-0.7,1.8-1.1c0.5-0.5,0.9-1.1,1.1-1.8c0.3-0.7,0.4-1.4,0.4-2.2l0,0c0-0.8-0.1-1.5-0.4-2.2c-0.3-0.7-0.7-1.3-1.1-1.8
		c-0.5-0.6-1.1-1-1.8-1.2C7.7,6.8,6.9,6.6,6.1,6.6H2.8v11.1L6.1,17.8L6.1,17.8z"/>
	<path class="st0" d="M22.9,4H35v2.6h-9.2v4.2H34v2.6h-8.2v4.4h9.3v2.6H22.9V4z"/>
	<path class="st0" d="M43.2,4h3.1l5,7.7l5-7.7h3.1v16.3h-2.8V8.7l-5.1,7.7h-0.1L46,8.7v11.7h-2.8V4z"/>
	<path class="st0" d="M74.7,20.6c-1.1,0-2-0.2-2.9-0.5s-1.6-0.8-2.2-1.4s-1.1-1.4-1.4-2.2c-0.3-0.9-0.5-1.9-0.5-3.1V4h2.8v9.3
		c0,1.5,0.4,2.7,1.1,3.5s1.7,1.2,3,1.2s2.3-0.4,3-1.1c0.7-0.8,1.1-1.9,1.1-3.4V4h2.8v9.3c0,1.2-0.2,2.3-0.5,3.2s-0.8,1.7-1.4,2.3
		c-0.6,0.6-1.3,1.1-2.2,1.4C76.8,20.5,75.8,20.6,74.7,20.6z"/>
	<path class="st0" d="M100.8,4h3.3L92.4,20.4h-3.3L100.8,4z"/>
	<polygon class="st1" points="90.3,0 86.2,0 93.4,10.2 95.4,7.5 	"/>
	<polygon class="st2" points="100,13.8 98,16.6 103.5,24.4 107.5,24.4 	"/>
	<path class="st0" d="M112,4h12v2.6h-9.2v4.2h8.2v2.6h-8.2v4.4h9.3v2.6H112V4z"/>
	<path class="st0" d="M132.3,4h6.1c1.3,0,2.4,0.2,3.5,0.6s2,1,2.7,1.7c0.8,0.7,1.4,1.6,1.8,2.6c0.4,1,0.6,2.1,0.6,3.2l0,0
		c0,1.1-0.2,2.2-0.6,3.2c-0.4,1-1,1.9-1.8,2.6s-1.7,1.3-2.7,1.7c-1.1,0.4-2.2,0.6-3.5,0.6h-6.1V4z M138.3,17.8
		c0.9,0,1.6-0.1,2.3-0.4s1.3-0.7,1.8-1.1c0.5-0.5,0.9-1.1,1.1-1.8c0.3-0.7,0.4-1.4,0.4-2.2l0,0c0-0.8-0.1-1.5-0.4-2.2
		c-0.3-0.7-0.7-1.3-1.1-1.8c-0.5-0.5-1.1-0.9-1.8-1.2c-0.7-0.3-1.5-0.4-2.3-0.4h-3.2v11.1H138.3z"/>
</g>
</svg>
