<?xml version="1.0" encoding="UTF-8"?>
<svg width="590px" height="98px" viewBox="0 0 590 98" version="1.1" xmlns="http://www.w3.org/2000/svg" xmlns:xlink="http://www.w3.org/1999/xlink">
    <!-- Generator: Sketch 50.2 (55047) - http://www.bohemiancoding.com/sketch -->
    <title>M2AMediaLogo_RGB (1)</title>
    <desc>Created with Sketch.</desc>
    <defs>
        <polygon id="path-1" points="0.06 0.888 589.947 0.888 589.947 97.999 0.06 97.999"></polygon>
    </defs>
    <g id="M2AMediaLogo_RGB-(1)" stroke="none" stroke-width="1" fill="none" fill-rule="evenodd">
        <path d="M367.166,96.592 C366.789,96.222 366.604,95.752 366.604,95.183 L366.604,39.496 C366.604,38.87 366.776,38.372 367.121,38.003 C367.467,37.633 367.961,37.448 368.595,37.448 L372.668,37.448 C373.706,37.448 374.429,37.876 374.833,38.725 L393.288,73.607 L411.914,38.725 C412.373,37.876 413.069,37.448 413.994,37.448 L418.064,37.448 C418.697,37.448 419.191,37.633 419.537,38.003 C419.883,38.372 420.058,38.87 420.058,39.496 L420.058,95.183 C420.058,95.752 419.869,96.222 419.492,96.592 C419.119,96.962 418.643,97.146 418.064,97.146 L414.079,97.146 C413.501,97.146 413.038,96.962 412.693,96.592 C412.346,96.222 412.171,95.752 412.171,95.183 L412.171,52.799 L397.358,81.028 C396.779,82.22 395.858,82.82 394.586,82.82 L391.986,82.82 C390.774,82.82 389.849,82.22 389.215,81.028 L374.487,52.799 L374.487,95.183 C374.487,95.752 374.299,96.222 373.922,96.592 C373.548,96.962 373.072,97.146 372.493,97.146 L368.595,97.146 C368.016,97.146 367.539,96.962 367.166,96.592" id="Fill-1" fill="#262B2B"></path>
        <path d="M437.903,92.584 C434.382,88.973 432.446,84.043 432.101,77.788 L432.011,74.886 L432.101,72.073 C432.446,65.934 434.382,61.042 437.903,57.404 C441.426,53.766 446.133,51.946 452.026,51.946 C458.377,51.946 463.303,53.936 466.797,57.917 C470.292,61.895 472.039,67.297 472.039,74.119 L472.039,75.653 C472.039,76.225 471.851,76.691 471.474,77.061 C471.101,77.431 470.624,77.616 470.045,77.616 L439.984,77.616 L439.984,78.384 C440.154,82.08 441.313,85.235 443.45,87.849 C445.584,90.467 448.414,91.772 451.94,91.772 C454.652,91.772 456.862,91.247 458.565,90.196 C460.272,89.144 461.556,88.051 462.423,86.911 C462.94,86.229 463.344,85.818 463.635,85.677 C463.923,85.533 464.413,85.461 465.109,85.461 L468.918,85.461 C469.439,85.461 469.888,85.605 470.261,85.89 C470.638,86.174 470.826,86.544 470.826,86.996 C470.826,88.25 470.045,89.757 468.486,91.518 C466.928,93.279 464.718,94.8 461.858,96.081 C459,97.359 455.722,98 452.026,98 C446.133,98 441.426,96.195 437.903,92.584 M464.152,71.816 L464.152,71.563 C464.152,67.582 463.057,64.341 460.861,61.84 C458.668,59.339 455.722,58.085 452.026,58.085 C448.271,58.085 445.324,59.339 443.19,61.84 C441.052,64.341 439.984,67.582 439.984,71.563 L439.984,71.816 L464.152,71.816" id="Fill-2" fill="#262B2B"></path>
        <path d="M485.423,92.2 C482.391,88.335 480.757,83.447 480.527,77.53 L480.442,74.971 L480.527,72.415 C480.757,66.557 482.404,61.682 485.467,57.787 C488.527,53.895 493.059,51.946 499.068,51.946 C505.073,51.946 509.753,54.049 513.104,58.256 L513.104,38.558 C513.104,37.989 513.288,37.519 513.665,37.15 C514.042,36.78 514.519,36.595 515.094,36.595 L518.992,36.595 C519.571,36.595 520.048,36.78 520.425,37.15 C520.798,37.519 520.986,37.989 520.986,38.558 L520.986,95.183 C520.986,95.752 520.798,96.222 520.425,96.592 C520.048,96.962 519.571,97.146 518.992,97.146 L515.269,97.146 C514.69,97.146 514.231,96.962 513.881,96.592 C513.535,96.222 513.364,95.752 513.364,95.183 L513.364,91.518 C510.071,95.838 505.307,97.999 499.068,97.999 C493.004,97.999 488.454,96.067 485.423,92.2 M509.812,87.383 C511.833,84.738 512.929,81.597 513.104,77.958 C513.158,77.331 513.19,76.252 513.19,74.718 C513.19,73.124 513.158,72.018 513.104,71.391 C512.987,67.924 511.874,64.923 509.767,62.392 C507.66,59.863 504.642,58.599 500.716,58.599 C496.557,58.599 493.525,59.877 491.616,62.436 C489.712,64.995 488.67,68.349 488.499,72.497 L488.41,74.971 C488.41,85.889 492.511,91.347 500.716,91.347 C504.755,91.347 507.787,90.024 509.812,87.383" id="Fill-3" fill="#262B2B"></path>
        <path d="M533.938,43.887 C533.562,43.517 533.376,43.047 533.376,42.478 L533.376,38.045 C533.376,37.477 533.562,36.994 533.938,36.596 C534.315,36.199 534.791,35.997 535.366,35.997 L540.478,35.997 C541.057,35.997 541.547,36.199 541.951,36.596 C542.356,36.994 542.558,37.477 542.558,38.045 L542.558,42.478 C542.558,43.047 542.356,43.517 541.951,43.887 C541.547,44.257 541.057,44.441 540.478,44.441 L535.366,44.441 C534.791,44.441 534.315,44.257 533.938,43.887 M534.63,96.593 C534.257,96.224 534.068,95.754 534.068,95.186 L534.068,54.76 C534.068,54.191 534.257,53.725 534.63,53.352 C535.007,52.986 535.484,52.801 536.062,52.801 L539.871,52.801 C540.45,52.801 540.927,52.986 541.304,53.352 C541.677,53.725 541.865,54.191 541.865,54.76 L541.865,95.186 C541.865,95.754 541.677,96.224 541.304,96.593 C540.927,96.963 540.45,97.145 539.871,97.145 L536.062,97.145 C535.484,97.145 535.007,96.963 534.63,96.593" id="Fill-4" fill="#262B2B"></path>
        <g id="Group-10">
            <mask id="mask-2" fill="white">
                <use xlink:href="#path-1"></use>
            </mask>
            <g id="Clip-6"></g>
            <path d="M559.495,96.293 C557.097,95.156 555.193,93.608 553.777,91.645 C552.362,89.685 551.653,87.51 551.653,85.122 C551.653,81.371 553.215,78.298 556.333,75.91 C559.45,73.522 563.698,71.933 569.07,71.134 L582.065,69.342 L582.065,66.869 C582.065,61.014 578.628,58.085 571.753,58.085 C569.098,58.085 566.96,58.613 565.343,59.664 C563.726,60.716 562.54,61.953 561.79,63.374 C561.561,63.943 561.314,64.327 561.054,64.526 C560.793,64.725 560.434,64.824 559.971,64.824 L556.593,64.824 C556.072,64.824 555.624,64.639 555.25,64.269 C554.873,63.902 554.689,63.46 554.689,62.946 C554.689,61.641 555.305,60.12 556.549,58.387 C557.792,56.649 559.711,55.145 562.311,53.864 C564.911,52.586 568.087,51.946 571.842,51.946 C578.31,51.946 582.944,53.426 585.747,56.382 C588.546,59.339 589.947,63.032 589.947,67.469 L589.947,95.183 C589.947,95.752 589.759,96.222 589.386,96.592 C589.009,96.962 588.532,97.146 587.953,97.146 L584.144,97.146 C583.565,97.146 583.103,96.962 582.757,96.592 C582.41,96.222 582.235,95.752 582.235,95.183 L582.235,91.433 C580.965,93.31 579.118,94.872 576.693,96.122 C574.268,97.373 571.147,97.999 567.337,97.999 C564.507,97.999 561.89,97.431 559.495,96.293 M578.426,88.106 C580.852,85.663 582.065,82.107 582.065,77.445 L582.065,75.057 L571.928,76.509 C567.769,77.078 564.62,78.044 562.485,79.408 C560.348,80.771 559.279,82.477 559.279,84.526 C559.279,86.855 560.245,88.647 562.181,89.897 C564.116,91.148 566.412,91.775 569.07,91.775 C572.88,91.775 576.001,90.552 578.426,88.106" id="Fill-5" fill="#262B2B" mask="url(#mask-2)"></path>
            <path d="M239.68,97.008 C237.457,97.008 235.381,95.829 234.271,93.931 L209.69,52.022 C208.577,50.125 208.577,47.771 209.69,45.873 L214.699,37.332 L216.768,34.04 L216.631,34.04 L234.271,3.965 C235.381,2.067 237.457,0.888 239.68,0.888 L288.841,0.888 C291.065,0.888 293.137,2.067 294.251,3.965 L304.484,21.409 L290.212,21.409 C286.446,21.409 282.939,23.403 281.054,26.613 L263.74,56.134 C261.859,59.34 261.859,63.331 263.74,66.541 L281.054,96.062 C281.25,96.391 281.472,96.703 281.698,97.008 L239.68,97.008" id="Fill-7" fill="#DC4134" mask="url(#mask-2)"></path>
            <path d="M193.726,93.932 L180.115,70.728 C179.005,68.83 179.005,66.474 180.115,64.576 L193.726,41.372 C194.84,39.475 196.912,38.296 199.135,38.296 L209.139,38.296 L205.943,43.743 C204.062,46.953 204.062,50.941 205.943,54.151 L230.273,95.635 C229.18,96.505 227.803,97.008 226.358,97.008 L199.135,97.008 C196.912,97.008 194.84,95.829 193.726,93.932" id="Fill-8" fill="#DC4134" mask="url(#mask-2)"></path>
            <path d="M0.562,96.367 C0.185,95.998 0,95.528 0,94.959 L0,39.272 C0,38.645 0.171,38.148 0.517,37.778 C0.867,37.408 1.357,37.223 1.99,37.223 L6.064,37.223 C7.102,37.223 7.825,37.651 8.229,38.501 L26.684,73.383 L45.31,38.501 C45.77,37.651 46.465,37.223 47.39,37.223 L51.46,37.223 C52.093,37.223 52.587,37.408 52.933,37.778 C53.279,38.148 53.454,38.645 53.454,39.272 L53.454,94.959 C53.454,95.528 53.265,95.998 52.892,96.367 C52.515,96.737 52.039,96.922 51.46,96.922 L47.476,96.922 C46.897,96.922 46.438,96.737 46.088,96.367 C45.742,95.998 45.571,95.528 45.571,94.959 L45.571,52.575 L30.754,80.804 C30.175,81.996 29.254,82.595 27.983,82.595 L25.382,82.595 C24.17,82.595 23.244,81.996 22.611,80.804 L7.883,52.575 L7.883,94.959 C7.883,95.528 7.695,95.998 7.321,96.367 C6.944,96.737 6.468,96.922 5.889,96.922 L1.99,96.922 C1.415,96.922 0.935,96.737 0.562,96.367" id="Fill-9" fill="#262B2B" mask="url(#mask-2)"></path>
        </g>
        <path d="M65.885,96.367 C65.508,95.998 65.323,95.528 65.323,94.959 L65.323,92.404 C65.323,91.095 66.043,89.845 67.489,88.649 L86.376,70.143 C90.648,66.562 93.594,63.633 95.211,61.358 C96.828,59.083 97.636,56.668 97.636,54.109 C97.636,50.755 96.684,48.128 94.779,46.22 C92.871,44.318 90.099,43.362 86.461,43.362 C82.998,43.362 80.254,44.359 78.232,46.35 C76.208,48.34 74.967,51.012 74.505,54.366 C74.388,54.993 74.101,55.473 73.638,55.815 C73.175,56.158 72.717,56.326 72.254,56.326 L68.095,56.326 C67.574,56.326 67.143,56.158 66.793,55.815 C66.447,55.473 66.276,55.079 66.276,54.62 C66.389,51.608 67.215,48.693 68.742,45.88 C70.274,43.064 72.542,40.762 75.547,38.971 C78.548,37.182 82.186,36.285 86.461,36.285 C92.929,36.285 97.798,37.95 101.059,41.276 C104.32,44.599 105.954,48.823 105.954,53.938 C105.954,57.521 105.074,60.748 103.313,63.62 C101.548,66.49 98.791,69.519 95.04,72.702 L77.972,89.759 L105.262,89.759 C105.896,89.759 106.389,89.93 106.736,90.27 C107.081,90.612 107.253,91.095 107.253,91.718 L107.253,94.959 C107.253,95.528 107.068,95.998 106.691,96.367 C106.314,96.737 105.838,96.922 105.262,96.922 L67.314,96.922 C66.738,96.922 66.259,96.737 65.885,96.367" id="Fill-11" fill="#262B2B"></path>
        <path d="M113.925,96.485 C113.58,96.142 113.405,95.745 113.405,95.289 L113.58,94.354 L135.063,39.174 C135.526,37.923 136.45,37.296 137.838,37.296 L143.381,37.296 C144.769,37.296 145.69,37.923 146.152,39.174 L167.639,94.354 L167.814,95.289 C167.814,95.745 167.626,96.142 167.249,96.485 C166.872,96.824 166.454,96.995 165.992,96.995 L161.922,96.995 C161.343,96.995 160.867,96.841 160.493,96.526 C160.116,96.214 159.87,95.889 159.757,95.546 L154.905,83.265 L126.228,83.265 L121.463,95.546 C121,96.516 120.277,96.995 119.297,96.995 L115.138,96.995 C114.676,96.995 114.272,96.824 113.925,96.485 M128.739,76.186 L152.477,76.186 L140.61,45.57 L128.739,76.186" id="Fill-12" fill="#262B2B"></path>
        <path d="M290.212,25.666 C287.985,25.666 285.912,26.845 284.802,28.743 L267.488,58.26 C266.375,60.158 266.375,62.515 267.488,64.413 L284.802,93.933 C285.875,95.759 287.841,96.91 289.976,96.993 L297.361,96.993 C297.359,96.996 297.355,97.003 297.352,97.006 L324.84,97.006 C327.064,97.006 329.137,95.828 330.25,93.933 L347.565,64.413 C348.678,62.515 348.678,60.158 347.565,58.26 L330.25,28.743 C329.137,26.845 327.064,25.666 324.84,25.666 L324.795,25.666" id="Fill-13" fill="#DC4134"></path>
    </g>
</svg>