<?xml version="1.0" encoding="utf-8"?>
<!-- Generator: Adobe Illustrator 22.0.1, SVG Export Plug-In . SVG Version: 6.00 Build 0)  -->
<!DOCTYPE svg PUBLIC "-//W3C//DTD SVG 1.1//EN" "http://www.w3.org/Graphics/SVG/1.1/DTD/svg11.dtd" [
	<!ENTITY ns_extend "http://ns.adobe.com/Extensibility/1.0/">
	<!ENTITY ns_ai "http://ns.adobe.com/AdobeIllustrator/10.0/">
	<!ENTITY ns_graphs "http://ns.adobe.com/Graphs/1.0/">
	<!ENTITY ns_vars "http://ns.adobe.com/Variables/1.0/">
	<!ENTITY ns_imrep "http://ns.adobe.com/ImageReplacement/1.0/">
	<!ENTITY ns_sfw "http://ns.adobe.com/SaveForWeb/1.0/">
	<!ENTITY ns_custom "http://ns.adobe.com/GenericCustomNamespace/1.0/">
	<!ENTITY ns_adobe_xpath "http://ns.adobe.com/XPath/1.0/">
]>
<svg version="1.1" id="Layer_1" xmlns:x="&ns_extend;" xmlns:i="&ns_ai;" xmlns:graph="&ns_graphs;"
	 xmlns="http://www.w3.org/2000/svg" xmlns:xlink="http://www.w3.org/1999/xlink" x="0px" y="0px" width="220px" height="64px"
	 viewBox="0 0 220 64" style="enable-background:new 0 0 220 64;" xml:space="preserve">
<style type="text/css">
	.st0{fill:#CB262C;}
	.st1{fill:#FFFFFF;}
</style>
<metadata>
	<sfw  xmlns="&ns_sfw;">
		<slices></slices>
		<sliceSourceBounds  bottomLeftOrigin="true" height="58.5" width="200" x="11" y="3.5"></sliceSourceBounds>
	</sfw>
</metadata>
<g id="Page-1">
	<g id="M2A_Media_logo_cmyk">
		<g id="Group-3">
			<g id="Clip-2">
			</g>
			<path id="Fill-1" class="st0" d="M96,56.7c1.5,0,9.3-0.5,9.4-11.3c0.1-12.2-8.7-16.4-9.1-16.6l-1.2-0.5l0.1-1.3
				c0.1-0.7,0.7-16.3-14.3-20.3c-2.1-0.5-4.1-0.8-6.1-0.8c-10.9-0.1-16.4,8.6-16.4,8.6l-1.1,1.7l-1.7-1.2c-0.1-0.1-4.8-3.3-10.6-3.3
				c-2.8,0-5.5,0.8-7.9,2.4c-9.2,6.2-7,17.7-7,17.9l0.5,2.5l-2.5-0.2c0,0-0.2,0-0.5,0c-11.4-0.1-12.7,8.3-12.7,11.9
				c0,4.3,1.7,7.4,4.8,9.1c2.6,1.4,5.4,1.5,5.9,1.5h0.1 M96,60.5c-0.2,0-0.2,0-0.2,0H25.6c-0.9,0-4.4-0.1-7.7-1.9
				C14.8,57,11,53.4,11,46.2c0-7.8,3.9-11.6,7.2-13.5c2.8-1.6,5.9-2.1,7.9-2.2c-0.3-4.3,0.2-13.7,8.9-19.5c3-2,6.4-3,10-3
				c4.8,0,9,1.8,11.2,3c2.4-2.9,8.6-9,18.6-9c2.3,0,4.7,0.4,7.1,0.9c15.3,4.1,17,18.6,17.1,22.9c2.9,1.7,10.4,7.3,10.2,19.5
				C109,60.1,97.3,60.5,96,60.5"/>
		</g>
		<polygon id="Fill-4" class="st1" points="66.5,53.3 149.3,53.3 149.3,19.6 66.5,19.6 		"/>
		<path id="Fill-5" class="st0" d="M44.2,24.8c0.5,0.9,1.1,1.9,1.7,3.1c0.6,1.2,1.2,2.5,1.9,3.9c0.7,1.4,1.2,2.8,1.9,4.1
			c0.7,1.4,1.2,2.7,1.7,3.9c0.5-1.2,1.1-2.5,1.7-3.9c0.6-1.4,1.2-2.8,1.9-4.1c0.7-1.4,1.2-2.7,1.9-3.9c0.6-1.2,1.2-2.3,1.7-3.1h3.8
			c0.2,1.7,0.4,3.5,0.6,5.5c0.2,2,0.4,3.9,0.5,5.9c0.2,2,0.3,4.1,0.4,6.1c0.1,2.1,0.2,4,0.4,6H60c-0.1-2.7-0.2-5.6-0.4-8.5
			c-0.1-2.9-0.3-5.7-0.6-8.4c-0.2,0.5-0.5,1.1-0.9,1.9c-0.4,0.7-0.7,1.5-1.1,2.4c-0.4,0.8-0.8,1.7-1.2,2.6s-0.8,1.8-1.1,2.6
			c-0.4,0.8-0.7,1.7-1,2.4c-0.3,0.7-0.6,1.4-0.8,1.9h-3.2c-0.2-0.5-0.5-1.1-0.8-1.9c-0.3-0.8-0.7-1.5-1-2.4
			c-0.4-0.8-0.8-1.7-1.1-2.6c-0.4-0.9-0.8-1.8-1.2-2.6c-0.4-0.8-0.8-1.6-1.1-2.4c-0.4-0.7-0.7-1.4-0.9-1.8c-0.2,2.7-0.5,5.5-0.6,8.4
			c-0.1,2.9-0.2,5.7-0.4,8.5h-4.2c0.1-2,0.2-4,0.4-6c0.1-2.1,0.2-4.1,0.4-6.2s0.3-4,0.5-6c0.2-1.9,0.4-3.7,0.6-5.3H44.2"/>
		<path id="Fill-6" class="st0" d="M82.4,30.9c0,0.8-0.2,1.6-0.5,2.4c-0.4,0.8-0.8,1.5-1.3,2.2c-0.5,0.7-1.1,1.4-1.8,2.1
			c-0.7,0.7-1.4,1.4-2,2c-0.4,0.4-0.8,0.8-1.2,1.2c-0.5,0.5-0.9,0.9-1.3,1.4c-0.4,0.5-0.8,0.9-1.1,1.4c-0.3,0.4-0.5,0.8-0.5,1.1
			h10.4v3.4H68.3c0-0.2-0.1-0.4-0.1-0.7s0-0.5,0-0.6c0-1.1,0.2-2.1,0.5-3c0.4-0.9,0.8-1.8,1.4-2.5c0.6-0.8,1.2-1.5,1.9-2.2
			s1.4-1.4,2.1-2.1c0.5-0.5,1.1-1,1.5-1.5c0.5-0.5,0.9-1,1.3-1.5s0.7-1,0.9-1.5c0.2-0.5,0.4-1,0.4-1.6c0-1.2-0.4-2-1-2.5
			c-0.7-0.5-1.5-0.8-2.5-0.8c-0.7,0-1.2,0.1-1.8,0.3s-1,0.4-1.4,0.7c-0.4,0.2-0.8,0.5-1.1,0.8c-0.3,0.2-0.5,0.5-0.7,0.7l-2-2.9
			c0.9-0.9,2.1-1.7,3.3-2.2c1.3-0.5,2.7-0.8,4.1-0.8c2.5,0,4.4,0.6,5.6,1.8C81.9,27.2,82.4,28.8,82.4,30.9"/>
		<path id="Fill-7" class="st0" d="M96.9,29.3c-0.5,1.2-1.1,2.7-1.8,4.4c-0.7,1.7-1.4,3.6-2.1,5.6h7.7c-0.7-2-1.4-3.9-2.1-5.6
			C98,31.9,97.4,30.4,96.9,29.3z M103.8,48.2c-0.3-0.9-0.7-1.8-1-2.7c-0.4-0.9-0.7-1.8-1-2.8h-9.9c-0.3,0.9-0.7,1.9-0.9,2.8
			c-0.4,0.9-0.7,1.8-0.9,2.7h-4.4c0.9-2.5,1.7-4.8,2.5-6.9c0.8-2.1,1.5-4.1,2.3-6c0.8-1.9,1.5-3.7,2.2-5.4c0.8-1.7,1.5-3.4,2.3-5.1
			H99c0.8,1.7,1.5,3.4,2.3,5.1c0.8,1.7,1.5,3.5,2.2,5.4c0.8,1.9,1.5,3.9,2.4,6c0.8,2.1,1.7,4.4,2.5,6.9H103.8z"/>
		<path id="Fill-8" class="st0" d="M124.4,24.8c0.5,0.9,1.1,1.9,1.7,3.1s1.2,2.5,1.9,3.9c0.7,1.4,1.2,2.8,1.9,4.1
			c0.7,1.4,1.2,2.7,1.7,3.9c0.5-1.2,1.1-2.5,1.7-3.9c0.6-1.4,1.2-2.8,1.9-4.1c0.7-1.4,1.2-2.7,1.9-3.9c0.6-1.2,1.2-2.3,1.7-3.1h3.8
			c0.2,1.7,0.4,3.5,0.6,5.5c0.2,2,0.4,3.9,0.5,5.9c0.1,2,0.3,4.1,0.4,6.1c0.1,2.1,0.2,4,0.4,6h-4.2c-0.1-2.7-0.2-5.6-0.4-8.5
			c-0.1-2.9-0.3-5.7-0.6-8.4c-0.2,0.5-0.5,1.1-0.9,1.9c-0.4,0.7-0.7,1.5-1.1,2.4c-0.4,0.8-0.8,1.7-1.2,2.6s-0.8,1.8-1.1,2.6
			c-0.4,0.8-0.7,1.7-1,2.4c-0.3,0.7-0.6,1.4-0.8,1.9h-3.3c-0.2-0.5-0.5-1.1-0.8-1.9c-0.3-0.8-0.7-1.5-1-2.4
			c-0.4-0.8-0.8-1.7-1.1-2.6c-0.4-0.9-0.8-1.8-1.2-2.6c-0.4-0.8-0.8-1.6-1.1-2.4c-0.4-0.7-0.7-1.4-0.9-1.8c-0.2,2.7-0.5,5.5-0.6,8.4
			c-0.1,2.9-0.2,5.7-0.4,8.5h-4.2c0.1-2,0.2-4,0.4-6c0.1-2.1,0.2-4.1,0.4-6.2c0.2-2.1,0.3-4,0.5-6c0.2-1.9,0.4-3.7,0.6-5.3H124.4"/>
		<path id="Fill-9" class="st0" d="M159.9,37.6c0-0.6-0.1-1.1-0.2-1.6c-0.2-0.5-0.4-0.9-0.7-1.3c-0.3-0.4-0.7-0.7-1.1-0.9
			c-0.4-0.2-0.9-0.3-1.6-0.3c-0.7,0-1.2,0.1-1.7,0.4c-0.5,0.2-0.9,0.5-1.2,0.9c-0.4,0.4-0.6,0.8-0.8,1.3c-0.2,0.5-0.3,1-0.4,1.5
			L159.9,37.6L159.9,37.6z M148.1,39.4c0-1.5,0.2-2.9,0.7-4.1c0.5-1.2,1.1-2.1,1.8-3c0.8-0.8,1.7-1.4,2.7-1.8c1-0.4,2-0.6,3.1-0.6
			c2.4,0,4.3,0.8,5.7,2.2c1.4,1.5,2.1,3.8,2.1,6.8c0,0.2,0,0.5,0,0.8s0,0.5-0.1,0.8h-11.7c0.1,1.4,0.6,2.5,1.5,3.3
			c0.9,0.8,2.2,1.2,3.9,1.2c1,0,1.9-0.1,2.7-0.3c0.8-0.2,1.5-0.4,2-0.6l0.5,3.4c-0.2,0.1-0.5,0.2-0.9,0.4c-0.4,0.1-0.8,0.2-1.4,0.4
			s-1.1,0.2-1.7,0.2c-0.6,0.1-1.2,0.1-1.8,0.1c-1.5,0-2.9-0.2-4.1-0.7c-1.1-0.5-2.1-1.1-2.8-2c-0.8-0.8-1.3-1.8-1.7-2.9
			C148.2,42,148.1,40.8,148.1,39.4z"/>
		<path id="Fill-10" class="st0" d="M171.6,39.3c0,1.8,0.4,3.3,1.3,4.3c0.9,1,2.1,1.5,3.5,1.5c0.7,0,1.2,0,1.7-0.1
			c0.5-0.1,0.8-0.1,1.1-0.2V34.7c-0.4-0.2-0.8-0.5-1.4-0.7c-0.6-0.2-1.2-0.3-1.9-0.3c-1.5,0-2.6,0.5-3.3,1.5
			C171.9,36.2,171.6,37.6,171.6,39.3z M183.4,47.7c-0.8,0.2-1.8,0.5-3.1,0.7c-1.2,0.2-2.5,0.3-3.9,0.3c-1.4,0-2.7-0.2-3.8-0.7
			s-2.1-1.1-2.8-1.8c-0.8-0.8-1.4-1.8-1.8-2.9c-0.4-1.1-0.7-2.4-0.7-3.8s0.2-2.7,0.5-3.8c0.4-1.1,0.9-2.1,1.5-3
			c0.7-0.8,1.5-1.4,2.5-1.9c0.9-0.4,2.1-0.7,3.4-0.7c0.9,0,1.6,0.1,2.2,0.3c0.7,0.2,1.2,0.4,1.7,0.7v-8.5l4.1-0.7L183.4,47.7
			L183.4,47.7z"/>
		<g id="Group-14" transform="translate(299.000000, 35.000000)">
			<g id="Clip-12">
			</g>
			<path id="Fill-11" class="st0" d="M-110.4,13.2h4.1V-4.5h-4.1V13.2z M-105.9-9.6c0,0.8-0.2,1.4-0.8,1.8c-0.5,0.5-1.1,0.7-1.8,0.7
				s-1.3-0.2-1.8-0.7c-0.5-0.5-0.7-1.1-0.7-1.8c0-0.8,0.2-1.4,0.8-1.9c0.5-0.5,1.1-0.7,1.8-0.7c0.7,0,1.2,0.2,1.8,0.7
				S-105.9-10.5-105.9-9.6z"/>
			<path id="Fill-13" class="st0" d="M-94.8,10.3c1.2,0,2.2-0.1,2.9-0.2V5.6c-0.2-0.1-0.5-0.1-1-0.2c-0.4-0.1-0.9-0.1-1.4-0.1
				c-0.5,0-0.9,0.1-1.4,0.1c-0.5,0.1-0.9,0.2-1.2,0.4c-0.4,0.2-0.7,0.4-0.9,0.8c-0.2,0.4-0.4,0.8-0.4,1.2c0,0.9,0.3,1.7,0.9,2
				C-96.7,10.2-95.9,10.3-94.8,10.3z M-95.2-4.9c1.4,0,2.5,0.2,3.4,0.5c0.9,0.4,1.7,0.8,2.2,1.4c0.5,0.6,0.9,1.4,1.2,2.2
				c0.2,0.9,0.4,1.8,0.4,2.8v10.8c-0.7,0.1-1.6,0.3-2.8,0.5c-1.3,0.2-2.7,0.3-4.3,0.3c-1.1,0-2-0.1-2.9-0.3s-1.7-0.5-2.2-1
				c-0.7-0.5-1.1-1.1-1.5-1.8c-0.4-0.7-0.5-1.6-0.5-2.7c0-1,0.2-1.9,0.6-2.6c0.4-0.7,0.9-1.2,1.6-1.7c0.7-0.4,1.5-0.8,2.4-0.9
				c0.9-0.2,1.8-0.3,2.8-0.3c0.5,0,0.9,0,1.4,0.1c0.5,0.1,1,0.2,1.6,0.3V2.1c0-0.5-0.1-0.9-0.2-1.4c-0.1-0.4-0.3-0.8-0.6-1.1
				C-93-0.8-93.4-1-93.8-1.2s-1.1-0.3-1.8-0.3c-0.9,0-1.8,0.1-2.6,0.2c-0.8,0.1-1.4,0.3-2,0.5l-0.5-3.3c0.5-0.2,1.3-0.4,2.2-0.5
				C-97.4-4.9-96.3-4.9-95.2-4.9z"/>
		</g>
	</g>
</g>
</svg>
