<?xml version="1.0" encoding="utf-8"?>
<!-- Generator: Adobe Illustrator 22.0.1, SVG Export Plug-In . SVG Version: 6.00 Build 0)  -->
<!DOCTYPE svg PUBLIC "-//W3C//DTD SVG 1.1//EN" "http://www.w3.org/Graphics/SVG/1.1/DTD/svg11.dtd" [
	<!ENTITY ns_extend "http://ns.adobe.com/Extensibility/1.0/">
	<!ENTITY ns_ai "http://ns.adobe.com/AdobeIllustrator/10.0/">
	<!ENTITY ns_graphs "http://ns.adobe.com/Graphs/1.0/">
	<!ENTITY ns_vars "http://ns.adobe.com/Variables/1.0/">
	<!ENTITY ns_imrep "http://ns.adobe.com/ImageReplacement/1.0/">
	<!ENTITY ns_sfw "http://ns.adobe.com/SaveForWeb/1.0/">
	<!ENTITY ns_custom "http://ns.adobe.com/GenericCustomNamespace/1.0/">
	<!ENTITY ns_adobe_xpath "http://ns.adobe.com/XPath/1.0/">
]>
<svg version="1.1" id="Layer_1" xmlns:x="&ns_extend;" xmlns:i="&ns_ai;" xmlns:graph="&ns_graphs;"
	 xmlns="http://www.w3.org/2000/svg" xmlns:xlink="http://www.w3.org/1999/xlink" x="0px" y="0px" width="65px" height="65px"
	 viewBox="0 0 65 65" style="enable-background:new 0 0 65 65;" xml:space="preserve">
<style type="text/css">
	.st0{fill:#FFFFFF;}
</style>
<metadata>
	<sfw  xmlns="&ns_sfw;">
		<slices></slices>
		<sliceSourceBounds  bottomLeftOrigin="true" height="31.2" width="33" x="16" y="16.9"></sliceSourceBounds>
	</sfw>
</metadata>
<g>
	<g>
		<path class="st0" d="M47.5,19.9h-30c-0.8,0-1.5-0.7-1.5-1.5s0.7-1.5,1.5-1.5h30c0.8,0,1.5,0.7,1.5,1.5
			C49,19.2,48.3,19.9,47.5,19.9z"/>
	</g>
	<g>
		<path class="st0" d="M47.5,34h-30c-0.8,0-1.5-0.7-1.5-1.5s0.7-1.5,1.5-1.5h30c0.8,0,1.5,0.7,1.5,1.5S48.3,34,47.5,34z"/>
	</g>
	<g>
		<path class="st0" d="M47.5,48.1h-30c-0.8,0-1.5-0.7-1.5-1.5s0.7-1.5,1.5-1.5h30c0.8,0,1.5,0.7,1.5,1.5S48.3,48.1,47.5,48.1z"/>
	</g>
</g>
</svg>
