<?xml version="1.0" encoding="utf-8"?>
<!-- Generator: Adobe Illustrator 19.2.1, SVG Export Plug-In . SVG Version: 6.00 Build 0)  -->
<svg version="1.1" id="Layer_1" xmlns="http://www.w3.org/2000/svg" xmlns:xlink="http://www.w3.org/1999/xlink" x="0px" y="0px"
	 viewBox="0 0 33 10" style="enable-background:new 0 0 33 10;" xml:space="preserve">
<style type="text/css">
	.st0{opacity:0.6;fill:url(#SVGID_1_);}
	.st1{fill:url(#SVGID_2_);}
	.st2{fill:url(#SVGID_3_);}
	.st3{fill:url(#SVGID_4_);}
	.st4{opacity:0.6;fill:url(#SVGID_5_);}
	.st5{fill:url(#SVGID_6_);}
	.st6{opacity:0.6;fill:url(#SVGID_7_);}
	.st7{fill:url(#SVGID_8_);}
	.st8{fill:url(#SVGID_9_);}
	.st9{opacity:0.6;fill:url(#SVGID_10_);}
	.st10{fill:url(#SVGID_11_);}
</style>
<g>
	<linearGradient id="SVGID_1_" gradientUnits="userSpaceOnUse" x1="-6.351109e-02" y1="5.631" x2="33.2698" y2="4.881">
		<stop  offset="0" style="stop-color:#FF4E00"/>
		<stop  offset="1" style="stop-color:#FF1791"/>
	</linearGradient>
	<path class="st0" d="M31,9.7c0.4,0.4,1.2,0.4,1.6,0c0.4-0.4,0.4-1.2,0-1.6L25,0.3c-0.4-0.4-1.2-0.4-1.6,0s-0.4,1.2,0,1.6L31,9.7z"
		/>
	<linearGradient id="SVGID_2_" gradientUnits="userSpaceOnUse" x1="-0.1667" y1="5" x2="33.0009" y2="5">
		<stop  offset="0" style="stop-color:#FF4E00"/>
		<stop  offset="1" style="stop-color:#FF1791"/>
	</linearGradient>
	<path class="st1" d="M25,9.7c-0.4,0.4-1.2,0.4-1.6,0s-0.4-1.2,0-1.6L31,0.3c0.4-0.4,1.2-0.4,1.6,0c0.4,0.4,0.4,1.2,0,1.6L25,9.7z"
		/>
	<linearGradient id="SVGID_3_" gradientUnits="userSpaceOnUse" x1="-1" y1="9" x2="33.3328" y2="9">
		<stop  offset="0" style="stop-color:#FF4E00"/>
		<stop  offset="1" style="stop-color:#FF1791"/>
	</linearGradient>
	<circle class="st2" cx="32" cy="9" r="1"/>
	<linearGradient id="SVGID_4_" gradientUnits="userSpaceOnUse" x1="-1" y1="5" x2="33.3328" y2="5">
		<stop  offset="0" style="stop-color:#FF4E00"/>
		<stop  offset="1" style="stop-color:#FF1791"/>
	</linearGradient>
	<path class="st3" d="M1,0C0.4,0,0,0.5,0,1V9c0,0.6,0.4,1,1,1s1-0.5,1-1V1C2,0.5,1.6,0,1,0z"/>
	<linearGradient id="SVGID_5_" gradientUnits="userSpaceOnUse" x1="-1" y1="5" x2="33.3328" y2="5">
		<stop  offset="0" style="stop-color:#FF4E00"/>
		<stop  offset="1" style="stop-color:#FF1791"/>
	</linearGradient>
	<path class="st4" d="M9,0C8.4,0,8,0.5,8,1V9c0,0.6,0.4,1,1,1c0.6,0,1-0.5,1-1V1C10,0.5,9.6,0,9,0z"/>
	<linearGradient id="SVGID_6_" gradientUnits="userSpaceOnUse" x1="-1" y1="9" x2="33.3328" y2="9">
		<stop  offset="0" style="stop-color:#FF4E00"/>
		<stop  offset="1" style="stop-color:#FF1791"/>
	</linearGradient>
	<circle class="st5" cx="9" cy="9" r="1"/>
	<linearGradient id="SVGID_7_" gradientUnits="userSpaceOnUse" x1="0.1488" y1="3.0282" x2="33.8988" y2="2.6948">
		<stop  offset="0" style="stop-color:#FF4E00"/>
		<stop  offset="1" style="stop-color:#FF1791"/>
	</linearGradient>
	<path class="st6" d="M4,5.7c0.4,0.4,1.2,0.4,1.6,0c0.4-0.4,0.4-1.2,0-1.6L2,0.3c-0.4-0.4-1.2-0.4-1.6,0s-0.4,1.2,0,1.6L4,5.7z"/>
	<linearGradient id="SVGID_8_" gradientUnits="userSpaceOnUse" x1="-8.333334e-02" y1="3" x2="33.5843" y2="3">
		<stop  offset="0" style="stop-color:#FF4E00"/>
		<stop  offset="1" style="stop-color:#FF1791"/>
	</linearGradient>
	<path class="st7" d="M6,5.7c-0.4,0.4-1.2,0.4-1.6,0C3.9,5.2,3.9,4.5,4.3,4L8,0.3c0.4-0.4,1.2-0.4,1.6,0s0.4,1.2,0,1.6L6,5.7z"/>
	<linearGradient id="SVGID_9_" gradientUnits="userSpaceOnUse" x1="-1" y1="5" x2="33.3328" y2="5">
		<stop  offset="0" style="stop-color:#FF4E00"/>
		<stop  offset="1" style="stop-color:#FF1791"/>
	</linearGradient>
	<path class="st8" d="M16.5,8C15.1,8,14,6.9,14,5.5V1c0-0.6-0.4-1-1-1c-0.6,0-1,0.5-1,1v4.5C12,8,14,10,16.5,10c0.6,0,1-0.4,1-1
		C17.5,8.4,17.1,8,16.5,8z"/>
	
		<linearGradient id="SVGID_10_" gradientUnits="userSpaceOnUse" x1="5.8333" y1="5" x2="40.1661" y2="5" gradientTransform="matrix(-1 0 0 1 40.5 0)">
		<stop  offset="0" style="stop-color:#FF4E00"/>
		<stop  offset="1" style="stop-color:#FF1791"/>
	</linearGradient>
	<path class="st9" d="M16.5,8C17.9,8,19,6.9,19,5.5V1c0-0.6,0.4-1,1-1c0.6,0,1,0.5,1,1v4.5C21,8,19,10,16.5,10c-0.6,0-1-0.4-1-1
		C15.5,8.4,15.9,8,16.5,8z"/>
	<linearGradient id="SVGID_11_" gradientUnits="userSpaceOnUse" x1="-1" y1="1" x2="33.3328" y2="1">
		<stop  offset="0" style="stop-color:#FF4E00"/>
		<stop  offset="1" style="stop-color:#FF1791"/>
	</linearGradient>
	<circle class="st10" cx="20" cy="1" r="1"/>
</g>
</svg>
