<?xml version="1.0" encoding="utf-8"?>
<!-- Generator: Adobe Illustrator 20.0.0, SVG Export Plug-In . SVG Version: 6.00 Build 0)  -->
<!DOCTYPE svg PUBLIC "-//W3C//DTD SVG 1.1//EN" "http://www.w3.org/Graphics/SVG/1.1/DTD/svg11.dtd" [
	<!ENTITY ns_extend "http://ns.adobe.com/Extensibility/1.0/">
	<!ENTITY ns_ai "http://ns.adobe.com/AdobeIllustrator/10.0/">
	<!ENTITY ns_graphs "http://ns.adobe.com/Graphs/1.0/">
	<!ENTITY ns_vars "http://ns.adobe.com/Variables/1.0/">
	<!ENTITY ns_imrep "http://ns.adobe.com/ImageReplacement/1.0/">
	<!ENTITY ns_sfw "http://ns.adobe.com/SaveForWeb/1.0/">
	<!ENTITY ns_custom "http://ns.adobe.com/GenericCustomNamespace/1.0/">
	<!ENTITY ns_adobe_xpath "http://ns.adobe.com/XPath/1.0/">
]>
<svg version="1.1" id="Layer_1" xmlns:x="&ns_extend;" xmlns:i="&ns_ai;" xmlns:graph="&ns_graphs;"
	 xmlns="http://www.w3.org/2000/svg" xmlns:xlink="http://www.w3.org/1999/xlink" x="0px" y="0px" width="220px" height="85.3px"
	 viewBox="0 0 220 85.3" style="enable-background:new 0 0 220 85.3;" xml:space="preserve">
<style type="text/css">
	.st0{fill:#011919;}
	.st1{opacity:0.7;fill:#FFFFFF;}
	.st2{fill:#FFFFFF;}
</style>
<metadata>
	<sfw  xmlns="&ns_sfw;">
		<slices></slices>
		<sliceSourceBounds  bottomLeftOrigin="true" height="85.3" width="220" x="188" y="-251.6"></sliceSourceBounds>
	</sfw>
</metadata>
<path class="st0" d="M210,85.3H10c-5.5,0-10-4.5-10-10V10C0,4.5,4.5,0,10,0h200c5.5,0,10,4.5,10,10v65.3
	C220,80.8,215.5,85.3,210,85.3z"/>
<g>
	<path class="st1" d="M195.8,71.5c2.6,2.6,6.7,2.6,9.3,0c2.6-2.6,2.6-6.7,0-9.3l-48.5-48.5c-2.6-2.6-6.7-2.6-9.3,0s-2.6,6.7,0,9.3
		L195.8,71.5z"/>
	<path class="st2" d="M156.6,71.5c-2.6,2.6-6.7,2.6-9.3,0s-2.6-6.7,0-9.3l48.5-48.5c2.6-2.6,6.7-2.6,9.3,0c2.6,2.6,2.6,6.7,0,9.3
		L156.6,71.5z"/>
	<path class="st1" d="M110,60.3c8.3,0,15.1-6.7,15.1-15.1V18.6c0-3.8,2.8-6.8,6.6-6.8c3.8,0,6.6,3,6.6,6.8v26.6
		c0,15.6-12.6,28.2-28.2,28.2c-3.6,0-6.6-2.9-6.6-6.6C103.4,63.3,106.4,60.3,110,60.3z"/>
	<path class="st1" d="M68.1,11.8c-3.8,0-6.6,3-6.6,6.8v48c0,3.8,2.8,6.8,6.6,6.8s6.6-3,6.6-6.8v-48C74.6,14.9,71.8,11.8,68.1,11.8z"
		/>
	<g>
		<circle class="st2" cx="131.6" cy="18.4" r="6.6"/>
	</g>
	<circle class="st2" cx="200.4" cy="66.9" r="6.6"/>
	<path class="st2" d="M19.6,11.8c-3.8,0-6.6,3-6.6,6.8v48c0,3.8,2.8,6.8,6.6,6.8s6.6-3,6.6-6.8v-48C26.1,14.9,23.3,11.8,19.6,11.8z"
		/>
	<circle class="st2" cx="68.1" cy="66.9" r="6.6"/>
	<path class="st1" d="M39.2,47.3c2.6,2.6,6.7,2.6,9.3,0c2.6-2.6,2.6-6.7,0-9.3L24.2,13.8c-2.6-2.6-6.7-2.6-9.3,0s-2.6,6.7,0,9.3
		L39.2,47.3z"/>
	<path class="st2" d="M48.5,47.3c-2.6,2.6-6.7,2.6-9.3,0c-2.6-2.6-2.6-6.7,0-9.3l24.2-24.2c2.6-2.6,6.7-2.6,9.3,0s2.6,6.7,0,9.3
		L48.5,47.3z"/>
	<path class="st2" d="M110,60.3c-8.3,0-15.1-6.7-15.1-15.1V18.6c0-3.8-2.8-6.8-6.6-6.8c-3.8,0-6.6,3-6.6,6.8v26.6
		c0,15.6,12.6,28.2,28.2,28.2c3.6,0,6.6-2.9,6.6-6.6C116.6,63.3,113.6,60.3,110,60.3z"/>
</g>
</svg>
