<?xml version="1.0" encoding="utf-8"?>
<!-- Generator: Adobe Illustrator 21.0.2, SVG Export Plug-In . SVG Version: 6.00 Build 0)  -->
<!DOCTYPE svg PUBLIC "-//W3C//DTD SVG 1.1//EN" "http://www.w3.org/Graphics/SVG/1.1/DTD/svg11.dtd" [
	<!ENTITY ns_extend "http://ns.adobe.com/Extensibility/1.0/">
	<!ENTITY ns_ai "http://ns.adobe.com/AdobeIllustrator/10.0/">
	<!ENTITY ns_graphs "http://ns.adobe.com/Graphs/1.0/">
	<!ENTITY ns_vars "http://ns.adobe.com/Variables/1.0/">
	<!ENTITY ns_imrep "http://ns.adobe.com/ImageReplacement/1.0/">
	<!ENTITY ns_sfw "http://ns.adobe.com/SaveForWeb/1.0/">
	<!ENTITY ns_custom "http://ns.adobe.com/GenericCustomNamespace/1.0/">
	<!ENTITY ns_adobe_xpath "http://ns.adobe.com/XPath/1.0/">
]>
<svg version="1.1" id="art" xmlns:x="&ns_extend;" xmlns:i="&ns_ai;" xmlns:graph="&ns_graphs;"
	 xmlns="http://www.w3.org/2000/svg" xmlns:xlink="http://www.w3.org/1999/xlink" x="0px" y="0px" width="154px" height="243px"
	 viewBox="0 0 154 243" style="enable-background:new 0 0 154 243;" xml:space="preserve">
<style type="text/css">
	.st0{fill:#C8495B;}
	.st1{fill:#301C47;}
	.st2{fill:none;stroke:#C8495B;stroke-width:3;stroke-linecap:round;stroke-miterlimit:10;}
	.st3{fill:none;stroke:#F4A04D;stroke-width:3;stroke-linecap:round;stroke-miterlimit:10;}
	.st4{fill:#F4A04D;}
	.st5{fill:url(#SVGID_1_);}
</style>
<metadata>
	<sfw  xmlns="&ns_sfw;">
		<slices></slices>
		<sliceSourceBounds  bottomLeftOrigin="true" height="192.2" width="138" x="41.3" y="25.5"></sliceSourceBounds>
		<optimizationSettings>
			<targetSettings  fileFormat="PNG24Format" targetSettingsID="0">
				<PNG24Format  filtered="false" interlaced="false" matteColor="#000000" noMatteColor="true" transparency="true">
					</PNG24Format>
			</targetSettings>
		</optimizationSettings>
	</sfw>
</metadata>
<g>
	<polygon class="st0" points="8.3,92 123.2,25.3 123.2,136.9 8.3,203.5 	"/>
	<polygon class="st1" points="8.3,105.9 123.2,39.3 123.2,150.9 8.3,217.5 	"/>
	<g>
		<line class="st2" x1="84.7" y1="104.3" x2="98" y2="96.6"/>
		<line class="st2" x1="34.1" y1="146.1" x2="62.7" y2="129.4"/>
		<line class="st2" x1="38.5" y1="169" x2="52.8" y2="160.8"/>
		<line class="st3" x1="24.2" y1="177.3" x2="32.4" y2="172.5"/>
		<line class="st3" x1="53.9" y1="147" x2="60" y2="143.7"/>
		<line class="st3" x1="64.9" y1="91" x2="71.5" y2="87.1"/>
		<line class="st2" x1="40.6" y1="105.1" x2="54.6" y2="97"/>
		<line class="st3" x1="24.2" y1="114.6" x2="32.9" y2="109.6"/>
		<line class="st2" x1="24.2" y1="189.8" x2="32.9" y2="184.7"/>
		<line class="st3" x1="24.2" y1="127" x2="52.8" y2="110.4"/>
		<line class="st3" x1="65.8" y1="115.3" x2="77.5" y2="108.4"/>
		<line class="st3" x1="44" y1="127.9" x2="56.6" y2="120.6"/>
	</g>
	<g>
		<path class="st4" d="M19.8,92.4c0,1-0.8,2.2-1.8,2.8c-1,0.6-1.8,0.2-1.8-0.7c0-1,0.8-2.2,1.8-2.8C19,91.1,19.8,91.4,19.8,92.4z"/>
		<path class="st4" d="M26.9,88.3c0,1-0.8,2.2-1.8,2.8c-1,0.6-1.8,0.2-1.8-0.7c0-1,0.8-2.2,1.8-2.8C26,86.9,26.9,87.3,26.9,88.3z"/>
		<path class="st4" d="M33.9,84.2c0,1-0.8,2.2-1.8,2.8c-1,0.6-1.8,0.2-1.8-0.7c0-1,0.8-2.2,1.8-2.8C33.2,82.9,33.9,83.2,33.9,84.2z"
			/>
	</g>
</g>
<g>
	<polygon class="st4" points="76.9,138.3 146.3,98 146.3,165.4 76.9,205.6 	"/>
	<linearGradient id="SVGID_1_" gradientUnits="userSpaceOnUse" x1="62.2759" y1="180.3076" x2="160.9463" y2="123.3402">
		<stop  offset="0" style="stop-color:#C8495B;stop-opacity:0"/>
		<stop  offset="1" style="stop-color:#C8495B;stop-opacity:0.5"/>
	</linearGradient>
	<polygon class="st5" points="76.9,138.3 146.3,98 146.3,165.4 76.9,205.6 	"/>
	<g>
		<path class="st1" d="M133.8,159.7l-12.7,6v-18c0-3.5,2.9-6.4,6.4-6.4l0,0c3.5,0,6.4,2.9,6.4,6.4V159.7z"/>
		<path class="st0" d="M132.5,128.1c2.2,3.7,1.1,8.5-2.6,10.7c-3.7,2.2-8.5,1.1-10.7-2.6c-2.2-3.7-1.1-8.5,2.6-10.7l6.8-4.2
			L132.5,128.1z"/>
		<circle class="st4" cx="127.7" cy="135.1" r="5.1"/>
	</g>
	<g>
		<g>
			<path class="st0" d="M110.1,173.8l-12.8,6v-18.1c0-3.6,2.8-6.4,6.4-6.4l0,0c3.6,0,6.4,2.8,6.4,6.4V173.8z"/>
			<circle class="st1" cx="102.3" cy="147.4" r="6.8"/>
			<circle class="st4" cx="104" cy="149.1" r="5.1"/>
		</g>
		<g>
			<path class="st1" d="M96.7,146.9c0,1,0,0.3,0,0.5l0,0l0,0l0,0l0,0l0,0l-0.1,0l-0.2,0l-0.4,0l-0.7,0.2l-0.7,0.2l-0.7,0.3
				c-0.9,0.5-1.6,1.1-2.2,1.8c-0.6,0.7-1,1.6-1.3,2.5c-0.3,0.9-0.3,1.7-0.2,2.7c0.1,0.8-0.5,1.6-1.4,1.6s-1.6-0.5-1.6-1.4
				c0-0.1,0-0.1,0-0.2l0-0.1c0.1-1.2,0.3-2.5,0.9-3.6c0.5-1.1,1.3-2.2,2.2-3c0.9-0.8,2-1.4,3.1-1.8l0.9-0.2l0.9-0.2l0.9-0.1l0.4,0
				l0.2,0l0.1,0l0.1,0l0,0l0,0l0,0l0,0C96.7,146.6,96.7,145.9,96.7,146.9z"/>
		</g>
	</g>
</g>
</svg>
