<?xml version="1.0" encoding="utf-8"?>
<!-- Generator: Adobe Illustrator 22.0.1, SVG Export Plug-In . SVG Version: 6.00 Build 0)  -->
<!DOCTYPE svg PUBLIC "-//W3C//DTD SVG 1.1//EN" "http://www.w3.org/Graphics/SVG/1.1/DTD/svg11.dtd" [
	<!ENTITY ns_extend "http://ns.adobe.com/Extensibility/1.0/">
	<!ENTITY ns_ai "http://ns.adobe.com/AdobeIllustrator/10.0/">
	<!ENTITY ns_graphs "http://ns.adobe.com/Graphs/1.0/">
	<!ENTITY ns_vars "http://ns.adobe.com/Variables/1.0/">
	<!ENTITY ns_imrep "http://ns.adobe.com/ImageReplacement/1.0/">
	<!ENTITY ns_sfw "http://ns.adobe.com/SaveForWeb/1.0/">
	<!ENTITY ns_custom "http://ns.adobe.com/GenericCustomNamespace/1.0/">
	<!ENTITY ns_adobe_xpath "http://ns.adobe.com/XPath/1.0/">
]>
<svg version="1.1" id="Layer_1" xmlns:x="&ns_extend;" xmlns:i="&ns_ai;" xmlns:graph="&ns_graphs;"
	 xmlns="http://www.w3.org/2000/svg" xmlns:xlink="http://www.w3.org/1999/xlink" x="0px" y="0px" width="220px" height="64px"
	 viewBox="0 0 220 64" style="enable-background:new 0 0 220 64;" xml:space="preserve">
<style type="text/css">
	.st0{fill:#0C93F2;}
	.st1{fill:#0C92F2;}
</style>
<metadata>
	<sfw  xmlns="&ns_sfw;">
		<slices></slices>
		<sliceSourceBounds  bottomLeftOrigin="true" height="63" width="132.8" x="43.6" y="0.5"></sliceSourceBounds>
	</sfw>
</metadata>
<g id="logo">
	<g id="Group" transform="translate(98.000000, 257.000000)">
		<path id="Fill-1" class="st0" d="M61.7-238.2c-6.9,0-12.5,5.5-12.5,12.2c0,6.7,5.6,12.2,12.5,12.2c6.9,0,12.5-5.5,12.5-12.2
			C74.2-232.8,68.6-238.2,61.7-238.2 M78.4-226c0,9-7.5,16.3-16.7,16.3C52.5-209.7,45-217,45-226c0-9,7.5-16.3,16.7-16.3
			C70.9-242.3,78.4-235,78.4-226"/>
		<path id="Fill-3" class="st0" d="M26.9-253.5c0,1.4-1.2,2.5-2.6,2.5s-2.6-1.1-2.6-2.5c0-1.4,1.2-2.5,2.6-2.5
			S26.9-254.9,26.9-253.5"/>
		<path id="Fill-5" class="st1" d="M-14.9-256.5c-0.2,0-0.4,0.2-0.4,0.4v0.1v44.1c0,1.1,0.9,2,2.1,2c1.1,0,2.1-0.8,2.1-1.8
			c0,0,0,0,0,0l0-15.6c0-6.1,5.2-10.7,11.5-10.7c6.3,0,9.4,4.5,9.4,10.6v15.4c0,0,0,0.1,0,0.1c0,1.1,0.9,2.1,2.1,2.1
			c1.1,0,2.1-0.9,2.1-1.9v-16.4c0-11-7.3-14.1-13.5-14.1c-4.7,0-8.9,1.8-11.5,5.4v-14.5C-11.1-253.9-12.5-256.2-14.9-256.5
			L-14.9-256.5z"/>
		<path id="Fill-7" class="st0" d="M22.2-211.8L22.2-211.8c0,1,1,2,2.1,2c1.1,0,2.1-1,2.1-2v0V-237c0-2.4-1.4-4.8-3.8-5l0,0
			c-0.2,0-0.4,0.2-0.4,0.4V-211.8z"/>
		<path id="Fill-9" class="st0" d="M34.7-211.8L34.7-211.8c0,1,0.9,2,2.1,2c1.1,0,2.1-1,2.1-2v-39.7c0-2.4-1.4-4.8-3.8-5l0,0
			c-0.2,0-0.4,0.2-0.4,0.4V-211.8z"/>
		<path id="Fill-11" class="st0" d="M-50.2-198.5c0,2.4-1.4,4.8-3.8,5l0,0c-0.2,0-0.4-0.2-0.4-0.4c0,0,0-32.2,0-32.2
			c0-9.2,7.3-16.3,16.7-16.3c9.4,0,16.7,7.1,16.7,16.3c0,9.2-7.3,16.3-16.7,16.3c-6.7,0-7.7-3.4-7-5.5l0,0c0.1-0.2,0.2-0.3,0.4-0.3
			c0.1,0,0.2,0,0.3,0.1l0.1,0c1.6,1.1,3,1.8,6.2,1.8c7.3,0,12.5-6.2,12.5-12.3s-5.2-12.2-12.5-12.2c-7.3,0-12.5,6.1-12.5,12.2
			L-50.2-198.5z"/>
	</g>
</g>
</svg>
