<?xml version="1.0" encoding="utf-8"?>
<!-- Generator: Adobe Illustrator 21.1.0, SVG Export Plug-In . SVG Version: 6.00 Build 0)  -->
<svg version="1.1" id="ptv-logo-horz" xmlns="http://www.w3.org/2000/svg" xmlns:xlink="http://www.w3.org/1999/xlink" x="0px"
	 y="0px" viewBox="0 0 540 115" style="enable-background:new 0 0 540 115;" xml:space="preserve">
<style type="text/css">
	.st0{fill:#3A3A3A;}
	.st1{fill-rule:evenodd;clip-rule:evenodd;fill:#3A3A3A;}
	.st2{fill-rule:evenodd;clip-rule:evenodd;fill:#485E88;}
</style>
<g id="tagline">
	<rect x="180.4" y="91.16" class="st0" width="2.03" height="15.03"/>
	<path class="st0" d="M194.12,100.12c0,0.11,0.04,0.21,0.12,0.28c0.08,0.08,0.19,0.12,0.32,0.12h2.33v3.31
		c-0.27,0.14-0.53,0.26-0.8,0.37c-0.27,0.11-0.55,0.2-0.85,0.28c-0.3,0.08-0.62,0.13-0.96,0.17c-0.34,0.04-0.71,0.06-1.12,0.06
		c-0.81,0-1.55-0.14-2.22-0.41c-0.67-0.27-1.25-0.67-1.74-1.18c-0.49-0.52-0.87-1.15-1.14-1.89c-0.27-0.74-0.4-1.59-0.4-2.54
		c0-0.91,0.13-1.73,0.39-2.46c0.26-0.73,0.63-1.35,1.11-1.87c0.48-0.51,1.07-0.91,1.75-1.18c0.69-0.28,1.45-0.41,2.3-0.41
		c0.58,0,1.08,0.05,1.5,0.14c0.42,0.09,0.79,0.2,1.1,0.33c0.31,0.13,0.58,0.26,0.79,0.4c0.22,0.14,0.41,0.26,0.59,0.36
		c0.13,0.08,0.26,0.12,0.37,0.12c0.19,0,0.34-0.09,0.46-0.28l0.58-0.92c-0.32-0.29-0.67-0.56-1.04-0.79
		c-0.37-0.23-0.77-0.43-1.21-0.6c-0.44-0.16-0.91-0.29-1.42-0.38c-0.51-0.09-1.06-0.13-1.66-0.13c-1.17,0-2.24,0.19-3.18,0.56
		c-0.95,0.37-1.76,0.89-2.42,1.57c-0.67,0.67-1.18,1.48-1.54,2.43c-0.36,0.94-0.54,1.99-0.54,3.14c0,1.13,0.18,2.17,0.55,3.11
		c0.37,0.94,0.88,1.75,1.54,2.43c0.66,0.68,1.44,1.2,2.35,1.57c0.91,0.37,1.91,0.56,3,0.56c0.62,0,1.2-0.03,1.73-0.1
		c0.53-0.07,1.03-0.17,1.49-0.3c0.46-0.14,0.9-0.31,1.31-0.51c0.41-0.2,0.8-0.44,1.18-0.71v-5.77h-4.61V100.12z"/>
	<path class="st0" d="M212.26,101.81c0,0.16,0,0.33,0.01,0.5c0.01,0.17,0.02,0.35,0.04,0.53l-8.7-11.33
		c-0.11-0.14-0.21-0.23-0.3-0.28s-0.22-0.07-0.4-0.07h-1.05v15.03h1.78V95.49c0-0.14,0-0.29-0.01-0.46
		c-0.01-0.17-0.02-0.34-0.03-0.51l8.69,11.32c0.11,0.13,0.21,0.23,0.32,0.28c0.11,0.06,0.24,0.08,0.4,0.08h1.03V91.16h-1.78V101.81z
		"/>
	<rect x="218.09" y="91.16" class="st0" width="2.03" height="15.03"/>
	<polygon class="st0" points="222.62,92.87 227.5,92.87 227.5,106.19 229.54,106.19 229.54,92.87 234.39,92.87 234.39,91.16 
		222.62,91.16 	"/>
	<rect x="236.91" y="91.16" class="st0" width="2.03" height="15.03"/>
	<path class="st0" d="M253.37,101.81c0,0.16,0,0.33,0.01,0.5c0.01,0.17,0.02,0.35,0.04,0.53l-8.7-11.33
		c-0.11-0.14-0.21-0.23-0.3-0.28s-0.22-0.07-0.4-0.07h-1.05v15.03h1.78V95.49c0-0.14,0-0.29-0.01-0.46
		c-0.01-0.17-0.02-0.34-0.03-0.51l8.69,11.32c0.11,0.13,0.21,0.23,0.32,0.28c0.11,0.06,0.24,0.08,0.4,0.08h1.03V91.16h-1.78V101.81z
		"/>
	<path class="st0" d="M266.48,100.12c0,0.11,0.04,0.21,0.12,0.28c0.08,0.08,0.19,0.12,0.32,0.12h2.33v3.31
		c-0.27,0.14-0.53,0.26-0.8,0.37c-0.27,0.11-0.55,0.2-0.85,0.28c-0.3,0.08-0.62,0.13-0.96,0.17c-0.34,0.04-0.71,0.06-1.12,0.06
		c-0.81,0-1.55-0.14-2.22-0.41c-0.67-0.27-1.25-0.67-1.74-1.18c-0.49-0.52-0.87-1.15-1.14-1.89c-0.27-0.74-0.4-1.59-0.4-2.54
		c0-0.91,0.13-1.73,0.39-2.46c0.26-0.73,0.63-1.35,1.11-1.87c0.48-0.51,1.07-0.91,1.75-1.18c0.69-0.28,1.45-0.41,2.3-0.41
		c0.58,0,1.08,0.05,1.5,0.14c0.42,0.09,0.79,0.2,1.1,0.33c0.31,0.13,0.58,0.26,0.79,0.4c0.22,0.14,0.41,0.26,0.59,0.36
		c0.13,0.08,0.26,0.12,0.37,0.12c0.19,0,0.34-0.09,0.46-0.28l0.58-0.92c-0.32-0.29-0.67-0.56-1.04-0.79s-0.77-0.43-1.21-0.6
		c-0.44-0.16-0.91-0.29-1.42-0.38c-0.51-0.09-1.06-0.13-1.66-0.13c-1.17,0-2.24,0.19-3.18,0.56c-0.95,0.37-1.76,0.89-2.42,1.57
		c-0.67,0.67-1.18,1.48-1.54,2.43c-0.36,0.94-0.54,1.99-0.54,3.14c0,1.13,0.18,2.17,0.55,3.11c0.37,0.94,0.88,1.75,1.54,2.43
		c0.66,0.68,1.44,1.2,2.35,1.57c0.91,0.37,1.91,0.56,3,0.56c0.62,0,1.2-0.03,1.73-0.1c0.53-0.07,1.03-0.17,1.49-0.3
		c0.46-0.14,0.9-0.31,1.31-0.51c0.41-0.2,0.8-0.44,1.18-0.71v-5.77h-4.61V100.12z"/>
	<path class="st0" d="M288.54,91.32c-0.12,0.1-0.2,0.21-0.25,0.33l-4.23,10.6c-0.1,0.24-0.18,0.5-0.26,0.78
		c-0.07,0.28-0.14,0.57-0.2,0.87c-0.08-0.3-0.16-0.59-0.24-0.87c-0.08-0.28-0.17-0.54-0.27-0.78l-4.25-10.6
		c-0.06-0.14-0.14-0.26-0.25-0.35c-0.11-0.09-0.26-0.14-0.44-0.14h-1.63l6.13,15.03h1.84l6.12-15.03h-1.64
		C288.8,91.16,288.66,91.22,288.54,91.32z"/>
	<rect x="292.91" y="91.16" class="st0" width="2.03" height="15.03"/>
	<path class="st0" d="M309.95,93.24c-0.65-0.66-1.43-1.17-2.34-1.53c-0.91-0.36-1.92-0.54-3.02-0.54h-5.62v15.03h5.62
		c1.11,0,2.11-0.18,3.02-0.54c0.91-0.36,1.69-0.87,2.34-1.53c0.65-0.66,1.15-1.45,1.51-2.37c0.36-0.92,0.54-1.95,0.54-3.07
		c0-1.13-0.18-2.15-0.54-3.07C311.11,94.69,310.6,93.9,309.95,93.24z M309.53,101.16c-0.25,0.73-0.61,1.34-1.07,1.84
		c-0.46,0.5-1.02,0.88-1.68,1.15c-0.66,0.27-1.39,0.4-2.19,0.4h-3.58V92.81h3.58c0.8,0,1.53,0.13,2.19,0.4
		c0.66,0.27,1.22,0.65,1.68,1.15c0.46,0.5,0.82,1.12,1.07,1.85c0.25,0.73,0.38,1.55,0.38,2.48S309.78,100.43,309.53,101.16z"/>
	<polygon class="st0" points="314.77,106.19 324.03,106.19 324.03,104.54 316.81,104.54 316.81,99.41 322.65,99.41 322.65,97.81 
		316.81,97.81 316.81,92.82 324.03,92.82 324.03,91.16 314.77,91.16 	"/>
	<path class="st0" d="M338.87,93.15c-0.65-0.68-1.43-1.21-2.34-1.59c-0.91-0.38-1.92-0.57-3.03-0.57c-1.1,0-2.11,0.19-3.02,0.57
		c-0.91,0.38-1.69,0.91-2.34,1.59c-0.65,0.68-1.15,1.49-1.51,2.43c-0.36,0.94-0.54,1.97-0.54,3.1c0,1.13,0.18,2.16,0.54,3.1
		c0.36,0.94,0.86,1.75,1.51,2.43c0.65,0.68,1.43,1.2,2.34,1.58s1.92,0.56,3.02,0.56c1.11,0,2.11-0.19,3.03-0.56s1.69-0.9,2.34-1.58
		c0.65-0.68,1.15-1.49,1.51-2.43c0.36-0.94,0.53-1.97,0.53-3.1c0-1.13-0.18-2.16-0.53-3.1C340.02,94.64,339.52,93.83,338.87,93.15z
		 M338.45,101.16c-0.25,0.73-0.61,1.35-1.07,1.86c-0.46,0.51-1.02,0.9-1.68,1.16c-0.66,0.27-1.39,0.4-2.2,0.4
		c-0.8,0-1.53-0.13-2.19-0.4c-0.66-0.27-1.22-0.66-1.68-1.16c-0.46-0.51-0.82-1.12-1.07-1.86c-0.25-0.73-0.38-1.56-0.38-2.48
		s0.13-1.75,0.38-2.48c0.25-0.73,0.61-1.36,1.07-1.86c0.47-0.51,1.03-0.9,1.68-1.17c0.66-0.27,1.39-0.41,2.19-0.41
		c0.81,0,1.55,0.14,2.2,0.41c0.66,0.27,1.22,0.66,1.68,1.17c0.46,0.51,0.82,1.13,1.07,1.86c0.25,0.73,0.38,1.56,0.38,2.48
		S338.7,100.43,338.45,101.16z"/>
	<path class="st0" d="M358.33,103.09c-0.11,0-0.23,0.05-0.35,0.16c-0.27,0.24-0.53,0.44-0.79,0.61c-0.26,0.17-0.55,0.31-0.85,0.42
		c-0.3,0.11-0.64,0.19-0.99,0.25c-0.36,0.05-0.76,0.08-1.21,0.08c-0.73,0-1.42-0.13-2.06-0.4c-0.64-0.27-1.19-0.65-1.65-1.16
		c-0.46-0.51-0.83-1.13-1.1-1.86c-0.27-0.73-0.4-1.57-0.4-2.51c0-0.91,0.13-1.73,0.4-2.46c0.27-0.73,0.65-1.36,1.13-1.87
		c0.48-0.51,1.06-0.9,1.73-1.18c0.67-0.28,1.4-0.41,2.21-0.41c0.45,0,0.84,0.03,1.19,0.1c0.34,0.07,0.64,0.15,0.9,0.25
		c0.26,0.1,0.48,0.2,0.67,0.31c0.19,0.11,0.35,0.22,0.49,0.31c0.14,0.1,0.26,0.18,0.36,0.25c0.1,0.07,0.2,0.1,0.29,0.1
		c0.12,0,0.21-0.02,0.27-0.07c0.06-0.05,0.12-0.1,0.17-0.17l0.66-0.93c-0.62-0.59-1.33-1.05-2.13-1.39
		c-0.8-0.34-1.75-0.51-2.86-0.51c-1.12,0-2.14,0.19-3.07,0.56c-0.93,0.37-1.72,0.9-2.39,1.58c-0.66,0.68-1.18,1.49-1.55,2.43
		c-0.37,0.94-0.55,1.98-0.55,3.11s0.17,2.17,0.51,3.11c0.34,0.94,0.82,1.75,1.45,2.43c0.62,0.68,1.37,1.2,2.26,1.57
		c0.88,0.37,1.86,0.56,2.95,0.56c1.24,0,2.3-0.2,3.17-0.6c0.88-0.4,1.62-0.95,2.24-1.67l-0.8-0.87
		C358.54,103.13,358.44,103.09,358.33,103.09z"/>
	<path class="st0" d="M374.02,93.15c-0.65-0.68-1.43-1.21-2.34-1.59c-0.91-0.38-1.92-0.57-3.03-0.57c-1.11,0-2.11,0.19-3.02,0.57
		c-0.91,0.38-1.69,0.91-2.34,1.59c-0.65,0.68-1.15,1.49-1.51,2.43c-0.36,0.94-0.53,1.97-0.53,3.1c0,1.13,0.18,2.16,0.53,3.1
		c0.36,0.94,0.86,1.75,1.51,2.43c0.65,0.68,1.43,1.2,2.34,1.58s1.92,0.56,3.02,0.56c1.1,0,2.11-0.19,3.03-0.56s1.69-0.9,2.34-1.58
		c0.65-0.68,1.15-1.49,1.51-2.43s0.54-1.97,0.54-3.1c0-1.13-0.18-2.16-0.54-3.1S374.67,93.83,374.02,93.15z M373.6,101.16
		c-0.25,0.73-0.61,1.35-1.07,1.86c-0.46,0.51-1.02,0.9-1.68,1.16c-0.66,0.27-1.39,0.4-2.2,0.4c-0.8,0-1.53-0.13-2.19-0.4
		c-0.66-0.27-1.22-0.66-1.68-1.16c-0.47-0.51-0.82-1.12-1.08-1.86c-0.25-0.73-0.38-1.56-0.38-2.48s0.13-1.75,0.38-2.48
		c0.25-0.73,0.61-1.36,1.08-1.86c0.46-0.51,1.03-0.9,1.68-1.17c0.66-0.27,1.39-0.41,2.19-0.41c0.81,0,1.54,0.14,2.2,0.41
		c0.66,0.27,1.22,0.66,1.68,1.17c0.46,0.51,0.82,1.13,1.07,1.86c0.25,0.73,0.38,1.56,0.38,2.48S373.85,100.43,373.6,101.16z"/>
	<path class="st0" d="M392.56,91.22c-0.1,0.03-0.19,0.13-0.28,0.29l-5.09,9.24c-0.1,0.18-0.19,0.36-0.26,0.54
		c-0.08,0.18-0.15,0.36-0.22,0.56c-0.07-0.19-0.14-0.38-0.22-0.56s-0.16-0.36-0.26-0.53l-5.19-9.25c-0.09-0.16-0.19-0.26-0.28-0.29
		c-0.1-0.03-0.24-0.05-0.42-0.05h-1.5v15.03h1.78V95.15c0-0.15-0.01-0.31-0.02-0.48c-0.01-0.17-0.03-0.35-0.05-0.54l5.27,9.43
		c0.18,0.31,0.42,0.47,0.73,0.47h0.29c0.31,0,0.56-0.16,0.73-0.47l5.15-9.4c-0.01,0.18-0.02,0.35-0.03,0.51
		c-0.01,0.17-0.01,0.33-0.01,0.47v11.04h1.78V91.16h-1.5C392.8,91.16,392.66,91.18,392.56,91.22z"/>
	<path class="st0" d="M411.86,91.22c-0.1,0.03-0.19,0.13-0.28,0.29l-5.09,9.24c-0.1,0.18-0.19,0.36-0.26,0.54
		c-0.08,0.18-0.15,0.36-0.22,0.56c-0.07-0.19-0.14-0.38-0.22-0.56s-0.16-0.36-0.26-0.53l-5.19-9.25c-0.09-0.16-0.19-0.26-0.28-0.29
		c-0.1-0.03-0.24-0.05-0.42-0.05h-1.5v15.03h1.78V95.15c0-0.15-0.01-0.31-0.02-0.48c-0.01-0.17-0.03-0.35-0.05-0.54l5.27,9.43
		c0.18,0.31,0.42,0.47,0.73,0.47h0.29c0.31,0,0.56-0.16,0.73-0.47l5.15-9.4c-0.01,0.18-0.02,0.35-0.03,0.51
		c-0.01,0.17-0.01,0.33-0.01,0.47v11.04h1.78V91.16h-1.5C412.1,91.16,411.96,91.18,411.86,91.22z"/>
	<polygon class="st0" points="417.44,106.19 426.7,106.19 426.7,104.54 419.48,104.54 419.48,99.41 425.32,99.41 425.32,97.81 
		419.48,97.81 419.48,92.82 426.7,92.82 426.7,91.16 417.44,91.16 	"/>
	<path class="st0" d="M435.88,99.59c0.58-0.13,1.1-0.33,1.56-0.59s0.85-0.57,1.16-0.94c0.32-0.37,0.56-0.78,0.73-1.24
		c0.17-0.46,0.25-0.96,0.25-1.49c0-0.64-0.11-1.21-0.32-1.72c-0.22-0.51-0.55-0.95-1-1.32c-0.45-0.36-1.02-0.64-1.72-0.83
		c-0.69-0.19-1.51-0.29-2.46-0.29h-4.25v15.03h2.02v-6.27h1.54c0.28,0,0.49,0.04,0.63,0.11c0.14,0.07,0.27,0.19,0.39,0.36l3.9,5.37
		c0.17,0.29,0.45,0.43,0.82,0.43h1.8l-4.38-5.97C436.36,99.95,436.14,99.73,435.88,99.59z M433.99,98.44h-2.13v-5.67h2.22
		c1.17,0,2.05,0.23,2.64,0.68c0.59,0.45,0.89,1.13,0.89,2.02c0,0.44-0.08,0.84-0.23,1.21c-0.15,0.36-0.38,0.68-0.69,0.94
		s-0.68,0.46-1.13,0.61C435.1,98.37,434.58,98.44,433.99,98.44z"/>
	<path class="st0" d="M453.24,103.09c-0.11,0-0.23,0.05-0.35,0.16c-0.27,0.24-0.53,0.44-0.79,0.61c-0.26,0.17-0.55,0.31-0.85,0.42
		c-0.3,0.11-0.63,0.19-0.99,0.25c-0.36,0.05-0.76,0.08-1.21,0.08c-0.73,0-1.42-0.13-2.05-0.4c-0.64-0.27-1.19-0.65-1.65-1.16
		c-0.47-0.51-0.83-1.13-1.1-1.86c-0.27-0.73-0.4-1.57-0.4-2.51c0-0.91,0.13-1.73,0.4-2.46c0.27-0.73,0.65-1.36,1.13-1.87
		c0.48-0.51,1.06-0.9,1.73-1.18c0.67-0.28,1.4-0.41,2.21-0.41c0.45,0,0.84,0.03,1.19,0.1c0.34,0.07,0.64,0.15,0.9,0.25
		c0.26,0.1,0.48,0.2,0.67,0.31c0.19,0.11,0.35,0.22,0.49,0.31c0.14,0.1,0.26,0.18,0.36,0.25c0.1,0.07,0.2,0.1,0.29,0.1
		c0.12,0,0.21-0.02,0.27-0.07c0.06-0.05,0.12-0.1,0.17-0.17l0.66-0.93c-0.62-0.59-1.33-1.05-2.13-1.39
		c-0.8-0.34-1.75-0.51-2.86-0.51c-1.12,0-2.14,0.19-3.07,0.56c-0.93,0.37-1.72,0.9-2.39,1.58c-0.66,0.68-1.18,1.49-1.55,2.43
		c-0.37,0.94-0.55,1.98-0.55,3.11s0.17,2.17,0.51,3.11c0.34,0.94,0.82,1.75,1.45,2.43c0.62,0.68,1.37,1.2,2.26,1.57
		c0.88,0.37,1.86,0.56,2.95,0.56c1.24,0,2.3-0.2,3.17-0.6c0.88-0.4,1.62-0.95,2.24-1.67l-0.8-0.87
		C453.45,103.13,453.35,103.09,453.24,103.09z"/>
	<polygon class="st0" points="466.28,92.82 466.28,91.16 457.02,91.16 457.02,106.19 466.28,106.19 466.28,104.54 459.06,104.54 
		459.06,99.41 464.9,99.41 464.9,97.81 459.06,97.81 459.06,92.82 	"/>
</g>
<path id="promethean" class="st1" d="M106.68,77.39h10.52V65.22h19.1c4.94,0,7.4-2.6,7.4-7.8v-7.7c0-5.26-2.47-7.89-7.4-7.89h-29.61
	V77.39L106.68,77.39z M131.65,48.68c0.59,0,0.99,0.05,1.2,0.14c0.22,0.1,0.32,0.3,0.32,0.62v8.08c0,0.38-0.11,0.62-0.32,0.71
	c-0.22,0.1-0.62,0.14-1.2,0.14H117.2v-9.7H131.65L131.65,48.68z M151.56,77.39l10.52,0.09V62.56h8.87l7.23,14.83h11.99l-7.76-15.02
	c1.72-0.19,3-0.67,3.82-1.43c0.78-0.51,1.38-1.3,1.79-2.38c0.41-1.08,0.62-2.35,0.62-3.8v-5.04c0-5.26-2.47-7.89-7.4-7.89h-29.67
	V77.39L151.56,77.39z M176.53,48.68c0.59,0,0.99,0.05,1.2,0.14c0.22,0.1,0.32,0.3,0.32,0.62v5.42c0,0.32-0.11,0.54-0.32,0.67
	c-0.22,0.13-0.62,0.19-1.2,0.19h-14.45v-7.04H176.53L176.53,48.68z M204.14,77.39h23.62c4.94,0,7.4-2.57,7.4-7.7V49.72
	c0-5.26-2.47-7.89-7.4-7.89h-23.62c-4.94,0-7.4,2.63-7.4,7.89v19.97C196.74,74.83,199.21,77.39,204.14,77.39L204.14,77.39z
	 M207.31,69.69V49.44c0-0.32,0.11-0.52,0.32-0.62c0.22-0.09,0.6-0.14,1.15-0.14h14.34c0.55,0,0.93,0.05,1.15,0.14
	c0.22,0.1,0.32,0.3,0.32,0.62v20.26c0,0.38-0.11,0.63-0.32,0.76c-0.22,0.13-0.6,0.19-1.15,0.19h-14.34c-0.55,0-0.93-0.06-1.15-0.19
	C207.42,70.33,207.31,70.07,207.31,69.69L207.31,69.69z M242.33,77.39h6.29V53.33l11.63,24.06h7.81l11.81-23.96v23.96h10.69V41.83
	h-12.46l-11.52,23.49l-11.52-23.49h-12.75V77.39L242.33,77.39z M299.43,77.39h31.08v-6.85h-20.74v-7.89h20.68v-6.94h-20.68v-7.04
	h20.68v-6.85h-31.02V77.39L299.43,77.39z M347.37,77.39h10.46V48.68h11.69v-6.85h-33.9v6.85h11.69L347.37,77.39L347.37,77.39z
	 M375.03,77.39h10.52V62.75h15.98v14.64h10.58V41.83h-10.58v13.98h-15.98V41.83h-10.52V77.39L375.03,77.39z M420.92,77.39H452v-6.85
	h-20.74v-7.89h20.68v-6.94h-20.68v-7.04h20.68v-6.85h-31.02V77.39L420.92,77.39z M454.87,77.39h7.17l5.35-9.7h16.75l4.94,9.7h12.34
	l-18.21-35.57h-8.7L454.87,77.39L454.87,77.39z M476.08,52l4.76,9.22h-9.93L476.08,52L476.08,52z M504.63,77.39h5.99V51.91
	l17.27,25.49H540V41.73h-6.29v25.49l-18.74-25.39h-10.34V77.39z"/>
<g id="icon">
	<path class="st2" d="M8.39,78.33C5.34,75.47,0.58,69,2.16,57.24c0,0-7.53,18.9,5.55,35.36c-1-6-0.2-10.66-0.2-10.66
		C7.71,80.66,8.02,79.47,8.39,78.33z"/>
	<path class="st2" d="M48.86,20.82c0,0,11.36,19.17,1.26,34.34c0,0-3.4,7.44-19.91,11.5c0,0-15.99,3.49-18.41,19.12
		c0,0-2.55,13.33,8,21.26c-0.95-2.42-1.48-5.06-1.48-7.83c0-9.28,5.87-17.14,14-19.87c1.8-0.6,3.61-1.11,5.59-1.6
		C53,74.43,58.95,66.35,58.95,66.35C76.12,42.41,48.86,20.82,48.86,20.82z"/>
	<path class="st2" d="M28.14,61.19C5.9,43.37,18.01,18.61,18.01,18.61s-19.02,29.01-7.88,55.56C15.69,65.64,25.18,62.12,28.14,61.19
		z"/>
	<path class="st2" d="M32.75,59.68c10.29-3.72,13.07-8.36,13.07-8.36c0.72-1.08,1.32-2.19,1.83-3.3
		c-3.55-2.53-10.41-9.09-10.41-22.01c0,0,1.51-21.86,20.95-26.02c0,0-31.77,3.64-36.1,29.4C22.1,29.4,18.71,47.39,32.75,59.68z"/>
	<path class="st2" d="M47.68,80.54c6.63,3.44,11.19,10.5,11.19,18.67c0,2.38-0.41,4.66-1.11,6.79c7.45-4.48,21.93-16.82,8-39.74
		C59.48,75.99,51.7,79.39,47.68,80.54z"/>
	<path class="st2" d="M52.9,13.53C79.4,40.85,68.04,60.89,68.04,60.89c9.09,7.02,8.58,20.55,8.58,20.55
		C98.84,31.48,52.9,13.53,52.9,13.53z"/>
	<path class="st2" d="M38.59,83.88c-8.6,0-15.57,6.86-15.57,15.32c0,8.46,6.97,15.32,15.57,15.32c8.6,0,15.57-6.86,15.57-15.32
		C54.16,90.74,47.19,83.88,38.59,83.88z M46.69,100.11l-13.81,6.95c-0.52,0.26-1.11-0.1-1.11-0.67l0.19-13.61
		c0.01-0.57,0.62-0.94,1.13-0.7l13.63,6.58C47.31,98.95,47.29,99.8,46.69,100.11z"/>
</g>
</svg>
