<?xml version="1.0" encoding="utf-8"?>
<!-- Generator: Adobe Illustrator 21.1.0, SVG Export Plug-In . SVG Version: 6.00 Build 0)  -->
<!DOCTYPE svg PUBLIC "-//W3C//DTD SVG 1.1//EN" "http://www.w3.org/Graphics/SVG/1.1/DTD/svg11.dtd" [
	<!ENTITY ns_extend "http://ns.adobe.com/Extensibility/1.0/">
	<!ENTITY ns_ai "http://ns.adobe.com/AdobeIllustrator/10.0/">
	<!ENTITY ns_graphs "http://ns.adobe.com/Graphs/1.0/">
	<!ENTITY ns_vars "http://ns.adobe.com/Variables/1.0/">
	<!ENTITY ns_imrep "http://ns.adobe.com/ImageReplacement/1.0/">
	<!ENTITY ns_sfw "http://ns.adobe.com/SaveForWeb/1.0/">
	<!ENTITY ns_custom "http://ns.adobe.com/GenericCustomNamespace/1.0/">
	<!ENTITY ns_adobe_xpath "http://ns.adobe.com/XPath/1.0/">
]>
<svg version="1.1" id="ptv-logo-horz" xmlns:x="&ns_extend;" xmlns:i="&ns_ai;" xmlns:graph="&ns_graphs;"
	 xmlns="http://www.w3.org/2000/svg" xmlns:xlink="http://www.w3.org/1999/xlink" x="0px" y="0px" width="300px" height="63.6px"
	 viewBox="0 0 300 63.6" style="enable-background:new 0 0 300 63.6;" xml:space="preserve">
<style type="text/css">
	.st0{fill:#3A3A3A;}
	.st1{fill:#485E88;}
</style>
<metadata>
	<sfw  xmlns="&ns_sfw;">
		<slices></slices>
		<sliceSourceBounds  bottomLeftOrigin="true" height="63.6" width="300" x="120" y="25.9"></sliceSourceBounds>
	</sfw>
</metadata>
<g id="tagline">
	<rect x="100.2" y="50.7" class="st0" width="1.1" height="8.4"/>
	<path class="st0" d="M107.8,55.6c0,0.1,0,0.1,0.1,0.2c0,0,0.1,0.1,0.2,0.1h1.3v1.8c-0.2,0.1-0.3,0.1-0.4,0.2
		c-0.2,0.1-0.3,0.1-0.5,0.2c-0.2,0-0.3,0.1-0.5,0.1c-0.2,0-0.4,0-0.6,0c-0.4,0-0.9-0.1-1.2-0.2c-0.4-0.1-0.7-0.4-1-0.7
		c-0.3-0.3-0.5-0.6-0.6-1.1c-0.2-0.4-0.2-0.9-0.2-1.4c0-0.5,0.1-1,0.2-1.4c0.1-0.4,0.4-0.8,0.6-1c0.3-0.3,0.6-0.5,1-0.7
		c0.4-0.2,0.8-0.2,1.3-0.2c0.3,0,0.6,0,0.8,0.1c0.2,0,0.4,0.1,0.6,0.2s0.3,0.1,0.4,0.2c0.1,0.1,0.2,0.1,0.3,0.2
		c0.1,0,0.1,0.1,0.2,0.1c0.1,0,0.2,0,0.3-0.2l0.3-0.5c-0.2-0.2-0.4-0.3-0.6-0.4c-0.2-0.1-0.4-0.2-0.7-0.3c-0.2-0.1-0.5-0.2-0.8-0.2
		s-0.6-0.1-0.9-0.1c-0.7,0-1.2,0.1-1.8,0.3c-0.5,0.2-1,0.5-1.3,0.9c-0.4,0.4-0.7,0.8-0.9,1.4c-0.2,0.5-0.3,1.1-0.3,1.7
		c0,0.6,0.1,1.2,0.3,1.7s0.5,1,0.9,1.4c0.4,0.4,0.8,0.7,1.3,0.9s1.1,0.3,1.7,0.3c0.3,0,0.7,0,1-0.1c0.3,0,0.6-0.1,0.8-0.2
		c0.3-0.1,0.5-0.2,0.7-0.3c0.2-0.1,0.4-0.2,0.7-0.4V55h-2.6L107.8,55.6L107.8,55.6z"/>
	<path class="st0" d="M117.9,56.6c0,0.1,0,0.2,0,0.3c0,0.1,0,0.2,0,0.3l-4.8-6.3c-0.1-0.1-0.1-0.1-0.2-0.2c-0.1,0-0.1,0-0.2,0h-0.6
		V59h1v-5.9c0-0.1,0-0.2,0-0.3s0-0.2,0-0.3l4.8,6.3c0.1,0.1,0.1,0.1,0.2,0.2c0.1,0,0.1,0,0.2,0h0.6v-8.4h-1V56.6z"/>
	<rect x="121.2" y="50.7" class="st0" width="1.1" height="8.4"/>
	<polygon class="st0" points="123.7,51.6 126.4,51.6 126.4,59 127.5,59 127.5,51.6 130.2,51.6 130.2,50.7 123.7,50.7 	"/>
	<rect x="131.6" y="50.7" class="st0" width="1.1" height="8.4"/>
	<path class="st0" d="M140.8,56.6c0,0.1,0,0.2,0,0.3s0,0.2,0,0.3l-4.8-6.3c-0.1-0.1-0.1-0.1-0.2-0.2s-0.1,0-0.2,0H135V59h1v-5.9
		c0-0.1,0-0.2,0-0.3s0-0.2,0-0.3l4.8,6.3c0.1,0.1,0.1,0.1,0.2,0.2c0.1,0,0.1,0,0.2,0h0.6v-8.4h-1V56.6z"/>
	<path class="st0" d="M148,55.6c0,0.1,0,0.1,0.1,0.2c0,0,0.1,0.1,0.2,0.1h1.3v1.8c-0.1,0.1-0.3,0.1-0.4,0.2s-0.3,0.1-0.5,0.2
		c-0.2,0-0.3,0.1-0.5,0.1c-0.2,0-0.4,0-0.6,0c-0.4,0-0.9-0.1-1.2-0.2c-0.4-0.1-0.7-0.4-1-0.7c-0.3-0.3-0.5-0.6-0.6-1.1
		c-0.1-0.4-0.2-0.9-0.2-1.4c0-0.5,0.1-1,0.2-1.4c0.1-0.4,0.4-0.8,0.6-1c0.3-0.3,0.6-0.5,1-0.7c0.4-0.2,0.8-0.2,1.3-0.2
		c0.3,0,0.6,0,0.8,0.1s0.4,0.1,0.6,0.2c0.2,0.1,0.3,0.1,0.4,0.2c0.1,0.1,0.2,0.1,0.3,0.2c0.1,0,0.1,0.1,0.2,0.1c0.1,0,0.2,0,0.3-0.2
		l0.3-0.5c-0.2-0.2-0.4-0.3-0.6-0.4s-0.4-0.2-0.7-0.3c-0.2-0.1-0.5-0.2-0.8-0.2s-0.6-0.1-0.9-0.1c-0.7,0-1.2,0.1-1.8,0.3
		c-0.5,0.2-1,0.5-1.3,0.9c-0.4,0.4-0.7,0.8-0.9,1.4c-0.2,0.5-0.3,1.1-0.3,1.7c0,0.6,0.1,1.2,0.3,1.7c0.2,0.5,0.5,1,0.9,1.4
		c0.4,0.4,0.8,0.7,1.3,0.9c0.5,0.2,1.1,0.3,1.7,0.3c0.3,0,0.7,0,1-0.1c0.3,0,0.6-0.1,0.8-0.2c0.3-0.1,0.5-0.2,0.7-0.3
		c0.2-0.1,0.4-0.2,0.7-0.4V55H148L148,55.6L148,55.6z"/>
	<path class="st0" d="M160.3,50.7c-0.1,0.1-0.1,0.1-0.1,0.2l-2.4,5.9c-0.1,0.1-0.1,0.3-0.1,0.4c0,0.2-0.1,0.3-0.1,0.5
		c0-0.2-0.1-0.3-0.1-0.5c0-0.2-0.1-0.3-0.1-0.4l-2.4-5.9c0-0.1-0.1-0.1-0.1-0.2c-0.1,0-0.1-0.1-0.2-0.1h-0.9L157,59h1l3.4-8.4h-0.9
		C160.4,50.7,160.4,50.7,160.3,50.7z"/>
	<rect x="162.7" y="50.7" class="st0" width="1.1" height="8.4"/>
	<path class="st0" d="M172.2,51.8c-0.4-0.4-0.8-0.7-1.3-0.9c-0.5-0.2-1.1-0.3-1.7-0.3h-3.1V59h3.1c0.6,0,1.2-0.1,1.7-0.3
		c0.5-0.2,0.9-0.5,1.3-0.9s0.6-0.8,0.8-1.3c0.2-0.5,0.3-1.1,0.3-1.7c0-0.6-0.1-1.2-0.3-1.7C172.8,52.6,172.6,52.2,172.2,51.8z
		 M172,56.2c-0.1,0.4-0.3,0.7-0.6,1c-0.3,0.3-0.6,0.5-0.9,0.6c-0.4,0.2-0.8,0.2-1.2,0.2h-2v-6.5h2c0.4,0,0.8,0.1,1.2,0.2
		c0.4,0.2,0.7,0.4,0.9,0.6c0.3,0.3,0.5,0.6,0.6,1c0.1,0.4,0.2,0.9,0.2,1.4S172.1,55.8,172,56.2z"/>
	<polygon class="st0" points="174.9,59 180,59 180,58.1 176,58.1 176,55.2 179.2,55.2 179.2,54.3 176,54.3 176,51.6 180,51.6 
		180,50.7 174.9,50.7 	"/>
	<path class="st0" d="M188.3,51.8c-0.4-0.4-0.8-0.7-1.3-0.9c-0.5-0.2-1.1-0.3-1.7-0.3c-0.6,0-1.2,0.1-1.7,0.3
		c-0.5,0.2-0.9,0.5-1.3,0.9c-0.4,0.4-0.6,0.8-0.8,1.4c-0.2,0.5-0.3,1.1-0.3,1.7s0.1,1.2,0.3,1.7c0.2,0.5,0.5,1,0.8,1.4
		c0.4,0.4,0.8,0.7,1.3,0.9c0.5,0.2,1.1,0.3,1.7,0.3c0.6,0,1.2-0.1,1.7-0.3c0.5-0.2,0.9-0.5,1.3-0.9c0.4-0.4,0.6-0.8,0.8-1.4
		c0.2-0.5,0.3-1.1,0.3-1.7s-0.1-1.2-0.3-1.7C188.9,52.6,188.6,52.1,188.3,51.8z M188,56.2c-0.1,0.4-0.3,0.8-0.6,1s-0.6,0.5-0.9,0.6
		c-0.4,0.2-0.8,0.2-1.2,0.2c-0.4,0-0.9-0.1-1.2-0.2c-0.4-0.1-0.7-0.4-0.9-0.6c-0.3-0.3-0.5-0.6-0.6-1c-0.1-0.4-0.2-0.9-0.2-1.4
		s0.1-1,0.2-1.4s0.3-0.8,0.6-1c0.3-0.3,0.6-0.5,0.9-0.7c0.4-0.1,0.8-0.2,1.2-0.2c0.4,0,0.9,0.1,1.2,0.2c0.4,0.1,0.7,0.4,0.9,0.7
		c0.3,0.3,0.5,0.6,0.6,1c0.1,0.4,0.2,0.9,0.2,1.4S188.2,55.8,188,56.2z"/>
	<path class="st0" d="M199.1,57.3c-0.1,0-0.1,0-0.2,0.1c-0.1,0.1-0.3,0.2-0.4,0.3c-0.1,0.1-0.3,0.2-0.5,0.2s-0.4,0.1-0.6,0.1
		c-0.2,0-0.4,0-0.7,0c-0.4,0-0.8-0.1-1.1-0.2c-0.4-0.1-0.7-0.4-0.9-0.6c-0.3-0.3-0.5-0.6-0.6-1c-0.1-0.4-0.2-0.9-0.2-1.4
		c0-0.5,0.1-1,0.2-1.4c0.1-0.4,0.4-0.8,0.6-1s0.6-0.5,1-0.7c0.4-0.2,0.8-0.2,1.2-0.2c0.3,0,0.5,0,0.7,0.1c0.2,0,0.4,0.1,0.5,0.1
		c0.1,0.1,0.3,0.1,0.4,0.2c0.1,0.1,0.2,0.1,0.3,0.2c0.1,0.1,0.1,0.1,0.2,0.1c0.1,0,0.1,0.1,0.2,0.1c0.1,0,0.1,0,0.2,0
		c0,0,0.1-0.1,0.1-0.1l0.4-0.5c-0.3-0.3-0.7-0.6-1.2-0.8c-0.4-0.2-1-0.3-1.6-0.3c-0.6,0-1.2,0.1-1.7,0.3c-0.5,0.2-1,0.5-1.3,0.9
		c-0.4,0.4-0.7,0.8-0.9,1.4c-0.2,0.5-0.3,1.1-0.3,1.7c0,0.6,0.1,1.2,0.3,1.7c0.2,0.5,0.5,1,0.8,1.4c0.3,0.4,0.8,0.7,1.3,0.9
		c0.5,0.2,1,0.3,1.6,0.3c0.7,0,1.3-0.1,1.8-0.3c0.5-0.2,0.9-0.5,1.2-0.9l-0.4-0.5C199.2,57.3,199.1,57.3,199.1,57.3z"/>
	<path class="st0" d="M207.8,51.8c-0.4-0.4-0.8-0.7-1.3-0.9c-0.5-0.2-1.1-0.3-1.7-0.3s-1.2,0.1-1.7,0.3c-0.5,0.2-0.9,0.5-1.3,0.9
		c-0.4,0.4-0.6,0.8-0.8,1.4c-0.2,0.5-0.3,1.1-0.3,1.7s0.1,1.2,0.3,1.7c0.2,0.5,0.5,1,0.8,1.4c0.4,0.4,0.8,0.7,1.3,0.9
		c0.5,0.2,1.1,0.3,1.7,0.3c0.6,0,1.2-0.1,1.7-0.3c0.5-0.2,0.9-0.5,1.3-0.9c0.4-0.4,0.6-0.8,0.8-1.4c0.2-0.5,0.3-1.1,0.3-1.7
		s-0.1-1.2-0.3-1.7C208.4,52.6,208.1,52.1,207.8,51.8z M207.6,56.2c-0.1,0.4-0.3,0.8-0.6,1c-0.3,0.3-0.6,0.5-0.9,0.6
		c-0.4,0.2-0.8,0.2-1.2,0.2c-0.4,0-0.9-0.1-1.2-0.2c-0.4-0.1-0.7-0.4-0.9-0.6c-0.3-0.3-0.5-0.6-0.6-1c-0.1-0.4-0.2-0.9-0.2-1.4
		s0.1-1,0.2-1.4c0.1-0.4,0.3-0.8,0.6-1c0.3-0.3,0.6-0.5,0.9-0.7c0.4-0.1,0.8-0.2,1.2-0.2c0.4,0,0.9,0.1,1.2,0.2
		c0.4,0.1,0.7,0.4,0.9,0.7c0.3,0.3,0.5,0.6,0.6,1c0.1,0.4,0.2,0.9,0.2,1.4S207.7,55.8,207.6,56.2z"/>
	<path class="st0" d="M218.1,50.7c-0.1,0-0.1,0.1-0.2,0.2l-2.8,5.1c-0.1,0.1-0.1,0.2-0.1,0.3c0,0.1-0.1,0.2-0.1,0.3
		c0-0.1-0.1-0.2-0.1-0.3c0-0.1-0.1-0.2-0.1-0.3l-2.9-5.1c0-0.1-0.1-0.1-0.2-0.2c-0.1,0-0.1,0-0.2,0h-0.8V59h1v-6.1
		c0-0.1,0-0.2,0-0.3c0-0.1,0-0.2,0-0.3l2.9,5.2c0.1,0.2,0.2,0.3,0.4,0.3h0.2c0.2,0,0.3-0.1,0.4-0.3l2.9-5.2c0,0.1,0,0.2,0,0.3
		c0,0.1,0,0.2,0,0.3V59h1v-8.3h-0.8C218.2,50.7,218.1,50.7,218.1,50.7z"/>
	<path class="st0" d="M228.8,50.7c-0.1,0-0.1,0.1-0.2,0.2l-2.8,5.1c-0.1,0.1-0.1,0.2-0.1,0.3c0,0.1-0.1,0.2-0.1,0.3
		c0-0.1-0.1-0.2-0.1-0.3c0-0.1-0.1-0.2-0.1-0.3l-2.9-5.1c-0.1-0.1-0.1-0.1-0.2-0.2c-0.1,0-0.1,0-0.2,0h-0.8V59h1v-6.1
		c0-0.1,0-0.2,0-0.3c0-0.1,0-0.2,0-0.3l2.9,5.2c0.1,0.2,0.2,0.3,0.4,0.3h0.2c0.2,0,0.3-0.1,0.4-0.3l2.9-5.2c0,0.1,0,0.2,0,0.3
		c0,0.1,0,0.2,0,0.3V59h1v-8.3H229C228.9,50.7,228.9,50.7,228.8,50.7z"/>
	<polygon class="st0" points="231.9,59 237.1,59 237.1,58.1 233,58.1 233,55.2 236.3,55.2 236.3,54.3 233,54.3 233,51.6 237.1,51.6 
		237.1,50.7 231.9,50.7 	"/>
	<path class="st0" d="M242.2,55.3c0.3-0.1,0.6-0.2,0.9-0.3c0.3-0.1,0.5-0.3,0.6-0.5c0.2-0.2,0.3-0.4,0.4-0.7s0.1-0.5,0.1-0.8
		c0-0.4-0.1-0.7-0.2-1c-0.1-0.3-0.3-0.5-0.6-0.7c-0.3-0.2-0.6-0.4-1-0.5c-0.4-0.1-0.8-0.2-1.4-0.2h-2.4V59h1.1v-3.5h0.9
		c0.2,0,0.3,0,0.4,0.1c0.1,0,0.1,0.1,0.2,0.2l2.2,3c0.1,0.2,0.2,0.2,0.5,0.2h1l-2.4-3.3C242.4,55.5,242.3,55.4,242.2,55.3z
		 M241.1,54.7h-1.2v-3.2h1.2c0.7,0,1.1,0.1,1.5,0.4s0.5,0.6,0.5,1.1c0,0.2,0,0.5-0.1,0.7c-0.1,0.2-0.2,0.4-0.4,0.5
		c-0.2,0.1-0.4,0.3-0.6,0.3C241.7,54.7,241.4,54.7,241.1,54.7z"/>
	<path class="st0" d="M251.8,57.3c-0.1,0-0.1,0-0.2,0.1c-0.1,0.1-0.3,0.2-0.4,0.3c-0.1,0.1-0.3,0.2-0.5,0.2
		c-0.2,0.1-0.3,0.1-0.5,0.1c-0.2,0-0.4,0-0.7,0c-0.4,0-0.8-0.1-1.1-0.2c-0.4-0.1-0.7-0.4-0.9-0.6c-0.3-0.3-0.5-0.6-0.6-1
		c-0.1-0.4-0.2-0.9-0.2-1.4c0-0.5,0.1-1,0.2-1.4c0.1-0.4,0.4-0.8,0.6-1c0.3-0.3,0.6-0.5,1-0.7c0.4-0.2,0.8-0.2,1.2-0.2
		c0.3,0,0.5,0,0.7,0.1c0.2,0,0.4,0.1,0.5,0.1c0.1,0.1,0.3,0.1,0.4,0.2s0.2,0.1,0.3,0.2c0.1,0.1,0.1,0.1,0.2,0.1
		c0.1,0,0.1,0.1,0.2,0.1c0.1,0,0.1,0,0.1,0c0,0,0.1-0.1,0.1-0.1l0.4-0.5c-0.3-0.3-0.7-0.6-1.2-0.8c-0.4-0.2-1-0.3-1.6-0.3
		c-0.6,0-1.2,0.1-1.7,0.3c-0.5,0.2-1,0.5-1.3,0.9c-0.4,0.4-0.7,0.8-0.9,1.4c-0.2,0.5-0.3,1.1-0.3,1.7c0,0.6,0.1,1.2,0.3,1.7
		c0.2,0.5,0.5,1,0.8,1.4c0.3,0.4,0.8,0.7,1.3,0.9c0.5,0.2,1,0.3,1.6,0.3c0.7,0,1.3-0.1,1.8-0.3c0.5-0.2,0.9-0.5,1.2-0.9l-0.4-0.5
		C251.9,57.3,251.9,57.3,251.8,57.3z"/>
	<polygon class="st0" points="259,51.6 259,50.7 253.9,50.7 253.9,59 259,59 259,58.1 255,58.1 255,55.2 258.3,55.2 258.3,54.3 
		255,54.3 255,51.6 	"/>
</g>
<path id="promethean" class="st0" d="M59.3,43h5.8v-6.8h10.6c2.7,0,4.1-1.4,4.1-4.3v-4.3c0-2.9-1.4-4.4-4.1-4.4H59.3L59.3,43
	L59.3,43z M73.1,27.1c0.3,0,0.6,0,0.7,0.1c0.1,0.1,0.2,0.2,0.2,0.3V32c0,0.2-0.1,0.3-0.2,0.4c-0.1,0.1-0.3,0.1-0.7,0.1h-8V27
	L73.1,27.1L73.1,27.1z M84.2,43l5.8,0v-8.3H95l4,8.2h6.7l-4.3-8.3c1-0.1,1.7-0.4,2.1-0.8c0.4-0.3,0.8-0.7,1-1.3
	c0.2-0.6,0.3-1.3,0.3-2.1v-2.8c0-2.9-1.4-4.4-4.1-4.4H84.2L84.2,43L84.2,43z M98.1,27.1c0.3,0,0.6,0,0.7,0.1
	c0.1,0.1,0.2,0.2,0.2,0.3v3c0,0.2-0.1,0.3-0.2,0.4c-0.1,0.1-0.3,0.1-0.7,0.1h-8v-3.9L98.1,27.1L98.1,27.1z M113.4,43h13.1
	c2.7,0,4.1-1.4,4.1-4.3V27.6c0-2.9-1.4-4.4-4.1-4.4h-13.1c-2.7,0-4.1,1.5-4.1,4.4v11.1C109.3,41.6,110.7,43,113.4,43L113.4,43z
	 M115.2,38.7V27.5c0-0.2,0.1-0.3,0.2-0.3c0.1,0,0.3-0.1,0.6-0.1h8c0.3,0,0.5,0,0.6,0.1c0.1,0.1,0.2,0.2,0.2,0.3v11.3
	c0,0.2-0.1,0.3-0.2,0.4c-0.1,0.1-0.3,0.1-0.6,0.1h-8c-0.3,0-0.5,0-0.6-0.1C115.2,39.1,115.2,38.9,115.2,38.7L115.2,38.7z M134.6,43
	h3.5V29.6l6.5,13.4h4.3l6.6-13.3V43h5.9V23.2h-6.9l-6.4,13.1l-6.4-13.1h-7.1L134.6,43L134.6,43z M166.3,43h17.3v-3.8h-11.5v-4.4
	h11.5V31h-11.5V27h11.5v-3.8h-17.2V43L166.3,43z M193,43h5.8v-16h6.5v-3.8h-18.8v3.8h6.5L193,43L193,43z M208.3,43h5.8v-8.1h8.9V43
	h5.9V23.2h-5.9V31h-8.9v-7.8h-5.8V43L208.3,43z M233.8,43h17.3v-3.8h-11.5v-4.4h11.5V31h-11.5V27h11.5v-3.8h-17.2V43L233.8,43z
	 M252.7,43h4l3-5.4h9.3l2.7,5.4h6.9l-10.1-19.8h-4.8L252.7,43L252.7,43z M264.5,28.9l2.6,5.1h-5.5L264.5,28.9L264.5,28.9z M280.3,43
	h3.3V28.8l9.6,14.2h6.7V23.2h-3.5v14.2l-10.4-14.1h-5.7L280.3,43L280.3,43z"/>
<g id="icon">
	<path class="st1" d="M4.7,43.5C3,41.9,0.3,38.3,1.2,31.8c0,0-4.2,10.5,3.1,19.6c-0.6-3.3-0.1-5.9-0.1-5.9
		C4.3,44.8,4.5,44.2,4.7,43.5z"/>
	<path class="st1" d="M27.1,11.6c0,0,6.3,10.7,0.7,19.1c0,0-1.9,4.1-11.1,6.4c0,0-8.9,1.9-10.2,10.6c0,0-1.4,7.4,4.4,11.8
		c-0.5-1.3-0.8-2.8-0.8-4.4c0-5.2,3.3-9.5,7.8-11c1-0.3,2-0.6,3.1-0.9c8.4-1.8,11.7-6.3,11.7-6.3C42.3,23.6,27.1,11.6,27.1,11.6z"/>
	<path class="st1" d="M15.6,34C3.3,24.1,10,10.3,10,10.3S-0.6,26.5,5.6,41.2C8.7,36.5,14,34.5,15.6,34z"/>
	<path class="st1" d="M18.2,33.2c5.7-2.1,7.3-4.6,7.3-4.6c0.4-0.6,0.7-1.2,1-1.8c-2-1.4-5.8-5.1-5.8-12.2c0,0,0.8-12.1,11.6-14.5
		c0,0-17.7,2-20.1,16.3C12.3,16.3,10.4,26.3,18.2,33.2z"/>
	<path class="st1" d="M26.5,44.8c3.7,1.9,6.2,5.8,6.2,10.4c0,1.3-0.2,2.6-0.6,3.8c4.1-2.5,12.2-9.3,4.4-22.1
		C33,42.2,28.7,44.1,26.5,44.8z"/>
	<path class="st1" d="M29.4,7.5c14.7,15.2,8.4,26.3,8.4,26.3c5.1,3.9,4.8,11.4,4.8,11.4C54.9,17.5,29.4,7.5,29.4,7.5z"/>
	<path class="st1" d="M21.4,46.6c-4.8,0-8.7,3.8-8.7,8.5s3.9,8.5,8.7,8.5s8.7-3.8,8.7-8.5S26.2,46.6,21.4,46.6z M25.9,55.6l-7.7,3.9
		c-0.3,0.1-0.6-0.1-0.6-0.4l0.1-7.6c0-0.3,0.3-0.5,0.6-0.4l7.6,3.7C26.3,55,26.3,55.5,25.9,55.6z"/>
</g>
</svg>
