<?xml version="1.0" encoding="utf-8"?>
<!-- Generator: Adobe Illustrator 20.0.0, SVG Export Plug-In . SVG Version: 6.00 Build 0)  -->
<!DOCTYPE svg PUBLIC "-//W3C//DTD SVG 1.1//EN" "http://www.w3.org/Graphics/SVG/1.1/DTD/svg11.dtd" [
	<!ENTITY ns_extend "http://ns.adobe.com/Extensibility/1.0/">
	<!ENTITY ns_ai "http://ns.adobe.com/AdobeIllustrator/10.0/">
	<!ENTITY ns_graphs "http://ns.adobe.com/Graphs/1.0/">
	<!ENTITY ns_vars "http://ns.adobe.com/Variables/1.0/">
	<!ENTITY ns_imrep "http://ns.adobe.com/ImageReplacement/1.0/">
	<!ENTITY ns_sfw "http://ns.adobe.com/SaveForWeb/1.0/">
	<!ENTITY ns_custom "http://ns.adobe.com/GenericCustomNamespace/1.0/">
	<!ENTITY ns_adobe_xpath "http://ns.adobe.com/XPath/1.0/">
]>
<svg version="1.1" id="art" xmlns:x="&ns_extend;" xmlns:i="&ns_ai;" xmlns:graph="&ns_graphs;"
	 xmlns="http://www.w3.org/2000/svg" xmlns:xlink="http://www.w3.org/1999/xlink" x="0px" y="0px" width="400px" height="441.7px"
	 viewBox="0 0 400 441.7" style="enable-background:new 0 0 400 441.7;" xml:space="preserve">
<style type="text/css">
	.st0{fill:#301C47;}
	.st1{fill:url(#SVGID_1_);}
	.st2{fill:#C8495B;}
	.st3{fill:#F4A04D;}
	.st4{fill:none;stroke:#301C47;stroke-width:3;stroke-linecap:round;stroke-miterlimit:10;}
	.st5{fill:none;stroke:#C8495B;stroke-width:3;stroke-linecap:round;stroke-miterlimit:10;}
</style>
<metadata>
	<sfw  xmlns="&ns_sfw;">
		<slices></slices>
		<sliceSourceBounds  bottomLeftOrigin="true" height="441.7" width="400" x="-225.9" y="504.7"></sliceSourceBounds>
	</sfw>
</metadata>
<polygon class="st0" points="233.4,199.5 0,334.3 0,181.9 233.4,47.2 "/>
<linearGradient id="SVGID_1_" gradientUnits="userSpaceOnUse" x1="583.2002" y1="293.4902" x2="926.6285" y2="95.2117" gradientTransform="matrix(-1 0 0 1 976.6987 0)">
	<stop  offset="0.4453" style="stop-color:#C8495B;stop-opacity:0"/>
	<stop  offset="1" style="stop-color:#C8495B;stop-opacity:0.5"/>
</linearGradient>
<polygon class="st1" points="252.1,36.4 400,0 400,282.2 135.4,441.7 0,334.2 0,181.9 "/>
<polygon class="st2" points="35.1,340.3 159.5,268.5 159.5,161.8 35.1,233.6 "/>
<g>
	<path class="st0" d="M89.1,262.9l11.1-15.5c1.2-1.6,1.6-3.5,0.8-3.5l-11.1,0.7c-1,0.1-2.7,2.8-2.7,4.2v14.8
		C87.1,264.6,88.1,264.3,89.1,262.9z"/>
</g>
<g>
	<path class="st0" d="M253.8,220.8l-13.9,8v-19.6c0-3.8,3.1-8.7,7-11h0c3.8-2.2,7-0.9,7,2.9V220.8z"/>
	<path class="st2" d="M252.7,187.9c0,3.1-2.5,7-5.6,8.8s-5.6,0.7-5.6-2.4s2.5-7,5.6-8.8S252.7,184.8,252.7,187.9z"/>
	<path class="st3" d="M246.8,255.3L246.8,255.3c-3.8,2.2-7,0.9-7-2.9v-23.6l13.9-8v23.6C253.8,248.2,250.7,253.1,246.8,255.3z"/>
</g>
<g>
	<path class="st2" d="M279.8,310.1l-13.4,7.7v-18.9c0-3.7,3-8.4,6.7-10.6l0,0c3.7-2.1,6.7-0.9,6.7,2.8V310.1z"/>
	<path class="st0" d="M278.8,278.3c0,3-2.4,6.8-5.4,8.5c-3,1.7-5.4,0.7-5.4-2.3c0-3,2.4-6.8,5.4-8.5
		C276.4,274.4,278.8,275.4,278.8,278.3z"/>
</g>
<g>
	<path class="st0" d="M247.8,328.2l-13.4,7.7V317c0-3.7,3-8.4,6.7-10.6h0c3.7-2.1,6.7-0.9,6.7,2.8V328.2z"/>
	<path class="st2" d="M246.8,296.5c0,3-2.4,6.8-5.4,8.5s-5.4,0.7-5.4-2.3c0-3,2.4-6.8,5.4-8.5S246.8,293.5,246.8,296.5z"/>
</g>
<g>
	<path class="st0" d="M215.9,346.8l-13.4,7.7v-18.9c0-3.7,3-8.4,6.7-10.6l0,0c3.7-2.1,6.7-0.9,6.7,2.8V346.8z"/>
	<path class="st3" d="M214.8,315.1c0,3-2.4,6.8-5.4,8.5c-3,1.7-5.4,0.7-5.4-2.3c0-3,2.4-6.8,5.4-8.5S214.8,312.1,214.8,315.1z"/>
</g>
<g>
	<path class="st3" d="M183.9,365.8l-13.4,7.7v-18.9c0-3.7,3-8.4,6.7-10.6h0c3.7-2.1,6.7-0.9,6.7,2.8V365.8z"/>
	<path class="st2" d="M182.9,334.1c0,3-2.4,6.8-5.4,8.5c-3,1.7-5.4,0.7-5.4-2.3c0-3,2.4-6.8,5.4-8.5S182.9,331.1,182.9,334.1z"/>
</g>
<g>
	<path class="st3" d="M333,325.9l-13.4,7.7v-18.9c0-3.7,3-8.4,6.7-10.6h0c3.7-2.1,6.7-0.9,6.7,2.8V325.9z"/>
	<path class="st2" d="M332,294.2c0,3-2.4,6.8-5.4,8.5c-3,1.7-5.4,0.7-5.4-2.3s2.4-6.8,5.4-8.5C329.6,290.2,332,291.2,332,294.2z"/>
</g>
<g>
	<path class="st0" d="M301,344.1l-13.4,7.7v-18.9c0-3.7,3-8.4,6.7-10.6l0,0c3.7-2.1,6.7-0.9,6.7,2.8V344.1z"/>
	<path class="st3" d="M300,312.3c0,3-2.4,6.8-5.4,8.5c-3,1.7-5.4,0.7-5.4-2.3c0-3,2.4-6.8,5.4-8.5C297.6,308.3,300,309.3,300,312.3z
		"/>
</g>
<g>
	<path class="st3" d="M269,362.6l-13.4,7.7v-18.9c0-3.7,3-8.4,6.7-10.6l0,0c3.7-2.1,6.7-0.9,6.7,2.8V362.6z"/>
	<path class="st2" d="M268,330.9c0,3-2.4,6.8-5.4,8.5c-3,1.7-5.4,0.7-5.4-2.3c0-3,2.4-6.8,5.4-8.5C265.6,326.9,268,327.9,268,330.9z
		"/>
</g>
<g>
	<path class="st2" d="M237,381.6l-13.4,7.7v-18.9c0-3.7,3-8.4,6.7-10.6h0c3.7-2.1,6.7-0.9,6.7,2.8V381.6z"/>
	<path class="st0" d="M236,349.9c0,3-2.4,6.8-5.4,8.5c-3,1.7-5.4,0.7-5.4-2.3c0-3,2.4-6.8,5.4-8.5S236,346.9,236,349.9z"/>
</g>
<line class="st4" x1="54.6" y1="306.7" x2="133.9" y2="260.9"/>
<path class="st3" d="M108.9,273.7c1-2.8,3.3-5,5.1-5c1.8,0,2.4,2.2,1.4,5c-1,2.8-3.3,5-5.1,5C108.5,278.7,107.9,276.5,108.9,273.7z"
	/>
<g>
	<polygon class="st3" points="131.1,269.4 198.3,230.6 198.3,156.7 131.1,195.5 	"/>
	<line class="st5" x1="172.1" y1="229.7" x2="146.4" y2="244.5"/>
	<line class="st5" x1="154.8" y1="226.2" x2="146.4" y2="231.1"/>
	<line class="st5" x1="180.6" y1="211.3" x2="163.5" y2="221.2"/>
	<line class="st5" x1="180.6" y1="197.8" x2="146.4" y2="217.6"/>
	<line class="st5" x1="167.4" y1="192" x2="146.4" y2="204.1"/>
	<line class="st5" x1="180.6" y1="184.4" x2="173.4" y2="188.5"/>
</g>
</svg>
