<?xml version="1.0" encoding="utf-8"?>
<!-- Generator: Adobe Illustrator 21.0.2, SVG Export Plug-In . SVG Version: 6.00 Build 0)  -->
<!DOCTYPE svg PUBLIC "-//W3C//DTD SVG 1.1//EN" "http://www.w3.org/Graphics/SVG/1.1/DTD/svg11.dtd" [
	<!ENTITY ns_extend "http://ns.adobe.com/Extensibility/1.0/">
	<!ENTITY ns_ai "http://ns.adobe.com/AdobeIllustrator/10.0/">
	<!ENTITY ns_graphs "http://ns.adobe.com/Graphs/1.0/">
	<!ENTITY ns_vars "http://ns.adobe.com/Variables/1.0/">
	<!ENTITY ns_imrep "http://ns.adobe.com/ImageReplacement/1.0/">
	<!ENTITY ns_sfw "http://ns.adobe.com/SaveForWeb/1.0/">
	<!ENTITY ns_custom "http://ns.adobe.com/GenericCustomNamespace/1.0/">
	<!ENTITY ns_adobe_xpath "http://ns.adobe.com/XPath/1.0/">
]>
<svg version="1.1" id="art" xmlns:x="&ns_extend;" xmlns:i="&ns_ai;" xmlns:graph="&ns_graphs;"
	 xmlns="http://www.w3.org/2000/svg" xmlns:xlink="http://www.w3.org/1999/xlink" x="0px" y="0px" width="475.8px" height="533.5px"
	 viewBox="0 0 475.8 533.5" style="enable-background:new 0 0 475.8 533.5;" xml:space="preserve">
<style type="text/css">
	.st0{fill:#301C47;}
	.st1{fill:#C8495B;}
	.st2{fill:#F4A04D;}
	.st3{fill:#2F1C46;}
	.st4{fill:#FFFFFF;}
	.st5{fill:url(#SVGID_1_);}
	.st6{fill:url(#SVGID_2_);}
	.st7{fill:url(#SVGID_3_);}
	.st8{fill:none;stroke:#C8495B;stroke-width:3;stroke-linecap:round;stroke-miterlimit:10;}
	.st9{fill:none;stroke:#FFFFFF;stroke-width:3;stroke-linecap:round;stroke-miterlimit:10;}
	.st10{fill:none;stroke:#301C47;stroke-width:3;stroke-linecap:round;stroke-miterlimit:10;}
	.st11{fill:url(#SVGID_4_);}
</style>
<metadata>
	<sfw  xmlns="&ns_sfw;">
		<slices></slices>
		<sliceSourceBounds  bottomLeftOrigin="true" height="533.5" width="475.8" x="-677" y="-12.3"></sliceSourceBounds>
	</sfw>
</metadata>
<polygon class="st0" points="146.1,203 403.4,351.5 403.4,183.6 146.1,35 "/>
<g>
	<polygon class="st1" points="371.1,368.7 336.1,388.8 371.1,409 406.1,388.8 	"/>
	<polygon class="st2" points="371.1,533.5 336.1,513.3 336.1,388.8 371.1,409 	"/>
	<polygon class="st1" points="371.1,533.5 406.1,513.3 406.1,388.8 371.1,409 	"/>
</g>
<g>
	<path class="st3" d="M354.9,420.2l2.5,1.5l-9,7.3l-2.5-1.5L354.9,420.2z"/>
	<polygon class="st4" points="347,412.2 343,409.9 349,421.9 351,420.3 	"/>
	<polygon class="st1" points="354.4,427 352.4,428.6 356.6,437.1 356.7,437.2 360.7,439.5 	"/>
</g>
<g>
	<path class="st4" d="M329.7,196.6l8.6,4.9l-30.6,24.8l-8.6-4.9L329.7,196.6z"/>
	<polygon class="st2" points="303,169.7 289.6,161.9 309.8,202.4 316.5,197.2 	"/>
	<polygon class="st1" points="328,219.7 321.4,225.1 335.6,253.8 335.8,254.2 349.3,261.9 	"/>
</g>
<g>
	<g>
		<g>
			<linearGradient id="SVGID_1_" gradientUnits="userSpaceOnUse" x1="332.1948" y1="384.3559" x2="410" y2="384.3559">
				<stop  offset="0" style="stop-color:#DE7554"/>
				<stop  offset="1" style="stop-color:#F4A04D"/>
			</linearGradient>
			<path class="st5" d="M379,407l-44.5-25.7c-1.5-0.8-2.4-2.4-2.4-4.1l0,0l31-15.5l46.8,24.7v0.2c0,1.6-0.8,3-2.2,3.8L379,407z"/>
		</g>
		<g>
			<linearGradient id="SVGID_2_" gradientUnits="userSpaceOnUse" x1="332.1948" y1="381.8258" x2="410" y2="381.8258">
				<stop  offset="0" style="stop-color:#F4A04D"/>
				<stop  offset="1" style="stop-color:#DE7554"/>
			</linearGradient>
			<path class="st6" d="M379,404.3l-46.8-27l31-17.9l46.8,27L379,404.3z"/>
		</g>
		<polygon class="st2" points="383.4,403.6 381,404.9 381,404.2 383.4,402.8 		"/>
	</g>
	<polygon class="st0" points="379,404.3 332.2,377.3 332.2,340.4 379,367.4 	"/>
</g>
<g>
	<path class="st1" d="M432,467.9l-16,4.7c-1.3,0.4-2.7-0.4-3.1-1.7c-0.3-1.2,0.2-2.4,1.2-2.9l14.9-7.6c2-1,4.4-0.2,5.4,1.7
		c1,2,0.2,4.4-1.7,5.4C432.5,467.8,432.2,467.9,432,467.9z"/>
	<path class="st1" d="M453.4,480.5L439.7,491c-1.1,0.8-2.6,0.6-3.5-0.5c-0.7-1-0.7-2.3,0.1-3.2l11.7-12.8c1.5-1.6,4-1.8,5.7-0.3
		c1.6,1.5,1.8,4,0.3,5.7C453.8,480.2,453.6,480.3,453.4,480.5z"/>
	<path class="st1" d="M423.7,350.5l35.8,20.6v-62.6c0-7.8-4.2-15-10.9-18.9l-14.3-8.3c-4.7-2.7-10.6,0.7-10.6,6.1V350.5z"/>
	<path class="st0" d="M423.7,350.5l35.8,20.6v11.1c0,4.6-4.9,7.4-8.9,5.1l-26.9-15.5V350.5z"/>
	<path class="st1" d="M459.6,317.2c-2.5-4.3-5.3-8.2-8.5-11.9c-2.4-2.7-2.1-6.8,0.6-9.2s6.8-2.1,9.2,0.6c0.2,0.2,0.4,0.4,0.5,0.7
		l0,0.1c3.1,4.8,5.8,9.8,7.9,15L459.6,317.2z"/>
	<path class="st2" d="M474.1,328.5c-1.1-5.4-2.7-10.8-4.8-16l-9.7,4.7c2.5,4.2,4.5,8.8,6.2,13.5c1.6,4.7,2.8,9.6,3.5,14.6
		c0.3,2.5,0.6,5,0.7,7.6l0.5,7.9c0.1,1.1,0.9,2,2,2.1c1.2,0.1,2.3-0.8,2.4-2l0.6-7.9c0.2-2.6,0.4-5.4,0.4-8.1
		C475.8,339.4,475.2,333.9,474.1,328.5z"/>
	<path class="st1" d="M416.9,274.1c3.7,2.4,7.7,4.2,11.9,5.5c3.4,1.1,5.3,4.8,4.2,8.2c-1.1,3.4-4.8,5.3-8.2,4.2
		c-0.3-0.1-0.6-0.2-0.9-0.4c-4.9-2.4-9.4-5.4-13.4-8.9L416.9,274.1z"/>
	<path class="st2" d="M406.6,265.6c-3.1-3.3-5.7-7-7.9-11.1l-6.7-13l0,0c-0.5-1-1.6-1.4-2.7-1.1c-1.1,0.4-1.8,1.6-1.4,2.8l4.7,13.9
		c1.7,4.9,4.1,9.5,7.1,13.9c3,4.3,6.5,8.3,10.6,11.8l6.5-8.7C413.1,271.7,409.7,268.9,406.6,265.6z"/>
	
		<ellipse transform="matrix(0.2455 -0.9694 0.9694 0.2455 80.6652 632.1975)" class="st2" cx="446.5" cy="264.3" rx="13.1" ry="13.1"/>
	<path class="st0" d="M440.5,370l-5.6,92c-0.1,1.6-1.5,2.8-3,2.7c-1.5-0.1-2.6-1.3-2.7-2.7l-5.5-90.1c-0.2-2.7,3.2-4.2,5.1-5.9
		c1.4-1.2,0.7-4.9,2.7-5c4.7-0.3,8.7,3.3,9,8C440.5,369.3,440.5,369.7,440.5,370z"/>
	<path class="st0" d="M459.5,383.7l-5.6,92c-0.1,1.6-1.5,2.8-3,2.7c-1.5-0.1-2.6-1.3-2.7-2.7l-5.6-92c-0.3-4.7,3.3-8.7,8-9
		c4.7-0.3,8.7,1.4,9,6.1C459.5,381.1,459.5,383.4,459.5,383.7z"/>
	<polygon class="st1" points="458.9,295.3 432.1,280.6 440,299 456,306 	"/>
</g>
<g>
	<polygon class="st1" points="124.4,86.9 242.9,155 242.9,270.1 124.4,202 	"/>
	<linearGradient id="SVGID_3_" gradientUnits="userSpaceOnUse" x1="124.3655" y1="192.9132" x2="242.8968" y2="192.9132">
		<stop  offset="0" style="stop-color:#DE7554"/>
		<stop  offset="1" style="stop-color:#F4A04D"/>
	</linearGradient>
	<polygon class="st7" points="124.4,101.3 242.9,169.4 242.9,284.5 124.4,216.4 	"/>
	<g>
		<line class="st8" x1="203.2" y1="192.7" x2="216.9" y2="200.6"/>
		<line class="st9" x1="151" y1="175.6" x2="180.5" y2="192.4"/>
		<line class="st9" x1="155.5" y1="204.5" x2="170.3" y2="213"/>
		<line class="st10" x1="140.7" y1="196" x2="149.2" y2="200.8"/>
		<line class="st10" x1="193.9" y1="213" x2="207.4" y2="220.8"/>
		<line class="st10" x1="171.4" y1="200.1" x2="184.5" y2="207.6"/>
		<line class="st9" x1="182.7" y1="155.5" x2="189.6" y2="159.4"/>
		<line class="st8" x1="157.7" y1="141" x2="172.1" y2="149.3"/>
		<line class="st10" x1="140.7" y1="131.3" x2="149.7" y2="136.4"/>
		<line class="st8" x1="140.7" y1="208.8" x2="149.7" y2="214"/>
		<line class="st10" x1="140.7" y1="144.1" x2="170.3" y2="161"/>
		<line class="st10" x1="183.7" y1="181.6" x2="195.8" y2="188.5"/>
		<line class="st10" x1="161.2" y1="168.6" x2="174.2" y2="176.2"/>
	</g>
	<g>
		<path class="st0" d="M136.2,101c0,1-0.8,1.3-1.8,0.7c-1-0.6-1.8-1.9-1.8-2.9c0-1,0.8-1.3,1.8-0.7C135.4,98.7,136.2,100,136.2,101z
			"/>
		<path class="st0" d="M143.5,105.2c0,1-0.8,1.3-1.8,0.7c-1-0.6-1.8-1.9-1.8-2.9c0-1,0.8-1.3,1.8-0.7
			C142.7,102.8,143.5,104.2,143.5,105.2z"/>
		<path class="st0" d="M150.8,109.4c0,1-0.8,1.3-1.8,0.7c-1-0.6-1.8-1.9-1.8-2.9c0-1,0.8-1.3,1.8-0.7
			C150.1,107.2,150.8,108.4,150.8,109.4z"/>
	</g>
	<polygon class="st1" points="209.5,239.2 256.6,266.3 256.6,315.8 209.5,288.8 	"/>
	<g>
		<path class="st0" d="M229.7,284.4l8-1.9c0.8-0.2,1.1-1.2,0.6-1.8l-8-8.7c-0.7-0.7-1.9-0.3-1.9,0.7v10.6
			C228.3,284,229,284.5,229.7,284.4z"/>
	</g>
</g>
<linearGradient id="SVGID_4_" gradientUnits="userSpaceOnUse" x1="-1780.7439" y1="296.0174" x2="-1434.3583" y2="96.0316" gradientTransform="matrix(1 0 0 1 1787.3013 0)">
	<stop  offset="0.4453" style="stop-color:#C8495B;stop-opacity:0"/>
	<stop  offset="1" style="stop-color:#C8495B;stop-opacity:0.5"/>
</linearGradient>
<polygon class="st11" points="149.1,36.7 0,0 0,284.7 266.9,445.5 403.4,337.1 403.4,183.5 "/>
</svg>
