<?xml version="1.0" encoding="utf-8"?>
<!-- Generator: Adobe Illustrator 21.1.0, SVG Export Plug-In . SVG Version: 6.00 Build 0)  -->
<!DOCTYPE svg PUBLIC "-//W3C//DTD SVG 1.1//EN" "http://www.w3.org/Graphics/SVG/1.1/DTD/svg11.dtd" [
	<!ENTITY ns_extend "http://ns.adobe.com/Extensibility/1.0/">
	<!ENTITY ns_ai "http://ns.adobe.com/AdobeIllustrator/10.0/">
	<!ENTITY ns_graphs "http://ns.adobe.com/Graphs/1.0/">
	<!ENTITY ns_vars "http://ns.adobe.com/Variables/1.0/">
	<!ENTITY ns_imrep "http://ns.adobe.com/ImageReplacement/1.0/">
	<!ENTITY ns_sfw "http://ns.adobe.com/SaveForWeb/1.0/">
	<!ENTITY ns_custom "http://ns.adobe.com/GenericCustomNamespace/1.0/">
	<!ENTITY ns_adobe_xpath "http://ns.adobe.com/XPath/1.0/">
]>
<svg version="1.1" id="Layer_1" xmlns:x="&ns_extend;" xmlns:i="&ns_ai;" xmlns:graph="&ns_graphs;"
	 xmlns="http://www.w3.org/2000/svg" xmlns:xlink="http://www.w3.org/1999/xlink" x="0px" y="0px" width="16px" height="15.4px"
	 viewBox="0 0 16 15.4" style="enable-background:new 0 0 16 15.4;" xml:space="preserve">
<style type="text/css">
	.st0{fill:#C7485B;}
</style>
<metadata>
	<sfw  xmlns="&ns_sfw;">
		<slices></slices>
		<sliceSourceBounds  bottomLeftOrigin="true" height="15.4" width="16" x="2.5" y="2.3"></sliceSourceBounds>
	</sfw>
</metadata>
<path class="st0" d="M7.5,0.5c0.3-0.6,0.8-0.6,1,0l1.7,3.7c0.3,0.6,1.1,1.1,1.8,1.1h3.4c0.7,0,0.8,0.4,0.4,0.9l-2.6,2.7
	c-0.5,0.5-0.8,1.5-0.7,2.1l0.6,3.5c0.2,0.7-0.3,1-0.9,0.6L9,13.6c-0.6-0.3-1.6-0.3-2.2,0l-3,1.5c-0.6,0.3-1,0-0.9-0.6L3.5,11
	c0.2-0.7-0.2-1.6-0.7-2.1L0.3,6.3C-0.2,5.7,0,5.3,0.6,5.3H4c0.7,0,1.5-0.5,1.8-1.1L7.5,0.5z"/>
</svg>
