<?xml version="1.0" encoding="utf-8"?>
<!-- Generator: Adobe Illustrator 18.1.1, SVG Export Plug-In . SVG Version: 6.00 Build 0)  -->
<!DOCTYPE svg PUBLIC "-//W3C//DTD SVG 1.1//EN" "http://www.w3.org/Graphics/SVG/1.1/DTD/svg11.dtd" [
	<!ENTITY ns_extend "http://ns.adobe.com/Extensibility/1.0/">
	<!ENTITY ns_ai "http://ns.adobe.com/AdobeIllustrator/10.0/">
	<!ENTITY ns_graphs "http://ns.adobe.com/Graphs/1.0/">
	<!ENTITY ns_vars "http://ns.adobe.com/Variables/1.0/">
	<!ENTITY ns_imrep "http://ns.adobe.com/ImageReplacement/1.0/">
	<!ENTITY ns_sfw "http://ns.adobe.com/SaveForWeb/1.0/">
	<!ENTITY ns_custom "http://ns.adobe.com/GenericCustomNamespace/1.0/">
	<!ENTITY ns_adobe_xpath "http://ns.adobe.com/XPath/1.0/">
]>
<svg version="1.1" id="Layer_1" xmlns:x="&ns_extend;" xmlns:i="&ns_ai;" xmlns:graph="&ns_graphs;"
	 xmlns="http://www.w3.org/2000/svg" xmlns:xlink="http://www.w3.org/1999/xlink" x="0px" y="0px" width="65px" height="65px"
	 viewBox="0 0 65 65" enable-background="new 0 0 65 65" xml:space="preserve">
<metadata>
	<sfw  xmlns="&ns_sfw;">
		<slices></slices>
		<sliceSourceBounds  height="44" width="44" bottomLeftOrigin="true" x="10.5" y="-54.5"></sliceSourceBounds>
	</sfw>
</metadata>
<g>
	<g>
		<path fill="#FFFFFF" d="M32.5,54.5c-12.1,0-22-9.9-22-22s9.9-22,22-22s22,9.9,22,22S44.6,54.5,32.5,54.5z M32.5,13.5
			c-10.5,0-19,8.5-19,19s8.5,19,19,19s19-8.5,19-19S43,13.5,32.5,13.5z"/>
	</g>
	<g>
		<g>
			<path fill="#FFFFFF" d="M26.1,40c-0.4,0-0.8-0.1-1.1-0.4c-0.6-0.6-0.6-1.5,0-2.1l12.1-12.1c0.6-0.6,1.5-0.6,2.1,0s0.6,1.5,0,2.1
				L27.1,39.6C26.8,39.9,26.4,40,26.1,40z"/>
		</g>
		<g>
			<path fill="#FFFFFF" d="M38.1,40c-0.4,0-0.8-0.1-1.1-0.4L25,27.5c-0.6-0.6-0.6-1.5,0-2.1s1.5-0.6,2.1,0l12.1,12.1
				c0.6,0.6,0.6,1.5,0,2.1C38.9,39.9,38.5,40,38.1,40z"/>
		</g>
	</g>
</g>
</svg>
