<?xml version="1.0" encoding="utf-8"?>
<!-- Generator: Adobe Illustrator 22.0.1, SVG Export Plug-In . SVG Version: 6.00 Build 0)  -->
<!DOCTYPE svg PUBLIC "-//W3C//DTD SVG 1.1//EN" "http://www.w3.org/Graphics/SVG/1.1/DTD/svg11.dtd" [
	<!ENTITY ns_extend "http://ns.adobe.com/Extensibility/1.0/">
	<!ENTITY ns_ai "http://ns.adobe.com/AdobeIllustrator/10.0/">
	<!ENTITY ns_graphs "http://ns.adobe.com/Graphs/1.0/">
	<!ENTITY ns_vars "http://ns.adobe.com/Variables/1.0/">
	<!ENTITY ns_imrep "http://ns.adobe.com/ImageReplacement/1.0/">
	<!ENTITY ns_sfw "http://ns.adobe.com/SaveForWeb/1.0/">
	<!ENTITY ns_custom "http://ns.adobe.com/GenericCustomNamespace/1.0/">
	<!ENTITY ns_adobe_xpath "http://ns.adobe.com/XPath/1.0/">
]>
<svg version="1.1" id="Layer_1" xmlns:x="&ns_extend;" xmlns:i="&ns_ai;" xmlns:graph="&ns_graphs;"
	 xmlns="http://www.w3.org/2000/svg" xmlns:xlink="http://www.w3.org/1999/xlink" x="0px" y="0px" width="18px" height="18px"
	 viewBox="0 0 18 18" style="enable-background:new 0 0 18 18;" xml:space="preserve">
<style type="text/css">
	.st0{fill:#FFFFFF;}
</style>
<metadata>
	<sfw  xmlns="&ns_sfw;">
		<slices></slices>
		<sliceSourceBounds  bottomLeftOrigin="true" height="17.2" width="14" x="2" y="0.4"></sliceSourceBounds>
	</sfw>
</metadata>
<g>
	<path class="st0" d="M14.1,12.4v0.4h-0.8v-0.4c0-0.4,0.1-0.6,0.4-0.6C14,11.8,14.1,12,14.1,12.4z M10.5,11.8
		c-0.1,0-0.3,0.1-0.4,0.2v2.8c0.1,0.1,0.3,0.2,0.4,0.2c0.2,0,0.4-0.2,0.4-0.6v-2C10.9,12,10.8,11.8,10.5,11.8z M16,12.7
		c0,1.1,0,2.2-0.2,3.3c-0.2,0.7-0.8,1.3-1.5,1.4c-1.7,0.2-3.5,0.2-5.2,0.2s-3.5,0-5.2-0.2C3,17.3,2.4,16.8,2.2,16
		C2,15,2,13.8,2,12.7s0-2.2,0.2-3.3C2.4,8.7,3,8.1,3.8,8C5.5,7.8,7.3,7.8,9,7.8s3.5,0,5.2,0.2c0.7,0.1,1.3,0.6,1.5,1.4
		C16,10.5,16,11.6,16,12.7z M6,9.5H3v0.9h1v5.4h1v-5.4h1V9.5z M8.5,11.1H7.7v3.6C7.5,14.9,7.3,15,7.2,15C7.1,15,7,15,7,14.8
		c0,0,0-0.1,0-0.3v-3.4H6.1v3.7c0,0.3,0,0.6,0.1,0.7c0.1,0.2,0.3,0.3,0.5,0.3c0.3,0,0.6-0.2,1-0.6v0.5h0.8V11.1z M11.8,12.5
		c0-0.4,0-0.8-0.1-0.9C11.6,11.2,11.3,11,11,11s-0.6,0.2-0.9,0.5v-2H9.3v6.3h0.8v-0.5c0.3,0.3,0.6,0.5,0.9,0.5
		c0.3,0,0.6-0.2,0.7-0.5c0.1-0.2,0.1-0.5,0.1-0.9V12.5z M15,12.6c0-0.5-0.1-0.9-0.3-1.1c-0.2-0.3-0.6-0.5-1-0.5s-0.8,0.2-1,0.5
		c-0.2,0.2-0.3,0.6-0.3,1.1v1.6c0,0.5,0.1,0.9,0.3,1.1c0.2,0.3,0.6,0.5,1,0.5s0.8-0.2,1-0.5c0.1-0.1,0.2-0.3,0.2-0.5
		c0-0.1,0-0.3,0-0.5v-0.1H14c0,0.3,0,0.5,0,0.6c0,0.2-0.2,0.3-0.4,0.3c-0.3,0-0.4-0.2-0.4-0.6v-0.8H15V12.6z"/>
	<path class="st0" d="M6.6,4.2v2.6H5.7V4.2c-0.1-0.5-0.3-1.1-0.6-2C4.9,1.6,4.7,1,4.5,0.4h1l0.7,2.5l0.6-2.5h1L6.6,4.2z M10.1,6.3
		c-0.2,0.3-0.6,0.5-1,0.5s-0.8-0.2-1-0.5C7.9,6.1,7.8,5.7,7.8,5.2V3.6c0-0.5,0.1-0.9,0.3-1.1C8.3,2.1,8.6,2,9.1,2
		c0.4,0,0.8,0.2,1,0.5c0.2,0.2,0.3,0.6,0.3,1.1v1.7C10.3,5.7,10.2,6.1,10.1,6.3z M9.5,3.4c0-0.4-0.1-0.7-0.4-0.7
		C8.8,2.7,8.7,3,8.7,3.4v2C8.7,5.8,8.8,6,9.1,6s0.4-0.2,0.4-0.7V3.4z M12.6,6.7V6.2c-0.3,0.4-0.7,0.6-1,0.6S11.1,6.7,11,6.4
		c0-0.1-0.1-0.4-0.1-0.7V2h0.9v3.5c0,0.2,0,0.3,0,0.3C11.9,6,12,6,12.1,6c0.2,0,0.4-0.1,0.5-0.4V2h0.9v4.7H12.6z"/>
</g>
</svg>
