<?xml version="1.0" encoding="utf-8"?>
<!-- Generator: Adobe Illustrator 22.0.1, SVG Export Plug-In . SVG Version: 6.00 Build 0)  -->
<!DOCTYPE svg PUBLIC "-//W3C//DTD SVG 1.1//EN" "http://www.w3.org/Graphics/SVG/1.1/DTD/svg11.dtd" [
	<!ENTITY ns_extend "http://ns.adobe.com/Extensibility/1.0/">
	<!ENTITY ns_ai "http://ns.adobe.com/AdobeIllustrator/10.0/">
	<!ENTITY ns_graphs "http://ns.adobe.com/Graphs/1.0/">
	<!ENTITY ns_vars "http://ns.adobe.com/Variables/1.0/">
	<!ENTITY ns_imrep "http://ns.adobe.com/ImageReplacement/1.0/">
	<!ENTITY ns_sfw "http://ns.adobe.com/SaveForWeb/1.0/">
	<!ENTITY ns_custom "http://ns.adobe.com/GenericCustomNamespace/1.0/">
	<!ENTITY ns_adobe_xpath "http://ns.adobe.com/XPath/1.0/">
]>
<svg version="1.1" id="Isolation_Mode" xmlns:x="&ns_extend;" xmlns:i="&ns_ai;" xmlns:graph="&ns_graphs;"
	 xmlns="http://www.w3.org/2000/svg" xmlns:xlink="http://www.w3.org/1999/xlink" x="0px" y="0px" width="617.3px" height="626px"
	 viewBox="0 0 617.3 626" style="enable-background:new 0 0 617.3 626;" xml:space="preserve">
<style type="text/css">
	.st0{fill:#2F1C46;}
	.st1{fill:#5F2F8E;}
	.st2{clip-path:url(#SVGID_2_);}
	.st3{fill:#FD7CFC;}
	.st4{fill:#161616;}
	.st5{fill:url(#SVGID_3_);}
	.st6{fill:#EFEAF3;}
</style>
<metadata>
	<sfw  xmlns="&ns_sfw;">
		<slices></slices>
		<sliceSourceBounds  bottomLeftOrigin="true" height="626" width="617.3" x="-62.3" y="0"></sliceSourceBounds>
	</sfw>
</metadata>
<g>
	<rect x="62.3" y="487.5" class="st0" width="555" height="14.3"/>
	<rect x="270.1" y="561.4" class="st0" width="139.4" height="14.3"/>
	<rect x="311.9" y="501.8" class="st1" width="55.8" height="59.6"/>
	<rect x="62.3" y="227" class="st0" width="555" height="14.3"/>
	<rect x="83.8" y="241.3" class="st1" width="512" height="246.2"/>
	<path class="st0" d="M428.8,456.3L428.8,456.3c-10.1,0-18.4-8.2-18.4-18.4v-147c0-10.1,8.2-18.4,18.4-18.4l0,0
		c10.1,0,18.4,8.2,18.4,18.4v147C447.2,448,439,456.3,428.8,456.3z M566.7,437.9v-147c0-10.1-8.2-18.4-18.4-18.4l0,0
		c-10.1,0-18.4,8.2-18.4,18.4v147c0,10.1,8.2,18.4,18.4,18.4l0,0C558.5,456.3,566.7,448,566.7,437.9z M387.4,437.9v-147
		c0-10.1-8.2-18.4-18.4-18.4l0,0c-10.1,0-18.4,8.2-18.4,18.4v147c0,10.1,8.2,18.4,18.4,18.4l0,0C379.2,456.3,387.4,448,387.4,437.9z
		 M267.8,437.9v-147c0-10.1-8.2-18.4-18.4-18.4l0,0c-10.1,0-18.4,8.2-18.4,18.4v147c0,10.1,8.2,18.4,18.4,18.4l0,0
		C259.6,456.3,267.8,448,267.8,437.9z M148.3,437.9v-147c0-10.1-8.2-18.4-18.4-18.4l0,0c-10.1,0-18.4,8.2-18.4,18.4v147
		c0,10.1,8.2,18.4,18.4,18.4l0,0C140.1,456.3,148.3,448,148.3,437.9z M208.1,437.9v-147c0-10.1-8.2-18.4-18.4-18.4l0,0
		c-10.1,0-18.4,8.2-18.4,18.4v147c0,10.1,8.2,18.4,18.4,18.4l0,0C199.8,456.3,208.1,448,208.1,437.9z M506.9,437.9v-147
		c0-10.1-8.2-18.4-18.4-18.4l0,0c-10.1,0-18.4,8.2-18.4,18.4v147c0,10.1,8.2,18.4,18.4,18.4l0,0C498.7,456.3,506.9,448,506.9,437.9z
		 M327.6,437.9v-147c0-10.1-8.2-18.4-18.4-18.4l0,0c-10.1,0-18.4,8.2-18.4,18.4v147c0,10.1,8.2,18.4,18.4,18.4l0,0
		C319.4,456.3,327.6,448,327.6,437.9z"/>
	<g>
		<g>
			<defs>
				<path id="SVGID_1_" d="M440.6,456.3h-23.5c-3.6,0-6.6-2.9-6.6-6.6V279.1c0-3.6,2.9-6.6,6.6-6.6h23.5c3.6,0,6.6,2.9,6.6,6.6
					v170.6C447.2,453.3,444.2,456.3,440.6,456.3z M566.7,449.7V279.1c0-3.6-2.9-6.6-6.6-6.6h-23.5c-3.6,0-6.6,2.9-6.6,6.6v170.6
					c0,3.6,2.9,6.6,6.6,6.6h23.5C563.8,456.3,566.7,453.3,566.7,449.7z M387.4,449.7V279.1c0-3.6-2.9-6.6-6.6-6.6h-23.5
					c-3.6,0-6.6,2.9-6.6,6.6v170.6c0,3.6,2.9,6.6,6.6,6.6h23.5C384.4,456.3,387.4,453.3,387.4,449.7z M267.8,449.7V279.1
					c0-3.6-2.9-6.6-6.6-6.6h-23.5c-3.6,0-6.6,2.9-6.6,6.6v170.6c0,3.6,2.9,6.6,6.6,6.6h23.6C264.9,456.3,267.8,453.3,267.8,449.7z
					 M148.3,449.7V279.1c0-3.6-2.9-6.6-6.6-6.6h-23.5c-3.6,0-6.6,2.9-6.6,6.6v170.6c0,3.6,2.9,6.6,6.6,6.6h23.5
					C145.3,456.3,148.3,453.3,148.3,449.7z M208.1,449.7V279.1c0-3.6-2.9-6.6-6.6-6.6H178c-3.6,0-6.6,2.9-6.6,6.6v170.6
					c0,3.6,2.9,6.6,6.6,6.6h23.5C205.1,456.3,208.1,453.3,208.1,449.7z M506.9,449.7V279.1c0-3.6-2.9-6.6-6.6-6.6h-23.5
					c-3.6,0-6.6,2.9-6.6,6.6v170.6c0,3.6,2.9,6.6,6.6,6.6h23.5C504,456.3,506.9,453.3,506.9,449.7z M327.6,449.7V279.1
					c0-3.6-2.9-6.6-6.6-6.6h-23.5c-3.6,0-6.6,2.9-6.6,6.6v170.6c0,3.6,2.9,6.6,6.6,6.6H321C324.7,456.3,327.6,453.3,327.6,449.7z"/>
			</defs>
			<clipPath id="SVGID_2_">
				<use xlink:href="#SVGID_1_"  style="overflow:visible;"/>
			</clipPath>
			<g class="st2">
				<g>
					<path class="st3" d="M559.1,315.6l-3.9,3.7c-0.3,0.3-0.9,0.3-1.2,0l-6.5-6.9c-0.6-0.6,0-1.6,0.9-1.4l10.4,3.2
						C559.4,314.4,559.6,315.1,559.1,315.6z"/>
					<path class="st3" d="M566.6,336.4l13.2,7.5h6.8c2.2,0,4-1.8,4-4l0,0c0-1-0.4-1.9-1-2.7l-11.8-13.4c-5.1-5.8-12.5-9.1-20.3-9.1
						l0,0L525,336.5l-28.2,4.4l-12.7-2.9c-4-0.9-8.2-0.7-12,0.7l0,0c-9.1,3.2-14.9,12-14.3,21.7l0,0c0.6,9.1,9.1,15.5,17.9,13.5
						l14.9-3.3l19.5,4.1c9,1.9,18.3,1.7,27.2-0.5l19.6-4.9l-3.9-16.6c-0.8-3.4,0.6-6.9,3.4-8.9L566.6,336.4z"/>
					<g>
						<path class="st3" d="M482.4,380.3l0.1,14.6l-0.9-2.1l17.7,19.2l-0.6-0.5l8.3,4.4l-1.9,3.8l-8.5-4c-0.2-0.1-0.4-0.2-0.5-0.4
							l-0.1-0.1l-18.6-18.1c-0.5-0.5-0.8-1.2-0.9-1.9V395l-0.9-14.6L482.4,380.3z"/>
					</g>
					<g>
						<path class="st3" d="M478.2,367.1l5.4,15l-1.7-1.7l22.2,9.7l-0.8-0.1l8.3,0.3v4.3l-8.3,0.3c-0.3,0-0.5,0-0.8-0.1l-0.1-0.1
							l-22.7-8.6c-0.8-0.3-1.3-0.9-1.6-1.5l-0.1-0.2l-6.3-14.6L478.2,367.1z"/>
					</g>
					<g>
						<path class="st3" d="M541.2,364.4l30.3,11.6l0.1,0.1c0.9,0.3,1.4,1.1,1.6,1.9l4.6,20.6l-4.2,1.1l-5.8-20.3l1.8,1.9L538.9,371
							L541.2,364.4z"/>
					</g>
					<g>
						<path class="st3" d="M535.4,366.5l27.7,21.6l0.1,0.1c1.3,1,1.5,2.8,0.5,4.1c0,0,0,0.1-0.1,0.1l-10.1,12.1l-0.1,0.1
							c-0.6,0.7-1.6,1-2.4,0.7l-9.1-2.6l1.1-4.2l9.2,2.1l-2.5,0.9l9.1-12.8l0.6,4.3l-28.3-20.9L535.4,366.5z"/>
					</g>
					<polygon class="st3" points="459.4,366.3 477.5,395.2 478.9,361.7 459.4,360.4 					"/>
					<path class="st3" d="M430.1,365.6c-4,3.6-9.2,5.7-14.6,5.8l-14.5,0.2l11.4-5c2.3-1,4.5-2.4,6.3-4.2l6.2-5.8
						c4.1-3.9,9.6-6.1,15.2-6.1h22.3l-0.5,0.6c-4.4,5.4-10.9,8.6-17.8,8.8l0,0C438.9,360.1,433.9,362.1,430.1,365.6L430.1,365.6z"/>
				</g>
				<g>
					<path class="st3" d="M363.8,314.9l-5.1,1.6c-0.4,0.1-0.9-0.1-1-0.6l-2.8-9.1c-0.3-0.8,0.7-1.4,1.4-0.9l7.9,7.5
						C364.6,314,364.4,314.7,363.8,314.9z"/>
					<path class="st3" d="M368.8,333.7l13.2,7.5h6.8c2.2,0,4-1.8,4-4l0,0c0-1-0.4-1.9-1-2.7L380,321c-5.1-5.8-12.5-9.1-20.3-9.1l0,0
						l-32.5,21.8l-28.2,4.4l-12.7-2.9c-4-0.9-8.2-0.7-12,0.7l0,0c-9.1,3.2-14.9,12-14.3,21.7l0.6,9.3c0.3,4.2,4.2,7.1,8.3,6.2
						l24-5.3l19.5,4.1c9,1.9,18.3,1.7,27.2-0.5l19.6-4.9l-3.9-16.6c-0.8-3.4,0.6-6.9,3.4-8.9L368.8,333.7z"/>
					<g>
						<path class="st3" d="M279.4,368.8l-13.1,27.9l0.1-2.2l8.3,23.4l-1.1-1.3l8.3,4.4l-1.9,3.8l-8.5-4c-0.5-0.2-0.9-0.7-1.1-1.2
							v-0.1l-9.3-23.1c-0.3-0.7-0.3-1.4,0-2.1v-0.1l12-28.4L279.4,368.8z"/>
					</g>
					<g>
						<path class="st3" d="M288.6,360.1l9.2,30.4l-1.6-1.8l22.3,9.6l-0.9-0.2l11.6,0.2v4.3l-11.6,0.2c-0.3,0-0.6,0-0.8-0.1h-0.1
							l-22.6-8.7c-0.8-0.3-1.3-0.9-1.6-1.6v-0.1l-10.4-30L288.6,360.1z"/>
					</g>
					<g>
						<path class="st3" d="M333.8,364l43.9,10.7h0.1c0.6,0.2,1.1,0.5,1.5,1l15.3,20.8l-3.4,2.6L374.9,379l1.6,1l-44.2-9.4L333.8,364
							z"/>
					</g>
					<g>
						<path class="st3" d="M351.2,363l17.1,1.3h0.2c1.6,0.1,2.9,1.6,2.7,3.2c0,0.3-0.1,0.7-0.2,0.9l-9.1,21.4l-0.1,0.1
							c-0.2,0.4-0.5,0.7-0.8,1l-8.7,5.9l-2.5-3.5l8.4-6.4l-0.8,1.1l8-21.9l2.7,4.2l-17.1-0.4L351.2,363z"/>
					</g>
					<path class="st4" d="M260.6,366.5"/>
					<polygon class="st3" points="260.6,366.5 263.6,388.1 275.6,368.8 					"/>
					<path class="st3" d="M268.1,346.3h-30.2c-2.8,0-5.5,1-7.6,2.9l-7,6.1c-2.5,2.2-4,5.4-4,8.8l0,0c0,3.2-1.3,6.2-3.5,8.4l-7.3,7
						l19.3-8.9c2.2-1,4-2.7,5.2-4.8l2-3.6c2-3.5,5.7-5.8,9.8-5.9l4.8-0.1c2.1-0.1,4.2-0.7,6-1.8L268.1,346.3z"/>
				</g>
				<g>
					<path class="st3" d="M177.3,340.4l13.2,7.5h6.8c2.2,0,4-1.8,4-4l0,0c0-1-0.4-1.9-1-2.7l-11.8-13.4c-5.1-5.8-12.5-9.1-20.3-9.1
						l0,0l-32.5,21.8l-28.2,4.4L94.8,342c-4-0.9-8.2-0.7-12,0.7l0,0c-9.1,3.2-14.9,12-14.3,21.7l1.1,17.2l31.7-7l19.5,4.1
						c9,1.9,18.3,1.7,27.2-0.5l19.6-4.9l-3.9-16.6c-0.8-3.4,0.6-6.9,3.4-8.9L177.3,340.4z"/>
					<g>
						<path class="st3" d="M149.5,363l27.5,23.7l-0.6-0.4l21.2,10.5l-1.8,3.9l-21.7-9.6c-0.2-0.1-0.3-0.2-0.5-0.3l-0.1-0.1
							L145,368.3L149.5,363z"/>
					</g>
					<g>
						<path class="st3" d="M162.3,367.6l12.5,0.4h0.2c1.7,0.1,3,1.4,2.9,3.1c0,0.1,0,0.2,0,0.2l-1.9,17.6v0.2c0,0.3-0.1,0.5-0.2,0.8
							l-5.3,9.9l-3.9-1.9l4.6-10.2l-0.3,0.9l0.7-17.6l3.1,3.3l-12.5,0.4v-7.1H162.3z"/>
					</g>
					<g>
						<path class="st3" d="M90.7,376l-0.3,22.7l-0.2-0.7l10.7,15.4l-0.4-0.4l8.7,3.7l-0.7,1.7l-8.8-3.5c-0.2-0.1-0.3-0.2-0.4-0.3
							l0,0l-11-15.2c-0.2-0.2-0.2-0.5-0.2-0.7l0,0L87.7,376H90.7z"/>
					</g>
					<g>
						<path class="st3" d="M73.7,377.3l-19.8,12.5l0.5-0.7l-6.3,18.3l-0.1-0.9l5.2,8.4l-1.6,1l-5.3-8.3c-0.2-0.3-0.2-0.6-0.1-0.8
							l0,0l5.9-18.4c0.1-0.3,0.3-0.5,0.5-0.6l0,0l19.5-12.9L73.7,377.3z"/>
					</g>
					<path class="st3" d="M173.4,322.3h-5.3c-0.5,0-0.8-0.4-0.8-0.8V312c0-0.9,1.1-1.2,1.6-0.4l5.3,9.5
						C174.4,321.6,174,322.3,173.4,322.3z"/>
					<path class="st3" d="M74.2,350.4l-12.3,0.9c-2.7,0.2-5.4,1.1-7.7,2.6l-13.8,9c-4.1,2.7-9.1,3.3-13.8,1.9l-12.9-4.1l12.8,9.6
						c6.3,4.7,15.1,4.2,20.9-1.3l0,0c0.4-0.4,0.9-0.8,1.4-1.2c2.8-2.1,11.4-8.5,12.3-9L74.2,350.4z"/>
				</g>
			</g>
		</g>
	</g>
</g>
<linearGradient id="SVGID_3_" gradientUnits="userSpaceOnUse" x1="354.5261" y1="227.9957" x2="354.5261" y2="278.2957" gradientTransform="matrix(1 0 0 -1 0 853.9914)">
	<stop  offset="0" style="stop-color:#FFFFFF;stop-opacity:0"/>
	<stop  offset="1" style="stop-color:#EFEAF3"/>
</linearGradient>
<path class="st5" d="M576.2,626H132.8l0,0c0-27.8,22.5-50.3,50.3-50.3h342.8C553.7,575.7,576.2,598.2,576.2,626L576.2,626z"/>
<path class="st6" d="M99.9,66.2c1.2,0,2.4,0,3.6,0.1c25.2,0.9,49.8-8.6,66.9-27.2C192.6,15.1,224.3,0,259.6,0
	c43,0,80.7,22.3,102.3,56c4.1,6.4,11.1,10.2,18.7,10.2c0.2,0,0.3,0,0.5,0c26.2,0,50.9,6.7,72.3,18.5c47.4,26,16.9,41.7,70.5,48.5
	l11.7,11.6h-22.2H402.2H0C10.9,99.7,51.4,66.2,99.9,66.2z"/>
</svg>
