<?xml version="1.0" encoding="utf-8"?>
<!-- Generator: Adobe Illustrator 20.0.0, SVG Export Plug-In . SVG Version: 6.00 Build 0)  -->
<!DOCTYPE svg PUBLIC "-//W3C//DTD SVG 1.1//EN" "http://www.w3.org/Graphics/SVG/1.1/DTD/svg11.dtd" [
	<!ENTITY ns_extend "http://ns.adobe.com/Extensibility/1.0/">
	<!ENTITY ns_ai "http://ns.adobe.com/AdobeIllustrator/10.0/">
	<!ENTITY ns_graphs "http://ns.adobe.com/Graphs/1.0/">
	<!ENTITY ns_vars "http://ns.adobe.com/Variables/1.0/">
	<!ENTITY ns_imrep "http://ns.adobe.com/ImageReplacement/1.0/">
	<!ENTITY ns_sfw "http://ns.adobe.com/SaveForWeb/1.0/">
	<!ENTITY ns_custom "http://ns.adobe.com/GenericCustomNamespace/1.0/">
	<!ENTITY ns_adobe_xpath "http://ns.adobe.com/XPath/1.0/">
]>
<svg version="1.1" id="art" xmlns:x="&ns_extend;" xmlns:i="&ns_ai;" xmlns:graph="&ns_graphs;"
	 xmlns="http://www.w3.org/2000/svg" xmlns:xlink="http://www.w3.org/1999/xlink" x="0px" y="0px" width="181.7px" height="243px"
	 viewBox="0 0 181.7 243" style="enable-background:new 0 0 181.7 243;" xml:space="preserve">
<style type="text/css">
	.st0{fill:#F4A04D;}
	.st1{fill:url(#SVGID_1_);}
	.st2{fill:#C8495B;}
	.st3{fill:none;stroke:#F4A04D;stroke-width:2;stroke-miterlimit:10;}
	.st4{fill:none;stroke:#F4A04D;stroke-miterlimit:10;}
	.st5{fill:#2F1C46;}
	.st6{fill:none;stroke:#C8495B;stroke-width:2;stroke-miterlimit:10;}
	.st7{fill:url(#SVGID_2_);}
</style>
<metadata>
	<sfw  xmlns="&ns_sfw;">
		<slices></slices>
		<sliceSourceBounds  bottomLeftOrigin="true" height="169.7" width="181.7" x="0" y="0"></sliceSourceBounds>
	</sfw>
</metadata>
<polygon class="st0" points="118.1,128.6 0,196.6 0,130.2 118.1,62.2 "/>
<linearGradient id="SVGID_1_" gradientUnits="userSpaceOnUse" x1="-14.3576" y1="71.5181" x2="132.4576" y2="156.2819" gradientTransform="matrix(1 0 0 -1 0 243.3)">
	<stop  offset="0" style="stop-color:#C8495B;stop-opacity:0"/>
	<stop  offset="1" style="stop-color:#C8495B;stop-opacity:0.5"/>
</linearGradient>
<polygon class="st1" points="118.1,128.6 0,196.6 0,130.2 118.1,62.2 "/>
<polygon class="st2" points="118.1,128.6 162.3,103.1 162.3,36.7 118.1,62.2 "/>
<g>
	<path class="st0" d="M128.4,73.4l-0.3,1.9l-1.2,0.7l1.5-8.6l1.6-0.9l1.6,6.9l-1.2,0.7l-0.3-1.5L128.4,73.4z M129.2,68.2l-0.6,3.8
		l1.3-0.7L129.2,68.2z"/>
	<path class="st0" d="M132.4,64.9l1.9-1.1c1.5-0.9,2.2-0.5,2.2,1.1v2.9c0,1.7-0.7,2.9-2.2,3.7l-1.9,1.1V64.9z M134.2,70.6
		c0.9-0.5,1.2-1.1,1.2-2.3v-2.2c0-1.2-0.3-1.5-1.2-1l-0.6,0.3v5.6L134.2,70.6z"/>
	<path class="st0" d="M143.3,66.4l-1.1,0.7v-5.7l-1.4,6.5l-0.7,0.4l-1.3-4.9v5.7l-1.1,0.7V62l1.8-1l1.1,4.3l1.1-5.5l1.7-1v7.6H143.3
		z"/>
	<path class="st0" d="M145.7,64.9l-1.2,0.7v-7.8l1.2-0.7V64.9z"/>
	<path class="st0" d="M149.3,63l-1.2,0.7V57l-1.5,0.9v-1.1l4.2-2.4v1.1l-1.5,0.9V63z"/>
	<path class="st0" d="M134.1,82.4c0,1.4-0.2,2.3-0.7,3.3c-0.6,1.1-1.5,2-2.7,2.7c-1.2,0.7-2.1,0.8-2.7,0.4c-0.5-0.4-0.7-1.1-0.7-2.5
		v-4.5c0-1.4,0.2-2.3,0.7-3.3c0.6-1.1,1.5-2,2.7-2.7c1.2-0.7,2.1-0.8,2.7-0.4c0.5,0.4,0.7,1.1,0.7,2.5V82.4z M129.3,85.2
		c0,1,0.1,1.3,0.2,1.5c0.2,0.3,0.7,0.3,1.2,0s1-0.8,1.2-1.4c0.2-0.5,0.2-0.8,0.2-1.8v-4.4c0-1,0-1.3-0.2-1.5c-0.2-0.3-0.7-0.3-1.2,0
		c-0.5,0.3-1,0.8-1.2,1.4c-0.2,0.5-0.2,0.8-0.2,1.8V85.2z"/>
	<path class="st0" d="M142.7,81.4l-1.7,1l-3.3-6.3v8.2l-1.8,1V72.9l1.9-1.1l3.1,5.9v-7.7l1.8-1V81.4z"/>
	<path class="st0" d="M150.2,66.4l-3.7,2.1v3.2l2.7-1.6v1.8l-2.7,1.6v3.8l3.7-2.1v1.8l-5.6,3.2V67.9l5.6-3.2V66.4z"/>
</g>
<line class="st3" x1="128.5" y1="99.2" x2="128.5" y2="113.5"/>
<line class="st4" x1="138.7" y1="93.4" x2="138.7" y2="107.6"/>
<line class="st4" x1="148.9" y1="87.4" x2="148.9" y2="101.7"/>
<line class="st4" x1="145.5" y1="89.4" x2="145.5" y2="103.7"/>
<line class="st3" x1="142.1" y1="91.4" x2="142.1" y2="105.7"/>
<line class="st4" x1="131.9" y1="97.2" x2="131.9" y2="111.5"/>
<line class="st3" x1="135.3" y1="95.2" x2="135.3" y2="109.6"/>
<g>
	<path class="st5" d="M23.1,146.8l2.9-1.7c0.6-0.4,1.2-0.6,1.7-0.7s1-0.1,1.3,0.1c0.4,0.1,0.7,0.4,0.9,0.7c0.2,0.4,0.3,0.8,0.3,1.4
		l0,0c0,0.6-0.1,1.1-0.3,1.7c-0.2,0.6-0.5,1.2-0.9,1.7c-0.4,0.6-0.8,1.1-1.3,1.6s-1.1,0.9-1.7,1.3l-2.9,1.7V146.8z M26,151.6
		c0.4-0.2,0.8-0.5,1.1-0.8c0.3-0.3,0.6-0.7,0.9-1c0.2-0.4,0.4-0.8,0.6-1.2c0.1-0.4,0.2-0.8,0.2-1.2l0,0c0-0.4-0.1-0.7-0.2-1
		c-0.1-0.3-0.3-0.4-0.6-0.5c-0.2-0.1-0.5-0.1-0.9-0.1c-0.3,0.1-0.7,0.2-1.1,0.4l-1.5,0.9v5.4L26,151.6z"/>
	<path class="st5" d="M34.2,140.4l5.8-3.4v1.2l-4.4,2.6v2l3.9-2.3v1.2l-3.9,2.3v2.1l4.5-2.6v1.2l-5.9,3.4
		C34.2,148,34.2,140.4,34.2,140.4z"/>
	<path class="st5" d="M43.9,134.8l1.5-0.8l2.4,2.3l2.4-5.1l1.5-0.8v7.9l-1.4,0.8v-5.6l-2.5,5.1l0,0l-2.5-2.3v5.6l-1.4,0.8V134.8z"/>
	<path class="st5" d="M59.1,134c-0.5,0.3-1,0.5-1.4,0.6s-0.8,0.1-1.1,0s-0.5-0.4-0.7-0.7c-0.2-0.3-0.2-0.8-0.2-1.4V128l1.4-0.8v4.5
		c0,0.7,0.2,1.2,0.5,1.4c0.4,0.2,0.8,0.1,1.5-0.3c0.6-0.4,1.1-0.8,1.5-1.4c0.4-0.6,0.5-1.2,0.5-1.9v-4.5l1.4-0.8v4.5
		c0,0.6-0.1,1.1-0.2,1.7c-0.2,0.5-0.4,1-0.7,1.5s-0.6,0.9-1.1,1.3C60.1,133.2,59.6,133.6,59.1,134z"/>
	<path class="st5" d="M71.7,118.7l1.6-0.9l-5.7,11.1l-1.6,0.9L71.7,118.7z"/>
	<polygon class="st2" points="66.6,119.7 64.7,120.8 68.1,123.7 69.1,121.8 	"/>
	<polygon class="st2" points="71.3,123.7 70.3,125.6 73,127.8 74.9,126.7 	"/>
	<path class="st5" d="M77.1,115.6l5.8-3.4v1.2l-4.4,2.6v2l3.9-2.3v1.2l-3.9,2.3v2.1l4.5-2.6v1.2l-5.9,3.4V115.6z"/>
	<path class="st5" d="M86.8,110l2.9-1.7c0.6-0.4,1.2-0.6,1.7-0.7s1-0.1,1.3,0.1c0.4,0.1,0.7,0.4,0.9,0.7c0.2,0.4,0.3,0.8,0.3,1.4
		l0,0c0,0.6-0.1,1.1-0.3,1.7c-0.2,0.6-0.5,1.2-0.9,1.7c-0.4,0.6-0.8,1.1-1.3,1.6s-1.1,0.9-1.7,1.3l-2.9,1.7V110z M89.8,114.8
		c0.4-0.2,0.8-0.5,1.1-0.8c0.3-0.3,0.6-0.7,0.9-1c0.2-0.4,0.4-0.8,0.6-1.2c0.1-0.4,0.2-0.8,0.2-1.2l0,0c0-0.4-0.1-0.7-0.2-1
		s-0.3-0.4-0.6-0.5c-0.2-0.1-0.5-0.1-0.9-0.1c-0.3,0.1-0.7,0.2-1.1,0.4l-1.5,0.9v5.4L89.8,114.8z"/>
</g>
<path class="st6" d="M107.3,116.8V87.4c-5.1,3-9.3,1.2-9.3-3.9l-79,45.5c0,5.1-4.2,11.7-9.3,14.6V173c5.1-3,9.3-1.2,9.3,3.9
	l79.1-45.6C98.1,126.2,102.2,119.7,107.3,116.8z"/>
<polygon class="st0" points="137.5,138.2 19.4,206.4 19.5,140 137.5,71.9 "/>
<linearGradient id="SVGID_2_" gradientUnits="userSpaceOnUse" x1="5.0549" y1="61.7965" x2="151.8701" y2="146.5602" gradientTransform="matrix(1 0 0 -1 0 243.3)">
	<stop  offset="0.5802" style="stop-color:#C8495B;stop-opacity:0"/>
	<stop  offset="1" style="stop-color:#C8495B;stop-opacity:0.5"/>
</linearGradient>
<polygon class="st7" points="137.5,138.2 19.4,206.4 19.5,140 137.5,71.9 "/>
<polygon class="st2" points="137.5,138.2 181.7,112.8 181.7,46.4 137.5,71.9 "/>
<g>
	<path class="st0" d="M147.8,85.9l-0.3,1.9l-1.2,0.7l1.5-8.6l1.6-0.9L151,86l-1.2,0.7l-0.3-1.5L147.8,85.9z M148.7,80.9l-0.6,3.8
		l1.3-0.7L148.7,80.9z"/>
	<path class="st0" d="M151.9,77.6l1.9-1.1c1.5-0.9,2.2-0.5,2.2,1.1v2.9c0,1.7-0.7,2.9-2.2,3.7l-1.9,1.1V77.6z M153.7,83.2
		c0.9-0.5,1.2-1.1,1.2-2.3v-2.2c0-1.2-0.3-1.5-1.2-1l-0.6,0.3v5.6L153.7,83.2z"/>
	<path class="st0" d="M162.8,79.1l-1.1,0.7v-5.7l-1.4,6.5l-0.7,0.4l-1.3-4.9v5.6l-1.1,0.7v-7.8l1.8-1l1.1,4.3l1.1-5.5l1.7-1v7.7
		H162.8z"/>
	<path class="st0" d="M165.2,77.7l-1.2,0.7v-7.8l1.2-0.7V77.7z"/>
	<path class="st0" d="M168.7,75.6l-1.2,0.7v-6.6l-1.5,0.9v-1.1l4.2-2.4v1.1l-1.5,0.9V75.6z"/>
	<path class="st0" d="M153.6,95.1c0,1.4-0.2,2.3-0.7,3.3c-0.6,1.1-1.5,2-2.7,2.7s-2.1,0.8-2.7,0.4c-0.5-0.4-0.7-1.1-0.7-2.5v-4.5
		c0-1.4,0.2-2.3,0.7-3.3c0.6-1.1,1.5-2,2.7-2.7s2.1-0.8,2.7-0.4c0.5,0.4,0.7,1.1,0.7,2.5V95.1z M148.7,97.8c0,1,0.1,1.3,0.2,1.5
		c0.2,0.3,0.7,0.3,1.2,0s1-0.8,1.2-1.4c0.2-0.5,0.2-0.8,0.2-1.8v-4.4c0-1,0-1.3-0.2-1.5c-0.2-0.3-0.7-0.3-1.2,0s-1,0.8-1.2,1.4
		c-0.2,0.5-0.2,0.8-0.2,1.8V97.8z"/>
	<path class="st0" d="M162.1,93.9l-1.7,1l-3.3-6.3v8.2l-1.8,1V85.6l1.9-1.1l3.1,5.9v-7.7l1.8-1V93.9z"/>
	<path class="st0" d="M169.6,79.2l-3.7,2.1v3.2l2.7-1.6v1.8l-2.7,1.6v3.8l3.7-2.1v1.7l-5.6,3.2V80.6l5.6-3.2V79.2z"/>
</g>
<g>
	<line class="st3" x1="148.9" y1="107.1" x2="148.9" y2="121.2"/>
	<line class="st4" x1="159.1" y1="101.2" x2="159.1" y2="115.3"/>
	<line class="st4" x1="169.3" y1="95.2" x2="169.3" y2="109.5"/>
	<line class="st4" x1="165.9" y1="97.2" x2="165.9" y2="111.5"/>
	<line class="st3" x1="162.5" y1="99.2" x2="162.5" y2="113.3"/>
	<line class="st4" x1="152.3" y1="105.1" x2="152.3" y2="119.2"/>
	<line class="st3" x1="155.7" y1="103.1" x2="155.7" y2="117.3"/>
</g>
<g>
	<path class="st5" d="M42.6,156.5l2.9-1.7c0.6-0.4,1.2-0.6,1.7-0.7c0.5-0.1,1-0.1,1.3,0.1c0.4,0.1,0.7,0.4,0.9,0.7
		c0.2,0.4,0.3,0.8,0.3,1.4l0,0c0,0.6-0.1,1.1-0.3,1.7c-0.2,0.6-0.5,1.2-0.9,1.7c-0.4,0.6-0.8,1.1-1.3,1.6s-1.1,0.9-1.7,1.3l-2.9,1.7
		V156.5z M45.5,161.4c0.4-0.2,0.8-0.5,1.1-0.8c0.3-0.3,0.6-0.7,0.9-1c0.2-0.4,0.4-0.8,0.6-1.2c0.1-0.4,0.2-0.8,0.2-1.2l0,0
		c0-0.4-0.1-0.7-0.2-1c-0.1-0.3-0.3-0.4-0.6-0.5c-0.2-0.1-0.5-0.1-0.9-0.1c-0.3,0.1-0.7,0.2-1.1,0.4l-1.5,0.9v5.4L45.5,161.4z"/>
	<path class="st5" d="M53.6,150.1l5.8-3.4v1.2l-4.4,2.6v2l3.9-2.3v1.2l-3.9,2.3v2.1l4.5-2.6v1.2l-5.9,3.4
		C53.6,157.8,53.6,150.1,53.6,150.1z"/>
	<path class="st5" d="M63.4,144.5l1.5-0.8l2.4,2.3l2.4-5.1l1.5-0.8v7.9l-1.4,0.8v-5.6l-2.5,5.1l0,0l-2.5-2.3v5.6l-1.4,0.8V144.5z"/>
	<path class="st5" d="M78.6,143.6c-0.5,0.3-1,0.5-1.4,0.6s-0.8,0.1-1.1,0c-0.3-0.1-0.5-0.4-0.7-0.7s-0.2-0.8-0.2-1.4v-4.5l1.4-0.8
		v4.5c0,0.7,0.2,1.2,0.5,1.4c0.4,0.2,0.8,0.1,1.5-0.3c0.6-0.4,1.1-0.8,1.5-1.4c0.4-0.6,0.5-1.2,0.5-1.9v-4.5l1.4-0.8v4.5
		c0,0.6-0.1,1.1-0.2,1.7c-0.2,0.5-0.4,1-0.7,1.5c-0.3,0.5-0.6,0.9-1.1,1.3C79.5,143.1,79.1,143.4,78.6,143.6z"/>
	<path class="st5" d="M91.1,128.4l1.6-0.9l-5.6,11.2l-1.6,0.9L91.1,128.4z"/>
	<polygon class="st2" points="86.1,129.4 84.1,130.6 87.6,133.5 88.5,131.6 	"/>
	<polygon class="st2" points="90.7,133.4 89.8,135.2 92.4,137.5 94.4,136.4 	"/>
	<path class="st5" d="M96.5,125.2l5.8-3.4v1.2l-4.4,2.6v2l3.9-2.3v1.2l-3.9,2.3v2.1l4.5-2.6v1.2l-5.9,3.4V125.2z"/>
	<path class="st5" d="M106.3,119.7l2.9-1.7c0.6-0.4,1.2-0.6,1.7-0.7s1-0.1,1.3,0.1c0.4,0.1,0.7,0.4,0.9,0.7c0.2,0.4,0.3,0.8,0.3,1.4
		l0,0c0,0.6-0.1,1.1-0.3,1.7c-0.2,0.6-0.5,1.2-0.9,1.7c-0.4,0.6-0.8,1.1-1.3,1.6s-1.1,0.9-1.7,1.3l-2.9,1.7V119.7z M109.2,124.6
		c0.4-0.2,0.8-0.5,1.1-0.8c0.3-0.3,0.6-0.7,0.9-1c0.2-0.4,0.4-0.8,0.6-1.2c0.1-0.4,0.2-0.8,0.2-1.2l0,0c0-0.4-0.1-0.7-0.2-1
		s-0.3-0.4-0.6-0.5c-0.2-0.1-0.5-0.1-0.9-0.1c-0.3,0.1-0.7,0.2-1.1,0.4l-1.5,0.9v5.4L109.2,124.6z"/>
</g>
<path class="st6" d="M126.8,126.5V97.2c-5.1,3-9.3,1.2-9.3-3.9l-79.1,45.6c0,5.1-4.2,11.7-9.3,14.6v29.3c5.1-3,9.3-1.2,9.3,3.9
	l79.1-45.6C117.5,136,121.7,129.4,126.8,126.5z"/>
</svg>
