<?xml version="1.0" encoding="utf-8"?>
<!-- Generator: Adobe Illustrator 20.0.0, SVG Export Plug-In . SVG Version: 6.00 Build 0)  -->
<!DOCTYPE svg PUBLIC "-//W3C//DTD SVG 1.1//EN" "http://www.w3.org/Graphics/SVG/1.1/DTD/svg11.dtd" [
	<!ENTITY ns_extend "http://ns.adobe.com/Extensibility/1.0/">
	<!ENTITY ns_ai "http://ns.adobe.com/AdobeIllustrator/10.0/">
	<!ENTITY ns_graphs "http://ns.adobe.com/Graphs/1.0/">
	<!ENTITY ns_vars "http://ns.adobe.com/Variables/1.0/">
	<!ENTITY ns_imrep "http://ns.adobe.com/ImageReplacement/1.0/">
	<!ENTITY ns_sfw "http://ns.adobe.com/SaveForWeb/1.0/">
	<!ENTITY ns_custom "http://ns.adobe.com/GenericCustomNamespace/1.0/">
	<!ENTITY ns_adobe_xpath "http://ns.adobe.com/XPath/1.0/">
]>
<svg version="1.1" id="Layer_1" xmlns:x="&ns_extend;" xmlns:i="&ns_ai;" xmlns:graph="&ns_graphs;"
	 xmlns="http://www.w3.org/2000/svg" xmlns:xlink="http://www.w3.org/1999/xlink" x="0px" y="0px" width="220px" height="57.6px"
	 viewBox="0 0 220 57.6" style="enable-background:new 0 0 220 57.6;" xml:space="preserve">
<style type="text/css">
	.st0{fill:#FFFFFF;}
	.st1{fill:#0199FE;}
	.st2{fill:#343434;}
</style>
<metadata>
	<sfw  xmlns="&ns_sfw;">
		<slices></slices>
		<sliceSourceBounds  bottomLeftOrigin="true" height="57.6" width="220" x="0" y="0"></sliceSourceBounds>
	</sfw>
</metadata>
<g>
	<rect x="5.9" y="5.5" class="st0" width="45.8" height="45.8"/>
	<path class="st1" d="M53.6,0c0.3,0.2,0.6,0.2,0.9,0.4c2.1,1,3.2,2.6,3.2,4.9c0,8.6,0,17.2,0,25.8c0,7.1,0,14.2,0,21.4
		c0,2.3-1.3,4.2-3.3,4.9c-0.5,0.2-1,0.2-1.5,0.2c-16,0-31.9,0-47.9,0c-2,0-4.1-1.4-4.8-3.5c-0.1-0.2,0-0.4-0.2-0.5
		C0,37.1,0,20.5,0,4c0.2-0.5,0.4-1,0.7-1.5c0.7-1.3,2-2,3.3-2.5C20.5,0,37.1,0,53.6,0z M8.7,21.1c0,2.4,0,4.8,0,7.2
		c0,2,0.3,3.9,0.8,5.7c2.8,10.1,12.8,16.6,22.9,14.8c13.5-2.4,21-16.8,14.5-29.7c-5.5-10.9-19.7-13.4-29-7.2
		c-0.9,0.6-0.9,0.6-1.2-0.4c-0.5-1.9-2.4-3.2-4.2-2.9c-2.1,0.3-3.6,2-3.6,4.1C8.7,15.5,8.7,18.3,8.7,21.1z"/>
	<path class="st1" d="M29,16.7c6.7,0,12.2,5.4,12.2,12.1C41.2,35.6,35.7,41,29,41s-12.2-5.5-12.2-12.2S22.2,16.7,29,16.7z"/>
	<path class="st2" d="M185.9,23.6c-0.9,2.3-1.9,4.7-2.8,7c-1.6,4-3.2,8-4.8,12c-0.2,0.4-0.4,0.6-0.8,0.6c-2.1,0-2.1,0-2.8-1.9
		c-2.3-5.8-4.7-11.7-7-17.5c0,0-0.1-0.1-0.2-0.2c0,0.3,0,0.5,0,0.7c0,6,0,12,0,18.1c0,0.7-0.2,0.9-0.8,0.8c-1.6-0.1-3.1,0-4.7,0
		c-0.5,0-0.6-0.2-0.6-0.7c0-9.1,0-18.2,0-27.3c0-0.5,0.1-0.6,0.6-0.6c2.5,0,5,0,7.4,0c0.5,0,0.6,0.2,0.8,0.6
		c2.1,5.3,4.3,10.7,6.4,16c0.1,0.2,0.1,0.3,0.3,0.6c1.2-2.9,2.3-5.7,3.4-8.6c1.1-2.6,2.1-5.3,3.2-7.9c0.2-0.5,0.5-0.7,1-0.7
		c2.4,0,4.8,0,7.3,0c0.5,0,0.6,0.1,0.6,0.6c0,9.1,0,18.2,0,27.3c0,0.5-0.1,0.7-0.7,0.7c-1.6,0-3.2,0-4.8,0c-0.6,0-0.7-0.2-0.7-0.7
		c0-6.2,0-12.5,0-18.7C186,23.6,185.9,23.6,185.9,23.6z"/>
	<path class="st2" d="M96.5,28.4c3.2,1,5.3,3.9,5.1,7.2c-0.2,3.9-2.4,6.6-6,7.3c-0.8,0.2-1.6,0.2-2.4,0.2c-4.9,0-9.8,0-14.7,0
		c-0.6,0-0.7-0.2-0.7-0.7c0-9.1,0-18.1,0-27.2c0-0.6,0.1-0.7,0.7-0.7c4.8,0,9.7,0,14.5,0c1.5,0,2.9,0.3,4.2,1
		c2.4,1.3,3.7,3.3,3.8,5.9c0.1,2.6-0.8,4.8-3,6.2C97.5,28,97,28.1,96.5,28.4z M88.3,31.2L88.3,31.2c-1.3,0-2.6,0-3.9,0
		c-0.3,0-0.5,0-0.5,0.4c0,1.9,0,3.8,0,5.7c0,0.3,0.1,0.5,0.5,0.5c2.6,0,5.1,0,7.7,0c1.7,0,2.9-1,3.2-2.4c0.5-2.2-0.9-4.1-3.1-4.2
		C90.9,31.2,89.6,31.2,88.3,31.2z M88,26c1.2,0,2.3,0,3.5,0c1.6,0,2.7-0.8,3.1-2c0.7-2.2-0.8-4.1-3.3-4.2c-2.3,0-4.6,0-6.9,0
		c-0.4,0-0.6,0.1-0.6,0.6c0,1.7,0,3.4,0,5c0,0.5,0.2,0.6,0.6,0.6C85.7,25.9,86.9,26,88,26z"/>
	<path class="st2" d="M220,43.1c-2.3,0-4.5,0-6.7,0c-0.5,0-0.5-0.4-0.7-0.6c-1.6-3-3.3-5.9-4.9-8.9c-0.3-0.5-0.6-0.7-1.1-0.7
		c-0.9,0.1-1.9,0.1-2.8,0c-0.6,0-0.9,0.1-0.9,0.8c0.1,2.9,0,5.8,0,8.7c0,0.6-0.1,0.7-0.7,0.7c-1.6,0-3.2,0-4.8,0
		c-0.5,0-0.6-0.1-0.6-0.6c0-9.1,0-18.3,0-27.4c0-0.4,0.1-0.6,0.5-0.6c4.5,0,8.9-0.1,13.4,0c7.2,0.2,11.4,7.5,7.9,13.8
		c-1,1.8-2.5,3.1-4.5,3.7c-0.6,0.2-0.6,0.3-0.3,0.8C215.9,36.2,217.9,39.6,220,43.1z M202.9,23.7c0,1.1,0,2.2,0,3.4
		c0,0.3,0.1,0.5,0.5,0.5c2.2,0,4.3,0,6.5-0.1c1.4-0.1,2.7-0.7,3.3-2.1c1.2-2.6-0.5-5.4-3.6-5.5c-2.1-0.1-4.1,0-6.2,0
		c-0.4,0-0.5,0.1-0.5,0.5C203,21.5,202.9,22.6,202.9,23.7z"/>
	<path class="st2" d="M154.1,43.1c-0.9,0-1.9,0-2.8,0c-0.4,0-0.6-0.1-0.7-0.5c-0.4-1.3-0.9-2.5-1.4-3.8c-0.1-0.4-0.3-0.6-0.7-0.6
		c-3.7,0-7.4,0-11.1,0c-0.4,0-0.6,0.1-0.8,0.5c-0.4,1.2-0.9,2.4-1.3,3.7c-0.2,0.5-0.5,0.7-1,0.7c-1.8,0-3.6,0-5.4,0
		c-0.6,0-0.8,0-0.5-0.8c3-7.6,5.9-15.2,8.8-22.8c0.6-1.5,1.2-3,1.7-4.5c0.1-0.4,0.4-0.5,0.8-0.5c2.1,0,4.2,0,6.3,0
		c0.7,0,0.9,0.2,1.1,0.8c3.2,8.4,6.4,16.7,9.6,25.1c0.3,0.7,0.5,1.5,0.9,2.2c0.2,0.4,0.1,0.5-0.4,0.5
		C156.1,43.1,155.1,43.1,154.1,43.1z M138.5,32.9c2.7,0,5.4,0,8,0c0.8,0,0.7-0.2,0.5-0.8c-1.3-3.5-2.6-7-3.8-10.5
		c-0.1-0.2-0.1-0.5-0.4-0.6C141.4,24.9,139.9,28.9,138.5,32.9z"/>
	<path class="st2" d="M105.1,28.8c0-4.5,0-9,0-13.5c0-0.5,0.1-0.7,0.7-0.7c6.3,0,12.6,0,18.9,0c0.5,0,0.7,0.1,0.6,0.6
		c0,1.4,0,2.8,0,4.1c0,0.5-0.2,0.7-0.7,0.7c-4.2,0-8.4,0-12.6,0c-0.6,0-0.8,0.1-0.8,0.8c0.1,1.5,0,3.1,0,4.6c0,0.5,0.1,0.6,0.6,0.6
		c4.1,0,8.3,0,12.4,0c0.7,0,0.8,0.2,0.8,0.8c-0.1,1.3-0.1,2.6,0,3.8c0,0.7-0.2,0.8-0.9,0.8c-4.1,0-8.1,0-12.2,0
		c-0.6,0-0.8,0.1-0.8,0.8c0.1,1.6,0,3.2,0,4.8c0,0.6,0.1,0.8,0.8,0.8c4.2,0,8.4,0,12.6,0c0.6,0,0.8,0.2,0.8,0.8c-0.1,1.3,0,2.7,0,4
		c0,0.5-0.2,0.7-0.7,0.7c-6.3,0-12.6,0-18.9,0c-0.6,0-0.7-0.2-0.7-0.7C105.1,37.9,105.1,33.4,105.1,28.8z"/>
</g>
</svg>
