<?xml version="1.0" encoding="utf-8"?>
<!-- Generator: Adobe Illustrator 20.0.0, SVG Export Plug-In . SVG Version: 6.00 Build 0)  -->
<!DOCTYPE svg PUBLIC "-//W3C//DTD SVG 1.1//EN" "http://www.w3.org/Graphics/SVG/1.1/DTD/svg11.dtd" [
	<!ENTITY ns_extend "http://ns.adobe.com/Extensibility/1.0/">
	<!ENTITY ns_ai "http://ns.adobe.com/AdobeIllustrator/10.0/">
	<!ENTITY ns_graphs "http://ns.adobe.com/Graphs/1.0/">
	<!ENTITY ns_vars "http://ns.adobe.com/Variables/1.0/">
	<!ENTITY ns_imrep "http://ns.adobe.com/ImageReplacement/1.0/">
	<!ENTITY ns_sfw "http://ns.adobe.com/SaveForWeb/1.0/">
	<!ENTITY ns_custom "http://ns.adobe.com/GenericCustomNamespace/1.0/">
	<!ENTITY ns_adobe_xpath "http://ns.adobe.com/XPath/1.0/">
]>
<svg version="1.1" id="Layer_1" xmlns:x="&ns_extend;" xmlns:i="&ns_ai;" xmlns:graph="&ns_graphs;"
	 xmlns="http://www.w3.org/2000/svg" xmlns:xlink="http://www.w3.org/1999/xlink" x="0px" y="0px" width="220px" height="136.9px"
	 viewBox="0 0 220 136.9" style="enable-background:new 0 0 220 136.9;" xml:space="preserve">
<style type="text/css">
	.st0{fill:#24AAE1;}
</style>
<metadata>
	<sfw  xmlns="&ns_sfw;">
		<slices></slices>
		<sliceSourceBounds  bottomLeftOrigin="true" height="136.9" width="220" x="-91.1" y="-65"></sliceSourceBounds>
	</sfw>
</metadata>
<path class="st0" d="M99.9,0c1.6,1.1,3.2,2.2,4.8,3.3c13.8,9.6,27.5,19.2,41.3,28.8c1.8,1.2,1.7,2.8,0,4c-15,10.5-30.1,21-45.1,31.5
	c-0.3,0.2-0.5,0.3-0.9,0.6c0-0.5-0.1-0.8-0.1-1.1c0-4.5,0-9.1,0-13.6c0-0.8,0.3-1.2,0.8-1.6c7.7-5.3,15.4-10.7,23-16.1
	c1.7-1.2,1.7-2.3,0-3.5c-7.7-5.4-15.3-10.7-23-16.1c-0.7-0.5-0.9-0.9-0.9-1.7c0-4.5,0-9.1,0-13.6C99.7,0.7,99.6,0.4,99.9,0z"/>
<path class="st0" d="M91,102.2c3-5.7,6-11.1,8.7-16.7c0.9-1.8,1.9-2.7,4-2.4c1.2,0.2,2.4,0.1,3.5,0c0.6,0,0.8,0.1,0.8,0.8
	c0,10.7,0,21.4,0,32.1c0,0.6-0.2,0.8-0.8,0.8c-1.6,0-3.2,0-4.8,0c-0.8,0-1-0.2-1-1c0-6.5,0-13.1,0-19.6c0-0.4,0-0.7,0-1.2
	c-0.4,0.2-0.5,0.6-0.6,0.9c-2.5,4.8-5,9.6-7.5,14.4c-0.3,0.7-0.8,0.8-1.4,0.9c-2,0.3-3-0.6-3.8-2.3c-2.2-4.5-4.5-8.8-6.8-13.2
	c-0.1-0.2-0.1-0.4-0.5-0.6c0,0.4,0,0.7,0,1.1c0,6.5,0,13.1,0,19.6c0,0.8-0.2,1.1-1,1c-1.6-0.1-3.2,0-4.7,0c-0.6,0-0.9-0.2-0.9-0.8
	c0-10.7,0-21.4,0-32c0-0.7,0.2-0.8,0.8-0.8c1.8,0,3.5,0,5.3,0c0.6,0,1,0.2,1.3,0.8c2.9,5.7,5.9,11.4,8.8,17
	C90.5,101.3,90.7,101.7,91,102.2z"/>
<path class="st0" d="M21.2,99.6c1.6,0.6,3,1.4,4,2.7c3.6,4.5,2.1,11-3.2,13.3c-1.9,0.9-4,1.2-6,1.2c-5,0-10,0-15,0
	c-0.8,0-1-0.3-1-1.1c0-10.5,0-21.1,0-31.6c0-0.8,0.2-1,1-1c5.5,0,11,0.1,16.5,0c4.9-0.1,8,3.9,8.2,7.9c0.2,3.6-1,6.4-4.2,8.3
	C21.4,99.4,21.3,99.4,21.2,99.6z M12,102.4C12,102.4,12,102.4,12,102.4c-1.5,0-3.1,0-4.6,0c-0.5,0-0.8,0-0.8,0.7c0,2.5,0,5,0,7.5
	c0,0.5,0.1,0.6,0.6,0.6c3.1,0,6.3,0,9.4-0.1c2.2-0.1,3.9-2.1,3.8-4.4c-0.1-2.4-1.7-4.3-3.9-4.3C15.1,102.4,13.5,102.4,12,102.4z
	 M11.6,88.8c-1.4,0-2.8,0-4.1,0c-0.7,0-0.9,0.2-0.9,0.9c0,2.2,0.1,4.4,0,6.6c0,0.8,0.3,0.9,1,0.9c2.5,0,5.1,0,7.6,0
	c1.7,0,3-0.7,3.7-2.3c0.7-1.7,0.6-3.4-0.6-4.9c-0.7-0.8-1.5-1.2-2.6-1.2C14.3,88.9,12.9,88.8,11.6,88.8z"/>
<path class="st0" d="M212.8,105c0-0.6,0-1,0-1.3c0-6.5,0-13,0-19.5c0-0.8,0.2-1,1-1c1.6,0.1,3.2,0,4.7,0c0.7,0,0.9,0.1,0.9,0.9
	c0,10.6,0,21.3,0,31.9c0,0.7-0.2,0.9-0.8,0.8c-0.1,0-0.2,0-0.3,0c-1.4,0-2.9,0.3-4.1-0.2c-1.2-0.5-1.8-2-2.6-3
	c-4.7-5.8-9.4-11.7-14.1-17.5c-0.2-0.2-0.3-0.5-0.7-0.6c0,0.3,0,0.6,0,1c0,6.4,0,12.9,0,19.3c0,0.8-0.2,1-1,1c-1.5-0.1-3.1,0-4.6,0
	c-0.7,0-1-0.1-1-0.9c0-10.6,0-21.3,0-31.9c0-0.6,0.1-0.9,0.8-0.8c1.4,0.1,2.9-0.3,4.1,0.1c1.2,0.4,1.8,2,2.7,3
	c4.7,5.9,9.4,11.9,14.2,17.8C212.2,104.4,212.4,104.6,212.8,105z"/>
<path class="st0" d="M86,11.3c2.1,1.5,4.1,2.9,6,4.2c7.9,5.5,15.7,11,23.6,16.5c2,1.4,2,2.9,0,4.2c-9.6,6.7-19.1,13.3-28.7,20
	c-0.3,0.2-0.5,0.6-0.8,0.4c-0.3-0.2-0.1-0.6-0.1-0.9c0-3.4,0-6.7,0-10.1c0-0.7,0.2-1.1,0.7-1.4c4-2.8,8-5.5,12-8.3
	c1.8-1.3,1.8-2.3,0-3.6c-4-2.8-8-5.6-12-8.4c-0.4-0.3-0.7-0.5-0.7-1.1C86,19.1,86,15.3,86,11.3z"/>
<path class="st0" d="M130.4,83c5,0.2,9.6,3.4,12.4,9c3.6,6.9,2.2,15.5-3.2,20.6c-7.1,6.8-18,5.7-23.6-2.5c-4.8-7-3.9-16.7,2.2-22.7
	C121.2,84.5,124.8,82.9,130.4,83z M128.6,88.8c-2.1-0.1-4,0.8-5.7,2.4c-4.2,4.1-4.6,11.9-0.8,16.6c3.6,4.5,10.2,4.4,13.6-0.2
	c3.1-4.2,3.2-10.5,0.3-14.8C134.4,90.3,132,88.8,128.6,88.8z"/>
<path class="st0" d="M159.3,104.7c0.9-2.6,1.8-4.9,2.6-7.2c1.6-4.5,3.2-9,4.7-13.5c0.2-0.6,0.5-0.9,1.2-0.8c1.6,0.1,3.2,0,4.7,0
	c1.2,0,1.2,0,0.8,1.1c-2.3,5.9-4.5,11.7-6.8,17.6c-1.7,4.3-3.3,8.6-5,13c-0.4,1-1,1.7-2.1,1.8c-1,0.1-1.7-0.5-2.2-1.8
	c-4-10.3-8.1-20.5-12.1-30.8c-0.3-0.8-0.1-0.9,0.7-0.9c1.6,0,3.3,0.1,4.9,0c0.7,0,1,0.2,1.2,0.8c2.3,6.6,4.7,13.2,7,19.7
	C159,104,159.1,104.2,159.3,104.7z"/>
<path class="st0" d="M59.2,102.8c0,4.3,0,8.5,0,12.8c0,0.9-0.3,1.2-1.2,1.1c-1.5-0.1-3-0.1-4.4,0c-0.8,0-1-0.2-1-1
	c0-8.6,0-17.2,0-25.7c0-1-0.2-1.2-1.2-1.2c-2.9,0.1-5.8,0-8.7,0c-0.7,0-0.9-0.2-0.9-0.9c0.1-1.3,0.1-2.6,0-3.9c0-0.8,0.2-1,1-1
	c6.9,0,13.9,0,20.8,0c1.8,0,3.5,0,5.3,0c0.7,0,0.9,0.2,0.9,0.9c0,1.3-0.1,2.6,0,3.9c0,0.7-0.2,1-0.9,0.9c-3,0-5.9,0-8.9,0
	c-0.7,0-0.9,0.2-0.9,0.9C59.2,94.2,59.2,98.5,59.2,102.8z"/>
<path class="st0" d="M37.8,100.1c0,5.2,0,10.4,0,15.7c0,0.8-0.3,1.1-1.1,1c-1.5-0.1-3.1-0.1-4.6,0c-0.7,0-0.9-0.2-0.9-0.9
	c0-5,0-9.9,0-14.9c0-5.6,0-11.1,0-16.7c0-0.9,0.2-1.2,1.1-1.2c1.5,0.1,3.1,0.1,4.6,0c0.7,0,0.9,0.2,0.9,0.9
	C37.8,89.4,37.8,94.8,37.8,100.1z"/>
<path class="st0" d="M183.3,100.1c0,5.2,0,10.4,0,15.7c0,0.8-0.3,1.1-1.1,1c-1.5-0.1-3.1-0.1-4.6,0c-0.7,0-1-0.2-0.9-0.9
	c0-4.6,0-9.3,0-13.9c0-5.8,0-11.7,0-17.5c0-1.2,0-1.3,1.3-1.3c1.4,0,2.9,0,4.3,0c0.8,0,1,0.2,1,1C183.3,89.5,183.3,94.8,183.3,100.1
	z"/>
<path class="st0" d="M75.5,46.7c0-2.4,0-4.8,0-7.2c0-0.4,0.3-0.6,0.6-0.7c1.5-1.1,3-2.1,4.5-3.2c1.3-0.9,1.3-2.2,0-3.1
	c-1.5-1.1-3-2.1-4.5-3.2c-0.3-0.2-0.6-0.4-0.6-0.8c0-2.4,0-4.7,0-7.2c0.8,0.6,1.5,1,2.2,1.5c4.4,3.1,8.8,6.2,13.2,9.2
	c1.8,1.2,1.8,2.8,0,4c-4.8,3.4-9.7,6.8-14.5,10.1C76.2,46.4,75.9,46.7,75.5,46.7z"/>
<path class="st0" d="M196.4,127.6c-0.5,1.9-1,3.8-1.5,5.7c-0.2,0.9-0.5,1.7-0.7,2.6c-0.1,0.6-0.4,0.9-1,0.9c-0.7,0-0.8-0.3-0.9-0.9
	c-0.8-3.2-1.6-6.4-2.4-9.5c-0.1-0.3-0.5-0.8,0.2-0.8c0.4,0,1.1-0.4,1.2,0.5c0.4,1.9,0.9,3.8,1.3,5.7c0.2,1,0.4,1.9,0.7,3
	c0.7-2.8,1.4-5.5,2.1-8.2c0.2-0.6,0.2-1.3,1.2-1.2c0.9,0,0.8,0.7,0.9,1.2c0.6,2.7,1.3,5.3,1.9,8c0.7-2.7,1.4-5.3,2-8
	c0.2-1,0.6-1.4,1.8-1.1c-0.3,1.2-0.6,2.3-1,3.5c-0.6,2.3-1.3,4.5-1.9,6.8c-0.2,0.6-0.4,0.8-1,0.8c-0.6,0-0.8-0.2-0.9-0.8
	C197.8,133.2,197.1,130.4,196.4,127.6z"/>
<path class="st0" d="M213.7,135.6c-0.1,0.3-0.2,0.4-0.2,0.6c0,0.6-0.4,0.6-0.8,0.6c-0.5,0-0.5-0.3-0.5-0.7c0-3.4,0-6.9,0-10.3
	c0-0.6,0.1-0.8,0.8-0.8c0.6,0,0.8,0.2,0.8,0.8c0,1.3,0,2.6,0,4c0.7-0.5,1.3-1.1,2.1-1.2c2-0.3,3.5,0.8,3.9,3.1
	c0.5,2.7-0.8,4.9-3.1,5.3C215.6,137.1,214.6,136.6,213.7,135.6z M213.9,132.7c0,1.8,0.5,2.7,1.7,2.9c1.5,0.3,2.6-0.5,2.9-2.1
	c0.4-1.9-0.4-3.6-1.8-3.9c-0.1,0-0.1,0-0.2,0C214.8,129.5,213.9,130.6,213.9,132.7z"/>
<path class="st0" d="M19.7,135.6c-0.9,0.9-1.8,1.5-3.1,1.2c-0.9-0.2-1.6-0.6-2.2-1.4c-1.1-1.6-1-4.2,0.2-5.7c1-1.3,2.9-1.6,4.3-0.8
	c0.2,0.1,0.4,0.4,0.8,0.3c0-1.1,0-2.3,0-3.4c0-0.5,0-0.9,0.7-0.9c0.7,0,0.8,0.3,0.8,0.9c0,3.3,0,6.7,0,10c0,0.4,0.2,0.9-0.5,0.9
	c-0.7,0-0.8-0.3-0.8-0.9C19.8,135.8,19.7,135.7,19.7,135.6z M19.6,132.6C19.6,132.6,19.6,132.6,19.6,132.6c0-0.3,0-0.6,0-0.9
	c-0.1-1.1-0.7-1.9-1.7-2.1c-1.1-0.2-2,0.3-2.4,1.3c-0.5,1.2-0.5,2.4,0.1,3.5c0.4,0.9,1.3,1.3,2.3,1.1c1-0.2,1.6-0.8,1.7-1.8
	C19.6,133.5,19.6,133.1,19.6,132.6z"/>
<path class="st0" d="M4.6,135c0.9-2.7,1.8-5.3,2.7-8c0.1-0.3,0.3-0.7,0.4-1c0.2-0.8,0.9-0.6,1.4-0.4c0.5,0.1,0.1,0.6,0,0.9
	c-1.1,3.2-2.2,6.3-3.3,9.5c-0.2,0.6-0.5,0.8-1.2,0.8c-0.7,0-0.8-0.4-1-0.9c-1-3.1-2.1-6.3-3.1-9.4c-0.1-0.3-0.5-0.7,0-0.9
	c0.5-0.1,1.2-0.3,1.4,0.5c0.8,2.7,1.6,5.4,2.5,8.1C4.4,134.4,4.5,134.7,4.6,135z"/>
<path class="st0" d="M171.6,129.6c0.4,0,0.5-0.3,0.7-0.5c1.7-1.3,4.1-0.6,4.5,1.6c0.4,1.8,0.1,3.7,0.2,5.5c0,0.6-0.5,0.5-0.9,0.5
	c-0.4,0-0.7-0.1-0.6-0.6c0-1.3,0-2.7,0-4c0-1.6-0.7-2.4-1.9-2.4c-1.2,0-2,1-2,2.4c0,1.3,0,2.6,0,3.9c0,0.6-0.3,0.7-0.8,0.7
	c-0.5,0-0.7-0.2-0.7-0.7c0-3.5,0-7,0-10.4c0-0.6,0.3-0.7,0.8-0.7c0.6,0,0.7,0.2,0.7,0.8C171.5,127,171.6,128.2,171.6,129.6z"/>
<path class="st0" d="M183,133c-0.7,0-1.4,0-2.1,0c-0.8,0-0.8,0.3-0.6,0.9c0.3,1.1,1.1,1.7,2.2,1.8c0.7,0,1.4,0.1,2.1-0.2
	c0.3-0.1,0.6-0.1,0.7,0.3c0.1,0.3,0.1,0.5-0.3,0.7c-1.8,0.9-4.7,0.2-5.7-1.5c-1.1-1.9-0.5-4.9,1.3-6c1.2-0.8,2.6-0.8,3.8,0
	c1.2,0.8,1.5,2.1,1.5,3.4c0,0.4-0.2,0.5-0.6,0.5C184.5,133,183.8,133,183,133z M182.2,131.9c0.5,0,1,0,1.6,0c0.6,0,0.7-0.3,0.6-0.8
	c-0.2-0.8-0.7-1.4-1.6-1.6c-0.9-0.2-1.7,0.2-2.2,1c-0.2,0.4-0.5,0.8-0.3,1.2c0.2,0.3,0.7,0.1,1,0.1
	C181.6,131.9,181.9,131.9,182.2,131.9z"/>
<path class="st0" d="M133.9,133c-0.7,0-1.4,0-2.1,0c-0.8-0.1-0.9,0.3-0.7,1c0.3,0.9,1,1.6,2.1,1.7c0.8,0.1,1.6,0.1,2.3-0.2
	c0.3-0.1,0.5,0,0.6,0.3c0.1,0.3,0.2,0.5-0.2,0.7c-1.7,0.9-4.7,0.3-5.7-1.3c-1-1.7-0.9-3.4,0.1-5c0.8-1.3,2-1.8,3.5-1.6
	c1.8,0.2,3.2,2.3,2.9,4.1c-0.1,0.4-0.3,0.4-0.6,0.4C135.3,133,134.6,133,133.9,133z M133.1,131.9c0.5,0,1,0,1.5,0
	c0.6,0,0.7-0.2,0.6-0.8c-0.2-0.8-0.7-1.5-1.6-1.6c-0.9-0.1-1.7,0.3-2.1,1.1c-0.6,1-0.5,1.3,0.7,1.3
	C132.5,131.9,132.8,131.9,133.1,131.9z"/>
<path class="st0" d="M27.2,133c-0.7,0-1.4,0-2.2,0c-0.6,0-0.7,0.2-0.6,0.8c0.2,1,1,1.8,2.1,1.9c0.8,0.1,1.5,0.1,2.2-0.2
	c0.3-0.1,0.5-0.1,0.7,0.3c0.1,0.4,0.1,0.6-0.3,0.8c-1.7,0.7-4.2,0.3-5.2-0.9c-1.2-1.4-1.3-4-0.2-5.6c0.9-1.4,2.7-1.9,4.3-1.3
	c1.3,0.5,2.3,2.3,2.1,3.8c-0.1,0.4-0.3,0.5-0.7,0.5C28.6,133,27.9,133,27.2,133z M26.5,131.9c0.5,0,1,0,1.5,0c0.6,0,0.7-0.2,0.6-0.7
	c-0.2-0.9-0.7-1.6-1.7-1.7c-1-0.1-1.7,0.4-2.2,1.2c-0.5,0.9-0.4,1.1,0.6,1.1C25.7,131.9,26.1,131.9,26.5,131.9z"/>
<path class="st0" d="M146.1,132.7c0-2.6,1.6-4.3,4-4.2c2.3,0,3.8,1.7,3.8,4.1c0,2.5-1.7,4.3-4,4.3
	C147.6,136.9,146.1,135.2,146.1,132.7z M152.4,132.7c0-2-1.1-3.2-2.7-3.1c-1.3,0.1-2.2,1.4-2.2,3.1c0,1.7,1.1,3,2.5,3
	C151.3,135.8,152.4,134.4,152.4,132.7z"/>
<path class="st0" d="M207.7,133c-0.8,0-1.5,0-2.3,0c-0.5,0-0.6,0.2-0.5,0.6c0.2,1.2,1.1,2,2.3,2.1c0.7,0.1,1.4,0.1,2.1-0.2
	c0.3-0.1,0.6-0.1,0.6,0.3c0.1,0.3,0.1,0.5-0.3,0.7c-1.8,0.9-4.6,0.2-5.6-1.3c-1.2-1.8-0.7-4.8,0.9-6c1.1-0.9,2.7-1,3.9-0.3
	c1.1,0.6,1.8,2.3,1.7,3.6c-0.1,0.5-0.3,0.5-0.7,0.5C209.2,133,208.4,133,207.7,133z M207,131.9c0.5,0,1,0,1.5,0
	c0.6,0,0.7-0.2,0.6-0.8c-0.2-0.9-0.7-1.5-1.6-1.6c-0.9-0.1-1.6,0.3-2.1,1c-0.2,0.4-0.5,0.8-0.3,1.2c0.2,0.3,0.7,0.1,1,0.2
	C206.4,131.9,206.7,131.9,207,131.9z"/>
<path class="st0" d="M39.1,132.6c0,2.6-1.6,4.3-4,4.3c-2.2,0-3.9-1.8-3.9-4.2c0-2.5,1.6-4.2,4-4.2C37.5,128.5,39.1,130.1,39.1,132.6
	z M32.7,132.7c0,0.7,0.2,1.4,0.6,2c0.9,1.3,2.5,1.4,3.6,0.2c1-1.2,1-3.4,0-4.6c-0.4-0.4-0.8-0.7-1.4-0.7
	C33.8,129.5,32.7,130.7,32.7,132.7z"/>
<path class="st0" d="M49.9,129.7c0.7-0.7,1.3-1.1,2.1-1.2c1.7-0.2,3.2,0.8,3.3,2.7c0.1,1.7,0,3.3,0.1,5c0,0.7-0.5,0.5-0.8,0.5
	c-0.5,0-0.7-0.1-0.7-0.7c0-1.3,0-2.7,0-4c0-1.5-0.6-2.3-1.8-2.3c-1.2,0-2,0.9-2,2.4c0,1.2,0,2.5,0,3.7c0,0.5,0,0.9-0.8,0.9
	c-0.7,0-0.8-0.3-0.8-0.9c0-2.1,0-4.3,0-6.4c0-0.4-0.2-0.8,0.5-0.8c0.5,0,0.9,0,0.9,0.7C49.9,129.4,49.9,129.5,49.9,129.7z"/>
<path class="st0" d="M121,135.6c-0.6,0.4-0.9,0.9-1.5,1.1c-1.8,0.6-3.5-0.3-3.8-2.1c-0.3-1.8-0.1-3.6-0.1-5.4c0-0.7,0.5-0.5,0.8-0.5
	c0.4,0,0.7,0,0.7,0.6c0,1.5,0,3,0,4.4c0,0.9,0.3,1.7,1.3,1.9c1,0.2,1.9-0.3,2.3-1.1c0.2-0.3,0.2-0.7,0.2-1.1c0-1.2,0-2.4,0-3.5
	c0-0.5-0.3-1.2,0.7-1.2c1,0,0.8,0.6,0.8,1.2c0,2,0,4.1,0,6.1c0,0.4,0.1,0.8-0.5,0.8c-0.5,0-0.8-0.2-0.8-0.7
	C121.1,135.9,121.1,135.8,121,135.6z"/>
<path class="st0" d="M98.7,135.6c-0.8,0.9-1.7,1.4-2.9,1.3c-1.3-0.2-2.2-1-2.4-2.5c-0.2-1.7-0.1-3.4-0.1-5.1c0-0.6,0.4-0.6,0.8-0.6
	c0.4,0,0.8,0,0.8,0.6c0,1.4,0,2.8,0,4.2c0,1.5,0.7,2.2,1.9,2.1c1.1,0,1.9-0.8,1.9-2c0-1.4,0-2.8,0-4.1c0-0.6,0.1-0.8,0.8-0.8
	c0.6,0,0.8,0.2,0.8,0.8c0,2.1,0,4.3,0,6.4c0,0.4,0.2,0.9-0.5,0.9c-0.7,0-0.8-0.3-0.8-0.8C98.8,135.8,98.8,135.8,98.7,135.6z"/>
<path class="st0" d="M72.3,135.7c-0.8,0.7-1.4,1.1-2.2,1.2c-1.1,0.1-2.2-0.4-2.6-1.3c-0.5-1.1-0.2-2.3,0.7-3
	c0.8-0.6,1.7-0.8,2.7-0.9c0.4,0,1.1,0.2,1.1-0.4c0.1-0.7-0.3-1.3-1-1.5c-0.8-0.3-1.5-0.1-2.2,0.2c-0.3,0.1-0.6,0.5-0.8-0.1
	c-0.2-0.5,0-0.7,0.4-0.9c2.8-1.3,5,0.1,5,3.2c0,1.2,0,2.4,0,3.6c0,0.4,0.5,0.9-0.4,1C72.6,136.8,72.2,136.6,72.3,135.7z M72.2,133.6
	c-0.2-0.3,0.3-0.9-0.4-1c-0.8-0.1-1.7,0-2.3,0.5c-0.7,0.5-0.8,1.2-0.5,1.9c0.3,0.7,1,0.8,1.7,0.7C71.6,135.5,72.1,134.8,72.2,133.6z
	"/>
<path class="st0" d="M57.9,133.2c0-0.8,0-1.6,0-2.5c0-0.5,0-1-0.7-0.9c-0.4,0-0.4-0.3-0.4-0.6c0-0.3,0-0.6,0.4-0.5
	c0.8,0.1,0.8-0.5,0.8-1c0.1-2.1,1.4-3.2,3.4-2.9c0.3,0,0.8,0,0.7,0.6c-0.1,0.5-0.2,0.6-0.7,0.6c-1.3-0.1-2.2,1.1-1.9,2.3
	c0.1,0.3,0.2,0.4,0.5,0.4c0.3,0,0.6,0,0.9,0c0.4,0,0.6,0.1,0.6,0.5c0,0.5-0.2,0.6-0.6,0.6c-1.3,0.1-1.3,0.1-1.3,1.4
	c0,1.6,0,3.1,0,4.7c0,0.6-0.2,0.8-0.8,0.8c-0.6,0-0.7-0.3-0.7-0.8C57.9,135,57.9,134.1,57.9,133.2z"/>
<path class="st0" d="M143.6,133.3c0,0.9,0,1.8,0,2.8c0,0.6-0.3,0.6-0.7,0.6c-0.5,0-0.7-0.1-0.7-0.6c0-1.8,0-3.6,0-5.4
	c0-0.5,0-1-0.7-0.9c-0.4,0-0.5-0.2-0.5-0.6c0-0.3,0-0.6,0.4-0.6c0.8,0.1,0.7-0.4,0.7-0.9c0.1-2.1,1.5-3.3,3.4-3
	c0.4,0.1,0.7,0.1,0.6,0.6c-0.1,0.4-0.2,0.6-0.7,0.6c-1.3-0.1-2.1,0.9-1.9,2.3c0.1,0.3,0.2,0.4,0.5,0.4c0.3,0,0.6,0,0.9,0
	c0.4,0,0.6,0.2,0.6,0.6c0,0.4-0.2,0.5-0.6,0.6c-1.4,0.1-1.4,0.1-1.4,1.5C143.6,132,143.6,132.7,143.6,133.3z"/>
<path class="st0" d="M82.8,132.5c0-0.6,0-1.2,0-1.8c0-0.5,0-1-0.7-0.9c-0.4,0.1-0.5-0.2-0.5-0.6c0-0.3-0.1-0.7,0.4-0.6
	c0.9,0.1,0.8-0.5,0.8-1c0-0.3-0.2-0.8,0.3-0.9c0.3-0.1,0.7-0.3,1-0.2c0.3,0.1,0.2,0.6,0.2,0.9c-0.1,1,0.2,1.5,1.3,1.3
	c0.4-0.1,0.8-0.1,0.8,0.5c0,0.7-0.4,0.7-0.8,0.6c-1.1-0.2-1.3,0.3-1.3,1.3c0.1,1,0,2.1,0,3.1c0,0.9,0.4,1.5,1.4,1.4
	c0.4,0,0.6,0.1,0.6,0.5c0,0.4-0.1,0.6-0.5,0.7c-1.7,0.3-2.8-0.4-2.9-2.1C82.8,133.9,82.8,133.2,82.8,132.5
	C82.8,132.5,82.8,132.5,82.8,132.5z"/>
<path class="st0" d="M77.5,136.8c-0.5,0-1-0.1-1.4-0.2c-0.5-0.2-0.7-0.4-0.5-0.9c0.2-0.6,0.5-0.2,0.8-0.2c0.6,0.2,1.2,0.4,1.9,0.2
	c0.5-0.2,0.8-0.4,0.9-0.9c0.1-0.5-0.1-0.9-0.6-1.2c-0.5-0.3-1-0.5-1.5-0.7c-1.2-0.6-1.7-1.4-1.5-2.5c0.2-1,1.1-1.8,2.4-1.9
	c0.6,0,1.1,0,1.6,0.2c0.4,0.1,0.7,0.2,0.5,0.8c-0.2,0.5-0.4,0.5-0.8,0.3c-0.4-0.2-0.9-0.2-1.4-0.1c-0.5,0.1-0.9,0.3-1,0.8
	c-0.1,0.5,0.1,0.9,0.6,1.1c0.3,0.2,0.6,0.3,0.9,0.4c1.8,0.7,2.4,1.6,2.1,3C80.4,136.2,79.2,136.9,77.5,136.8z"/>
<path class="st0" d="M106.1,136.9c-1.7,0-3-0.7-3.7-2.3c-0.7-1.7-0.3-3.7,0.9-4.9c1.1-1.1,3.2-1.5,4.6-0.9c0.4,0.2,0.4,0.4,0.3,0.8
	c-0.1,0.3-0.3,0.5-0.6,0.4c-0.1,0-0.2-0.1-0.3-0.1c-1.3-0.2-2.4-0.1-3.2,1.1c-0.7,1-0.7,2.6,0,3.6c0.6,1,1.8,1.4,3.2,1.1
	c0.4-0.1,0.8-0.5,1,0.2c0.2,0.7-0.3,0.8-0.8,0.8C107,136.8,106.5,136.8,106.1,136.9z"/>
<path class="st0" d="M111.9,126.5c0,0.2,0,0.4,0,0.6c0,1.5,0,1.5,1.5,1.6c0.4,0,0.6,0.1,0.5,0.5c0,0.4-0.1,0.6-0.5,0.7
	c-0.5,0-1.2-0.3-1.5,0.2c-0.2,0.4-0.1,1.1-0.1,1.6c0,0.9,0,1.7,0,2.6c0,1.1,0.3,1.4,1.4,1.4c0.3,0,0.6,0,0.6,0.4
	c0,0.4-0.1,0.7-0.6,0.7c-1.8,0.3-2.8-0.5-2.8-2.3c0-1.3,0-2.6,0-3.8c0-0.5-0.1-0.9-0.7-0.8c-0.4,0.1-0.5-0.2-0.6-0.6
	c0-0.5,0.2-0.6,0.6-0.5c0.6,0.1,0.7-0.3,0.7-0.8C110.4,126.8,110.9,126.4,111.9,126.5z"/>
<path class="st0" d="M165,132.6c0-0.6,0-1.1,0-1.7c0-0.6,0.1-1.2-0.9-1.1c-0.4,0.1-0.4-0.3-0.4-0.6c0-0.3,0.1-0.5,0.5-0.5
	c0.9,0.1,0.8-0.4,0.8-1c0-0.3-0.2-0.8,0.2-1c0.3-0.1,0.7-0.3,1-0.2c0.3,0.1,0.1,0.5,0.1,0.8c0,1.4,0,1.4,1.4,1.4
	c0.4,0,0.7,0,0.7,0.5c0,0.6-0.3,0.6-0.8,0.6c-1.3,0-1.3,0.1-1.3,1.4c0,1,0,2,0,3c0,0.9,0.3,1.5,1.3,1.4c0.4,0,0.6,0,0.6,0.5
	c0,0.4-0.1,0.6-0.6,0.7c-1.8,0.3-2.7-0.5-2.8-2.3C165,133.9,165,133.2,165,132.6C165,132.6,165,132.6,165,132.6z"/>
<path class="st0" d="M44.4,131.2c0-1.6,0-3.3,0-4.9c0-0.6,0.2-0.8,0.8-0.8c0.6,0,0.8,0.2,0.8,0.8c0,3.2,0,6.4,0,9.6
	c0,0.5,0,0.8-0.7,0.8c-0.7,0-0.8-0.2-0.8-0.9C44.4,134.3,44.4,132.7,44.4,131.2z"/>
<path class="st0" d="M89.3,129.9c0.6-0.8,1.1-1.4,2-1.5c0.4,0,0.7,0,0.7,0.5c0,0.4,0.3,0.9-0.5,0.9c-1.4,0.2-2,0.9-2,2.3
	c0,1.2,0,2.4,0,3.5c0,0.5,0.1,1-0.7,1c-0.9,0-0.8-0.5-0.8-1.1c0-2.1,0-4.1,0-6.2c0-0.4-0.2-0.8,0.5-0.9c0.6,0,0.8,0.3,0.8,0.8
	C89.3,129.5,89.3,129.7,89.3,129.9z"/>
<path class="st0" d="M126.2,130c0.6-0.9,1.2-1.4,2.1-1.5c0.4,0,0.6,0.1,0.6,0.6c0,0.3,0.2,0.8-0.5,0.9c-1.4,0.2-2,0.9-2,2.3
	c0,1.3,0,2.6,0,3.8c0,0.6-0.2,0.7-0.7,0.7c-0.5,0-0.8-0.1-0.8-0.7c0-2.2,0-4.4,0-6.6c0-0.4-0.1-0.8,0.5-0.8c0.5,0,0.8,0.1,0.8,0.7
	C126.1,129.5,126.2,129.6,126.2,130z"/>
<path class="st0" d="M63.9,130.2c0.6-1,1.1-1.6,2.1-1.7c0.3,0,0.7,0,0.6,0.5c0,0.3,0.3,0.9-0.5,1c-1.4,0.2-2,0.9-2.1,2.5
	c0,1.2,0,2.4,0,3.6c0,0.6-0.2,0.7-0.7,0.7c-0.6,0-0.8-0.1-0.8-0.8c0-2.2,0-4.3,0-6.5c0-0.4-0.2-0.9,0.5-0.9c0.6,0,0.8,0.2,0.8,0.8
	C63.9,129.6,63.9,129.7,63.9,130.2z"/>
<path class="st0" d="M157,130.1c0.6-1,1.1-1.6,2.1-1.7c0.4,0,0.7,0,0.6,0.5c0,0.3,0.3,0.9-0.5,0.9c-1.4,0.2-2,0.9-2,2.4
	c0,1.2,0,2.5,0,3.7c0,0.6-0.2,0.7-0.7,0.7c-0.6,0-0.8-0.1-0.8-0.8c0-2.2,0-4.4,0-6.6c0-0.4,0-0.8,0.6-0.8c0.5,0,0.8,0.1,0.8,0.7
	C156.9,129.5,157,129.7,157,130.1z"/>
<path class="st0" d="M10.2,132.6c0-1.1,0-2.2,0-3.3c0-0.6,0.3-0.7,0.8-0.7c0.5,0,0.8,0.1,0.8,0.7c0,2.2,0,4.5,0,6.7
	c0,0.7-0.3,0.7-0.8,0.7c-0.6,0-0.7-0.2-0.7-0.8C10.3,134.9,10.2,133.8,10.2,132.6z"/>
<path class="st0" d="M11,125.5c0.6,0,0.9,0.4,0.9,1c0,0.6-0.4,0.9-1,0.8c-0.5,0-0.8-0.4-0.8-0.9C10.1,125.8,10.5,125.5,11,125.5z"/>
</svg>
