<?xml version="1.0" encoding="utf-8"?>
<!-- Generator: Adobe Illustrator 20.0.0, SVG Export Plug-In . SVG Version: 6.00 Build 0)  -->
<!DOCTYPE svg PUBLIC "-//W3C//DTD SVG 1.1//EN" "http://www.w3.org/Graphics/SVG/1.1/DTD/svg11.dtd" [
	<!ENTITY ns_extend "http://ns.adobe.com/Extensibility/1.0/">
	<!ENTITY ns_ai "http://ns.adobe.com/AdobeIllustrator/10.0/">
	<!ENTITY ns_graphs "http://ns.adobe.com/Graphs/1.0/">
	<!ENTITY ns_vars "http://ns.adobe.com/Variables/1.0/">
	<!ENTITY ns_imrep "http://ns.adobe.com/ImageReplacement/1.0/">
	<!ENTITY ns_sfw "http://ns.adobe.com/SaveForWeb/1.0/">
	<!ENTITY ns_custom "http://ns.adobe.com/GenericCustomNamespace/1.0/">
	<!ENTITY ns_adobe_xpath "http://ns.adobe.com/XPath/1.0/">
]>
<svg version="1.1" id="art" xmlns:x="&ns_extend;" xmlns:i="&ns_ai;" xmlns:graph="&ns_graphs;"
	 xmlns="http://www.w3.org/2000/svg" xmlns:xlink="http://www.w3.org/1999/xlink" x="0px" y="0px" width="220px" height="243px"
	 viewBox="0 0 220 243" style="enable-background:new 0 0 220 243;" xml:space="preserve">
<style type="text/css">
	.st0{fill:#301C47;}
	.st1{fill:none;stroke:#F4A04D;stroke-width:2;stroke-miterlimit:10;}
	.st2{fill:#F4A04D;}
	.st3{fill:url(#SVGID_1_);}
	.st4{fill:none;stroke:#C8495B;stroke-width:9;stroke-linecap:round;stroke-miterlimit:10;}
</style>
<metadata>
	<sfw  xmlns="&ns_sfw;">
		<slices></slices>
		<sliceSourceBounds  bottomLeftOrigin="true" height="242.9" width="220" x="0" y="0"></sliceSourceBounds>
		<optimizationSettings>
			<targetSettings  fileFormat="PNG24Format" targetSettingsID="0">
				<PNG24Format  filtered="false" interlaced="false" matteColor="#000000" noMatteColor="true" transparency="true">
					</PNG24Format>
			</targetSettings>
		</optimizationSettings>
	</sfw>
</metadata>
<g>
	<polygon class="st0" points="128.4,109.8 0,183.9 0,100.2 128.4,26 	"/>
	<polygon class="st1" points="45.9,116.5 9.3,137.6 9.3,113.7 45.9,92.6 	"/>
	<polygon class="st2" points="92.2,90.6 55.6,111.7 55.6,87.8 92.2,66.7 	"/>
	<polygon class="st1" points="137.6,65.6 101,86.7 101,62.8 137.6,41.7 	"/>
	<polygon class="st2" points="45.9,161.4 9.3,182.7 9.3,158.8 45.9,137.6 	"/>
	<polygon class="st1" points="92.2,135.6 55.6,156.7 55.6,132.8 92.2,111.7 	"/>
	<polygon class="st1" points="137.6,110.6 101,131.7 101,107.8 137.6,86.7 	"/>
</g>
<linearGradient id="SVGID_1_" gradientUnits="userSpaceOnUse" x1="1667.5476" y1="80.6392" x2="1856.4066" y2="189.677" gradientTransform="matrix(-1 0 0 -1 1883.9618 242.1)">
	<stop  offset="0.4453" style="stop-color:#C8495B;stop-opacity:0"/>
	<stop  offset="1" style="stop-color:#C8495B;stop-opacity:0.5"/>
</linearGradient>
<polygon class="st3" points="138.7,20.1 220,0.1 220,155.2 74.4,242.9 0,183.9 0,100.2 "/>
<g>
	<path class="st4" d="M116.2,80.7c18.1,7.6,18.1,37,0,65.5S68.8,191.7,50.7,184s-18.1-37,0-65.5S98.1,73.1,116.2,80.7z"/>
	<line class="st4" x1="50.7" y1="183.9" x2="116.2" y2="80.7"/>
</g>
</svg>
