<?xml version="1.0" encoding="utf-8"?>
<!-- Generator: Adobe Illustrator 20.0.0, SVG Export Plug-In . SVG Version: 6.00 Build 0)  -->
<!DOCTYPE svg PUBLIC "-//W3C//DTD SVG 1.1//EN" "http://www.w3.org/Graphics/SVG/1.1/DTD/svg11.dtd" [
	<!ENTITY ns_extend "http://ns.adobe.com/Extensibility/1.0/">
	<!ENTITY ns_ai "http://ns.adobe.com/AdobeIllustrator/10.0/">
	<!ENTITY ns_graphs "http://ns.adobe.com/Graphs/1.0/">
	<!ENTITY ns_vars "http://ns.adobe.com/Variables/1.0/">
	<!ENTITY ns_imrep "http://ns.adobe.com/ImageReplacement/1.0/">
	<!ENTITY ns_sfw "http://ns.adobe.com/SaveForWeb/1.0/">
	<!ENTITY ns_custom "http://ns.adobe.com/GenericCustomNamespace/1.0/">
	<!ENTITY ns_adobe_xpath "http://ns.adobe.com/XPath/1.0/">
]>
<svg version="1.1" id="Layer_1" xmlns:x="&ns_extend;" xmlns:i="&ns_ai;" xmlns:graph="&ns_graphs;"
	 xmlns="http://www.w3.org/2000/svg" xmlns:xlink="http://www.w3.org/1999/xlink" x="0px" y="0px" width="220px" height="69.4px"
	 viewBox="0 0 220 69.4" style="enable-background:new 0 0 220 69.4;" xml:space="preserve">
<style type="text/css">
	.st0{fill:#DF4113;}
	.st1{fill:#EA5B1B;}
	.st2{fill:#F0F0F0;}
	.st3{fill:#FFFFFF;}
</style>
<metadata>
	<sfw  xmlns="&ns_sfw;">
		<slices></slices>
		<sliceSourceBounds  bottomLeftOrigin="true" height="69.4" width="220" x="173.5" y="-456.5"></sliceSourceBounds>
	</sfw>
</metadata>
<polygon class="st0" points="189.3,69.4 164.3,62.5 158.8,0 220,0 214.4,62.5 189.3,69.4 "/>
<polygon class="st1" points="209.6,58.5 214.4,5.1 189.4,5.1 189.4,64.1 209.6,58.5 "/>
<polygon class="st2" points="189.4,36 189.4,28.3 179.2,28.3 178.5,20.4 189.4,20.4 189.4,12.8 189.4,12.8 170.2,12.8 170.3,14.8 
	172.2,36 189.4,36 "/>
<polygon class="st2" points="189.4,48.2 189.3,48.2 180.8,45.9 180.3,39.8 176.1,39.8 172.6,39.8 173.6,51.8 189.3,56.2 189.4,56.2 
	189.4,48.2 "/>
<polygon class="st3" points="207.2,28.3 205.1,28.3 189.4,28.3 189.4,36 198.8,36 197.9,45.9 189.4,48.2 189.4,56.2 205.1,51.8 
	205.2,50.5 207,30.4 207.2,28.3 "/>
<polygon class="st3" points="208.6,12.8 189.4,12.8 189.4,17.5 189.4,20.4 189.4,20.4 207.8,20.4 207.9,20.4 208,18.7 208.4,14.8 
	208.6,12.8 "/>
<polygon points="73.3,45.9 73.3,56.2 40.6,56.2 40.6,12.8 73.3,12.8 73.3,22.8 53.7,22.8 53.7,29.1 69.5,29.1 69.5,38.8 53.7,38.8 
	53.7,45.9 73.3,45.9 "/>
<polygon points="111.3,45.9 111.3,56.2 78.6,56.2 78.6,12.8 111.3,12.8 111.3,22.8 91.7,22.8 91.7,29.1 107.5,29.1 107.5,38.8 
	91.7,38.8 91.7,45.9 111.3,45.9 "/>
<path d="M155.2,56.2h-14.8l-6.3-16.6h-4.2v16.6h-13.3V12.8h22.7c5,0,8.9,1.2,11.7,3.5c2.8,2.3,4.2,5.4,4.2,9.3
	c0,2.5-0.5,4.7-1.5,6.6c-1,1.9-3.1,3.6-6.2,5.1L155.2,56.2L155.2,56.2z M129.9,30.3h5.7c1.7,0,3-0.4,4-1.1c1-0.7,1.5-1.7,1.5-3.1
	c0-2.8-1.7-4.2-5.1-4.2h-6.1V30.3L129.9,30.3z"/>
<path d="M13.5,40.5v15.8H0V12.8h18.6c4.6,0,8.1,0.5,10.5,1.6c2.4,1.1,4.3,2.7,5.7,4.9c1.4,2.2,2.1,4.6,2.1,7.4c0,4.1-1.4,7.5-4.3,10
	c-2.9,2.5-6.7,3.8-11.6,3.8H13.5L13.5,40.5z M13.3,31.1h4.5c3.9,0,5.9-1.4,5.9-4.3c0-2.7-1.8-4.1-5.4-4.1h-4.9V31.1L13.3,31.1z"/>
</svg>
