<?xml version="1.0" encoding="utf-8"?>
<!-- Generator: Adobe Illustrator 20.0.0, SVG Export Plug-In . SVG Version: 6.00 Build 0)  -->
<!DOCTYPE svg PUBLIC "-//W3C//DTD SVG 1.1//EN" "http://www.w3.org/Graphics/SVG/1.1/DTD/svg11.dtd" [
	<!ENTITY ns_extend "http://ns.adobe.com/Extensibility/1.0/">
	<!ENTITY ns_ai "http://ns.adobe.com/AdobeIllustrator/10.0/">
	<!ENTITY ns_graphs "http://ns.adobe.com/Graphs/1.0/">
	<!ENTITY ns_vars "http://ns.adobe.com/Variables/1.0/">
	<!ENTITY ns_imrep "http://ns.adobe.com/ImageReplacement/1.0/">
	<!ENTITY ns_sfw "http://ns.adobe.com/SaveForWeb/1.0/">
	<!ENTITY ns_custom "http://ns.adobe.com/GenericCustomNamespace/1.0/">
	<!ENTITY ns_adobe_xpath "http://ns.adobe.com/XPath/1.0/">
]>
<svg version="1.1" id="Layer_1" xmlns:x="&ns_extend;" xmlns:i="&ns_ai;" xmlns:graph="&ns_graphs;"
	 xmlns="http://www.w3.org/2000/svg" xmlns:xlink="http://www.w3.org/1999/xlink" x="0px" y="0px" width="220px" height="64px"
	 viewBox="0 0 220 64" style="enable-background:new 0 0 220 64;" xml:space="preserve">
<style type="text/css">
	.st0{fill:#878787;}
	.st1{fill:#FF893D;}
</style>
<metadata>
	<sfw  xmlns="&ns_sfw;">
		<slices></slices>
		<sliceSourceBounds  bottomLeftOrigin="true" height="64" width="220" x="506.6" y="-419"></sliceSourceBounds>
	</sfw>
</metadata>
<g>
	<path class="st0" d="M70.5,59.9V43.2h2.1v1.5c1.2-1.3,2.6-1.9,3.9-1.9c1.2,0,2.5,0.8,2.9,1.9c1.2-1.3,2.7-1.9,3.7-1.9
		c1.7,0,3.4,1.3,3.4,3.1v13.9h-2.1V46.4c0-1.5-0.9-2-1.8-2c-0.9,0-1.9,0.5-2.8,1.4v14.1h-2.1V46.3c0-1.5-0.9-2-1.9-2
		c-1,0-2.2,0.6-3.1,1.7v13.8H70.5z"/>
	<path class="st0" d="M89.6,52.2l0-2.3c0-5.9,2-7,4.7-7c3.1,0,4.3,2.1,4.3,6.6c0,0.7,0,1,0,1.7h-6.8v2.5c0,4.5,1,5.2,2.5,5.2
		c1.1,0,2.2-0.8,2.3-4v-0.1h2v0.1c-0.3,2.9-1,5.4-4.2,5.4C90.9,60.2,89.6,58.5,89.6,52.2z M91.8,50.1h4.7v0c0-2.5,0.3-5.8-2.1-5.8
		C91.8,44.2,91.8,46.2,91.8,50.1L91.8,50.1z"/>
	<path class="st0" d="M107.9,59.9v-1.6c-1,1.5-2.4,1.9-3.4,1.9c-1.6,0-3.6-0.8-3.6-8v-1.3c0-7.5,2-8.1,3.7-8.1
		c1.2,0,2.4,0.6,3.3,1.9v-8.8h2.1v23.9H107.9z M107.9,57V46c-0.9-1-1.8-1.7-2.9-1.7c-1,0-2,0.3-2,6.6v1.3c0,6.2,1,6.4,2.1,6.4
		C106,58.7,107.1,58,107.9,57z"/>
	<path class="st0" d="M114.6,39.4v-2.5h2.1v2.5H114.6z M114.6,59.9V43.2h2.1v16.7H114.6z"/>
	<path class="st0" d="M126.9,59.9l-0.3-2c-1,1.7-2.5,2.4-3.6,2.4c-1.6,0-3.3-1.4-3.3-3.7c0-2.2,0.1-4.2,6.7-6.9v-0.1
		c0-4.9-1-5.3-2.1-5.3c-0.8,0-2,0.3-2.2,3.2v0.1H120c0.2-2.9,1.8-4.7,4.3-4.7c3.6,0,4.3,2.9,4.3,5.2v8c0,2,0.3,3.8,0.3,3.8H126.9z
		 M126.4,56.5v-5.9c-2.9,2-4.6,3.3-4.6,5.6c0,1.7,0.9,2.4,1.7,2.4C124.6,58.5,125.8,57.7,126.4,56.5z"/>
	<path class="st0" d="M136.8,55.7l1.6-0.5c0.5,1.4,1.6,3.6,3.3,3.6c1.5,0,2.2-1,2.2-2.5c0-1.3-1.5-2.9-2.9-4.1l-1.2-1.1
		c-1.5-1.3-2.8-2.6-2.8-4.3c0-2.6,1.7-4,4.3-4c2.5,0,3.8,2.1,4.4,4.2l-1.9,0.6c-0.2-1.4-1-3.3-2.6-3.3c-1.3,0-2.1,1-2.1,2.3
		c0,1.2,0.9,2.2,2.1,3.2l1.3,1.1c1.6,1.4,3.4,2.9,3.4,5.3c0,2.5-1.8,4-4.3,4C139.1,60.2,137.4,58.1,136.8,55.7z"/>
	<path class="st0" d="M148.1,64v-1.7c2.3-0.2,3.3-0.8,3.3-1.8c0-0.5,0-1.3-0.2-2l-3.7-15.3h2.3l2.8,14.3l2.8-14.3h2.3L153.4,61
		C152.8,63.3,151.1,63.9,148.1,64L148.1,64z"/>
	<path class="st0" d="M158.8,55.7l1.6-0.5c0.5,1.4,1.6,3.6,3.3,3.6c1.5,0,2.2-1,2.2-2.5c0-1.3-1.5-2.9-2.9-4.1l-1.2-1.1
		c-1.5-1.3-2.8-2.6-2.8-4.3c0-2.6,1.7-4,4.3-4c2.5,0,3.8,2.1,4.4,4.2l-1.9,0.6c-0.2-1.4-1-3.3-2.6-3.3c-1.3,0-2.1,1-2.1,2.3
		c0,1.2,0.9,2.2,2.1,3.2l1.3,1.1c1.6,1.4,3.4,2.9,3.4,5.3c0,2.5-1.8,4-4.3,4C161,60.2,159.4,58.1,158.8,55.7z"/>
	<path class="st0" d="M171.7,55.9V44.4h-2.3v-1.2h2.3v-5.9h2.1v5.9h2.7v1.2h-2.7v11.5c0,1.7,0.1,2.7,1.4,2.7c0.4,0,0.8,0,1.3-0.1
		v1.4c-0.7,0.2-1.3,0.2-1.8,0.2C171.9,60.1,171.7,58,171.7,55.9z"/>
	<path class="st0" d="M178.5,52.2l0-2.3c0-5.9,1.9-7,4.6-7c3,0,4.2,2.1,4.2,6.6c0,0.7,0,1,0,1.7h-6.7v2.5c0,4.5,0.9,5.2,2.5,5.2
		c1.1,0,2.2-0.8,2.2-4v-0.1h1.9v0.1c-0.2,2.9-1,5.4-4.1,5.4C179.7,60.2,178.4,58.5,178.5,52.2z M180.6,50.1h4.6v0
		c0-2.5,0.3-5.8-2-5.8C180.6,44.2,180.6,46.2,180.6,50.1L180.6,50.1z"/>
	<path class="st0" d="M190.9,59.9V43.2h2.1v1.5c1.1-1.3,2.5-1.9,3.8-1.9c1.1,0,2.4,0.8,2.9,1.9c1.2-1.3,2.7-1.9,3.7-1.9
		c1.7,0,3.3,1.3,3.3,3.1v13.9h-2.1V46.4c0-1.5-0.8-2-1.8-2c-0.8,0-1.9,0.5-2.7,1.4v14.1h-2.1V46.3c0-1.5-0.8-2-1.9-2
		c-0.9,0-2.2,0.6-3.1,1.7v13.8H190.9z"/>
	<path class="st0" d="M209.5,55.7l1.6-0.5c0.5,1.4,1.6,3.6,3.3,3.6c1.5,0,2.2-1,2.2-2.5c0-1.3-1.5-2.9-2.9-4.1l-1.2-1.1
		c-1.5-1.3-2.8-2.6-2.8-4.3c0-2.6,1.7-4,4.3-4c2.5,0,3.8,2.1,4.4,4.2l-1.9,0.6c-0.2-1.4-1-3.3-2.6-3.3c-1.3,0-2.1,1-2.1,2.3
		c0,1.2,0.9,2.2,2.1,3.2l1.4,1.1c1.6,1.4,3.4,2.9,3.4,5.3c0,2.5-1.8,4-4.3,4C211.8,60.2,210.2,58.1,209.5,55.7z"/>
</g>
<g>
	<path class="st1" d="M92.5,19.9c0.4,1.5,0.4,2.8,0.5,2.8H93c0,0,0.1-1.3,0.4-2.8l4.3-18.4h4.9l-6.7,26.6h-5.5l-4-15.7
		c-0.4-1.7-0.7-3.5-0.7-3.5h-0.1c0,0-0.2,1.8-0.7,3.5l-4,15.7h-5.5L69.1,1.5h4.9L78,19.9c0.3,1.5,0.4,2.8,0.4,2.8h0.1
		c0,0,0.1-1.3,0.5-2.8l4.7-18.4h4.1L92.5,19.9z"/>
	<path class="st1" d="M119.2,1c7.7,0,13.5,6,13.5,13.6c0,7.8-5.8,13.9-13.5,13.9c-7.7,0-13.5-6.1-13.5-13.9C105.7,7,111.5,1,119.2,1
		z M119.2,24.1c4.8,0,8.6-4,8.6-9.5c0-5.2-3.8-9.1-8.6-9.1c-4.8,0-8.6,3.9-8.6,9.1C110.6,20.1,114.4,24.1,119.2,24.1z"/>
	<path class="st1" d="M159.1,19.9c0.4,1.5,0.4,2.8,0.5,2.8h0.1c0,0,0.1-1.3,0.4-2.8l4.3-18.4h4.9l-6.7,26.6h-5.5l-4-15.7
		c-0.4-1.7-0.7-3.5-0.7-3.5h-0.1c0,0-0.2,1.8-0.7,3.5l-4,15.7h-5.5l-6.5-26.6h4.9l4.1,18.4c0.3,1.5,0.4,2.8,0.4,2.8h0.1
		c0,0,0.1-1.3,0.5-2.8l4.7-18.4h4.1L159.1,19.9z"/>
	<path class="st1" d="M172.3,25L183.9,8c1-1.5,1.9-2.4,1.9-2.4V5.6c0,0-0.7,0.1-1.9,0.1h-10.9V1.5h18.8v3.1l-11.6,17
		c-1,1.5-1.9,2.4-1.9,2.4V24c0,0,0.7-0.1,1.9-0.1h11.7v4.2h-19.6V25z"/>
	<path class="st1" d="M210.5,21.3h-9.1l-2.2,6.8h-4.9l9.2-26.6h5l9.2,26.6h-4.9L210.5,21.3z M205.9,6.1c0,0-0.6,2.6-1.1,4.1
		l-2.3,7.1h6.8l-2.3-7.1C206.5,8.7,205.9,6.1,205.9,6.1L205.9,6.1z"/>
</g>
<g>
	<path class="st1" d="M213.9,2h-1.3V1.4h3.3V2h-1.3v3.3h-0.7V2z"/>
	<path class="st1" d="M216.2,1.4h0.8l0.8,1.9c0.1,0.2,0.2,0.6,0.2,0.6h0c0,0,0.1-0.3,0.2-0.6l0.8-1.9h0.8l0.3,3.9h-0.7l-0.2-2.2
		c0-0.3,0-0.6,0-0.6h0c0,0-0.1,0.4-0.2,0.6l-0.6,1.5h-0.6L217,3.1c-0.1-0.2-0.2-0.6-0.2-0.6h0c0,0,0,0.4,0,0.6l-0.2,2.2h-0.7
		L216.2,1.4z"/>
</g>
<path class="st1" d="M22.4,51.7c-1.4,0.5-3,1.8-4.5,0.6c-1.5-1.2-0.2-3.8-0.2-3.8s11-25.7,11.6-28.6c0.5-2.4-0.8-2.2-2.3-0.9
	c-0.9,0.8-12.5,10.9-14.2,11.7c-1.2,0.6-2.6,1.2-3.6,0.2c-1-1,0.1-3.4,0.1-3.4L21.4,1.4c-0.8,0.2-1.5,0.5-2.3,0.8
	C3.5,8.6-4.1,26.5,2.2,42.2c6.4,15.7,24.2,23.3,40,16.9c11.9-4.8,19.1-16.3,19.2-28.4C47.8,38.1,23.2,51.4,22.4,51.7"/>
<path class="st1" d="M28.6,0.1c-2.7,5.7-6.3,13.6-6.2,14.5c0.2,1.5,1.9,0.2,1.9,0.2s10.9-9.3,13-10.5c2.1-1.2,2.7,0.5,2.4,1.6
	c-0.2,0.8-6.7,17.3-6.4,19.2c0.3,2.1,2.6,0.3,3.4-0.3c0.6-0.5,16.5-15,16.5-15C46.8,3,37.8-0.6,28.6,0.1"/>
</svg>
